<?xml version="1.0" encoding="UTF-8" standalone="no"?>
<!-- Created with Inkscape (http://www.inkscape.org/) -->

<svg
   xmlns:dc="http://purl.org/dc/elements/1.1/"
   xmlns:cc="http://creativecommons.org/ns#"
   xmlns:rdf="http://www.w3.org/1999/02/22-rdf-syntax-ns#"
   xmlns:svg="http://www.w3.org/2000/svg"
   xmlns="http://www.w3.org/2000/svg"
   xmlns:xlink="http://www.w3.org/1999/xlink"
   xmlns:sodipodi="http://sodipodi.sourceforge.net/DTD/sodipodi-0.dtd"
   xmlns:inkscape="http://www.inkscape.org/namespaces/inkscape"
   id="svg10864"
   sodipodi:docname="add_company_clipart.svg"
   viewBox="0 0 64 48"
   version="1.1"
   inkscape:version="0.48.4 r9939"
   width="100%"
   height="100%"
   inkscape:export-filename="C:\data\ws\joffice_fx\com.joffice.build\web\joffice.eu\images\add_company_64_48.png"
   inkscape:export-xdpi="90"
   inkscape:export-ydpi="90">
  <defs
     id="defs10866">
    <linearGradient
       id="linearGradient40237"
       y2="432.28"
       gradientUnits="userSpaceOnUse"
       x2="-214.8"
       gradientTransform="matrix(1,0,0,0.78415,-2.8281,112.43)"
       y1="432.28"
       x1="-245.49001"
       inkscape:collect="always">
      <stop
         id="stop40233"
         style="stop-color:#d3d7cf"
         offset="0" />
      <stop
         id="stop40239"
         style="stop-color:#eeeeec"
         offset=".11792" />
      <stop
         id="stop40235"
         style="stop-color:#555753"
         offset="1" />
    </linearGradient>
    <linearGradient
       inkscape:collect="always"
       x1="16.875"
       y1="22.852"
       x2="27.901"
       gradientUnits="userSpaceOnUse"
       y2="34.977"
       id="linearGradient7922">
      <stop
         offset="0"
         style="stop-color:#ffffff"
         id="stop7918" />
      <stop
         offset="1"
         style="stop-color:#ffffff;stop-opacity:.34021"
         id="stop7920" />
    </linearGradient>
    <linearGradient
       inkscape:collect="always"
       xlink:href="#linearGradient7922"
       id="linearGradient3886"
       gradientUnits="userSpaceOnUse"
       gradientTransform="translate(400.44755,692.65651)"
       x1="16.875"
       y1="22.852"
       x2="27.901"
       y2="34.977" />
    <linearGradient
       inkscape:collect="always"
       xlink:href="#linearGradient40237"
       id="linearGradient3932"
       gradientUnits="userSpaceOnUse"
       gradientTransform="matrix(1,0,0,0.78415,-2.8281,112.43)"
       x1="-245.49001"
       y1="432.28"
       x2="-214.8"
       y2="432.28" />
  </defs>
  <sodipodi:namedview
     id="base"
     bordercolor="#666666"
     inkscape:pageshadow="2"
     inkscape:window-y="-9"
     pagecolor="#ffffff"
     inkscape:window-height="1051"
     inkscape:window-maximized="1"
     inkscape:zoom="3.959798"
     inkscape:window-x="69"
     showgrid="false"
     borderopacity="1.0"
     inkscape:current-layer="layer1"
     inkscape:cx="57.081639"
     inkscape:cy="26.234104"
     inkscape:window-width="1842"
     inkscape:pageopacity="0.0"
     inkscape:document-units="px" />
  <g
     id="layer1"
     inkscape:label="Capa 1"
     inkscape:groupmode="layer"
     transform="translate(-446.6,-702.66)">
    <g
       id="g3888"
       transform="matrix(-1.0559085,0,0,1.0559085,1005.4503,-39.200935)">
      <path
         inkscape:connector-curvature="0"
         d="m 524.10656,740.08255 -12.80937,7.39553 v -14.79107 l 12.80937,-7.39554 v 14.79108 z"
         style="fill:#364e59"
         sodipodi:nodetypes="ccccc"
         id="path39383" />
      <path
         inkscape:connector-curvature="0"
         d="m 485.6776,712.96604 12.80938,-7.39554 4.26979,7.39554 -12.80938,7.39554 -4.26979,-7.39554 z"
         style="fill:#555753"
         id="path5471" />
      <path
         inkscape:connector-curvature="0"
         d="m 489.94934,715.4289 12.80938,-7.39554 4.26979,7.39554 -12.80938,7.39554 -4.26979,-7.39554 z"
         style="fill:#555753"
         id="path5473" />
      <path
         inkscape:connector-curvature="0"
         d="m 494.2183,717.89454 12.80938,-7.39553 4.26979,7.39553 -12.80938,7.39554 -4.26979,-7.39554 z"
         style="fill:#555753"
         id="path5475" />
      <path
         inkscape:connector-curvature="0"
         d="m 498.48726,720.36019 12.80937,-7.39554 4.26979,7.39554 -12.80937,7.39553 -4.26979,-7.39553 z"
         style="fill:#555753"
         id="path5477" />
      <path
         inkscape:connector-curvature="0"
         d="m 502.75621,722.82583 12.80938,-7.39554 4.26979,7.39554 -12.80937,7.39554 -4.2698,-7.39554 z"
         style="fill:#555753"
         id="path5479" />
      <path
         inkscape:connector-curvature="0"
         d="m 507.02795,725.29147 12.80938,-7.39553 4.26979,7.39553 -12.80937,7.39554 -4.2698,-7.39554 z"
         style="fill:#555753"
         id="path5481" />
      <path
         inkscape:connector-curvature="0"
         d="m 485.68039,712.96882 v 4.92238 l -0.004,14.7933 25.61986,14.79275 0.004,-14.7933 -4.27007,-7.39192 v 4.92238 h -0.009 l -4.26117,-7.39192 v 4.93101 l -4.27007,-7.39192 v 4.93101 l -4.27007,-7.40083 v 4.93101 l -4.27007,-7.39192 v 4.92238 h -0.009 l -4.26117,-7.38329 z"
         style="fill:#9eabb0"
         sodipodi:nodetypes="cccccccccccccccccc"
         id="path39379" />
      <path
         inkscape:connector-curvature="0"
         d="m 519.83761,747.47669 -4.26979,-2.46517 v -9.86062 l 4.26979,2.46517 v 9.86062 z"
         style="fill:#babdb6"
         id="path5483" />
      <path
         inkscape:connector-curvature="0"
         d="m 519.83761,747.47669 4.26979,-2.46517 v -9.86062 l -4.26979,2.46517 v 9.86062 z"
         style="fill:#888a85"
         id="path5485" />
      <path
         inkscape:connector-curvature="0"
         d="m 511.283,732.70231 12.73173,-7.37466 -0.0696,1.04358 -12.69695,7.16595 0.0348,-0.83487 z"
         style="fill:#151819"
         id="path5966" />
      <path
         inkscape:connector-curvature="0"
         d="m 515.56587,735.15126 4.26979,-2.46517 4.26979,2.46517 -4.26979,2.46517 -4.26979,-2.46517 z"
         style="fill:#eeeeec"
         sodipodi:nodetypes="ccccc"
         id="path5487" />
      <g
         transform="matrix(0.27828925,0,0,0.22395049,587.22535,618.29204)"
         id="g40252">
        <path
           inkscape:connector-curvature="0"
           d="m -246.33,381.95 -2,138.92 h 0.0625 c -10e-4,0.0254 0,0.048 0,0.0735 0,1.9181 3.4507,3.4797 7.6875,3.4797 4.2368,0 7.6562,-1.5615 7.6562,-3.4797 0,-0.15171 -0.0208,-0.29449 -0.0625,-0.44108 l -2,-138.55 h -13.344 l 2,10e-6 z"
           style="fill:url(#linearGradient3932)"
           sodipodi:nodetypes="cccssscccc"
           id="rect40229" />
        <path
           sodipodi:cx="-240.88463"
           sodipodi:cy="-338.09055"
           transform="matrix(0.75605,0,0,0.59285,-58.505,581.95)"
           d="m -233.21314,-338.09055 c 0,2.44615 -3.43464,4.42914 -7.67149,4.42914 -4.23684,0 -7.67148,-1.98299 -7.67148,-4.42914 0,-2.44614 3.43464,-4.42913 7.67148,-4.42913 4.23685,0 7.67149,1.98299 7.67149,4.42913 z"
           sodipodi:type="arc"
           style="fill:#eeeeec"
           sodipodi:ry="4.4291339"
           sodipodi:rx="7.6714849"
           id="path40241" />
        <path
           sodipodi:cx="-240.88463"
           sodipodi:cy="-338.09055"
           transform="matrix(0.52141,0,0,0.40886,-115.02,520.56)"
           d="m -233.21314,-338.09055 c 0,2.44615 -3.43464,4.42914 -7.67149,4.42914 -4.23684,0 -7.67148,-1.98299 -7.67148,-4.42914 0,-2.44614 3.43464,-4.42913 7.67148,-4.42913 4.23685,0 7.67149,1.98299 7.67149,4.42913 z"
           sodipodi:type="arc"
           style="fill:#888a85"
           sodipodi:ry="4.4291339"
           sodipodi:rx="7.6714849"
           id="path5489" />
      </g>
      <path
         inkscape:connector-curvature="0"
         d="m 489.94934,715.4289 12.80938,-7.39554"
         style="fill:none;stroke:#000000;stroke-width:0.27828926px"
         id="path5529" />
      <path
         inkscape:connector-curvature="0"
         d="m 494.2183,717.89454 12.80938,-7.39553"
         style="fill:none;stroke:#000000;stroke-width:0.27828926px"
         id="path5531" />
      <path
         inkscape:connector-curvature="0"
         d="m 498.48726,720.36019 12.80937,-7.39554"
         style="fill:none;stroke:#000000;stroke-width:0.27828926px"
         id="path5533" />
      <path
         inkscape:connector-curvature="0"
         d="m 502.9705,722.85644 -0.21219,-0.0312 12.80937,-7.39554"
         style="fill:none;stroke:#000000;stroke-width:0.27828926px"
         id="path5535" />
      <path
         inkscape:connector-curvature="0"
         d="m 507.21441,725.15233 10.57944,-5.9053"
         style="fill:none;stroke:#000000;stroke-width:0.27828926px"
         sodipodi:nodetypes="cc"
         id="path5537" />
      <path
         inkscape:connector-curvature="0"
         d="m 485.78614,713.32503 4.16292,7.03516 v -4.93045 l 4.2698,7.39553 v -4.93045 l 4.26979,7.39554 v -4.93045 l 4.26979,7.39554 v -4.93046 l 4.26979,7.39554 v -4.93045 l 4.26979,7.39554"
         style="fill:none;stroke:#000000;stroke-width:0.27828926px;stroke-linejoin:bevel"
         id="path5539" />
      <g
         transform="matrix(0.04452628,0,0,0.04339364,486.45403,720.01789)"
         style="fill:#0084c8;stroke-width:1.25"
         id="g5684">
        <path
           inkscape:connector-curvature="0"
           d="m 184.12,131.1 v 53.15 l 30.686,17.717 v -53.15 L 184.12,131.1 z"
           style="fill:#0084c8"
           sodipodi:nodetypes="ccccc"
           id="path5686" />
        <path
           inkscape:connector-curvature="0"
           d="m 214.8,148.82 v 53.15"
           style="fill:#0084c8;stroke:#ffffff;stroke-width:1.58270001"
           id="path5688" />
      </g>
      <g
         transform="matrix(0.04452628,0,0,0.04339364,485.08763,719.24981)"
         style="fill:#0084c8;stroke-width:1.25"
         id="g5690">
        <path
           inkscape:connector-curvature="0"
           d="m 184.12,131.1 v 53.15 l 30.686,17.717 v -53.15 L 184.12,131.1 z"
           style="fill:#0084c8"
           sodipodi:nodetypes="ccccc"
           id="path5692" />
        <path
           inkscape:connector-curvature="0"
           d="m 214.8,148.82 v 53.15"
           style="fill:#0084c8;stroke:#ffffff;stroke-width:1.58270001"
           id="path5694" />
      </g>
      <g
         transform="matrix(0.04452628,0,0,0.04339364,494.65243,724.69872)"
         style="fill:#0084c8"
         id="g5794">
        <path
           inkscape:connector-curvature="0"
           d="m 184.12,131.1 v 53.15 l 30.686,17.717 v -53.15 L 184.12,131.1 z"
           style="fill:#0084c8"
           sodipodi:nodetypes="ccccc"
           id="path5796" />
        <path
           inkscape:connector-curvature="0"
           d="m 214.8,148.82 v 53.15"
           style="fill:#0084c8;stroke:#ffffff;stroke-width:1.58270001"
           id="path5798" />
      </g>
      <g
         transform="matrix(0.04452628,0,0,0.04339364,493.28603,723.92785)"
         style="fill:#0084c8;stroke-width:1.25"
         id="g5800">
        <path
           inkscape:connector-curvature="0"
           d="m 184.12,131.1 v 53.15 l 30.686,17.717 v -53.15 L 184.12,131.1 z"
           style="fill:#0084c8"
           sodipodi:nodetypes="ccccc"
           id="path5802" />
        <path
           inkscape:connector-curvature="0"
           d="m 214.8,148.82 v 53.15"
           style="fill:#0084c8;stroke:#ffffff;stroke-width:1.58270001"
           id="path5804" />
      </g>
      <path
         inkscape:connector-curvature="0"
         d="m 494.2183,737.74213 0,-8.05953 8.53958,4.80494 v 8.05954 l -8.53958,-4.80495 z"
         style="fill:#555753"
         sodipodi:nodetypes="ccccc"
         id="path5806" />
      <path
         inkscape:connector-curvature="0"
         d="m 498.54291,732.17078 -0.0544,7.97299"
         style="fill:none;stroke:#000000;stroke-width:0.06957231"
         id="path5808" />
      <path
         inkscape:connector-curvature="0"
         d="m 498.54291,732.17078 -0.0544,7.97299"
         style="fill:none;stroke:#000000;stroke-width:0.06957231"
         id="path5810" />
      <path
         inkscape:connector-curvature="0"
         d="m 504.1894,740.14099 v 2.95821 l 1.70792,0.98606 v -2.95821 l -1.70792,-0.98606 z"
         style="fill:#2e3436"
         sodipodi:nodetypes="ccccc"
         id="path5822" />
      <path
         inkscape:connector-curvature="0"
         d="m 506.27657,740.52224 v 0.59165 l -1.10823,0.56033 0.0835,-0.56033 1.02474,-0.59165 z"
         style="fill:#555753"
         sodipodi:nodetypes="ccccc"
         id="path5830" />
      <path
         inkscape:connector-curvature="0"
         d="m 506.27657,740.52224 -1.10823,1.13431 -2.00774,-1.18329 1.06648,-1.1343 2.04949,1.18328 z"
         style="fill:#babdb6"
         sodipodi:nodetypes="ccccc"
         id="path5834" />
      <path
         inkscape:connector-curvature="0"
         d="m 520.26339,703.14243 c -0.89142,0 -1.60885,0.26659 -1.60885,0.59137 0,0.0406 0.005,0.0748 0.0261,0.11305 l -0.26959,14.86232 -0.71312,0.41743 -2.13064,-3.69596 -2.13064,1.23491 -2.13934,-3.70459 -2.13935,1.23491 -2.13064,-3.69596 -2.13064,1.23491 -2.13935,-3.70459 -2.13935,1.23491 -2.13063,-3.69596 -12.80994,7.39192 0.009,0.0174 -0.009,19.70622 25.61987,14.79275 4.27007,-2.46982 4.27007,2.46982 4.27007,-2.46982 v -4.93101 -14.78411 l -1.94803,-3.37426 -0.32175,-18.06264 c 0.0251,-0.0412 0.0435,-0.0778 0.0435,-0.12175 0,-0.32477 -0.72611,-0.59137 -1.61756,-0.59137 h 2e-5 z"
         style="fill:none;stroke:#2e3436;stroke-width:0.83486772;stroke-linejoin:bevel"
         sodipodi:nodetypes="cscccccccccccccccccccccccscc"
         id="path5491" />
      <path
         inkscape:connector-curvature="0"
         d="m 485.68039,712.96882 v 4.92238 l -0.004,0.87884 25.61986,14.79275 0.004,-0.87884 -4.27007,-7.39192 v 4.92238 h -0.009 l -4.26117,-7.39192 v 4.93101 l -4.27007,-7.39192 v 4.93101 l -4.27007,-7.40083 v 4.93101 l -4.27007,-7.39192 v 4.92238 h -0.009 l -4.26117,-7.38329 h -2e-5 z"
         style="fill:#2e3436"
         sodipodi:nodetypes="ccccccccccccccccccc"
         id="path5949" />
    </g>
    <g
       id="g3881"
       transform="translate(69.15945,16.96049)">
      <path
         d="m 427.96155,730.19951 v -9.027 l 9.979,-0.04 v -6.996 h -9.97 l -0.009,-9.96 -7.016,0.011 0.005,9.931 -9.99,0.074 -0.036,6.969 10.034,-0.029 0.007,9.04 6.996,0.027 z"
         style="fill:#4e9a06;fill-opacity:1;stroke:#3a7304;stroke-width:1px;stroke-opacity:1"
         sodipodi:nodetypes="ccccccccccccc"
         id="text1314"
         inkscape:connector-curvature="0" />
      <path
         d="m 426.94655,729.19051 v -9.034 h 10.002 l -0.006,-5.025 h -9.987 v -9.995 l -4.995,0.018 0.009,9.977 -10.026,0.018 -0.027,4.973 10.064,0.009 -0.013,9.028 4.979,0.031 z"
         style="opacity:0.40859997;fill:#6cc713;fill-opacity:1;stroke:url(#linearGradient3886);stroke-width:1px"
         sodipodi:nodetypes="ccccccccccccc"
         id="path7076"
         inkscape:connector-curvature="0" />
      <path
         d="m 411.44755,717.65651 c 0,1.938 25.984,-0.969 25.984,-0.031 v -3 l -9.984,0.031 v -9.965 h -6 v 9.965 h -10 v 3 z"
         style="opacity:0.31182999;fill:#ffffff;fill-rule:evenodd"
         sodipodi:nodetypes="ccccccccc"
         id="path7914"
         inkscape:connector-curvature="0" />
    </g>
  </g>
  <metadata
     id="metadata52">
    <rdf:RDF>
      <cc:Work>
        <dc:format>image/svg+xml</dc:format>
        <dc:type
           rdf:resource="http://purl.org/dc/dcmitype/StillImage" />
        <cc:license
           rdf:resource="http://creativecommons.org/licenses/publicdomain/" />
        <dc:publisher>
          <cc:Agent
             rdf:about="http://openclipart.org/">
            <dc:title>Openclipart</dc:title>
          </cc:Agent>
        </dc:publisher>
        <dc:title></dc:title>
        <dc:date>2010-03-20T21:36:13</dc:date>
        <dc:description />
        <dc:source>https://openclipart.org/detail/32773/isocity-factory-by-rg1024</dc:source>
        <dc:creator>
          <cc:Agent>
            <dc:title>rg1024</dc:title>
          </cc:Agent>
        </dc:creator>
        <dc:subject>
          <rdf:Bag>
            <rdf:li>building</rdf:li>
            <rdf:li>factory</rdf:li>
            <rdf:li>isometric</rdf:li>
          </rdf:Bag>
        </dc:subject>
      </cc:Work>
      <cc:License
         rdf:about="http://creativecommons.org/licenses/publicdomain/">
        <cc:permits
           rdf:resource="http://creativecommons.org/ns#Reproduction" />
        <cc:permits
           rdf:resource="http://creativecommons.org/ns#Distribution" />
        <cc:permits
           rdf:resource="http://creativecommons.org/ns#DerivativeWorks" />
      </cc:License>
    </rdf:RDF>
  </metadata>
</svg>
