<?xml version="1.0" encoding="UTF-8" standalone="no"?>
<svg
   xmlns:dc="http://purl.org/dc/elements/1.1/"
   xmlns:cc="http://creativecommons.org/ns#"
   xmlns:rdf="http://www.w3.org/1999/02/22-rdf-syntax-ns#"
   xmlns:svg="http://www.w3.org/2000/svg"
   xmlns="http://www.w3.org/2000/svg"
   xmlns:xlink="http://www.w3.org/1999/xlink"
   xmlns:sodipodi="http://sodipodi.sourceforge.net/DTD/sodipodi-0.dtd"
   xmlns:inkscape="http://www.inkscape.org/namespaces/inkscape"
   id="svg2780"
   viewBox="0 0 248.03 248.03"
   version="1.0"
   inkscape:version="0.48.4 r9939"
   width="100%"
   height="100%"
   sodipodi:docname="anchor.svg"
   inkscape:export-filename="C:\data\ws\joffice_migration_1\com.joffice.client.resources\src\com\joffice\ui\resources\images\tools\anchor_32.png"
   inkscape:export-xdpi="11.611499"
   inkscape:export-ydpi="11.611499">
  <defs
     id="defs11">
    <linearGradient
       inkscape:collect="always"
       id="linearGradient3767">
      <stop
         style="stop-color:#0059ff;stop-opacity:1;"
         offset="0"
         id="stop3769" />
      <stop
         style="stop-color:#0059ff;stop-opacity:0;"
         offset="1"
         id="stop3771" />
    </linearGradient>
    <linearGradient
       inkscape:collect="always"
       xlink:href="#linearGradient3767"
       id="linearGradient3775"
       x1="213.72038"
       y1="228.89087"
       x2="-44.65799"
       y2="-43.044395"
       gradientUnits="userSpaceOnUse" />
    <linearGradient
       inkscape:collect="always"
       xlink:href="#linearGradient3767"
       id="linearGradient3781"
       gradientUnits="userSpaceOnUse"
       x1="124.4044"
       y1="227.29594"
       x2="125.20187"
       y2="-133.15784" />
    <linearGradient
       inkscape:collect="always"
       xlink:href="#linearGradient3767"
       id="linearGradient3787"
       gradientUnits="userSpaceOnUse"
       x1="124.4044"
       y1="227.29594"
       x2="125.20187"
       y2="-133.15784" />
  </defs>
  <sodipodi:namedview
     pagecolor="#ffffff"
     bordercolor="#666666"
     borderopacity="1"
     objecttolerance="10"
     gridtolerance="10"
     guidetolerance="10"
     inkscape:pageopacity="0"
     inkscape:pageshadow="2"
     inkscape:window-width="1291"
     inkscape:window-height="748"
     id="namedview9"
     showgrid="false"
     inkscape:zoom="1.253975"
     inkscape:cx="85.883022"
     inkscape:cy="155.91356"
     inkscape:window-x="67"
     inkscape:window-y="-8"
     inkscape:window-maximized="1"
     inkscape:current-layer="svg2780" />
  <g
     id="g3783"
     transform="matrix(1.1845047,0,0,1.1845047,-22.882262,-24.359019)">
    <path
       id="path2299"
       style="color:#000000;fill:url(#linearGradient3787);fill-opacity:1;fill-rule:evenodd"
       d="m 124.03,21.53 c -13.2,0 -23.94,10.37 -23.94,23.16 0,9.42 5.83,17.53 14.16,21.15 l -0.25,12 H 49.75 v 12.69 h 63.97 l -1.94,91.97 c -0.04,1.86 0.02,20.57 -25.655,7.63 C 60.38,177.17 74.929,162.49 76.656,162.06 61.531,157.4 47.822,144.45 36.75,131.16 c -10.867,23.69 8.593,48.98 9.531,52.59 2.336,-2.5 5.827,-2.1 7.969,-1.75 26.206,39.97 60.56,35.17 69.78,46.37 9.22,-11.2 43.55,-6.4 69.75,-46.37 2.14,-0.35 5.63,-0.75 7.97,1.75 0.94,-3.61 20.4,-28.9 9.53,-52.59 -11.07,13.29 -24.78,26.24 -39.9,30.9 1.72,0.43 16.27,15.11 -9.47,28.07 -25.68,12.94 -25.62,-5.77 -25.66,-7.63 l -1.94,-91.97 h 63.97 V 77.84 h -64.25 l -0.25,-12 c 8.34,-3.62 14.16,-11.73 14.16,-21.15 0,-12.79 -10.7,-23.16 -23.91,-23.16 z m 0,14.69 c 4.68,0 8.47,3.79 8.47,8.47 0,4.67 -3.79,8.47 -8.47,8.47 -4.68,0 -8.5,-3.8 -8.5,-8.47 0,-4.68 3.82,-8.47 8.5,-8.47 z"
       inkscape:connector-curvature="0" />
    <path
       id="path3297"
       style="color:#000000;fill:none;stroke:#ffffff;stroke-width:1pt;stroke-linecap:round"
       d="M 211.05,137.48 C 207.35,153.34 201,171.02 193.8,182 167.59,221.97 133.24,217.17 124.02,228.37 114.8,217.17 80.441,221.97 54.234,182 47.03,171.02 40.684,153.34 36.984,137.48"
       inkscape:connector-curvature="0" />
  </g>
  <metadata
     id="metadata7">
    <rdf:RDF>
      <cc:Work>
        <dc:format>image/svg+xml</dc:format>
        <dc:type
           rdf:resource="http://purl.org/dc/dcmitype/StillImage" />
        <cc:license
           rdf:resource="http://creativecommons.org/licenses/publicdomain/" />
        <dc:publisher>
          <cc:Agent
             rdf:about="http://openclipart.org/">
            <dc:title>Openclipart</dc:title>
          </cc:Agent>
        </dc:publisher>
        <dc:title></dc:title>
        <dc:date>2007-12-18T12:14:54</dc:date>
        <dc:description>Coat of arms of Aussersihl, Zürich, Switzerland</dc:description>
        <dc:source>http://openclipart.org/detail/10145/aussersihl---coat-of-arms-by-wipp-10145</dc:source>
        <dc:creator>
          <cc:Agent>
            <dc:title>wipp</dc:title>
          </cc:Agent>
        </dc:creator>
        <dc:subject>
          <rdf:Bag>
            <rdf:li>anchor</rdf:li>
            <rdf:li>clip art</rdf:li>
            <rdf:li>clipart</rdf:li>
            <rdf:li>coat of arms</rdf:li>
            <rdf:li>crest</rdf:li>
            <rdf:li>flag</rdf:li>
            <rdf:li>image</rdf:li>
            <rdf:li>media</rdf:li>
            <rdf:li>png</rdf:li>
            <rdf:li>public domain</rdf:li>
            <rdf:li>svg</rdf:li>
            <rdf:li>swiss</rdf:li>
          </rdf:Bag>
        </dc:subject>
      </cc:Work>
      <cc:License
         rdf:about="http://creativecommons.org/licenses/publicdomain/">
        <cc:permits
           rdf:resource="http://creativecommons.org/ns#Reproduction" />
        <cc:permits
           rdf:resource="http://creativecommons.org/ns#Distribution" />
        <cc:permits
           rdf:resource="http://creativecommons.org/ns#DerivativeWorks" />
      </cc:License>
    </rdf:RDF>
  </metadata>
</svg>
