<?xml version="1.0" encoding="UTF-8" standalone="no"?>
<!-- Created with Sodipodi ("http://www.sodipodi.com/") -->

<svg
   xmlns:dc="http://purl.org/dc/elements/1.1/"
   xmlns:cc="http://creativecommons.org/ns#"
   xmlns:rdf="http://www.w3.org/1999/02/22-rdf-syntax-ns#"
   xmlns:svg="http://www.w3.org/2000/svg"
   xmlns="http://www.w3.org/2000/svg"
   xmlns:sodipodi="http://sodipodi.sourceforge.net/DTD/sodipodi-0.dtd"
   xmlns:inkscape="http://www.inkscape.org/namespaces/inkscape"
   xml:space="preserve"
   width="128pt"
   height="128pt"
   viewBox="0 0 507.946 507.946"
   id="svg49"
   sodipodi:version="0.27"
   sodipodi:docname="back.svg"
   version="1.1"
   inkscape:version="0.47 r22583"
   inkscape:export-filename="C:\Users\ramin\Documents\ws\joffice\com.wwindows.office.ooxml.libs\src\com\wwindows\office\ooxml\ui\resources\images\tools\back.png"
   inkscape:export-xdpi="18"
   inkscape:export-ydpi="18"><metadata
   id="metadata15"><rdf:RDF><cc:Work
       rdf:about=""><dc:format>image/svg+xml</dc:format><dc:type
         rdf:resource="http://purl.org/dc/dcmitype/StillImage" /><dc:title></dc:title></cc:Work></rdf:RDF></metadata>
  <defs
   id="defs62"><inkscape:perspective
   sodipodi:type="inkscape:persp3d"
   inkscape:vp_x="0 : 80 : 1"
   inkscape:vp_y="0 : 1000 : 0"
   inkscape:vp_z="160 : 80 : 1"
   inkscape:persp3d-origin="80 : 53.333333 : 1"
   id="perspective17" />
    <radialGradient
   id="aigrd1"
   cx="218.9404"
   cy="219.7715"
   r="150.7063"
   fx="218.9404"
   fy="219.7715"
   gradientUnits="userSpaceOnUse"
   style="stroke:#000000;stroke-opacity:0.986014;stroke-width:0.981612;">
      <stop
   offset="0"
   style="stop-color:#73ffff;stroke:#000000;stroke-opacity:0.986014;stroke-width:0.981612;"
   id="stop53" />
      <stop
   offset="0.2809"
   style="stop-color:#2EA6B9;stroke:#000000;stroke-opacity:0.986014;stroke-width:0.981612;"
   id="stop54" />
      <stop
   offset="1"
   style="stop-color:#006b8b;stroke:#000000;stroke-opacity:0.986014;stroke-width:0.981612;"
   id="stop55" />
    </radialGradient>
  </defs>
  <sodipodi:namedview
   id="base"
   showgrid="false"
   inkscape:zoom="1.475"
   inkscape:cx="80"
   inkscape:cy="74.237288"
   inkscape:window-width="778"
   inkscape:window-height="646"
   inkscape:window-x="697"
   inkscape:window-y="98"
   inkscape:window-maximized="0"
   inkscape:current-layer="svg49">
    <sodipodi:guide
   orientation="horizontal"
   position="36.946373"
   id="sodipodi:guide74" />
    <sodipodi:guide
   orientation="horizontal"
   position="84.996849"
   id="sodipodi:guide75" />
  </sodipodi:namedview>
  <path
   style="font-size:12;stroke:none;stroke-width:0.979268;stroke-opacity:0.986014;fill:#a4c9ee;fill-opacity:0.7;"
   d="M134.757,263.776c0,66.739,54.298,121.04,121.039,121.04c66.739,0,121.039-54.301,121.039-121.04c0-66.741-54.3-121.039-121.039-121.039c-66.741,0-121.039,54.298-121.039,121.039z"
   id="path51"
   transform="matrix(1.89511,0,0,1.91236,-231.458,-247.971)" />
  <path
   style="font-size:12;fill:url(#aigrd1);fill-rule:evenodd;stroke:#1c6671;stroke-width:7.73106;stroke-opacity:0.988235;"
   d="M356.643,263.366c0,57.027-46.23,103.257-103.256,103.257c-57.027,0-103.256-46.229-103.256-103.257c0-57.027,46.229-103.256,103.256-103.256     c57.025,0,103.256,46.229,103.256,103.256z"
   id="path56"
   transform="matrix(2.04451,0,0,2.04451,-264.353,-281.723)" />
  <path
   style="font-size:12px;fill:#ffffff;fill-opacity:0.7;stroke:#1c6772;stroke-width:9.92082024;stroke-opacity:0.98823499"
   d="m 289.92204,186.77155 c -0.0522,-3.9869 -7.44286,-12.76482 -9.27633,-13.4954 -5.53605,-2.20797 -11.85735,-0.86624 -16.01731,3.40402 l -79.04745,81.14351 c -5.67996,5.83057 -5.55788,15.16113 0.2727,20.8411 l 81.14772,79.05156 c 4.27027,4.15995 10.62557,5.33686 16.10196,2.98479 5.47741,-2.35312 8.99695,-7.77605 8.91793,-13.73555 0,0 -2.09922,-160.19403 -2.09922,-160.19403 z"
   id="path59"
   sodipodi:nodetypes="ccccccccc" />
  
</svg>