<?xml version="1.0" encoding="UTF-8" standalone="no"?>
<!-- Created with Inkscape (http://www.inkscape.org/) -->
<svg
   xmlns:dc="http://purl.org/dc/elements/1.1/"
   xmlns:cc="http://creativecommons.org/ns#"
   xmlns:rdf="http://www.w3.org/1999/02/22-rdf-syntax-ns#"
   xmlns:svg="http://www.w3.org/2000/svg"
   xmlns="http://www.w3.org/2000/svg"
   xmlns:xlink="http://www.w3.org/1999/xlink"
   xmlns:sodipodi="http://sodipodi.sourceforge.net/DTD/sodipodi-0.dtd"
   xmlns:inkscape="http://www.inkscape.org/namespaces/inkscape"
   width="1000"
   height="1000"
   id="svg6255"
   sodipodi:version="0.32"
   inkscape:version="0.46"
   version="1.0"
   sodipodi:docname="colors.svg"
   inkscape:output_extension="org.inkscape.output.svg.inkscape"
   inkscape:export-filename="C:\Users\ramin\Documents\ws\joffice\com.wwindows.office.ooxml.libs\src\com\wwindows\office\ooxml\ui\resources\images\tools\color_header.png"
   inkscape:export-xdpi="360"
   inkscape:export-ydpi="360">
  <defs
     id="defs6257">
    <inkscape:perspective
       sodipodi:type="inkscape:persp3d"
       inkscape:vp_x="0 : 62.237839 : 1"
       inkscape:vp_y="0 : 1000 : 0"
       inkscape:vp_z="132.96422 : 62.237839 : 1"
       inkscape:persp3d-origin="66.482109 : 41.491892 : 1"
       id="perspective11105" />
    <linearGradient
       inkscape:collect="always"
       xlink:href="#linearGradient5092"
       id="linearGradient5102"
       gradientUnits="userSpaceOnUse"
       gradientTransform="matrix(0.4435619,0,2.8962074,-0.4853568,-757.00285,470.49812)"
       x1="220.88396"
       y1="280.87924"
       x2="227.04086"
       y2="315.41315" />
    <linearGradient
       inkscape:collect="always"
       id="linearGradient5092">
      <stop
         style="stop-color:#d3d7cf;stop-opacity:1;"
         offset="0"
         id="stop5094" />
      <stop
         style="stop-color:#d3d7cf;stop-opacity:0;"
         offset="1"
         id="stop5096" />
    </linearGradient>
    <linearGradient
       inkscape:collect="always"
       xlink:href="#linearGradient5092"
       id="linearGradient5098"
       x1="220.88396"
       y1="280.87924"
       x2="220.43327"
       y2="306.23355"
       gradientUnits="userSpaceOnUse"
       gradientTransform="matrix(0.6178722,0,0,0.6178722,35.326106,152.13462)" />
    <linearGradient
       inkscape:collect="always"
       id="linearGradient2777">
      <stop
         style="stop-color:#e9b96e;stop-opacity:1;"
         offset="0"
         id="stop2779" />
      <stop
         style="stop-color:#eeeeec;stop-opacity:1"
         offset="1"
         id="stop2781" />
    </linearGradient>
    <linearGradient
       inkscape:collect="always"
       id="linearGradient2839">
      <stop
         style="stop-color:#f57900;stop-opacity:1;"
         offset="0"
         id="stop2841" />
      <stop
         style="stop-color:#f57900;stop-opacity:0;"
         offset="1"
         id="stop2843" />
    </linearGradient>
    <linearGradient
       inkscape:collect="always"
       id="linearGradient5034">
      <stop
         style="stop-color:#ad7fa8;stop-opacity:1;"
         offset="0"
         id="stop5036" />
      <stop
         style="stop-color:#ad7fa8;stop-opacity:0;"
         offset="1"
         id="stop5038" />
    </linearGradient>
    <linearGradient
       inkscape:collect="always"
       id="linearGradient5026">
      <stop
         style="stop-color:#ef2929;stop-opacity:1;"
         offset="0"
         id="stop5028" />
      <stop
         style="stop-color:#ef2929;stop-opacity:0;"
         offset="1"
         id="stop5030" />
    </linearGradient>
    <linearGradient
       inkscape:collect="always"
       id="linearGradient5018">
      <stop
         style="stop-color:#fcaf3e;stop-opacity:1;"
         offset="0"
         id="stop5020" />
      <stop
         style="stop-color:#fcaf3e;stop-opacity:0;"
         offset="1"
         id="stop5022" />
    </linearGradient>
    <linearGradient
       inkscape:collect="always"
       id="linearGradient5042">
      <stop
         style="stop-color:#729fcf;stop-opacity:1;"
         offset="0"
         id="stop5044" />
      <stop
         style="stop-color:#729fcf;stop-opacity:0;"
         offset="1"
         id="stop5046" />
    </linearGradient>
    <linearGradient
       inkscape:collect="always"
       id="linearGradient5058">
      <stop
         style="stop-color:#fce94f;stop-opacity:1;"
         offset="0"
         id="stop5060" />
      <stop
         style="stop-color:#fce94f;stop-opacity:0;"
         offset="1"
         id="stop5062" />
    </linearGradient>
    <linearGradient
       inkscape:collect="always"
       id="linearGradient5066">
      <stop
         style="stop-color:#8ae234;stop-opacity:1;"
         offset="0"
         id="stop5068" />
      <stop
         style="stop-color:#8ae234;stop-opacity:0;"
         offset="1"
         id="stop5070" />
    </linearGradient>
    <linearGradient
       inkscape:collect="always"
       id="linearGradient5074">
      <stop
         style="stop-color:#555753;stop-opacity:1;"
         offset="0"
         id="stop5076" />
      <stop
         style="stop-color:#555753;stop-opacity:0;"
         offset="1"
         id="stop5078" />
    </linearGradient>
    <linearGradient
       inkscape:collect="always"
       xlink:href="#linearGradient5074"
       id="linearGradient2439"
       gradientUnits="userSpaceOnUse"
       gradientTransform="matrix(0.3164092,0,0,0.3531009,163.5505,163.84359)"
       x1="314.62491"
       y1="212.37624"
       x2="308.02252"
       y2="193.89845" />
    <linearGradient
       inkscape:collect="always"
       xlink:href="#linearGradient5018"
       id="linearGradient2451"
       gradientUnits="userSpaceOnUse"
       gradientTransform="matrix(0.3164092,0,0,0.3531009,-13.949495,178.34359)"
       x1="196.09668"
       y1="195.70117"
       x2="187.22038"
       y2="189.4845" />
    <linearGradient
       inkscape:collect="always"
       xlink:href="#linearGradient5034"
       id="linearGradient2457"
       gradientUnits="userSpaceOnUse"
       gradientTransform="matrix(0.3164092,0,0,0.3531009,145.0505,150.84359)"
       x1="249.27664"
       y1="138.01442"
       x2="247.96304"
       y2="132.24878" />
    <linearGradient
       inkscape:collect="always"
       xlink:href="#linearGradient2839"
       id="linearGradient2471"
       gradientUnits="userSpaceOnUse"
       x1="86.422699"
       y1="156.55286"
       x2="72.172005"
       y2="149.15596" />
    <linearGradient
       inkscape:collect="always"
       xlink:href="#linearGradient2777"
       id="linearGradient3289"
       gradientUnits="userSpaceOnUse"
       gradientTransform="matrix(0.2500949,0,0,0.2790966,98.640113,197.5561)"
       x1="281.98495"
       y1="368.09149"
       x2="207.8797"
       y2="71.670456" />
    <linearGradient
       inkscape:collect="always"
       xlink:href="#linearGradient5026"
       id="linearGradient3291"
       gradientUnits="userSpaceOnUse"
       gradientTransform="matrix(0.3164092,0,0,0.3531009,84.550505,182.34359)"
       x1="217.7292"
       y1="158.29492"
       x2="210.51836"
       y2="147.47865" />
    <linearGradient
       inkscape:collect="always"
       xlink:href="#linearGradient5042"
       id="linearGradient3293"
       gradientUnits="userSpaceOnUse"
       gradientTransform="matrix(0.3164092,0,0,0.3531009,84.550505,182.34359)"
       x1="205.11023"
       y1="238.06487"
       x2="187.08311"
       y2="234.03421" />
    <linearGradient
       inkscape:collect="always"
       xlink:href="#linearGradient5058"
       id="linearGradient3295"
       gradientUnits="userSpaceOnUse"
       gradientTransform="matrix(0.3164092,0,0,0.3531009,84.550505,182.34359)"
       x1="245.58508"
       y1="258.65234"
       x2="219.97372"
       y2="255.19063" />
    <linearGradient
       inkscape:collect="always"
       xlink:href="#linearGradient5066"
       id="linearGradient3297"
       gradientUnits="userSpaceOnUse"
       gradientTransform="matrix(0.3164092,0,0,0.3531009,84.550505,182.34359)"
       x1="274.06393"
       y1="244.82504"
       x2="261.44495"
       y2="225.44589" />
  </defs>
  <sodipodi:namedview
     id="base"
     pagecolor="#ffffff"
     bordercolor="#666666"
     borderopacity="1.0"
     inkscape:pageopacity="0.0"
     inkscape:pageshadow="2"
     inkscape:zoom="0.88220034"
     inkscape:cx="206.19084"
     inkscape:cy="157.79678"
     inkscape:document-units="px"
     inkscape:current-layer="layer1"
     inkscape:window-width="1366"
     inkscape:window-height="718"
     inkscape:window-x="-8"
     inkscape:window-y="-8"
     showgrid="false"
     inkscape:window-maximized="0" />
  <metadata
     id="metadata6260">
    <rdf:RDF>
      <cc:Work
         rdf:about="">
        <dc:format>image/svg+xml</dc:format>
        <dc:type
           rdf:resource="http://purl.org/dc/dcmitype/StillImage" />
        <dc:title />
      </cc:Work>
    </rdf:RDF>
  </metadata>
  <g
     inkscape:label="Camada 1"
     inkscape:groupmode="layer"
     id="layer1"
     transform="translate(-133.51789,762.44708)">
    <g
       id="g3272"
       transform="matrix(16.601529,0,0,15.660199,-2128.7191,-4250.6944)">
      <path
         style="fill:#2e3436;fill-rule:evenodd;stroke:#2e3436;stroke-width:0.00414881px;stroke-linecap:butt;stroke-linejoin:miter;stroke-opacity:1"
         d="m 172.02218,225.64413 c -1.36787,-0.0152 -3.15328,0.12132 -5.44738,0.43608 -29.36453,4.02907 -26.23652,38.41066 -26.23652,38.41066 5.53594,57.21269 83.9966,-23.10192 43.07883,-20.14727 -37.72106,2.72381 4.74573,-18.51992 -11.39493,-18.69947 z m -7.26057,18.01045 c 0.31092,-0.0147 0.60757,0.0348 0.88315,0.15699 1.46972,0.65179 1.72737,3.10552 0.57834,5.47726 -1.14903,2.37174 -3.27426,3.76547 -4.74399,3.11367 -1.46972,-0.65179 -1.72736,-3.10553 -0.57834,-5.47727 0.93358,-1.92702 2.51355,-3.20695 3.86084,-3.27065 z"
         id="path2775" />
      <path
         id="path2176"
         d="m 169.79991,224.37552 c -1.36786,-0.0152 -3.15328,0.12131 -5.44738,0.43609 -29.36451,4.02906 -26.23651,38.41066 -26.23651,38.41066 5.53593,57.21267 83.9966,-23.10193 43.07883,-20.14729 -37.72106,2.72383 4.74573,-18.51991 -11.39494,-18.69946 z m -7.26057,18.01045 c 0.31092,-0.0147 0.60758,0.0348 0.88315,0.157 1.46971,0.65178 1.72736,3.10553 0.57833,5.47726 -1.14902,2.37173 -3.27425,3.76547 -4.74397,3.11367 -1.46973,-0.65181 -1.72736,-3.10554 -0.57835,-5.47728 0.93358,-1.92702 2.51354,-3.20694 3.86084,-3.27065 z"
         style="fill:url(#linearGradient3289);fill-opacity:1;fill-rule:evenodd;stroke:#2e3436;stroke-width:0.02927116;stroke-linecap:butt;stroke-linejoin:miter;stroke-miterlimit:4.9000001;stroke-opacity:1;stroke-dasharray:none" />
      <path
         id="path2766"
         d="m 158.74121,264.18753 c -0.44272,0.0459 -0.61577,0.83391 -0.70338,1.83156 -1.45768,0.10256 -2.92386,1.00752 -4.02497,2.48571 -0.70839,-0.47943 -1.30292,-0.77034 -1.53964,-0.40992 -0.20926,0.31857 0.23606,0.81498 0.9144,1.37803 -0.18608,0.33871 -0.35226,0.70242 -0.50019,1.0815 -0.54238,1.38992 -0.72913,2.83219 -0.60179,4.15157 -0.59763,0.23674 -1.00211,0.50494 -0.96911,0.83728 0.0366,0.36869 0.50138,0.37372 1.14887,0.23549 0.3813,1.57501 1.25403,2.86643 2.52439,3.49743 0.55436,0.27535 1.13698,0.39841 1.72722,0.39248 0.006,0.52569 0.11084,0.92206 0.41422,1.04662 0.47925,0.19672 0.86168,-0.53522 1.23485,-1.40422 0.89673,-0.37667 1.7484,-1.03921 2.46185,-1.93623 0.86498,0.93071 1.65007,2.73811 2.48533,2.33743 0.76281,-0.36591 -1.20761,-1.67699 -2.14925,-2.78224 0.32751,-0.47628 0.60986,-1.00956 0.85189,-1.58736 1.62274,-0.11764 4.17118,0.30555 4.33758,-0.61052 0.19835,-1.09206 -2.79533,-0.69879 -3.75142,-1.37803 0.0804,-0.45346 0.1215,-0.90023 0.13285,-1.34317 0.95586,-1.20907 3.19276,-2.77287 2.71197,-3.54103 -0.38909,-0.62167 -1.71107,0.52947 -2.92299,1.39547 -0.38569,-1.55903 -1.25567,-2.82751 -2.51657,-3.45381 -0.13359,-0.0664 -0.26962,-0.12506 -0.40641,-0.17443 -0.16536,-1.16449 -0.38373,-2.09891 -0.8597,-2.04961 z"
         style="fill:#edd400;fill-opacity:1;fill-rule:evenodd;stroke:none;stroke-width:0.89999998;marker:none;visibility:visible;display:inline;overflow:visible;enable-background:accumulate" />
      <g
         transform="matrix(1.7349488,0,0,2.1458323,-112.41579,-263.56662)"
         id="g2473">
        <path
           style="fill:#cc0000;fill-opacity:1;fill-rule:evenodd;stroke:none;stroke-width:0.89999998;marker:none;visibility:visible;display:inline;overflow:visible;enable-background:accumulate"
           d="m 151.54317,230.46045 c -0.45093,0.0588 0.41816,1.46572 0.0469,1.90135 -0.46344,0.54379 -2.70342,0.20073 -3.00896,0.81984 -0.163,0.33031 0.38737,0.81873 0.78936,1.29082 -1.41151,1.59002 -2.15419,3.36935 -1.74284,4.46555 0.3931,1.04761 1.73524,1.1744 3.34503,0.48843 0.15042,0.47729 0.31899,0.89672 0.53925,1.0466 0.30901,0.21028 0.63662,-1.16077 0.98475,-1.88389 0.001,-0.002 -0.001,-0.007 0,-0.009 0.14219,-0.0981 0.28722,-0.19612 0.42985,-0.30527 0.0295,-0.0225 0.0568,-0.047 0.086,-0.0698 0.63999,0.31385 1.72878,2.49362 2.2274,2.163 0.43437,-0.28801 -1.44621,-2.33352 -1.25048,-2.93051 0.0274,-0.0836 0.0812,-0.16362 0.1485,-0.24421 0.006,-0.007 0.0169,-0.01 0.0234,-0.0174 0.0275,-0.0283 0.051,-0.0587 0.0781,-0.0872 0.0176,-0.0185 0.0373,-0.0337 0.0547,-0.0523 0.63834,-0.57207 1.99372,-1.09249 2.05548,-1.70947 0.028,-0.28028 -0.27101,-0.28079 -0.61743,-0.26166 0.55844,-1.03541 0.77968,-2.01804 0.51583,-2.72118 -0.15328,-0.40844 -0.45823,-0.67413 -0.85971,-0.81113 -0.018,-0.061 -0.0409,-0.11529 -0.0782,-0.15699 -0.1103,-0.12341 -0.28489,-0.0709 -0.49238,0.0523 -0.573,-0.0278 -1.26758,0.12147 -2.01638,0.45352 -0.42059,-0.59174 -0.86818,-1.47247 -1.2583,-1.42165 z"
           id="path2760" />
        <path
           style="fill:url(#linearGradient3291);fill-opacity:1;fill-rule:evenodd;stroke:none;stroke-width:0.89999998;marker:none;visibility:visible;display:inline;overflow:visible;enable-background:accumulate"
           d="m 155.103,233.59767 c -1.11033,0.27579 -2.01252,0.54331 -2.98612,1.12551 -1.17283,-0.26077 -0.60628,1.06563 -1.30519,1.67722 -0.5653,0.7188 -1.67004,1.8189 -1.25574,2.82481 0.73921,-0.26889 1.66363,-0.24371 2.36318,-0.34206 0.52273,-1.11399 1.74476,-1.17562 2.29396,-2.25102 0.88394,-0.48225 1.12548,-1.74877 1.53261,-2.71446 0.0941,-0.42137 -0.41679,-0.34259 -0.6427,-0.32 z"
           id="path4970" />
      </g>
      <g
         transform="matrix(1.2705313,0,0,1.1436737,-37.524827,-38.928591)"
         id="g2495">
        <path
           style="fill:#3465a4;fill-opacity:1;fill-rule:evenodd;stroke:none;stroke-width:0.89999998;marker:none;visibility:visible;display:inline;overflow:visible;enable-background:accumulate"
           d="m 147.95588,257.03568 c -0.22043,0.0463 -0.5273,0.40851 -0.86752,0.8809 -1.00738,-0.46937 -2.11908,-0.28697 -3.11837,0.40991 -0.14906,-0.57644 -0.32733,-1.01932 -0.67213,-0.90706 -0.38165,0.12425 -0.23894,0.7962 -0.0547,1.5176 -0.48136,0.48771 -0.91602,1.10938 -1.28173,1.83156 -1.24121,-0.3314 -2.82297,-0.95602 -3.04803,-0.32271 -0.30584,0.86057 2.01934,1.90503 2.20396,2.78224 -0.0276,0.13456 -0.0561,0.26679 -0.0782,0.4012 -0.4472,0.90947 -2.65927,2.01151 -2.28993,2.84331 0.19885,0.44784 1.21723,0.28872 2.25085,0.10466 0.22726,1.5785 0.86323,2.92138 1.84445,3.66314 -0.0365,0.39003 0.0155,0.66378 0.24228,0.70646 0.16409,0.0309 0.30436,-0.0976 0.42204,-0.32271 1.37533,0.57759 2.92239,-0.0432 4.11875,-1.50013 0.29972,0.19004 0.55632,0.27832 0.74246,0.15699 0.29333,-0.19121 0.24591,-0.79113 0.11723,-1.48271 0.2159,-0.41515 0.41637,-0.85874 0.57835,-1.34315 0.26528,-0.79329 0.42589,-1.60417 0.49238,-2.39849 0.99715,-0.45159 2.11685,-0.88911 2.08673,-1.46525 -0.0292,-0.55786 -1.14445,-0.29561 -2.09455,-0.18316 -0.11908,-1.36621 -0.53126,-2.59576 -1.20359,-3.46254 0.0502,-0.82491 0.0376,-1.55385 -0.20319,-1.84029 -0.0525,-0.0625 -0.1141,-0.0852 -0.18757,-0.0698 z"
           id="path2764" />
        <g
           id="g2490">
          <path
             id="path4974"
             d="m 146.1941,259.81541 c -1.39605,0.41602 -2.28629,1.86453 -2.9169,3.23307 -1.12583,-0.3137 0.18438,1.26894 -0.43506,1.93103 -0.132,0.67418 -1.15961,0.95863 -0.30652,1.42344 0.71908,1.30725 0.6812,3.54054 2.4324,3.71859 1.16397,0.20692 2.24406,-0.75146 2.97621,-1.60001 0.54026,-1.46768 0.99821,-3.18504 1.15688,-4.6565 -0.27128,-1.31813 -0.54399,-2.85881 -1.39418,-3.80687 -0.51552,0.0146 -0.99242,-0.27807 -1.51283,-0.24275 z"
             style="fill:url(#linearGradient3293);fill-opacity:1;fill-rule:evenodd;stroke:none;stroke-width:0.89999998;marker:none;visibility:visible;display:inline;overflow:visible;enable-background:accumulate" />
        </g>
      </g>
      <g
         transform="matrix(1.6787052,0,0,1.2691529,-104.62391,-75.160124)"
         id="g2485">
        <path
           style="fill:url(#linearGradient3295);fill-opacity:1;fill-rule:evenodd;stroke:none;stroke-width:0.89999998;marker:none;visibility:visible;display:inline;overflow:visible;enable-background:accumulate"
           d="m 159.02845,268.10224 c -3.8708,0.3138 -6.30059,6.16854 -3.95512,9.66614 0.64389,1.22322 2.00668,1.16362 3.05532,1.4786 1.24267,-1.10871 2.84951,-1.84514 3.37174,-3.70755 0.62533,-0.54096 0.60247,-0.87965 0.43506,-1.65517 -0.0165,-0.68139 0.42619,-1.55408 0.29663,-2.0524 -0.59332,-1.20476 -0.70148,-2.86046 -2.12587,-3.39858 -0.33059,-0.16176 -0.78263,-0.35014 -1.07776,-0.33104 z"
           id="path4976" />
      </g>
      <g
         transform="matrix(1.6261075,0,0,1.4317056,-102.64501,-121.42226)"
         id="g2479">
        <path
           style="fill:#73d216;fill-opacity:1;fill-rule:evenodd;stroke:none;stroke-width:0.89999998;marker:none;visibility:visible;display:inline;overflow:visible;enable-background:accumulate"
           d="m 171.60546,256.93973 c -0.4782,0.0145 -0.44697,0.85226 -0.38295,1.75307 -0.99909,0.1023 -1.99926,0.61793 -2.84483,1.46527 -0.95269,-0.37974 -1.84491,-0.69351 -2.08673,-0.31398 -0.25225,0.39588 0.34296,1.09927 0.9613,1.8054 -0.1883,0.33097 -0.36139,0.68836 -0.50801,1.06406 -0.25182,0.64532 -0.40761,1.30457 -0.49237,1.95366 -0.42821,0.19828 -0.74127,0.42795 -0.7112,0.75009 0.0231,0.24759 0.27686,0.37755 0.64086,0.46225 0.0507,2.05228 0.92671,3.85421 2.43842,4.60509 1.69771,0.84326 3.71656,0.12652 5.14258,-1.61353 0.58758,0.64384 1.1439,1.15847 1.5162,0.95068 0.53565,-0.29898 -0.033,-1.70569 -0.37514,-2.87819 0.0206,-0.0499 0.0428,-0.0976 0.0625,-0.14827 0.19235,-0.4929 0.32791,-0.99319 0.42204,-1.49142 1.01889,0.20522 2.81108,1.49236 2.92298,0.75879 0.12715,-0.83349 -2.2567,-1.43572 -2.7823,-2.25894 -4.1e-4,-0.23615 -0.009,-0.46884 -0.0313,-0.69774 0.34125,-0.97674 1.85754,-2.27994 1.25829,-2.91307 -0.35374,-0.37373 -1.12514,0.14352 -1.89135,0.66286 -0.41474,-0.80727 -1.01324,-1.45364 -1.77411,-1.83157 -0.23698,-0.11771 -0.47978,-0.20321 -0.72684,-0.26165 -0.12851,-0.98194 -0.29751,-1.83679 -0.7581,-1.82286 z"
           id="path2768" />
        <path
           style="fill:url(#linearGradient3297);fill-opacity:1;fill-rule:evenodd;stroke:none;stroke-width:0.89999998;marker:none;visibility:visible;display:inline;overflow:visible;enable-background:accumulate"
           d="m 172.16931,260.83057 c -1.11602,-0.023 -2.16972,1.06648 -3.01578,1.53378 -0.33382,1.6466 -1.46232,3.15536 -1.02833,4.98755 0.15745,2.54435 3.21724,3.8202 4.80547,1.88688 1.56254,-1.25395 2.22619,-3.52701 1.89846,-5.60548 0.62459,-0.89342 -0.66083,-1.11572 -0.88991,-1.98619 -0.37846,-0.59643 -1.16041,-0.82359 -1.76991,-0.81654 z"
           id="path4978" />
      </g>
    </g>
  </g>
</svg>
