<?xml version="1.0" encoding="UTF-8" standalone="no"?>
<!-- Created with Sodipodi ("http://www.sodipodi.com/") -->

<svg
   xmlns:dc="http://purl.org/dc/elements/1.1/"
   xmlns:cc="http://creativecommons.org/ns#"
   xmlns:rdf="http://www.w3.org/1999/02/22-rdf-syntax-ns#"
   xmlns:svg="http://www.w3.org/2000/svg"
   xmlns="http://www.w3.org/2000/svg"
   xmlns:xlink="http://www.w3.org/1999/xlink"
   xmlns:sodipodi="http://sodipodi.sourceforge.net/DTD/sodipodi-0.dtd"
   xmlns:inkscape="http://www.inkscape.org/namespaces/inkscape"
   xml:space="preserve"
   width="128pt"
   height="128pt"
   viewBox="0 0 507.946 507.946"
   id="svg49"
   sodipodi:version="0.27"
   sodipodi:docname="delete.svg"
   version="1.1"
   inkscape:version="0.47 r22583"
   inkscape:export-filename="C:\Users\ramin\Documents\ws\joffice\com.wwindows.office.ooxml.libs\src\com\wwindows\office\ooxml\ui\resources\images\tools\delete.png"
   inkscape:export-xdpi="9"
   inkscape:export-ydpi="9"><metadata
   id="metadata22"><rdf:RDF><cc:Work
       rdf:about=""><dc:format>image/svg+xml</dc:format><dc:type
         rdf:resource="http://purl.org/dc/dcmitype/StillImage" /><dc:title></dc:title></cc:Work></rdf:RDF></metadata>
  <defs
   id="defs62"><inkscape:perspective
   sodipodi:type="inkscape:persp3d"
   inkscape:vp_x="0 : 80 : 1"
   inkscape:vp_y="0 : 1000 : 0"
   inkscape:vp_z="160 : 80 : 1"
   inkscape:persp3d-origin="80 : 53.333333 : 1"
   id="perspective24" />
    <radialGradient
   id="radialGradient93"
   cx="218.9404"
   cy="219.7715"
   r="150.7063"
   fx="218.9404"
   fy="219.7715"
   gradientUnits="userSpaceOnUse"
   style="stroke:#000000;stroke-opacity:0.986014;stroke-width:0.981612;">
      <stop
   offset="0.000000"
   style="stop-color:#25a6ca;stop-opacity:1;"
   id="stop94" />
      <stop
   offset="1.000000"
   style="stop-color:#2ea6b9;stop-opacity:0.843137;"
   id="stop95" />
    </radialGradient>
    <radialGradient
   id="aigrd1"
   cx="218.9404"
   cy="219.7715"
   r="150.7063"
   fx="218.9404"
   fy="219.7715"
   gradientUnits="userSpaceOnUse"
   style="stroke:#000000;stroke-opacity:0.986014;stroke-width:0.981612;">
      <stop
   offset="0"
   style="stop-color:#73ffff;stroke:#000000;stroke-opacity:0.986014;stroke-width:0.981612;"
   id="stop53" />
      <stop
   offset="0.2809"
   style="stop-color:#2EA6B9;stroke:#000000;stroke-opacity:0.986014;stroke-width:0.981612;"
   id="stop54" />
      <stop
   offset="1"
   style="stop-color:#006b8b;stroke:#000000;stroke-opacity:0.986014;stroke-width:0.981612;"
   id="stop55" />
    </radialGradient>
    <linearGradient
   xlink:href="#aigrd1"
   id="linearGradient91"
   x1="-0.295723"
   y1="-0.264591"
   x2="0.622574"
   y2="0.365762"
   gradientUnits="objectBoundingBox"
   gradientTransform="matrix(0.996114,0,0,1.0039,0.496124,0.492186)"
   spreadMethod="pad" />
    <radialGradient
   xlink:href="#aigrd1"
   id="radialGradient92"
   cx="-8.09344e-05"
   cy="-7.68867e-05"
   fx="-8.09344e-05"
   fy="-7.68867e-05"
   r="0.789127"
   gradientUnits="objectBoundingBox"
   gradientTransform="matrix(1.06784,0,0,0.936469,0.342219,0.344712)"
   spreadMethod="pad" />
  </defs>
  <sodipodi:namedview
   id="base"
   showgrid="false"
   inkscape:zoom="1.475"
   inkscape:cx="80"
   inkscape:cy="80"
   inkscape:window-width="671"
   inkscape:window-height="567"
   inkscape:window-x="1116"
   inkscape:window-y="133"
   inkscape:window-maximized="0"
   inkscape:current-layer="svg49">
    <sodipodi:guide
   orientation="vertical"
   position="66.018929"
   id="sodipodi:guide127" />
    <sodipodi:guide
   orientation="horizontal"
   position="91.861198"
   id="sodipodi:guide20" />
    <sodipodi:guide
   orientation="horizontal"
   position="31.293375"
   id="sodipodi:guide21" />
    <sodipodi:guide
   orientation="vertical"
   position="97.110413"
   id="sodipodi:guide22" />
    <sodipodi:guide
   orientation="vertical"
   position="34.927444"
   id="sodipodi:guide23" />
  </sodipodi:namedview>
  <path
   style="font-size:12;stroke:none;stroke-width:0.979268;stroke-opacity:0.986014;fill:#a4c9ee;fill-opacity:0.7;"
   d="M134.757,263.776c0,66.739,54.298,121.04,121.039,121.04c66.739,0,121.039-54.301,121.039-121.04c0-66.741-54.3-121.039-121.039-121.039c-66.741,0-121.039,54.298-121.039,121.039z"
   id="path51"
   transform="matrix(1.89511,0,0,1.91236,-231.458,-247.971)" />
  <path
   style="font-size:12;fill:#990000;fill-rule:evenodd;stroke:#1c6671;stroke-width:7.72505000000000040;stroke-opacity:0.98823499999999997"
   d="M356.643,263.366c0,57.027-46.23,103.257-103.256,103.257c-57.027,0-103.256-46.229-103.256-103.257c0-57.027,46.229-103.256,103.256-103.256     c57.025,0,103.256,46.229,103.256,103.256z"
   id="path56"
   transform="matrix(2.04451,0,0,2.04451,-264.353,-281.723)" />
  <path
   style="font-size:12;opacity:1.0;fill:#ffffff;stroke:#1c6772;stroke-width:7.9101;stroke-opacity:0.988235;fill-opacity:0.99;"
   d="M 246.07 280.233 L 164.73 280.777 C 151.122 280.863 145.143 265.54 145.421 255.258 C 144.775 247.053 148.852 232.142 164.429 230.994 L 244.216 229.011 L 241.953 153.421 C 241.796 138.289 257.675 128.71 267.404 129.607 C 278.285 128.656 290.708 137.925 291.688 150.233 C 291.688 155.507 293.031 209.592 293.209 230.76 L 369.189 227.788 C 382.351 226.748 395.032 239.215 395.06 249.825 C 395.088 260.706 393.504 274.842 374.095 275.209 L 297.205 277.016 L 299.416 360.521 C 299.502 371.358 285.104 379.184 276.67 378.906 C 268.465 379.552 251.244 376.861 250.096 361.284 L 246.07 280.233 z "
   id="path124"
   sodipodi:nodetypes="ccccccccccccccccc"
   transform="matrix(0.908402,-0.864764,0.864764,0.908402,-204.249,267.198)" />
</svg>