<?xml version="1.0" encoding="UTF-8" standalone="no"?>
<!-- Created with Inkscape (http://www.inkscape.org/) -->
<svg
   xmlns:dc="http://purl.org/dc/elements/1.1/"
   xmlns:cc="http://creativecommons.org/ns#"
   xmlns:rdf="http://www.w3.org/1999/02/22-rdf-syntax-ns#"
   xmlns:svg="http://www.w3.org/2000/svg"
   xmlns="http://www.w3.org/2000/svg"
   xmlns:xlink="http://www.w3.org/1999/xlink"
   xmlns:sodipodi="http://sodipodi.sourceforge.net/DTD/sodipodi-0.dtd"
   xmlns:inkscape="http://www.inkscape.org/namespaces/inkscape"
   width="1000"
   height="1000"
   id="svg1256"
   sodipodi:version="0.32"
   inkscape:version="0.46"
   sodipodi:docbase="/home/jimmac/src/cvs/tango-icon-theme/scalable/mimetypes"
   sodipodi:docname="documentation.svg"
   inkscape:output_extension="org.inkscape.output.svg.inkscape"
   version="1.0">
  <defs
     id="defs3">
    <inkscape:perspective
       sodipodi:type="inkscape:persp3d"
       inkscape:vp_x="0 : 24 : 1"
       inkscape:vp_y="0 : 1000 : 0"
       inkscape:vp_z="48 : 24 : 1"
       inkscape:persp3d-origin="24 : 16 : 1"
       id="perspective58" />
    <radialGradient
       inkscape:collect="always"
       xlink:href="#linearGradient5060"
       id="radialGradient6719"
       gradientUnits="userSpaceOnUse"
       gradientTransform="matrix(-2.774389,0,0,1.969706,112.7623,-872.8854)"
       cx="605.71429"
       cy="486.64789"
       fx="605.71429"
       fy="486.64789"
       r="117.14286" />
    <linearGradient
       inkscape:collect="always"
       id="linearGradient5060">
      <stop
         style="stop-color:black;stop-opacity:1;"
         offset="0"
         id="stop5062" />
      <stop
         style="stop-color:black;stop-opacity:0;"
         offset="1"
         id="stop5064" />
    </linearGradient>
    <radialGradient
       inkscape:collect="always"
       xlink:href="#linearGradient5060"
       id="radialGradient6717"
       gradientUnits="userSpaceOnUse"
       gradientTransform="matrix(2.774389,0,0,1.969706,-1891.633,-872.8854)"
       cx="605.71429"
       cy="486.64789"
       fx="605.71429"
       fy="486.64789"
       r="117.14286" />
    <linearGradient
       id="linearGradient5048">
      <stop
         style="stop-color:black;stop-opacity:0;"
         offset="0"
         id="stop5050" />
      <stop
         id="stop5056"
         offset="0.5"
         style="stop-color:black;stop-opacity:1;" />
      <stop
         style="stop-color:black;stop-opacity:0;"
         offset="1"
         id="stop5052" />
    </linearGradient>
    <linearGradient
       inkscape:collect="always"
       xlink:href="#linearGradient5048"
       id="linearGradient6715"
       gradientUnits="userSpaceOnUse"
       gradientTransform="matrix(2.774389,0,0,1.969706,-1892.179,-872.8854)"
       x1="302.85715"
       y1="366.64789"
       x2="302.85715"
       y2="609.50507" />
    <linearGradient
       id="linearGradient12512">
      <stop
         style="stop-color:#ffffff;stop-opacity:1.0000000;"
         offset="0.0000000"
         id="stop12513" />
      <stop
         style="stop-color:#fff520;stop-opacity:0.89108908;"
         offset="0.50000000"
         id="stop12517" />
      <stop
         style="stop-color:#fff300;stop-opacity:0.0000000;"
         offset="1.0000000"
         id="stop12514" />
    </linearGradient>
    <radialGradient
       inkscape:collect="always"
       xlink:href="#linearGradient12512"
       id="radialGradient278"
       gradientUnits="userSpaceOnUse"
       cx="55"
       cy="125"
       fx="55"
       fy="125"
       r="14.375" />
    <linearGradient
       inkscape:collect="always"
       id="linearGradient21644">
      <stop
         style="stop-color:#000000;stop-opacity:1;"
         offset="0"
         id="stop21646" />
      <stop
         style="stop-color:#000000;stop-opacity:0;"
         offset="1"
         id="stop21648" />
    </linearGradient>
    <linearGradient
       inkscape:collect="always"
       id="linearGradient2116">
      <stop
         style="stop-color:#ffffff;stop-opacity:1;"
         offset="0"
         id="stop2118" />
      <stop
         style="stop-color:#ffffff;stop-opacity:0;"
         offset="1"
         id="stop2120" />
    </linearGradient>
    <linearGradient
       id="linearGradient2094">
      <stop
         style="stop-color:#d6e3f0;stop-opacity:1.0000000;"
         offset="0.0000000"
         id="stop2096" />
      <stop
         style="stop-color:#95b1cf;stop-opacity:1.0000000;"
         offset="1.0000000"
         id="stop2098" />
    </linearGradient>
    <linearGradient
       id="linearGradient2803">
      <stop
         id="stop2805"
         offset="0"
         style="stop-color:#ffffff;stop-opacity:1;" />
      <stop
         id="stop2807"
         offset="1.0000000"
         style="stop-color:#cbcbcb;stop-opacity:1.0000000;" />
    </linearGradient>
    <linearGradient
       id="linearGradient2795">
      <stop
         id="stop2797"
         offset="0.0000000"
         style="stop-color:#000000;stop-opacity:0.068627454;" />
      <stop
         id="stop2799"
         offset="1.0000000"
         style="stop-color:#ffffff;stop-opacity:1.0000000;" />
    </linearGradient>
    <linearGradient
       gradientUnits="userSpaceOnUse"
       y2="4.9530048"
       x2="41.219128"
       y1="4.9530048"
       x1="35.433037"
       gradientTransform="matrix(5.5468621,0,0,82.106945,-41.546105,-37.604689)"
       id="linearGradient2801"
       xlink:href="#linearGradient2795"
       inkscape:collect="always" />
    <linearGradient
       gradientUnits="userSpaceOnUse"
       y2="84.287079"
       x2="10.219901"
       y1="93.338043"
       x1="10.496115"
       gradientTransform="matrix(49.413849,0,0,9.6511469,-35.466662,-59.931161)"
       id="linearGradient2813"
       xlink:href="#linearGradient2803"
       inkscape:collect="always" />
    <linearGradient
       inkscape:collect="always"
       xlink:href="#linearGradient2094"
       id="linearGradient2100"
       gradientTransform="matrix(20.915382,0,0,22.449264,-35.466662,-53.312291)"
       x1="6.5871811"
       y1="22.132999"
       x2="14.511404"
       y2="22.132999"
       gradientUnits="userSpaceOnUse" />
    <linearGradient
       inkscape:collect="always"
       xlink:href="#linearGradient2116"
       id="linearGradient2112"
       gradientTransform="matrix(22.393337,0,0,20.905621,-57.304704,-58.44089)"
       x1="73.361984"
       y1="26.652197"
       x2="-2.7582901"
       y2="21.270376"
       gradientUnits="userSpaceOnUse" />
    <radialGradient
       inkscape:collect="always"
       xlink:href="#linearGradient21644"
       id="radialGradient21650"
       cx="25.125"
       cy="36.75"
       fx="25.125"
       fy="36.75"
       r="15.75"
       gradientTransform="matrix(1,0,0,0.595238,0,14.875)"
       gradientUnits="userSpaceOnUse" />
    <linearGradient
       inkscape:collect="always"
       xlink:href="#linearGradient5048"
       id="linearGradient2448"
       gradientUnits="userSpaceOnUse"
       gradientTransform="matrix(2.774389,0,0,1.969706,-1892.179,-872.8854)"
       x1="302.85715"
       y1="366.64789"
       x2="302.85715"
       y2="609.50507" />
    <radialGradient
       inkscape:collect="always"
       xlink:href="#linearGradient5060"
       id="radialGradient2450"
       gradientUnits="userSpaceOnUse"
       gradientTransform="matrix(2.774389,0,0,1.969706,-1891.633,-872.8854)"
       cx="605.71429"
       cy="486.64789"
       fx="605.71429"
       fy="486.64789"
       r="117.14286" />
    <radialGradient
       inkscape:collect="always"
       xlink:href="#linearGradient5060"
       id="radialGradient2452"
       gradientUnits="userSpaceOnUse"
       gradientTransform="matrix(-2.774389,0,0,1.969706,112.7623,-872.8854)"
       cx="605.71429"
       cy="486.64789"
       fx="605.71429"
       fy="486.64789"
       r="117.14286" />
    <linearGradient
       inkscape:collect="always"
       xlink:href="#linearGradient2803"
       id="linearGradient2454"
       gradientUnits="userSpaceOnUse"
       gradientTransform="matrix(49.413849,0,0,9.6511469,-35.466662,-59.931161)"
       x1="10.496115"
       y1="93.338043"
       x2="10.219901"
       y2="84.287079" />
    <linearGradient
       inkscape:collect="always"
       xlink:href="#linearGradient2094"
       id="linearGradient2456"
       gradientUnits="userSpaceOnUse"
       gradientTransform="matrix(20.915382,0,0,22.449264,-35.466662,-53.312291)"
       x1="6.5871811"
       y1="22.132999"
       x2="14.511404"
       y2="22.132999" />
    <linearGradient
       inkscape:collect="always"
       xlink:href="#linearGradient2795"
       id="linearGradient2458"
       gradientUnits="userSpaceOnUse"
       gradientTransform="matrix(5.5468621,0,0,82.106945,-41.546105,-37.604689)"
       x1="35.433037"
       y1="4.9530048"
       x2="41.219128"
       y2="4.9530048" />
    <linearGradient
       inkscape:collect="always"
       xlink:href="#linearGradient2116"
       id="linearGradient2460"
       gradientUnits="userSpaceOnUse"
       gradientTransform="matrix(22.393337,0,0,20.905621,-57.304704,-58.44089)"
       x1="73.361984"
       y1="26.652197"
       x2="-2.7582901"
       y2="21.270376" />
  </defs>
  <sodipodi:namedview
     id="base"
     pagecolor="#ffffff"
     bordercolor="#666666"
     borderopacity="0.27843137"
     inkscape:pageopacity="0.0"
     inkscape:pageshadow="2"
     inkscape:zoom="0.53588673"
     inkscape:cx="20.75205"
     inkscape:cy="800.31687"
     inkscape:current-layer="layer1"
     showgrid="false"
     inkscape:grid-bbox="true"
     inkscape:document-units="px"
     inkscape:window-width="1366"
     inkscape:window-height="718"
     inkscape:window-x="-8"
     inkscape:window-y="-8"
     fill="#ef2929"
     stroke="#cc0000"
     inkscape:showpageshadow="false" />
  <metadata
     id="metadata4">
    <rdf:RDF>
      <cc:Work
         rdf:about="">
        <dc:format>image/svg+xml</dc:format>
        <dc:type
           rdf:resource="http://purl.org/dc/dcmitype/StillImage" />
        <dc:title>Addess Book</dc:title>
        <dc:date />
        <dc:creator>
          <cc:Agent>
            <dc:title>Jakub Steiner</dc:title>
          </cc:Agent>
        </dc:creator>
        <dc:source>http://jimmac.musichall.cz</dc:source>
        <dc:subject>
          <rdf:Bag>
            <rdf:li>address</rdf:li>
            <rdf:li>contact</rdf:li>
            <rdf:li>book</rdf:li>
            <rdf:li>office</rdf:li>
          </rdf:Bag>
        </dc:subject>
        <cc:license
           rdf:resource="http://creativecommons.org/licenses/publicdomain/" />
      </cc:Work>
      <cc:License
         rdf:about="http://creativecommons.org/licenses/publicdomain/">
        <cc:permits
           rdf:resource="http://creativecommons.org/ns#Reproduction" />
        <cc:permits
           rdf:resource="http://creativecommons.org/ns#Distribution" />
        <cc:permits
           rdf:resource="http://creativecommons.org/ns#DerivativeWorks" />
      </cc:License>
    </rdf:RDF>
  </metadata>
  <g
     id="layer1"
     inkscape:label="Layer 1"
     inkscape:groupmode="layer">
    <g
       id="g2430"
       transform="matrix(1.00799,0,0,1.0026376,-2.1972792e-2,1.9948329)">
      <path
         sodipodi:nodetypes="ccccccc"
         id="path21630"
         d="M 665.45702,60.768125 L 827.59618,60.768125 C 843.03801,60.768125 854.61936,64.628582 858.47983,83.930856 L 877.78212,234.48867 C 879.71234,257.65141 869.57864,265.37232 848.8287,265.37232 L 661.59656,265.37232 L 665.45702,60.768125 z"
         style="opacity:1;fill:#edd400;fill-opacity:1;fill-rule:evenodd;stroke:#c4a000;stroke-width:21.8380394;stroke-linecap:round;stroke-linejoin:round;marker:none;marker-start:none;marker-mid:none;marker-end:none;stroke-miterlimit:4;stroke-dasharray:none;stroke-dashoffset:0;stroke-opacity:1;visibility:visible;display:inline;overflow:visible" />
      <path
         style="opacity:0.48538011;fill:none;fill-opacity:1;fill-rule:evenodd;stroke:#ffffff;stroke-width:21.83805275;stroke-linecap:round;stroke-linejoin:round;marker:none;marker-start:none;marker-mid:none;marker-end:none;stroke-miterlimit:4;stroke-dasharray:none;stroke-dashoffset:0;stroke-opacity:1;visibility:visible;display:inline;overflow:visible"
         d="M 687.43687,82.3191 L 826.33897,82.3191 C 833.06833,82.3191 836.75045,82.977778 837.75036,89.34217 L 855.03376,228.75569 C 856.55738,238.16728 859.0172,243.50412 851.97036,243.82158 L 684.38963,243.82158 L 687.43687,82.3191 z"
         id="path21632"
         sodipodi:nodetypes="ccccccc" />
      <path
         style="opacity:1;fill:#9db029;fill-opacity:1;fill-rule:evenodd;stroke:#727e0a;stroke-width:21.8380394;stroke-linecap:round;stroke-linejoin:round;marker:none;marker-start:none;marker-mid:none;marker-end:none;stroke-miterlimit:4;stroke-dasharray:none;stroke-dashoffset:0;stroke-opacity:1;visibility:visible;display:inline;overflow:visible"
         d="M 720.05212,230.01293 L 882.19128,230.01293 C 897.63312,230.01293 909.21446,233.87339 913.07492,253.17566 L 932.37722,403.73348 C 934.30744,426.89622 924.17373,434.61713 903.42379,434.61713 L 716.19165,434.61713 L 720.05212,230.01293 z"
         id="path21634"
         sodipodi:nodetypes="ccccccc" />
      <path
         sodipodi:nodetypes="ccccccc"
         id="path21636"
         d="M 742.03197,251.56391 L 880.93407,251.56391 C 887.66343,251.56391 891.34555,252.22259 892.34547,258.58697 L 909.62886,398.0005 C 911.15248,407.41208 913.61229,412.74893 906.56546,413.06639 L 738.98473,413.06639 L 742.03197,251.56391 z"
         style="opacity:0.48538011;fill:none;fill-opacity:1;fill-rule:evenodd;stroke:#ffffff;stroke-width:21.83805275;stroke-linecap:round;stroke-linejoin:round;marker:none;marker-start:none;marker-mid:none;marker-end:none;stroke-miterlimit:4;stroke-dasharray:none;stroke-dashoffset:0;stroke-opacity:1;visibility:visible;display:inline;overflow:visible" />
      <path
         sodipodi:nodetypes="ccccccc"
         id="path21638"
         d="M 730.2735,412.89511 L 914.7047,412.89511 C 932.26958,412.89511 945.4432,417.68633 949.83443,441.64236 L 971.79053,628.49952 C 973.98612,657.24676 962.45918,666.82919 938.85639,666.82919 L 725.88226,666.82919 L 730.2735,412.89511 z"
         style="opacity:1;fill:#ef2929;fill-opacity:1;fill-rule:evenodd;stroke:#cc0000;stroke-width:21.83803749;stroke-linecap:round;stroke-linejoin:round;marker:none;marker-start:none;marker-mid:none;marker-end:none;stroke-miterlimit:4;stroke-dasharray:none;stroke-dashoffset:0;stroke-opacity:1;visibility:visible;display:inline;overflow:visible" />
      <path
         style="opacity:0.48538011;fill:none;fill-opacity:1;fill-rule:evenodd;stroke:#ffffff;stroke-width:21.83805656;stroke-linecap:round;stroke-linejoin:round;marker:none;marker-start:none;marker-mid:none;marker-end:none;stroke-miterlimit:4;stroke-dasharray:none;stroke-dashoffset:0;stroke-opacity:1;visibility:visible;display:inline;overflow:visible"
         d="M 755.2753,434.45091 L 913.27463,434.45091 C 920.92919,434.45091 925.11755,435.28849 926.25495,443.38134 L 945.91457,620.65717 C 947.64766,632.6248 950.44568,639.41105 942.43001,639.8147 L 751.8091,639.8147 L 755.2753,434.45091 z"
         id="path21640"
         sodipodi:nodetypes="ccccccc" />
      <g
         id="g6707"
         transform="matrix(0.4597914,0,0,0.455707,878.49286,842.44896)"
         style="display:inline">
        <rect
           y="-150.69685"
           x="-1559.2523"
           height="478.35718"
           width="1339.6335"
           id="rect6709"
           style="opacity:0.40206185;fill:url(#linearGradient2448);fill-opacity:1;fill-rule:nonzero;stroke:none;stroke-width:1;stroke-linecap:round;stroke-linejoin:miter;marker:none;marker-start:none;marker-mid:none;marker-end:none;stroke-miterlimit:4;stroke-dasharray:none;stroke-dashoffset:0;stroke-opacity:1;visibility:visible;display:inline;overflow:visible" />
        <path
           sodipodi:nodetypes="cccc"
           id="path6711"
           d="M -219.61876,-150.68038 C -219.61876,-150.68038 -219.61876,327.65041 -219.61876,327.65041 C -76.744594,328.55086 125.78146,220.48075 125.78138,88.454235 C 125.78138,-43.572302 -33.655436,-150.68036 -219.61876,-150.68038 z"
           style="opacity:0.40206185;fill:url(#radialGradient2450);fill-opacity:1;fill-rule:nonzero;stroke:none;stroke-width:1;stroke-linecap:round;stroke-linejoin:miter;marker:none;marker-start:none;marker-mid:none;marker-end:none;stroke-miterlimit:4;stroke-dasharray:none;stroke-dashoffset:0;stroke-opacity:1;visibility:visible;display:inline;overflow:visible" />
        <path
           style="opacity:0.40206185;fill:url(#radialGradient2452);fill-opacity:1;fill-rule:nonzero;stroke:none;stroke-width:1;stroke-linecap:round;stroke-linejoin:miter;marker:none;marker-start:none;marker-mid:none;marker-end:none;stroke-miterlimit:4;stroke-dasharray:none;stroke-dashoffset:0;stroke-opacity:1;visibility:visible;display:inline;overflow:visible"
           d="M -1559.2523,-150.68038 C -1559.2523,-150.68038 -1559.2523,327.65041 -1559.2523,327.65041 C -1702.1265,328.55086 -1904.6525,220.48075 -1904.6525,88.454235 C -1904.6525,-43.572302 -1745.2157,-150.68036 -1559.2523,-150.68038 z"
           id="path6713"
           sodipodi:nodetypes="cccc" />
      </g>
      <path
         sodipodi:nodetypes="csssccsssss"
         id="rect1408"
         d="M 81.679618,79.692304 C 83.662134,37.87269 103.6848,14.957623 140.9602,14.843247 L 781.40216,12.878123 C 786.78709,12.8616 793.81798,17.248994 794.35726,22.703736 L 865.51606,742.44707 L 836.79245,743.68384 L 850.53381,884.4443 C 851.8662,898.09269 846.57304,909.76122 827.1359,909.85327 L 156.47452,913.02937 C 101.16871,913.2913 44.326158,867.63433 46.992327,811.39358 L 81.679618,79.692304 z"
         style="fill:#5b6b94;fill-opacity:1;fill-rule:nonzero;stroke:#364878;stroke-width:21.83804321;stroke-linecap:round;stroke-linejoin:round;marker:none;marker-start:none;marker-mid:none;marker-end:none;stroke-miterlimit:4;stroke-dashoffset:0;stroke-opacity:1;visibility:visible;display:inline;overflow:visible" />
      <path
         style="fill:url(#linearGradient2454);fill-opacity:1;fill-rule:nonzero;stroke:none;stroke-width:1;stroke-linecap:round;stroke-linejoin:round;marker:none;marker-start:none;marker-mid:none;marker-end:none;stroke-miterlimit:4;stroke-dashoffset:0;stroke-opacity:1;visibility:visible;display:inline;overflow:visible"
         d="M 818.94664,720.77875 L 181.54886,723.50851 C 147.55755,727.3928 120.12937,753.99704 120.12937,789.02263 C 120.12937,824.04823 147.55755,850.65246 181.54886,854.53674 L 818.94664,857.2665 L 818.94664,855.90163 C 782.7911,854.19494 753.43252,825.59809 753.43252,789.02263 C 753.43252,752.44717 782.7911,723.85032 818.94664,722.14364 L 818.94664,720.77875 z"
         id="path2489" />
      <path
         style="fill:url(#linearGradient2456);fill-opacity:1;fill-rule:nonzero;stroke:none;stroke-width:1;stroke-linecap:round;stroke-linejoin:round;marker:none;marker-start:none;marker-mid:none;marker-end:none;stroke-miterlimit:4;stroke-dashoffset:0;stroke-opacity:1;visibility:visible;display:inline;overflow:visible"
         d="M 154.2513,20.59661 C 116.97573,20.59661 96.655727,42.631327 94.879136,83.08323 L 58.709883,785.21783 C 56.701657,852.44464 98.605216,890.66746 141.96741,901.62502 C 49.155741,866.01436 61.439638,705.26184 177.45422,705.93374 L 852.21222,705.93374 L 779.87372,30.003197 C 779.31114,24.746502 772.27608,20.59661 766.90737,20.59661 L 154.2513,20.59661 z"
         id="path2784"
         sodipodi:nodetypes="ccccccssc" />
      <rect
         transform="matrix(1,0,-3.582731e-2,0.999358,0,0)"
         style="opacity:0.48044691;fill:url(#linearGradient2458);fill-opacity:1;fill-rule:nonzero;stroke:none;stroke-width:1;stroke-linecap:round;stroke-linejoin:round;marker:none;marker-start:none;marker-mid:none;marker-end:none;stroke-miterlimit:4;stroke-dashoffset:0;stroke-opacity:0.60818715;visibility:visible;display:inline;overflow:visible"
         id="rect2793"
         width="43.676079"
         height="646.51062"
         x="154.9962"
         y="45.81601" />
      <path
         sodipodi:nodetypes="cccscssc"
         id="path2104"
         d="M 158.34814,31.978227 C 121.57508,31.978227 107.31969,47.967228 105.56705,87.75581 L 77.201533,740.48099 C 97.583594,705.39279 130.47752,692.81377 183.16847,692.81377 L 837.24868,692.81377 L 775.53652,41.230567 C 775.04621,36.053776 768.04132,31.978227 762.745,31.978227 L 158.34814,31.978227 z"
         style="fill:none;fill-opacity:1;fill-rule:nonzero;stroke:url(#linearGradient2460);stroke-width:21.83804321;stroke-linecap:round;stroke-linejoin:miter;marker:none;marker-start:none;marker-mid:none;marker-end:none;stroke-miterlimit:20;stroke-dasharray:none;stroke-dashoffset:0;stroke-opacity:1;visibility:visible;display:inline;overflow:visible" />
      <path
         id="text21625"
         d="M 404.03546,360.58841 C 402.39221,385.06846 407.17677,404.32711 418.38921,418.36443 C 429.61263,432.23075 445.83808,439.16387 467.06568,439.16385 C 488.12152,439.16387 505.11228,432.14517 518.03794,418.10768 C 531.13414,404.07036 538.49814,384.89726 540.1301,360.58841 C 541.73834,336.62229 536.85096,317.62036 525.46791,303.58277 C 514.0957,289.37438 497.96733,282.27003 477.08265,282.26983 C 456.36862,282.27003 439.37786,289.2888 426.1104,303.32595 C 413.01364,317.3636 405.65534,336.45105 404.03546,360.58841 M 538.82857,437.36632 C 527.67222,450.54784 515.20534,460.30556 501.42787,466.63953 C 487.83247,472.80229 472.21871,475.8837 454.58659,475.88368 C 425.14197,475.8837 401.88805,465.27002 384.82465,444.04268 C 367.94365,422.6442 360.65218,394.82618 362.95029,360.58841 C 365.24815,326.35096 376.35939,298.53294 396.28413,277.13419 C 416.2085,255.73589 440.80733,245.03665 470.08077,245.03638 C 487.71286,245.03665 502.98709,248.28927 515.90344,254.7941 C 528.83061,261.12834 539.90785,270.80046 549.13503,283.81052 L 551.39281,250.17208 L 588.1127,250.17208 L 575.42777,439.16385 C 600.67362,435.39774 620.95316,424.01371 636.26639,405.0118 C 651.76142,385.83878 660.52606,361.10214 662.56025,330.80169 C 663.78916,312.48477 662.20489,295.28032 657.80741,279.18843 C 653.5802,263.09699 646.44836,248.20362 636.41196,234.50835 C 620.11314,212.083 599.52132,194.96418 574.6363,183.1519 C 549.93317,171.16906 522.51724,165.17747 492.38848,165.17712 C 471.33202,165.17747 450.94226,168.00207 431.21911,173.65093 C 411.50695,179.12929 393.0663,187.34629 375.89708,198.30202 C 347.84834,215.76354 325.25259,238.70272 308.10967,267.11966 C 291.14915,295.36595 281.5602,326.00856 279.34269,359.04774 C 277.51575,386.26676 280.6826,411.77379 288.84329,435.56882 C 297.17501,459.36404 310.0617,480.3346 327.5034,498.48048 C 344.28304,516.28408 364.17466,529.80792 387.17835,539.05209 C 410.17016,548.46741 435.10443,553.17508 461.98121,553.17514 C 484.06419,553.17508 505.97224,549.40893 527.70545,541.87675 C 549.59774,534.51559 569.91109,523.90193 588.64571,510.03573 L 609.84306,538.53855 C 587.32963,555.14378 563.11219,567.81167 537.19077,576.5423 C 511.42832,585.44403 485.53695,589.89491 459.51661,589.89499 C 427.84659,589.89491 398.35344,584.24572 371.03715,572.94739 C 343.70897,561.82008 319.80704,545.55723 299.33134,524.15874 C 278.8554,502.76022 263.82485,478.02357 254.23968,449.94863 C 244.66583,421.70272 240.96475,391.4024 243.1364,359.04774 C 245.22753,327.89168 253.04142,298.19054 266.57808,269.94427 C 280.1147,241.69848 298.38592,216.87624 321.39202,195.47742 C 344.93432,173.73684 371.55587,157.13165 401.25672,145.66168 C 430.96857,134.0212 462.00187,128.20084 494.3567,128.20046 C 530.64828,128.20084 563.7869,135.64753 593.77271,150.54052 C 623.9289,165.43422 648.61609,186.57598 667.83431,213.96575 C 679.54692,230.74243 688.08094,248.974 693.43641,268.6604 C 698.96207,288.34721 701.01854,308.71857 699.60584,329.77458 C 696.58345,374.79714 680.58986,410.31868 651.62498,436.33919 C 622.65915,462.35984 584.17568,475.8837 536.17438,476.91081 L 538.82857,437.36632"
         style="font-size:12px;font-style:normal;font-variant:normal;font-weight:normal;font-stretch:normal;line-height:120.00000477%;writing-mode:lr-tb;text-anchor:start;fill:#ad7fa8;fill-opacity:1;stroke:none;stroke-width:1pt;stroke-linecap:butt;stroke-linejoin:miter;stroke-opacity:1;font-family:Bitstream Vera Sans" />
    </g>
  </g>
</svg>
