<?xml version="1.0" encoding="UTF-8" standalone="no"?>
<!-- Created with Inkscape (http://www.inkscape.org/) -->

<svg
   xmlns:dc="http://purl.org/dc/elements/1.1/"
   xmlns:cc="http://creativecommons.org/ns#"
   xmlns:rdf="http://www.w3.org/1999/02/22-rdf-syntax-ns#"
   xmlns:svg="http://www.w3.org/2000/svg"
   xmlns="http://www.w3.org/2000/svg"
   xmlns:xlink="http://www.w3.org/1999/xlink"
   xmlns:sodipodi="http://sodipodi.sourceforge.net/DTD/sodipodi-0.dtd"
   xmlns:inkscape="http://www.inkscape.org/namespaces/inkscape"
   id="svg2"
   version="1.1"
   inkscape:version="0.48.5 r10040"
   width="128"
   height="128"
   xml:space="preserve"
   sodipodi:docname="donate.svg"><metadata
     id="metadata8"><rdf:RDF><cc:Work
         rdf:about=""><dc:format>image/svg+xml</dc:format><dc:type
           rdf:resource="http://purl.org/dc/dcmitype/StillImage" /><dc:title /></cc:Work></rdf:RDF></metadata><defs
     id="defs6"><linearGradient
       inkscape:collect="always"
       id="linearGradient3990"><stop
         style="stop-color:#a3a3a3;stop-opacity:1"
         offset="0"
         id="stop3992" /><stop
         style="stop-color:#cccccc;stop-opacity:1"
         offset="1"
         id="stop3994" /></linearGradient><clipPath
       clipPathUnits="userSpaceOnUse"
       id="clipPath26"><path
         d="M 0,64 440,64 440,0 0,0 0,64 z"
         id="path28"
         inkscape:connector-curvature="0" /></clipPath><linearGradient
       inkscape:collect="always"
       id="linearGradient4704"><stop
         style="stop-color:#000000;stop-opacity:1;"
         offset="0"
         id="stop4706" /><stop
         style="stop-color:#000000;stop-opacity:0;"
         offset="1"
         id="stop4708" /></linearGradient><linearGradient
       id="linearGradient4875"
       inkscape:collect="always"><stop
         id="stop4877"
         offset="0"
         style="stop-color:#ffffff;stop-opacity:1" /><stop
         id="stop4879"
         offset="1"
         style="stop-color:#ffffff;stop-opacity:0" /></linearGradient><linearGradient
       inkscape:collect="always"
       xlink:href="#linearGradient6037"
       id="linearGradient3809"
       gradientUnits="userSpaceOnUse"
       gradientTransform="matrix(1.4399997,0,0,-1.4399997,-86.07995,412.95994)"
       x1="276.75"
       y1="219.5"
       x2="266.27646"
       y2="209.02644" /><linearGradient
       id="linearGradient6037"
       inkscape:collect="always"><stop
         id="stop6039"
         offset="0"
         style="stop-color:#000000;stop-opacity:0.2" /><stop
         id="stop6041"
         offset="1"
         style="stop-color:#000000;stop-opacity:0;" /></linearGradient><linearGradient
       inkscape:collect="always"
       xlink:href="#linearGradient6037"
       id="linearGradient3091"
       gradientUnits="userSpaceOnUse"
       gradientTransform="matrix(1.4399997,0,0,-1.4399997,-88.47995,199.35994)"
       x1="276.75"
       y1="219.5"
       x2="266.27646"
       y2="209.02644" /><radialGradient
       inkscape:collect="always"
       xlink:href="#linearGradient4875"
       id="radialGradient3094"
       gradientUnits="userSpaceOnUse"
       gradientTransform="matrix(0.43632228,0,0,0.12296467,92.155965,-50.2394)"
       cx="148.20758"
       cy="-31.353798"
       fx="148.20758"
       fy="-31.353798"
       r="150" /><radialGradient
       inkscape:collect="always"
       xlink:href="#linearGradient4704"
       id="radialGradient3097"
       gradientUnits="userSpaceOnUse"
       gradientTransform="matrix(0.43632228,-1.6527171e-8,0,0.12296467,92.155965,121.28062)"
       cx="148.20758"
       cy="-31.353798"
       fx="148.20758"
       fy="-31.353798"
       r="150" /><linearGradient
       inkscape:collect="always"
       xlink:href="#linearGradient3990"
       id="linearGradient3996"
       x1="35.999996"
       y1="123.2"
       x2="35.999996"
       y2="52.636559"
       gradientUnits="userSpaceOnUse" /><radialGradient
       inkscape:collect="always"
       xlink:href="#linearGradient4704"
       id="radialGradient4052"
       gradientUnits="userSpaceOnUse"
       gradientTransform="matrix(0.43632228,-1.6527171e-8,0,0.12296467,93.853021,4.451356)"
       cx="148.20758"
       cy="-31.353798"
       fx="148.20758"
       fy="-31.353798"
       r="150" /><radialGradient
       inkscape:collect="always"
       xlink:href="#linearGradient4875"
       id="radialGradient4054"
       gradientUnits="userSpaceOnUse"
       gradientTransform="matrix(0.43632228,0,0,0.12296467,93.853021,48.989864)"
       cx="148.20758"
       cy="-31.353798"
       fx="148.20758"
       fy="-31.353798"
       r="150" /><linearGradient
       inkscape:collect="always"
       xlink:href="#linearGradient6037"
       id="linearGradient4419"
       gradientUnits="userSpaceOnUse"
       gradientTransform="matrix(1.0239998,0,0,-1.0239998,28.865079,225.46923)"
       x1="276.75"
       y1="219.5"
       x2="266.27646"
       y2="209.02644" /><radialGradient
       inkscape:collect="always"
       xlink:href="#linearGradient4875"
       id="radialGradient4422"
       gradientUnits="userSpaceOnUse"
       gradientTransform="matrix(0.31027363,0,0,0.08744155,68.039798,-177.71691)"
       cx="148.20758"
       cy="-31.353798"
       fx="148.20758"
       fy="-31.353798"
       r="150" /><radialGradient
       inkscape:collect="always"
       xlink:href="#linearGradient4704"
       id="radialGradient4425"
       gradientUnits="userSpaceOnUse"
       gradientTransform="matrix(0.31027363,-1.1752655e-8,0,0.08744155,68.039798,228.23511)"
       cx="148.20758"
       cy="-31.353798"
       fx="148.20758"
       fy="-31.353798"
       r="150" /><linearGradient
       inkscape:collect="always"
       xlink:href="#linearGradient3990"
       id="linearGradient4428"
       gradientUnits="userSpaceOnUse"
       gradientTransform="matrix(0.71111113,0,0,0.71111113,2.5066658,141.99111)"
       x1="35.999996"
       y1="123.2"
       x2="35.999996"
       y2="52.636559" /><clipPath
       clipPathUnits="userSpaceOnUse"
       id="clipPath26-9"><path
         d="M 0,64 440,64 440,0 0,0 0,64 z"
         id="path28-4"
         inkscape:connector-curvature="0" /></clipPath><linearGradient
       inkscape:collect="always"
       xlink:href="#linearGradient3990"
       id="linearGradient4549"
       gradientUnits="userSpaceOnUse"
       x1="70.097054"
       y1="3.1707351"
       x2="70.097054"
       y2="-47.254654"
       gradientTransform="translate(-0.38455323,0.00426827)" /><linearGradient
       inkscape:collect="always"
       xlink:href="#linearGradient3990"
       id="linearGradient4593"
       gradientUnits="userSpaceOnUse"
       gradientTransform="translate(-110.78455,-130.39573)"
       x1="70.097054"
       y1="3.1707351"
       x2="70.097054"
       y2="-47.254654" /><radialGradient
       inkscape:collect="always"
       xlink:href="#linearGradient4704"
       id="radialGradient4595"
       gradientUnits="userSpaceOnUse"
       gradientTransform="matrix(0.43632228,-1.6527171e-8,0,0.12296467,-16.546979,-125.94864)"
       cx="148.20758"
       cy="-31.353798"
       fx="148.20758"
       fy="-31.353798"
       r="150" /><radialGradient
       inkscape:collect="always"
       xlink:href="#linearGradient4875"
       id="radialGradient4597"
       gradientUnits="userSpaceOnUse"
       gradientTransform="matrix(0.43632228,0,0,0.12296467,-16.546979,179.38986)"
       cx="148.20758"
       cy="-31.353798"
       fx="148.20758"
       fy="-31.353798"
       r="150" /><linearGradient
       inkscape:collect="always"
       xlink:href="#linearGradient6037"
       id="linearGradient4599"
       gradientUnits="userSpaceOnUse"
       gradientTransform="matrix(1.0239998,0,0,-1.0239998,-79.94009,355.30497)"
       x1="276.75"
       y1="219.5"
       x2="266.27646"
       y2="209.02644" /><linearGradient
       inkscape:collect="always"
       xlink:href="#linearGradient3990"
       id="linearGradient4643"
       gradientUnits="userSpaceOnUse"
       gradientTransform="translate(265.21545,-114.39573)"
       x1="70.097054"
       y1="3.1707351"
       x2="70.097054"
       y2="-47.254654" /><radialGradient
       inkscape:collect="always"
       xlink:href="#linearGradient4704"
       id="radialGradient4645"
       gradientUnits="userSpaceOnUse"
       gradientTransform="matrix(0.99653858,-1.6527171e-8,0,0.12296467,275.42608,-109.94864)"
       cx="148.20758"
       cy="-31.353798"
       fx="148.20758"
       fy="-31.353798"
       r="150" /><radialGradient
       inkscape:collect="always"
       xlink:href="#linearGradient4875"
       id="radialGradient4647"
       gradientUnits="userSpaceOnUse"
       gradientTransform="matrix(0.99653858,0,0,0.12296467,275.42608,163.38986)"
       cx="148.20758"
       cy="-31.353798"
       fx="148.20758"
       fy="-31.353798"
       r="150" /><linearGradient
       inkscape:collect="always"
       xlink:href="#linearGradient6037"
       id="linearGradient4649"
       gradientUnits="userSpaceOnUse"
       gradientTransform="matrix(1.0239998,0,0,-1.0239998,297.32854,338.50523)"
       x1="276.75"
       y1="219.5"
       x2="266.27646"
       y2="209.02644" /><linearGradient
       inkscape:collect="always"
       xlink:href="#linearGradient3990"
       id="linearGradient4674"
       gradientUnits="userSpaceOnUse"
       gradientTransform="translate(265.20921,-114.40199)"
       x1="70.097054"
       y1="3.1707351"
       x2="70.097054"
       y2="-47.254654" /><radialGradient
       inkscape:collect="always"
       xlink:href="#linearGradient4704"
       id="radialGradient4676"
       gradientUnits="userSpaceOnUse"
       gradientTransform="matrix(0.99653858,-1.6244658e-8,0,0.12086273,275.43527,-108.65627)"
       cx="148.20758"
       cy="-31.353798"
       fx="148.20758"
       fy="-31.353798"
       r="150" /><radialGradient
       inkscape:collect="always"
       xlink:href="#linearGradient4875"
       id="radialGradient4678"
       gradientUnits="userSpaceOnUse"
       gradientTransform="matrix(0.99653858,0,0,0.12611763,275.43525,163.57032)"
       cx="148.20758"
       cy="-31.353798"
       fx="148.20758"
       fy="-31.353798"
       r="150" /><linearGradient
       inkscape:collect="always"
       xlink:href="#linearGradient6037"
       id="linearGradient4680"
       gradientUnits="userSpaceOnUse"
       gradientTransform="matrix(1.0239998,0,0,-1.0239998,297.32854,338.50523)"
       x1="276.75"
       y1="219.5"
       x2="266.27646"
       y2="209.02644" /></defs><sodipodi:namedview
     pagecolor="#ffffff"
     bordercolor="#666666"
     borderopacity="1"
     objecttolerance="10"
     gridtolerance="10"
     guidetolerance="10"
     inkscape:pageopacity="0"
     inkscape:pageshadow="2"
     inkscape:window-width="1596"
     inkscape:window-height="1051"
     id="namedview4"
     showgrid="false"
     fit-margin-top="0"
     fit-margin-left="0"
     fit-margin-right="0"
     fit-margin-bottom="0"
     inkscape:zoom="4.9264142"
     inkscape:cx="59.655397"
     inkscape:cy="66.958526"
     inkscape:window-x="315"
     inkscape:window-y="-9"
     inkscape:window-maximized="1"
     inkscape:current-layer="g10" /><g
     id="g10"
     inkscape:groupmode="layer"
     inkscape:label="Donate button"
     transform="matrix(1.25,0,0,-1.25,-331.13281,265.53906)"><rect
   style="opacity:0.05;color:#000000;fill:url(#radialGradient4676);fill-opacity:1;fill-rule:nonzero;stroke:none;stroke-width:4;marker:none;visibility:visible;display:inline;overflow:visible;enable-background:accumulate"
   id="rect4603"
   width="296"
   height="18.4"
   x="276.90625"
   y="-130.83125"
   transform="scale(1,-1)" /><g
   transform="matrix(2.1528296,0,0,2.2475415,222.82043,92.336765)"
   id="g4607"><g
     clip-path="url(#clipPath26)"
     id="g4609"><g
       transform="translate(61.1563,17.2124)"
       id="g4611"><path
         inkscape:connector-curvature="0"
         id="path4613"
         style="fill:#43c330;fill-opacity:1;fill-rule:nonzero;stroke:none"
         d="m 0,0 c 7.886,6.347 3.569,29.466 3.569,29.466 -2.007,2.268 -3.33,0.145 -3.33,0.145 L -2.385,19.398 c -1.907,-1.208 -3.281,1.068 -3.281,1.068 l -1.059,13.295 c -2.567,4.188 -4.482,1.234 -4.482,1.234 l -2.635,-13.702 c -2.246,-0.909 -3.364,0.163 -3.364,0.163 l -5.179,12.788 c -4.397,2.865 -5.217,-2.106 -5.217,-2.106 l 3.473,-13.877 c -0.154,-1.774 -1.406,-2.985 -1.406,-2.985 -2.959,-0.763 -11.798,12.457 -11.798,12.457 -2.589,0.476 -2.709,-1.918 -2.709,-1.918 1.464,-8.993 10.846,-18.993 10.846,-18.993 0,0 6.113,-4.909 11.295,-0.972 0,0 13.776,10.75 19.307,-0.281 0,0 0.5,-1.969 -1.125,-5.063" /></g><g
       transform="translate(20.0615,24.7256)"
       id="g4615"><path
         inkscape:connector-curvature="0"
         id="path4617"
         style="fill:#18a303;fill-opacity:1;fill-rule:nonzero;stroke:none"
         d="m 0,0 c 0,0 7.672,-14.102 24.477,-15.792 0,0 17.655,1.051 17.831,12.45 0,0 -4.41,11.427 -19.184,0.035 0,0 -4.874,-3.026 -9.764,0.44 0,0 -10.486,5.992 -13.36,2.867" /></g><g
       transform="translate(50.5098,29.5)"
       id="g4619"><path
         inkscape:connector-curvature="0"
         id="path4621"
         style="fill:#e5d903;fill-opacity:1;fill-rule:nonzero;stroke:none"
         d="m 0,0 c 0,-2.209 -1.791,-4 -4,-4 -2.209,0 -4,1.791 -4,4 0,2.209 1.791,4 4,4 2.209,0 4,-1.791 4,-4" /></g><g
       transform="translate(50.5098,29.5)"
       id="g4623"><path
         inkscape:connector-curvature="0"
         id="path4625"
         style="fill:none;stroke:#ffffff;stroke-width:1;stroke-linecap:butt;stroke-linejoin:miter;stroke-miterlimit:10;stroke-opacity:1;stroke-dasharray:none"
         d="m 0,0 c 0,-2.209 -1.791,-4 -4,-4 -2.209,0 -4,1.791 -4,4 0,2.209 1.791,4 4,4 2.209,0 4,-1.791 4,-4 z" /></g><g
       transform="translate(45.1768,39.6665)"
       id="g4627"><path
         inkscape:connector-curvature="0"
         id="path4629"
         style="fill:#e5d903;fill-opacity:1;fill-rule:nonzero;stroke:none"
         d="m 0,0 c 0,-1.564 -1.269,-2.833 -2.833,-2.833 -1.565,0 -2.834,1.269 -2.834,2.833 0,1.565 1.269,2.833 2.834,2.833 C -1.269,2.833 0,1.565 0,0" /></g><g
       transform="translate(45.1768,39.6665)"
       id="g4631"><path
         inkscape:connector-curvature="0"
         id="path4633"
         style="fill:none;stroke:#ffffff;stroke-width:1;stroke-linecap:butt;stroke-linejoin:miter;stroke-miterlimit:10;stroke-opacity:1;stroke-dasharray:none"
         d="m 0,0 c 0,-1.564 -1.269,-2.833 -2.833,-2.833 -1.565,0 -2.834,1.269 -2.834,2.833 0,1.565 1.269,2.833 2.834,2.833 C -1.269,2.833 0,1.565 0,0 z" /></g></g></g>
<path
   inkscape:connector-curvature="0"
   id="path4641"
   d="m 544.1125,113.22526 37.6,-2.6e-4 0,37.6 -0.8,0 -10e-6,-36.8 -36.8,0 z"
   style="opacity:0.5;color:#000000;fill:url(#linearGradient4680);fill-opacity:1;fill-rule:nonzero;stroke:none;stroke-width:4;marker:none;visibility:visible;display:inline;overflow:visible;enable-background:accumulate"
   sodipodi:nodetypes="ccccccc" /></g></svg>