<?xml version="1.0" encoding="UTF-8" standalone="no"?>
<svg
   xmlns:dc="http://purl.org/dc/elements/1.1/"
   xmlns:cc="http://creativecommons.org/ns#"
   xmlns:rdf="http://www.w3.org/1999/02/22-rdf-syntax-ns#"
   xmlns:svg="http://www.w3.org/2000/svg"
   xmlns="http://www.w3.org/2000/svg"
   xmlns:sodipodi="http://sodipodi.sourceforge.net/DTD/sodipodi-0.dtd"
   xmlns:inkscape="http://www.inkscape.org/namespaces/inkscape"
   id="svg1"
   viewBox="0 0 32 32"
   version="1.0"
   y="0"
   x="0"
   inkscape:version="0.48.4 r9939"
   width="100%"
   height="100%"
   sodipodi:docname="equation_accent.svg"
   inkscape:export-filename="C:\data\ws\joffice_migration_1\com.joffice.client.resources\src\com\joffice\ui\resources\images\tools\equation_accent_32.png"
   inkscape:export-xdpi="90"
   inkscape:export-ydpi="90">
  <defs
     id="defs9" />
  <sodipodi:namedview
     pagecolor="#ffffff"
     bordercolor="#666666"
     borderopacity="1"
     objecttolerance="10"
     gridtolerance="10"
     guidetolerance="10"
     inkscape:pageopacity="0"
     inkscape:pageshadow="2"
     inkscape:window-width="1842"
     inkscape:window-height="1051"
     id="namedview7"
     showgrid="false"
     inkscape:zoom="8.6308571"
     inkscape:cx="0.87257776"
     inkscape:cy="21.782552"
     inkscape:window-x="69"
     inkscape:window-y="-9"
     inkscape:window-maximized="1"
     inkscape:current-layer="svg1" />
  <metadata
     id="metadata5">
    <rdf:RDF>
      <cc:Work>
        <dc:format>image/svg+xml</dc:format>
        <dc:type
           rdf:resource="http://purl.org/dc/dcmitype/StillImage" />
        <cc:license
           rdf:resource="http://creativecommons.org/licenses/publicdomain/" />
        <dc:publisher>
          <cc:Agent
             rdf:about="http://openclipart.org/">
            <dc:title>Openclipart</dc:title>
          </cc:Agent>
        </dc:publisher>
        <dc:title></dc:title>
        <dc:date>2011-01-21T16:59:08</dc:date>
        <dc:description>Originally uploaded by Jose Hevia for OCAL 0.18</dc:description>
        <dc:source>http://openclipart.org/detail/108631/math-lsub-by-anonymous</dc:source>
        <dc:creator>
          <cc:Agent>
            <dc:title>Anonymous</dc:title>
          </cc:Agent>
        </dc:creator>
        <dc:subject>
          <rdf:Bag>
            <rdf:li>clip art</rdf:li>
            <rdf:li>clipart</rdf:li>
            <rdf:li>fix</rdf:li>
            <rdf:li>keyword</rdf:li>
            <rdf:li>librarians</rdf:li>
            <rdf:li>tag</rdf:li>
          </rdf:Bag>
        </dc:subject>
      </cc:Work>
      <cc:License
         rdf:about="http://creativecommons.org/licenses/publicdomain/">
        <cc:permits
           rdf:resource="http://creativecommons.org/ns#Reproduction" />
        <cc:permits
           rdf:resource="http://creativecommons.org/ns#Distribution" />
        <cc:permits
           rdf:resource="http://creativecommons.org/ns#DerivativeWorks" />
      </cc:License>
    </rdf:RDF>
  </metadata>
  <g
     id="g2998"
     transform="matrix(1.5211934,0,0,1.5211934,1.9892032,-16.6707)">
    <path
       style="fill:#004d00"
       inkscape:connector-curvature="0"
       d="m 6.9078154,15.880217 -4.2343717,1.412211 v 1.090935 l 2.8125692,0.224582 c 0.5872646,0.866354 1.267247,2.791671 2.1635448,5.743979 -1.0817334,2.246593 -2.3489803,3.851414 -3.6162273,4.749739 L 2.7043236,27.400927 c -1.2362889,0.320497 -1.97810913,1.251574 -1.97810913,2.278565 1.6e-7,1.122906 0.98901563,2.085175 2.19442463,2.085175 1.7617938,0 3.3999118,-1.925317 5.408901,-5.743979 0.8652623,4.107967 1.7924399,5.904617 4.1723779,5.904617 0.95837,0 2.287142,-0.320496 4.079894,-0.898325 v -1.251573 c -0.618379,0.160638 -1.174373,0.224581 -1.699956,0.224581 -2.070359,0 -2.503146,-2.117926 -3.801507,-6.770971 1.081578,-2.342507 2.255951,-3.78669 3.431104,-4.331767 l 1.204786,1.700735 c 1.267168,-0.385219 1.978343,-1.316296 1.978343,-2.439203 0,-1.18763 -0.803191,-2.053983 -1.947152,-2.053983 -1.76156,0 -3.492708,1.861373 -5.378255,5.519397 C 9.4115853,17.70962 8.854811,15.880217 7.1241309,15.880217 H 6.9078154 z"
       id="path625" />
    <path
       transform="translate(1.3903602,-0.11586335)"
       d="m 7.6469809,13.056342 c 0,1.055828 -0.8559175,1.911745 -1.9117452,1.911745 -1.0558277,0 -1.9117452,-0.855917 -1.9117452,-1.911745 0,-1.055828 0.8559175,-1.911745 1.9117452,-1.911745 1.0558277,0 1.9117452,0.855917 1.9117452,1.911745 z"
       sodipodi:ry="1.9117452"
       sodipodi:rx="1.9117452"
       sodipodi:cy="13.056342"
       sodipodi:cx="5.7352357"
       id="path2994"
       style="fill:#004d00;fill-opacity:1;fill-rule:evenodd;stroke:none"
       sodipodi:type="arc" />
    <path
       transform="translate(9.3903602,-0.11586335)"
       sodipodi:type="arc"
       style="fill:#004d00;fill-opacity:1;fill-rule:evenodd;stroke:none"
       id="path2996"
       sodipodi:cx="5.7352357"
       sodipodi:cy="13.056342"
       sodipodi:rx="1.9117452"
       sodipodi:ry="1.9117452"
       d="m 7.6469809,13.056342 c 0,1.055828 -0.8559175,1.911745 -1.9117452,1.911745 -1.0558277,0 -1.9117452,-0.855917 -1.9117452,-1.911745 0,-1.055828 0.8559175,-1.911745 1.9117452,-1.911745 1.0558277,0 1.9117452,0.855917 1.9117452,1.911745 z" />
  </g>
</svg>
