<?xml version="1.0" encoding="UTF-8" standalone="no"?>
<svg
   xmlns:dc="http://purl.org/dc/elements/1.1/"
   xmlns:cc="http://creativecommons.org/ns#"
   xmlns:rdf="http://www.w3.org/1999/02/22-rdf-syntax-ns#"
   xmlns:svg="http://www.w3.org/2000/svg"
   xmlns="http://www.w3.org/2000/svg"
   xmlns:sodipodi="http://sodipodi.sourceforge.net/DTD/sodipodi-0.dtd"
   xmlns:inkscape="http://www.inkscape.org/namespaces/inkscape"
   id="svg1"
   viewBox="0 0 32 32"
   version="1.0"
   y="0"
   x="0"
   inkscape:version="0.48.4 r9939"
   width="100%"
   height="100%"
   sodipodi:docname="equation_limit_and_log.svg"
   inkscape:export-filename="C:\data\ws\joffice_migration_1\com.joffice.client.resources\src\com\joffice\ui\resources\images\tools\equation_limit_and_log.png"
   inkscape:export-xdpi="45"
   inkscape:export-ydpi="45">
  <defs
     id="defs10" />
  <sodipodi:namedview
     pagecolor="#ffffff"
     bordercolor="#666666"
     borderopacity="1"
     objecttolerance="10"
     gridtolerance="10"
     guidetolerance="10"
     inkscape:pageopacity="0"
     inkscape:pageshadow="2"
     inkscape:window-width="1842"
     inkscape:window-height="1051"
     id="namedview8"
     showgrid="false"
     inkscape:zoom="8.6308571"
     inkscape:cx="-20.365642"
     inkscape:cy="8.5235138"
     inkscape:window-x="69"
     inkscape:window-y="-9"
     inkscape:window-maximized="1"
     inkscape:current-layer="g3408" />
  <metadata
     id="metadata6">
    <rdf:RDF>
      <cc:Work>
        <dc:format>image/svg+xml</dc:format>
        <dc:type
           rdf:resource="http://purl.org/dc/dcmitype/StillImage" />
        <cc:license
           rdf:resource="http://creativecommons.org/licenses/publicdomain/" />
        <dc:publisher>
          <cc:Agent
             rdf:about="http://openclipart.org/">
            <dc:title>Openclipart</dc:title>
          </cc:Agent>
        </dc:publisher>
        <dc:title></dc:title>
        <dc:date>2011-01-21T16:59:08</dc:date>
        <dc:description>Originally uploaded by Jose Hevia for OCAL 0.18</dc:description>
        <dc:source>http://openclipart.org/detail/108649/math-brackets-by-anonymous</dc:source>
        <dc:creator>
          <cc:Agent>
            <dc:title>Anonymous</dc:title>
          </cc:Agent>
        </dc:creator>
        <dc:subject>
          <rdf:Bag>
            <rdf:li>clip art</rdf:li>
            <rdf:li>clipart</rdf:li>
            <rdf:li>fix</rdf:li>
            <rdf:li>keyword</rdf:li>
            <rdf:li>librarians</rdf:li>
            <rdf:li>tag</rdf:li>
          </rdf:Bag>
        </dc:subject>
      </cc:Work>
      <cc:License
         rdf:about="http://creativecommons.org/licenses/publicdomain/">
        <cc:permits
           rdf:resource="http://creativecommons.org/ns#Reproduction" />
        <cc:permits
           rdf:resource="http://creativecommons.org/ns#Distribution" />
        <cc:permits
           rdf:resource="http://creativecommons.org/ns#DerivativeWorks" />
      </cc:License>
    </rdf:RDF>
  </metadata>
  <g
     id="g3408"
     transform="matrix(0.42878713,0,0,0.49656144,2.7411097,7.6100339)">
    <text
       sodipodi:linespacing="125%"
       id="text2996"
       y="27.494986"
       x="-9.9487438"
       style="font-size:56.12428665px;font-style:normal;font-weight:normal;line-height:125%;letter-spacing:0px;word-spacing:0px;fill:#004d00;fill-opacity:1;stroke:none;font-family:Sans"
       xml:space="preserve"><tspan
         style="font-style:normal;font-variant:normal;font-weight:bold;font-stretch:normal;fill:#004d00;fill-opacity:1;font-family:Arial;-inkscape-font-specification:Arial Bold"
         y="27.494986"
         x="-9.9487438"
         id="tspan2998"
         sodipodi:role="line">lim</tspan></text>
    <text
       xml:space="preserve"
       style="font-size:32.65005493000000300px;font-style:normal;font-weight:normal;line-height:125%;letter-spacing:0px;word-spacing:0px;fill:#00ff00;fill-opacity:1;stroke:#000000;font-family:Sans;stroke-opacity:1;stroke-width:0.40526046;stroke-miterlimit:4;stroke-dasharray:none"
       x="-7.7885962"
       y="50.010204"
       id="text3012"
       sodipodi:linespacing="125%"
       transform="scale(1.0761322,0.92925387)"><tspan
         sodipodi:role="line"
         id="tspan3014"
         x="-7.7885962"
         y="50.010204"
         style="font-style:normal;font-variant:normal;font-weight:bold;font-stretch:normal;fill:#00ff00;fill-opacity:1;font-family:Arial;-inkscape-font-specification:Arial Bold;stroke:#000000;stroke-opacity:1;stroke-width:0.40526046;stroke-miterlimit:4;stroke-dasharray:none">n</tspan></text>
    <g
       id="g3034"
       transform="matrix(1.890353,0,0,1.0563642,-54.033618,5.2017913)"
       style="fill:#00ff00;fill-opacity:1;stroke:#000000;stroke-opacity:1;stroke-width:0.28678468;stroke-miterlimit:4;stroke-dasharray:none">
      <path
         d="m 45.980801,31.563299 -10.564409,0"
         id="path831"
         inkscape:connector-curvature="0"
         style="fill:#00ff00;fill-opacity:1;stroke:#000000;stroke-opacity:1;stroke-width:0.28678468;stroke-miterlimit:4;stroke-dasharray:none"
         sodipodi:nodetypes="cc" />
      <path
         d="M 43.993712,28.904496 47.180627,31.4692 43.997,34.002005 z"
         id="path869"
         inkscape:connector-curvature="0"
         style="fill:#00ff00;fill-opacity:1;fill-rule:evenodd;stroke:#000000;stroke-opacity:1;stroke-width:0.28678468;stroke-miterlimit:4;stroke-dasharray:none"
         sodipodi:nodetypes="cccc" />
    </g>
    <g
       style="fill:#00ff00;fill-opacity:1;stroke:#000000;stroke-opacity:1;stroke-width:4.05203033;stroke-miterlimit:4;stroke-dasharray:none"
       transform="matrix(0.10762847,0,0,0.09293856,35.120412,28.088366)"
       id="g3007">
      <path
         style="fill:#00ff00;fill-opacity:1;stroke:#000000;stroke-opacity:1;stroke-width:4.05203033;stroke-miterlimit:4;stroke-dasharray:none"
         d="m 177.49,123.22 c 10.756,20.321 30.069,38.128 54.111,38.96 20.845,2.2793 42.597,-9.3554 50.424,-29.2 10.429,-24.989 2.9087,-59.279 -23.126,-71.338 C 240.146,52.7508 217.225,60.5082 205.08,76.645 193.523,90.6 185.277,106.968 177.491,123.22 z M 150.68,99.709 c -10.92,-21 -31.7,-38.622 -56.345,-38.634 -22.732,-1.878 -45.352,13.788 -50.658,36.159 -6.3839,23.755 1.9998,53.229 25.598,64.054 18.176,8.568 40.529,1.7072 52.728,-13.732 12.219,-14.149 20.674,-31.091 28.681,-47.847 z m 15.601,40.21 c -12.66,23.84 -29.77,49.77 -57.87,56.22 -24.714,5.77 -51.046,-5.96 -65.45,-26.38 -20.602,-27.17 -21.978,-64.74 -12.19,-96.346 7.615,-24.179 28.542,-45.833 54.944,-47.105 22.84,-2.7117 44.157,10.578 57.197,28.507 7.5134,7.411 16.273,24.25 19.476,29.411 12.093,-23.863 29.377,-51.357 57.101,-57.809 24.023,-5.7755 49.694,5.3778 64.097,24.976 22.38,27.692 24.148,67.326 13.083,100.03 -8.086,23.249 -28.587,43.813 -54.209,44.979 -21.808,2.4742 -42.976,-8.8262 -55.842,-26.044 -7.7387,-9.4612 -14.29,-19.832 -20.332,-30.439 z"
         id="path3009"
         inkscape:connector-curvature="0" />
    </g>
  </g>
</svg>
