<?xml version="1.0" encoding="UTF-8" standalone="no"?>
<svg
   xmlns:dc="http://purl.org/dc/elements/1.1/"
   xmlns:cc="http://creativecommons.org/ns#"
   xmlns:rdf="http://www.w3.org/1999/02/22-rdf-syntax-ns#"
   xmlns:svg="http://www.w3.org/2000/svg"
   xmlns="http://www.w3.org/2000/svg"
   xmlns:sodipodi="http://sodipodi.sourceforge.net/DTD/sodipodi-0.dtd"
   xmlns:inkscape="http://www.inkscape.org/namespaces/inkscape"
   id="svg1"
   viewBox="0 0 32 32"
   version="1.0"
   y="0"
   x="0"
   inkscape:version="0.48.4 r9939"
   width="100%"
   height="100%"
   sodipodi:docname="equation_fraction.svg"
   inkscape:export-filename="C:\data\ws\joffice_migration_1\com.joffice.client.resources\src\com\joffice\ui\resources\images\tools\equation_fraction.png"
   inkscape:export-xdpi="45"
   inkscape:export-ydpi="45">
  <defs
     id="defs10" />
  <sodipodi:namedview
     pagecolor="#ffffff"
     bordercolor="#666666"
     borderopacity="1"
     objecttolerance="10"
     gridtolerance="10"
     guidetolerance="10"
     inkscape:pageopacity="0"
     inkscape:pageshadow="2"
     inkscape:window-width="1842"
     inkscape:window-height="1051"
     id="namedview8"
     showgrid="false"
     inkscape:zoom="6.1029376"
     inkscape:cx="17.852118"
     inkscape:cy="40.442887"
     inkscape:window-x="69"
     inkscape:window-y="-9"
     inkscape:window-maximized="1"
     inkscape:current-layer="svg1" />
  <g
     id="g2987"
     transform="matrix(0.47415051,0,0,0.47415051,-7.7187591,20.188156)">
    <path
       style="fill:#004d00"
       inkscape:connector-curvature="0"
       d="m 46.340493,-42.485935 -8.628014,2.562346 v 1.979994 l 5.731353,0.407725 c 1.196482,1.572269 2.582049,5.066377 4.409345,10.424167 -2.205467,4.075665 -4.787516,6.988216 -7.369564,8.618481 l -2.707576,-3.085746 c -2.52008,0.581557 -4.031174,2.270614 -4.031174,4.134455 0,2.038627 2.014793,3.784886 4.471314,3.784886 3.589445,0 6.927835,-3.494107 11.022567,-10.423531 1.762149,7.453778 3.651414,10.71431 8.500898,10.71431 1.952823,0 4.660399,-0.581557 8.313402,-1.630266 v -2.270614 c -1.258451,0.290779 -2.392963,0.406772 -3.463917,0.406772 -4.218671,0 -5.100539,-3.843677 -7.746146,-12.287055 2.203878,-4.251244 4.596841,-6.871745 6.991393,-7.861822 l 2.454932,3.086541 c 2.583638,-0.698821 4.031174,-2.387719 4.031174,-4.425869 0,-2.15478 -1.636622,-3.727048 -3.967616,-3.727048 -3.589444,-3.2e-5 -7.11692,3.377637 -10.959008,10.016441 -1.951235,-7.104685 -3.085747,-10.424167 -6.611634,-10.424167 -0.127116,4.8e-5 -0.314612,4.8e-5 -0.441729,4.8e-5 z"
       id="path625" />
    <path
       style="fill:#00ff00;fill-rule:evenodd;stroke:#000000;stroke-width:0.99309564"
       inkscape:connector-curvature="0"
       d="m 19.176548,-3.6556263 h 61.692688 l 0.0016,-7.8240047 H 19.178137 l -7.95e-4,7.8240047 z"
       id="path627" />
    <path
       style="fill:#004c00"
       inkscape:connector-curvature="0"
       d="m 52.038479,21.295702 c -0.86598,1.277518 -1.911511,2.184811 -3.138182,2.720288 -1.226672,0.535477 -2.877594,0.80401 -4.952767,0.80401 -0.883458,0 -1.867019,-0.06038 -2.949096,-0.181141 -1.083666,-0.119171 -2.264258,-0.293956 -3.544955,-0.524354 v -3.638702 l 3.057146,0.01589 c 0.05402,0.842145 0.37976,1.465015 0.974028,1.868609 0.613336,0.405183 1.525395,0.60698 2.732999,0.60698 1.172648,0 2.121252,-0.19703 2.842637,-0.589502 0.721385,-0.382937 1.442769,-1.115445 2.164154,-2.197522 L 49.658227,19.574866 37.127744,1.9200097 h -3.11117 V -0.06300363 H 50.605243 V 1.9200097 H 47.168338 L 54.474344,12.230726 61.29413,1.9200097 H 57.479054 V -0.06300363 H 68.275989 V 1.9200097 H 64.78506 L 52.038479,21.295702 z"
       id="path628" />
  </g>
  <metadata
     id="metadata6">
    <rdf:RDF>
      <cc:Work>
        <dc:format>image/svg+xml</dc:format>
        <dc:type
           rdf:resource="http://purl.org/dc/dcmitype/StillImage" />
        <cc:license
           rdf:resource="http://creativecommons.org/licenses/publicdomain/" />
        <dc:publisher>
          <cc:Agent
             rdf:about="http://openclipart.org/">
            <dc:title>Openclipart</dc:title>
          </cc:Agent>
        </dc:publisher>
        <dc:title></dc:title>
        <dc:date>2011-01-21T16:59:08</dc:date>
        <dc:description>Originally uploaded by Jose Hevia for OCAL 0.18</dc:description>
        <dc:source>http://openclipart.org/detail/108643/math-frac-by-anonymous</dc:source>
        <dc:creator>
          <cc:Agent>
            <dc:title>Anonymous</dc:title>
          </cc:Agent>
        </dc:creator>
        <dc:subject>
          <rdf:Bag>
            <rdf:li>clip art</rdf:li>
            <rdf:li>clipart</rdf:li>
            <rdf:li>fix</rdf:li>
            <rdf:li>keyword</rdf:li>
            <rdf:li>librarians</rdf:li>
            <rdf:li>tag</rdf:li>
          </rdf:Bag>
        </dc:subject>
      </cc:Work>
      <cc:License
         rdf:about="http://creativecommons.org/licenses/publicdomain/">
        <cc:permits
           rdf:resource="http://creativecommons.org/ns#Reproduction" />
        <cc:permits
           rdf:resource="http://creativecommons.org/ns#Distribution" />
        <cc:permits
           rdf:resource="http://creativecommons.org/ns#DerivativeWorks" />
      </cc:License>
    </rdf:RDF>
  </metadata>
</svg>
