<?xml version="1.0" encoding="UTF-8" standalone="no"?>
<!-- Created with Inkscape (http://www.inkscape.org/) -->

<svg
   xmlns:dc="http://purl.org/dc/elements/1.1/"
   xmlns:cc="http://creativecommons.org/ns#"
   xmlns:rdf="http://www.w3.org/1999/02/22-rdf-syntax-ns#"
   xmlns:svg="http://www.w3.org/2000/svg"
   xmlns="http://www.w3.org/2000/svg"
   xmlns:sodipodi="http://sodipodi.sourceforge.net/DTD/sodipodi-0.dtd"
   xmlns:inkscape="http://www.inkscape.org/namespaces/inkscape"
   width="300"
   height="75"
   id="svg2985"
   version="1.1"
   inkscape:version="0.48.4 r9939"
   sodipodi:docname="equations_area_of_a_circle.svg"
   inkscape:export-filename="C:\data\ws\joffice_migration_1\com.joffice.client.resources\src\com\joffice\ui\resources\images\tools\equations_area_of_a_circle_300_75.png"
   inkscape:export-xdpi="90"
   inkscape:export-ydpi="90">
  <defs
     id="defs2987" />
  <sodipodi:namedview
     id="base"
     pagecolor="#ffffff"
     bordercolor="#666666"
     borderopacity="1.0"
     inkscape:pageopacity="0.0"
     inkscape:pageshadow="2"
     inkscape:zoom="2.7994505"
     inkscape:cx="99.875765"
     inkscape:cy="42.565018"
     inkscape:current-layer="layer1"
     showgrid="true"
     inkscape:grid-bbox="true"
     inkscape:document-units="px"
     inkscape:window-width="1842"
     inkscape:window-height="1051"
     inkscape:window-x="69"
     inkscape:window-y="-9"
     inkscape:window-maximized="1" />
  <metadata
     id="metadata2990">
    <rdf:RDF>
      <cc:Work
         rdf:about="">
        <dc:format>image/svg+xml</dc:format>
        <dc:type
           rdf:resource="http://purl.org/dc/dcmitype/StillImage" />
        <dc:title></dc:title>
      </cc:Work>
    </rdf:RDF>
  </metadata>
  <g
     id="layer1"
     inkscape:label="Layer 1"
     inkscape:groupmode="layer"
     transform="translate(0,43)">
    <g
       id="g3021"
       transform="matrix(3.9084474,0,0,3.9084474,140.16721,-110.889)">
      <text
         id="text2993"
         y="32"
         x="-13.574092"
         xml:space="preserve"><tspan
           style="font-family:Times New Roman;-inkscape-font-specification:Times New Roman"
           y="32"
           x="-13.574092"
           id="tspan2995"
           sodipodi:role="line"><tspan
             id="tspan3019"
             style="font-style:italic">A=   r</tspan><tspan
             id="tspan2997"
             style="font-size:65.00091553%;font-style:italic;baseline-shift:super;font-family:Times New Roman;-inkscape-font-specification:Times New Roman">2</tspan></tspan></text>
      <g
         id="layer1-1"
         transform="matrix(0.01613888,0,0,0.01613888,0.28779942,19.222681)">
        <path
           inkscape:connector-curvature="0"
           id="rect4886"
           d="m 669.08,247.6 c -124.67,0.7349 -249.35,-0.1383 -374.02,0.3307 -33.876,0.2722 -40.957,1.2158 -46.264,2.0755 -32.004,5.1843 -45.23,11.38 -65.094,30.594 -22.937,22.186 -38.61,46.048 -52.5,79.875 -4.477,10.903 -12.027,32.811 -15.5,44.938 l -1.5,5.25 17.375,-0.031 6.3438,-10.281 c 15.054,-24.471 33.057,-45.134 47.469,-54.5 17.984,-11.688 41.997,-17.162 75.562,-17.188 h 11.344 c -2.5989,29.804 -4.5922,59.661 -6.75,89.5 -6.7028,93.243 -6.803,94.425 -10.562,118.5 -10.954,70.149 -20.595,96.734 -49.812,137.38 -26.329,36.623 -30.848,45.184 -33.031,62.594 -3.0318,24.18 9.6834,44.375 33.031,52.5 10.888,3.5794 23.552,3.6494 34.031,-1.2187 v 0.031 c 12.054,-5.9343 26.101,-22.343 34.844,-40.688 15.985,-33.541 33.797,-126.34 46,-239.59 1.0341,-9.5973 13.031,-174.36 13.031,-178.79 l 140.25,-0.2062 c -9.2089,64.187 -14.802,128.9 -20.312,193.5 -1.7146,22.465 -2.3431,96.724 -1,117.16 3.7518,57.075 12.989,92.631 29.906,115 14.68,19.411 32.214,31.323 52.812,35.906 9.2392,2.0555 28.464,1.5225 37.844,-1.0625 15.806,-4.3559 32.792,-14.858 47.062,-29.094 18.537,-18.492 30.485,-41.756 39.469,-76.906 3.464,-13.553 8.9688,-42.819 8.9688,-47.594 l -17.406,0.3437 c -2.9839,14.493 -4.1572,19.007 -6.4688,24.688 -6.6041,16.228 -19.404,28.301 -36.125,34.156 -20.731,6.1896 -42.772,3.0609 -61.188,-7.8124 -17.898,-11.691 -28.855,-31.322 -33.406,-59.875 -4.7688,-99.638 6.7697,-199.58 20.594,-298.16 l 135,-0.25 v -81.062 z" />
      </g>
    </g>
  </g>
</svg>
