<?xml version="1.0" encoding="UTF-8" standalone="no"?>
<svg
   xmlns:dc="http://purl.org/dc/elements/1.1/"
   xmlns:cc="http://creativecommons.org/ns#"
   xmlns:rdf="http://www.w3.org/1999/02/22-rdf-syntax-ns#"
   xmlns:svg="http://www.w3.org/2000/svg"
   xmlns="http://www.w3.org/2000/svg"
   xmlns:sodipodi="http://sodipodi.sourceforge.net/DTD/sodipodi-0.dtd"
   xmlns:inkscape="http://www.inkscape.org/namespaces/inkscape"
   id="Layer_1"
   y="0px"
   xml:space="preserve"
   viewBox="0 0 300 75"
   version="1.1"
   enable-background="new 0 0 388.586 130.604"
   x="0px"
   inkscape:version="0.48.4 r9939"
   width="100%"
   height="100%"
   sodipodi:docname="equations_quadratic_formula.svg"
   inkscape:export-filename="C:\data\ws\joffice_migration_1\com.joffice.client.resources\src\com\joffice\ui\resources\images\tools\equations_quadratic_formula_300_75.png"
   inkscape:export-xdpi="90"
   inkscape:export-ydpi="90"><defs
   id="defs9" /><sodipodi:namedview
   pagecolor="#ffffff"
   bordercolor="#666666"
   borderopacity="1"
   objecttolerance="10"
   gridtolerance="10"
   guidetolerance="10"
   inkscape:pageopacity="0"
   inkscape:pageshadow="2"
   inkscape:window-width="1842"
   inkscape:window-height="1051"
   id="namedview7"
   showgrid="false"
   inkscape:zoom="1.4096164"
   inkscape:cx="45.046087"
   inkscape:cy="29.793628"
   inkscape:window-x="69"
   inkscape:window-y="-9"
   inkscape:window-maximized="1"
   inkscape:current-layer="Layer_1" />
<path
   d="m 7.3957652,39.481524 c 1.5047904,-2.185027 3.0809288,-3.725492 4.2622218,-3.725492 0.967249,0 1.432632,1.32561 2.29286,3.904672 l 0.644562,1.970173 c 2.973096,-4.33438 4.513561,-5.874845 6.089699,-5.874845 0.931575,0 1.50479,0.752395 1.50479,1.540465 -0.03568,0.859416 -0.859416,1.576137 -1.396958,1.576137 -0.214854,0 -0.35836,-0.107832 -0.53754,-0.286201 -0.214854,-0.286202 -0.501057,-0.429709 -0.823744,-0.429709 -0.501056,0 -1.217777,0.608889 -2.149352,1.790993 -0.752396,0.859417 -1.540465,1.826667 -2.328535,2.937422 l 1.14643,3.581986 c 0.716722,2.256374 1.253452,3.295782 1.826667,3.295782 0.573215,0 1.432632,-0.716721 2.579062,-2.078005 l 0.608889,0.716721 c -1.647486,2.543388 -3.295784,3.868188 -4.549235,3.868188 -0.895901,0 -1.68397,-1.038598 -2.364207,-3.295784 l -1.109946,-3.474152 c -3.18795,5.014617 -4.8362469,6.769936 -6.5550808,6.769936 -0.895091,0 -1.6474862,-0.716721 -1.6118123,-1.719645 0,-0.859418 0.7523953,-1.683161 1.4326319,-1.683161 0.2148542,0 0.3940346,0.143508 0.5732149,0.358361 0.1791804,0.214854 0.4653825,0.358362 0.8237431,0.358362 1.0385973,0 2.7225682,-2.077195 4.9432692,-5.408652 l -1.217778,-3.725492 c -0.501867,-1.755319 -0.823743,-2.256375 -1.182103,-2.256375 -0.358361,0 -1.0385978,0.465383 -2.2928601,2.041521 L 7.3957652,39.481524 z M 31.85834,40.340941 v -1.790992 h 17.086183 v 1.790992 H 31.85834 z m 0,6.555081 v -1.790993 h 17.086183 v 1.790993 H 31.85834 z M 60.690969,27.658865 v -1.826667 h 15.008988 v 1.826667 H 60.692591 z M 81.357515,10.572682 c 2.793916,-0.322686 4.76409,-1.2177771 5.337305,-1.2177771 0.35836,0 0.35836,0.3583601 0.179179,1.1107561 -1.217777,4.907594 -2.185027,9.098469 -3.18795,13.683377 h 0.07135 c 3.080929,-3.761165 6.125372,-5.372977 7.772859,-5.372977 1.576138,0 2.543388,1.576137 2.543388,3.940345 0,3.940346 -2.364208,8.489581 -5.516484,10.60326 -2.149354,1.468306 -4.083853,1.970173 -5.408652,1.970173 -1.14643,0 -2.328533,-0.644562 -2.865264,-1.540464 -0.537541,-0.859418 -0.680237,-2.149354 -0.214854,-4.477077 1.002923,-4.907595 2.256375,-10.316247 3.438479,-16.083259 0.322687,-1.611812 0.214854,-1.719645 -1.182104,-1.719645 l -1.038597,-0.03568 0.06487,-0.861038 z m 5.448379,22.531319 c 2.11368,-1.254262 4.298707,-5.408652 4.298707,-9.779517 0,-1.826666 -0.537541,-2.579061 -1.217778,-2.579061 -1.253451,0 -4.226547,2.29286 -6.519407,5.552158 -0.214854,0.644562 -0.429708,1.576138 -0.644563,2.793916 -0.644563,3.510637 0.752396,4.549235 2.220701,4.549235 0.608078,0 1.321557,-0.214855 1.864773,-0.536731 z m 27.720246,-9.385483 v 7.307478 h -2.078 v -7.307478 h -7.52233 V 21.9632 h 7.52233 v -6.842094 h 2.078 V 21.9632 h 7.48666 v 1.755318 h -7.48341 z m -9.59952,11.139991 v -1.790992 h 17.08618 v 1.790992 H 104.92987 z M 293.43892,2.6198322 V 0.97234596 H 167.25056 L 150.37843,31.742717 139.63572,11.00239 l -6.44807,3.581986 0.60889,1.074271 3.7255,-2.078006 11.48861,21.923242 h 0.7524 L 167.70541,2.6206424 H 293.43163 z M 176.15283,68.899529 c -0.46539,1.50479 -0.82374,3.080929 -1.25345,4.692741 H 161.5022 v -0.823743 c 2.00585,-1.970172 4.01169,-4.011693 5.80269,-6.089699 2.2207,-2.650409 4.47789,-5.587831 4.47789,-8.66876 0,-3.00877 -1.57614,-4.76409 -4.22655,-4.76409 -2.43556,0 -3.94035,1.934499 -4.87111,3.331457 l -0.78808,-0.716721 2.04153,-2.901748 c 1.07427,-1.182104 2.75824,-2.11368 4.83625,-2.11368 3.15227,0 6.01753,2.29286 6.01753,6.053215 0,3.116603 -1.43263,5.229471 -4.72841,8.740109 l -5.08596,5.337303 h 6.69858 c 1.9345,0 2.39989,-0.143506 3.47497,-2.399881 l 0.99725,0.324308 z m 18.0883,1.402634 c -1.9345,2.399881 -4.33439,3.725491 -5.22948,3.725491 -0.68023,0 -1.14642,-0.537541 -0.64456,-3.152276 l 0.71591,-3.402805 h -0.0713 c -1.39695,1.970172 -3.08092,3.689817 -4.62058,4.943269 -1.1821,0.967249 -2.36421,1.611812 -3.33146,1.611812 -0.93076,0 -2.07719,-1.182103 -2.07719,-4.047367 0,-3.617659 1.68316,-7.522331 4.29789,-9.707358 1.791,-1.50398 4.40574,-2.758242 6.66292,-2.758242 0.75239,0 1.4683,0.107832 2.2207,0.250528 0.50105,0.107832 0.96725,0.214854 1.36128,0.214854 l 0.10784,0.143506 c -0.57322,2.220701 -1.64749,7.092623 -2.47205,11.641857 -0.25053,1.253452 -0.14269,1.540465 0.0721,1.540465 0.2862,0 1.54046,-0.823744 2.57906,-1.863152 l 0.43781,0.859418 z m -4.65383,-5.594318 c 0.39404,-1.432633 0.93157,-4.011694 1.1821,-5.158124 -0.50186,-0.250528 -1.4683,-0.501056 -2.39988,-0.501056 -0.93157,0 -1.93449,0.286202 -2.54339,0.752395 -2.43555,1.790993 -3.86818,6.01754 -3.86818,9.563852 0,1.611812 0.46538,2.364208 0.96725,2.364208 1.39453,0 5.44838,-4.548425 6.66453,-7.021275 z M 173.96375,10.572682 c 2.79391,-0.322686 4.76409,-1.2177771 5.3373,-1.2177771 0.35836,0 0.35836,0.3583601 0.17918,1.1107561 -1.21778,4.907594 -2.18502,9.098469 -3.18795,13.683377 h 0.0721 c 3.08011,-3.761165 6.12537,-5.372977 7.77286,-5.372977 1.57614,0 2.54338,1.576137 2.54338,3.940345 0,3.940346 -2.3642,8.489581 -5.51648,10.60326 -2.14935,1.468306 -4.08303,1.970173 -5.40865,1.970173 -1.14643,0 -2.32853,-0.644562 -2.86527,-1.540464 -0.53753,-0.859418 -0.68022,-2.149354 -0.21485,-4.477077 1.00293,-4.907595 2.25638,-10.316247 3.43848,-16.083259 0.32269,-1.611812 0.21486,-1.719645 -1.1821,-1.719645 l -1.0386,-0.03568 0.0649,-0.861038 z m 5.44027,22.531319 c 2.11286,-1.254262 4.2987,-5.408652 4.2987,-9.779517 0,-1.826666 -0.53753,-2.579061 -1.21777,-2.579061 -1.25345,0 -4.22655,2.29286 -6.51941,5.552158 -0.21485,0.644562 -0.4297,1.576138 -0.64537,2.793916 -0.64456,3.510637 0.75239,4.549235 2.22151,4.549235 0.61619,0 1.32966,-0.214855 1.86478,-0.536731 z m 19.09365,-15.797057 c -0.35836,1.14643 -0.60889,2.185027 -0.82375,3.152276 h -8.70443 v -0.788069 c 2.00585,-1.611812 6.12538,-4.728415 6.12538,-7.630163 0,-1.790992 -1.07508,-2.6147356 -2.40069,-2.6147356 -1.32562,0 -2.32773,1.0029236 -3.04445,1.9701736 l -0.60889,-0.644564 1.14643,-1.5404644 c 0.82375,-1.038597 2.11368,-1.611812 3.47496,-1.611812 2.00585,0 3.94035,1.3612838 3.94035,3.8325134 0,1.719645 -1.10994,3.080929 -3.79684,5.445136 l -1.86315,1.647486 v 0.107833 h 3.2593 c 1.39695,0 1.79099,-0.17918 2.50771,-1.611813 l 0.79456,0.286203 z m 11.17242,10.351921 v -1.826667 h 15.00899 v 1.826667 h -15.00736 z m 37.86299,0.823743 v 2.579061 c 0,2.399882 0.14352,2.579063 3.04526,2.829591 v 0.967249 h -9.16982 V 33.89126 c 3.11579,-0.250528 3.2593,-0.465383 3.2593,-2.829591 v -2.579061 h -9.31332 v -1.002924 c 3.40281,-5.086775 7.05613,-10.388405 10.74595,-15.259515 h 1.43263 v 14.579278 h 3.43848 v 1.683161 h -3.43767 z m -2.87012,-12.250747 h -0.0713 c -2.29286,3.187951 -4.62058,6.590757 -6.9856,10.566776 h 7.05695 V 16.231861 z m 23.82044,15.331676 c -1.9345,2.399881 -4.33438,3.725491 -5.22947,3.725491 -0.68024,0 -1.14643,-0.537541 -0.64537,-3.152276 l 0.71672,-3.402805 h -0.0713 c -1.39695,1.970172 -3.08093,3.689817 -4.62058,4.943269 -1.18211,0.967249 -2.36421,1.611812 -3.33146,1.611812 -0.93157,0 -2.07801,-1.182103 -2.07801,-4.047367 0,-3.617659 1.68397,-7.522331 4.29871,-9.707358 1.79099,-1.50398 4.40573,-2.758242 6.66292,-2.758242 0.75239,0 1.46831,0.107832 2.2207,0.250528 0.50187,0.107832 0.96725,0.214854 1.36128,0.214854 l 0.10783,0.143506 c -0.5724,2.220701 -1.64748,7.092623 -2.47122,11.641857 -0.25053,1.253452 -0.14352,1.540465 0.0713,1.540465 0.28701,0 1.54046,-0.823744 2.57906,-1.863152 l 0.43782,0.859418 z m -4.65383,-5.588643 c 0.39404,-1.432632 0.93158,-4.011694 1.18211,-5.158124 -0.50187,-0.250528 -1.46911,-0.501056 -2.40069,-0.501056 -0.93077,0 -1.9345,0.286202 -2.54339,0.752396 -2.43556,1.790992 -3.869,6.01754 -3.869,9.563851 0,1.611812 0.46539,2.364207 0.96726,2.364207 1.39452,0 5.44837,-4.549234 6.66452,-7.021274 z m 17.8694,5.337303 c -2.22071,2.543388 -5.0511,3.976021 -7.16397,3.976021 -2.29287,0 -3.83333,-1.826667 -3.83333,-5.265957 0,-2.973096 1.39696,-6.483733 3.68981,-8.596602 1.46831,-1.289126 3.97603,-2.650409 5.73134,-2.650409 1.54047,0 2.6869,0.89509 2.72257,1.790992 0,0.537541 -0.35836,1.217778 -1.1821,1.647486 -0.28702,0.179181 -0.53754,0.107833 -0.78807,-0.214854 -0.7524,-1.038597 -1.57614,-1.540464 -2.6869,-1.540464 -1.28992,0 -2.29285,1.074271 -2.97309,2.364208 -0.89509,1.611812 -1.57614,4.047367 -1.57614,6.483733 0,2.543388 1.00292,3.868187 2.54339,3.868187 1.82666,0 4.01169,-1.647486 4.97894,-2.65041 l 0.53511,0.788069 z m 13.37771,10.47597 H 60.536923 v 1.769101 H 295.07668 v -1.769101 z"
   id="path3"
   inkscape:connector-curvature="0" />
<metadata
   id="metadata5"><rdf:RDF><cc:Work><dc:format>image/svg+xml</dc:format><dc:type
         rdf:resource="http://purl.org/dc/dcmitype/StillImage" /><cc:license
         rdf:resource="http://creativecommons.org/licenses/publicdomain/" /><dc:publisher><cc:Agent
           rdf:about="http://openclipart.org/"><dc:title>Openclipart</dc:title></cc:Agent></dc:publisher><dc:title></dc:title><dc:date>2013-08-02T22:44:30</dc:date><dc:description>Quadratic Formula</dc:description><dc:source>http://openclipart.org/detail/181454/quadratic-formula-by-jhnri4-181454</dc:source><dc:creator><cc:Agent><dc:title>jhnri4</dc:title></cc:Agent></dc:creator><dc:subject><rdf:Bag><rdf:li>equations</rdf:li><rdf:li>formula</rdf:li><rdf:li>math</rdf:li><rdf:li>mathematics</rdf:li><rdf:li>quadratic</rdf:li></rdf:Bag></dc:subject></cc:Work><cc:License
       rdf:about="http://creativecommons.org/licenses/publicdomain/"><cc:permits
         rdf:resource="http://creativecommons.org/ns#Reproduction" /><cc:permits
         rdf:resource="http://creativecommons.org/ns#Distribution" /><cc:permits
         rdf:resource="http://creativecommons.org/ns#DerivativeWorks" /></cc:License></rdf:RDF></metadata></svg>