<?xml version="1.0" encoding="UTF-8" standalone="no"?>
<svg
   xmlns:dc="http://purl.org/dc/elements/1.1/"
   xmlns:cc="http://creativecommons.org/ns#"
   xmlns:rdf="http://www.w3.org/1999/02/22-rdf-syntax-ns#"
   xmlns:svg="http://www.w3.org/2000/svg"
   xmlns="http://www.w3.org/2000/svg"
   xmlns:sodipodi="http://sodipodi.sourceforge.net/DTD/sodipodi-0.dtd"
   xmlns:inkscape="http://www.inkscape.org/namespaces/inkscape"
   id="svg1"
   viewBox="0 0 32 32"
   version="1.0"
   y="0"
   x="0"
   inkscape:version="0.48.4 r9939"
   width="100%"
   height="100%"
   sodipodi:docname="equation_radical.svg"
   inkscape:export-filename="C:\data\ws\joffice_migration_1\com.joffice.client.resources\src\com\joffice\ui\resources\images\tools\equation_radical.png"
   inkscape:export-xdpi="45"
   inkscape:export-ydpi="45">
  <defs
     id="defs9" />
  <sodipodi:namedview
     pagecolor="#ffffff"
     bordercolor="#666666"
     borderopacity="1"
     objecttolerance="10"
     gridtolerance="10"
     guidetolerance="10"
     inkscape:pageopacity="0"
     inkscape:pageshadow="2"
     inkscape:window-width="1842"
     inkscape:window-height="1051"
     id="namedview7"
     showgrid="false"
     inkscape:zoom="17.261714"
     inkscape:cx="11.381208"
     inkscape:cy="15.936397"
     inkscape:window-x="69"
     inkscape:window-y="-9"
     inkscape:window-maximized="1"
     inkscape:current-layer="svg1" />
  <g
     id="g2986"
     transform="matrix(1.2963105,0,0,1.2963105,-3.3521104,-6.2522885)">
    <path
       style="fill:#004d00"
       inkscape:connector-curvature="0"
       d="m 16.746456,10.941257 -3.14754,1.049566 v 0.810792 l 2.09044,0.166911 c 0.436401,0.643881 0.94177,2.074791 1.608253,4.268971 -0.803837,1.669686 -1.745607,2.862401 -2.687957,3.530044 l -0.987554,-1.264 c -0.918588,0.238195 -1.470321,0.930179 -1.470321,1.693447 0,0.834553 0.73545,1.549719 1.631436,1.549719 1.309205,0 2.526262,-1.430911 4.019764,-4.268971 0.643302,3.053073 1.332388,4.388358 3.101177,4.388358 0.711688,0 1.699822,-0.238195 3.03221,-0.667642 v -0.930179 c -0.459584,0.119387 -0.873383,0.16691 -1.263421,0.16691 -1.539287,0 -1.860938,-1.57406 -2.82589,-5.032239 0.804417,-1.740971 1.67722,-2.814299 2.550024,-3.219405 l 0.895985,1.264 c 0.94177,-0.286298 1.469741,-0.978282 1.469741,-1.812835 0,-0.882656 -0.596937,-1.526537 -1.447138,-1.526537 -1.309205,0 -2.595229,1.383388 -3.996583,4.102061 -0.712268,-2.909345 -1.125487,-4.268971 -2.41209,-4.268971 h -0.160536 z"
       id="path625" />
    <path
       style="fill:#00ff00;stroke:#000000;stroke-width:0.36221927;stroke-linejoin:round"
       inkscape:connector-curvature="0"
       d="M 11.531079,5.1114392 C 10.629877,9.8969642 8.8761562,20.422013 8.4745275,21.497079 7.9962242,19.198581 6.3650784,14.701267 6.1107136,14.092159 c -0.2605081,0.127501 -2.8710368,1.205465 -3.127604,1.408888 0.074519,0.25732 0.3036267,1.240818 0.3765342,1.456411 L 4.3110344,16.551772 8.4982891,29.30189 12.938807,7.6348035 h 13.9353 V 5.0298384 l -15.343028,0.081485 z"
       id="path604" />
  </g>
  <metadata
     id="metadata5">
    <rdf:RDF>
      <cc:Work>
        <dc:format>image/svg+xml</dc:format>
        <dc:type
           rdf:resource="http://purl.org/dc/dcmitype/StillImage" />
        <cc:license
           rdf:resource="http://creativecommons.org/licenses/publicdomain/" />
        <dc:publisher>
          <cc:Agent
             rdf:about="http://openclipart.org/">
            <dc:title>Openclipart</dc:title>
          </cc:Agent>
        </dc:publisher>
        <dc:title></dc:title>
        <dc:date>2011-01-21T16:59:07</dc:date>
        <dc:description>Originally uploaded by Jose Hevia for OCAL 0.18</dc:description>
        <dc:source>http://openclipart.org/detail/108583/math-sqrt-by-anonymous</dc:source>
        <dc:creator>
          <cc:Agent>
            <dc:title>Anonymous</dc:title>
          </cc:Agent>
        </dc:creator>
        <dc:subject>
          <rdf:Bag>
            <rdf:li>clip art</rdf:li>
            <rdf:li>clipart</rdf:li>
            <rdf:li>fix</rdf:li>
            <rdf:li>keyword</rdf:li>
            <rdf:li>librarians</rdf:li>
            <rdf:li>tag</rdf:li>
          </rdf:Bag>
        </dc:subject>
      </cc:Work>
      <cc:License
         rdf:about="http://creativecommons.org/licenses/publicdomain/">
        <cc:permits
           rdf:resource="http://creativecommons.org/ns#Reproduction" />
        <cc:permits
           rdf:resource="http://creativecommons.org/ns#Distribution" />
        <cc:permits
           rdf:resource="http://creativecommons.org/ns#DerivativeWorks" />
      </cc:License>
    </rdf:RDF>
  </metadata>
</svg>
