<?xml version="1.0" encoding="UTF-8" standalone="no"?>
<!-- Created with Sodipodi ("http://www.sodipodi.com/") -->

<svg
   xmlns:dc="http://purl.org/dc/elements/1.1/"
   xmlns:cc="http://creativecommons.org/ns#"
   xmlns:rdf="http://www.w3.org/1999/02/22-rdf-syntax-ns#"
   xmlns:svg="http://www.w3.org/2000/svg"
   xmlns="http://www.w3.org/2000/svg"
   xmlns:xlink="http://www.w3.org/1999/xlink"
   xmlns:sodipodi="http://sodipodi.sourceforge.net/DTD/sodipodi-0.dtd"
   xmlns:inkscape="http://www.inkscape.org/namespaces/inkscape"
   xml:space="preserve"
   width="128pt"
   height="128pt"
   viewBox="0 0 507.946 507.946"
   id="svg49"
   sodipodi:version="0.27"
   sodipodi:docname="error.svg"
   version="1.1"
   inkscape:version="0.48.5 r10040"
   inkscape:export-filename="C:\Users\ramin\Documents\ws\joffice\com.wwindows.office.ooxml.libs\src\com\wwindows\office\ooxml\ui\resources\images\tools\delete.png"
   inkscape:export-xdpi="9"
   inkscape:export-ydpi="9"><metadata
   id="metadata22"><rdf:RDF><cc:Work
       rdf:about=""><dc:format>image/svg+xml</dc:format><dc:type
         rdf:resource="http://purl.org/dc/dcmitype/StillImage" /><dc:title /></cc:Work></rdf:RDF></metadata>
  <defs
   id="defs62"><inkscape:perspective
   sodipodi:type="inkscape:persp3d"
   inkscape:vp_x="0 : 80 : 1"
   inkscape:vp_y="0 : 1000 : 0"
   inkscape:vp_z="160 : 80 : 1"
   inkscape:persp3d-origin="80 : 53.333333 : 1"
   id="perspective24" />
    <radialGradient
   id="radialGradient93"
   cx="218.9404"
   cy="219.7715"
   r="150.7063"
   fx="218.9404"
   fy="219.7715"
   gradientUnits="userSpaceOnUse"
   style="stroke:#000000;stroke-opacity:0.986014;stroke-width:0.981612;">
      <stop
   offset="0.000000"
   style="stop-color:#25a6ca;stop-opacity:1;"
   id="stop94" />
      <stop
   offset="1.000000"
   style="stop-color:#2ea6b9;stop-opacity:0.843137;"
   id="stop95" />
    </radialGradient>
    <radialGradient
   id="aigrd1"
   cx="218.9404"
   cy="219.7715"
   r="150.7063"
   fx="218.9404"
   fy="219.7715"
   gradientUnits="userSpaceOnUse"
   style="stroke:#000000;stroke-opacity:0.986014;stroke-width:0.981612;">
      <stop
   offset="0"
   style="stop-color:#73ffff;stroke:#000000;stroke-opacity:0.986014;stroke-width:0.981612;"
   id="stop53" />
      <stop
   offset="0.2809"
   style="stop-color:#2EA6B9;stroke:#000000;stroke-opacity:0.986014;stroke-width:0.981612;"
   id="stop54" />
      <stop
   offset="1"
   style="stop-color:#006b8b;stroke:#000000;stroke-opacity:0.986014;stroke-width:0.981612;"
   id="stop55" />
    </radialGradient>
    <linearGradient
   xlink:href="#aigrd1"
   id="linearGradient91"
   x1="-0.295723"
   y1="-0.264591"
   x2="0.622574"
   y2="0.365762"
   gradientUnits="objectBoundingBox"
   gradientTransform="matrix(0.996114,0,0,1.0039,0.496124,0.492186)"
   spreadMethod="pad" />
    <radialGradient
   xlink:href="#aigrd1"
   id="radialGradient92"
   cx="-8.09344e-05"
   cy="-7.68867e-05"
   fx="-8.09344e-05"
   fy="-7.68867e-05"
   r="0.789127"
   gradientUnits="objectBoundingBox"
   gradientTransform="matrix(1.06784,0,0,0.936469,0.342219,0.344712)"
   spreadMethod="pad" />
  </defs>
  <sodipodi:namedview
   id="base"
   showgrid="false"
   inkscape:zoom="1.475"
   inkscape:cx="80"
   inkscape:cy="80"
   inkscape:window-width="1005"
   inkscape:window-height="630"
   inkscape:window-x="2603"
   inkscape:window-y="123"
   inkscape:window-maximized="0"
   inkscape:current-layer="svg49">
    <sodipodi:guide
   orientation="vertical"
   position="66.018929"
   id="sodipodi:guide127" />
    <sodipodi:guide
   orientation="horizontal"
   position="82.033898,86.101695"
   id="sodipodi:guide20" />
    <sodipodi:guide
   orientation="horizontal"
   position="31.293375"
   id="sodipodi:guide21" />
    <sodipodi:guide
   orientation="vertical"
   position="97.110413"
   id="sodipodi:guide22" />
    <sodipodi:guide
   orientation="vertical"
   position="34.927444"
   id="sodipodi:guide23" />
  </sodipodi:namedview>
  <path
   style="font-size:12;stroke:none;stroke-width:0.979268;stroke-opacity:0.986014;fill:#a4c9ee;fill-opacity:0.7;"
   d="M134.757,263.776c0,66.739,54.298,121.04,121.039,121.04c66.739,0,121.039-54.301,121.039-121.04c0-66.741-54.3-121.039-121.039-121.039c-66.741,0-121.039,54.298-121.039,121.039z"
   id="path51"
   transform="matrix(1.89511,0,0,1.91236,-231.458,-247.971)" />
  <path
   style="font-size:12;fill:#ffffff;fill-rule:evenodd;stroke:#1c6671;stroke-width:7.72505000000000040;stroke-opacity:0.98823499999999997"
   d="M356.643,263.366c0,57.027-46.23,103.257-103.256,103.257c-57.027,0-103.256-46.229-103.256-103.257c0-57.027,46.229-103.256,103.256-103.256     c57.025,0,103.256,46.229,103.256,103.256z"
   id="path56"
   transform="matrix(2.04451,0,0,2.04451,-264.353,-281.723)" />
  <path
   style="font-size:12px;fill:#d40000;fill-opacity:0.98999999000000005;stroke:#1c6772;stroke-width:9.92082596000000020;stroke-opacity:0.98823499000000004"
   d="m 264.6236,281.74422 -73.41899,70.83407 c -12.28716,11.84584 -30.96928,3.09682 -39.60825,-6.48378 -7.68221,-6.8948 -16.87315,-23.96562 -3.71572,-38.4789 l 70.76384,-70.79828 -67.42323,-66.70915 c -13.22822,-13.61017 -7.08728,-36.04334 2.52625,-43.6418 9.06194,-10.27338 28.36251,-12.59637 39.89626,-2.26322 4.56077,4.79091 52.55151,52.76045 71.01853,71.83558 L 331.1126,127.6342 c 11.05703,-12.32677 33.35749,-11.96779 42.55807,-2.35386 9.43493,9.86011 20.22033,24.07107 2.90652,41.18866 l -68.2844,68.13318 74.22059,73.94412 c 9.44957,9.76998 3.13804,29.33001 -4.76382,36.37089 -6.8948,7.68222 -24.86547,20.12981 -39.37875,6.97238 L 264.6236,281.74422 z"
   id="path124"
   sodipodi:nodetypes="ccccccccccccccccc"
   inkscape:connector-curvature="0" />
</svg>