<?xml version="1.0" encoding="UTF-8" standalone="no"?>
<!-- Created with Inkscape (http://www.inkscape.org/) -->
<svg
   xmlns:dc="http://purl.org/dc/elements/1.1/"
   xmlns:cc="http://creativecommons.org/ns#"
   xmlns:rdf="http://www.w3.org/1999/02/22-rdf-syntax-ns#"
   xmlns:svg="http://www.w3.org/2000/svg"
   xmlns="http://www.w3.org/2000/svg"
   xmlns:xlink="http://www.w3.org/1999/xlink"
   xmlns:sodipodi="http://sodipodi.sourceforge.net/DTD/sodipodi-0.dtd"
   xmlns:inkscape="http://www.inkscape.org/namespaces/inkscape"
   id="svg2211"
   sodipodi:version="0.32"
   inkscape:version="0.46"
   width="1000"
   height="1000"
   version="1.0"
   sodipodi:docbase="/Users/johnolsen/Desktop"
   sodipodi:docname="field_barcode.svg"
   inkscape:output_extension="org.inkscape.output.svg.inkscape"
   inkscape:export-filename="D:\workspace\com.wwindows.office.ooxml.libs\src\com\joffice\ui\resources\images\tools\field_barcode.png"
   inkscape:export-xdpi="1.4400001"
   inkscape:export-ydpi="1.4400001">
  <metadata
     id="metadata2216">
    <rdf:RDF>
      <cc:Work
         rdf:about="">
        <dc:format>image/svg+xml</dc:format>
        <dc:type
           rdf:resource="http://purl.org/dc/dcmitype/StillImage" />
      </cc:Work>
    </rdf:RDF>
  </metadata>
  <defs
     id="defs2214">
    <inkscape:perspective
       sodipodi:type="inkscape:persp3d"
       inkscape:vp_x="0 : 49.265759 : 1"
       inkscape:vp_y="0 : 1000 : 0"
       inkscape:vp_z="87.58326 : 49.265759 : 1"
       inkscape:persp3d-origin="43.79163 : 32.843839 : 1"
       id="perspective99" />
    <linearGradient
       id="linearGradient18230">
      <stop
         style="stop-color:#d0bcba;stop-opacity:1;"
         offset="0"
         id="stop18232" />
      <stop
         style="stop-color:#fefdfd;stop-opacity:1;"
         offset="1"
         id="stop18234" />
    </linearGradient>
    <linearGradient
       id="linearGradient15966">
      <stop
         style="stop-color:#d0bcba;stop-opacity:1"
         offset="0"
         id="stop15968" />
      <stop
         style="stop-color:#6c6c6c;stop-opacity:1;"
         offset="1"
         id="stop15970" />
    </linearGradient>
    <linearGradient
       id="linearGradient15958">
      <stop
         style="stop-color:#978888;stop-opacity:1;"
         offset="0"
         id="stop15960" />
      <stop
         style="stop-color:#fbfcfc;stop-opacity:1"
         offset="1"
         id="stop15962" />
    </linearGradient>
    <linearGradient
       inkscape:collect="always"
       id="linearGradient14979">
      <stop
         style="stop-color:#e40102;stop-opacity:1"
         offset="0"
         id="stop14981" />
      <stop
         style="stop-color:#bb7874;stop-opacity:1"
         offset="1"
         id="stop14983" />
    </linearGradient>
    <linearGradient
       inkscape:collect="always"
       id="linearGradient14002">
      <stop
         style="stop-color:#7c1f16;stop-opacity:1;"
         offset="0"
         id="stop14004" />
      <stop
         style="stop-color:#7c1f16;stop-opacity:0;"
         offset="1"
         id="stop14006" />
    </linearGradient>
    <linearGradient
       inkscape:collect="always"
       id="linearGradient6195">
      <stop
         style="stop-color:#aa090a;stop-opacity:1"
         offset="0"
         id="stop6197" />
      <stop
         style="stop-color:#e50102;stop-opacity:1"
         offset="1"
         id="stop6199" />
    </linearGradient>
    <linearGradient
       inkscape:collect="always"
       id="linearGradient3216">
      <stop
         style="stop-color:#fffefe;stop-opacity:1"
         offset="0"
         id="stop3218" />
      <stop
         style="stop-color:#d5d7da;stop-opacity:1"
         offset="1"
         id="stop3220" />
    </linearGradient>
    <linearGradient
       id="linearGradient3196">
      <stop
         style="stop-color:#be9e70;stop-opacity:1"
         offset="0"
         id="stop3198" />
      <stop
         style="stop-color:#694c30;stop-opacity:1"
         offset="1"
         id="stop3200" />
    </linearGradient>
    <linearGradient
       inkscape:collect="always"
       xlink:href="#linearGradient3196"
       id="linearGradient3206"
       x1="-33.818184"
       y1="36.486488"
       x2="14.181816"
       y2="50.550369"
       gradientUnits="userSpaceOnUse"
       gradientTransform="translate(178.81818,49.445733)" />
    <radialGradient
       inkscape:collect="always"
       xlink:href="#linearGradient3216"
       id="radialGradient6215"
       gradientUnits="userSpaceOnUse"
       gradientTransform="matrix(0,0.9899358,-1.0116245,0,314.52567,-102.33)"
       cx="196.92123"
       cy="132.30916"
       fx="196.92123"
       fy="132.30916"
       r="21.000002" />
    <linearGradient
       inkscape:collect="always"
       xlink:href="#linearGradient6195"
       id="linearGradient6217"
       gradientUnits="userSpaceOnUse"
       gradientTransform="translate(0,0.1506857)"
       x1="197.61508"
       y1="81.095757"
       x2="196.69408"
       y2="88.711494" />
    <linearGradient
       inkscape:collect="always"
       xlink:href="#linearGradient14002"
       id="linearGradient14008"
       x1="195.92659"
       y1="72.995918"
       x2="195.92659"
       y2="103.62462"
       gradientUnits="userSpaceOnUse" />
    <linearGradient
       inkscape:collect="always"
       xlink:href="#linearGradient14979"
       id="linearGradient14985"
       x1="195.92659"
       y1="88.995918"
       x2="196.20729"
       y2="70.697823"
       gradientUnits="userSpaceOnUse" />
    <linearGradient
       inkscape:collect="always"
       xlink:href="#linearGradient15958"
       id="linearGradient16980"
       gradientUnits="userSpaceOnUse"
       gradientTransform="matrix(1.0780436,0,0,1.0745545,-55.113259,33.894052)"
       x1="221.62442"
       y1="35.012306"
       x2="219.2321"
       y2="35.012306" />
    <linearGradient
       inkscape:collect="always"
       xlink:href="#linearGradient15966"
       id="linearGradient16982"
       gradientUnits="userSpaceOnUse"
       gradientTransform="translate(-68.059027,38.977701)"
       x1="250.11383"
       y1="38.570667"
       x2="250.11383"
       y2="26.507296" />
    <linearGradient
       inkscape:collect="always"
       xlink:href="#linearGradient15958"
       id="linearGradient16984"
       gradientUnits="userSpaceOnUse"
       gradientTransform="matrix(1.0780436,0,0,1.0745545,-47.593963,33.894055)"
       x1="221.62442"
       y1="35.012306"
       x2="219.2321"
       y2="35.012306" />
    <linearGradient
       inkscape:collect="always"
       xlink:href="#linearGradient15966"
       id="linearGradient16986"
       gradientUnits="userSpaceOnUse"
       gradientTransform="translate(-60.539731,38.977704)"
       x1="250.11383"
       y1="38.570667"
       x2="250.11383"
       y2="26.507296" />
    <linearGradient
       inkscape:collect="always"
       xlink:href="#linearGradient15958"
       id="linearGradient16988"
       gradientUnits="userSpaceOnUse"
       gradientTransform="matrix(1.0780436,0,0,1.0745545,-40.07466,33.894058)"
       x1="221.62442"
       y1="35.012306"
       x2="219.2321"
       y2="35.012306" />
    <linearGradient
       inkscape:collect="always"
       xlink:href="#linearGradient15966"
       id="linearGradient16990"
       gradientUnits="userSpaceOnUse"
       gradientTransform="translate(-53.020428,38.977707)"
       x1="250.11383"
       y1="38.570667"
       x2="250.11383"
       y2="26.507296" />
    <linearGradient
       inkscape:collect="always"
       xlink:href="#linearGradient15958"
       id="linearGradient16992"
       gradientUnits="userSpaceOnUse"
       gradientTransform="matrix(1.0780436,0,0,1.0745545,-32.555339,33.894058)"
       x1="221.62442"
       y1="35.012306"
       x2="219.2321"
       y2="35.012306" />
    <linearGradient
       inkscape:collect="always"
       xlink:href="#linearGradient15966"
       id="linearGradient16994"
       gradientUnits="userSpaceOnUse"
       gradientTransform="translate(-45.501107,38.977707)"
       x1="250.11383"
       y1="38.570667"
       x2="250.11383"
       y2="26.507296" />
    <linearGradient
       inkscape:collect="always"
       xlink:href="#linearGradient15958"
       id="linearGradient16996"
       gradientUnits="userSpaceOnUse"
       gradientTransform="matrix(1.0780436,0,0,1.0745545,-25.03604,33.894055)"
       x1="221.62442"
       y1="35.012306"
       x2="219.2321"
       y2="35.012306" />
    <linearGradient
       inkscape:collect="always"
       xlink:href="#linearGradient15966"
       id="linearGradient16998"
       gradientUnits="userSpaceOnUse"
       gradientTransform="translate(-37.981808,38.977704)"
       x1="250.11383"
       y1="38.570667"
       x2="250.11383"
       y2="26.507296" />
    <linearGradient
       inkscape:collect="always"
       xlink:href="#linearGradient18230"
       id="linearGradient18236"
       x1="281.202"
       y1="94.043068"
       x2="279.5672"
       y2="92.45208"
       gradientUnits="userSpaceOnUse"
       gradientTransform="translate(-34.404775,9.157747)" />
    <linearGradient
       inkscape:collect="always"
       xlink:href="#linearGradient18230"
       id="linearGradient20190"
       x1="213.29681"
       y1="113.86611"
       x2="223.51112"
       y2="122.70285"
       gradientUnits="userSpaceOnUse"
       gradientTransform="translate(29.5,-14)" />
    <radialGradient
       inkscape:collect="always"
       xlink:href="#linearGradient3216"
       id="radialGradient3378"
       gradientUnits="userSpaceOnUse"
       gradientTransform="matrix(0,0.9899358,-1.0116245,0,314.52567,-102.33)"
       cx="196.92123"
       cy="132.30916"
       fx="196.92123"
       fy="132.30916"
       r="21.000002" />
    <linearGradient
       inkscape:collect="always"
       xlink:href="#linearGradient14979"
       id="linearGradient3380"
       gradientUnits="userSpaceOnUse"
       x1="195.92659"
       y1="88.995918"
       x2="196.20729"
       y2="70.697823" />
    <linearGradient
       inkscape:collect="always"
       xlink:href="#linearGradient14002"
       id="linearGradient3382"
       gradientUnits="userSpaceOnUse"
       x1="195.92659"
       y1="72.995918"
       x2="195.92659"
       y2="103.62462" />
    <linearGradient
       inkscape:collect="always"
       xlink:href="#linearGradient6195"
       id="linearGradient3384"
       gradientUnits="userSpaceOnUse"
       gradientTransform="translate(0,0.1506857)"
       x1="197.61508"
       y1="81.095757"
       x2="196.69408"
       y2="88.711494" />
    <radialGradient
       inkscape:collect="always"
       xlink:href="#linearGradient3216"
       id="radialGradient3390"
       gradientUnits="userSpaceOnUse"
       gradientTransform="matrix(0,0.9887754,-1.0116245,0,343.8108,-116.13901)"
       cx="196.92123"
       cy="132.30916"
       fx="196.92123"
       fy="132.30916"
       r="21.000002" />
    <linearGradient
       inkscape:collect="always"
       xlink:href="#linearGradient3196"
       id="linearGradient3471"
       gradientUnits="userSpaceOnUse"
       gradientTransform="translate(178.81818,49.445733)"
       x1="-33.818184"
       y1="36.486488"
       x2="14.181816"
       y2="50.550369" />
    <linearGradient
       inkscape:collect="always"
       xlink:href="#linearGradient14979"
       id="linearGradient3473"
       gradientUnits="userSpaceOnUse"
       x1="195.92659"
       y1="88.995918"
       x2="196.20729"
       y2="70.697823" />
    <linearGradient
       inkscape:collect="always"
       xlink:href="#linearGradient14002"
       id="linearGradient3475"
       gradientUnits="userSpaceOnUse"
       x1="195.92659"
       y1="72.995918"
       x2="195.92659"
       y2="103.62462" />
    <linearGradient
       inkscape:collect="always"
       xlink:href="#linearGradient6195"
       id="linearGradient3477"
       gradientUnits="userSpaceOnUse"
       gradientTransform="translate(0,0.1506857)"
       x1="197.61508"
       y1="81.095757"
       x2="196.69408"
       y2="88.711494" />
    <radialGradient
       inkscape:collect="always"
       xlink:href="#linearGradient3216"
       id="radialGradient3479"
       gradientUnits="userSpaceOnUse"
       gradientTransform="matrix(0,0.9887754,-1.0116245,0,343.8108,-116.13901)"
       cx="196.92123"
       cy="132.30916"
       fx="196.92123"
       fy="132.30916"
       r="21.000002" />
    <linearGradient
       inkscape:collect="always"
       xlink:href="#linearGradient18230"
       id="linearGradient3481"
       gradientUnits="userSpaceOnUse"
       gradientTransform="translate(-34.404775,9.157747)"
       x1="281.202"
       y1="94.043068"
       x2="279.5672"
       y2="92.45208" />
    <linearGradient
       inkscape:collect="always"
       xlink:href="#linearGradient18230"
       id="linearGradient3483"
       gradientUnits="userSpaceOnUse"
       gradientTransform="translate(29.5,-14)"
       x1="213.29681"
       y1="113.86611"
       x2="223.51112"
       y2="122.70285" />
    <linearGradient
       inkscape:collect="always"
       xlink:href="#linearGradient15958"
       id="linearGradient3485"
       gradientUnits="userSpaceOnUse"
       gradientTransform="matrix(1.0780436,0,0,1.0745545,-55.113259,33.894052)"
       x1="221.62442"
       y1="35.012306"
       x2="219.2321"
       y2="35.012306" />
    <linearGradient
       inkscape:collect="always"
       xlink:href="#linearGradient15966"
       id="linearGradient3487"
       gradientUnits="userSpaceOnUse"
       gradientTransform="translate(-68.059027,38.977701)"
       x1="250.11383"
       y1="38.570667"
       x2="250.11383"
       y2="26.507296" />
    <linearGradient
       inkscape:collect="always"
       xlink:href="#linearGradient15958"
       id="linearGradient3489"
       gradientUnits="userSpaceOnUse"
       gradientTransform="matrix(1.0780436,0,0,1.0745545,-47.593963,33.894055)"
       x1="221.62442"
       y1="35.012306"
       x2="219.2321"
       y2="35.012306" />
    <linearGradient
       inkscape:collect="always"
       xlink:href="#linearGradient15966"
       id="linearGradient3491"
       gradientUnits="userSpaceOnUse"
       gradientTransform="translate(-60.539731,38.977704)"
       x1="250.11383"
       y1="38.570667"
       x2="250.11383"
       y2="26.507296" />
    <linearGradient
       inkscape:collect="always"
       xlink:href="#linearGradient15958"
       id="linearGradient3493"
       gradientUnits="userSpaceOnUse"
       gradientTransform="matrix(1.0780436,0,0,1.0745545,-40.07466,33.894058)"
       x1="221.62442"
       y1="35.012306"
       x2="219.2321"
       y2="35.012306" />
    <linearGradient
       inkscape:collect="always"
       xlink:href="#linearGradient15966"
       id="linearGradient3495"
       gradientUnits="userSpaceOnUse"
       gradientTransform="translate(-53.020428,38.977707)"
       x1="250.11383"
       y1="38.570667"
       x2="250.11383"
       y2="26.507296" />
    <linearGradient
       inkscape:collect="always"
       xlink:href="#linearGradient15958"
       id="linearGradient3497"
       gradientUnits="userSpaceOnUse"
       gradientTransform="matrix(1.0780436,0,0,1.0745545,-32.555339,33.894058)"
       x1="221.62442"
       y1="35.012306"
       x2="219.2321"
       y2="35.012306" />
    <linearGradient
       inkscape:collect="always"
       xlink:href="#linearGradient15966"
       id="linearGradient3499"
       gradientUnits="userSpaceOnUse"
       gradientTransform="translate(-45.501107,38.977707)"
       x1="250.11383"
       y1="38.570667"
       x2="250.11383"
       y2="26.507296" />
    <linearGradient
       inkscape:collect="always"
       xlink:href="#linearGradient15958"
       id="linearGradient3501"
       gradientUnits="userSpaceOnUse"
       gradientTransform="matrix(1.0780436,0,0,1.0745545,-25.03604,33.894055)"
       x1="221.62442"
       y1="35.012306"
       x2="219.2321"
       y2="35.012306" />
    <linearGradient
       inkscape:collect="always"
       xlink:href="#linearGradient15966"
       id="linearGradient3503"
       gradientUnits="userSpaceOnUse"
       gradientTransform="translate(-37.981808,38.977704)"
       x1="250.11383"
       y1="38.570667"
       x2="250.11383"
       y2="26.507296" />
    <radialGradient
       gradientUnits="userSpaceOnUse"
       gradientTransform="matrix(1,0,0,0.595238,0,14.875)"
       r="15.75"
       fy="36.75"
       fx="25.125"
       cy="36.75"
       cx="25.125"
       id="radialGradient21650"
       xlink:href="#linearGradient21644"
       inkscape:collect="always" />
    <linearGradient
       id="linearGradient2795">
      <stop
         style="stop-color:#000000;stop-opacity:0.068627454;"
         offset="0.0000000"
         id="stop2797" />
      <stop
         style="stop-color:#ffffff;stop-opacity:1.0000000;"
         offset="1.0000000"
         id="stop2799" />
    </linearGradient>
    <linearGradient
       id="linearGradient2803">
      <stop
         style="stop-color:#ffffff;stop-opacity:1;"
         offset="0"
         id="stop2805" />
      <stop
         style="stop-color:#cbcbcb;stop-opacity:1.0000000;"
         offset="1.0000000"
         id="stop2807" />
    </linearGradient>
    <linearGradient
       id="linearGradient2094">
      <stop
         id="stop2096"
         offset="0.0000000"
         style="stop-color:#d6e3f0;stop-opacity:1.0000000;" />
      <stop
         id="stop2098"
         offset="1.0000000"
         style="stop-color:#95b1cf;stop-opacity:1.0000000;" />
    </linearGradient>
    <linearGradient
       id="linearGradient21644"
       inkscape:collect="always">
      <stop
         id="stop21646"
         offset="0"
         style="stop-color:#000000;stop-opacity:1;" />
      <stop
         id="stop21648"
         offset="1"
         style="stop-color:#000000;stop-opacity:0;" />
    </linearGradient>
    <radialGradient
       r="14.375"
       fy="125"
       fx="55"
       cy="125"
       cx="55"
       gradientUnits="userSpaceOnUse"
       id="radialGradient278"
       xlink:href="#linearGradient12512"
       inkscape:collect="always" />
    <linearGradient
       id="linearGradient12512">
      <stop
         id="stop12513"
         offset="0.0000000"
         style="stop-color:#ffffff;stop-opacity:1.0000000;" />
      <stop
         id="stop12517"
         offset="0.50000000"
         style="stop-color:#fff520;stop-opacity:0.89108908;" />
      <stop
         id="stop12514"
         offset="1.0000000"
         style="stop-color:#fff300;stop-opacity:0.0000000;" />
    </linearGradient>
    <linearGradient
       id="linearGradient5048">
      <stop
         id="stop5050"
         offset="0"
         style="stop-color:black;stop-opacity:0;" />
      <stop
         style="stop-color:black;stop-opacity:1;"
         offset="0.5"
         id="stop5056" />
      <stop
         id="stop5052"
         offset="1"
         style="stop-color:black;stop-opacity:0;" />
    </linearGradient>
    <inkscape:perspective
       id="perspective58"
       inkscape:persp3d-origin="24 : 16 : 1"
       inkscape:vp_z="48 : 24 : 1"
       inkscape:vp_y="0 : 1000 : 0"
       inkscape:vp_x="0 : 24 : 1"
       sodipodi:type="inkscape:persp3d" />
    <inkscape:perspective
       id="perspective4250"
       inkscape:persp3d-origin="167.91826 : 170.27952 : 1"
       inkscape:vp_z="335.83652 : 255.41928 : 1"
       inkscape:vp_y="0 : 1000 : 0"
       inkscape:vp_x="0 : 255.41928 : 1"
       sodipodi:type="inkscape:persp3d" />
    <inkscape:perspective
       id="perspective35"
       inkscape:persp3d-origin="150 : 100 : 1"
       inkscape:vp_z="300 : 150 : 1"
       inkscape:vp_y="0 : 1000 : 0"
       inkscape:vp_x="0 : 150 : 1"
       sodipodi:type="inkscape:persp3d" />
  </defs>
  <sodipodi:namedview
     inkscape:window-height="718"
     inkscape:window-width="1366"
     inkscape:pageshadow="2"
     inkscape:pageopacity="0.0"
     guidetolerance="10.0"
     gridtolerance="10.0"
     objecttolerance="10.0"
     borderopacity="1.0"
     bordercolor="#666666"
     pagecolor="#ffffff"
     id="base"
     width="120px"
     height="100px"
     inkscape:zoom="0.44123463"
     inkscape:cx="918.12679"
     inkscape:cy="459.62813"
     inkscape:window-x="-8"
     inkscape:window-y="-8"
     inkscape:current-layer="g3439"
     showgrid="false" />
  <g
     inkscape:groupmode="layer"
     id="layer1"
     inkscape:label="dessin"
     transform="translate(-189.45636,-30.066594)">
    <g
       id="g3439"
       transform="matrix(1.8246513,0,0,1.8246513,-180.71976,-66.388114)">
      <g
         id="g4521"
         transform="matrix(1.336618,0,0,1.6074811,-8310.4497,33.295386)">
        <g
           transform="matrix(1.2750026,0,0,1.5520394,-2300.8343,-569.78802)"
           id="g4517">
          <path
             style="font-size:41.10933304px;font-style:normal;font-variant:normal;font-weight:normal;font-stretch:normal;text-align:start;line-height:100%;writing-mode:lr-tb;text-anchor:start;fill:#000000;fill-opacity:1;stroke:none;stroke-width:1px;stroke-linecap:butt;stroke-linejoin:miter;stroke-opacity:1;font-family:Arial"
             d="M 6801.3427,547.63746 C 6801.3427,544.15817 6801.7007,541.358 6802.4166,539.23694 C 6803.1325,537.11593 6804.1964,535.47999 6805.6082,534.32911 C 6807.02,533.1783 6808.7964,532.60287 6810.9375,532.60284 C 6812.5166,532.60287 6813.9016,532.92069 6815.0926,533.55631 C 6816.2836,534.19198 6817.2672,535.10864 6818.0434,536.3063 C 6818.8195,537.50401 6819.4284,538.96264 6819.87,540.68219 C 6820.3116,542.40179 6820.5324,544.72021 6820.5324,547.63746 C 6820.5324,551.09001 6820.1778,553.8768 6819.4685,555.99783 C 6818.7593,558.11887 6817.6988,559.75816 6816.287,560.91569 C 6814.8752,562.07323 6813.092,562.652 6810.9375,562.652 C 6808.1006,562.652 6805.8725,561.63497 6804.2533,559.60092 C 6802.3129,557.15203 6801.3427,553.16421 6801.3427,547.63746 L 6801.3427,547.63746 z M 6805.0562,547.63746 C 6805.0562,552.46835 6805.6216,555.68336 6806.7523,557.28249 C 6807.8831,558.88164 6809.2782,559.68121 6810.9375,559.68121 C 6812.5969,559.68121 6813.992,558.8783 6815.1228,557.27246 C 6816.2535,555.66663 6816.8189,552.45497 6816.8189,547.63746 C 6816.8189,542.79321 6816.2535,539.57486 6815.1228,537.98239 C 6813.992,536.38996 6812.5835,535.59374 6810.8974,535.59371 C 6809.238,535.59374 6807.9132,536.29629 6806.923,537.70136 C 6805.6784,539.49457 6805.0562,542.8066 6805.0562,547.63746 L 6805.0562,547.63746 z"
             id="text8192" />
          <path
             style="font-size:41.10933304px;font-style:normal;font-variant:normal;font-weight:normal;font-stretch:normal;text-align:start;line-height:100%;writing-mode:lr-tb;text-anchor:start;fill:#000000;fill-opacity:1;stroke:none;stroke-width:1px;stroke-linecap:butt;stroke-linejoin:miter;stroke-opacity:1;font-family:Arial"
             d="M 6849.5849,553.46732 L 6853.3787,553.14616 C 6853.6597,554.99287 6854.3121,556.38125 6855.3358,557.31129 C 6856.3595,558.24134 6857.594,558.70636 6859.0393,558.70635 C 6860.7789,558.70636 6862.2509,558.05064 6863.4553,556.73921 C 6864.6597,555.42778 6865.2619,553.68813 6865.2619,551.52025 C 6865.2619,549.45944 6864.6831,547.83354 6863.5256,546.64253 C 6862.368,545.45155 6860.8525,544.85606 6858.979,544.85604 C 6857.8148,544.85606 6856.7643,545.12035 6855.8276,545.64892 C 6854.8909,546.17752 6854.1549,546.86335 6853.6196,547.7064 L 6850.2273,547.26479 L 6853.0776,532.14989 L 6867.7108,532.14989 L 6867.7108,535.60243 L 6855.9681,535.60243 L 6854.3824,543.51116 C 6856.1488,542.28004 6858.0022,541.66447 6859.9425,541.66445 C 6862.5119,541.66447 6864.6797,542.55437 6866.4462,544.33415 C 6868.2126,546.11396 6869.0958,548.40227 6869.0958,551.19908 C 6869.0958,553.8621 6868.3196,556.16379 6866.7673,558.10417 C 6864.8805,560.48615 6862.3044,561.67715 6859.0393,561.67715 C 6856.3629,561.67715 6854.1783,560.92776 6852.4855,559.42898 C 6850.7926,557.93021 6849.8258,555.94299 6849.5849,553.46732 L 6849.5849,553.46732 z M 6883.8895,553.4071 L 6887.5027,552.92536 C 6887.9175,554.9728 6888.6234,556.44816 6889.6204,557.35143 C 6890.6173,558.25472 6891.8317,558.70636 6893.2636,558.70635 C 6894.9631,558.70636 6896.3983,558.11755 6897.5692,556.93994 C 6898.7401,555.76233 6899.3256,554.3037 6899.3256,552.56404 C 6899.3256,550.90469 6898.7836,549.53639 6897.6997,548.45913 C 6896.6157,547.3819 6895.2374,546.84328 6893.5647,546.84326 C 6892.8822,546.84328 6892.0324,546.97709 6891.0154,547.24472 L 6891.4169,544.0732 C 6891.6578,544.09998 6891.8518,544.11336 6891.999,544.11334 C 6893.5379,544.11336 6894.9229,543.7119 6896.1541,542.90897 C 6897.3852,542.10607 6898.0008,540.86824 6898.0008,539.19548 C 6898.0008,537.87069 6897.5525,536.77337 6896.6559,535.90352 C 6895.7593,535.03372 6894.6018,534.59881 6893.1833,534.59878 C 6891.7782,534.59881 6890.6073,535.04041 6889.6705,535.92359 C 6888.7338,536.80683 6888.1316,538.13164 6887.864,539.89803 L 6884.2509,539.2557 C 6884.6924,536.83359 6885.6961,534.95678 6887.2618,533.62525 C 6888.8275,532.29377 6890.7745,531.62802 6893.103,531.62799 C 6894.7088,531.62802 6896.1875,531.9726 6897.5391,532.66175 C 6898.8907,533.35094 6899.9244,534.29102 6900.6404,535.48199 C 6901.3563,536.67301 6901.7143,537.9376 6901.7143,539.27577 C 6901.7143,540.54708 6901.373,541.70461 6900.6906,542.74839 C 6900.0081,543.7922 6898.9977,544.62188 6897.6596,545.23743 C 6899.3992,545.6389 6900.7508,546.47193 6901.7143,547.73651 C 6902.6778,549.00111 6903.1595,550.58353 6903.1595,552.48375 C 6903.1595,555.05309 6902.2228,557.231 6900.3493,559.01749 C 6898.4758,560.80398 6896.1072,561.69722 6893.2435,561.69722 C 6890.6608,561.69722 6888.5163,560.92776 6886.8102,559.38883 C 6885.1039,557.84991 6884.1304,555.85601 6883.8895,553.4071 L 6883.8895,553.4071 z M 6920.362,561.17532 L 6916.7489,561.17532 L 6916.7489,538.15169 C 6915.8791,538.98139 6914.7383,539.81107 6913.3265,540.64073 C 6911.9147,541.47043 6910.6467,542.09269 6909.5227,542.50751 L 6909.5227,539.01482 C 6911.5433,538.06473 6913.3097,536.91388 6914.8219,535.56228 C 6916.3341,534.21073 6917.4046,532.8993 6918.0336,531.62799 L 6920.362,531.62799 L 6920.362,561.17532 z M 6941.0371,546.66261 C 6941.0371,543.18332 6941.3951,540.38315 6942.111,538.26209 C 6942.827,536.14108 6943.8908,534.50514 6945.3026,533.35426 C 6946.7144,532.20344 6948.4909,531.62802 6950.632,531.62799 C 6952.211,531.62802 6953.5961,531.94584 6954.7871,532.58145 C 6955.9781,533.21712 6956.9616,534.13379 6957.7378,535.33144 C 6958.5139,536.52915 6959.1228,537.98778 6959.5644,539.70734 C 6960.006,541.42694 6960.2268,543.74536 6960.2268,546.66261 C 6960.2268,550.11516 6959.8722,552.90194 6959.163,555.02297 C 6958.4537,557.14402 6957.3932,558.7833 6955.9814,559.94084 C 6954.5696,561.09838 6952.7865,561.67715 6950.632,561.67715 C 6947.795,561.67715 6945.5669,560.66012 6943.9477,558.62606 C 6942.0073,556.17717 6941.0371,552.18936 6941.0371,546.66261 L 6941.0371,546.66261 z M 6944.7506,546.66261 C 6944.7506,551.4935 6945.316,554.70851 6946.4468,556.30764 C 6947.5775,557.90679 6948.9726,558.70636 6950.632,558.70635 C 6952.2913,558.70636 6953.6864,557.90344 6954.8172,556.2976 C 6955.9479,554.69178 6956.5133,551.48011 6956.5134,546.66261 C 6956.5133,541.81836 6955.9479,538.60001 6954.8172,537.00753 C 6953.6864,535.41511 6952.278,534.61888 6950.5918,534.61886 C 6948.9325,534.61888 6947.6077,535.32143 6946.6174,536.72651 C 6945.3729,538.51971 6944.7506,541.83174 6944.7506,546.66261 L 6944.7506,546.66261 z M 7000.3325,561.17532 L 6996.7194,561.17532 L 6996.7194,538.15169 C 6995.8496,538.98139 6994.7088,539.81107 6993.297,540.64073 C 6991.8852,541.47043 6990.6172,542.09269 6989.4932,542.50751 L 6989.4932,539.01482 C 6991.5138,538.06473 6993.2802,536.91388 6994.7924,535.56228 C 6996.3045,534.21073 6997.3751,532.8993 6998.0041,531.62799 L 7000.3325,531.62799 L 7000.3325,561.17532 z M 7039.9966,557.70271 L 7039.9966,561.17532 L 7020.546,561.17532 C 7020.5192,560.3055 7020.6597,559.46913 7020.9675,558.66621 C 7021.4626,557.3414 7022.2555,556.03666 7023.3461,554.75199 C 7024.4368,553.46733 7026.0125,551.98194 7028.0733,550.2958 C 7031.2716,547.67296 7033.4328,545.59541 7034.5569,544.06316 C 7035.6809,542.53095 7036.243,541.08235 7036.243,539.71738 C 7036.243,538.28553 7035.7311,537.07781 7034.7074,536.09421 C 7033.6837,535.11067 7032.3488,534.61888 7030.7029,534.61886 C 7028.9632,534.61888 7027.5715,535.14078 7026.5277,536.18454 C 7025.4839,537.22836 7024.9553,538.67361 7024.9419,540.52029 L 7021.2284,540.13891 C 7021.4827,537.36887 7022.4395,535.25787 7024.0989,533.8059 C 7025.7582,532.35399 7027.9863,531.62802 7030.7832,531.62799 C 7033.6067,531.62802 7035.8415,532.41086 7037.4875,533.97652 C 7039.1335,535.54223 7039.9564,537.48261 7039.9565,539.79767 C 7039.9564,540.9753 7039.7156,542.13284 7039.2338,543.27028 C 7038.7521,544.40776 7037.9525,545.60545 7036.8351,546.86333 C 7035.7177,548.12125 7033.861,549.84752 7031.2649,552.04215 C 7029.097,553.8621 7027.7053,555.09658 7027.0897,555.7456 C 7026.4742,556.39463 7025.9656,557.047 7025.5642,557.70271 L 7039.9966,557.70271 z M 7055.3122,553.4071 L 7058.9254,552.92536 C 7059.3402,554.9728 7060.0461,556.44816 7061.0431,557.35143 C 7062.04,558.25472 7063.2544,558.70636 7064.6863,558.70635 C 7066.3858,558.70636 7067.821,558.11755 7068.9919,556.93994 C 7070.1628,555.76233 7070.7483,554.3037 7070.7483,552.56404 C 7070.7483,550.90469 7070.2063,549.53639 7069.1224,548.45913 C 7068.0385,547.3819 7066.6601,546.84328 7064.9874,546.84326 C 7064.3049,546.84328 7063.4551,546.97709 7062.4381,547.24472 L 7062.8396,544.0732 C 7063.0805,544.09998 7063.2745,544.11336 7063.4217,544.11334 C 7064.9606,544.11336 7066.3456,543.7119 7067.5768,542.90897 C 7068.8079,542.10607 7069.4235,540.86824 7069.4235,539.19548 C 7069.4235,537.87069 7068.9752,536.77337 7068.0786,535.90352 C 7067.182,535.03372 7066.0245,534.59881 7064.606,534.59878 C 7063.2009,534.59881 7062.03,535.04041 7061.0932,535.92359 C 7060.1565,536.80683 7059.5543,538.13164 7059.2867,539.89803 L 7055.6736,539.2557 C 7056.1152,536.83359 7057.1188,534.95678 7058.6845,533.62525 C 7060.2502,532.29377 7062.1972,531.62802 7064.5257,531.62799 C 7066.1315,531.62802 7067.6102,531.9726 7068.9618,532.66175 C 7070.3134,533.35094 7071.3471,534.29102 7072.0631,535.48199 C 7072.779,536.67301 7073.137,537.9376 7073.137,539.27577 C 7073.137,540.54708 7072.7957,541.70461 7072.1133,542.74839 C 7071.4308,543.7922 7070.4204,544.62188 7069.0823,545.23743 C 7070.8219,545.6389 7072.1735,546.47193 7073.137,547.73651 C 7074.1005,549.00111 7074.5822,550.58353 7074.5822,552.48375 C 7074.5822,555.05309 7073.6455,557.231 7071.772,559.01749 C 7069.8985,560.80398 7067.5299,561.69722 7064.6662,561.69722 C 7062.0835,561.69722 7059.939,560.92776 7058.2329,559.38883 C 7056.5266,557.84991 7055.5531,555.85601 7055.3122,553.4071 L 7055.3122,553.4071 z M 7091.7847,561.17532 L 7088.1716,561.17532 L 7088.1716,538.15169 C 7087.3018,538.98139 7086.161,539.81107 7084.7492,540.64073 C 7083.3374,541.47043 7082.0694,542.09269 7080.9454,542.50751 L 7080.9454,539.01482 C 7082.966,538.06473 7084.7324,536.91388 7086.2446,535.56228 C 7087.7568,534.21073 7088.8273,532.8993 7089.4563,531.62799 L 7091.7847,531.62799 L 7091.7847,561.17532 z M 7101.0584,546.66261 C 7101.0584,543.18332 7101.4164,540.38315 7102.1323,538.26209 C 7102.8483,536.14108 7103.9121,534.50514 7105.3239,533.35426 C 7106.7357,532.20344 7108.5122,531.62802 7110.6533,531.62799 C 7112.2324,531.62802 7113.6174,531.94584 7114.8084,532.58145 C 7115.9994,533.21712 7116.9829,534.13379 7117.7591,535.33144 C 7118.5352,536.52915 7119.1441,537.98778 7119.5857,539.70734 C 7120.0273,541.42694 7120.2481,543.74536 7120.2481,546.66261 C 7120.2481,550.11516 7119.8935,552.90194 7119.1843,555.02297 C 7118.475,557.14402 7117.4145,558.7833 7116.0027,559.94084 C 7114.5909,561.09838 7112.8078,561.67715 7110.6533,561.67715 C 7107.8163,561.67715 7105.5882,560.66012 7103.969,558.62606 C 7102.0286,556.17717 7101.0584,552.18936 7101.0584,546.66261 L 7101.0584,546.66261 z M 7104.7719,546.66261 C 7104.7719,551.4935 7105.3373,554.70851 7106.4681,556.30764 C 7107.5989,557.90679 7108.9939,558.70636 7110.6533,558.70635 C 7112.3126,558.70636 7113.7077,557.90344 7114.8385,556.2976 C 7115.9693,554.69178 7116.5346,551.48011 7116.5346,546.66261 C 7116.5346,541.81836 7115.9693,538.60001 7114.8385,537.00753 C 7113.7077,535.41511 7112.2993,534.61888 7110.6131,534.61886 C 7108.9538,534.61888 7107.629,535.32143 7106.6387,536.72651 C 7105.3942,538.51971 7104.7719,541.83174 7104.7719,546.66261 L 7104.7719,546.66261 z"
             id="text8196" />
        </g>
        <g
           transform="matrix(2.779608,0,0,2.779608,6079.9646,-178.03172)"
           id="g4448"
           inkscape:label="Layer 1">
          <rect
             ry="0"
             y="85.917534"
             x="106.61411"
             height="67.492714"
             width="2.2126935"
             id="rect2160"
             style="fill:#000000;fill-opacity:1;fill-rule:nonzero;stroke:#0e0101;stroke-width:0.20340976;stroke-linejoin:round;stroke-miterlimit:4;stroke-dasharray:none;stroke-dashoffset:0;stroke-opacity:1" />
          <rect
             style="fill:#000000;fill-opacity:1;fill-rule:nonzero;stroke:#0e0101;stroke-width:0.20340976;stroke-linejoin:round;stroke-miterlimit:4;stroke-dasharray:none;stroke-dashoffset:0;stroke-opacity:1"
             id="rect2162"
             width="2.2126935"
             height="67.492714"
             x="110.51099"
             y="85.917534"
             ry="0" />
          <rect
             ry="0"
             y="85.911385"
             x="118.29974"
             height="60.006912"
             width="2.2228489"
             id="rect2164"
             style="fill:#000000;fill-opacity:1;fill-rule:nonzero;stroke:#0e0101;stroke-width:0.19223759;stroke-linejoin:round;stroke-miterlimit:4;stroke-dasharray:none;stroke-dashoffset:0;stroke-opacity:1" />
          <rect
             style="fill:#000000;fill-opacity:1;fill-rule:nonzero;stroke:#0e0101;stroke-width:0.27110976;stroke-linejoin:round;stroke-miterlimit:4;stroke-dasharray:none;stroke-dashoffset:0;stroke-opacity:1"
             id="rect2166"
             width="4.4247365"
             height="59.956688"
             x="122.25858"
             y="85.936493"
             ry="0" />
          <rect
             ry="0"
             y="85.90049"
             x="129.96361"
             height="60.028709"
             width="1.5013397"
             id="rect2168"
             style="fill:#000000;fill-opacity:1;fill-rule:nonzero;stroke:#0e0101;stroke-width:0.15801622;stroke-linejoin:round;stroke-miterlimit:4;stroke-dasharray:none;stroke-dashoffset:0;stroke-opacity:1" />
          <rect
             style="fill:#000000;fill-opacity:1;fill-rule:nonzero;stroke:#0e0101;stroke-width:0.27110976;stroke-linejoin:round;stroke-miterlimit:4;stroke-dasharray:none;stroke-dashoffset:0;stroke-opacity:1"
             id="rect2170"
             width="4.4247365"
             height="59.956688"
             x="137.84622"
             y="85.936493"
             ry="0" />
          <rect
             ry="0"
             y="85.928986"
             x="145.62151"
             height="59.971718"
             width="3.6865706"
             id="rect2172"
             style="fill:#000000;fill-opacity:1;fill-rule:nonzero;stroke:#0e0101;stroke-width:0.24749546;stroke-linejoin:round;stroke-miterlimit:4;stroke-dasharray:none;stroke-dashoffset:0;stroke-opacity:1" />
          <rect
             style="fill:#000000;fill-opacity:1;fill-rule:nonzero;stroke:#0e0101;stroke-width:0.15801622;stroke-linejoin:round;stroke-miterlimit:4;stroke-dasharray:none;stroke-dashoffset:0;stroke-opacity:1"
             id="rect2174"
             width="1.5013396"
             height="60.028694"
             x="153.34506"
             y="85.90049"
             ry="0" />
          <rect
             ry="0"
             y="85.90049"
             x="157.24196"
             height="60.028694"
             width="1.5013396"
             id="rect2176"
             style="fill:#000000;fill-opacity:1;fill-rule:nonzero;stroke:#0e0101;stroke-width:0.15801622;stroke-linejoin:round;stroke-miterlimit:4;stroke-dasharray:none;stroke-dashoffset:0;stroke-opacity:1" />
          <rect
             style="fill:#000000;fill-opacity:1;fill-rule:nonzero;stroke:#0e0101;stroke-width:0.15801622;stroke-linejoin:round;stroke-miterlimit:4;stroke-dasharray:none;stroke-dashoffset:0;stroke-opacity:1"
             id="rect2178"
             width="1.5013396"
             height="60.028694"
             x="161.13887"
             y="85.90049"
             ry="0" />
          <rect
             ry="0"
             y="85.943443"
             x="169.03857"
             height="59.942799"
             width="5.1657667"
             id="rect2180"
             style="fill:#000000;fill-opacity:1;fill-rule:nonzero;stroke:#0e0101;stroke-width:0.29289949;stroke-linejoin:round;stroke-miterlimit:4;stroke-dasharray:none;stroke-dashoffset:0;stroke-opacity:1" />
          <rect
             style="fill:#000000;fill-opacity:1;fill-rule:nonzero;stroke:#0e0101;stroke-width:0.19223757;stroke-linejoin:round;stroke-miterlimit:4;stroke-dasharray:none;stroke-dashoffset:0;stroke-opacity:1"
             id="rect2182"
             width="2.2228484"
             height="60.006905"
             x="179.85435"
             y="85.911385"
             ry="0" />
          <rect
             ry="0"
             y="85.911385"
             x="183.75127"
             height="60.006905"
             width="2.2228484"
             id="rect2184"
             style="fill:#000000;fill-opacity:1;fill-rule:nonzero;stroke:#0e0101;stroke-width:0.19223757;stroke-linejoin:round;stroke-miterlimit:4;stroke-dasharray:none;stroke-dashoffset:0;stroke-opacity:1" />
          <rect
             style="fill:#000000;fill-opacity:1;fill-rule:nonzero;stroke:#0e0101;stroke-width:0.29289949;stroke-linejoin:round;stroke-miterlimit:4;stroke-dasharray:none;stroke-dashoffset:0;stroke-opacity:1"
             id="rect2186"
             width="5.1657667"
             height="59.942799"
             x="189.67567"
             y="85.943443"
             ry="0" />
          <rect
             ry="0"
             y="85.90049"
             x="203.18826"
             height="60.028694"
             width="1.5013396"
             id="rect2188"
             style="fill:#000000;fill-opacity:1;fill-rule:nonzero;stroke:#0e0101;stroke-width:0.1580162;stroke-linejoin:round;stroke-miterlimit:4;stroke-dasharray:none;stroke-dashoffset:0;stroke-opacity:1" />
          <rect
             style="fill:#000000;fill-opacity:1;fill-rule:nonzero;stroke:#0e0101;stroke-width:0.16744864;stroke-linejoin:round;stroke-miterlimit:4;stroke-dasharray:none;stroke-dashoffset:0;stroke-opacity:1"
             id="rect2190"
             width="1.4989549"
             height="67.516418"
             x="207.08948"
             y="85.905693"
             ry="0" />
          <rect
             ry="0"
             y="85.905693"
             x="210.98018"
             height="67.516418"
             width="1.4989549"
             id="rect2192"
             style="fill:#000000;fill-opacity:1;fill-rule:nonzero;stroke:#0e0101;stroke-width:0.16744864;stroke-linejoin:round;stroke-miterlimit:4;stroke-dasharray:none;stroke-dashoffset:0;stroke-opacity:1" />
          <rect
             style="fill:#000000;fill-opacity:1;fill-rule:nonzero;stroke:#0e0101;stroke-width:0.1580162;stroke-linejoin:round;stroke-miterlimit:4;stroke-dasharray:none;stroke-dashoffset:0;stroke-opacity:1"
             id="rect2194"
             width="1.5013396"
             height="60.028694"
             x="218.77591"
             y="85.90049"
             ry="0" />
          <rect
             ry="0"
             y="85.936493"
             x="222.7616"
             height="59.95668"
             width="4.4247365"
             id="rect2196"
             style="fill:#000000;fill-opacity:1;fill-rule:nonzero;stroke:#0e0101;stroke-width:0.27110976;stroke-linejoin:round;stroke-miterlimit:4;stroke-dasharray:none;stroke-dashoffset:0;stroke-opacity:1" />
          <rect
             style="fill:#000000;fill-opacity:1;fill-rule:nonzero;stroke:#0e0101;stroke-width:0.27110976;stroke-linejoin:round;stroke-miterlimit:4;stroke-dasharray:none;stroke-dashoffset:0;stroke-opacity:1"
             id="rect2198"
             width="4.4247365"
             height="59.95668"
             x="230.55542"
             y="85.936493"
             ry="0" />
          <rect
             ry="0"
             y="85.872337"
             x="237.49283"
             height="60.085014"
             width="1.4330857"
             id="rect2204"
             style="fill:#000000;fill-opacity:1;fill-rule:nonzero;stroke:#0e0101;stroke-width:0.15445498;stroke-linejoin:round;stroke-miterlimit:4;stroke-dasharray:none;stroke-dashoffset:0;stroke-opacity:1" />
          <rect
             style="fill:#000000;fill-opacity:1;fill-rule:nonzero;stroke:#0e0101;stroke-width:0.15445498;stroke-linejoin:round;stroke-miterlimit:4;stroke-dasharray:none;stroke-dashoffset:0;stroke-opacity:1"
             id="rect2206"
             width="1.4330857"
             height="60.085014"
             x="241.3856"
             y="85.872337"
             ry="0" />
          <rect
             ry="0"
             y="85.936493"
             x="245.33139"
             height="59.95668"
             width="4.4247365"
             id="rect2208"
             style="fill:#000000;fill-opacity:1;fill-rule:nonzero;stroke:#0e0101;stroke-width:0.27110976;stroke-linejoin:round;stroke-miterlimit:4;stroke-dasharray:none;stroke-dashoffset:0;stroke-opacity:1" />
        </g>
      </g>
    </g>
  </g>
</svg>
