<?xml version="1.0" encoding="UTF-8" standalone="no"?>
<!-- Created with Inkscape (http://www.inkscape.org/) -->
<svg
   xmlns:dc="http://purl.org/dc/elements/1.1/"
   xmlns:cc="http://creativecommons.org/ns#"
   xmlns:rdf="http://www.w3.org/1999/02/22-rdf-syntax-ns#"
   xmlns:svg="http://www.w3.org/2000/svg"
   xmlns="http://www.w3.org/2000/svg"
   xmlns:xlink="http://www.w3.org/1999/xlink"
   xmlns:sodipodi="http://sodipodi.sourceforge.net/DTD/sodipodi-0.dtd"
   xmlns:inkscape="http://www.inkscape.org/namespaces/inkscape"
   version="1.0"
   width="1000"
   height="1000"
   viewBox="0 0 417.255 73.534"
   id="Layer_1"
   xml:space="preserve"
   sodipodi:version="0.32"
   inkscape:version="0.46"
   sodipodi:docname="find.svg"
   inkscape:output_extension="org.inkscape.output.svg.inkscape"><metadata
   id="metadata104"><rdf:RDF><cc:Work
       rdf:about=""><dc:format>image/svg+xml</dc:format><dc:type
         rdf:resource="http://purl.org/dc/dcmitype/StillImage" /></cc:Work></rdf:RDF></metadata><sodipodi:namedview
   inkscape:window-height="718"
   inkscape:window-width="1366"
   inkscape:pageshadow="2"
   inkscape:pageopacity="0.0"
   guidetolerance="10.0"
   gridtolerance="10.0"
   objecttolerance="10.0"
   borderopacity="1.0"
   bordercolor="#666666"
   pagecolor="#ffffff"
   id="base"
   showgrid="false"
   inkscape:zoom="0.57002742"
   inkscape:cx="292.7187"
   inkscape:cy="763.69837"
   inkscape:window-x="-8"
   inkscape:window-y="-8"
   inkscape:current-layer="Layer_1" /><defs
   id="defs1118"><inkscape:perspective
     sodipodi:type="inkscape:persp3d"
     inkscape:vp_x="0 : 115.46326 : 1"
     inkscape:vp_y="0 : 1000 : 0"
     inkscape:vp_z="937.21753 : 115.46326 : 1"
     inkscape:persp3d-origin="468.60876 : 76.975505 : 1"
     id="perspective106" /><linearGradient
     id="linearGradient12072"><stop
       style="stop-color:#57a0d3;stop-opacity:1"
       offset="0"
       id="stop12074" /><stop
       style="stop-color:#314859;stop-opacity:1"
       offset="0.5"
       id="stop12094" /><stop
       style="stop-color:#57a0d3;stop-opacity:1"
       offset="1"
       id="stop12076" /></linearGradient><linearGradient
     id="linearGradient8494"><stop
       style="stop-color:white;stop-opacity:1"
       offset="0"
       id="stop8496" /><stop
       style="stop-color:black;stop-opacity:0"
       offset="1"
       id="stop8498" /></linearGradient><linearGradient
     id="linearGradient5757"><stop
       style="stop-color:black;stop-opacity:1"
       offset="0"
       id="stop5759" /><stop
       style="stop-color:#7f7f7f;stop-opacity:1"
       offset="0.5"
       id="stop5765" /><stop
       style="stop-color:#bfbfbf;stop-opacity:1"
       offset="0.75"
       id="stop5767" /><stop
       style="stop-color:#dfdfdf;stop-opacity:1"
       offset="0.875"
       id="stop5769" /><stop
       style="stop-color:white;stop-opacity:1"
       offset="1"
       id="stop5761" /></linearGradient><linearGradient
     id="linearGradient15336"><stop
       style="stop-color:black;stop-opacity:1"
       offset="0"
       id="stop15338" /><stop
       style="stop-color:black;stop-opacity:0"
       offset="1"
       id="stop15340" /></linearGradient><linearGradient
     id="linearGradient13552"><stop
       style="stop-color:black;stop-opacity:1"
       offset="0"
       id="stop13554" /><stop
       style="stop-color:black;stop-opacity:0"
       offset="1"
       id="stop13556" /></linearGradient><linearGradient
     id="linearGradient12647"><stop
       style="stop-color:white;stop-opacity:1"
       offset="0"
       id="stop12649" /><stop
       style="stop-color:#7f7f7f;stop-opacity:0.49803922"
       offset="0"
       id="stop12655" /><stop
       style="stop-color:black;stop-opacity:0"
       offset="1"
       id="stop12651" /></linearGradient><linearGradient
     id="linearGradient12627"><stop
       style="stop-color:black;stop-opacity:1"
       offset="0"
       id="stop12629" /><stop
       style="stop-color:black;stop-opacity:0"
       offset="1"
       id="stop12631" /></linearGradient><linearGradient
     id="linearGradient12619"><stop
       style="stop-color:black;stop-opacity:1"
       offset="0"
       id="stop12621" /><stop
       style="stop-color:black;stop-opacity:0"
       offset="1"
       id="stop12623" /></linearGradient><linearGradient
     id="linearGradient10822"><stop
       style="stop-color:black;stop-opacity:1"
       offset="0"
       id="stop10824" /><stop
       style="stop-color:black;stop-opacity:0"
       offset="1"
       id="stop10826" /></linearGradient><linearGradient
     id="linearGradient8151"><stop
       style="stop-color:white;stop-opacity:1"
       offset="0"
       id="stop8153" /><stop
       style="stop-color:#7c7c7c;stop-opacity:1"
       offset="0.25"
       id="stop14445" /><stop
       style="stop-color:black;stop-opacity:1"
       offset="0"
       id="stop13558" /><stop
       style="stop-color:#7b7b7b;stop-opacity:1"
       offset="0.75"
       id="stop14447" /><stop
       style="stop-color:white;stop-opacity:1"
       offset="1"
       id="stop8155" /></linearGradient><linearGradient
     x1="223.11391"
     y1="226.81233"
     x2="226.11391"
     y2="99.341087"
     id="linearGradient8157"
     xlink:href="#linearGradient8151"
     gradientUnits="userSpaceOnUse"
     gradientTransform="translate(1.729734,0.122267)" /><linearGradient
     x1="184.4566"
     y1="103.51332"
     x2="181.24934"
     y2="184.26167"
     id="linearGradient10828"
     xlink:href="#linearGradient10822"
     gradientUnits="userSpaceOnUse" /><linearGradient
     x1="-59.701759"
     y1="109.54325"
     x2="-63.504864"
     y2="167.51462"
     id="linearGradient12625"
     xlink:href="#linearGradient12619"
     gradientUnits="userSpaceOnUse" /><linearGradient
     x1="485.46817"
     y1="84.187439"
     x2="485.38632"
     y2="198.28061"
     id="linearGradient12633"
     xlink:href="#linearGradient12627"
     gradientUnits="userSpaceOnUse" /><linearGradient
     x1="-63.504864"
     y1="192.66827"
     x2="-62.904861"
     y2="173.66136"
     id="linearGradient12653"
     xlink:href="#linearGradient12647"
     gradientUnits="userSpaceOnUse" /><linearGradient
     x1="-206.17149"
     y1="171.48482"
     x2="650.89337"
     y2="171.48482"
     id="linearGradient13550"
     xlink:href="#linearGradient13552"
     gradientUnits="userSpaceOnUse" /><linearGradient
     x1="-597.69775"
     y1="-269.9155"
     x2="-98.421295"
     y2="-269.9155"
     id="linearGradient15346"
     xlink:href="#linearGradient15336"
     gradientUnits="userSpaceOnUse" /><linearGradient
     x1="223.11391"
     y1="226.81233"
     x2="226.11391"
     y2="99.341087"
     id="linearGradient18910"
     xlink:href="#linearGradient8151"
     gradientUnits="userSpaceOnUse"
     gradientTransform="translate(1.729734,0.122267)" /><linearGradient
     x1="-59.701759"
     y1="109.54325"
     x2="-63.504864"
     y2="167.51462"
     id="linearGradient18912"
     xlink:href="#linearGradient12619"
     gradientUnits="userSpaceOnUse" /><linearGradient
     x1="485.46817"
     y1="84.187439"
     x2="485.38632"
     y2="198.28061"
     id="linearGradient18914"
     xlink:href="#linearGradient12627"
     gradientUnits="userSpaceOnUse" /><linearGradient
     x1="184.4566"
     y1="103.51332"
     x2="181.24934"
     y2="184.26167"
     id="linearGradient18916"
     xlink:href="#linearGradient10822"
     gradientUnits="userSpaceOnUse" /><linearGradient
     x1="-63.504864"
     y1="192.66827"
     x2="-62.904861"
     y2="173.66136"
     id="linearGradient18918"
     xlink:href="#linearGradient12647"
     gradientUnits="userSpaceOnUse" /><linearGradient
     x1="-206.17149"
     y1="171.48482"
     x2="650.89337"
     y2="171.48482"
     id="linearGradient18920"
     xlink:href="#linearGradient13552"
     gradientUnits="userSpaceOnUse" /><linearGradient
     x1="-59.701759"
     y1="109.54325"
     x2="-63.504864"
     y2="167.51462"
     id="linearGradient2056"
     xlink:href="#linearGradient12619"
     gradientUnits="userSpaceOnUse"
     gradientTransform="matrix(0.45588,0,0,0.45588,105.6971,-38.37782)" /><linearGradient
     x1="-63.504864"
     y1="192.66827"
     x2="-62.904861"
     y2="173.66136"
     id="linearGradient2062"
     xlink:href="#linearGradient12647"
     gradientUnits="userSpaceOnUse"
     gradientTransform="matrix(0.45588,0,0,0.45588,105.6971,-38.37782)" /><linearGradient
     x1="-206.17149"
     y1="171.48482"
     x2="650.89337"
     y2="171.48482"
     id="linearGradient2067"
     xlink:href="#linearGradient13552"
     gradientUnits="userSpaceOnUse"
     gradientTransform="matrix(0.45588,0,0,0.45588,-38.99901,81.00502)" /><linearGradient
     x1="215.57515"
     y1="-13.882898"
     x2="212.9565"
     y2="63.035213"
     id="linearGradient5763"
     xlink:href="#linearGradient5757"
     gradientUnits="userSpaceOnUse" /><linearGradient
     x1="223.57939"
     y1="58.765129"
     x2="223.8159"
     y2="19.71501"
     id="linearGradient8509"
     xlink:href="#linearGradient8494"
     gradientUnits="userSpaceOnUse"
     gradientTransform="matrix(1,0,0,1.13181,0,-8.002461)" /><linearGradient
     x1="223.57939"
     y1="58.765129"
     x2="223.8159"
     y2="19.71501"
     id="linearGradient8512"
     xlink:href="#linearGradient8494"
     gradientUnits="userSpaceOnUse"
     gradientTransform="matrix(1,0,0,1.258886,0,-14.02792)" /><linearGradient
     x1="223.57939"
     y1="58.765129"
     x2="223.8159"
     y2="19.71501"
     id="linearGradient8515"
     xlink:href="#linearGradient8494"
     gradientUnits="userSpaceOnUse"
     gradientTransform="matrix(1,0,0,1.123752,0,-8.167916)" /><linearGradient
     inkscape:collect="always"
     xlink:href="#linearGradient5757"
     id="linearGradient2557"
     gradientUnits="userSpaceOnUse"
     x1="215.57515"
     y1="-13.882898"
     x2="212.9565"
     y2="63.035213" /><linearGradient
     inkscape:collect="always"
     xlink:href="#linearGradient5757"
     id="linearGradient2559"
     gradientUnits="userSpaceOnUse"
     x1="215.57515"
     y1="-13.882898"
     x2="212.9565"
     y2="63.035213" /><linearGradient
     inkscape:collect="always"
     xlink:href="#linearGradient5757"
     id="linearGradient2561"
     gradientUnits="userSpaceOnUse"
     x1="215.57515"
     y1="-13.882898"
     x2="212.9565"
     y2="63.035213" /><linearGradient
     inkscape:collect="always"
     xlink:href="#linearGradient5757"
     id="linearGradient2563"
     gradientUnits="userSpaceOnUse"
     x1="215.57515"
     y1="-13.882898"
     x2="212.9565"
     y2="63.035213" /><linearGradient
     inkscape:collect="always"
     xlink:href="#linearGradient8494"
     id="linearGradient2565"
     gradientUnits="userSpaceOnUse"
     gradientTransform="matrix(1,0,0,1.123752,0,-8.167916)"
     x1="223.57939"
     y1="58.765129"
     x2="223.8159"
     y2="19.71501" /><linearGradient
     inkscape:collect="always"
     xlink:href="#linearGradient8494"
     id="linearGradient2567"
     gradientUnits="userSpaceOnUse"
     gradientTransform="matrix(1,0,0,1.258886,0,-14.02792)"
     x1="223.57939"
     y1="58.765129"
     x2="223.8159"
     y2="19.71501" /><linearGradient
     inkscape:collect="always"
     xlink:href="#linearGradient8494"
     id="linearGradient2569"
     gradientUnits="userSpaceOnUse"
     gradientTransform="matrix(1,0,0,1.13181,0,-8.002461)"
     x1="223.57939"
     y1="58.765129"
     x2="223.8159"
     y2="19.71501" /><linearGradient
     inkscape:collect="always"
     xlink:href="#linearGradient5757"
     id="linearGradient2611"
     gradientUnits="userSpaceOnUse"
     x1="215.57515"
     y1="-13.882898"
     x2="212.9565"
     y2="63.035213" /><linearGradient
     inkscape:collect="always"
     xlink:href="#linearGradient5757"
     id="linearGradient2653"
     gradientUnits="userSpaceOnUse"
     x1="215.57515"
     y1="-13.882898"
     x2="212.9565"
     y2="63.035213" /><linearGradient
     inkscape:collect="always"
     xlink:href="#linearGradient5757"
     id="linearGradient2655"
     gradientUnits="userSpaceOnUse"
     x1="215.57515"
     y1="-13.882898"
     x2="212.9565"
     y2="63.035213" /><linearGradient
     inkscape:collect="always"
     xlink:href="#linearGradient5757"
     id="linearGradient2657"
     gradientUnits="userSpaceOnUse"
     x1="215.57515"
     y1="-13.882898"
     x2="212.9565"
     y2="63.035213" /><linearGradient
     inkscape:collect="always"
     xlink:href="#linearGradient5757"
     id="linearGradient2659"
     gradientUnits="userSpaceOnUse"
     x1="215.57515"
     y1="-13.882898"
     x2="212.9565"
     y2="63.035213" /><linearGradient
     inkscape:collect="always"
     xlink:href="#linearGradient8494"
     id="linearGradient2661"
     gradientUnits="userSpaceOnUse"
     gradientTransform="matrix(1,0,0,1.123752,0,-8.167916)"
     x1="223.57939"
     y1="58.765129"
     x2="223.8159"
     y2="19.71501" /><linearGradient
     inkscape:collect="always"
     xlink:href="#linearGradient8494"
     id="linearGradient2663"
     gradientUnits="userSpaceOnUse"
     gradientTransform="matrix(1,0,0,1.258886,0,-14.02792)"
     x1="223.57939"
     y1="58.765129"
     x2="223.8159"
     y2="19.71501" /><linearGradient
     inkscape:collect="always"
     xlink:href="#linearGradient8494"
     id="linearGradient2665"
     gradientUnits="userSpaceOnUse"
     gradientTransform="matrix(1,0,0,1.13181,0,-8.002461)"
     x1="223.57939"
     y1="58.765129"
     x2="223.8159"
     y2="19.71501" /><linearGradient
     inkscape:collect="always"
     xlink:href="#linearGradient8494"
     id="linearGradient2675"
     gradientUnits="userSpaceOnUse"
     gradientTransform="matrix(-1.1241226e-2,0.4716623,1.13181,0,137.26809,-166.57294)"
     x1="223.57939"
     y1="58.765129"
     x2="223.8159"
     y2="19.71501" /><linearGradient
     inkscape:collect="always"
     xlink:href="#linearGradient8494"
     id="linearGradient2678"
     gradientUnits="userSpaceOnUse"
     gradientTransform="matrix(-1.1241226e-2,0.4716623,1.258886,0,131.24263,-166.57294)"
     x1="223.57939"
     y1="58.765129"
     x2="223.8159"
     y2="19.71501" /><linearGradient
     inkscape:collect="always"
     xlink:href="#linearGradient8494"
     id="linearGradient2682"
     gradientUnits="userSpaceOnUse"
     gradientTransform="matrix(-1.1241226e-2,0.4716623,1.123752,0,137.10263,-166.57294)"
     x1="223.57939"
     y1="58.765129"
     x2="223.8159"
     y2="19.71501" /><linearGradient
     inkscape:collect="always"
     xlink:href="#linearGradient5757"
     id="linearGradient2720"
     gradientUnits="userSpaceOnUse"
     x1="215.57515"
     y1="-13.882898"
     x2="212.9565"
     y2="63.035213" /><linearGradient
     inkscape:collect="always"
     xlink:href="#linearGradient5757"
     id="linearGradient2788"
     gradientUnits="userSpaceOnUse"
     x1="215.57515"
     y1="-13.882898"
     x2="212.9565"
     y2="63.035213" /><linearGradient
     inkscape:collect="always"
     xlink:href="#linearGradient5757"
     id="linearGradient2790"
     gradientUnits="userSpaceOnUse"
     x1="215.57515"
     y1="-13.882898"
     x2="212.9565"
     y2="63.035213" /><linearGradient
     inkscape:collect="always"
     xlink:href="#linearGradient5757"
     id="linearGradient2792"
     gradientUnits="userSpaceOnUse"
     x1="215.57515"
     y1="-13.882898"
     x2="212.9565"
     y2="63.035213" /><linearGradient
     inkscape:collect="always"
     xlink:href="#linearGradient5757"
     id="linearGradient2794"
     gradientUnits="userSpaceOnUse"
     x1="215.57515"
     y1="-13.882898"
     x2="212.9565"
     y2="63.035213" /><linearGradient
     inkscape:collect="always"
     xlink:href="#linearGradient8494"
     id="linearGradient2796"
     gradientUnits="userSpaceOnUse"
     gradientTransform="matrix(-1.1241226e-2,0.4716623,1.123752,0,137.10263,-166.57294)"
     x1="223.57939"
     y1="58.765129"
     x2="223.8159"
     y2="19.71501" /><linearGradient
     inkscape:collect="always"
     xlink:href="#linearGradient8494"
     id="linearGradient2798"
     gradientUnits="userSpaceOnUse"
     gradientTransform="matrix(-1.1241226e-2,0.4716623,1.258886,0,131.24263,-166.57294)"
     x1="223.57939"
     y1="58.765129"
     x2="223.8159"
     y2="19.71501" /><linearGradient
     inkscape:collect="always"
     xlink:href="#linearGradient8494"
     id="linearGradient2800"
     gradientUnits="userSpaceOnUse"
     gradientTransform="matrix(-1.1241226e-2,0.4716623,1.13181,0,137.26809,-166.57294)"
     x1="223.57939"
     y1="58.765129"
     x2="223.8159"
     y2="19.71501" /><linearGradient
     inkscape:collect="always"
     xlink:href="#linearGradient8494"
     id="linearGradient2810"
     gradientUnits="userSpaceOnUse"
     gradientTransform="matrix(-1.1241226e-2,0.4716623,1.13181,0,240.00066,-108.37685)"
     x1="223.57939"
     y1="58.765129"
     x2="223.8159"
     y2="19.71501" /><linearGradient
     inkscape:collect="always"
     xlink:href="#linearGradient5757"
     id="linearGradient2824"
     gradientUnits="userSpaceOnUse"
     x1="215.57515"
     y1="-13.882898"
     x2="212.9565"
     y2="63.035213" /><linearGradient
     inkscape:collect="always"
     xlink:href="#linearGradient5757"
     id="linearGradient2826"
     gradientUnits="userSpaceOnUse"
     x1="215.57515"
     y1="-13.882898"
     x2="212.9565"
     y2="63.035213" /><linearGradient
     inkscape:collect="always"
     xlink:href="#linearGradient5757"
     id="linearGradient2828"
     gradientUnits="userSpaceOnUse"
     x1="215.57515"
     y1="-13.882898"
     x2="212.9565"
     y2="63.035213" /><linearGradient
     inkscape:collect="always"
     xlink:href="#linearGradient5757"
     id="linearGradient2830"
     gradientUnits="userSpaceOnUse"
     x1="215.57515"
     y1="-13.882898"
     x2="212.9565"
     y2="63.035213" /><linearGradient
     inkscape:collect="always"
     xlink:href="#linearGradient5757"
     id="linearGradient2833"
     gradientUnits="userSpaceOnUse"
     x1="215.57515"
     y1="-13.882898"
     x2="212.9565"
     y2="63.035213"
     gradientTransform="matrix(-1.1241226e-2,0.4716623,1,0,248.00312,-108.37685)" /><linearGradient
     inkscape:collect="always"
     xlink:href="#linearGradient5757"
     id="linearGradient3633"
     gradientUnits="userSpaceOnUse"
     gradientTransform="matrix(-1.1241226e-2,0.4716623,1,0,330.89925,-113.28517)"
     x1="215.57515"
     y1="-13.882898"
     x2="212.9565"
     y2="63.035213" /><linearGradient
     inkscape:collect="always"
     xlink:href="#linearGradient8494"
     id="linearGradient3635"
     gradientUnits="userSpaceOnUse"
     gradientTransform="matrix(-1.1241226e-2,0.4716623,1.13181,0,322.89679,-113.28517)"
     x1="223.57939"
     y1="58.765129"
     x2="223.8159"
     y2="19.71501" /><linearGradient
     inkscape:collect="always"
     xlink:href="#linearGradient5757"
     id="linearGradient3676"
     gradientUnits="userSpaceOnUse"
     x1="215.57515"
     y1="-13.882898"
     x2="212.9565"
     y2="63.035213" /><linearGradient
     inkscape:collect="always"
     xlink:href="#linearGradient5757"
     id="linearGradient3678"
     gradientUnits="userSpaceOnUse"
     x1="215.57515"
     y1="-13.882898"
     x2="212.9565"
     y2="63.035213" /></defs>

<g
   id="g3637"
   transform="matrix(2.4185602,0,0,2.2104681,-122.47932,189.37954)"><g
     transform="translate(-226.06502,-52.312567)"
     id="g3629"><path
       d="M 384.90098,0.5056814 C 383.43666,0.5556021 375.79334,0.6238045 367.91584,0.6572406 C 360.03834,0.6906815 352.46329,0.7824198 351.08237,0.8611025 C 349.70146,0.9397899 346.79733,0.955784 344.62875,0.8966564 L 340.68588,0.7891457 L 340.70481,-10.82201 C 340.71523,-17.208148 340.66118,-23.91953 340.58472,-25.736199 C 340.50826,-27.552863 340.42158,-32.923026 340.39208,-37.669887 C 340.36259,-42.416748 340.24223,-46.95463 340.12463,-47.75407 C 339.28251,-51.867436 358.79903,-51.214024 364.17667,-51.226584 C 374.07569,-51.209439 376.86326,-51.116215 384.09008,-50.560625 C 384.89578,-50.498682 385.65465,-50.289179 385.77848,-50.0945 C 386.04374,-49.67749 386.2951,-42.615639 386.61763,-26.518573 C 387.05353,-4.7629091 387.17527,-0.5153213 387.36554,-0.4245593 C 387.48403,-0.36804 387.57701,-0.1560373 387.57218,0.0465653 C 387.56515,0.3419108 387.03569,0.4329133 384.90098,0.5056814 z"
       style="fill:url(#linearGradient3633);fill-opacity:1;stroke:#000000;stroke-width:1.12533677;stroke-linecap:round;stroke-miterlimit:4;stroke-dasharray:none;stroke-opacity:1"
       id="path2764" /><path
       id="path2772"
       style="opacity:0.64444448;fill:url(#linearGradient3635);fill-opacity:1"
       d="M 358.67473,-50.303512 C 366.77979,-50.234332 375.43231,-50.346682 383.06113,-49.537062 C 384.18953,-33.188306 383.84822,-16.818817 384.86268,-0.4694458 C 376.61671,-0.1451638 367.12815,-0.5791118 359.56502,-0.1009588 C 359.41716,-16.465179 359.79313,-32.85302 358.47154,-49.198052 C 358.77299,-49.437532 357.49108,-50.393022 358.67473,-50.303512 z" /></g><g
     transform="matrix(1.1241226e-2,0.4716623,-1,0,122.6556,-166.57294)"
     id="g2539"><path
       id="path11185"
       style="fill:#b9b9b9;fill-opacity:1;fill-rule:evenodd;stroke:none;stroke-width:1px;stroke-linecap:butt;stroke-linejoin:miter;stroke-opacity:1"
       d="M 17.274594,54.820011 L 19.840128,55.504154 L 22.918769,50.544122 L 21.208413,38.742666 L 20.524271,26.94121 L 21.892555,20.954965 L 22.918769,11.034901 L 21.379449,6.7590109 L 17.616666,6.5879753 L 15.051132,10.350758 L 13.340776,18.04736 L 12.314562,31.730207 L 12.314562,39.426808 L 12.656634,44.215805 L 14.538025,49.859979 L 17.274594,54.820011 z" /><g
       id="g3971"
       style="fill:url(#linearGradient3676);fill-opacity:1"><path
         id="path21890"
         style="fill:url(#linearGradient2557);fill-opacity:1"
         d="M 364.81066,68.333819 C 364.81066,68.695122 358.72938,68.947994 358.46756,69.109809 C 358.00837,69.393603 342.12722,68.959719 338.86947,68.676974 C 337.99191,68.60081 327.93975,68.411246 316.53135,68.255727 C 283.01988,67.798894 263.59048,67.495916 253.67564,67.275576 C 244.85822,67.079625 243.51222,67.321287 243.53231,66.085013 C 244.27997,20.089807 243.38408,65.310601 243.29478,10.309577 C 243.29383,9.7249288 244.04643,9.2597808 244.04643,8.8953822 C 244.04643,7.3839987 246.24222,7.2378664 264.56103,7.5301037 C 274.46503,7.6881026 285.33777,7.9128241 288.72267,8.0294792 C 294.62409,8.2328655 315.10686,8.5344119 350.72235,8.9422376 C 365.64622,9.1131288 381.75281,10.501352 389.22524,9.8563545 C 398.21126,9.0807111 395.40029,51.111653 392.59727,69.227795 C 392.46176,70.103604 389.64663,69.954071 373.97223,69.555422 C 367.82925,69.399188 361.23157,68.779246 361.09494,68.480735" /><path
         id="path21848"
         style="fill:url(#linearGradient2559);fill-opacity:1"
         d="M 131.70075,54.844777 C 131.70075,55.461058 129.10738,55.261323 118.33753,55.007412 C 111.63039,54.849285 104.91186,54.633472 103.40746,54.527831 C 101.90305,54.422185 94.928087,54.223166 87.907535,54.085554 C 76.048779,53.853114 71.932415,53.726521 58.047394,53.167261 C 55.163953,53.051121 48.394135,52.84525 43.003354,52.709777 C 37.612573,52.574298 31.75106,52.349563 29.977768,52.210365 L 26.753607,51.957274 L 23.522448,51.645541 C 17.826149,27.757876 20.301801,30.402422 23.115025,10.295484 C 23.137656,10.133736 25.211776,9.2968292 25.684036,9.8037404 C 26.511626,10.692054 26.645769,9.019874 43.064219,9.1487102 C 52.433268,9.22223 60.919438,9.332366 61.922375,9.3934585 C 62.925311,9.4545464 69.38741,9.6563736 76.282595,9.8419624 C 83.17778,10.027547 90.563036,10.246793 92.694275,10.329175 C 94.825514,10.411557 102.58751,10.602457 109.94317,10.753394 C 122.83014,11.017832 130.45625,11.480299 131.90624,12.085293" /><path
         id="path21814"
         style="fill:url(#linearGradient2561);fill-opacity:1"
         d="M 241.25493,56.71373 C 241.36077,55.250592 241.50537,47.608903 241.57626,39.7322 C 241.64716,31.855496 241.84166,24.282622 242.00848,22.903585 C 242.17531,21.524548 242.20922,18.620798 242.08386,16.450809 L 241.85592,12.505373 L 217.2384,12.247577 C 203.69876,12.10579 189.46955,11.891799 185.61792,11.77204 C 181.7663,11.652285 170.38069,11.437606 160.31658,11.294975 C 150.25247,11.152348 140.63143,10.923843 138.93649,10.787189 C 130.21549,9.8470363 131.60083,29.379124 131.5742,34.756461 C 131.61055,44.6559 131.8082,47.445689 132.98614,54.685752 C 133.11747,55.492929 133.56165,56.256783 133.9744,56.385259 C 134.85853,56.66046 149.83079,57.08012 183.95916,57.786292 C 230.08467,58.740704 239.09024,58.963684 239.28267,59.156125 C 239.4025,59.275948 239.85198,59.373985 240.28153,59.373985 C 240.90771,59.373985 241.10065,58.846701 241.25493,56.71373 z" /></g><path
       id="path5815"
       style="opacity:0.64444448;fill:url(#linearGradient2565);fill-opacity:1"
       d="M 248.09375,27.440979 C 245.28976,27.74753 248.62112,32.755713 247.21876,34.60435 C 247.23561,43.859883 247.37209,53.23118 247.65625,62.312412 C 249.86073,65.262428 248.25091,63.21334 258.19371,63.545891 C 297.9069,64.525815 336.93418,64.023666 376.62117,65.541842 C 380.62434,65.520205 385.68843,66.678094 389.0625,65.402729 C 390.12484,53.864484 393.44084,41.447079 389.6875,30.320593 C 384.50865,30.22509 379.13709,30.947471 373.84934,30.076429 C 331.94734,28.496198 289.9948,28.413452 248.09375,27.440979 z" /><path
       id="path8517"
       style="opacity:0.30555558;fill:none;fill-opacity:0.75;fill-rule:evenodd;stroke:#000000;stroke-width:3.8050344;stroke-linecap:round;stroke-linejoin:miter;stroke-miterlimit:4;stroke-dasharray:none;stroke-opacity:1"
       d="M 129.54361,14.043863 C 124.26695,34.473119 129.83998,53.244373 129.63325,53.037643" /><path
       id="path5817"
       style="opacity:0.64444448;fill:url(#linearGradient2567);fill-opacity:1"
       d="M 23.31618,31.10694 C 22.117361,36.393738 23.442562,42.536749 25.252453,47.039711 C 58.528728,48.490503 94.114089,49.441832 127.375,50.332606 C 127.02224,44.567864 127.40954,38.706896 126.4375,33.022928 C 93.109127,30.901608 59.73231,30.389413 26.375,29.600332 L 23.31618,31.10694 z" /><path
       id="path5819"
       style="opacity:0.64444448;fill:url(#linearGradient2569);fill-opacity:1"
       d="M 133.53125,29.276533 C 133.67792,37.383238 133.43973,46.033074 135.15625,53.681189 C 169.81825,55.199235 204.5242,55.24806 239.1875,56.65219 C 239.87503,48.41394 238.95499,38.915033 239.96875,31.363308 C 205.27397,30.825427 170.52911,30.810824 135.875,29.099689 C 135.36728,29.395423 133.34148,28.090756 133.53125,29.276533 z" /><path
       id="path10289"
       style="opacity:0.19444442;fill:none;fill-opacity:0.75;fill-rule:evenodd;stroke:#ffffff;stroke-width:3.8050344;stroke-linecap:round;stroke-linejoin:miter;stroke-miterlimit:4;stroke-dasharray:none;stroke-opacity:1"
       d="M 135.71096,12.98327 C 129.06602,31.018028 136.91617,59.705551 136.70944,53.939356" /><path
       id="path11177"
       style="opacity:0.17222224;fill:none;fill-opacity:0.75;fill-rule:evenodd;stroke:#ffffff;stroke-width:3.8050344;stroke-linecap:round;stroke-linejoin:miter;stroke-miterlimit:4;stroke-dasharray:none;stroke-opacity:1"
       d="M 247.56823,11.614985 C 246.7385,32.728384 246.03687,39.523351 245.83014,63.517349" /><path
       id="path11179"
       style="opacity:0.30555558;fill:none;fill-opacity:0.75;fill-rule:evenodd;stroke:#000000;stroke-width:3.8050344;stroke-linecap:round;stroke-linejoin:miter;stroke-miterlimit:4;stroke-dasharray:none;stroke-opacity:1"
       d="M 240.71674,14.385934 C 240.57115,35.841404 240.32897,58.375441 240.12224,58.168711" /><path
       id="path11181"
       style="opacity:0.39444442;fill:none;fill-opacity:0.75;fill-rule:evenodd;stroke:#ffffff;stroke-width:3.8050344;stroke-linecap:round;stroke-linejoin:miter;stroke-miterlimit:4;stroke-dasharray:none;stroke-opacity:1"
       d="M 26.151091,11.390294 C 19.506151,29.425052 26.146896,54.242482 25.940166,48.476287" /><path
       id="path12983"
       style="fill:#c5c5c5;fill-opacity:1;fill-rule:evenodd;stroke:none;stroke-width:1px;stroke-linecap:butt;stroke-linejoin:miter;stroke-opacity:1"
       d="M 392.45168,12.100424 L 393.78202,23.226943 L 394.38672,32.297475 L 394.14484,42.819292 L 393.66108,59.146249 L 392.33074,65.918913 L 391.72604,68.942424 L 393.54014,70.393709 L 396.44271,68.337721 L 399.82904,65.07233 L 401.03845,58.541547 L 401.76409,43.423994 L 400.79657,24.436347 L 398.61964,12.342305 L 396.80553,10.286318 L 392.45168,11.495722 L 392.45168,12.100424 z" /><path
       id="path5562"
       style="fill:#000000"
       d="M 362.97176,69.094386 C 362.97176,69.455689 357.67859,69.008015 357.41677,69.169829 C 356.95758,69.453624 341.07643,69.01974 337.81868,68.736994 C 336.94111,68.66083 326.88896,68.471266 315.48056,68.315747 C 281.96909,67.858914 262.53969,67.555936 252.62485,67.335596 C 243.80742,67.139645 243.29164,67.079104 242.48152,66.145033 C 241.71102,65.256642 241.39661,63.64181 241.59515,61.592593 C 241.66027,60.920453 240.34533,60.839684 228.08522,60.762768 C 220.61508,60.715904 213.47741,60.607619 212.22374,60.522146 C 210.10539,60.377714 200.0222,60.148256 171.65042,59.598838 C 137.99974,58.947194 134.77465,58.740676 133.16862,57.134643 C 132.64512,56.611147 131.92608,56.182829 131.57076,56.182829 C 129.4301,56.182829 128.1862,33.549778 129.74175,22.903589 C 130.12643,20.270882 130.53595,17.236021 130.6518,16.159451 C 130.76765,15.082881 130.88374,14.057151 130.90979,13.880051 C 131.03794,13.00855 130.7867,12.814431 130.1811,13.317035 C 129.69465,13.720753 126.87516,13.846649 119.80983,13.780145 C 108.85734,13.677052 108.00434,13.634259 107.21825,13.148432 C 106.90865,12.957081 103.22638,12.808263 99.035436,12.817723 C 94.844495,12.827187 85.363736,12.621302 77.967088,12.360211 C 68.775275,12.035752 64.281671,12.033477 63.769986,12.353031 C 63.358231,12.610174 62.884171,12.683398 62.716521,12.515748 C 62.185252,11.984474 56.184165,11.677175 39.378171,11.320645 C 32.571473,11.176249 26.670913,10.930913 26.265813,10.775462 C 25.248754,10.385179 24.346217,11.250544 23.947363,12.998425 C 23.762699,13.807684 23.540668,14.777528 23.453968,15.153629 C 23.367264,15.52973 23.198347,16.350314 23.078592,16.977149 C 22.958837,17.603984 22.628712,18.83486 22.344986,19.712429 C 22.061255,20.589998 21.65978,23.256896 21.45281,25.638869 C 21.130302,29.350608 21.17997,30.051186 21.800245,30.539575 C 22.451821,31.052604 22.44238,31.109425 21.705586,31.109425 C 20.962165,31.109425 20.915451,31.433113 21.195726,34.642495 C 21.365422,36.585683 21.57809,39.098722 21.668318,40.227025 C 21.896208,43.076785 23.156342,49.208111 23.737216,50.293489 C 24.032047,50.844383 24.431229,51.056062 24.765964,50.839008 C 25.066803,50.643933 28.99514,50.484329 33.495601,50.484329 L 41.678264,50.484329 L 41.997908,49.344629 L 42.317558,48.204929 L 42.363,49.412692 L 42.408442,50.620459 L 47.992972,50.88823 C 74.485308,52.337108 101.07638,51.776626 127.54403,53.720366 C 128.87554,53.884565 131.14532,54.17755 131.14532,54.657117 C 131.14532,55.273399 128.05659,55.321344 117.28673,55.067432 C 110.5796,54.909306 103.86107,54.693492 102.35666,54.587851 C 100.85226,54.482205 93.877295,54.283186 86.856743,54.145574 C 74.997987,53.913135 70.881623,53.786542 56.996602,53.227282 C 54.113161,53.111142 47.343343,52.905271 41.952562,52.769797 C 36.561781,52.634318 30.700268,52.409583 28.926976,52.270385 L 25.702815,52.017294 L 23.49787,54.100059 C 20.824115,56.625662 19.058528,56.848364 16.596603,54.970562 C 14.652872,53.488004 13.964443,51.904874 12.683188,45.971145 C 11.826184,42.002212 11.691735,39.982513 11.709027,31.337365 C 11.727135,22.288156 11.850113,20.706722 12.967443,15.15532 C 13.672885,11.650365 14.535793,8.6156444 14.972626,8.1033674 C 16.573836,6.225641 16.864141,6.0162371 18.250499,5.7389663 C 19.627754,5.4635145 23.261482,6.3306712 23.261482,6.9347943 C 23.261482,7.0981179 23.647877,7.6464936 24.120137,8.1534048 C 24.947728,9.0417189 25.594977,9.0798943 42.013427,9.2087306 C 51.382476,9.2822503 59.868646,9.3923864 60.871583,9.4534789 C 61.874519,9.5145668 68.336618,9.716394 75.231803,9.9019827 C 82.126988,10.087567 89.512244,10.306813 91.643483,10.389195 C 93.774722,10.471577 101.53672,10.662477 108.89237,10.813414 C 121.77935,11.077852 129.40546,11.54032 130.85545,12.145313 C 131.32952,12.343115 131.80735,11.947142 132.38182,10.880415 C 133.20295,9.3556698 133.28651,9.3218709 136.99996,9.0125426 C 139.08,8.8392763 145.3681,8.8238949 150.97352,8.9783607 C 156.57893,9.1328265 167.31956,9.3671899 174.84158,9.4991717 C 182.3636,9.6311581 190.05658,9.7986986 191.93708,9.8714889 C 193.81759,9.9442793 204.07489,10.139423 214.73108,10.305136 C 225.38728,10.470853 235.76791,10.722275 237.79916,10.863848 C 240.85647,11.076936 241.62174,10.991841 242.24399,10.369597 C 242.6574,9.9561869 242.99564,9.3198012 242.99564,8.9554026 C 242.99564,7.4440191 245.19143,7.2978868 263.51024,7.5901241 C 273.41424,7.748123 284.28697,7.9728444 287.67188,8.0894996 C 293.5733,8.2928859 314.05606,8.5944323 349.67156,9.002258 C 364.59543,9.1731491 380.68294,9.55509 388.17445,9.9163749 C 390.69981,10.038163 391.02002,9.9367208 392.72972,8.4732913 C 393.97647,7.4061127 394.86343,6.9784266 395.48397,7.1452103 C 395.98738,7.2805177 396.74445,7.3940227 397.16633,7.3974464 C 397.58822,7.40087 398.05706,7.8652476 398.2082,8.4293991 C 398.85309,10.836582 399.97346,14.537909 400.31257,15.381569 C 400.51414,15.883037 400.80084,17.319059 400.94969,18.572729 C 401.09853,19.826399 401.3375,21.57014 401.48071,22.447709 C 402.65338,29.632993 402.76503,54.848067 401.64927,60.513689 C 400.99874,63.816968 399.39992,69.010207 398.8493,69.608495 C 398.63008,69.846692 398.45072,70.327887 398.45072,70.677821 C 398.45072,71.423262 396.70843,73.98653 396.25425,73.909267 C 396.08327,73.880182 395.58438,73.762565 395.14559,73.647897 C 394.70681,73.533234 394.3478,73.244913 394.3478,73.00719 C 394.3478,72.769462 393.78365,72.325431 393.09413,72.020447 C 392.40461,71.715463 391.62936,71.195081 391.37134,70.864043 C 390.82653,70.165052 388.59584,70.014092 372.92144,69.615443 C 366.77846,69.459208 361.31916,69.452242 361.18253,69.153732 C 359.86152,66.267674 371.72138,67.139093 372.35159,67.138866 C 378.80799,67.147067 385.52598,67.338618 387.28045,67.564534 C 390.90076,68.030704 391.1269,67.880236 391.71087,64.616609 C 393.02702,57.261222 393.5029,51.706967 393.62478,42.278485 C 393.75347,32.322973 393.62557,30.193119 392.44752,22.675649 C 392.17247,20.920511 391.79261,18.253613 391.60339,16.749209 C 391.22406,13.733426 390.79155,12.368034 390.05019,11.845942 C 379.23624,11.531425 368.39642,11.076945 357.56588,11.070262 C 350.08983,11.089951 343.56277,11.100546 343.0613,11.093803 C 334.37911,10.977062 330.9449,11.018893 330.57765,11.245862 C 330.33239,11.397442 330.01497,11.332548 329.87227,11.101654 C 329.72004,10.855346 319.41165,10.65821 304.92963,10.624653 C 291.35389,10.593202 280.10852,10.482213 279.93993,10.378022 C 279.77134,10.273826 271.95406,10.15279 262.56819,10.109048 L 245.50298,10.02952 L 245.26951,12.592805 C 245.1411,14.002619 244.67218,23.538197 244.6509,24.00892 C 244.22642,33.39492 244.42025,34.185429 244.10155,41.480695 L 243.99623,62.185219 C 244.12415,64.421114 244.22698,64.620812 245.27504,64.668862 C 251.58308,64.958059 290.59072,65.670225 307.86564,65.81158 C 314.58436,65.866559 320.191,66.088732 320.32485,66.305303 C 320.4587,66.521873 325.08423,66.677127 330.60381,66.650313 C 336.12339,66.623493 340.75695,66.719091 340.9006,66.862753 C 341.04426,67.00641 344.51252,67.123949 348.60784,67.123949 C 354.78709,67.123949 363.84744,66.885437 363.84744,67.430592 M 394.78729,64.972825 C 394.7969,64.379711 395.03936,64.033443 395.37353,64.135587 C 395.68695,64.231391 396.63175,64.429297 397.47308,64.575379 C 398.77012,64.800593 398.95845,64.725464 398.71131,64.081429 C 398.55089,63.663378 398.682,63.15984 399.00291,62.961505 C 399.44876,62.685957 399.38374,62.453267 398.72665,61.972792 C 398.03468,61.466811 397.96582,61.174747 398.37309,60.47318 C 398.65859,59.981399 398.88492,59.861845 398.89274,60.198685 C 398.90037,60.526901 399.11175,60.668652 399.36248,60.513689 C 399.61322,60.358726 399.82326,59.269602 399.82924,58.093413 C 399.83522,56.917224 400.04408,55.134305 400.29338,54.131369 C 401.35901,49.844237 400.5544,26.769921 399.09416,19.74052 C 398.3428,16.1236 397.25506,12.874229 396.79564,12.874229 C 396.50592,12.874229 396.14262,12.545225 395.98831,12.143112 C 395.80128,11.655689 395.44311,11.521834 394.91381,11.741527 C 394.47714,11.922776 393.84214,12.080825 393.50269,12.092751 C 393.04448,12.108843 392.9627,12.535159 393.18518,13.748001 C 393.34998,14.646463 393.57204,16.204478 393.71666,17.205089 C 394.51157,22.705172 393.67853,16.894179 394.5247,23.019766 C 394.50564,23.691632 394.83137,32.092557 394.83574,41.206893 C 394.8437,57.781336 394.46879,63.493198 393.16868,66.604788 C 392.2642,68.76953 392.3626,68.922309 393.64985,67.351889 C 394.26642,66.599687 394.77827,65.529108 394.78729,64.972825 z M 395.56148,65.642339 C 395.43502,65.328922 395.33154,65.585354 395.33154,66.212189 C 395.33154,66.839024 395.43502,67.095457 395.56148,66.782039 C 395.68795,66.468622 395.68795,65.955757 395.56148,65.642339 z M 241.25496,56.713733 C 241.3608,55.250596 241.50539,47.608907 241.57629,39.732203 C 241.64719,31.8555 241.84168,24.282626 242.00851,22.903589 C 242.17533,21.524552 242.20925,18.620802 242.08388,16.450813 L 241.85594,12.505377 L 217.23842,12.247581 C 203.69879,12.105793 189.46957,11.891803 185.61795,11.772044 C 181.76632,11.652288 170.38072,11.43761 160.31661,11.294979 C 150.2525,11.152352 140.63145,10.923847 138.93652,10.787192 C 130.21551,9.8470401 131.60086,29.379127 131.57423,34.756465 C 131.61058,44.655903 131.80823,47.445693 132.98616,54.685756 C 133.11749,55.492932 133.56167,56.256787 133.97443,56.385263 C 134.85856,56.660464 149.83081,57.080124 183.95918,57.786296 C 230.08469,58.740708 239.09026,58.963688 239.2827,59.156129 C 239.40252,59.275952 239.85201,59.373989 240.28155,59.373989 C 240.90774,59.373989 241.10068,58.846705 241.25496,56.713733 z M 19.44124,54.017399 C 18.277752,50.061546 17.659984,46.444699 17.176072,40.755462 C 16.544656,33.332049 16.57396,29.280539 17.316802,21.298076 C 17.883662,15.206671 18.469258,12.451332 19.687027,10.145701 C 20.776767,8.0824699 20.745043,7.5672343 19.508336,7.2438285 C 18.401441,6.9543698 17.136898,7.8172891 18.132832,8.1824626 C 18.44625,8.2973854 18.702682,8.7918237 18.702682,9.28122 C 18.702682,10.053102 18.571525,10.100838 17.71304,9.641388 C 16.889141,9.2004518 16.618604,9.2550252 16.097665,9.9672602 C 15.753508,10.437788 15.372419,11.335634 15.250804,11.962469 C 15.129185,12.589304 14.836847,13.696381 14.601166,14.422644 C 14.113666,15.924869 14.566342,17.175667 15.102242,15.807188 C 15.425124,14.982679 15.449509,14.989544 15.479478,15.913431 C 15.497103,16.456685 15.732615,16.974865 16.002833,17.064938 C 16.353496,17.181826 16.348705,19.117679 15.986089,23.827161 C 15.706657,27.456303 15.387664,30.852992 15.277218,31.375353 C 15.029716,32.545953 13.688002,32.642175 13.688002,31.489323 C 13.688002,31.029646 13.469608,30.653545 13.202681,30.653545 C 12.659792,30.653545 12.766231,43.814071 13.311846,44.151281 C 13.484994,44.258289 13.860151,45.47057 14.145532,46.845235 C 14.430913,48.2199 14.823658,49.344629 15.018296,49.344629 C 15.212939,49.344629 15.594802,49.806208 15.866885,50.370359 C 16.329603,51.329795 16.364975,51.337162 16.414192,50.484329 C 16.444098,49.966098 16.773685,50.458011 17.177805,51.624029 C 17.568854,52.752332 18.097046,53.931922 18.351563,54.245339 C 19.030993,55.082002 19.712433,54.939457 19.44124,54.017399 z M 19.426802,46.269746 C 18.928799,45.771743 18.587308,46.563725 18.944855,47.387477 C 19.283884,48.168568 19.30846,48.167852 19.497354,47.371457 C 19.606081,46.913047 19.574334,46.417278 19.426802,46.269746 z M 21.893842,47.266263 C 21.893842,46.875364 21.688696,46.682326 21.437962,46.837289 C 21.187228,46.992252 20.982082,47.312074 20.982082,47.548011 C 20.982082,47.783951 21.187228,47.976989 21.437962,47.976989 C 21.688696,47.976989 21.893842,47.657162 21.893842,47.266263 z M 21.014673,45.94567 C 21.247482,46.089555 21.437962,45.76293 21.437962,45.219841 C 21.437962,44.52941 21.232278,44.311326 20.754142,44.494804 C 20.261573,44.683821 20.070322,44.446463 20.070322,43.646125 C 20.070322,42.426978 18.985291,42.480043 18.508509,43.722512 C 18.148706,44.660152 18.706872,45.516682 19.179428,44.752071 C 19.416499,44.36848 19.667967,44.786012 19.905166,45.957067 C 20.175922,47.29378 20.309199,47.486736 20.429761,46.716558 C 20.518657,46.148687 20.781869,45.80179 21.014673,45.94567 z M 20.801631,42.629895 C 20.650142,42.478406 20.5424,42.747663 20.562194,43.228238 C 20.584067,43.75931 20.692092,43.867336 20.837618,43.503662 C 20.969308,43.174576 20.953115,42.781379 20.801631,42.629895 z M 19.433991,25.762335 C 19.282502,25.610851 19.17476,25.880107 19.194554,26.360673 C 19.216427,26.89175 19.324452,26.999771 19.469978,26.636102 C 19.601668,26.307011 19.585475,25.913819 19.433991,25.762335 z M 19.390787,24.43773 C 19.732132,24.568718 20.111046,24.430983 20.232816,24.131648 C 20.354591,23.832317 20.497828,24.100274 20.551125,24.727109 C 20.672845,26.158709 21.346403,21.954493 21.391043,19.484489 C 21.415182,18.148829 21.305771,17.843918 20.982082,18.344789 C 20.660965,18.841685 20.538256,18.865482 20.533182,18.431853 C 20.529343,18.103638 20.299119,17.975444 20.021575,18.146978 C 19.668263,18.365336 19.614314,17.997468 19.841662,16.92021 C 20.080958,15.786331 20.031312,15.509995 19.652941,15.869771 C 19.370551,16.138284 19.010939,17.734772 18.853802,19.417525 C 18.69666,21.100278 18.393231,22.585152 18.17951,22.717239 C 17.699413,23.013953 17.673269,24.821061 18.132832,25.943493 C 18.414853,26.632291 18.500613,26.552694 18.622452,25.489072 C 18.721619,24.62331 18.974099,24.277835 19.390787,24.43773 z M 20.825232,15.486864 C 20.700353,15.178219 20.605785,15.541127 20.615076,16.293329 C 20.624367,17.045531 20.726539,17.298061 20.842122,16.854504 C 20.957706,16.410946 20.950107,15.795508 20.825232,15.486864 z M 387.1392,65.900773 C 387.05678,65.962467 385.6829,65.962554 387.1392,65.900773 z" /><path
       id="path11183"
       style="opacity:0.30555558;fill:none;fill-opacity:0.75;fill-rule:evenodd;stroke:#000000;stroke-width:3.8050344;stroke-linecap:round;stroke-linejoin:miter;stroke-miterlimit:4;stroke-dasharray:none;stroke-opacity:1"
       d="M 389.44458,12.713519 C 393.77942,26.448076 392.3222,45.837051 389.89704,66.582971" /></g><g
     transform="translate(6.67608,0)"
     id="g2700"><path
       d="M 199.89637,-158.42517 L 200.55168,-157.2151 L 195.55704,-155.76302 L 183.77481,-156.56973 L 171.98104,-156.89242 L 165.97942,-156.24705 L 156.04782,-155.76302 L 151.78923,-156.48906 L 151.66049,-158.26382 L 155.45211,-159.47389 L 163.16794,-160.2806 L 176.86233,-160.76463 L 184.55893,-160.76463 L 189.34408,-160.60328 L 194.9671,-159.7159 L 199.89637,-158.42517 z"
       style="fill:#b9b9b9;fill-opacity:1;fill-rule:evenodd;stroke:none;stroke-width:1px;stroke-linecap:butt;stroke-linejoin:miter;stroke-opacity:1"
       id="path2621" /><g
       style="fill:url(#linearGradient3678);fill-opacity:1"
       id="g2623"
       transform="matrix(-1.1241226e-2,0.4716623,1,0,145.27055,-166.57294)"><path
         d="M 364.81066,68.333819 C 364.81066,68.695122 358.72938,68.947994 358.46756,69.109809 C 358.00837,69.393603 342.12722,68.959719 338.86947,68.676974 C 337.99191,68.60081 327.93975,68.411246 316.53135,68.255727 C 283.01988,67.798894 263.59048,67.495916 253.67564,67.275576 C 244.85822,67.079625 243.51222,67.321287 243.53231,66.085013 C 244.27997,20.089807 243.38408,65.310601 243.29478,10.309577 C 243.29383,9.7249288 244.04643,9.2597808 244.04643,8.8953822 C 244.04643,7.3839987 246.24222,7.2378664 264.56103,7.5301037 C 274.46503,7.6881026 285.33777,7.9128241 288.72267,8.0294792 C 294.62409,8.2328655 315.10686,8.5344119 350.72235,8.9422376 C 365.64622,9.1131288 381.75281,10.501352 389.22524,9.8563545 C 398.21126,9.0807111 395.40029,51.111653 392.59727,69.227795 C 392.46176,70.103604 389.64663,69.954071 373.97223,69.555422 C 367.82925,69.399188 361.23157,68.779246 361.09494,68.480735"
         style="fill:url(#linearGradient2653);fill-opacity:1"
         id="path2625" /><path
         d="M 131.70075,54.844777 C 131.70075,55.461058 129.10738,55.261323 118.33753,55.007412 C 111.63039,54.849285 104.91186,54.633472 103.40746,54.527831 C 101.90305,54.422185 94.928087,54.223166 87.907535,54.085554 C 76.048779,53.853114 71.932415,53.726521 58.047394,53.167261 C 55.163953,53.051121 48.394135,52.84525 43.003354,52.709777 C 37.612573,52.574298 31.75106,52.349563 29.977768,52.210365 L 26.753607,51.957274 L 23.522448,51.645541 C 17.826149,27.757876 20.301801,30.402422 23.115025,10.295484 C 23.137656,10.133736 25.211776,9.2968292 25.684036,9.8037404 C 26.511626,10.692054 26.645769,9.019874 43.064219,9.1487102 C 52.433268,9.22223 60.919438,9.332366 61.922375,9.3934585 C 62.925311,9.4545464 69.38741,9.6563736 76.282595,9.8419624 C 83.17778,10.027547 90.563036,10.246793 92.694275,10.329175 C 94.825514,10.411557 102.58751,10.602457 109.94317,10.753394 C 122.83014,11.017832 130.45625,11.480299 131.90624,12.085293"
         style="fill:url(#linearGradient2655);fill-opacity:1"
         id="path2627" /><path
         d="M 241.25493,56.71373 C 241.36077,55.250592 241.50537,47.608903 241.57626,39.7322 C 241.64716,31.855496 241.84166,24.282622 242.00848,22.903585 C 242.17531,21.524548 242.20922,18.620798 242.08386,16.450809 L 241.85592,12.505373 L 217.2384,12.247577 C 203.69876,12.10579 189.46955,11.891799 185.61792,11.77204 C 181.7663,11.652285 170.38069,11.437606 160.31658,11.294975 C 150.25247,11.152348 140.63143,10.923843 138.93649,10.787189 C 130.21549,9.8470363 131.60083,29.379124 131.5742,34.756461 C 131.61055,44.6559 131.8082,47.445689 132.98614,54.685752 C 133.11747,55.492929 133.56165,56.256783 133.9744,56.385259 C 134.85853,56.66046 149.83079,57.08012 183.95916,57.786292 C 230.08467,58.740704 239.09024,58.963684 239.28267,59.156125 C 239.4025,59.275948 239.85198,59.373985 240.28153,59.373985 C 240.90771,59.373985 241.10065,58.846701 241.25493,56.71373 z"
         style="fill:url(#linearGradient2657);fill-opacity:1"
         id="path2629" /></g><path
       d="M 169.92265,-49.556471 C 170.26072,-50.879008 175.23146,-49.307731 177.09586,-49.969171 C 186.3512,-49.961224 195.72096,-49.896851 204.799,-49.762824 C 207.72424,-48.723053 205.69325,-49.482345 205.91403,-44.792701 C 206.44753,-26.061486 205.50666,-7.6537897 206.57871,11.065067 C 206.51207,12.953212 207.61303,15.341752 206.29974,16.933174 C 194.74955,17.434239 182.29487,18.998272 171.21058,17.227963 C 171.17329,14.785294 171.95606,12.251732 171.14445,9.7576996 C 170.03525,-10.005894 170.4241,-29.793326 169.92265,-49.556471 z"
       style="opacity:0.64444448;fill:url(#linearGradient2682);fill-opacity:1"
       id="path2631" /><path
       d="M 157.85818,-105.4721 C 178.34676,-107.9609 197.05536,-105.33232 196.85096,-105.42982"
       style="opacity:0.30555558;fill:none;fill-opacity:0.75;fill-rule:evenodd;stroke:#000000;stroke-width:2.61320925;stroke-linecap:round;stroke-linejoin:miter;stroke-miterlimit:4;stroke-dasharray:none;stroke-opacity:1"
       id="path2633" /><path
       d="M 176.11539,-155.57558 C 181.41566,-156.14101 187.54378,-155.51597 192.02639,-154.66231 C 193.10312,-138.96715 193.65442,-122.18287 194.1713,-106.49495 C 188.41053,-106.66134 182.54521,-106.47866 176.87217,-106.93714 C 175.1255,-122.65688 174.9885,-138.39946 174.57439,-154.13285 L 176.11539,-155.57558 z"
       style="opacity:0.64444448;fill:url(#linearGradient2678);fill-opacity:1"
       id="path2635" /><path
       d="M 173.04603,-103.59128 C 181.15108,-103.5221 189.8036,-103.63445 197.43242,-102.82483 C 198.56082,-86.476074 198.21951,-70.106585 199.23398,-53.757214 C 190.988,-53.432932 181.49944,-53.86688 173.93632,-53.388727 C 173.78845,-69.752947 174.16442,-86.140788 172.84284,-102.48582 C 173.14428,-102.7253 171.86238,-103.68079 173.04603,-103.59128 z"
       style="opacity:0.64444448;fill:url(#linearGradient2675);fill-opacity:1"
       id="path2637" /><path
       d="M 156.72826,-102.5632 C 174.83772,-105.69736 203.437,-101.99474 197.67312,-102.09225"
       style="opacity:0.19444442;fill:none;fill-opacity:0.75;fill-rule:evenodd;stroke:#ffffff;stroke-width:2.61320925;stroke-linecap:round;stroke-linejoin:miter;stroke-miterlimit:4;stroke-dasharray:none;stroke-opacity:1"
       id="path2639" /><path
       d="M 154.10256,-49.804339 C 175.22529,-50.195692 182.02814,-50.526624 206.02447,-50.624131"
       style="opacity:0.17222224;fill:none;fill-opacity:0.75;fill-rule:evenodd;stroke:#ffffff;stroke-width:2.61320925;stroke-linecap:round;stroke-linejoin:miter;stroke-miterlimit:4;stroke-dasharray:none;stroke-opacity:1"
       id="path2641" /><path
       d="M 156.95053,-53.035929 C 178.40764,-53.104598 200.9444,-53.218825 200.73999,-53.316332"
       style="opacity:0.30555558;fill:none;fill-opacity:0.75;fill-rule:evenodd;stroke:#000000;stroke-width:2.61320925;stroke-linecap:round;stroke-linejoin:miter;stroke-miterlimit:4;stroke-dasharray:none;stroke-opacity:1"
       id="path2643" /><path
       d="M 156.36687,-154.23846 C 174.47633,-157.37262 199.21911,-154.24043 193.45524,-154.33794"
       style="opacity:0.39444442;fill:none;fill-opacity:0.75;fill-rule:evenodd;stroke:#ffffff;stroke-width:2.61320925;stroke-linecap:round;stroke-linejoin:miter;stroke-miterlimit:4;stroke-dasharray:none;stroke-opacity:1"
       id="path2645" /><path
       d="M 152.95934,18.531722 L 164.0709,19.159193 L 173.13463,19.444407 L 183.65917,19.330322 L 199.99157,19.10215 L 206.77918,18.474679 L 209.80949,18.189465 L 211.24039,19.045108 L 209.15177,20.41414 L 205.84831,22.011345 L 199.30393,22.581778 L 184.17822,22.924035 L 165.20145,22.467692 L 153.13188,21.440916 L 151.09629,20.585269 L 152.35463,18.531722 L 152.95934,18.531722 z"
       style="fill:#c5c5c5;fill-opacity:1;fill-rule:evenodd;stroke:none;stroke-width:1px;stroke-linecap:butt;stroke-linejoin:miter;stroke-opacity:1"
       id="path2647" /><path
       d="M 210.28469,4.6271552 C 210.64599,4.6271552 210.25782,2.1305664 210.42258,2.0070758 C 210.71153,1.7904932 210.45617,-5.7000466 210.21005,-7.2366044 C 210.14375,-7.6505211 210.06718,-12.391741 210.03991,-17.772653 C 209.95979,-33.57875 209.87522,-42.742866 209.76633,-47.419322 C 209.6695,-51.578172 209.61476,-51.821446 208.68979,-52.203549 C 207.81006,-52.566964 206.19877,-52.71526 204.14732,-52.621616 C 203.47445,-52.590901 203.40846,-53.211109 203.46936,-58.993741 C 203.50647,-62.517124 203.47842,-65.883694 203.40704,-66.475003 C 203.28642,-67.474149 203.17031,-72.230009 202.93983,-85.611908 C 202.66646,-101.48367 202.49619,-103.00482 200.90821,-103.76232 C 200.3906,-104.00924 199.97037,-104.34838 199.97436,-104.51597 C 199.99843,-105.52564 177.37936,-106.11234 166.71568,-105.37865 C 164.07865,-105.19721 161.03919,-105.00405 159.96131,-104.94941 C 158.88344,-104.89477 157.85641,-104.84001 157.67901,-104.82773 C 156.80607,-104.76728 156.61478,-104.88578 157.12419,-105.17142 C 157.53338,-105.40086 157.69097,-106.73071 157.70389,-110.06316 C 157.72391,-115.22904 157.69071,-115.63136 157.21372,-116.00213 C 157.02585,-116.14816 156.91842,-117.88495 156.97499,-119.86166 C 157.03157,-121.83837 156.93226,-126.31008 156.75432,-129.7988 C 156.53318,-134.13424 156.58142,-136.2537 156.90673,-136.49504 C 157.1685,-136.68925 157.24705,-136.91285 157.08129,-136.99192 C 156.55599,-137.2425 156.31615,-140.07299 156.14854,-147.99974 C 156.08066,-151.2102 155.90165,-153.99328 155.75075,-154.18435 C 155.3719,-154.66405 156.24741,-155.08975 157.99978,-155.27787 C 158.81111,-155.36497 159.78345,-155.46969 160.16053,-155.51059 C 160.5376,-155.55148 161.36009,-155.63115 161.98827,-155.68764 C 162.61645,-155.74412 163.85104,-155.89983 164.73179,-156.03365 C 165.61255,-156.16748 168.28396,-156.35684 170.66826,-156.45446 C 174.38363,-156.60657 175.08365,-156.58315 175.56506,-156.29059 C 176.07077,-155.98326 176.1277,-155.98772 176.13598,-156.33523 C 176.14433,-156.68588 176.46855,-156.70791 179.67478,-156.57572 C 181.61606,-156.49568 184.12671,-156.39537 185.254,-156.35281 C 188.10119,-156.24532 194.21836,-155.65097 195.2972,-155.37699 C 195.84478,-155.23793 196.05198,-155.04965 195.83116,-154.89177 C 195.6327,-154.74987 195.42894,-152.89703 195.37835,-150.77433 L 195.28636,-146.91487 L 194.14307,-146.76411 L 192.99978,-146.61334 L 194.20703,-146.59191 L 195.41429,-146.57048 L 195.61928,-143.93646 C 196.77035,-131.44103 195.91095,-118.89902 197.55716,-106.41523 C 197.7064,-105.78721 197.97387,-104.71664 198.45343,-104.71664 C 199.06971,-104.71664 199.15238,-106.17347 199.01954,-111.25321 C 198.93681,-114.41671 198.79652,-117.58559 198.70779,-118.29516 C 198.61905,-119.00473 198.49844,-122.29456 198.43975,-125.60589 C 198.34062,-131.19922 198.2603,-133.14075 197.85712,-139.68979 C 197.77339,-141.0498 197.64362,-144.24287 197.56875,-146.7855 C 197.49387,-149.32813 197.33502,-152.09278 197.21576,-152.92918 L 196.99891,-154.44989 L 199.10646,-155.48988 C 201.66212,-156.75099 201.90467,-157.58375 200.05455,-158.74495 C 198.59384,-159.66173 197.01845,-159.98644 191.09912,-160.59076 C 187.13982,-160.99497 185.12163,-161.05839 176.47629,-161.05023 C 167.42688,-161.04169 165.84406,-160.98369 160.2801,-160.45669 C 156.76722,-160.12396 153.72279,-159.71695 153.20561,-159.51092 C 151.30988,-158.75569 151.09721,-158.61876 150.80436,-157.96487 C 150.51342,-157.31527 151.33973,-155.60138 151.94386,-155.60138 C 152.10718,-155.60138 152.65121,-155.41913 153.15281,-155.19638 C 154.03183,-154.80604 154.06273,-154.50075 154.007,-146.75679 C 153.9752,-142.33776 153.98994,-138.33516 154.03976,-137.86211 C 154.08957,-137.38906 154.21876,-134.34113 154.32684,-131.08893 C 154.43491,-127.83674 154.57114,-124.35339 154.62956,-123.34816 C 154.68798,-122.34294 154.79163,-118.6819 154.85988,-115.21251 C 154.97945,-109.13421 155.35619,-105.53726 155.94489,-104.85336 C 156.13736,-104.62976 155.73602,-104.40438 154.66283,-104.13343 C 153.12886,-103.74613 153.09412,-103.70672 152.74305,-101.95522 C 152.5464,-100.97415 152.46033,-98.008288 152.55178,-95.364422 C 152.64324,-92.720562 152.75686,-87.654611 152.80429,-84.106758 C 152.85172,-80.558905 152.93278,-76.930416 152.98443,-76.043455 C 153.03608,-75.15649 153.11592,-70.318508 153.16185,-65.292385 C 153.20777,-60.266257 153.3425,-55.370105 153.46124,-54.412041 C 153.63996,-52.970023 153.54627,-52.609074 152.91703,-52.315583 C 152.49897,-52.120593 151.85878,-51.961058 151.49438,-51.961058 C 149.983,-51.961058 149.81218,-50.925386 149.8985,-42.285094 C 149.94516,-37.613751 150.04766,-32.485494 150.12626,-30.888959 C 150.26331,-28.105482 150.33461,-18.444536 150.34207,-1.6460478 C 150.3452,5.3929791 150.5463,12.980851 150.82337,16.514314 C 150.91677,17.705431 150.81173,17.856462 149.32908,18.662863 C 148.24788,19.250908 147.81023,19.669254 147.97004,19.961939 C 148.09968,20.199378 148.20468,20.55646 148.20336,20.755445 C 148.20204,20.954434 148.66115,21.175568 149.2236,21.246855 C 151.62353,21.551026 155.31227,22.079462 156.15211,22.239407 C 156.65132,22.33448 158.08412,22.469706 159.33611,22.539913 C 160.58811,22.610115 162.32916,22.722828 163.20512,22.790375 C 170.37723,23.343479 195.59104,23.39614 201.26921,22.869878 C 204.5798,22.563048 209.79101,21.808945 210.39549,21.549238 C 210.63615,21.44584 211.11936,21.361243 211.4693,21.361243 C 212.21474,21.361243 214.79759,20.539471 214.72543,20.325251 C 214.69827,20.244606 214.58626,20.009299 214.47653,19.802338 C 214.3668,19.595382 214.08251,19.42605 213.84479,19.42605 C 213.60706,19.42605 213.16937,19.159962 212.87214,18.834741 C 212.5749,18.509521 212.06324,18.143865 211.7351,18.022166 C 211.04223,17.7652 210.91635,16.713068 210.6939,9.3200441 C 210.60672,6.422632 210.66112,3.847686 210.36415,3.7832428 C 207.49294,3.1601722 208.23104,8.754021 208.22373,9.0512673 C 208.15935,12.096508 208.27538,15.26513 208.48158,16.092648 C 208.90705,17.800212 208.75404,17.906873 205.48385,18.18231 C 198.11367,18.803088 192.55406,19.027543 183.12421,19.085029 C 173.16725,19.145727 171.03884,19.085402 163.53461,18.52976 C 161.78256,18.400029 159.11993,18.220864 157.61766,18.131616 C 154.60614,17.9527 153.24561,17.748701 152.73185,17.39903 C 152.53889,12.298497 152.20627,7.1857628 152.32133,2.0774054 C 152.42506,-1.4487656 152.50903,-4.5273337 152.50792,-4.7638582 C 152.48878,-8.8589199 152.56922,-10.478707 152.80031,-10.651925 C 152.95465,-10.767605 152.89333,-10.91732 152.66404,-10.984626 C 152.41944,-11.056428 152.33818,-15.918507 152.46742,-22.749129 C 152.58858,-29.152294 152.604,-34.456311 152.5017,-34.535829 C 152.3994,-34.615346 152.36624,-38.302463 152.42801,-42.729424 L 152.54032,-50.77844 L 155.10623,-50.888559 C 156.51748,-50.949125 166.05833,-51.170297 166.52929,-51.180334 C 175.92007,-51.380545 176.7084,-51.289123 184.00724,-51.439441 L 204.71295,-51.489117 C 206.94741,-51.428782 207.14595,-51.380281 207.18222,-50.885951 C 207.40051,-47.910686 207.67418,-29.512253 207.62134,-21.364324 C 207.6008,-18.195357 207.75994,-15.550917 207.97501,-15.487785 C 208.19007,-15.424653 208.29333,-13.242964 208.20447,-10.639587 C 208.1156,-8.0362088 208.15912,-5.8507332 208.30116,-5.7829789 C 208.4432,-5.7152199 208.52176,-4.0793724 208.47572,-2.1477644 C 208.40626,0.76675488 208.0659,5.0401804 208.61105,5.0401804 M 205.80548,19.633341 C 205.21226,19.637874 204.86327,19.752233 204.96165,19.909849 C 205.05393,20.057677 205.24122,20.503303 205.37784,20.900127 C 205.58848,21.511892 205.51123,21.60072 204.86998,21.484154 C 204.45373,21.408489 203.94872,21.470329 203.74677,21.62169 C 203.46621,21.831981 203.23425,21.801313 202.76117,21.491389 C 202.26296,21.165013 201.97167,21.132534 201.26553,21.324628 C 200.77054,21.459287 200.64844,21.566039 200.98519,21.569727 C 201.31332,21.573326 201.4527,21.673026 201.29492,21.791286 C 201.13713,21.90955 200.04565,22.008618 198.86939,22.011439 C 197.69314,22.014259 195.90787,22.112771 194.90213,22.230356 C 190.60302,22.732974 167.53775,22.35347 160.52476,21.664729 C 156.91629,21.310341 153.67915,20.797295 153.68431,20.580604 C 153.68757,20.443954 153.36265,20.272599 152.96227,20.199817 C 152.47695,20.111602 152.34712,19.942667 152.57276,19.693016 C 152.75892,19.487055 152.92411,19.18755 152.93985,19.027444 C 152.96109,18.811323 153.38833,18.772751 154.59867,18.877686 C 155.49528,18.955416 157.0508,19.060154 158.04978,19.128365 C 163.54093,19.503294 157.7393,19.110381 163.85537,19.509487 C 164.52745,19.500498 172.92472,19.654132 182.03901,19.656193 C 198.61336,19.659948 204.32944,19.483117 207.45564,18.869904 C 209.63055,18.443295 209.78222,18.489706 208.19733,19.096854 C 207.4382,19.387666 206.36187,19.629087 205.80548,19.633341 z M 206.46629,19.998497 C 206.1543,19.938851 206.41189,19.890043 207.03873,19.890043 C 207.66556,19.890043 207.92083,19.938851 207.60599,19.998497 C 207.29115,20.058149 206.77829,20.058149 206.46629,19.998497 z M 199.27228,-52.782071 C 197.80795,-52.73215 190.16464,-52.663952 182.28714,-52.630511 C 174.40964,-52.597071 166.83458,-52.505337 165.45367,-52.42665 C 164.07275,-52.347967 161.16862,-52.331968 159.00004,-52.3911 L 155.05717,-52.498611 L 155.0761,-64.109767 C 155.08652,-70.4959 155.03248,-77.207287 154.95602,-79.023951 C 154.87956,-80.840619 154.79287,-86.210778 154.76337,-90.957639 C 154.73388,-95.7045 154.61353,-100.24239 154.49593,-101.04182 C 153.65381,-105.15519 173.17032,-104.50178 178.54796,-104.51434 C 188.44699,-104.49719 191.23456,-104.40397 198.46138,-103.84838 C 199.26708,-103.78644 200.02594,-103.57694 200.14978,-103.38225 C 200.41504,-102.96524 200.66639,-95.903396 200.98892,-79.80633 C 201.42482,-58.050666 201.54657,-53.803078 201.73685,-53.712311 C 201.85532,-53.655797 201.94831,-53.443789 201.94348,-53.241191 C 201.93644,-52.945841 201.40699,-52.854839 199.27228,-52.782071 z M 199.06941,-157.40324 C 195.12663,-157.95201 191.51673,-158.24339 185.83293,-158.47163 C 178.41662,-158.76945 174.36478,-158.75563 166.37396,-158.40526 C 160.27619,-158.13789 157.51426,-157.86169 155.19494,-157.28731 C 153.11946,-156.77332 152.60458,-156.78829 152.29508,-157.37159 C 152.01807,-157.89367 152.8952,-158.49011 153.24918,-158.02037 C 153.36058,-157.87254 153.85213,-157.75159 154.34153,-157.75159 C 155.11341,-157.75159 155.16262,-157.81345 154.71282,-158.21837 C 154.28115,-158.60697 154.33876,-158.73457 155.05685,-158.98028 C 155.53125,-159.1426 156.43338,-159.32235 157.06158,-159.37971 C 157.68978,-159.43707 158.80015,-159.57496 159.52906,-159.68612 C 161.03676,-159.91606 162.28247,-159.70255 160.90797,-159.44978 C 160.07983,-159.29749 160.08642,-159.28599 161.00997,-159.27185 C 161.55303,-159.26354 162.06856,-159.15246 162.1556,-159.02501 C 162.26854,-158.85961 164.20445,-158.86187 168.91801,-159.0329 C 172.55029,-159.1647 175.95057,-159.31516 176.47417,-159.36725 C 177.64755,-159.48399 177.75886,-160.11683 176.606,-160.11683 C 176.14633,-160.11683 175.77268,-160.21983 175.77568,-160.34573 C 175.78178,-160.60179 188.94111,-160.55159 189.27219,-160.29424 C 189.37725,-160.21258 190.58531,-160.03563 191.95677,-159.90103 C 193.32823,-159.76642 194.44854,-159.58118 194.44635,-159.48938 C 194.44417,-159.39757 194.90145,-159.21746 195.46255,-159.08913 C 196.41678,-158.87088 196.42375,-158.8542 195.57036,-158.83098 C 195.0518,-158.81688 195.54,-158.66143 196.70148,-158.47082 C 197.82539,-158.28637 198.99904,-158.03725 199.30959,-157.9172 C 200.13862,-157.59674 199.98842,-157.27533 199.06941,-157.40324 z M 191.32191,-157.41005 C 190.82951,-157.64494 191.62533,-157.80601 192.44506,-157.63737 C 193.22234,-157.47746 193.22135,-157.46587 192.42283,-157.37677 C 191.9632,-157.32549 191.46779,-157.34046 191.32191,-157.41005 z M 192.2907,-156.24644 C 191.8998,-156.24644 191.70907,-156.3432 191.86685,-156.46146 C 192.02463,-156.57972 192.34676,-156.67648 192.5827,-156.67648 C 192.81864,-156.67648 193.00937,-156.57972 193.00655,-156.46146 C 193.00373,-156.3432 192.6816,-156.24644 192.2907,-156.24644 z M 190.97999,-156.66111 C 191.12126,-156.5513 190.79249,-156.46146 190.2494,-156.46146 C 189.55897,-156.46146 189.3432,-156.55847 189.53205,-156.78399 C 189.72661,-157.01632 189.4914,-157.10653 188.69106,-157.10653 C 187.47191,-157.10653 187.53718,-157.61829 188.785,-157.84317 C 189.72669,-158.01288 190.57694,-157.74961 189.80702,-157.52673 C 189.42076,-157.41491 189.83547,-157.2963 191.00386,-157.18442 C 192.33753,-157.05672 192.52899,-156.99386 191.75745,-156.93699 C 191.18858,-156.89506 190.83873,-156.77092 190.97999,-156.66111 z M 187.66661,-156.76159 C 187.51682,-156.83305 187.78729,-156.88386 188.26764,-156.87453 C 188.79847,-156.86421 188.90528,-156.81326 188.53997,-156.74462 C 188.20941,-156.68251 187.81639,-156.69015 187.66661,-156.76159 z M 170.81442,-157.40666 C 170.66464,-157.47811 170.93511,-157.52893 171.41545,-157.51959 C 171.94628,-157.50928 172.05309,-157.45832 171.68779,-157.38969 C 171.35721,-157.32757 170.9642,-157.33521 170.81442,-157.40666 z M 169.4903,-157.42704 C 169.61745,-157.26604 169.47546,-157.08732 169.17476,-157.02988 C 168.87406,-156.97245 169.1404,-156.90489 169.76664,-156.87975 C 171.19687,-156.82234 166.98508,-156.50465 164.51458,-156.48359 C 163.17865,-156.47221 162.87497,-156.52381 163.37947,-156.67648 C 163.87998,-156.82794 163.90516,-156.88582 163.47158,-156.88821 C 163.14341,-156.89002 163.01781,-156.99861 163.19246,-157.12952 C 163.41479,-157.29616 163.04753,-157.32161 161.96772,-157.21438 C 160.83115,-157.10151 160.55537,-157.12493 160.9194,-157.30339 C 161.19109,-157.43658 162.79162,-157.6062 164.47614,-157.68031 C 166.16065,-157.75443 167.64894,-157.89755 167.78343,-157.99835 C 168.08554,-158.22479 169.89294,-158.23713 171.01021,-158.02037 C 171.69584,-157.88735 171.61527,-157.8469 170.55028,-157.78943 C 169.68341,-157.74266 169.33509,-157.62357 169.4903,-157.42704 z M 160.52331,-156.75046 C 160.21607,-156.80936 160.58004,-156.85397 161.33214,-156.84959 C 162.08424,-156.8452 162.33562,-156.79701 161.89076,-156.7425 C 161.44591,-156.68798 160.83055,-156.69156 160.52331,-156.75046 z M 206.8194,16.026025 C 206.88202,15.987151 206.89756,15.339144 206.8194,16.026025 z"
       style="fill:#000000"
       id="path2649" /><path
       d="M 153.60623,17.113386 C 167.29206,19.157967 186.69742,18.470651 207.4706,17.326795"
       style="opacity:0.30555558;fill:none;fill-opacity:0.75;fill-rule:evenodd;stroke:#000000;stroke-width:2.61320925;stroke-linecap:round;stroke-linejoin:miter;stroke-miterlimit:4;stroke-dasharray:none;stroke-opacity:1"
       id="path2651" /></g></g></svg>