<?xml version="1.0" encoding="UTF-8" standalone="no"?>
<!-- Created with Inkscape (http://www.inkscape.org/) -->

<svg
   xmlns:dc="http://purl.org/dc/elements/1.1/"
   xmlns:cc="http://creativecommons.org/ns#"
   xmlns:rdf="http://www.w3.org/1999/02/22-rdf-syntax-ns#"
   xmlns:svg="http://www.w3.org/2000/svg"
   xmlns="http://www.w3.org/2000/svg"
   xmlns:xlink="http://www.w3.org/1999/xlink"
   xmlns:sodipodi="http://sodipodi.sourceforge.net/DTD/sodipodi-0.dtd"
   xmlns:inkscape="http://www.inkscape.org/namespaces/inkscape"
   width="1000"
   height="1000"
   id="svg4910"
   version="1.1"
   inkscape:version="0.47 r22583"
   sodipodi:docname="formulas_24.svg"
   inkscape:export-filename="C:\Users\ramin\Documents\ws\joffice\com.wwindows.office.ooxml.libs\src\com\joffice\ui\resources\images\tools\formulas_24.png"
   inkscape:export-xdpi="2.1600001"
   inkscape:export-ydpi="2.1600001">
  <defs
     id="defs4912">
    <linearGradient
       inkscape:collect="always"
       id="linearGradient5721">
      <stop
         style="stop-color:#ffffff;stop-opacity:1;"
         offset="0"
         id="stop5723" />
      <stop
         style="stop-color:#ffffff;stop-opacity:0;"
         offset="1"
         id="stop5725" />
    </linearGradient>
    <linearGradient
       inkscape:collect="always"
       id="linearGradient5529">
      <stop
         style="stop-color:#ffffff;stop-opacity:0.656"
         offset="0"
         id="stop5531" />
      <stop
         style="stop-color:#ffffff;stop-opacity:0;"
         offset="1"
         id="stop5533" />
    </linearGradient>
    <inkscape:perspective
       sodipodi:type="inkscape:persp3d"
       inkscape:vp_x="0 : 526.18109 : 1"
       inkscape:vp_y="0 : 1000 : 0"
       inkscape:vp_z="744.09448 : 526.18109 : 1"
       inkscape:persp3d-origin="372.04724 : 350.78739 : 1"
       id="perspective4918" />
    <inkscape:perspective
       id="perspective4905"
       inkscape:persp3d-origin="0.5 : 0.33333333 : 1"
       inkscape:vp_z="1 : 0.5 : 1"
       inkscape:vp_y="0 : 1000 : 0"
       inkscape:vp_x="0 : 0.5 : 1"
       sodipodi:type="inkscape:persp3d" />
    <filter
       inkscape:collect="always"
       id="filter5515"
       color-interpolation-filters="sRGB">
      <feGaussianBlur
         inkscape:collect="always"
         stdDeviation="1.3737242"
         id="feGaussianBlur5517" />
    </filter>
    <radialGradient
       inkscape:collect="always"
       xlink:href="#linearGradient5529"
       id="radialGradient5535"
       cx="486.07953"
       cy="434.19193"
       fx="486.07953"
       fy="434.19193"
       r="277.4375"
       gradientTransform="matrix(1.5173354,0.05088871,-0.03763828,1.1222506,-236.08235,-81.911209)"
       gradientUnits="userSpaceOnUse" />
    <filter
       inkscape:collect="always"
       id="filter5668"
       color-interpolation-filters="sRGB">
      <feGaussianBlur
         inkscape:collect="always"
         stdDeviation="1.8860129"
         id="feGaussianBlur5670" />
    </filter>
    <filter
       inkscape:collect="always"
       id="filter5680"
       color-interpolation-filters="sRGB">
      <feGaussianBlur
         inkscape:collect="always"
         stdDeviation="2.3049877"
         id="feGaussianBlur5682" />
    </filter>
    <filter
       inkscape:collect="always"
       id="filter5684"
       color-interpolation-filters="sRGB">
      <feGaussianBlur
         inkscape:collect="always"
         stdDeviation="2.4529951"
         id="feGaussianBlur5686" />
    </filter>
    <filter
       inkscape:collect="always"
       id="filter5712"
       color-interpolation-filters="sRGB">
      <feGaussianBlur
         inkscape:collect="always"
         stdDeviation="1.7491403"
         id="feGaussianBlur5714" />
    </filter>
    <linearGradient
       inkscape:collect="always"
       xlink:href="#linearGradient5721"
       id="linearGradient5727"
       x1="253.39911"
       y1="608.26282"
       x2="289.10999"
       y2="363.6813"
       gradientUnits="userSpaceOnUse" />
    <filter
       inkscape:collect="always"
       id="filter5741"
       color-interpolation-filters="sRGB">
      <feGaussianBlur
         inkscape:collect="always"
         stdDeviation="4.8198046"
         id="feGaussianBlur5743" />
    </filter>
    <linearGradient
       inkscape:collect="always"
       xlink:href="#linearGradient5721"
       id="linearGradient5756"
       x1="364.72714"
       y1="-0.52076697"
       x2="338.10938"
       y2="193.53688"
       gradientUnits="userSpaceOnUse" />
    <filter
       inkscape:collect="always"
       id="filter5774"
       x="-0.020214628"
       width="1.0404294"
       y="-0.16429991"
       height="1.3285998"
       color-interpolation-filters="sRGB">
      <feGaussianBlur
         inkscape:collect="always"
         stdDeviation="3.992126"
         id="feGaussianBlur5776" />
    </filter>
  </defs>
  <sodipodi:namedview
     id="base"
     pagecolor="#ffffff"
     bordercolor="#666666"
     borderopacity="1.0"
     inkscape:pageopacity="0.0"
     inkscape:pageshadow="2"
     inkscape:zoom="0.35455254"
     inkscape:cx="154.66331"
     inkscape:cy="566.99664"
     inkscape:document-units="px"
     inkscape:current-layer="layer2"
     showgrid="false"
     inkscape:window-width="1217"
     inkscape:window-height="918"
     inkscape:window-x="552"
     inkscape:window-y="37"
     inkscape:window-maximized="0" />
  <metadata
     id="metadata4915">
    <rdf:RDF>
      <cc:Work
         rdf:about="">
        <dc:format>image/svg+xml</dc:format>
        <dc:type
           rdf:resource="http://purl.org/dc/dcmitype/StillImage" />
        <dc:title></dc:title>
      </cc:Work>
    </rdf:RDF>
  </metadata>
  <g
     inkscape:groupmode="layer"
     id="layer2"
     inkscape:label="final"
     style="display:inline"
     transform="translate(0,400)">
    <g
       id="g2845"
       transform="matrix(1.682988,0,0,1.682988,-11.557395,-403.16573)">
      <path
         sodipodi:nodetypes="ccsssccccscccssscccsscccssssssccscccccc"
         id="rect4886"
         d="m 669.08434,247.59889 c -124.67058,0.7349 -249.3467,-0.1383 -374.01691,0.3307 -33.87623,0.2722 -40.95704,1.2158 -46.26434,2.0755 -32.00448,5.1843 -45.23031,11.3804 -65.09375,30.5938 -22.93655,22.1859 -38.60957,46.0482 -52.5,79.875 -4.47703,10.9027 -12.02743,32.8108 -15.5,44.9375 l -1.5,5.25 17.375,-0.031 6.34375,-10.2812 c 15.05368,-24.4711 33.05719,-45.1338 47.46875,-54.5 17.98359,-11.6876 41.9967,-17.1622 75.5625,-17.1875 l 11.34375,0 c -2.59894,29.8039 -4.5922,59.6613 -6.75,89.5 -6.7028,93.2426 -6.80304,94.4252 -10.5625,118.5 -10.95429,70.1488 -20.59535,96.734 -49.8125,137.375 -26.32877,36.6233 -30.84823,45.1838 -33.03125,62.5937 -3.03185,24.1795 9.68335,44.3753 33.03125,52.5 10.88818,3.5794 23.55169,3.6494 34.03125,-1.2187 l 0,0.031 c 12.05443,-5.9343 26.10102,-22.3429 34.84375,-40.6876 15.98498,-33.5407 33.7972,-126.3399 46,-239.5937 1.03409,-9.5973 13.03125,-174.3555 13.03125,-178.7938 l 140.25,-0.2062 c -9.2089,64.1871 -14.80198,128.8992 -20.3125,193.5 -1.71456,22.4649 -2.34311,96.7243 -1,117.1563 3.75185,57.0751 12.98883,92.6307 29.90625,115 14.68022,19.4109 32.21365,31.3234 52.8125,35.9062 9.23916,2.0555 28.46383,1.5225 37.84375,-1.0625 15.80602,-4.3559 32.79166,-14.8575 47.0625,-29.0937 18.53653,-18.4918 30.48471,-41.7555 39.46875,-76.9063 3.46404,-13.5533 8.96875,-42.8191 8.96875,-47.5937 l -17.40625,0.3437 c -2.9839,14.4932 -4.15717,19.0072 -6.46875,24.6875 -6.60407,16.2281 -19.40371,28.3006 -36.125,34.1562 -20.73127,6.1896 -42.77197,3.0609 -61.1875,-7.8124 -17.89762,-11.6913 -28.8548,-31.3222 -33.40625,-59.875 -4.76878,-99.6377 6.76971,-199.5849 20.59375,-298.1563 l 135,-0.25 0,-81.0625 z"
         style="fill:#263cff;fill-opacity:1;stroke:none"
         transform="translate(-93.991071,-212.98596)" />
      <path
         style="fill:#132ee9;fill-opacity:1;stroke:none;display:inline;filter:url(#filter5515)"
         d="m 575.09375,34.625 c -124.67058,0.7349 -249.36104,-0.1565 -374.03125,0.3125 -33.87623,0.2722 -40.9427,1.23405 -46.25,2.09375 -32.00448,5.1843 -45.23031,11.38035 -65.09375,30.59375 -22.93655,22.1859 -38.60957,46.0482 -52.5,79.875 -4.47703,10.9027 -12.02743,32.8108 -15.5,44.9375 l -1.5,5.25 17.375,-0.0312 6.34375,-10.28125 c 15.05368,-24.4711 33.05719,-45.1338 47.46875,-54.5 17.98359,-11.6876 41.9967,-17.1622 75.5625,-17.1875 l 11.34375,0 c -2.59894,29.8039 -4.5922,59.6613 -6.75,89.5 -6.7028,93.2426 -6.80304,94.4252 -10.5625,118.5 -10.95429,70.1488 -20.59535,96.734 -49.8125,137.375 -26.32877,36.6233 -30.84823,45.18385 -33.03125,62.59375 -3.03185,24.1795 9.68335,44.3753 33.03125,52.5 10.88818,3.5794 23.55169,3.64935 34.03125,-1.21875 l 0,0.0312 c 12.05443,-5.9343 26.10102,-22.3428 34.84375,-40.6875 15.98498,-33.5407 33.7972,-126.33995 46,-239.59375 1.03409,-9.5973 13.03125,-174.3742 13.03125,-178.8125 l 140.25,-0.1875 c -9.2089,64.1871 -14.80198,128.8992 -20.3125,193.5 -1.71456,22.4649 -2.34311,96.72425 -1,117.15625 3.75185,57.0751 12.98883,92.6307 29.90625,115 14.68022,19.4109 32.21365,31.32345 52.8125,35.90625 9.23916,2.0555 28.46383,1.5225 37.84375,-1.0625 15.80602,-4.3559 32.79166,-14.85755 47.0625,-29.09375 18.53653,-18.4918 30.48471,-41.75545 39.46875,-76.90625 3.46404,-13.5533 8.96875,-42.81915 8.96875,-47.59375 l -17.40625,0.34375 c -2.9839,14.4932 -4.15717,19.0072 -6.46875,24.6875 -6.60407,16.2281 -19.40371,28.30065 -36.125,34.15625 -20.73127,6.1896 -42.77197,3.0608 -61.1875,-7.8125 -17.89762,-11.6913 -28.8548,-31.3222 -33.40625,-59.875 -4.76878,-99.6377 6.76971,-199.58485 20.59375,-298.15625 l 135,-0.25 0,-81.0625 z m -6.375,6.34375 0,68.3125 -128.625,0.25 a 6.3725444,6.3725444 0 0 0 -6.3125,5.5 C 419.94266,213.70639 408.32303,314.04381 413.125,414.375 a 6.3725444,6.3725444 0 0 0 0.0937,0.6875 c 4.73023,29.67438 16.55264,51.39263 36.1875,64.21875 a 6.3725444,6.3725444 0 0 0 0.25,0.15625 c 19.87144,11.73293 43.76841,15.11843 66.25,8.40625 a 6.3725444,6.3725444 0 0 0 0.28125,-0.0937 c 18.34239,-6.42329 32.66583,-19.88141 39.9375,-37.75 2.08809,-5.13111 3.53399,-10.76826 5.6875,-20.8125 l 5.0625,-0.0937 c -0.003,0.0165 0.003,0.0147 0,0.0312 -0.55523,3.53173 -1.3231,7.99377 -2.21875,12.75 -1.79129,9.51246 -4.05868,20.22361 -5.71875,26.71875 -8.81543,34.49111 -20.16719,56.3972 -37.78125,73.96875 -13.59033,13.55734 -29.84564,23.46788 -44.25,27.4375 -7.44633,2.05213 -27.59904,2.59788 -34.78125,1 -19.06215,-4.24092 -35.12935,-15.06684 -49.09375,-33.53125 -15.63106,-20.66839 -24.93794,-54.99762 -28.65625,-111.5625 -1.26789,-19.28767 -0.6413,-94.67098 1,-116.21875 5.2e-4,-0.007 -5.2e-4,-0.0244 0,-0.0312 5.50926,-64.58571 11.10781,-129.15382 20.28125,-193.09375 a 6.3725444,6.3725444 0 0 0 -6.3125,-7.28125 l -140.25,0.21875 a 6.3725444,6.3725444 0 0 0 -6.375,6.375 c 0,-0.44027 -0.0383,0.82033 -0.125,2.25 -0.0867,1.42967 -0.21044,3.40796 -0.375,5.875 -0.32912,4.93409 -0.80486,11.76979 -1.375,19.875 -1.14029,16.21042 -2.65477,37.53361 -4.21875,59 -1.56398,21.46639 -3.16796,43.08178 -4.4375,59.9375 -1.26954,16.85572 -2.27765,29.38269 -2.46875,31.15625 -6.08588,56.48288 -13.56782,107.86939 -21.5,149.1875 -7.93218,41.31811 -16.5002,72.8039 -23.90625,88.34375 -8.17885,17.16153 -22.05604,32.72896 -31.6875,37.59375 a 6.3725444,6.3725444 0 0 0 -0.0937,0.0312 c -8.65147,4.01889 -19.75122,4.06739 -29.25,0.96875 -0.0134,-0.005 -0.0178,-0.0266 -0.0312,-0.0312 -0.0191,-0.006 -0.0434,0.006 -0.0625,0 -20.86657,-7.30179 -31.41837,-24.12684 -28.7188,-45.65635 1.04001,-8.29426 2.39266,-13.59038 6.78125,-21.90625 4.38859,-8.31587 11.9971,-19.4891 25.125,-37.75 29.59812,-41.17093 39.90189,-69.65557 50.90625,-140.125 3.7617,-24.08917 3.92215,-25.75671 10.625,-119 2.15949,-29.86213 4.15856,-59.68836 6.75,-89.40625 a 6.3725444,6.3725444 0 0 0 -6.34375,-6.9375 l -11.34375,0 C 132.7124,109.30707 107.33187,114.89553 87.9375,127.5 71.96872,137.87825 53.90291,158.9612 38.5,184 l -4.46875,7.25 -5.25,0.0312 C 32.40507,179.14736 39.10458,159.66574 43.125,149.875 56.77565,116.63214 71.81818,93.7945 94.15625,72.1875 113.4958,53.48084 124.3568,48.38172 155.84375,43.28125 c 5.14009,-0.83261 11.52475,-1.69699 45.25,-1.96875 0.0104,-4e-5 0.0208,4e-5 0.0312,0 122.48053,-0.46054 245.01596,0.32596 367.59375,-0.34375 z"
         id="path5537" />
      <path
         id="path5562"
         d="m 512.71875,105.125 -72.625,0.15625 c -5.14671,-0.73855 -10.88796,4.66996 -10.4375,9.125 l -0.0625,0 C 418.5139,204.97184 404.55993,297.74376 408.125,395.125 c -0.7548,8.74637 5.85398,33.50656 10.34375,38.375 -1.76316,-5.78211 -3.16577,-11.98806 -4.21875,-18.59375 -5.29166,-98.42636 7.34139,-200.41967 20.59375,-299.75 l -0.125,-0.0312 c 0.86224,-1.82192 2.23319,-4.21888 5.375,-4.53125 l 129.6875,-0.25 0,-3.03125 -57.0625,-2.1875 z"
         style="fill:#ffffff;fill-opacity:1;stroke:none;display:inline;filter:url(#filter5684)" />
      <path
         id="path5576"
         d="m 568.09375,428 -4.3125,0.0625 c -1.95842,11.83849 -5.63932,22.84702 -9.03125,33.96875 0.68347,-1.11078 1.34462,-2.22115 1.96875,-3.375 -0.6446,2.89325 -1.36439,6.75491 -1.90625,8.875 -8.70581,34.06221 -19.6462,55.06225 -36.65625,72.03125 -13.1242,13.09235 -28.92893,22.63822 -42.375,26.34375 -5.73749,1.58119 -27.37246,2.12693 -32.71875,0.9375 -13.9997,-3.11463 -26.2111,-9.87717 -37.28125,-21.0625 6.47274,9.6622 15.33098,17.16305 24.65625,22.75 3.70515,1.44464 7.52154,2.62183 11.46875,3.5 7.52572,1.6743 27.512,1.14112 35.28125,-1 14.63844,-4.03413 31.01478,-14.04804 44.71875,-27.71875 17.76811,-17.72523 29.21891,-39.86747 38.0625,-74.46875 1.67208,-6.54215 3.92447,-17.22168 5.71875,-26.75 0.89714,-4.76416 1.69227,-9.26488 2.25,-12.8125 0.10631,-0.67622 0.0694,-0.66065 0.15625,-1.28125 z"
         style="fill:#ffffff;fill-opacity:1;stroke:none;display:inline;filter:url(#filter5680)" />
      <path
         id="path5565"
         d="m 322.625,105.125 -83.53125,0.125 c -2.97143,0.0318 -5.93559,1.08177 -7.8125,3.125 -2.74271,2.98576 -2.99017,9.94207 -3.3125,15.375 -0.32834,4.92236 -0.80497,11.74003 -1.375,19.84375 -1.14013,16.20822 -2.65516,37.5077 -4.21875,58.96875 -1.56371,21.46267 -3.16827,43.08592 -4.4375,59.9375 -1.26872,16.84482 -2.30403,29.7925 -2.4375,31.03125 -1.70573,15.83088 -3.53291,31.24978 -5.4375,46.15625 l 0,0.0312 c -0.4695,3.67802 -0.95771,7.29144 -1.4375,10.90625 -0.1415,1.06607 -0.26389,2.15837 -0.40625,3.21875 -0.0611,0.45446 -0.12629,0.92159 -0.1875,1.375 -4.33405,32.12223 -9.06802,61.59748 -13.96875,87.125 -7.90058,41.15355 -16.56844,72.66837 -23.5625,87.34375 -7.79045,16.34653 -21.88988,31.6032 -29.75,35.59375 a 5.3124657,5.3124657 0 0 0 -0.0312,0 c -7.38279,3.42954 -17.49634,3.57251 -26.03125,0.8125 -0.0308,-0.01 -0.0631,-0.0213 -0.0937,-0.0312 a 5.3124657,5.3124657 0 0 0 -0.0312,-0.0312 c -0.0836,-0.0274 -0.10831,-0.008 -0.1875,-0.0312 -9.76336,-3.46237 -16.88336,-8.8936 -21.1875,-16 1.04482,6.89596 5.897272,12.69202 12.5,18 2.23917,1.1642 4.61522,2.20463 7.15625,3.09375 0.0191,0.006 0.0434,-0.006 0.0625,0 0.0134,0.005 0.0178,0.0267 0.0312,0.0312 9.72734,3.17396 21.07945,3.12715 30.03125,-1.03125 a 5.3083196,5.3083196 0 0 1 0.1875,-0.0625 c 10.02251,-5.08838 23.87635,-20.75453 32.125,-38.0625 7.50399,-15.74535 16.06042,-47.26831 24,-88.625 3.0084,-15.67053 5.93062,-32.85189 8.75,-51.15625 l 0,0.25 c 0.37482,-2.42487 0.72318,-4.90954 1.09375,-7.375 0.63189,-4.2041 1.25637,-8.46395 1.875,-12.78125 0.62012,-4.32775 1.23809,-8.68963 1.84375,-13.125 0.0788,-0.57788 0.17142,-1.17039 0.25,-1.75 2.73189,-20.13539 5.31968,-41.33682 7.6875,-63.3125 0.20236,-1.87807 1.19911,-14.33042 2.46875,-31.1875 1.26964,-16.85708 2.87347,-38.50168 4.4375,-59.96875 1.56403,-21.46707 3.07836,-42.7569 4.21875,-58.96875 0.57019,-8.10593 1.04572,-14.93855 1.375,-19.875 0.18355,-2.71362 0.36042,-5.57122 0.5,-8.21875 -0.002,-2.78222 2.53028,-5.31469 5.3125,-5.3125 l 140.25,-0.21875 0,-2.59375 -56.71875,-2.625 z"
         style="fill:#ffffff;fill-opacity:1;stroke:none;display:inline;filter:url(#filter5668)" />
      <path
         id="path5545"
         d="m 155.90625,105.25 c -29.31511,1.14168 -52.20222,6.91757 -70.3125,18.6875 -15.611109,10.1458 -32.200073,29.29904 -46.9375,52.09375 -0.01238,0.03 -0.01887,0.0637 -0.03125,0.0937 -2.182343,5.29441 -4.380295,10.81387 -6.46875,16.1875 l 2.46875,0 4.78125,-7.75 c 15.34459,-24.944 33.38503,-45.94696 49.09375,-56.1562 19.15877,-12.45135 44.32772,-18.03677 78.46875,-18.0625 l 11.34375,0 0,-2.375 -22.40625,-2.71875 z"
         style="fill:#ffffff;fill-opacity:1;stroke:none;display:inline;filter:url(#filter5712)" />
      <path
         id="path5718"
         d="m 136.21875,419.625 c -6.44227,13.78696 -14.43735,26.7014 -25.03125,41.4375 -26.32877,36.6233 -30.84823,45.18385 -33.03125,62.59375 -3.03185,24.1795 9.68335,44.3753 33.03125,52.5 10.88818,3.5794 23.55169,3.64935 34.03125,-1.21875 l 0,0.0312 c 12.05443,-5.9343 26.10102,-22.3428 34.84375,-40.6875 6.98052,-14.64697 14.31687,-40.60829 21.375,-74.625 -20.89902,-10.97384 -42.58474,-24.186 -65.21875,-40.0312 z M 561.25,483.96875 c -62.14504,11.26048 -123.00377,26.14263 -190.15625,23.34375 4.46581,13.8362 10.02858,25.01979 16.84375,34.03125 14.68022,19.4109 32.21365,31.32345 52.8125,35.90625 9.23916,2.0555 28.46383,1.5225 37.84375,-1.0625 15.80602,-4.3559 32.79166,-14.85755 47.0625,-29.09375 15.9933,-15.95471 27.0817,-35.49567 35.59375,-63.125 z"
         style="fill:url(#linearGradient5727);fill-opacity:1;stroke:none;filter:url(#filter5741)" />
      <path
         id="path5745"
         d="m 575.09375,34.625 c -124.67058,0.7349 -249.36104,-0.1565 -374.03125,0.3125 -33.87623,0.2722 -40.9427,1.23405 -46.25,2.09375 -25.54983,4.138732 -39.14219,8.932165 -53.6875,20.46875 87.11065,22.437297 292.81636,63.25543 473.96875,7.0625 l 0,-29.9375 z"
         style="fill:url(#linearGradient5756);fill-opacity:1;stroke:#000000;stroke-width:0.5941813px;stroke-linecap:butt;stroke-linejoin:miter;stroke-opacity:1;filter:url(#filter5774)" />
      <path
         transform="translate(-93.991071,-212.98596)"
         style="fill:url(#radialGradient5535);fill-opacity:1;stroke:none;display:inline"
         d="m 666.7878,245.30235 c -124.67058,0.7349 -249.3467,-0.1383 -374.01691,0.3307 -33.87623,0.2722 -40.95704,1.2158 -46.26434,2.0755 -32.00448,5.1843 -45.23031,11.3804 -65.09375,30.5938 -22.93655,22.1859 -38.60957,46.0482 -52.5,79.875 -4.47703,10.9027 -12.02743,32.8108 -15.5,44.9375 l -1.5,5.25 17.375,-0.031 6.34375,-10.2812 c 15.05368,-24.4711 33.05719,-45.1338 47.46875,-54.5 17.98359,-11.6876 41.9967,-17.1622 75.5625,-17.1875 l 11.34375,0 c -2.59894,29.8039 -4.5922,59.6613 -6.75,89.5 -6.7028,93.2426 -6.80304,94.4252 -10.5625,118.5 -10.95429,70.1488 -20.59535,96.734 -49.8125,137.375 -26.32877,36.6233 -30.84823,45.1838 -33.03125,62.5937 -3.03185,24.1795 9.68335,44.3753 33.03125,52.5 10.88818,3.5794 23.55169,3.6494 34.03125,-1.2187 l 0,0.031 c 12.05443,-5.9343 26.10102,-22.3429 34.84375,-40.6876 15.98498,-33.5407 33.7972,-126.3399 46,-239.5937 1.03409,-9.5973 13.03125,-174.3555 13.03125,-178.7938 l 140.25,-0.2062 c -9.2089,64.1871 -14.80198,128.8992 -20.3125,193.5 -1.71456,22.4649 -2.34311,96.7243 -1,117.1563 3.75185,57.0751 12.98883,92.6307 29.90625,115 14.68022,19.4109 32.21365,31.3234 52.8125,35.9062 9.23916,2.0555 28.46383,1.5225 37.84375,-1.0625 15.80602,-4.3559 32.79166,-14.8575 47.0625,-29.0937 18.53653,-18.4918 30.48471,-41.7555 39.46875,-76.9063 3.46404,-13.5533 8.96875,-42.8191 8.96875,-47.5937 l -17.40625,0.3437 c -2.9839,14.4932 -4.15717,19.0072 -6.46875,24.6875 -6.60407,16.2281 -19.40371,28.3006 -36.125,34.1562 -20.73127,6.1896 -42.77197,3.0609 -61.1875,-7.8124 -17.89762,-11.6913 -28.8548,-31.3222 -33.40625,-59.875 -4.76878,-99.6377 6.76971,-199.5849 20.59375,-298.1563 l 135,-0.25 0,-81.0625 z"
         id="path5519"
         sodipodi:nodetypes="ccsssccccscccssscccsscccssssssccscccccc" />
    </g>
  </g>
</svg>
