<?xml version="1.0" encoding="UTF-8" standalone="no"?>
<!-- Created with Inkscape (http://www.inkscape.org/) -->

<svg
   xmlns:dc="http://purl.org/dc/elements/1.1/"
   xmlns:cc="http://creativecommons.org/ns#"
   xmlns:rdf="http://www.w3.org/1999/02/22-rdf-syntax-ns#"
   xmlns:svg="http://www.w3.org/2000/svg"
   xmlns="http://www.w3.org/2000/svg"
   xmlns:xlink="http://www.w3.org/1999/xlink"
   xmlns:sodipodi="http://sodipodi.sourceforge.net/DTD/sodipodi-0.dtd"
   xmlns:inkscape="http://www.inkscape.org/namespaces/inkscape"
   width="32"
   height="32"
   id="svg27991"
   sodipodi:version="0.32"
   inkscape:version="0.48.4 r9939"
   version="1.0"
   sodipodi:docname="full_screen_reading.svg"
   inkscape:output_extension="org.inkscape.output.svg.inkscape"
   inkscape:export-filename="C:\data\ws\joffice_migration_1\com.joffice.client.resources\src\com\joffice\ui\resources\images\tools\full_screen_reading_32.png"
   inkscape:export-xdpi="90"
   inkscape:export-ydpi="90">
  <defs
     id="defs27993">
    <inkscape:perspective
       sodipodi:type="inkscape:persp3d"
       inkscape:vp_x="0 : 526.18109 : 1"
       inkscape:vp_y="0 : 1000 : 0"
       inkscape:vp_z="744.09448 : 526.18109 : 1"
       inkscape:persp3d-origin="372.04724 : 350.78739 : 1"
       id="perspective27999" />
    <linearGradient
       y2="63.728889"
       x2="38.487259"
       y1="44.142014"
       x1="-2.4459105"
       gradientTransform="matrix(-1,0,-1.6326162,1,132.73249,0)"
       gradientUnits="userSpaceOnUse"
       id="linearGradient27965"
       xlink:href="#linearGradient7162"
       inkscape:collect="always" />
    <linearGradient
       y2="63.728889"
       x2="38.487259"
       y1="44.142014"
       x1="-2.4459105"
       gradientTransform="matrix(-1,0,-1.6326162,1,132.73249,0)"
       gradientUnits="userSpaceOnUse"
       id="linearGradient4163"
       xlink:href="#linearGradient7162"
       inkscape:collect="always" />
    <inkscape:perspective
       id="perspective2853"
       inkscape:persp3d-origin="372.04724 : 350.78739 : 1"
       inkscape:vp_z="744.09448 : 526.18109 : 1"
       inkscape:vp_y="0 : 1000 : 0"
       inkscape:vp_x="0 : 526.18109 : 1"
       sodipodi:type="inkscape:persp3d" />
    <linearGradient
       gradientTransform="matrix(-1,0,-1.6326162,1,132.73249,0)"
       gradientUnits="userSpaceOnUse"
       y2="63.728889"
       x2="38.487259"
       y1="44.142014"
       x1="-2.4459105"
       id="linearGradient7168"
       xlink:href="#linearGradient7162"
       inkscape:collect="always" />
    <linearGradient
       id="linearGradient7162">
      <stop
         id="stop7164"
         offset="0"
         style="stop-color:#8888c4;stop-opacity:1;" />
      <stop
         id="stop7166"
         offset="1"
         style="stop-color:#333366;stop-opacity:1;" />
    </linearGradient>
    <radialGradient
       gradientUnits="userSpaceOnUse"
       gradientTransform="matrix(1,0,0,0.284916,0,30.08928)"
       r="15.821514"
       fy="42.07798"
       fx="24.306795"
       cy="42.07798"
       cx="24.306795"
       id="radialGradient4548"
       xlink:href="#linearGradient4542"
       inkscape:collect="always" />
    <linearGradient
       id="linearGradient259">
      <stop
         style="stop-color:#fafafa;stop-opacity:1.0000000;"
         offset="0.0000000"
         id="stop260" />
      <stop
         style="stop-color:#bbbbbb;stop-opacity:1.0000000;"
         offset="1.0000000"
         id="stop261" />
    </linearGradient>
    <linearGradient
       id="linearGradient269">
      <stop
         style="stop-color:#a3a3a3;stop-opacity:1.0000000;"
         offset="0.0000000"
         id="stop270" />
      <stop
         style="stop-color:#4c4c4c;stop-opacity:1.0000000;"
         offset="1.0000000"
         id="stop271" />
    </linearGradient>
    <radialGradient
       gradientUnits="userSpaceOnUse"
       fy="114.5684"
       fx="20.892099"
       r="5.256"
       cy="114.5684"
       cx="20.892099"
       id="aigrd2">
      <stop
         id="stop15566"
         style="stop-color:#F0F0F0"
         offset="0" />
      <stop
         id="stop15568"
         style="stop-color:#9a9a9a;stop-opacity:1.0000000;"
         offset="1.0000000" />
    </radialGradient>
    <radialGradient
       gradientUnits="userSpaceOnUse"
       fy="64.567902"
       fx="20.892099"
       r="5.257"
       cy="64.567902"
       cx="20.892099"
       id="aigrd3">
      <stop
         id="stop15573"
         style="stop-color:#F0F0F0"
         offset="0" />
      <stop
         id="stop15575"
         style="stop-color:#9a9a9a;stop-opacity:1.0000000;"
         offset="1.0000000" />
    </radialGradient>
    <linearGradient
       id="linearGradient15662">
      <stop
         style="stop-color:#ffffff;stop-opacity:1.0000000;"
         offset="0.0000000"
         id="stop15664" />
      <stop
         style="stop-color:#f8f8f8;stop-opacity:1.0000000;"
         offset="1.0000000"
         id="stop15666" />
    </linearGradient>
    <linearGradient
       id="linearGradient4542"
       inkscape:collect="always">
      <stop
         id="stop4544"
         offset="0"
         style="stop-color:#000000;stop-opacity:1;" />
      <stop
         id="stop4546"
         offset="1"
         style="stop-color:#000000;stop-opacity:0;" />
    </linearGradient>
    <linearGradient
       y2="7.1090999"
       x2="21.9326"
       y1="24.627399"
       x1="21.9326"
       gradientUnits="userSpaceOnUse"
       id="linearGradient7648">
      <stop
         id="stop7650"
         style="stop-color:#8595bc;stop-opacity:1;"
         offset="0" />
      <stop
         id="stop7652"
         style="stop-color:#041a3b;stop-opacity:1;"
         offset="1" />
    </linearGradient>
    <linearGradient
       id="linearGradient5048">
      <stop
         id="stop5050"
         offset="0"
         style="stop-color:black;stop-opacity:0;" />
      <stop
         style="stop-color:black;stop-opacity:1;"
         offset="0.5"
         id="stop5056" />
      <stop
         id="stop5052"
         offset="1"
         style="stop-color:black;stop-opacity:0;" />
    </linearGradient>
    <inkscape:perspective
       id="perspective91"
       inkscape:persp3d-origin="24 : 16 : 1"
       inkscape:vp_z="48 : 24 : 1"
       inkscape:vp_y="0 : 1000 : 0"
       inkscape:vp_x="0 : 24 : 1"
       sodipodi:type="inkscape:persp3d" />
    <radialGradient
       gradientUnits="userSpaceOnUse"
       gradientTransform="matrix(1,0,0,0.284916,0,30.08928)"
       r="15.821514"
       fy="42.07798"
       fx="24.306795"
       cy="42.07798"
       cx="24.306795"
       id="radialGradient4110"
       xlink:href="#linearGradient4542"
       inkscape:collect="always" />
    <linearGradient
       id="linearGradient4104">
      <stop
         style="stop-color:#fafafa;stop-opacity:1.0000000;"
         offset="0.0000000"
         id="stop4106" />
      <stop
         style="stop-color:#bbbbbb;stop-opacity:1.0000000;"
         offset="1.0000000"
         id="stop4108" />
    </linearGradient>
    <linearGradient
       id="linearGradient4098">
      <stop
         style="stop-color:#a3a3a3;stop-opacity:1.0000000;"
         offset="0.0000000"
         id="stop4100" />
      <stop
         style="stop-color:#4c4c4c;stop-opacity:1.0000000;"
         offset="1.0000000"
         id="stop4102" />
    </linearGradient>
    <radialGradient
       gradientUnits="userSpaceOnUse"
       fy="114.5684"
       fx="20.892099"
       r="5.256"
       cy="114.5684"
       cx="20.892099"
       id="radialGradient4092">
      <stop
         id="stop4094"
         style="stop-color:#F0F0F0"
         offset="0" />
      <stop
         id="stop4096"
         style="stop-color:#9a9a9a;stop-opacity:1.0000000;"
         offset="1.0000000" />
    </radialGradient>
    <radialGradient
       gradientUnits="userSpaceOnUse"
       fy="64.567902"
       fx="20.892099"
       r="5.257"
       cy="64.567902"
       cx="20.892099"
       id="radialGradient4086">
      <stop
         id="stop4088"
         style="stop-color:#F0F0F0"
         offset="0" />
      <stop
         id="stop4090"
         style="stop-color:#9a9a9a;stop-opacity:1.0000000;"
         offset="1.0000000" />
    </radialGradient>
    <linearGradient
       id="linearGradient4080">
      <stop
         style="stop-color:#ffffff;stop-opacity:1.0000000;"
         offset="0.0000000"
         id="stop4082" />
      <stop
         style="stop-color:#f8f8f8;stop-opacity:1.0000000;"
         offset="1.0000000"
         id="stop4084" />
    </linearGradient>
    <linearGradient
       y2="7.1090999"
       x2="21.9326"
       y1="24.627399"
       x1="21.9326"
       gradientUnits="userSpaceOnUse"
       id="linearGradient4068">
      <stop
         id="stop4070"
         style="stop-color:#8595bc;stop-opacity:1;"
         offset="0" />
      <stop
         id="stop4072"
         style="stop-color:#041a3b;stop-opacity:1;"
         offset="1" />
    </linearGradient>
    <linearGradient
       id="linearGradient4060">
      <stop
         id="stop4062"
         offset="0"
         style="stop-color:black;stop-opacity:0;" />
      <stop
         style="stop-color:black;stop-opacity:1;"
         offset="0.5"
         id="stop4064" />
      <stop
         id="stop4066"
         offset="1"
         style="stop-color:black;stop-opacity:0;" />
    </linearGradient>
    <inkscape:perspective
       id="perspective4055"
       inkscape:persp3d-origin="24 : 16 : 1"
       inkscape:vp_z="48 : 24 : 1"
       inkscape:vp_y="0 : 1000 : 0"
       inkscape:vp_x="0 : 24 : 1"
       sodipodi:type="inkscape:persp3d" />
    <linearGradient
       inkscape:collect="always"
       xlink:href="#linearGradient7648"
       id="linearGradient4210"
       gradientUnits="userSpaceOnUse"
       gradientTransform="matrix(1.098989,0,0,-0.797757,-1.953865,37.324)"
       x1="21.9326"
       y1="24.627399"
       x2="21.9326"
       y2="7.1090999" />
    <radialGradient
       inkscape:collect="always"
       xlink:href="#linearGradient259"
       id="radialGradient4237"
       gradientUnits="userSpaceOnUse"
       gradientTransform="matrix(21.186816,0,0,22.965574,448.85494,-34.9009)"
       cx="33.966679"
       cy="35.736916"
       fx="33.966679"
       fy="35.736916"
       r="86.70845" />
    <radialGradient
       inkscape:collect="always"
       xlink:href="#linearGradient259"
       id="radialGradient4413"
       gradientUnits="userSpaceOnUse"
       gradientTransform="matrix(21.186816,0,0,22.965574,448.85494,-34.9009)"
       cx="33.966679"
       cy="35.736916"
       fx="33.966679"
       fy="35.736916"
       r="86.70845" />
    <linearGradient
       inkscape:collect="always"
       xlink:href="#linearGradient7648"
       id="linearGradient4415"
       gradientUnits="userSpaceOnUse"
       gradientTransform="matrix(1.098989,0,0,-0.797757,-1.953865,37.324)"
       x1="21.9326"
       y1="24.627399"
       x2="21.9326"
       y2="7.1090999" />
    <linearGradient
       y2="978.1759"
       x2="345.71426"
       y1="-241.92688"
       x1="345.71426"
       gradientTransform="matrix(1.584721,0,0,1.584721,376.50863,-156.11183)"
       gradientUnits="userSpaceOnUse"
       id="linearGradient5681"
       xlink:href="#linearGradient4103"
       inkscape:collect="always" />
    <clipPath
       id="clipPath5677"
       clipPathUnits="userSpaceOnUse">
      <rect
         style="fill:url(#linearGradient5681);fill-opacity:1;stroke:none;display:inline"
         id="rect5679"
         width="3599.5803"
         height="1625.4709"
         x="-782.60162"
         y="-231.60446"
         rx="33.340881"
         ry="20.374983" />
    </clipPath>
    <linearGradient
       y2="978.1759"
       x2="345.71426"
       y1="-241.92688"
       x1="345.71426"
       gradientTransform="matrix(1.6797926,0,0,1.6797926,437.49164,-163.81932)"
       gradientUnits="userSpaceOnUse"
       id="linearGradient5675"
       xlink:href="#linearGradient4103"
       inkscape:collect="always" />
    <clipPath
       id="clipPath5671"
       clipPathUnits="userSpaceOnUse">
      <rect
         ry="21.597332"
         rx="35.341087"
         y="-243.84096"
         x="-791.15668"
         height="1722.9872"
         width="3815.5286"
         id="rect5673"
         style="fill:url(#linearGradient5675);fill-opacity:1;stroke:none;display:inline" />
    </clipPath>
    <filter
       id="filter5575"
       height="1.4381042"
       y="-0.21905209"
       width="1.1916651"
       x="-0.095832475"
       inkscape:collect="always"
       color-interpolation-filters="sRGB">
      <feGaussianBlur
         id="feGaussianBlur5577"
         stdDeviation="18.254341"
         inkscape:collect="always" />
    </filter>
    <clipPath
       id="clipPath5495"
       clipPathUnits="userSpaceOnUse">
      <path
         style="opacity:0.89333346;fill:#fdfdfd;fill-opacity:1;stroke:none"
         d="m 1101.0612,-136.20977 c -48.5125,0 -90.277,11.92993 -108.88454,29.029 -4.26886,-0.29482 -8.60949,-0.45761 -13.01987,-0.45757 -57.89159,0 -104.88447,26.515856 -104.88447,59.185249 0,28.5915 35.99558,52.4645711 83.786,57.9798926 14.84828,30.9194284 81.28058,54.2633924 160.92478,54.2634284 90.5484,0 164.0426,-30.16825 164.0426,-67.3437856 l -0.1177,-1.0825714 c 29.3337,-9.232036 48.5206,-24.501536 48.5206,-41.774571 l -0.4216,-4.386143 c -5.1006,-26.509358 -53.9674,-46.620643 -113.3258,-46.640643 -11.4801,-22.433396 -59.4055,-38.772326 -116.62,-38.772286 z"
         id="path5497"
         inkscape:connector-curvature="0" />
    </clipPath>
    <filter
       id="filter5445"
       height="1.4376169"
       y="-0.21880852"
       width="1.1914518"
       x="-0.095725909"
       inkscape:collect="always"
       color-interpolation-filters="sRGB">
      <feGaussianBlur
         id="feGaussianBlur5447"
         stdDeviation="18.234042"
         inkscape:collect="always" />
    </filter>
    <clipPath
       id="clipPath5381"
       clipPathUnits="userSpaceOnUse">
      <path
         id="path5383"
         d="m 66.775486,-44.781199 c -48.5125,0 -90.277,11.92993 -108.88454,29.029 -4.26886,-0.29482 -8.60949,-0.45761 -13.01987,-0.45757 -57.891586,0 -104.884466,26.515856 -104.884466,59.185249 0,28.5915 35.99558,52.464571 83.785996,57.97989 14.84828,30.91943 81.2805803,54.2634 160.92478,54.26343 90.548404,0 164.042604,-30.16825 164.042604,-67.343784 l -0.1177,-1.082572 c 29.3337,-9.232036 48.5206,-24.501536 48.5206,-41.774571 l -0.4216,-4.386143 C 291.62069,14.122372 242.75389,-5.9889126 183.39549,-6.0089126 171.91539,-28.442309 123.98999,-44.781239 66.775486,-44.781199 z"
         style="opacity:0.89333346;fill:#fdfdfd;fill-opacity:1;stroke:none"
         inkscape:connector-curvature="0" />
    </clipPath>
    <filter
       id="filter4962"
       height="1.5286956"
       y="-0.26434782"
       width="1.4963264"
       x="-0.24816327"
       inkscape:collect="always"
       color-interpolation-filters="sRGB">
      <feGaussianBlur
         id="feGaussianBlur4964"
         stdDeviation="57.904762"
         inkscape:collect="always" />
    </filter>
    <radialGradient
       gradientUnits="userSpaceOnUse"
       gradientTransform="matrix(1.3896636,0.7071731,-0.555426,1.0914658,234.03392,455.11869)"
       r="284.19949"
       fy="-27.637817"
       fx="-640"
       cy="-27.637817"
       cx="-640"
       id="radialGradient4647"
       xlink:href="#linearGradient4641"
       inkscape:collect="always" />
    <linearGradient
       y2="1831.1267"
       x2="428.5249"
       y1="543.41498"
       x1="404.28125"
       gradientUnits="userSpaceOnUse"
       id="linearGradient4263"
       xlink:href="#linearGradient4238"
       inkscape:collect="always" />
    <linearGradient
       y2="1096.6478"
       x2="-242.85715"
       y1="605.08643"
       x1="-242.85715"
       gradientUnits="userSpaceOnUse"
       id="linearGradient4261"
       xlink:href="#linearGradient4180"
       inkscape:collect="always" />
    <linearGradient
       y2="978.1759"
       x2="345.71426"
       y1="-241.92688"
       x1="345.71426"
       gradientTransform="translate(251.42857,-90.686047)"
       gradientUnits="userSpaceOnUse"
       id="linearGradient4257"
       xlink:href="#linearGradient4103"
       inkscape:collect="always" />
    <clipPath
       id="clipPath4253"
       clipPathUnits="userSpaceOnUse">
      <path
         id="path4255"
         d="m -458.94643,-138.33036 c -11.65558,0 -21.0625,5.75214 -21.0625,12.875 l 0,830.03125 0,169.96875 0,639.99996 c 0,7.1229 9.40694,12.8439 21.0625,12.8437 l 2229.34383,0 c 11.6555,0 21.0312,-5.7209 21.0312,-12.8437 l 0,-639.99996 0,-67.40625 0,-932.59375 c 0,-7.12286 -9.3757,-12.875 -21.0312,-12.875 l -2229.34383,0 z"
         style="fill:url(#linearGradient4257);fill-opacity:1;stroke:none"
         inkscape:connector-curvature="0" />
    </clipPath>
    <clipPath
       id="clipPath4234"
       clipPathUnits="userSpaceOnUse">
      <path
         id="path4236"
         d="m -1433.2321,-115.47321 c -11.6556,0 -21.0625,5.75214 -21.0625,12.875 l 0,830.03125 c 73.6816,-9.90724 153.8525,-15.0625 237.1562,-15.0625 343.81713,-10e-6 484.30572,44.11748 822.84376,235.71875 342.85713,194.04571 775.268,461.42401 -891.40626,464.28121 -60.1048,0.1033 -116.4839,-9.3981 -168.5937,-25.9374 l 0,150.9687 c 0,7.1229 9.4069,12.844 21.0625,12.8437 l 2229.34376,0 c 11.6555,0 21.0312,-5.7209 21.0312,-12.8437 l 0,-640.00001 0,-67.40625 0,-932.59375 c 0,-7.12286 -9.3758,-12.875 -21.0312,-12.875 l -2229.34376,0 z"
         style="fill:#9cf000;fill-opacity:1;stroke:none"
         inkscape:connector-curvature="0" />
    </clipPath>
    <linearGradient
       y2="994.63672"
       x2="-248.57143"
       y1="405.21933"
       x1="-242.85715"
       gradientUnits="userSpaceOnUse"
       id="linearGradient4200"
       xlink:href="#linearGradient4191"
       inkscape:collect="always" />
    <linearGradient
       gradientTransform="translate(0,-153.54319)"
       gradientUnits="userSpaceOnUse"
       y2="978.1759"
       x2="345.71426"
       y1="-241.92688"
       x1="345.71426"
       id="linearGradient4109"
       xlink:href="#linearGradient4103"
       inkscape:collect="always" />
    <linearGradient
       id="linearGradient4103">
      <stop
         id="stop4105"
         offset="0"
         style="stop-color:#00acf4;stop-opacity:1;" />
      <stop
         id="stop4107"
         offset="1"
         style="stop-color:#a6e5ff;stop-opacity:1;" />
    </linearGradient>
    <linearGradient
       id="linearGradient4180">
      <stop
         id="stop4182"
         offset="0"
         style="stop-color:#00a400;stop-opacity:1;" />
      <stop
         id="stop4184"
         offset="1"
         style="stop-color:#00a400;stop-opacity:0;" />
    </linearGradient>
    <linearGradient
       id="linearGradient4191">
      <stop
         id="stop4193"
         offset="0"
         style="stop-color:#007900;stop-opacity:1;" />
      <stop
         id="stop4195"
         offset="1"
         style="stop-color:#008400;stop-opacity:0;" />
    </linearGradient>
    <linearGradient
       id="linearGradient4238">
      <stop
         id="stop4240"
         offset="0"
         style="stop-color:#55a800;stop-opacity:1;" />
      <stop
         id="stop4242"
         offset="1"
         style="stop-color:#74e400;stop-opacity:1;" />
    </linearGradient>
    <linearGradient
       id="linearGradient4328">
      <stop
         id="stop4330"
         offset="0"
         style="stop-color:#8f5902;stop-opacity:1;" />
      <stop
         id="stop4332"
         offset="1"
         style="stop-color:#724701;stop-opacity:1;" />
    </linearGradient>
    <linearGradient
       id="linearGradient4336">
      <stop
         id="stop4338"
         offset="0"
         style="stop-color:#458905;stop-opacity:1;" />
      <stop
         id="stop4340"
         offset="1"
         style="stop-color:#4e9a06;stop-opacity:0;" />
    </linearGradient>
    <linearGradient
       id="linearGradient4368">
      <stop
         style="stop-color:#69d007;stop-opacity:1;"
         offset="0"
         id="stop4370" />
      <stop
         style="stop-color:#4e9a06;stop-opacity:0;"
         offset="1"
         id="stop4372" />
    </linearGradient>
    <linearGradient
       id="linearGradient4641">
      <stop
         id="stop4643"
         offset="0"
         style="stop-color:#fcaf3e;stop-opacity:1;" />
      <stop
         id="stop4645"
         offset="1"
         style="stop-color:#ffce86;stop-opacity:1;" />
    </linearGradient>
    <inkscape:perspective
       id="perspective7814"
       inkscape:persp3d-origin="1135.7188 : 555.23739 : 1"
       inkscape:vp_z="2271.4375 : 832.85608 : 1"
       inkscape:vp_y="0 : 1000 : 0"
       inkscape:vp_x="0 : 832.85608 : 1"
       sodipodi:type="inkscape:persp3d" />
    <inkscape:perspective
       id="perspective3102"
       inkscape:persp3d-origin="320 : 160 : 1"
       inkscape:vp_z="640 : 240 : 1"
       inkscape:vp_y="0 : 1000 : 0"
       inkscape:vp_x="0 : 240 : 1"
       sodipodi:type="inkscape:persp3d" />
    <linearGradient
       id="linearGradient3107"
       inkscape:collect="always">
      <stop
         id="stop3109"
         offset="0"
         style="stop-color:#8ae234;stop-opacity:1;" />
      <stop
         id="stop3111"
         offset="1"
         style="stop-color:#4e9a06;stop-opacity:1" />
    </linearGradient>
    <linearGradient
       id="linearGradient4071"
       inkscape:collect="always">
      <stop
         id="stop4073"
         offset="0"
         style="stop-color:#37abc8;stop-opacity:1;" />
      <stop
         id="stop4075"
         offset="1"
         style="stop-color:#37abc8;stop-opacity:0;" />
    </linearGradient>
    <linearGradient
       inkscape:collect="always"
       xlink:href="#linearGradient3107"
       id="linearGradient10992"
       gradientUnits="userSpaceOnUse"
       gradientTransform="matrix(1.0190279,0,0,1,977.50065,565.21685)"
       x1="182.52214"
       y1="253.37399"
       x2="187.27179"
       y2="335.80383" />
    <linearGradient
       inkscape:collect="always"
       xlink:href="#linearGradient4071"
       id="linearGradient10997"
       gradientUnits="userSpaceOnUse"
       x1="313"
       y1="56"
       x2="318.5"
       y2="277"
       gradientTransform="translate(978.0429,565.21685)" />
    <linearGradient
       inkscape:collect="always"
       xlink:href="#linearGradient4336"
       id="linearGradient11107"
       gradientUnits="userSpaceOnUse"
       x1="-664.67871"
       y1="1024.9598"
       x2="-734.84564"
       y2="762.32013" />
    <linearGradient
       inkscape:collect="always"
       xlink:href="#linearGradient4368"
       id="linearGradient11109"
       gradientUnits="userSpaceOnUse"
       x1="-1133.0326"
       y1="223.79074"
       x2="-1071.7157"
       y2="463.79074" />
    <linearGradient
       inkscape:collect="always"
       xlink:href="#linearGradient4368"
       id="linearGradient11111"
       gradientUnits="userSpaceOnUse"
       x1="-1521.5546"
       y1="326.64789"
       x2="-1141.5403"
       y2="806.80164" />
    <linearGradient
       inkscape:collect="always"
       xlink:href="#linearGradient4336"
       id="linearGradient11113"
       gradientUnits="userSpaceOnUse"
       x1="-1381.4706"
       y1="990.43616"
       x2="-983.90717"
       y2="651.0249" />
    <linearGradient
       inkscape:collect="always"
       xlink:href="#linearGradient4328"
       id="linearGradient11115"
       gradientUnits="userSpaceOnUse"
       x1="-2329.5454"
       y1="1589.9091"
       x2="-2157.5569"
       y2="1589.9091" />
    <radialGradient
       inkscape:collect="always"
       xlink:href="#linearGradient4641"
       id="radialGradient11117"
       gradientUnits="userSpaceOnUse"
       gradientTransform="matrix(1.3896636,0.7071731,-0.555426,1.0914658,234.03392,455.11869)"
       cx="-640"
       cy="-27.637817"
       fx="-640"
       fy="-27.637817"
       r="284.19949" />
    <radialGradient
       inkscape:collect="always"
       xlink:href="#linearGradient4641"
       id="radialGradient11227"
       gradientUnits="userSpaceOnUse"
       gradientTransform="matrix(1.3896636,0.7071731,-0.555426,1.0914658,234.03392,455.11869)"
       cx="-640"
       cy="-27.637817"
       fx="-640"
       fy="-27.637817"
       r="284.19949" />
    <radialGradient
       inkscape:collect="always"
       xlink:href="#linearGradient4641"
       id="radialGradient11243"
       gradientUnits="userSpaceOnUse"
       gradientTransform="matrix(1.3896636,0.7071731,-0.555426,1.0914658,234.03392,455.11869)"
       cx="-640"
       cy="-27.637817"
       fx="-640"
       fy="-27.637817"
       r="284.19949" />
    <linearGradient
       inkscape:collect="always"
       xlink:href="#linearGradient4071"
       id="linearGradient11289"
       gradientUnits="userSpaceOnUse"
       gradientTransform="translate(978.0429,565.21685)"
       x1="313"
       y1="56"
       x2="318.5"
       y2="277" />
    <linearGradient
       inkscape:collect="always"
       xlink:href="#linearGradient3107"
       id="linearGradient11291"
       gradientUnits="userSpaceOnUse"
       gradientTransform="matrix(1.0190279,0,0,1,977.50065,565.21685)"
       x1="182.52214"
       y1="253.37399"
       x2="187.27179"
       y2="335.80383" />
    <radialGradient
       inkscape:collect="always"
       xlink:href="#linearGradient4641"
       id="radialGradient11293"
       gradientUnits="userSpaceOnUse"
       gradientTransform="matrix(1.3896636,0.7071731,-0.555426,1.0914658,234.03392,455.11869)"
       cx="-640"
       cy="-27.637817"
       fx="-640"
       fy="-27.637817"
       r="284.19949" />
    <linearGradient
       inkscape:collect="always"
       xlink:href="#linearGradient3107"
       id="linearGradient11300"
       gradientUnits="userSpaceOnUse"
       gradientTransform="matrix(0.627929,0,0,0.6162039,1041.6908,343.92924)"
       x1="182.52214"
       y1="253.37399"
       x2="187.27179"
       y2="335.80383" />
    <linearGradient
       inkscape:collect="always"
       xlink:href="#linearGradient7648"
       id="linearGradient11350"
       gradientUnits="userSpaceOnUse"
       gradientTransform="matrix(1.098989,0,0,-0.797757,-1.953865,37.324)"
       x1="21.9326"
       y1="24.627399"
       x2="21.9326"
       y2="7.1090999" />
    <linearGradient
       inkscape:collect="always"
       xlink:href="#linearGradient7648"
       id="linearGradient11369"
       gradientUnits="userSpaceOnUse"
       gradientTransform="matrix(1.098989,0,0,-0.797757,-1.953865,37.324)"
       x1="21.9326"
       y1="24.627399"
       x2="21.9326"
       y2="7.1090999" />
    <radialGradient
       inkscape:collect="always"
       xlink:href="#linearGradient259"
       id="radialGradient4191"
       gradientUnits="userSpaceOnUse"
       gradientTransform="matrix(0.96628536,0,0,1.2115709,-6.1034775,985.10763)"
       cx="33.966679"
       cy="35.736916"
       fx="33.966679"
       fy="35.736916"
       r="86.70845" />
    <linearGradient
       inkscape:collect="always"
       xlink:href="#linearGradient7648"
       id="linearGradient4193"
       gradientUnits="userSpaceOnUse"
       gradientTransform="matrix(0.87824832,0,0,-0.67557809,-1.4890199,1026.6585)"
       x1="21.9326"
       y1="24.627399"
       x2="21.9326"
       y2="7.1090999" />
    <linearGradient
       inkscape:collect="always"
       xlink:href="#linearGradient4071"
       id="linearGradient4195"
       gradientUnits="userSpaceOnUse"
       gradientTransform="matrix(0.04203153,0,0,0.04593157,4.8326096,1009.4682)"
       x1="313"
       y1="56"
       x2="318.5"
       y2="277" />
    <linearGradient
       inkscape:collect="always"
       xlink:href="#linearGradient4071"
       id="linearGradient4197"
       gradientUnits="userSpaceOnUse"
       gradientTransform="matrix(0.04203153,0,0,0.04593157,4.9613784,998.78045)"
       x1="313"
       y1="56"
       x2="318.5"
       y2="277" />
    <radialGradient
       inkscape:collect="always"
       xlink:href="#linearGradient259"
       id="radialGradient4199"
       gradientUnits="userSpaceOnUse"
       gradientTransform="matrix(0.96628536,0,0,1.2115709,-41.219548,985.25668)"
       cx="33.966679"
       cy="35.736916"
       fx="33.966679"
       fy="35.736916"
       r="86.70845" />
    <linearGradient
       inkscape:collect="always"
       xlink:href="#linearGradient4071"
       id="linearGradient4201"
       gradientUnits="userSpaceOnUse"
       gradientTransform="translate(978.0429,565.21685)"
       x1="313"
       y1="56"
       x2="318.5"
       y2="277" />
    <linearGradient
       inkscape:collect="always"
       xlink:href="#linearGradient3107"
       id="linearGradient4203"
       gradientUnits="userSpaceOnUse"
       gradientTransform="matrix(1.0190279,0,0,1,977.50065,565.21685)"
       x1="182.52214"
       y1="253.37399"
       x2="187.27179"
       y2="335.80383" />
    <radialGradient
       inkscape:collect="always"
       xlink:href="#linearGradient4641"
       id="radialGradient4205"
       gradientUnits="userSpaceOnUse"
       gradientTransform="matrix(1.3896636,0.7071731,-0.555426,1.0914658,234.03392,455.11869)"
       cx="-640"
       cy="-27.637817"
       fx="-640"
       fy="-27.637817"
       r="284.19949" />
    <linearGradient
       inkscape:collect="always"
       xlink:href="#linearGradient4071"
       id="linearGradient4236"
       gradientUnits="userSpaceOnUse"
       gradientTransform="matrix(0.01810399,0,0,0.01978384,17.899739,977.56905)"
       x1="313"
       y1="56"
       x2="318.5"
       y2="277" />
    <linearGradient
       inkscape:collect="always"
       xlink:href="#linearGradient4071"
       id="linearGradient4239"
       gradientUnits="userSpaceOnUse"
       gradientTransform="matrix(0.01810399,0,0,0.01978384,17.844276,982.17252)"
       x1="313"
       y1="56"
       x2="318.5"
       y2="277" />
    <linearGradient
       inkscape:collect="always"
       xlink:href="#linearGradient7648"
       id="linearGradient4247"
       gradientUnits="userSpaceOnUse"
       gradientTransform="matrix(0.37828275,0,0,-0.29098779,15.121397,989.5768)"
       x1="21.9326"
       y1="24.627399"
       x2="21.9326"
       y2="7.1090999" />
  </defs>
  <sodipodi:namedview
     id="base"
     pagecolor="#ffffff"
     bordercolor="#666666"
     borderopacity="1.0"
     gridtolerance="10000"
     guidetolerance="10"
     objecttolerance="10"
     inkscape:pageopacity="0.0"
     inkscape:pageshadow="2"
     inkscape:zoom="10.670644"
     inkscape:cx="0.08633776"
     inkscape:cy="9.7008609"
     inkscape:document-units="px"
     inkscape:current-layer="layer1"
     showgrid="false"
     inkscape:window-width="1842"
     inkscape:window-height="1051"
     inkscape:window-x="69"
     inkscape:window-y="-9"
     inkscape:window-maximized="1" />
  <metadata
     id="metadata27996">
    <rdf:RDF>
      <cc:Work
         rdf:about="">
        <dc:format>image/svg+xml</dc:format>
        <dc:type
           rdf:resource="http://purl.org/dc/dcmitype/StillImage" />
        <dc:title></dc:title>
      </cc:Work>
    </rdf:RDF>
  </metadata>
  <g
     inkscape:label="Layer 1"
     inkscape:groupmode="layer"
     id="layer1"
     transform="translate(0,-968)">
    <path
       clip-path="url(#clipPath5381)"
       transform="matrix(-0.647598,0,0,0.5382686,1510.2267,35.288459)"
       style="fill:#fdfdfd;fill-opacity:1;stroke:none;filter:url(#filter5445)"
       d="m 66.775486,-44.781199 c -48.5125,0 -90.277,11.92993 -108.88454,29.029 -4.26886,-0.29482 -8.60949,-0.45761 -13.01987,-0.45757 -57.891586,0 -104.884466,26.515856 -104.884466,59.185249 0,28.5915 35.99558,52.464571 83.785996,57.97989 14.84828,30.91943 81.2805803,54.2634 160.92478,54.26343 90.548404,0 164.042604,-30.16825 164.042604,-67.343784 l -0.1177,-1.082572 c 29.3337,-9.232036 48.5206,-24.501536 48.5206,-41.774571 l -0.4216,-4.386143 C 291.62069,14.122372 242.75389,-5.9889126 183.39549,-6.0089126 171.91539,-28.442309 123.98999,-44.781239 66.775486,-44.781199 z"
       id="path5187"
       inkscape:connector-curvature="0" />
    <rect
       transform="matrix(0.9999984,0.00178682,4.6518164e-4,0.99999989,0,0)"
       y="972.49536"
       x="-0.25803176"
       height="22.953962"
       width="31.60066"
       id="rect3757"
       style="fill:#acacac;fill-opacity:1;stroke:#1a1a1a;stroke-width:0.32319015;stroke-miterlimit:4;stroke-opacity:1;stroke-dasharray:none;stroke-dashoffset:0" />
    <path
       sodipodi:nodetypes="cczzccc"
       id="path28902"
       d="m 17.543947,992.5245 2.622831,-0.97783 c 0,0 1.703422,-0.39183 2.766499,-0.45644 1.056849,-0.0642 1.878943,-0.019 2.839192,0.0652 0.968937,0.0852 2.130685,0.44028 2.130685,0.44028 l 2.132404,0.96211 0.355358,0.14796"
       style="fill:none;stroke:#000000;stroke-width:0.9451828;stroke-linecap:round;stroke-linejoin:miter;stroke-miterlimit:4;stroke-opacity:1;stroke-dasharray:none"
       inkscape:connector-curvature="0" />
    <g
       transform="matrix(0.03226628,-1.0634241e-4,1.0634241e-4,0.03226628,14.991128,976.74404)"
       id="g28912"
       style="stroke-width:29.29305077;stroke-miterlimit:4;stroke-dasharray:none">
      <path
         style="fill:none;stroke:#000000;stroke-width:29.29305077;stroke-linecap:round;stroke-linejoin:miter;stroke-miterlimit:4;stroke-opacity:1;stroke-dasharray:none"
         d="m 77.641121,166.83916 81.386069,-30.03642 c 0,0 52.83207,-11.96903 85.78531,-13.86297 32.76018,-1.88284 58.23374,-0.4049 87.98493,2.31049 30.02037,2.73996 65.9887,13.86297 65.9887,13.86297 l 65.9887,30.03643 10.99812,4.62099"
         id="path28914"
         sodipodi:nodetypes="cczzccc"
         inkscape:connector-curvature="0" />
    </g>
    <g
       id="g28916"
       transform="matrix(0.03226628,-1.0634241e-4,1.0634241e-4,0.03226628,14.998598,980.21251)"
       style="stroke-width:29.29305077;stroke-miterlimit:4;stroke-dasharray:none">
      <path
         sodipodi:nodetypes="cczzccc"
         id="path28918"
         d="m 77.641121,166.83916 81.386069,-30.03642 c 0,0 52.83207,-11.96903 85.78531,-13.86297 32.76018,-1.88284 58.23374,-0.4049 87.98493,2.31049 30.02037,2.73996 65.9887,13.86297 65.9887,13.86297 l 65.9887,30.03643 10.99812,4.62099"
         style="fill:none;stroke:#000000;stroke-width:29.29305077;stroke-linecap:round;stroke-linejoin:miter;stroke-miterlimit:4;stroke-opacity:1;stroke-dasharray:none"
         inkscape:connector-curvature="0" />
    </g>
    <g
       id="g28924"
       transform="matrix(0.03226628,-1.0634241e-4,1.0634241e-4,0.03226628,15.013538,983.681)"
       style="stroke-width:29.29305077;stroke-miterlimit:4;stroke-dasharray:none">
      <path
         sodipodi:nodetypes="cczzccc"
         id="path28926"
         d="m 77.641121,166.83916 81.386069,-30.03642 c 0,0 52.83207,-11.96903 85.78531,-13.86297 32.76018,-1.88284 58.23374,-0.4049 87.98493,2.31049 30.02037,2.73996 65.9887,13.86297 65.9887,13.86297 l 65.9887,30.03643 10.99812,4.62099"
         style="fill:none;stroke:#000000;stroke-width:29.29305077;stroke-linecap:round;stroke-linejoin:miter;stroke-miterlimit:4;stroke-opacity:1;stroke-dasharray:none"
         inkscape:connector-curvature="0" />
    </g>
    <rect
       ry="0.57594454"
       y="973.55615"
       x="15.995303"
       height="20.510824"
       width="15.112094"
       id="rect15391"
       style="fill:#ffffff;fill-opacity:1;fill-rule:nonzero;stroke:#000000;stroke-width:0.46604340999999999;stroke-linecap:round;stroke-linejoin:round;stroke-miterlimit:4;stroke-opacity:0.76719576000000000;stroke-dashoffset:0;marker:none;visibility:visible;display:block;overflow:visible" />
    <rect
       style="fill:#000000;fill-opacity:0.83137255;fill-rule:nonzero;stroke:none;stroke-width:1;marker:none;visibility:visible;display:block;overflow:visible"
       id="rect15738"
       width="11.737481"
       height="0.90893066"
       x="17.699577"
       y="988.50104"
       rx="0.080863185"
       ry="0.059435777" />
    <rect
       style="fill:#000000;fill-opacity:0.83137255;fill-rule:nonzero;stroke:none;stroke-width:1;marker:none;visibility:visible;display:block;overflow:visible"
       id="rect15744"
       width="8.2162428"
       height="0.90893066"
       x="17.699577"
       y="991.42944"
       rx="0.05660427"
       ry="0.059435777" />
    <path
       id="path4137"
       d="m 17.69146,986.90536 11.748064,0 0,-3.78352 -11.748064,0 0,3.78352 z"
       style="opacity:0.66477272;fill:url(#linearGradient4247);fill-opacity:1;fill-rule:nonzero;stroke:none"
       inkscape:connector-curvature="0" />
    <path
       style="opacity:0.66477272;fill:#729fcf;fill-opacity:1;fill-rule:nonzero;stroke:none"
       d="m 17.69146,978.03412 11.748064,0 0,5.08772 -11.748064,0 0,-5.08772 z"
       id="path4139"
       inkscape:connector-curvature="0" />
    <path
       style="opacity:0.19943183;fill-rule:nonzero;stroke:none"
       d="m 24.404639,983.85928 2.988185,0 0.573076,0.1735 -0.982416,0 c 0,0 0.982416,0.0867 1.473625,0.7374 0.491209,0.60732 -0.573076,1.34472 -0.573076,1.34472 0,0 0,0 0,0 -0.04094,-0.13012 -0.286539,-1.17118 -0.777748,-1.60497 -0.368406,-0.34703 -0.777746,-0.43378 -0.777746,-0.43378 l -1.9239,0 0,-0.17349 0,-0.0434 z"
       id="path4159"
       inkscape:connector-curvature="0" />
    <path
       style="opacity:0.19943183;fill-rule:nonzero;stroke:none"
       d="m 26.369474,984.11952 -1.71923,0 3.192854,1.90863 -1.473624,-1.90863 0,0 z"
       id="path4161"
       inkscape:connector-curvature="0" />
    <rect
       y="978.32642"
       x="17.98782"
       height="8.4221697"
       width="11.301889"
       id="rect4167"
       style="opacity:0.66477272;fill:none;stroke:#9e9e9e;stroke-width:0.58317125;stroke-linecap:butt;stroke-linejoin:miter;stroke-miterlimit:4;stroke-opacity:1;stroke-dasharray:none;stroke-dashoffset:0;marker:none;visibility:visible;display:inline;overflow:visible" />
    <rect
       ry="0.059435777"
       rx="0.05660427"
       y="975.92181"
       x="19.460197"
       height="0.90893066"
       width="8.2162428"
       id="rect1770"
       style="fill:#000000;fill-opacity:0.83137255;fill-rule:nonzero;stroke:none;stroke-width:1;marker:none;visibility:visible;display:block;overflow:visible" />
    <rect
       style="fill:url(#linearGradient4239);fill-opacity:1;stroke:none"
       id="rect11392"
       width="10.771983"
       height="5.4406705"
       x="18.224411"
       y="983.16162" />
    <rect
       y="978.55817"
       x="18.279875"
       height="5.4406705"
       width="10.771984"
       id="rect11273"
       style="fill:url(#linearGradient4236);fill-opacity:1;stroke:none" />
    <rect
       style="fill:#ffffff;fill-opacity:1;fill-rule:nonzero;stroke:#000000;stroke-width:0.46604340999999999;stroke-linecap:round;stroke-linejoin:round;stroke-miterlimit:4;stroke-opacity:0.76719576000000000;stroke-dashoffset:0;marker:none;visibility:visible;display:block;overflow:visible"
       id="rect4369"
       width="15.112094"
       height="20.510824"
       x="0.8699621"
       y="973.55615"
       ry="0.57594454" />
    <rect
       ry="0.059435777"
       rx="0.080863185"
       y="981.15521"
       x="2.5742376"
       height="0.90893066"
       width="11.737481"
       id="rect4371"
       style="fill:#000000;fill-opacity:0.83137255;fill-rule:nonzero;stroke:none;stroke-width:1;marker:none;visibility:visible;display:block;overflow:visible" />
    <rect
       ry="0.059435777"
       rx="0.05660427"
       y="991.49365"
       x="2.5742376"
       height="0.90893066"
       width="8.2162428"
       id="rect4373"
       style="fill:#000000;fill-opacity:0.83137255;fill-rule:nonzero;stroke:none;stroke-width:1;marker:none;visibility:visible;display:block;overflow:visible" />
    <rect
       style="fill:#000000;fill-opacity:0.83137255;fill-rule:nonzero;stroke:none;stroke-width:1;marker:none;visibility:visible;display:block;overflow:visible"
       id="rect4411"
       width="8.2162428"
       height="0.90893066"
       x="4.334857"
       y="975.98602"
       rx="0.05660427"
       ry="0.059435777" />
    <g
       id="g11229"
       transform="matrix(0.01978019,0,0,0.01978019,-17.177072,970.82674)">
      <rect
         y="615.21393"
         x="999.03998"
         height="275.00586"
         width="595.00586"
         id="rect4069"
         style="fill:url(#linearGradient4201);fill-opacity:1;stroke:#6c4509;stroke-width:1.00014961;stroke-linecap:square;stroke-miterlimit:4;stroke-opacity:1;stroke-dasharray:none;stroke-dashoffset:0" />
      <path
         style="fill:#4e9a06;fill-opacity:1;stroke:#8b8b8b;stroke-width:0;stroke-linecap:square;stroke-miterlimit:4;stroke-opacity:1;stroke-dashoffset:0"
         d="m 1000.9738,801.4187 c 193.3316,-123.30363 403.1358,-21.91891 594.6668,-36.68533 l -0.6808,233.66554 -595.41902,-2 1.43302,-194.98021 0,0 z"
         id="path3115"
         sodipodi:nodetypes="ccccc"
         inkscape:connector-curvature="0" />
      <path
         sodipodi:nodetypes="ccccc"
         id="path3117"
         d="m 1001.8623,804.53955 c 192.683,-113.96355 402.5329,26.49142 593.4213,12.84354 l 1.6785,180.01582 -590.4213,1 -4.6785,-193.85936 0,0 z"
         style="fill:#73d216;fill-opacity:1;stroke:#8b8b8b;stroke-width:0;stroke-linecap:square;stroke-miterlimit:4;stroke-opacity:1;stroke-dashoffset:0"
         inkscape:connector-curvature="0" />
      <path
         sodipodi:nodetypes="ccccc"
         id="rect3104"
         d="m 1001.0722,851.83837 c 196.3494,-91.74245 400.0478,-22.26077 594.5684,-33.24753 l -0.6914,179.80807 -588.4084,0 -5.4686,-146.56054 0,0 z"
         style="fill:url(#linearGradient4203);fill-opacity:1;stroke:#8b8b8b;stroke-width:0;stroke-linecap:square;stroke-miterlimit:4;stroke-opacity:1;stroke-dashoffset:0"
         inkscape:connector-curvature="0" />
      <g
         transform="translate(-120.7675,675.22124)"
         id="g11223">
        <path
           clip-path="url(#clipPath5677)"
           sodipodi:type="arc"
           style="opacity:0.28888891;fill:#f57900;fill-opacity:1;stroke:none;filter:url(#filter4962)"
           id="path4649"
           sodipodi:cx="-640"
           sodipodi:cy="-27.637817"
           sodipodi:rx="280"
           sodipodi:ry="262.85715"
           d="m -360,-27.637817 c 0,145.171997 -125.36027,262.857147 -280,262.857147 -154.63973,0 -280,-117.68515 -280,-262.857147 0,-145.171993 125.36027,-262.857143 280,-262.857143 145.31523,0 266.47994,104.35981 278.96469,240.273781"
           sodipodi:start="0"
           sodipodi:end="6.1971643"
           sodipodi:open="true"
           transform="matrix(0.2701852,0,0,0.2701852,1331.0699,1.9014771)" />
        <path
           clip-path="url(#clipPath5671)"
           transform="matrix(0.2548935,0,0,0.2548935,1321.2832,1.4788473)"
           d="m -360,-27.637817 c 0,145.171997 -125.36027,262.857147 -280,262.857147 -154.63973,0 -280,-117.68515 -280,-262.857147 0,-145.171993 125.36027,-262.857143 280,-262.857143 154.63973,0 280,117.68515 280,262.857143 z"
           sodipodi:ry="262.85715"
           sodipodi:rx="280"
           sodipodi:cy="-27.637817"
           sodipodi:cx="-640"
           id="path4639"
           style="fill:url(#radialGradient4205);fill-opacity:1;stroke:#fcaf3e;stroke-width:8.39896297;stroke-linecap:round;stroke-linejoin:round;stroke-miterlimit:4;stroke-opacity:1;stroke-dasharray:none;stroke-dashoffset:0"
           sodipodi:type="arc" />
      </g>
      <path
         transform="matrix(0.4281682,0,0,0.4281682,978.55725,695.77522)"
         style="fill:#fdfdfd;fill-opacity:1;stroke:none;filter:url(#filter5575)"
         d="m 1101.0612,-136.20977 c -48.5125,0 -90.277,11.92993 -108.88454,29.029 -4.26886,-0.29482 -8.60949,-0.45761 -13.01987,-0.45757 -57.89159,0 -104.88447,26.515856 -104.88447,59.185249 0,28.5915 35.99558,52.4645711 83.786,57.9798926 14.84828,30.9194284 81.28058,54.2633924 160.92478,54.2634284 90.5484,0 164.0426,-30.16825 164.0426,-67.3437856 l -0.1177,-1.0825714 c 29.3337,-9.232036 48.5206,-24.501536 48.5206,-41.774571 l -0.4216,-4.386143 c -5.1006,-26.509358 -53.9674,-46.620643 -113.3258,-46.640643 -11.4801,-22.433396 -59.4055,-38.772326 -116.62,-38.772286 z"
         id="path4984"
         clip-path="url(#clipPath5495)"
         inkscape:connector-curvature="0" />
    </g>
    <rect
       style="fill:#000000;fill-opacity:0.83137255;fill-rule:nonzero;stroke:none;stroke-width:1;marker:none;visibility:visible;display:block;overflow:visible"
       id="rect11269"
       width="11.737481"
       height="0.90893066"
       x="2.5742376"
       y="978.57062"
       rx="0.080863185"
       ry="0.059435777" />
    <g
       id="g4141"
       style="opacity:0.66477272;fill-rule:nonzero;stroke:#000000;stroke-width:2.00241709;stroke-miterlimit:4"
       transform="matrix(0.40934011,0,0,0.43377573,14.580475,973.57878)">
      <g
         id="g4179">
        <path
           style="opacity:0.04999994;fill:#e8f52f;stroke:none"
           d="m 18.4,15.4 c 0,2.2 -1.8,4.1 -4.1,4.1 -2.2,0 -4.1,-1.8 -4.1,-4.1 0,-2.2 1.8,-4.1 4.1,-4.1 2.2,0 4.1,1.8 4.1,4.1 z"
           id="path4145"
           inkscape:connector-curvature="0" />
        <path
           style="opacity:0.20829994;fill:#ecf751;stroke:none"
           d="m 18,15.4 c 0,2 -1.6,3.7 -3.7,3.7 -2,0 -3.7,-1.6 -3.7,-3.7 0,-2 1.6,-3.7 3.7,-3.7 2,0 3.7,1.6 3.7,3.7 l 0,0 z"
           id="path4147"
           inkscape:connector-curvature="0" />
        <path
           style="opacity:0.36669994;fill:#f0f972;stroke:none"
           d="m 17.6,15.4 c 0,1.8 -1.5,3.3 -3.3,3.3 -1.8,0 -3.3,-1.5 -3.3,-3.3 0,-1.8 1.5,-3.3 3.3,-3.3 1.8,0 3.3,1.5 3.3,3.3 l 0,0 z"
           id="path4149"
           inkscape:connector-curvature="0" />
        <path
           style="opacity:0.525;fill:#f4fa95;stroke:none"
           d="m 17.2,15.4 c 0,1.6 -1.3,2.9 -2.9,2.9 -1.6,0 -2.9,-1.3 -2.9,-2.9 0,-1.6 1.3,-2.9 2.9,-2.9 1.6,0 2.9,1.3 2.9,2.9 z"
           id="path4151"
           inkscape:connector-curvature="0" />
        <path
           style="opacity:0.6833;fill:#f7fcb7;stroke:none"
           d="m 16.8,15.4 c 0,1.4 -1.1,2.5 -2.5,2.5 -1.4,0 -2.5,-1.1 -2.5,-2.5 0,-1.4 1.1,-2.5 2.5,-2.5 1.4,0 2.5,1.1 2.5,2.5 l 0,0 z"
           id="path4153"
           inkscape:connector-curvature="0" />
        <path
           style="opacity:0.8417;fill:#fbfddb;stroke:none"
           d="m 16.4,15.4 c 0,1.2 -1,2.1 -2.1,2.1 -1.1,0 -2.1,-1 -2.1,-2.1 0,-1.1 1,-2.1 2.1,-2.1 1.1,0 2.1,1 2.1,2.1 z"
           id="path4155"
           inkscape:connector-curvature="0" />
        <path
           style="fill:#ffffff;stroke:none"
           d="m 16,15.4 c 0,1 -0.8,1.8 -1.8,1.8 -1,0 -1.8,-0.8 -1.8,-1.8 0,-1 0.8,-1.8 1.8,-1.8 1,0 1.8,0.8 1.8,1.8 l 0,0 z"
           id="path4157"
           inkscape:connector-curvature="0" />
      </g>
    </g>
    <g
       id="g11388"
       transform="matrix(0.03210007,0,0,0.03210007,-0.05418114,968.19349)">
      <path
         id="path4163"
         d="m 761.95527,489.38067 93.08965,0 14.02721,-9.45927 -30.6048,0 c 0,0 28.05438,-5.40528 31.88,-39.18839 3.82558,-33.78309 -43.35683,-71.62014 -43.35683,-71.62014 0,0 0,0 0,1.35132 1.27519,8.10794 14.02719,64.86353 5.10081,86.48474 -3.82562,18.91849 -15.30241,22.97247 -15.30241,22.97247 l -58.65923,0 2.55041,9.45927 1.27519,0 z"
         style="opacity:0.66477272;fill:#515151;fill-rule:nonzero;stroke:none"
         inkscape:connector-curvature="0" />
      <path
         id="path4165"
         d="m 818.06411,474.51612 -53.55842,0 63.76,-102.70062 -10.20158,102.70062 z"
         style="opacity:0.66477272;fill:#515151;fill-rule:nonzero;stroke:none"
         inkscape:connector-curvature="0" />
    </g>
  </g>
</svg>
