<?xml version="1.0" encoding="UTF-8" standalone="no"?>
<svg
   xmlns:dc="http://purl.org/dc/elements/1.1/"
   xmlns:cc="http://creativecommons.org/ns#"
   xmlns:rdf="http://www.w3.org/1999/02/22-rdf-syntax-ns#"
   xmlns:svg="http://www.w3.org/2000/svg"
   xmlns="http://www.w3.org/2000/svg"
   xmlns:sodipodi="http://sodipodi.sourceforge.net/DTD/sodipodi-0.dtd"
   xmlns:inkscape="http://www.inkscape.org/namespaces/inkscape"
   id="svg1901"
   viewBox="0 0 64 48"
   version="1.0"
   inkscape:version="0.48.4 r9939"
   width="100%"
   height="100%"
   sodipodi:docname="help_2.svg"
   inkscape:export-filename="C:\data\ws\joffice_migration_1\com.joffice.client.resources\src\com\joffice\ui\resources\images\tools\help_48_64.png"
   inkscape:export-xdpi="90"
   inkscape:export-ydpi="90">
  <sodipodi:namedview
     pagecolor="#ffffff"
     bordercolor="#666666"
     borderopacity="1"
     objecttolerance="10"
     gridtolerance="10"
     guidetolerance="10"
     inkscape:pageopacity="0"
     inkscape:pageshadow="2"
     inkscape:window-width="1842"
     inkscape:window-height="1051"
     id="namedview18"
     showgrid="false"
     inkscape:zoom="7.3923258"
     inkscape:cx="21.294157"
     inkscape:cy="35.069724"
     inkscape:window-x="69"
     inkscape:window-y="-9"
     inkscape:window-maximized="1"
     inkscape:current-layer="svg1901" />
  <defs
     id="defs1903">
    <filter
       id="filter4174"
       color-interpolation-filters="sRGB">
      <feGaussianBlur
         id="feGaussianBlur4176"
         stdDeviation="3.8309765" />
    </filter>
    <radialGradient
       id="radialGradient4178"
       gradientUnits="userSpaceOnUse"
       cy="95.362"
       cx="-789"
       gradientTransform="matrix(0.81781,0.98038,-0.81622,0.68087,-65.915,803.96)"
       r="409">
      <stop
         id="stop11434"
         stop-color="#0085f8"
         offset="0" />
      <stop
         id="stop11436"
         stop-color="#003b6e"
         offset="1" />
    </radialGradient>
  </defs>
  <g
     id="layer1"
     transform="matrix(0.17531769,0,0,0.17531769,148.9369,-15.86023)">
    <path
       id="path3394"
       d="m -667,99.66 c -70.44,0 -127.7,57.27 -127.7,127.71 0,70.43 57.26,127.69 127.7,127.69 70.44,0 127.7,-57.26 127.7,-127.69 0,-70.44 -57.26,-127.71 -127.7,-127.71 z"
       inkscape:connector-curvature="0"
       style="filter:url(#filter4174)" />
    <path
       id="path10461"
       d="m -258,227.36 a 409,409 0 1 1 -818,0 409,409 0 1 1 818,0 z"
       transform="matrix(0.3,0,0,0.3,-466.9,159.15)"
       inkscape:connector-curvature="0"
       style="fill:url(#radialGradient4178);stroke:#ffffff;stroke-width:33.33300018;stroke-linecap:round;stroke-linejoin:round" />
    <path
       id="path11519"
       d="m -689.39,249.32 v -3.89 c 0,-6.63 0.75,-12.02 2.25,-16.15 1.51,-4.14 3.74,-7.91 6.72,-11.33 2.97,-3.42 9.65,-9.44 20.04,-18.05 5.54,-4.51 8.31,-8.65 8.31,-12.41 0,-3.76 -1.11,-6.68 -3.33,-8.76 -2.22,-2.09 -5.59,-3.13 -10.1,-3.13 -4.86,0 -8.87,1.61 -12.05,4.82 -3.18,3.21 -1.1,12.38 -6.1,16.82 -7.36,6.53 -37.75,6.02 -39.79,-4.93 -2.55,-13.74 6.69,-26.4 15.95,-35.32 9.26,-8.92 23.46,-13.38 42.6,-13.38 14.91,0 26.94,3.11 36.1,9.33 12.44,8.41 18.66,19.62 18.66,33.63 0,5.81 -1.61,11.42 -4.82,16.82 -3.21,5.4 -9.78,11.99 -19.69,19.79 -6.9,5.47 -11.26,9.86 -13.07,13.17 -1.81,3.32 -2.72,12.97 -2.72,12.97 0,10.81 -38.96,10.61 -38.96,0 z"
       inkscape:connector-curvature="0" />
    <path
       id="path11521"
       d="m -577,463.34 a 61.52,61.52 0 1 1 -123.04,0 61.52,61.52 0 1 1 123.04,0 z"
       transform="matrix(0.25123,0,0,0.25123,-509.28,174.45)"
       inkscape:connector-curvature="0"
       style="stroke:#000000;stroke-width:39.80400085;stroke-linecap:round;stroke-linejoin:round" />
    <path
       id="text11442"
       d="m -689.39,249.32 v -3.89 c 0,-6.63 0.75,-12.02 2.25,-16.15 1.51,-4.14 3.74,-7.91 6.72,-11.33 2.97,-3.42 9.65,-9.44 20.04,-18.05 5.54,-4.51 8.31,-8.65 8.31,-12.41 0,-3.76 -1.11,-6.68 -3.33,-8.76 -2.22,-2.09 -5.59,-3.13 -10.1,-3.13 -4.86,0 -8.87,1.61 -12.05,4.82 -3.18,3.21 -1.1,12.38 -6.1,16.82 -7.36,6.53 -37.75,6.02 -39.79,-4.93 -2.55,-13.74 6.69,-26.4 15.95,-35.32 9.26,-8.92 23.46,-13.38 42.6,-13.38 14.91,0 26.94,3.11 36.1,9.33 12.44,8.41 18.66,19.62 18.66,33.63 0,5.81 -1.61,11.42 -4.82,16.82 -3.21,5.4 -9.78,11.99 -19.69,19.79 -6.9,5.47 -11.26,9.86 -13.07,13.17 -1.81,3.32 -2.72,12.97 -2.72,12.97 0,10.81 -38.96,10.61 -38.96,0 z"
       inkscape:connector-curvature="0"
       style="fill:#ffffff" />
    <path
       id="path11457"
       d="m -577,463.34 a 61.52,61.52 0 1 1 -123.04,0 61.52,61.52 0 1 1 123.04,0 z"
       transform="matrix(0.25123,0,0,0.25123,-509.28,174.45)"
       inkscape:connector-curvature="0"
       style="fill:#ffffff;stroke:#ffffff;stroke-width:39.80400085;stroke-linecap:round;stroke-linejoin:round" />
  </g>
  <metadata
     id="metadata16">
    <rdf:RDF>
      <cc:Work>
        <dc:format>image/svg+xml</dc:format>
        <dc:type
           rdf:resource="http://purl.org/dc/dcmitype/StillImage" />
        <cc:license
           rdf:resource="http://creativecommons.org/licenses/publicdomain/" />
        <dc:publisher>
          <cc:Agent
             rdf:about="http://openclipart.org/">
            <dc:title>Openclipart</dc:title>
          </cc:Agent>
        </dc:publisher>
        <dc:title></dc:title>
        <dc:date>2009-12-25T10:25:12</dc:date>
        <dc:description>An icon with a question mark.</dc:description>
        <dc:source>http://openclipart.org/detail/28725/icon-with-question-mark-by-purzen</dc:source>
        <dc:creator>
          <cc:Agent>
            <dc:title>purzen</dc:title>
          </cc:Agent>
        </dc:creator>
        <dc:subject>
          <rdf:Bag>
            <rdf:li>cartoon</rdf:li>
            <rdf:li>clip art</rdf:li>
            <rdf:li>clipart</rdf:li>
            <rdf:li>colour</rdf:li>
            <rdf:li>help</rdf:li>
            <rdf:li>icon</rdf:li>
            <rdf:li>image</rdf:li>
            <rdf:li>info</rdf:li>
            <rdf:li>media</rdf:li>
            <rdf:li>png</rdf:li>
            <rdf:li>public domain</rdf:li>
            <rdf:li>question</rdf:li>
            <rdf:li>sign</rdf:li>
            <rdf:li>svg</rdf:li>
            <rdf:li>symbol</rdf:li>
          </rdf:Bag>
        </dc:subject>
      </cc:Work>
      <cc:License
         rdf:about="http://creativecommons.org/licenses/publicdomain/">
        <cc:permits
           rdf:resource="http://creativecommons.org/ns#Reproduction" />
        <cc:permits
           rdf:resource="http://creativecommons.org/ns#Distribution" />
        <cc:permits
           rdf:resource="http://creativecommons.org/ns#DerivativeWorks" />
      </cc:License>
    </rdf:RDF>
  </metadata>
</svg>
