<?xml version="1.0" encoding="UTF-8" standalone="no"?>
<svg
   xmlns:dc="http://purl.org/dc/elements/1.1/"
   xmlns:cc="http://creativecommons.org/ns#"
   xmlns:rdf="http://www.w3.org/1999/02/22-rdf-syntax-ns#"
   xmlns:svg="http://www.w3.org/2000/svg"
   xmlns="http://www.w3.org/2000/svg"
   xmlns:xlink="http://www.w3.org/1999/xlink"
   xmlns:sodipodi="http://sodipodi.sourceforge.net/DTD/sodipodi-0.dtd"
   xmlns:inkscape="http://www.inkscape.org/namespaces/inkscape"
   id="svg6361"
   viewBox="0 0 64 48"
   version="1.1"
   inkscape:version="0.48.4 r9939"
   width="100%"
   height="100%"
   sodipodi:docname="help_3.svg"
   inkscape:export-filename="C:\data\ws\joffice_migration_1\com.joffice.client.resources\src\com\joffice\ui\resources\images\tools\help_3_64_48.png"
   inkscape:export-xdpi="90"
   inkscape:export-ydpi="90">
  <sodipodi:namedview
     pagecolor="#ffffff"
     bordercolor="#666666"
     borderopacity="1"
     objecttolerance="10"
     gridtolerance="10"
     guidetolerance="10"
     inkscape:pageopacity="0"
     inkscape:pageshadow="2"
     inkscape:window-width="1842"
     inkscape:window-height="1051"
     id="namedview20"
     showgrid="false"
     inkscape:zoom="4.9166667"
     inkscape:cx="-2.440678"
     inkscape:cy="24"
     inkscape:window-x="69"
     inkscape:window-y="-9"
     inkscape:window-maximized="1"
     inkscape:current-layer="svg6361" />
  <defs
     id="defs3">
    <radialGradient
       id="radialGradient21650"
       gradientUnits="userSpaceOnUse"
       cy="36.75"
       cx="25.125"
       gradientTransform="matrix(1,0,0,0.59524,0,14.875)"
       r="15.75">
      <stop
         id="stop21646"
         offset="0" />
      <stop
         id="stop21648"
         stop-opacity="0"
         offset="1" />
    </radialGradient>
    <radialGradient
       id="radialGradient2207"
       gradientUnits="userSpaceOnUse"
       cy="28.459"
       cx="26.544001"
       gradientTransform="matrix(1.2383,0.0059548,-0.0065078,1.3513,-6.9925,-9.7448)"
       r="22.375999">
      <stop
         id="stop2935"
         stop-color="#9cbcde"
         offset="0" />
      <stop
         id="stop2937"
         stop-color="#204a87"
         offset="1" />
    </radialGradient>
    <radialGradient
       id="radialGradient2437"
       gradientUnits="userSpaceOnUse"
       cy="16.856001"
       cx="-19.516001"
       gradientTransform="matrix(4.446,0,0,6.8665,67.251,-104.67)"
       r="8.7536001">
      <stop
         id="stop2433"
         stop-color="#fff"
         offset="0" />
      <stop
         id="stop2435"
         stop-color="#b8b8b8"
         offset="1" />
    </radialGradient>
    <radialGradient
       inkscape:collect="always"
       xlink:href="#radialGradient2437"
       id="radialGradient2998"
       gradientUnits="userSpaceOnUse"
       gradientTransform="matrix(3.7786554,0,0,5.7349008,98.886625,-94.872084)"
       cx="-19.516001"
       cy="16.856001"
       r="8.7536001" />
    <radialGradient
       inkscape:collect="always"
       xlink:href="#radialGradient2207"
       id="radialGradient3002"
       gradientUnits="userSpaceOnUse"
       gradientTransform="matrix(1.1620703,0.00558965,-0.00610718,1.2684383,-4.9979417,-23.513349)"
       cx="26.544001"
       cy="28.459"
       r="22.375999" />
    <radialGradient
       inkscape:collect="always"
       xlink:href="#radialGradient21650"
       id="radialGradient3005"
       gradientUnits="userSpaceOnUse"
       gradientTransform="matrix(1.1738,0,0,0.357144,-5.0044,13.25)"
       cx="25.125"
       cy="36.75"
       r="15.75" />
    <radialGradient
       inkscape:collect="always"
       xlink:href="#radialGradient2207"
       id="radialGradient3012"
       gradientUnits="userSpaceOnUse"
       gradientTransform="matrix(1.1620703,0.00558965,-0.00610718,1.2684383,-4.9979417,-23.513349)"
       cx="26.544001"
       cy="28.459"
       r="22.375999" />
    <radialGradient
       inkscape:collect="always"
       xlink:href="#radialGradient2437"
       id="radialGradient3014"
       gradientUnits="userSpaceOnUse"
       gradientTransform="matrix(3.7786554,0,0,5.7349008,98.886625,-94.872084)"
       cx="-19.516001"
       cy="16.856001"
       r="8.7536001" />
  </defs>
  <g
     id="g3007"
     transform="matrix(1.1429329,0,0,1.1426447,4.5681683,14.860111)">
    <path
       id="path2093"
       d="m 44.530575,7.9988897 a 20.529313,20.534564 0 0 1 -41.0586265,0 20.529313,20.534564 0 1 1 41.0586265,0 z"
       inkscape:connector-curvature="0"
       style="fill:url(#radialGradient3012);stroke:#204a87;stroke-width:0.93856001" />
    <path
       id="path2209"
       d="m 42.706053,8.0012335 a 18.706168,18.708574 0 0 1 -37.4123347,0 18.706168,18.708574 0 1 1 37.4123347,0 z"
       inkscape:connector-curvature="0"
       style="opacity:0.96022997;fill:none;stroke:#ffffff;stroke-width:2.59180379" />
    <path
       id="path1554"
       d="m 24.519525,-2.5449 c -0.900044,0 -1.825585,0.1028966 -2.788522,0.2871418 -0.962937,0.184078 -2.022762,0.44892 -3.187125,0.8352 -0.0093,-0.00109 -0.01785,-0.00109 -0.02635,0 -0.01105,0.00718 -0.01955,0.015952 -0.0272,0.026058 -0.0102,0.00718 -0.0187,0.016036 -0.02635,0.026058 -8.5e-4,0.00869 -8.5e-4,0.017456 0,0.026142 -8.5e-4,0.00869 -8.5e-4,0.017456 0,0.026142 V 2.9883 c -8.5e-4,0.00835 -8.5e-4,0.017539 0,0.025891 -8.5e-4,0.00919 -8.5e-4,0.017539 0,0.025891 0.0076,0.010858 0.01615,0.01921 0.02635,0.026726 0.0076,0.010022 0.01615,0.018374 0.0272,0.025891 0.0085,8.352e-4 0.017,8.352e-4 0.02635,0 0.0085,8.352e-4 0.01785,8.352e-4 0.02635,0 0.0085,8.352e-4 0.01785,8.352e-4 0.02635,0 0.0093,8.352e-4 0.01785,8.352e-4 0.02635,0 0.971435,-0.6005088 1.898676,-1.0581984 2.789372,-1.3572 0.890695,-0.3081888 1.736345,-0.4693824 2.496156,-0.4693824 0.806555,0 1.398085,0.175392 1.833234,0.5211648 0.431749,0.3365856 0.663772,0.8218368 0.663772,1.4357088 0,0.4017312 -0.122386,0.7951104 -0.372256,1.2010176 -0.240522,0.4067424 -0.628926,0.860256 -1.168613,1.3304736 L 23.934794,6.5379 C 22.914064,7.439916 22.244343,8.2007832 21.917131,8.8088088 21.59077,9.402636 21.438637,10.077478 21.438637,10.844191 v 0.679018 c -8.49e-4,0.0084 -8.49e-4,0.01754 0,0.02589 -8.49e-4,0.0084 -8.49e-4,0.01754 0,0.02589 0.0077,0.01002 0.01615,0.01921 0.02635,0.02589 0.0076,0.01086 0.01615,0.01921 0.0272,0.02673 0.0085,8.35e-4 0.017,8.35e-4 0.02635,0 0.0085,8.35e-4 0.01785,8.35e-4 0.02635,0 h 5.179291 c 0.0085,8.35e-4 0.01785,8.35e-4 0.02635,0 0.0085,8.35e-4 0.01785,8.35e-4 0.02635,0 0.0102,-0.0075 0.01955,-0.01587 0.0272,-0.02673 0.0102,-0.0067 0.0187,-0.01587 0.02635,-0.02589 8.5e-4,-0.0084 8.5e-4,-0.01754 0,-0.02589 8.5e-4,-0.0084 8.5e-4,-0.01754 0,-0.02589 v -0.6264 c 0,-0.390874 0.125785,-0.745834 0.318713,-1.0698914 0.188677,-0.3273984 0.601729,-0.7942752 1.247653,-1.3580352 L 29.300212,7.6863 c 0.906844,-0.8201664 1.556167,-1.574352 1.938622,-2.2968 0.382455,-0.7299648 0.584732,-1.5643296 0.584732,-2.4797088 0,-1.7756352 -0.632326,-3.11846976 -1.885929,-4.0452912 -1.253602,-0.9362592 -3.064739,-1.4094 -5.418112,-1.4094 z m -3.027344,15.999091 c -0.01105,0.0075 -0.01955,0.01587 -0.0272,0.02589 -0.0102,0.0075 -0.0187,0.0167 -0.02635,0.02673 -8.49e-4,0.0084 -8.49e-4,0.01754 0,0.02589 -8.49e-4,0.0084 -8.49e-4,0.01754 0,0.02589 V 18.4395 c -8.49e-4,0.0084 -8.49e-4,0.01754 0,0.02589 -8.49e-4,0.0092 -8.49e-4,0.01754 0,0.02589 0.0077,0.01086 0.01615,0.01921 0.02635,0.02673 0.0076,0.01002 0.01615,0.01837 0.0272,0.02589 0.0085,8.35e-4 0.017,8.35e-4 0.02635,0 0.0085,8.35e-4 0.01785,8.35e-4 0.02635,0 h 5.179291 c 0.0085,8.35e-4 0.01785,8.35e-4 0.02635,0 0.0085,8.35e-4 0.01785,8.35e-4 0.02635,0 0.0102,-0.0075 0.01955,-0.01587 0.0272,-0.02589 0.0102,-0.0075 0.0187,-0.01587 0.02635,-0.02673 8.5e-4,-0.0084 8.5e-4,-0.0167 0,-0.02589 8.5e-4,-0.0084 8.5e-4,-0.01754 0,-0.02589 v -4.880909 c 8.5e-4,-0.0084 8.5e-4,-0.01754 0,-0.02589 8.5e-4,-0.0084 8.5e-4,-0.01754 0,-0.02589 -0.0076,-0.01002 -0.01615,-0.01921 -0.02635,-0.02673 -0.0076,-0.01002 -0.017,-0.01837 -0.0272,-0.02589 -0.0085,-8.35e-4 -0.01785,-8.35e-4 -0.02635,0 -0.0085,-8.35e-4 -0.01785,-8.35e-4 -0.02635,0 h -5.179291 c -0.0085,-8.35e-4 -0.01785,-8.35e-4 -0.02635,0 -0.0093,-8.35e-4 -0.01785,-8.35e-4 -0.02635,0 z"
       xlink:href="#text2215"
       inkscape:connector-curvature="0"
       style="fill:url(#radialGradient3014);stroke:#ffffff;stroke-width:0.92634845px;stroke-opacity:0.78613" />
  </g>
  <metadata
     id="metadata18">
    <rdf:RDF>
      <cc:Work>
        <dc:format>image/svg+xml</dc:format>
        <dc:type
           rdf:resource="http://purl.org/dc/dcmitype/StillImage" />
        <cc:license
           rdf:resource="http://creativecommons.org/licenses/publicdomain/" />
        <dc:publisher>
          <cc:Agent
             rdf:about="http://openclipart.org/">
            <dc:title>Openclipart</dc:title>
          </cc:Agent>
        </dc:publisher>
        <dc:title></dc:title>
        <dc:date>2010-03-29T08:02:32</dc:date>
        <dc:description>&quot;Help browser&quot; icon from &lt;a href=&quot;http://tango.freedesktop.org/Tango_Desktop_Project&quot;&gt; Tango Project &lt;/a&gt; \n&lt;br&gt;&lt;br&gt;\nSince version 0.8.90 Tango Project icons are Public Domain: &lt;a href=&quot;http://tango.freedesktop.org/Frequently_Asked_Questions#Terms_of_Use.3F&quot;&gt; Tango Project FAQ &lt;/a&gt;</dc:description>
        <dc:source>http://openclipart.org/detail/35203/tango-help-browser-by-warszawianka</dc:source>
        <dc:creator>
          <cc:Agent>
            <dc:title>warszawianka</dc:title>
          </cc:Agent>
        </dc:creator>
        <dc:subject>
          <rdf:Bag>
            <rdf:li>blue</rdf:li>
            <rdf:li>circle</rdf:li>
            <rdf:li>clip art</rdf:li>
            <rdf:li>clipart</rdf:li>
            <rdf:li>externalsource</rdf:li>
            <rdf:li>help</rdf:li>
            <rdf:li>icon</rdf:li>
            <rdf:li>question mark</rdf:li>
            <rdf:li>tango</rdf:li>
          </rdf:Bag>
        </dc:subject>
      </cc:Work>
      <cc:License
         rdf:about="http://creativecommons.org/licenses/publicdomain/">
        <cc:permits
           rdf:resource="http://creativecommons.org/ns#Reproduction" />
        <cc:permits
           rdf:resource="http://creativecommons.org/ns#Distribution" />
        <cc:permits
           rdf:resource="http://creativecommons.org/ns#DerivativeWorks" />
      </cc:License>
    </rdf:RDF>
  </metadata>
</svg>
