<?xml version="1.0" encoding="UTF-8" standalone="no"?>
<svg
   xmlns:dc="http://purl.org/dc/elements/1.1/"
   xmlns:cc="http://creativecommons.org/ns#"
   xmlns:rdf="http://www.w3.org/1999/02/22-rdf-syntax-ns#"
   xmlns:svg="http://www.w3.org/2000/svg"
   xmlns="http://www.w3.org/2000/svg"
   xmlns:xlink="http://www.w3.org/1999/xlink"
   xmlns:sodipodi="http://sodipodi.sourceforge.net/DTD/sodipodi-0.dtd"
   xmlns:inkscape="http://www.inkscape.org/namespaces/inkscape"
   id="svg2985"
   viewBox="0 0 64 48"
   version="1.1"
   inkscape:version="0.48.4 r9939"
   width="100%"
   height="100%"
   sodipodi:docname="info.svg"
   inkscape:export-filename="C:\data\ws\joffice_migration_1\com.joffice.client.resources\src\com\joffice\ui\resources\images\tools\info_48_64.png"
   inkscape:export-xdpi="90"
   inkscape:export-ydpi="90">
  <sodipodi:namedview
     pagecolor="#ffffff"
     bordercolor="#666666"
     borderopacity="1"
     objecttolerance="10"
     gridtolerance="10"
     guidetolerance="10"
     inkscape:pageopacity="0"
     inkscape:pageshadow="2"
     inkscape:window-width="1842"
     inkscape:window-height="1051"
     id="namedview39"
     showgrid="false"
     inkscape:zoom="8.7990294"
     inkscape:cx="-3.8890093"
     inkscape:cy="17.912048"
     inkscape:window-x="69"
     inkscape:window-y="-9"
     inkscape:window-maximized="1"
     inkscape:current-layer="svg2985" />
  <defs
     id="defs2987">
    <filter
       id="filter3462-3"
       height="1.2135"
       width="1.2135"
       y="-0.10676"
       x="-0.10676"
       color-interpolation-filters="sRGB">
      <feGaussianBlur
         id="feGaussianBlur3464-2"
         stdDeviation="25.545813" />
    </filter>
    <radialGradient
       id="radialGradient7822"
       xlink:href="#linearGradient7802"
       gradientUnits="userSpaceOnUse"
       cy="633.94"
       cx="317.34"
       gradientTransform="matrix(1.7192,-0.27854,0.23847,1.4718,-502.65,-249.53)"
       r="287.14001" />
    <linearGradient
       id="linearGradient7802">
      <stop
         id="stop7804"
         stop-color="#08f"
         offset="0" />
      <stop
         id="stop7806"
         stop-color="#1e2862"
         offset="1" />
    </linearGradient>
    <radialGradient
       id="radialGradient7820"
       xlink:href="#linearGradient7802"
       gradientUnits="userSpaceOnUse"
       cy="332.60001"
       cx="272.22"
       r="287.14001" />
    <radialGradient
       id="radialGradient7818"
       xlink:href="#linearGradient7802"
       gradientUnits="userSpaceOnUse"
       cy="788.79999"
       cx="596.63"
       r="289.32001" />
    <linearGradient
       id="linearGradient7874"
       y2="296.67001"
       xlink:href="#linearGradient7802"
       gradientUnits="userSpaceOnUse"
       x2="234.77"
       y1="319.42001"
       x1="387.20999" />
    <radialGradient
       id="radialGradient3329-5"
       gradientUnits="userSpaceOnUse"
       cy="603.29999"
       cx="359.85999"
       gradientTransform="matrix(1.9874,-0.32079,0.19084,1.1823,-486.21,-22.476)"
       r="287.14001">
      <stop
         id="stop3321-2"
         stop-color="#fff"
         offset="0" />
      <stop
         id="stop3323-5"
         stop-color="#fff"
         stop-opacity="0"
         offset="1" />
    </radialGradient>
    <filter
       id="filter3493-3"
       color-interpolation-filters="sRGB">
      <feGaussianBlur
         id="feGaussianBlur3495-0"
         stdDeviation="7.2323951" />
    </filter>
    <radialGradient
       id="radialGradient3515-6"
       gradientUnits="userSpaceOnUse"
       cy="869.06"
       cx="500.23001"
       gradientTransform="matrix(2.1042,-1.4029,0.46183,0.6927,-953.73,918.91)"
       r="217.17999">
      <stop
         id="stop3503-2"
         offset="0" />
      <stop
         id="stop3505-2"
         stop-opacity="0"
         offset="1" />
    </radialGradient>
    <filter
       id="filter3569-5"
       height="1.239"
       width="1.1565"
       y="-0.11952"
       x="-0.078253001"
       color-interpolation-filters="sRGB">
      <feGaussianBlur
         id="feGaussianBlur3571-7"
         stdDeviation="14.162876" />
    </filter>
    <linearGradient
       id="linearGradient3345"
       y2="526.84998"
       gradientUnits="userSpaceOnUse"
       x2="316.81"
       gradientTransform="scale(1.027,0.97373)"
       y1="171.67999"
       x1="316.81">
      <stop
         id="stop3263"
         stop-color="#eee"
         offset="0" />
      <stop
         id="stop3265"
         stop-color="#aec6d7"
         offset="1" />
    </linearGradient>
  </defs>
  <g
     id="layer1"
     transform="matrix(0.06858545,0,0,0.06858545,-28.943042,-22.506422)">
    <g
       id="g7925"
       transform="translate(547.16,338.65)">
      <rect
         id="rect7888"
         height="670"
         width="670"
         y="0"
         x="0"
         style="opacity:0;stroke-width:40" />
      <path
         id="path7884"
         d="M 700,579.51 C 700,738.09 571.44,866.65 412.86,866.65 254.28,866.65 125.72,738.09 125.72,579.51 125.72,420.93 254.28,292.37 412.86,292.37 571.44,292.36 700,420.92 700,579.51 z"
         transform="translate(-71.449,-240.08)"
         inkscape:connector-curvature="0"
         style="filter:url(#filter3462-3)" />
      <path
         id="path7814"
         d="M 700,579.51 C 700,738.09 571.44,866.65 412.86,866.65 254.28,866.65 125.72,738.09 125.72,579.51 125.72,420.93 254.28,292.37 412.86,292.37 571.44,292.36 700,420.92 700,579.51 z"
         transform="translate(-82.449,-258.08)"
         inkscape:connector-curvature="0"
         style="fill:url(#radialGradient7822);stroke:url(#radialGradient7820);stroke-width:5;stroke-linecap:round;stroke-linejoin:round" />
      <path
         id="path7816"
         d="M 700,579.51 C 700,738.09 571.44,866.65 412.86,866.65 254.28,866.65 125.72,738.09 125.72,579.51 125.72,420.93 254.28,292.37 412.86,292.37 571.44,292.36 700,420.92 700,579.51 z"
         transform="matrix(0.91837,0,0,0.91837,-48.746,-210.78)"
         inkscape:connector-curvature="0"
         style="fill:none;stroke:url(#radialGradient7818);stroke-width:5.44439983;stroke-linecap:round;stroke-linejoin:round" />
      <path
         id="text7844"
         style="text-indent:0;text-transform:none;block-progression:tb;fill:#003366;fill-rule:evenodd;stroke:url(#linearGradient7874);stroke-width:32;stroke-linecap:round;stroke-linejoin:round"
         d="m 369.97,120.31 c -29.192,0.46811 -53.401,33.944 -41.969,61.469 9.6614,18.626 37.372,19.12 51.5,5.5312 17.191,-12.273 25.888,-39.228 12.188,-57.219 -5.3362,-6.178 -13.438,-10.192 -21.719,-9.7812 z m -18.438,120.78 c -36.547,6.4677 -65.701,31.377 -96.281,50.531 -9.8033,9.035 -2.4682,29.893 11.75,27.656 10.219,-2.6455 17.376,-11.42 26.875,-15.75 3.9747,-2.2471 8.2718,-3.9978 12.781,-4.7812 0.80328,11.356 -5.0838,21.814 -6.75,32.906 -13.331,50.121 -32.176,98.926 -40.969,150.16 -1.591,14.983 5.8453,33.19 22.094,36.094 20.133,3.8329 37.752,-9.9487 53.874,-19.898 15.893,-10.429 32.729,-20.325 45.72,-34.352 6.5458,-11.379 -7.9979,-28.817 -20.125,-20.969 -11.717,7.2668 -22.571,17.714 -36.438,20.5 5.6494,-35.273 17.231,-69.37 26.625,-103.81 8.244,-29.224 18.25,-58.285 22.031,-88.5 1.745,-13.544 -5.5239,-30.094 -21.188,-29.781 z"
         inkscape:connector-curvature="0" />
      <path
         id="path3334"
         style="text-indent:0;text-transform:none;block-progression:tb;fill:url(#linearGradient3345);fill-rule:evenodd;stroke:url(#linearGradient3345);stroke-width:32;stroke-linecap:round;stroke-linejoin:round"
         d="m 275.32,451.69 8.9257,-30.518 24.884,-85.143 c 5.4095,-17.439 8.0241,-29.834 7.8438,-37.186 -0.18039,-7.5224 -3.1556,-11.284 -8.9257,-11.284 -2.8852,2.2e-4 -8.0242,1.8809 -15.417,5.642 -7.2128,3.7615 -16.77,9.489 -28.67,17.182 l -4.0571,-10.002 c 22.72,-15.729 42.014,-27.868 57.882,-36.416 15.868,-8.5482 26.957,-12.822 33.269,-12.823 6.852,2.6e-4 10.729,4.1035 11.63,12.31 1.0818,8.2068 -0.81156,20.517 -5.68,36.929 l -21.638,75.654 -15.688,56.933 c -4.1474,15.558 -6.1309,26.415 -5.9505,32.57 0.18025,5.984 2.6145,8.9759 7.3029,8.9759 3.9669,3e-5 9.8272,-2.0516 17.581,-6.1549 7.9339,-4.1032 17.761,-10.344 29.482,-18.721 l 4.8686,9.4888 c -20.917,15.9 -38.678,28.21 -53.284,36.929 -14.425,8.5484 -24.613,12.823 -30.564,12.823 -10.278,0 -16.679,-4.7871 -19.204,-14.361 l -1.0819,-9.2323 c -2e-5,-8.5484 2.1638,-19.747 6.4914,-33.595 m 94.667,-321.34 c 7.0322,3.7e-4 12.261,2.8214 15.688,8.463 3.4259,5.4714 4.057,12.054 1.8933,19.747 -2.3443,7.694 -6.8522,14.362 -13.524,20.003 -6.6719,5.4713 -13.524,8.2068 -20.556,8.2065 -7.0325,3.1e-4 -12.262,-2.7352 -15.688,-8.2065 -3.4261,-5.6416 -3.9671,-12.309 -1.6229,-20.003 2.1637,-7.6933 6.5815,-14.276 13.253,-19.747 6.6716,-5.6416 13.524,-8.4626 20.556,-8.463"
         inkscape:connector-curvature="0" />
      <g
         id="g7880">
        <path
           id="path7876"
           d="m 673.37,582.76 c -165.91,17.727 -216.69,-24.732 -349.58,51.053 -61.601,35.13 -119.16,47.249 -151.33,49.463 -13.737,-37.152 -21.594,-20.547 -33.986,-14.715 -8.605,-18.603 -12.755,-47.497 -12.755,-89.051 0,-158.5 128.64,-287.14 287.14,-287.14 105.1,0 197.06,56.556 247.11,140.87 21.814,36.754 35.662,78.782 39.16,123.7 -9.4152,-2.0579 -27.069,-8.7004 -25.759,25.82 z"
           transform="translate(-82.449,-258.08)"
           inkscape:connector-curvature="0"
           style="opacity:0.49533003;fill:url(#radialGradient3329-5);filter:url(#filter3493-3)" />
        <path
           id="path7878"
           d="m 699.61,594.54 c -7.8281,151.52 -133.3,272.11 -286.76,272.11 -53.966,0 -104.47,-14.912 -147.61,-40.838 16.638,5.8804 34.788,-6.0324 7.7523,-25.668 45.466,-6.9287 133.35,-20.693 204.31,-70.569 111.54,-78.405 132.92,-138.92 196.81,-147.32 -2.2565,44.289 23.879,15.505 25.499,12.288 z"
           transform="translate(-82.449,-258.08)"
           inkscape:connector-curvature="0"
           style="opacity:0.18718998;fill:url(#radialGradient3515-6);filter:url(#filter3569-5)" />
      </g>
    </g>
  </g>
  <metadata
     id="metadata37">
    <rdf:RDF>
      <cc:Work>
        <dc:format>image/svg+xml</dc:format>
        <dc:type
           rdf:resource="http://purl.org/dc/dcmitype/StillImage" />
        <cc:license
           rdf:resource="http://creativecommons.org/licenses/publicdomain/" />
        <dc:publisher>
          <cc:Agent
             rdf:about="http://openclipart.org/">
            <dc:title>Openclipart</dc:title>
          </cc:Agent>
        </dc:publisher>
        <dc:title></dc:title>
        <dc:date>2010-03-24T10:19:18</dc:date>
        <dc:description>Info sign, blue</dc:description>
        <dc:source>http://openclipart.org/detail/33733/info-sign-by-ernes</dc:source>
        <dc:creator>
          <cc:Agent>
            <dc:title>ernes</dc:title>
          </cc:Agent>
        </dc:creator>
        <dc:subject>
          <rdf:Bag>
            <rdf:li>clip art</rdf:li>
            <rdf:li>clipart</rdf:li>
            <rdf:li>icon</rdf:li>
            <rdf:li>info</rdf:li>
            <rdf:li>information</rdf:li>
            <rdf:li>sign</rdf:li>
          </rdf:Bag>
        </dc:subject>
      </cc:Work>
      <cc:License
         rdf:about="http://creativecommons.org/licenses/publicdomain/">
        <cc:permits
           rdf:resource="http://creativecommons.org/ns#Reproduction" />
        <cc:permits
           rdf:resource="http://creativecommons.org/ns#Distribution" />
        <cc:permits
           rdf:resource="http://creativecommons.org/ns#DerivativeWorks" />
      </cc:License>
    </rdf:RDF>
  </metadata>
</svg>
