<?xml version="1.0" encoding="UTF-8" standalone="no"?>
<svg
   xmlns:dc="http://purl.org/dc/elements/1.1/"
   xmlns:cc="http://creativecommons.org/ns#"
   xmlns:rdf="http://www.w3.org/1999/02/22-rdf-syntax-ns#"
   xmlns:svg="http://www.w3.org/2000/svg"
   xmlns="http://www.w3.org/2000/svg"
   xmlns:xlink="http://www.w3.org/1999/xlink"
   xmlns:sodipodi="http://sodipodi.sourceforge.net/DTD/sodipodi-0.dtd"
   xmlns:inkscape="http://www.inkscape.org/namespaces/inkscape"
   id="svg2"
   viewBox="0 0 16 16"
   version="1.1"
   inkscape:version="0.48.4 r9939"
   width="100%"
   height="100%"
   sodipodi:docname="light_bulb.svg"
   inkscape:export-filename="C:\data\ws\joffice_migration_1\com.joffice.model_1_0_0.edit\icons\full\obj16\idea.png"
   inkscape:export-xdpi="90"
   inkscape:export-ydpi="90">
  <sodipodi:namedview
     pagecolor="#ffffff"
     bordercolor="#666666"
     borderopacity="1"
     objecttolerance="10"
     gridtolerance="10"
     guidetolerance="10"
     inkscape:pageopacity="0"
     inkscape:pageshadow="2"
     inkscape:window-width="1842"
     inkscape:window-height="1051"
     id="namedview52"
     showgrid="false"
     inkscape:zoom="19.666667"
     inkscape:cx="10.208564"
     inkscape:cy="12.671048"
     inkscape:window-x="69"
     inkscape:window-y="-9"
     inkscape:window-maximized="1"
     inkscape:current-layer="svg2" />
  <title
     id="title4161">Light bulb icon</title>
  <defs
     id="defs4">
    <linearGradient
       id="linearGradient3817">
      <stop
         id="stop3819"
         stop-color="#fff"
         offset="0" />
      <stop
         id="stop3821"
         stop-color="#837356"
         offset="1" />
    </linearGradient>
    <filter
       id="filter4115"
       y="-0.41539001"
       width="1.2124"
       x="-0.10621"
       height="1.8308001"
       color-interpolation-filters="sRGB">
      <feGaussianBlur
         id="feGaussianBlur4117"
         stdDeviation="1.1543757" />
    </filter>
    <radialGradient
       id="radialGradient4145"
       gradientUnits="userSpaceOnUse"
       cy="47.333"
       cx="-12.895"
       gradientTransform="matrix(1,0,0,0.38609,0,29.058)"
       r="15.813">
      <stop
         id="stop4121"
         offset="0" />
      <stop
         id="stop4123"
         stop-opacity=".38938"
         offset="1" />
    </radialGradient>
    <linearGradient
       id="linearGradient4147"
       x1="18.929001"
       spreadMethod="reflect"
       gradientUnits="userSpaceOnUse"
       y1="1045.3"
       x2="25.179001"
       y2="1045.5">
      <stop
         id="stop4031"
         stop-color="#ffd543"
         offset="0" />
      <stop
         id="stop4033"
         stop-color="#ffeca9"
         offset="1" />
    </linearGradient>
    <radialGradient
       id="radialGradient4149"
       gradientUnits="userSpaceOnUse"
       cy="18.719999"
       cx="23.656"
       gradientTransform="matrix(0.9994,-0.034562,0.050507,1.4605,-0.57423,997.5)"
       r="15">
      <stop
         id="stop3797"
         stop-color="#fff"
         stop-opacity=".33725"
         offset="0" />
      <stop
         id="stop3799"
         stop-color="#729fcf"
         stop-opacity=".8902"
         offset="1" />
    </radialGradient>
    <linearGradient
       id="linearGradient4151"
       x1="8.7191"
       gradientUnits="userSpaceOnUse"
       y1="1.1058"
       gradientTransform="translate(0.35714,1005.3)"
       x2="30.702"
       y2="35.134998">
      <stop
         id="stop3779"
         stop-color="#729fcf"
         offset="0" />
      <stop
         id="stop3781"
         stop-color="#3465a4"
         offset="1" />
    </linearGradient>
    <linearGradient
       id="linearGradient4153"
       x1="15.536"
       gradientUnits="userSpaceOnUse"
       y1="1015.4"
       gradientTransform="translate(0,-4.6001)"
       x2="42.623001"
       y2="1039.6">
      <stop
         id="stop3809"
         stop-color="#fff"
         offset="0" />
      <stop
         id="stop3811"
         stop-color="#fff"
         stop-opacity="0"
         offset="1" />
    </linearGradient>
    <linearGradient
       id="linearGradient4155"
       x1="21.732"
       xlink:href="#linearGradient3817"
       gradientUnits="userSpaceOnUse"
       y1="21.437"
       gradientTransform="matrix(0.71907,-0.28041,0.46212,1.185,-6.21,1005.7)"
       x2="21.570999"
       y2="31.795" />
    <linearGradient
       id="linearGradient4157"
       x1="21.732"
       xlink:href="#linearGradient3817"
       gradientUnits="userSpaceOnUse"
       y1="21.437"
       gradientTransform="matrix(-0.71907,-0.28041,-0.46212,1.185,53.825,1005.7)"
       x2="21.570999"
       y2="31.795" />
    <linearGradient
       id="linearGradient4159"
       x1="23.886999"
       spreadMethod="reflect"
       gradientUnits="userSpaceOnUse"
       y1="1040.8"
       gradientTransform="translate(0,-4.6001)"
       x2="26.034"
       y2="1040.7">
      <stop
         id="stop3858"
         stop-color="#fff"
         offset="0" />
      <stop
         id="stop3860"
         stop-color="#fff"
         stop-opacity="0"
         offset="1" />
    </linearGradient>
    <linearGradient
       inkscape:collect="always"
       xlink:href="#linearGradient4147"
       id="linearGradient3080"
       gradientUnits="userSpaceOnUse"
       spreadMethod="reflect"
       x1="18.929001"
       y1="1045.3"
       x2="25.179001"
       y2="1045.5" />
    <radialGradient
       inkscape:collect="always"
       xlink:href="#radialGradient4149"
       id="radialGradient3082"
       gradientUnits="userSpaceOnUse"
       gradientTransform="matrix(0.9994,-0.034562,0.050507,1.4605,-0.57423,997.5)"
       cx="23.656"
       cy="18.719999"
       r="15" />
    <linearGradient
       inkscape:collect="always"
       xlink:href="#linearGradient4151"
       id="linearGradient3084"
       gradientUnits="userSpaceOnUse"
       gradientTransform="translate(0.35714,1005.3)"
       x1="8.7191"
       y1="1.1058"
       x2="30.702"
       y2="35.134998" />
    <linearGradient
       inkscape:collect="always"
       xlink:href="#linearGradient4153"
       id="linearGradient3086"
       gradientUnits="userSpaceOnUse"
       gradientTransform="translate(0,-4.6001)"
       x1="15.536"
       y1="1015.4"
       x2="42.623001"
       y2="1039.6" />
    <linearGradient
       inkscape:collect="always"
       xlink:href="#linearGradient3817"
       id="linearGradient3088"
       gradientUnits="userSpaceOnUse"
       gradientTransform="matrix(0.71907,-0.28041,0.46212,1.185,-6.21,1005.7)"
       x1="21.732"
       y1="21.437"
       x2="21.570999"
       y2="31.795" />
    <linearGradient
       inkscape:collect="always"
       xlink:href="#linearGradient3817"
       id="linearGradient3090"
       gradientUnits="userSpaceOnUse"
       gradientTransform="matrix(-0.71907,-0.28041,-0.46212,1.185,53.825,1005.7)"
       x1="21.732"
       y1="21.437"
       x2="21.570999"
       y2="31.795" />
    <linearGradient
       inkscape:collect="always"
       xlink:href="#linearGradient4159"
       id="linearGradient3092"
       gradientUnits="userSpaceOnUse"
       gradientTransform="translate(0,-4.6001)"
       spreadMethod="reflect"
       x1="23.886999"
       y1="1040.8"
       x2="26.034"
       y2="1040.7" />
  </defs>
  <g
     id="g4045"
     transform="matrix(0.33358183,0,0,0.33358183,-0.01025883,-335.25563)">
    <path
       id="path4043"
       d="m 21.035,1049.4 h 6 c 0,4 -6,4 -6,0 z"
       inkscape:connector-curvature="0"
       style="fill:#d0bfac;stroke:#5a5249;stroke-width:1px" />
    <path
       id="rect4024"
       d="m 17.362,1040.4 c 4.1669,-2.946 8.2706,-2.8962 12.501,0 0.04667,1.0552 0.10078,1.8872 -1.6071,2.4148 2.3909,0.2047 2.2071,1.9163 0.35714,2.8572 2.0521,0.9877 2.7651,1.6946 1.25,3.0962 -4.9037,3.3991 -7.8229,3.2821 -12.501,-0.045 -0.83319,-0.66 -0.22222,-1.5596 2.0536,-1.9356 -2.5859,-0.4353 -2.6813,-2.8088 -0.17858,-3.1696 -1.9932,-1.2189 -1.8069,-2.1317 -1.875,-3.2184 z"
       inkscape:connector-curvature="0"
       style="fill:none;stroke:#d59600;stroke-linecap:square;stroke-linejoin:bevel" />
    <path
       id="path4027"
       d="m 17.804,1040.7 c 4.1669,-2.946 8.0945,-2.4059 11.585,-0.032 0.14137,0.8184 -0.27803,1.5083 -1.1178,2.1622 2.4066,1.057 0.89706,2.5003 0.1993,2.9835 2.2573,1.3191 2.1812,1.663 0.66601,3.0646 -5.2509,3.1939 -7.8229,1.7669 -10.575,0.3023 -1.1331,-0.9599 -2.0216,-1.1177 0.9645,-2.3302 -2.3175,-1.1772 -2.0657,-2.3353 -0.09966,-3.3432 -1.3499,-1.07 -1.5386,-1.7451 -1.6225,-2.8077 z"
       style="fill:url(#linearGradient3080)"
       inkscape:connector-curvature="0" />
    <path
       id="path2984-2"
       d="m 24.013,1005.6 c -8.008,0 -14.5,6.492 -14.5,14.5 0,3.4078 1.1884,6.5247 3.1562,9 0.009,0.011 0.02223,0.02 0.03125,0.031 3.0848,5.1457 3.3723,6.1735 3.9062,8.25 0.21377,0.8314 0.45657,2.5914 1.2812,3.4063 1.8461,1.8242 9.1157,2.3353 11.531,0 2.0691,-4.148 3.5291,-8.7439 5.875,-11.625 2.0004,-2.4857 3.2188,-5.6235 3.2188,-9.0625 0,-8.008 -6.492,-14.5 -14.5,-14.5 z"
       inkscape:connector-curvature="0"
       style="opacity:0.26000001;fill:#ffc803" />
    <path
       id="path2984"
       d="m 24.013,1005.6 c -8.008,0 -14.5,6.492 -14.5,14.5 0,3.4078 1.1884,6.5247 3.1563,9 0.009,0.011 0.02223,0.02 0.03125,0.031 3.0848,5.1457 3.3723,6.1735 3.9062,8.25 0.21377,0.8314 0.45657,2.5914 1.2812,3.4063 1.8461,1.8242 9.1157,2.3353 11.531,0 2.0691,-4.148 3.5291,-8.7439 5.875,-11.625 2.0004,-2.4857 3.2188,-5.6235 3.2188,-9.0625 0,-8.008 -6.492,-14.5 -14.5,-14.5 z"
       style="fill:url(#radialGradient3082);stroke:url(#linearGradient3084);stroke-width:1.00049996"
       inkscape:connector-curvature="0" />
    <path
       id="path3805"
       d="m 24.3,1006.5 c -7.7887,0.089 -13.811,6.0526 -13.799,13.897 0.0047,3.2885 1.4722,6.2125 2.8964,8.0208 1.2555,1.8218 3.3121,5.4871 4.0109,8.3928 0.38898,0.5498 0.42625,2.5128 1.1292,3.2545 2.0259,1.4954 7.7517,1.9539 10.164,0.089 1.9317,-4.0027 3.2939,-8.4053 5.484,-11.186 1.8295,-2.2157 3.1534,-4.2724 3.3845,-8.7004 0.02317,-7.2372 -5.4716,-13.21 -13.269,-13.768 z"
       style="opacity:0.75;fill:none;stroke:url(#linearGradient3086)"
       inkscape:connector-curvature="0" />
    <g
       id="g3837"
       transform="translate(0.20586,-3.4566)"
       style="fill:none;stroke-linecap:round">
      <path
         id="path3815"
         d="m 18.69,1025.9 3.4247,8.782"
         style="stroke:url(#linearGradient3088)"
         inkscape:connector-curvature="0" />
      <path
         id="path3831"
         d="m 28.925,1025.9 -3.425,8.8"
         style="stroke:url(#linearGradient3090)"
         inkscape:connector-curvature="0" />
      <path
         id="path3835"
         d="m 18.728,1025.9 c 1.0975,0.1673 2.5585,-0.051 3.3482,-1.2723 1.0495,0.5915 2.1224,0.9725 3.3482,-0.022 0.79329,0.7468 1.8776,1.3589 3.4821,1.2946"
         inkscape:connector-curvature="0"
         style="stroke:#ffffff;stroke-width:1px;stroke-linejoin:round" />
    </g>
    <path
       id="path3846"
       d="m 20.725,1040.9 0.15264,-8.77 c 1.8754,-1.6856 4.3546,-1.6457 6.4241,0 l -0.05887,8.77"
       style="opacity:0.5;fill:url(#linearGradient3092);stroke:#d3cdc2;stroke-width:1px;stroke-linecap:round;stroke-linejoin:round"
       inkscape:connector-curvature="0" />
    <path
       id="path4022"
       transform="matrix(1.0883,-0.49096,0.51575,1.1433,-1.588,1004.4)"
       d="m 19.761,15.549 c 0,2.8941 -2.8832,5.2402 -6.4397,5.2402 -3.5566,0 -6.4397,-2.3461 -6.4397,-5.2402 0,-2.8941 2.8832,-5.2402 6.4397,-5.2402 3.5566,0 6.4397,2.3461 6.4397,5.2402 z"
       inkscape:connector-curvature="0"
       style="opacity:0.37000002;fill:#ffffff" />
    <path
       id="path4039"
       transform="translate(0,1004.4)"
       d="m 19.538,39.271 c 1.2973,0.87453 3.1392,1.4027 8.8164,2.1095 -4.4205,0.49526 -8.4085,-0.6312 -8.8164,-2.1095 z"
       inkscape:connector-curvature="0"
       style="fill:#d59600" />
    <path
       id="path4041"
       d="m 19.838,1046.7 c 1.2973,0.8746 3.1392,1.4028 8.8164,2.1095 -4.4205,0.4953 -8.4085,-0.6312 -8.8164,-2.1095 z"
       inkscape:connector-curvature="0"
       style="fill:#d59600" />
  </g>
  <metadata
     id="metadata50">
    <rdf:RDF>
      <cc:Work>
        <dc:format>image/svg+xml</dc:format>
        <dc:type
           rdf:resource="http://purl.org/dc/dcmitype/StillImage" />
        <cc:license
           rdf:resource="http://creativecommons.org/licenses/publicdomain/" />
        <dc:publisher>
          <cc:Agent
             rdf:about="http://openclipart.org/">
            <dc:title>Openclipart</dc:title>
          </cc:Agent>
        </dc:publisher>
        <dc:title>Light bulb icon</dc:title>
        <dc:date>2011-08-07T21:02:56</dc:date>
        <dc:description>Icon from the Tango Desktop Project</dc:description>
        <dc:source>http://openclipart.org/detail/154075/light-bulb-icon-by-lual</dc:source>
        <dc:creator>
          <cc:Agent>
            <dc:title>lual</dc:title>
          </cc:Agent>
        </dc:creator>
        <dc:subject>
          <rdf:Bag>
            <rdf:li>Icon</rdf:li>
            <rdf:li>Tango Desktop Project</rdf:li>
            <rdf:li>clip art</rdf:li>
            <rdf:li>clipart</rdf:li>
          </rdf:Bag>
        </dc:subject>
      </cc:Work>
      <cc:License
         rdf:about="http://creativecommons.org/licenses/publicdomain/">
        <cc:permits
           rdf:resource="http://creativecommons.org/ns#Reproduction" />
        <cc:permits
           rdf:resource="http://creativecommons.org/ns#Distribution" />
        <cc:permits
           rdf:resource="http://creativecommons.org/ns#DerivativeWorks" />
      </cc:License>
    </rdf:RDF>
  </metadata>
</svg>
