<?xml version="1.0" encoding="UTF-8" standalone="no"?>
<svg
   xmlns:dc="http://purl.org/dc/elements/1.1/"
   xmlns:cc="http://creativecommons.org/ns#"
   xmlns:rdf="http://www.w3.org/1999/02/22-rdf-syntax-ns#"
   xmlns:svg="http://www.w3.org/2000/svg"
   xmlns="http://www.w3.org/2000/svg"
   xmlns:sodipodi="http://sodipodi.sourceforge.net/DTD/sodipodi-0.dtd"
   xmlns:inkscape="http://www.inkscape.org/namespaces/inkscape"
   id="svg3592"
   viewBox="0 0 32 32"
   version="1.1"
   inkscape:version="0.48.4 r9939"
   width="100%"
   height="100%"
   sodipodi:docname="Music_2.svg"
   inkscape:export-filename="C:\data\ws\joffice_migration_1\com.joffice.client.resources\src\com\joffice\ui\resources\images\tools\Music_2_header.png"
   inkscape:export-xdpi="112.5"
   inkscape:export-ydpi="112.5">
  <sodipodi:namedview
     pagecolor="#ffffff"
     bordercolor="#666666"
     borderopacity="1"
     objecttolerance="10"
     gridtolerance="10"
     guidetolerance="10"
     inkscape:pageopacity="0"
     inkscape:pageshadow="2"
     inkscape:window-width="1842"
     inkscape:window-height="1051"
     id="namedview3078"
     showgrid="false"
     inkscape:zoom="4.6139848"
     inkscape:cx="-15.005656"
     inkscape:cy="0.73000698"
     inkscape:window-x="69"
     inkscape:window-y="-9"
     inkscape:window-maximized="1"
     inkscape:current-layer="svg3592" />
  <defs
     id="defs3594">
    <linearGradient
       id="linearGradient3590"
       y2="329.51001"
       gradientUnits="userSpaceOnUse"
       y1="732.35999"
       x2="-568.57001"
       x1="-554.28998">
      <stop
         id="stop3914-55-4"
         stop-color="#fff"
         offset="0" />
      <stop
         id="stop3916-7-0"
         stop-color="#fff"
         stop-opacity="0"
         offset="1" />
    </linearGradient>
    <linearGradient
       x1="-543.25"
       y1="770.94"
       gradientTransform="translate(729.67,-22.021)"
       x2="-190.88"
       gradientUnits="userSpaceOnUse"
       y2="231.09"
       id="linearGradient3770">
      <stop
         offset="0"
         stop-opacity=".82639"
         id="stop3015-9" />
      <stop
         offset="1"
         id="stop3017-0" />
    </linearGradient>
    <linearGradient
       x1="382.34"
       y1="489.14"
       gradientTransform="matrix(2.0779,0,0,2.0779,-518.08,-281.8)"
       x2="490.53"
       gradientUnits="userSpaceOnUse"
       y2="333.89"
       id="linearGradient3019">
      <stop
         offset="0"
         stop-opacity=".82639"
         id="stop3015" />
      <stop
         offset="1"
         id="stop3017" />
    </linearGradient>
  </defs>
  <metadata
     id="metadata3076">
    <rdf:RDF>
      <cc:Work>
        <dc:format>image/svg+xml</dc:format>
        <dc:type
           rdf:resource="http://purl.org/dc/dcmitype/StillImage" />
        <cc:license
           rdf:resource="http://creativecommons.org/licenses/publicdomain/" />
        <dc:publisher>
          <cc:Agent
             rdf:about="http://openclipart.org/">
            <dc:title>Openclipart</dc:title>
          </cc:Agent>
        </dc:publisher>
        <dc:title></dc:title>
        <dc:date>2011-03-31T15:24:38</dc:date>
        <dc:description>Music icon 2</dc:description>
        <dc:source>http://openclipart.org/detail/130045/music-icon-green-2-by-gsagri04</dc:source>
        <dc:creator>
          <cc:Agent>
            <dc:title>gsagri04</dc:title>
          </cc:Agent>
        </dc:creator>
        <dc:subject>
          <rdf:Bag>
            <rdf:li>Music</rdf:li>
            <rdf:li>clip art</rdf:li>
            <rdf:li>clipart</rdf:li>
            <rdf:li>collection</rdf:li>
            <rdf:li>icon</rdf:li>
            <rdf:li>png</rdf:li>
            <rdf:li>songs</rdf:li>
            <rdf:li>svg</rdf:li>
          </rdf:Bag>
        </dc:subject>
      </cc:Work>
      <cc:License
         rdf:about="http://creativecommons.org/licenses/publicdomain/">
        <cc:permits
           rdf:resource="http://creativecommons.org/ns#Reproduction" />
        <cc:permits
           rdf:resource="http://creativecommons.org/ns#Distribution" />
        <cc:permits
           rdf:resource="http://creativecommons.org/ns#DerivativeWorks" />
      </cc:License>
    </rdf:RDF>
  </metadata>
  <g
     id="g4266"
     transform="translate(-23.188342,19.289804)"
     style="stroke-width:0.15;stroke-miterlimit:4;stroke-dasharray:none">
    <path
       d="m 33.701458,10.427536 c 0.970009,0 9.103382,-4.6262131 9.17764,-7.0883642 0.07479,-2.0150178 -2.164593,-2.52633049 -3.730356,-2.4626816 -2.100413,0.0901693 -3.432531,0.6714958 -4.40254,1.1939471 -0.07458,-0.9701152 0.07463,-8.2823116 0.07463,-8.2823116 l -1.193841,5.3e-5 0.07463,16.6394103 z"
       id="path623"
       inkscape:connector-curvature="0"
       style="fill:#fff000;fill-opacity:1;fill-rule:evenodd;stroke:#000000;stroke-width:0.15;stroke-miterlimit:4;stroke-dasharray:none" />
    <path
       d="m 34.746043,8.4125185 c 1.566929,0 5.474865,-2.757588 5.446753,-4.9243023 0.02811,-0.8178882 -0.672026,-1.1531056 -2.089275,-1.1191596 -1.716822,0.040841 -2.61146,1.2682041 -3.283009,1.9396999 0,0.8953277 -0.07463,2.8355579 -0.07463,4.103762 z"
       id="path624"
       inkscape:connector-curvature="0"
       style="fill:#ffffff;fill-rule:evenodd;stroke:#000000;stroke-width:0.15;stroke-miterlimit:4;stroke-opacity:1;stroke-dasharray:none" />
  </g>
  <path
     inkscape:connector-curvature="0"
     d="m 29.079527,17.478262 0,-3.828389 1.11819,-0.398001 c 0.189532,-0.0758 0.32219,-0.246382 0.32219,-0.435905 l 0,-1.459336 c 0,-0.265335 -0.227425,-0.473811 -0.49276,-0.473811 -0.03795,0 -0.113718,0 -0.170572,0.01895 l -0.777048,0.265333 0,-3.8662923 1.11819,-0.379049 c 0.189532,-0.075812 0.32219,-0.2653331 0.32219,-0.4738099 l 0,-1.4403838 c 0,-0.2653339 -0.227425,-0.4927632 -0.49276,-0.4927632 -0.03795,0 -0.113718,0 -0.170572,0.037906 l -0.777048,0.2842864 0,-3.5061975 c 0,-0.2463816 -0.189521,-0.4548584 -0.435906,-0.4548584 -0.227424,0 -0.454858,0.2084768 -0.454858,0.4548584 l 0,3.8283885 -2.008953,0.7391446 0,-3.5061982 c 0,-0.2463807 -0.208483,-0.4548576 -0.454859,-0.4548576 -0.246384,0 -0.435907,0.2084769 -0.435907,0.4548576 l 0,3.8283892 -1.099238,0.3979998 c -0.208482,0.075812 -0.322189,0.2463815 -0.322189,0.435906 l 0,1.4593362 c 0,0.2653338 0.208473,0.4738098 0.473809,0.4738098 0.05686,0 0.132668,0 0.170571,-0.01895 l 0.777047,-0.265334 0,3.8662944 -1.099238,0.379047 c -0.208482,0.07581 -0.322189,0.265334 -0.322189,0.473812 l 0,1.44038 c 0,0.265336 0.208473,0.492766 0.473809,0.492766 0.05686,0 0.132668,0 0.170571,-0.03788 l 0.777047,-0.284286 0,3.506196 c 0,0.246387 0.189523,0.45486 0.435907,0.45486 0.246376,0 0.454859,-0.208473 0.454859,-0.45486 l 0,-3.828387 2.008953,-0.739141 0,3.506199 c 0,0.246379 0.227434,0.454852 0.454858,0.454852 0.246385,0 0.435906,-0.208473 0.435906,-0.454852 z m -2.899717,-9.1161132 2.008953,-0.7201926 0,3.8662938 -2.008953,0.720192 0,-3.8662932 z m 0,0"
     id="path3085"
     style="fill:#ff5100;fill-opacity:1;fill-rule:nonzero;stroke:#000000;stroke-width:0.15;stroke-miterlimit:4;stroke-opacity:1;stroke-dasharray:none" />
  <g
     id="layer1-9"
     transform="matrix(0.0272599,0.00282579,-0.00282579,0.0272599,7.5921821,-6.4819711)"
     style="fill:#00a6ff;fill-opacity:1;stroke:#000000;stroke-width:5.47325986;stroke-miterlimit:4;stroke-opacity:1;stroke-dasharray:none">
    <path
       d="m 418.39,231.34 c 14.32,21.136 21.682,46.728 40.135,64.982 21.135,27.835 48.146,50.891 69.089,79.058 15.157,19.681 31.771,40.599 36.074,65.357 11.587,31.757 6.556,67.409 -5.8056,98.498 -13.947,16.765 -23.482,-4.9319 -19.589,-18.365 0.59324,-18.535 0.32293,-37.021 -6.7859,-54.528 -6.3047,-26.255 -17.834,-51.101 -37.136,-70.366 -16.772,-14.701 -35.813,-47.095 -61.382,-35.941 -16.885,10.637 -9.5289,32.139 -11.346,48.712 -1.0035,101.95 -1.0707,203.94 -2.7005,305.87 -1.2461,42.809 -38.247,71.529 -72.88,89.908 -30.854,18.567 -67.795,28.966 -103.61,20.691 -33.304,-3.4173 -67.756,-27.73 -68.454,-63.704 -2.2204,-41.711 27.904,-80.552 64.988,-97.024 36.404,-20.749 82.429,-25.246 121.63,-10.331 19.156,6.0549 24.483,-11.721 26.874,-28.819 2.2123,-129.77 3.9829,-259.54 4.4354,-389.33 0.36593,-12.973 21.496,-16.139 26.461,-4.6603 z"
       id="path3-4"
       inkscape:connector-curvature="0"
       style="fill:#00a6ff;fill-opacity:1;fill-rule:evenodd;stroke:#000000;stroke-width:5.47325986;stroke-linecap:round;stroke-linejoin:round;stroke-miterlimit:4;stroke-opacity:1;stroke-dasharray:none" />
  </g>
  <g
     id="layer1"
     transform="matrix(0.03602132,0,0,0.03602132,10.913665,3.9481634)"
     style="fill:#00a800;fill-opacity:1;stroke:#000000;stroke-width:4.16420053;stroke-miterlimit:4;stroke-opacity:1;stroke-dasharray:none">
    <path
       d="m 190.85,451.25 c 11.661,14.719 32.323,24.491 55.844,24.491 36.401,0 65.889,-23.372 65.889,-52.214 0,-28.842 -29.488,-52.214 -65.889,-52.214 -20.314,4.1522 -28.593,9.0007 -33.143,-2.9091 17.976,-54.327 46.918,-66.709 96.546,-66.709 65.914,0 96.969,59.897 96.969,142.97 -18.225,190.63 -205.95,286.75 -246.57,316.19 5.6938,13.103 5.3954,12.631 5.3954,12.009 189.78,-86.203 330.69,-204.43 330.69,-320.74 0,-92.419 -58.579,-175.59 -187.72,-172.8 -77.575,0 -170.32,86.203 -118,171.93 z m 328.1,-89.88 c 0,17.852 14.471,32.323 32.323,32.323 17.852,0 32.323,-14.471 32.323,-32.323 0,-17.852 -14.471,-32.323 -32.323,-32.323 -17.852,0 -32.323,14.471 -32.323,32.323 z m 0,136.75 c 0,17.852 14.471,32.323 32.323,32.323 17.852,0 32.323,-14.471 32.323,-32.323 0,-17.852 -14.471,-32.323 -32.323,-32.323 -17.852,0 -32.323,14.471 -32.323,32.323 z"
       id="path3"
       inkscape:connector-curvature="0"
       style="fill:#00a800;fill-opacity:1;fill-rule:evenodd;stroke:#000000;stroke-width:4.16420053;stroke-miterlimit:4;stroke-opacity:1;stroke-dasharray:none" />
  </g>
  <path
     d="m 6.7958905,0.42252533 c -1.175371,-0.0305153 -2.549993,2.77610107 -2.504295,5.27909697 0.01061,0.7623558 0.251231,2.3085083 0.602305,4.2503495 -2.214081,2.2916162 -4.78508203,4.6434402 -4.78508203,7.7292472 -0.0353,2.827864 1.69299303,6.430645 5.79347003,6.395993 0.629377,-0.0043 1.195729,-0.0823 1.69884,-0.216579 0.374897,2.055328 0.624179,3.6775 0.622663,4.426861 0.01321,2.954129 -3.868089,3.246508 -4.054129,1.548536 0.818016,-0.02815 1.468833,-0.677891 1.468833,-1.481397 0,-0.820831 -0.679623,-1.490059 -1.522978,-1.490059 -0.463694,0 -0.876926,0.203585 -1.157178,0.521954 -0.0066,0.0065 -0.01408,0.013 -0.02036,0.01949 -0.06324,0.06714 -0.116519,0.147274 -0.169148,0.238237 -0.172829,0.292381 -0.285018,0.712542 -0.291082,1.312465 0,2.473324 6.2537,4.065174 6.2537,-0.812169 0.0097,-0.656232 -0.272456,-2.321721 -0.683522,-4.420364 4.4621625,-1.613508 3.3411525,-8.238641 -0.764737,-8.269828 -0.318371,0.0033 -0.625262,0.04028 -0.920458,0.11522 -0.233905,-1.125556 -0.459579,-2.217977 -0.656666,-3.221818 1.559147,-1.531425 2.920558,-3.5137664 2.890021,-7.1672264 0.0048,-2.6236298 -0.869346,-4.72747176 -1.800199,-4.75800927 z m 0.277437,2.53808147 c 0.531917,-0.051329 0.954243,0.4424696 0.954243,1.5294763 0.0431,1.866905 -1.264816,3.4973069 -2.822231,5.1370212 -0.149006,-0.89815 -0.246683,-1.6258533 -0.257295,-2.0574941 0.04418,-2.9164436 1.238611,-4.5234551 2.125283,-4.6090034 z m -1.671769,9.6782352 c 0.18994,0.977852 0.39504,2.008115 0.602305,3.045742 -2.717624,0.966805 -4.02186,4.75476 -0.169147,6.44992 -2.348359,-1.999235 -1.192481,-4.365787 0.500728,-4.778153 0.425794,2.125933 0.841624,4.223712 1.177753,6.036472 -0.456331,0.160268 -0.988896,0.253397 -1.610909,0.257728 -1.555249,0 -4.663149,-0.989762 -4.663149,-4.737651 0,-3.139086 2.175963,-4.414732 4.162419,-6.274058 z m 1.31983,4.649721 c 0.06779,-0.0041 0.141208,-0.0024 0.209647,0 2.829163,0 3.8962415,4.492918 1.015319,5.928832 -0.358437,-1.801931 -0.79311,-3.86809 -1.224966,-5.928832 z"
     id="path26"
     inkscape:connector-curvature="0"
     style="fill:#005bff;fill-opacity:1;stroke:#000000;stroke-width:0.15;stroke-miterlimit:4;stroke-dasharray:none" />
  <path
     inkscape:connector-curvature="0"
     d=""
     id="path3043"
     style="fill:#000000;fill-opacity:1;fill-rule:nonzero;stroke:none" />
  <path
     inkscape:connector-curvature="0"
     d="m 43.698766,9.0249125 0.171331,12.4559395 c 0,0.205601 0.171332,0.359804 0.394068,0.359804 l 0.06851,0 2.313003,-0.428333 -0.06851,3.992065 c 0.171331,0.08567 0.342663,0.154202 0.548267,0.154202 0.188464,0 0.376927,-0.06856 0.548267,-0.154202 L 47.519494,12.948449 c 0,-0.2056 -0.171331,-0.359801 -0.394059,-0.359801 l -0.06851,0 -2.313003,0.428335 0.06852,-3.9920705 c -0.17134,-0.08567 -0.359803,-0.1541998 -0.548267,-0.1541998 -0.205604,0 -0.394068,0.068536 -0.565399,0.1541998 z m 3.032601,5.7396715 -0.06851,4.523203 -2.004596,0.376933 0.06851,-4.523203 2.004604,-0.376933 z m 0,0"
     id="path3081"
     style="fill:#ff0000;fill-opacity:1;fill-rule:nonzero;stroke:#000000;stroke-width:0.15;stroke-miterlimit:4;stroke-opacity:1;stroke-dasharray:none" />
</svg>
