<?xml version="1.0" encoding="UTF-8" standalone="no"?>
<svg
   xmlns:dc="http://purl.org/dc/elements/1.1/"
   xmlns:cc="http://creativecommons.org/ns#"
   xmlns:rdf="http://www.w3.org/1999/02/22-rdf-syntax-ns#"
   xmlns:svg="http://www.w3.org/2000/svg"
   xmlns="http://www.w3.org/2000/svg"
   xmlns:xlink="http://www.w3.org/1999/xlink"
   xmlns:sodipodi="http://sodipodi.sourceforge.net/DTD/sodipodi-0.dtd"
   xmlns:inkscape="http://www.inkscape.org/namespaces/inkscape"
   id="svg2"
   viewBox="0 0 24 24"
   version="1.1"
   inkscape:version="0.48.4 r9939"
   width="100%"
   height="100%"
   sodipodi:docname="navigator_3_clipart.svg"
   inkscape:export-filename="C:\data\ws\joffice_fx\com.joffice.build\web\joffice.eu\images\navigator_3_header.png"
   inkscape:export-xdpi="150"
   inkscape:export-ydpi="150">
  <sodipodi:namedview
     pagecolor="#ffffff"
     bordercolor="#666666"
     borderopacity="1"
     objecttolerance="10"
     gridtolerance="10"
     guidetolerance="10"
     inkscape:pageopacity="0"
     inkscape:pageshadow="2"
     inkscape:window-width="1842"
     inkscape:window-height="1051"
     id="namedview179"
     showgrid="false"
     inkscape:zoom="16.819119"
     inkscape:cx="2.6379986"
     inkscape:cy="21.96434"
     inkscape:window-x="69"
     inkscape:window-y="-9"
     inkscape:window-maximized="1"
     inkscape:current-layer="svg2" />
  <defs
     id="defs6">
    <linearGradient
       id="linearGradient20"
       y2="223.25"
       gradientUnits="userSpaceOnUse"
       x2="30"
       y1="410.75"
       x1="80.813004">
      <stop
         id="stop16"
         stop-color="#279ff6"
         offset="0" />
      <stop
         id="stop18"
         stop-color="#97e7fe"
         offset="1" />
    </linearGradient>
    <linearGradient
       id="linearGradient4058"
       y2="437.60999"
       gradientUnits="userSpaceOnUse"
       x2="1114"
       gradientTransform="translate(-1.3518,2.601)"
       y1="128.19"
       x1="946.5">
      <stop
         id="stop4054"
         stop-color="#9bb1c8"
         offset="0" />
      <stop
         id="stop4060"
         stop-color="#fff"
         offset=".32244" />
      <stop
         id="stop4062"
         stop-color="#fff"
         offset=".76727" />
      <stop
         id="stop4056"
         stop-color="#c3cacd"
         offset="1" />
    </linearGradient>
    <linearGradient
       id="linearGradient4080"
       y2="408.01999"
       gradientUnits="userSpaceOnUse"
       x2="493.64999"
       gradientTransform="translate(699.58,-67.361)"
       y1="202.17999"
       x1="210.78">
      <stop
         id="stop4076"
         stop-color="#fff"
         offset="0" />
      <stop
         id="stop4082"
         stop-color="#abbed1"
         offset=".50671" />
      <stop
         id="stop4078"
         stop-color="#fff"
         offset="1" />
    </linearGradient>
    <radialGradient
       id="radialGradient4096"
       gradientUnits="userSpaceOnUse"
       cy="326.29999"
       cx="57.554001"
       r="115.58">
      <stop
         id="stop4094"
         stop-color="#0b4994"
         stop-opacity="0"
         offset="0" />
      <stop
         id="stop4100"
         stop-color="#0b4994"
         stop-opacity=".19608"
         offset=".87307" />
      <stop
         id="stop4092"
         stop-color="#0b4994"
         offset="1" />
    </radialGradient>
    <linearGradient
       id="linearGradient4121"
       y2="300.03"
       gradientUnits="userSpaceOnUse"
       x2="1047.3"
       y1="16.164"
       x1="1025.9">
      <stop
         id="stop4117"
         stop-color="#fff"
         offset="0" />
      <stop
         id="stop4119"
         stop-color="#fff"
         stop-opacity="0"
         offset="1" />
    </linearGradient>
    <radialGradient
       id="radialGradient4359"
       gradientUnits="userSpaceOnUse"
       cy="273.10001"
       cx="715.71997"
       gradientTransform="matrix(1,0,0,0.97368,-5.8746e-4,7.187)"
       r="25.561001">
      <stop
         id="stop4258"
         stop-color="#fff"
         offset="0" />
      <stop
         id="stop4260"
         stop-color="#a8bbce"
         offset=".66447" />
      <stop
         id="stop4262"
         stop-color="#a8bbce"
         offset=".91447" />
      <stop
         id="stop4264"
         stop-color="#fff"
         offset="1" />
    </radialGradient>
    <filter
       id="filter4503"
       y="-0.056182001"
       width="1.053"
       height="1.1124001"
       x="-0.026486"
       color-interpolation-filters="sRGB">
      <feGaussianBlur
         id="feGaussianBlur4505"
         stdDeviation="2.9444535" />
    </filter>
    <filter
       id="filter4148"
       y="-0.15063"
       width="1.2759"
       height="1.3013"
       x="-0.13793001"
       color-interpolation-filters="sRGB">
      <feGaussianBlur
         id="feGaussianBlur4150"
         stdDeviation="2.341875" />
    </filter>
    <filter
       id="filter4241"
       y="-0.0060000001"
       width="1.012"
       height="1.012"
       x="-0.0060000001"
       color-interpolation-filters="sRGB">
      <feGaussianBlur
         id="feGaussianBlur4243"
         stdDeviation="0.8392624" />
    </filter>
    <linearGradient
       id="linearGradient4346"
       y2="392.41"
       gradientUnits="userSpaceOnUse"
       x2="1048.2"
       y1="508.19"
       x1="1087.1">
      <stop
         id="stop4342"
         offset="0" />
      <stop
         id="stop4344"
         stop-opacity="0"
         offset="1" />
    </linearGradient>
    <linearGradient
       id="linearGradient4360"
       y2="167.47"
       gradientUnits="userSpaceOnUse"
       x2="983.17999"
       y1="125.11"
       x1="966.31">
      <stop
         id="stop4356"
         stop-color="#fff"
         offset="0" />
      <stop
         id="stop4358"
         stop-color="#fff"
         stop-opacity="0"
         offset="1" />
    </linearGradient>
    <linearGradient
       id="linearGradient39571"
       y2="169.05"
       gradientUnits="userSpaceOnUse"
       x2="183.78999"
       gradientTransform="translate(210.86,-3.7653)"
       y1="698.08002"
       x1="64.873001">
      <stop
         id="stop39567"
         stop-color="#176ebe"
         offset="0" />
      <stop
         id="stop39569"
         stop-color="#86c9f1"
         offset="1" />
    </linearGradient>
    <linearGradient
       id="linearGradient39579"
       y2="250.03"
       gradientUnits="userSpaceOnUse"
       x2="304.35001"
       gradientTransform="translate(210.86,-3.7653)"
       y1="551.25"
       x1="-94.181999">
      <stop
         id="stop39575"
         stop-color="#668000"
         offset="0" />
      <stop
         id="stop39577"
         stop-color="#c8ab37"
         offset="1" />
    </linearGradient>
    <linearGradient
       id="linearGradient39587"
       y2="540.40002"
       gradientUnits="userSpaceOnUse"
       x2="373.70999"
       gradientTransform="translate(210.86,-3.7653)"
       y1="65.027"
       x1="5.6479998">
      <stop
         id="stop39583"
         stop-color="#e6e6e6"
         offset="0" />
      <stop
         id="stop39589"
         stop-color="#f2f2f2"
         offset=".11306" />
      <stop
         id="stop39585"
         stop-color="#e6e6e6"
         offset="1" />
    </linearGradient>
    <linearGradient
       id="linearGradient39710"
       y2="342.28"
       gradientUnits="userSpaceOnUse"
       x2="451.09"
       y1="342.28"
       x1="348.06">
      <stop
         id="stop39706"
         stop-color="#166cbc"
         offset="0" />
      <stop
         id="stop39708"
         stop-color="#9ed9f4"
         offset="1" />
    </linearGradient>
    <filter
       id="filter39719"
       y="-0.015184"
       width="1.1145"
       height="1.0304"
       x="-0.057227001"
       color-interpolation-filters="sRGB">
      <feGaussianBlur
         id="feGaussianBlur39721"
         stdDeviation="2.4567187" />
    </filter>
    <linearGradient
       id="linearGradient39729"
       y2="335.69"
       gradientUnits="userSpaceOnUse"
       x2="440.04999"
       gradientTransform="translate(202.39,5.1278972e-8)"
       y1="329.10001"
       x1="394.88">
      <stop
         id="stop39725"
         offset="0" />
      <stop
         id="stop39727"
         stop-opacity="0"
         offset="1" />
    </linearGradient>
    <linearGradient
       id="linearGradient39739"
       y2="478.73999"
       gradientUnits="userSpaceOnUse"
       x2="301.22"
       gradientTransform="translate(210.86,-3.7653)"
       y1="633.12"
       x1="338.88">
      <stop
         id="stop39735"
         offset="0" />
      <stop
         id="stop39737"
         stop-opacity="0"
         offset="1" />
    </linearGradient>
    <linearGradient
       id="linearGradient39747"
       y2="155.03"
       gradientUnits="userSpaceOnUse"
       x2="450.59"
       gradientTransform="translate(210.86,-3.7653)"
       y1="533.44"
       x1="379.48999">
      <stop
         id="stop39743"
         stop-color="#ccc"
         offset="0" />
      <stop
         id="stop39745"
         stop-color="#f2f2f2"
         offset="1" />
    </linearGradient>
    <linearGradient
       id="linearGradient39757"
       y2="480.73001"
       gradientUnits="userSpaceOnUse"
       x2="385.63"
       gradientTransform="translate(210.86,-3.7653)"
       y1="558.85999"
       x1="333.37">
      <stop
         id="stop39753"
         offset="0" />
      <stop
         id="stop39755"
         stop-opacity="0"
         offset="1" />
    </linearGradient>
    <filter
       id="filter40169"
       y="-0.035999998"
       width="1.072"
       height="1.072"
       x="-0.035999998"
       color-interpolation-filters="sRGB">
      <feGaussianBlur
         id="feGaussianBlur40171"
         stdDeviation="5.1107812" />
    </filter>
    <filter
       id="filter40191"
       y="-1.017"
       width="1.0492001"
       height="3.0339999"
       x="-0.02458"
       color-interpolation-filters="sRGB">
      <feGaussianBlur
         id="feGaussianBlur40193"
         stdDeviation="4.512893" />
    </filter>
    <radialGradient
       id="radialGradient40411"
       gradientUnits="userSpaceOnUse"
       cy="579.40002"
       cx="238.87"
       gradientTransform="matrix(1.4642,0.0081447,-3.8877e-4,0.069892,-110.67,511.9)"
       r="231.14999">
      <stop
         id="stop40407"
         offset="0" />
      <stop
         id="stop40413"
         stop-opacity=".26667"
         offset=".45698" />
      <stop
         id="stop40409"
         offset="1" />
    </radialGradient>
    <linearGradient
       inkscape:collect="always"
       xlink:href="#linearGradient20"
       id="linearGradient3411"
       gradientUnits="userSpaceOnUse"
       x1="80.813004"
       y1="410.75"
       x2="30"
       y2="223.25" />
    <linearGradient
       inkscape:collect="always"
       xlink:href="#linearGradient4058"
       id="linearGradient3413"
       gradientUnits="userSpaceOnUse"
       gradientTransform="translate(-1.3518,2.601)"
       x1="946.5"
       y1="128.19"
       x2="1114"
       y2="437.60999" />
    <radialGradient
       inkscape:collect="always"
       xlink:href="#radialGradient4096"
       id="radialGradient3415"
       gradientUnits="userSpaceOnUse"
       cx="57.554001"
       cy="326.29999"
       r="115.58" />
    <linearGradient
       inkscape:collect="always"
       xlink:href="#linearGradient4080"
       id="linearGradient3417"
       gradientUnits="userSpaceOnUse"
       gradientTransform="translate(699.58,-67.361)"
       x1="210.78"
       y1="202.17999"
       x2="493.64999"
       y2="408.01999" />
    <linearGradient
       inkscape:collect="always"
       xlink:href="#linearGradient4058"
       id="linearGradient3419"
       gradientUnits="userSpaceOnUse"
       gradientTransform="translate(-1.3518,2.601)"
       x1="946.5"
       y1="128.19"
       x2="1114"
       y2="437.60999" />
    <radialGradient
       inkscape:collect="always"
       xlink:href="#radialGradient4359"
       id="radialGradient3421"
       gradientUnits="userSpaceOnUse"
       gradientTransform="matrix(1,0,0,0.97368,-5.8746e-4,7.187)"
       cx="715.71997"
       cy="273.10001"
       r="25.561001" />
    <linearGradient
       inkscape:collect="always"
       xlink:href="#linearGradient4121"
       id="linearGradient3423"
       gradientUnits="userSpaceOnUse"
       x1="1025.9"
       y1="16.164"
       x2="1047.3"
       y2="300.03" />
    <linearGradient
       inkscape:collect="always"
       xlink:href="#linearGradient4346"
       id="linearGradient3425"
       gradientUnits="userSpaceOnUse"
       x1="1087.1"
       y1="508.19"
       x2="1048.2"
       y2="392.41" />
    <linearGradient
       inkscape:collect="always"
       xlink:href="#linearGradient4360"
       id="linearGradient3427"
       gradientUnits="userSpaceOnUse"
       x1="966.31"
       y1="125.11"
       x2="983.17999"
       y2="167.47" />
  </defs>
  <g
     id="g39591"
     transform="matrix(0.06922544,0,0,0.06922544,-59.370041,-7.6711003)">
    <path
       id="path12"
       d="m 173.14,326.3 c 0,63.835 -51.748,115.58 -115.58,115.58 -63.835,0 -115.58,-51.748 -115.58,-115.58 0,-63.835 51.748,-115.58 115.58,-115.58 63.83,0 115.58,51.75 115.58,115.58 z"
       transform="matrix(1.3292,0,0,1.3292,954.43,-149.57)"
       inkscape:connector-curvature="0"
       style="fill:url(#linearGradient3411)" />
    <path
       id="path22"
       d="m 1030.9,116.3 c -92.615,0 -167.85,75.238 -167.85,167.85 0,92.615 75.238,167.85 167.85,167.85 92.615,0 167.85,-75.238 167.85,-167.85 0,-92.61 -75.2,-167.85 -167.9,-167.85 z m 0,15.621 c 84.17,0 152.23,68.062 152.23,152.23 0,84.17 -68.062,152.23 -152.23,152.23 -84.17,0 -152.23,-68.062 -152.23,-152.23 0.03,-84.17 68.1,-152.23 152.23,-152.23 z"
       style="text-indent:0;text-transform:none;block-progression:tb;color:#000000;fill:url(#linearGradient3413)"
       inkscape:connector-curvature="0" />
    <path
       id="path4084"
       d="m 173.14,326.3 c 0,63.835 -51.748,115.58 -115.58,115.58 -63.835,0 -115.58,-51.748 -115.58,-115.58 0,-63.835 51.748,-115.58 115.58,-115.58 63.83,0 115.58,51.75 115.58,115.58 z"
       transform="matrix(1.3292,0,0,1.3292,954.43,-149.57)"
       inkscape:connector-curvature="0"
       style="fill:url(#radialGradient3415)" />
    <g
       id="g4267"
       transform="matrix(0.75643,0,0,0.75643,251.15,68.397)"
       style="opacity:0.8;stroke:#f2f2f2">
      <path
         id="path4197"
         d="m 975.64,225.08 55.391,55.304 -0.2015,-17.106 -55.16,-38.19 z"
         inkscape:connector-curvature="0"
         style="fill:#53c8ef" />
      <path
         id="path4199"
         d="m 975.7,225.7 38.162,55.277 -0.044,0.0613 16.835,-0.47298 -55,-54.87 z"
         inkscape:connector-curvature="0"
         style="fill:#f2f2f2" />
      <path
         id="path4201"
         d="m 1031.2,263.34 0.1927,17.202 h 0.017 l 55.707,-55.812 -55.9,38.61 z"
         inkscape:connector-curvature="0"
         style="fill:#f2f2f2" />
      <path
         id="path4203"
         d="m 1086.4,226.03 -54.402,54.489 17.001,-0.48174 37.4,-54.01 z"
         inkscape:connector-curvature="0"
         style="fill:#53c8ef" />
      <path
         id="path4205"
         d="m 1013.5,281.44 -38.36,55.48 55.86,-55.98 -17.5,0.5 z"
         inkscape:connector-curvature="0"
         style="fill:#53c8ef" />
      <path
         id="path4207"
         d="m 1031,281.49 -54.37,54.5 54.57,-37.7 -0.2,-16.8 z"
         inkscape:connector-curvature="0"
         style="fill:#f2f2f2" />
      <path
         id="path4209"
         d="m 1031.6,280.93 55.356,55.269 -38.355,-55.558 0.1314,-0.20145 -17.124,0.48174 v 0.01 z"
         inkscape:connector-curvature="0"
         style="fill:#f2f2f2" />
      <path
         id="path4211"
         d="m 1031.4,281.33 0.1927,17.01 54.91,38.005 -55.1,-55.01 z"
         inkscape:connector-curvature="0"
         style="fill:#53c8ef" />
      <path
         id="path4179"
         d="m 1031.4,165.81 0.091,114.45 17.478,-17.895 -17.6,-96.55 z"
         inkscape:connector-curvature="0"
         style="fill:#53c8ef" />
      <path
         id="path4148"
         d="m 1030.8,166.52 -17.696,96.611 -0.1086,0.0181 17.895,16.917 -0.1,-113.55 z"
         inkscape:connector-curvature="0"
         style="fill:#f2f2f2" />
      <path
         id="path4175"
         d="m 1049.3,262.84 -17.587,17.986 0.018,0.0181 115.3,-0.10867 -97.7,-17.9 z"
         inkscape:connector-curvature="0"
         style="fill:#f2f2f2" />
      <path
         id="path4146"
         d="m 1144.9,281.33 -112.59,0.0906 18.076,17.08 94.5,-17.17 z"
         inkscape:connector-curvature="0"
         style="fill:#53c8ef" />
      <path
         id="path4183"
         d="m 1012.3,263.28 -97.064,17.66 115.67,-0.0906 -18.6,-17.57 z"
         inkscape:connector-curvature="0"
         style="fill:#53c8ef" />
      <path
         id="path4144"
         d="m 1030.3,281.42 -112.6,0.0906 95.434,17.478 17.2,-17.57 z"
         inkscape:connector-curvature="0"
         style="fill:#f2f2f2" />
      <path
         id="path4171"
         d="m 1031.5,281.42 0.091,114.38 17.786,-97.1 0.3442,-0.0725 -18.203,-17.207 z"
         inkscape:connector-curvature="0"
         style="fill:#f2f2f2" />
      <path
         id="path4123"
         d="m 1030.9,281.66 -17.388,17.786 17.478,96.068 -0.1,-113.86 z"
         inkscape:connector-curvature="0"
         style="fill:#53c8ef" />
    </g>
    <path
       id="path4066"
       d="m 1031,113.8 c -93.969,0 -170.38,76.375 -170.38,170.34 0,93.969 76.406,170.38 170.38,170.38 93.969,0 170.34,-76.406 170.34,-170.38 0,-93.97 -76.4,-170.34 -170.3,-170.34 z m 0,5 c 91.261,0 165.34,74.083 165.34,165.34 0,91.261 -74.083,165.38 -165.34,165.38 -91.261,0 -165.38,-74.114 -165.38,-165.38 C 865.58,192.88 939.69,118.8 1031,118.8 z m 0,10.625 c -85.518,0 -154.75,69.201 -154.75,154.72 0,85.517 69.233,154.75 154.75,154.75 85.517,0 154.72,-69.233 154.72,-154.75 0,-85.52 -69.2,-154.72 -154.7,-154.72 z m 0,5 c 82.822,0 149.72,66.897 149.72,149.72 0,82.822 -66.897,149.75 -149.72,149.75 -82.822,0 -149.75,-66.928 -149.75,-149.75 -0.05,-82.82 66.88,-149.72 149.75,-149.72 z"
       style="text-indent:0;text-transform:none;block-progression:tb;color:#000000;fill:url(#linearGradient3417)"
       inkscape:connector-curvature="0" />
    <path
       id="path4064"
       d="m 1030.9,116.3 c -92.615,0 -167.85,75.238 -167.85,167.85 0,92.615 75.238,167.85 167.85,167.85 92.615,0 167.85,-75.238 167.85,-167.85 0,-92.61 -75.2,-167.85 -167.9,-167.85 z m 0,15.621 c 84.17,0 152.23,68.062 152.23,152.23 0,84.17 -68.062,152.23 -152.23,152.23 -84.17,0 -152.23,-68.062 -152.23,-152.23 0.03,-84.17 68.1,-152.23 152.23,-152.23 z"
       style="text-indent:0;text-transform:none;block-progression:tb;color:#000000;fill:url(#linearGradient3419);filter:url(#filter4241)"
       inkscape:connector-curvature="0" />
    <path
       id="path82"
       d="m 1032.2,147.31 c -73.715,0 -133.5,59.785 -133.5,133.5 0,73.715 59.785,133.47 133.5,133.47 73.715,0 133.47,-59.754 133.47,-133.47 0,-73.71 -59.7,-133.5 -133.5,-133.5 z m 0,1.5 c 72.904,0 131.97,59.096 131.97,132 0,72.904 -59.065,131.97 -131.97,131.97 -72.904,0 -132,-59.065 -132,-131.97 0.05,-72.9 59.15,-132 132,-132 z m 0,12.594 c -65.947,0 -119.41,53.46 -119.41,119.41 0,65.947 53.459,119.44 119.41,119.44 65.947,0 119.44,-53.491 119.44,-119.44 0.1,-65.94 -53.4,-119.4 -119.4,-119.4 z m 0,1.4688 c 65.136,0 117.91,52.801 117.91,117.94 0,65.136 -52.77,117.91 -117.91,117.91 -65.136,0 -117.94,-52.77 -117.94,-117.91 0.05,-65.13 52.85,-117.93 117.94,-117.93 z"
       style="text-indent:0;text-transform:none;block-progression:tb;color:#000000;fill:#ffffff"
       inkscape:connector-curvature="0" />
    <path
       id="path4457"
       d="m 1164.2,217.47 -1.6563,0.78125 -120.94,32 -0.062,-0.0937 -2.0937,6.4062 c -2.7851,-1.041 -5.7894,-1.625 -8.9376,-1.625 -11.425,0 -21.101,7.5018 -24.375,17.844 l -6.375,-2.2188 -99.281,70.875 -3.0938,1.4688 1.6562,-0.4375 -1.0938,0.78125 2.375,-1.125 119.31,-31.594 0.25,0.34375 2.0626,-6.2812 c 2.6779,0.95231 5.5577,1.4688 8.5624,1.4688 11.46,0 21.161,-7.5468 24.406,-17.938 l 6.9687,2.4062 102.3,-73.07 z"
       transform="matrix(0.78846,0,0,0.78846,218.06,59.307)"
       inkscape:connector-curvature="0"
       style="filter:url(#filter4503)" />
    <g
       id="g4343"
       transform="matrix(0.43028,0.91383,-0.91383,0.43028,763.63,-1399.5)">
      <g
         id="g4339">
        <path
           id="path4303"
           d="m 1617.3,353.99 0.091,114.45 17.478,-17.895 -17.6,-96.55 z"
           inkscape:connector-curvature="0"
           style="fill:#aa0000" />
        <path
           id="path4305"
           d="m 1617.4,354.87 -17.696,96.611 -0.1086,0.0181 17.895,16.917 -0.1,-113.55 z"
           inkscape:connector-curvature="0"
           style="fill:#d40000" />
      </g>
      <g
         id="g4335">
        <path
           id="path4315"
           d="m 1617,469.77 0.091,114.38 17.786,-97.1 0.3442,-0.0725 -18.1,-17.21 h -0.1 z"
           inkscape:connector-curvature="0"
           style="fill:#2a7fff" />
        <path
           id="path4317"
           d="m 1617.5,470.01 -17.388,17.786 17.478,96.068 -0.1,-113.86 z"
           inkscape:connector-curvature="0"
           style="fill:#0055d4" />
      </g>
    </g>
    <path
       id="path4351"
       d="m 741.28,273.1 c 0,13.746 -11.444,24.889 -25.561,24.889 -14.117,0 -25.561,-11.143 -25.561,-24.889 0,-13.746 11.444,-24.889 25.561,-24.889 14.12,0.01 25.56,11.15 25.56,24.89 z"
       transform="matrix(0.78846,0,0,0.80977,466.27,59.321)"
       inkscape:connector-curvature="0"
       style="fill:url(#radialGradient3421)" />
    <path
       id="path4517"
       d="m 1017.6,262.12 c -3.1231,2.2846 -5.6891,5.2366 -7.5,8.6562 l 20.469,10.844 12.688,17.812 c 3.1531,-2.2431 5.7376,-5.1671 7.5937,-8.5625 l -20.5,-11.16 -12.8,-17.6 z"
       transform="matrix(0.78846,0,0,0.78846,218.72,57.976)"
       inkscape:connector-curvature="0"
       style="opacity:0.5;fill:#ffffff;filter:url(#filter4148)" />
    <g
       id="g120">
      <g
         id="g107">
        <g
           id="g104">
          <path
             id="rect95"
             d="m 1029.2,147.63 h 2.7452 v 14.693 h -2.7 z"
             inkscape:connector-curvature="0"
             style="fill:#ffffff" />
        </g>
        <path
           id="rect97"
           d="m 1029.2,398.77 h 2.7452 v 14.693 h -2.7 z"
           inkscape:connector-curvature="0"
           style="fill:#ffffff" />
      </g>
      <g
         id="g112"
         transform="matrix(0,-1,1,0,752.01,1311.1)">
        <g
           id="g114">
          <path
             id="path116"
             d="m 1029.2,147.63 h 2.7452 v 14.693 h -2.7 z"
             inkscape:connector-curvature="0"
             style="fill:#ffffff" />
        </g>
        <path
           id="path118"
           d="m 1029.2,398.77 h 2.7452 v 14.693 h -2.7 z"
           inkscape:connector-curvature="0"
           style="fill:#ffffff" />
      </g>
    </g>
    <g
       id="g130"
       transform="matrix(0.70711,-0.70711,0.70711,0.70711,104.05,812.3)">
      <g
         id="g132">
        <g
           id="g134">
          <path
             id="path136"
             d="m 1029.2,147.63 h 2.7452 v 14.693 h -2.7 z"
             inkscape:connector-curvature="0"
             style="fill:#ffffff" />
        </g>
        <path
           id="path138"
           d="m 1029.2,398.77 h 2.7452 v 14.693 h -2.7 z"
           inkscape:connector-curvature="0"
           style="fill:#ffffff" />
      </g>
      <g
         id="g140"
         transform="matrix(0,-1,1,0,752.01,1311.1)">
        <g
           id="g142">
          <path
             id="path144"
             d="m 1029.2,147.63 h 2.7452 v 14.693 h -2.7 z"
             inkscape:connector-curvature="0"
             style="fill:#ffffff" />
        </g>
        <path
           id="path146"
           d="m 1029.2,398.77 h 2.7452 v 14.693 h -2.7 z"
           inkscape:connector-curvature="0"
           style="fill:#ffffff" />
      </g>
    </g>
    <g
       id="text161">
      <path
         id="path203"
         d="m 1022.1,184.8 h 5.13 v -1.08 l -1.395,-0.18 -0.36,-0.405 v -10.418 l 7.785,12.082 h 2.52 v -13.432 l 0.3825,-0.4275 1.3275,-0.18 v -1.0575 h -5.13 v 1.0575 l 1.3725,0.18 0.405,0.4275 v 9.63 l -6.885,-10.688 v -0.6075 h -5.175 v 1.1025 l 1.44,0.1125 0.315,0.315 v 11.902 l -0.405,0.405 -1.3275,0.18 0.1,1.1 z"
         inkscape:connector-curvature="0"
         style="fill:#ffffff" />
    </g>
    <g
       id="text165"
       style="fill:#ffffff">
      <path
         id="path200"
         d="m 1024.8,388.8 c 1.395,0.495 2.9025,0.7425 4.3425,0.7425 3.69,0 5.9625,-1.935 5.9625,-4.6125 0,-1.3275 -0.72,-2.5425 -2.025,-3.375 -1.3275,-0.855 -2.52,-1.1925 -3.2175,-1.62 -1.1925,-0.72 -1.8225,-1.395 -1.8225,-2.43 0,-1.2375 1.0125,-2.1375 2.655,-2.1375 0.72,0 1.2375,0.1125 1.6425,0.315 l 0.315,0.315 0.3825,2.34 h 1.62 v -3.645 c -1.4175,-0.495 -2.835,-0.765 -4.23,-0.765 -3.2175,0 -5.31,1.935 -5.31,4.4325 0,1.1025 0.54,2.205 1.575,3.0825 0.99,0.8325 2.0475,1.215 2.9475,1.665 1.5975,0.81 2.4075,1.62 2.4075,2.835 0,1.2375 -1.08,2.1375 -2.9025,2.1375 -0.6975,0 -1.35,-0.1125 -1.98,-0.315 l -0.2925,-0.3375 -0.36,-2.7 h -1.71 l 0.1,4.08 z"
         inkscape:connector-curvature="0"
         style="fill:#ffffff" />
    </g>
    <g
       id="text179"
       transform="matrix(0,-1,1,0,0,0)"
       style="fill:#ffffff">
      <path
         id="path206"
         d="m -286.78,934.91 h 2.1825 l 3.42,-11.52 3.4875,11.52 h 2.1825 l 3.4425,-13.68 1.4175,-0.315 v -1.1025 h -4.905 v 1.1025 l 1.485,0.27 0.27,0.315 -2.3625,9.45 -3.33,-11.138 h -2.2725 l -3.24,10.89 -2.52,-9.3375 0.18,-0.315 1.395,-0.1575 v -1.08 h -5.895 v 1.1025 l 1.4175,0.315 3.66,13.69 z"
         inkscape:connector-curvature="0"
         style="fill:#ffffff" />
    </g>
    <g
       id="text183"
       transform="matrix(0,-1,1,0,0,0)"
       style="fill:#ffffff">
      <path
         id="path209"
         d="m -287.24,1139.4 h 12.082 v -4.0275 h -1.53 l -0.3825,2.385 -0.2925,0.36 h -5.22 v -5.85 h 2.925 l 0.315,0.315 0.225,1.62 h 1.3275 v -5.22 h -1.3275 l -0.225,1.62 -0.315,0.315 h -2.925 v -5.355 h 4.4775 l 0.2925,0.2925 0.3375,1.98 h 1.575 v -3.5325 h -11.34 v 1.1025 l 1.3725,0.1125 0.36,0.315 v 11.992 l -0.36,0.36 -1.3725,0.1125 v 1 z"
         inkscape:connector-curvature="0"
         style="fill:#ffffff" />
    </g>
    <g
       id="g4266"
       transform="matrix(0.70711,-0.70711,0.70711,0.70711,104.05,812.3)">
      <g
         id="g4268">
        <g
           id="g4270">
          <path
             id="path4272"
             d="m 1029.2,147.63 h 2.7452 v 14.693 h -2.7 z"
             inkscape:connector-curvature="0"
             style="fill:#ffffff" />
        </g>
        <path
           id="path4274"
           d="m 1029.2,398.77 h 2.7452 v 14.693 h -2.7 z"
           inkscape:connector-curvature="0"
           style="fill:#ffffff" />
      </g>
      <g
         id="g4276"
         transform="matrix(0,-1,1,0,752.01,1311.1)">
        <g
           id="g4278">
          <path
             id="path4280"
             d="m 1029.2,147.63 h 2.7452 v 14.693 h -2.7 z"
             inkscape:connector-curvature="0"
             style="fill:#ffffff" />
        </g>
        <path
           id="path4282"
           d="m 1029.2,398.77 h 2.7452 v 14.693 h -2.7 z"
           inkscape:connector-curvature="0"
           style="fill:#ffffff" />
      </g>
    </g>
    <g
       id="g4302"
       transform="matrix(0.92388,-0.38268,0.38268,0.92388,-28.761,416.5)">
      <g
         id="g4304">
        <g
           id="g4306">
          <path
             id="path4308"
             d="m 1029.2,147.63 h 2.7452 v 14.693 h -2.7 z"
             inkscape:connector-curvature="0"
             style="fill:#ffffff" />
        </g>
        <path
           id="path4310"
           d="m 1029.2,398.77 h 2.7452 v 14.693 h -2.7 z"
           inkscape:connector-curvature="0"
           style="fill:#ffffff" />
      </g>
      <g
         id="g4312"
         transform="matrix(0,-1,1,0,752.01,1311.1)">
        <g
           id="g4314">
          <path
             id="path4316"
             d="m 1029.2,147.63 h 2.7452 v 14.693 h -2.7 z"
             inkscape:connector-curvature="0"
             style="fill:#ffffff" />
        </g>
        <path
           id="path4318"
           d="m 1029.2,398.77 h 2.7452 v 14.693 h -2.7 z"
           inkscape:connector-curvature="0"
           style="fill:#ffffff" />
      </g>
    </g>
    <g
       id="g4320"
       transform="matrix(0.92388,0.38268,-0.38268,0.92388,185.96,-373.79)">
      <g
         id="g4322">
        <g
           id="g4324">
          <path
             id="path4326"
             d="m 1029.2,147.63 h 2.7452 v 14.693 h -2.7 z"
             inkscape:connector-curvature="0"
             style="fill:#ffffff" />
        </g>
        <path
           id="path4328"
           d="m 1029.2,398.77 h 2.7452 v 14.693 h -2.7 z"
           inkscape:connector-curvature="0"
           style="fill:#ffffff" />
      </g>
      <g
         id="g4330"
         transform="matrix(0,-1,1,0,752.01,1311.1)">
        <g
           id="g4332">
          <path
             id="path4334"
             d="m 1029.2,147.63 h 2.7452 v 14.693 h -2.7 z"
             inkscape:connector-curvature="0"
             style="fill:#ffffff" />
        </g>
        <path
           id="path4336"
           d="m 1029.2,398.77 h 2.7452 v 14.693 h -2.7 z"
           inkscape:connector-curvature="0"
           style="fill:#ffffff" />
      </g>
    </g>
    <path
       id="path4102"
       d="m 1033.2,131.88 c -71.332,0 -131.29,48.596 -148.59,114.5 44.029,9.3235 94.671,14.625 148.59,14.625 53.923,0 104.6,-5.3015 148.62,-14.625 -17.3,-65.91 -77.3,-114.5 -148.6,-114.5 z"
       inkscape:connector-curvature="0"
       style="fill:url(#linearGradient3423)" />
    <path
       id="path4338"
       d="m 1030.9,116.3 c -92.615,0 -167.85,75.238 -167.85,167.85 0,92.615 75.238,167.85 167.85,167.85 92.615,0 167.85,-75.238 167.85,-167.85 0,-92.61 -75.2,-167.85 -167.9,-167.85 z m 0,15.621 c 84.17,0 152.23,68.062 152.23,152.23 0,84.17 -68.062,152.23 -152.23,152.23 -84.17,0 -152.23,-68.062 -152.23,-152.23 0.03,-84.17 68.1,-152.23 152.23,-152.23 z"
       style="text-indent:0;text-transform:none;block-progression:tb;color:#000000;fill:url(#linearGradient3425)"
       inkscape:connector-curvature="0" />
    <path
       id="path4348"
       d="m 1030.9,116.31 c -59.631,0 -112.03,31.188 -141.81,78.125 5.7264,0.59111 11.592,1.1064 17.594,1.5938 27.569,-38.812 72.912,-64.094 124.22,-64.094 46.166,0 87.474,20.466 115.38,52.844 5.9625,-1.3283 11.504,-2.749 16.656,-4.2188 -30.7,-39.11 -78.4,-64.25 -132,-64.25 z"
       style="text-indent:0;text-transform:none;block-progression:tb;color:#000000;fill:url(#linearGradient3427)"
       inkscape:connector-curvature="0" />
  </g>
  <metadata
     id="metadata177">
    <rdf:RDF>
      <cc:Work>
        <dc:format>image/svg+xml</dc:format>
        <dc:type
           rdf:resource="http://purl.org/dc/dcmitype/StillImage" />
        <cc:license
           rdf:resource="http://creativecommons.org/licenses/publicdomain/" />
        <dc:publisher>
          <cc:Agent
             rdf:about="http://openclipart.org/">
            <dc:title>Openclipart</dc:title>
          </cc:Agent>
        </dc:publisher>
        <dc:title></dc:title>
        <dc:date>2013-07-01T21:03:39</dc:date>
        <dc:description>A map and a compass in a photorealistic style.</dc:description>
        <dc:source>https://openclipart.org/detail/179935/map-and-compass-by-gnokii-179935</dc:source>
        <dc:creator>
          <cc:Agent>
            <dc:title>gnokii</dc:title>
          </cc:Agent>
        </dc:creator>
        <dc:subject>
          <rdf:Bag>
            <rdf:li>compass</rdf:li>
            <rdf:li>icon</rdf:li>
            <rdf:li>icons</rdf:li>
            <rdf:li>map</rdf:li>
            <rdf:li>tourism</rdf:li>
            <rdf:li>tourist</rdf:li>
            <rdf:li>world</rdf:li>
          </rdf:Bag>
        </dc:subject>
      </cc:Work>
      <cc:License
         rdf:about="http://creativecommons.org/licenses/publicdomain/">
        <cc:permits
           rdf:resource="http://creativecommons.org/ns#Reproduction" />
        <cc:permits
           rdf:resource="http://creativecommons.org/ns#Distribution" />
        <cc:permits
           rdf:resource="http://creativecommons.org/ns#DerivativeWorks" />
      </cc:License>
    </rdf:RDF>
  </metadata>
</svg>
