<?xml version="1.0" encoding="UTF-8" standalone="no"?>
<!-- Created with Inkscape (http://www.inkscape.org/) -->

<svg
   xmlns:dc="http://purl.org/dc/elements/1.1/"
   xmlns:cc="http://creativecommons.org/ns#"
   xmlns:rdf="http://www.w3.org/1999/02/22-rdf-syntax-ns#"
   xmlns:svg="http://www.w3.org/2000/svg"
   xmlns="http://www.w3.org/2000/svg"
   xmlns:sodipodi="http://sodipodi.sourceforge.net/DTD/sodipodi-0.dtd"
   xmlns:inkscape="http://www.inkscape.org/namespaces/inkscape"
   version="1.1"
   width="24"
   height="24"
   id="svg2"
   xml:space="preserve"
   inkscape:version="0.48.4 r9939"
   sodipodi:docname="navigator_2.svg"
   inkscape:export-filename="C:\data\ws\joffice_fx\com.joffice.build\web\joffice.eu\images\navigator_2_header.png"
   inkscape:export-xdpi="150"
   inkscape:export-ydpi="150"><sodipodi:namedview
   pagecolor="#ffffff"
   bordercolor="#666666"
   borderopacity="1"
   objecttolerance="10"
   gridtolerance="10"
   guidetolerance="10"
   inkscape:pageopacity="0"
   inkscape:pageshadow="2"
   inkscape:window-width="1842"
   inkscape:window-height="1051"
   id="namedview66"
   showgrid="false"
   inkscape:zoom="1.0636576"
   inkscape:cx="-233.20931"
   inkscape:cy="-35.273181"
   inkscape:window-x="69"
   inkscape:window-y="-9"
   inkscape:window-maximized="1"
   inkscape:current-layer="svg2" />
  
  <defs
   id="defs6">
    <clipPath
   id="clipPath86">
      <path
   d="m 0,2055.118 2055.118,0 L 2055.118,0 0,0 0,2055.118 z"
   id="path88"
   inkscape:connector-curvature="0" />
    </clipPath>
    <clipPath
   id="clipPath94">
      <path
   d="m 865.364,1005.75 383.996,0 0,-346.996 -383.996,0 0,346.996 z"
   id="path96"
   inkscape:connector-curvature="0" />
    </clipPath>
    <clipPath
   id="clipPath3927">
      <path
   d="m 1486.0835,1425.7588 a 1043.7376,1033.7973 0 1 1 -2087.47513,0 1043.7376,1033.7973 0 1 1 2087.47513,0 z"
   transform="matrix(0.89346032,0,0,-0.90205128,632.34143,2313.6676)"
   id="path3929"
   style="fill:none;stroke:#ffffff;stroke-width:103.87554932;stroke-miterlimit:4;stroke-dasharray:none;display:inline"
   inkscape:connector-curvature="0" />
    </clipPath>
  
    
  
      
    
        
        
        
        
        
        
        
        
        
        
        
        
        
        
        
        
        
        
        
        
        
        
        
        
        
        
        
        
        
        
        
        
        
        
        
        
      
          
        
            
            
            
            
            
          </defs>
  
<metadata
   id="metadata64"><rdf:RDF><cc:Work><dc:format>image/svg+xml</dc:format><dc:type
         rdf:resource="http://purl.org/dc/dcmitype/StillImage" /><cc:license
         rdf:resource="http://creativecommons.org/licenses/publicdomain/" /><dc:publisher><cc:Agent
           rdf:about="http://openclipart.org/"><dc:title>Openclipart</dc:title></cc:Agent></dc:publisher><dc:title></dc:title><dc:date>2014-02-15T15:33:52</dc:date><dc:description>A map icon by Petr Ondrusz. Used with permission, original file available here: http://dribbble.com/shots/1229553-Vector-map-for-Illustrator-Fireworks-and-Photoshop-Freebie</dc:description><dc:source>https://openclipart.org/detail/190959/flat-map-by-williamtheaker-190959</dc:source><dc:creator><cc:Agent><dc:title>williamtheaker</dc:title></cc:Agent></dc:creator><dc:subject><rdf:Bag><rdf:li>cartography</rdf:li><rdf:li>city</rdf:li><rdf:li>flat</rdf:li><rdf:li>geography</rdf:li><rdf:li>location</rdf:li><rdf:li>map</rdf:li><rdf:li>streets</rdf:li></rdf:Bag></dc:subject></cc:Work><cc:License
       rdf:about="http://creativecommons.org/licenses/publicdomain/"><cc:permits
         rdf:resource="http://creativecommons.org/ns#Reproduction" /><cc:permits
         rdf:resource="http://creativecommons.org/ns#Distribution" /><cc:permits
         rdf:resource="http://creativecommons.org/ns#DerivativeWorks" /></cc:License></rdf:RDF></metadata><g
   id="g4436"
   transform="matrix(1.0831522,0,0,1.0831522,0.30234079,-1.8570424)"><path
     d="m 0.4063029,2.8395329 20.6823831,0 0,20.6823841 -20.6823831,0 0,-20.6823841 z"
     id="path12"
     style="fill:#f3f4f4;fill-opacity:1;fill-rule:evenodd;stroke:none"
     inkscape:connector-curvature="0" /><path
     d="m 20.65109,23.761021 -20.18775528,0 0,-1.480689 20.18775528,0 0,1.480689 z"
     id="path80"
     style="fill:#fee379;fill-opacity:1;fill-rule:evenodd;stroke:none"
     inkscape:connector-curvature="0" /><path
     d="m 0.46333472,19.467023 3.10944788,0 0,2.813309 -3.10944788,0 0,-2.813309 z"
     id="path14"
     style="fill:#7fc7ed;fill-opacity:1;fill-rule:evenodd;stroke:none"
     inkscape:connector-curvature="0" /><path
     d="m 10.680092,4.5120577 9.772551,0 0,11.9935843 -9.772551,0 0,-11.9935843 z"
     id="path22"
     style="fill:#83cdac;fill-opacity:1;fill-rule:evenodd;stroke:none"
     inkscape:connector-curvature="0" /><path
     d="m 20.982989,4.5120577 -20.47098896,0 0,-0.7403448 20.47098896,0 0,0.7403448 z"
     id="path52"
     style="fill:#ffffff;fill-opacity:1;fill-rule:evenodd;stroke:none"
     inkscape:connector-curvature="0" /><path
     d="m 4.3131273,19.467023 -3.85397589,0 0,-0.740345 3.85397589,0 0,0.740345 z"
     id="path54"
     style="fill:#ffffff;fill-opacity:1;fill-rule:evenodd;stroke:none"
     inkscape:connector-curvature="0" /><path
     d="m 21.192988,17.245987 -16.9835088,0 0,-0.740345 16.9835088,0 0,0.740345 z"
     id="path56"
     style="fill:#ffffff;fill-opacity:1;fill-rule:evenodd;stroke:none"
     inkscape:connector-curvature="0" /><path
     d="m 20.930139,13.98847 -17.3573564,0 0,-0.740343 17.3573564,0 0,0.740343 z"
     id="path60"
     style="fill:#ffffff;fill-opacity:1;fill-rule:evenodd;stroke:none"
     inkscape:connector-curvature="0" /><path
     d="m 20.452643,2.8395329 0.740345,0 0,20.9466241 -0.740345,0 0,-20.9466241 z"
     id="path64"
     style="fill:#ffffff;fill-opacity:1;fill-rule:evenodd;stroke:none"
     inkscape:connector-curvature="0" /><path
     d="m 3.5727826,2.8923814 0.7403447,0 0,19.3611686 -0.7403447,0 0,-19.3611686 z"
     id="path66"
     style="fill:#ffffff;fill-opacity:1;fill-rule:evenodd;stroke:none"
     inkscape:connector-curvature="0" /><path
     d="m 9.9397469,3.7717129 0.7403451,0 0,13.4742741 -0.7403451,0 0,-13.4742741 z"
     id="path68"
     style="fill:#ffffff;fill-opacity:1;fill-rule:evenodd;stroke:none"
     inkscape:connector-curvature="0" /><path
     d="m 8.1629202,17.245987 0.7403449,0 0,6.189789 -0.7403449,0 0,-6.189789 z"
     id="path70"
     style="fill:#ffffff;fill-opacity:1;fill-rule:evenodd;stroke:none"
     inkscape:connector-curvature="0" /><path
     d="m 15.418298,2.8395329 0.740345,0 0,11.1489371 -0.740345,0 0,-11.1489371 z"
     id="path72"
     style="fill:#ffffff;fill-opacity:1;fill-rule:evenodd;stroke:none"
     inkscape:connector-curvature="0" /><path
     d="m 13.049195,2.8923814 1.48069,0 0,20.5238356 -1.48069,0 0,-20.5238356 z"
     id="path76"
     style="fill:#fee379;fill-opacity:1;fill-rule:evenodd;stroke:none"
     inkscape:connector-curvature="0" /><path
     d="m 20.454503,11.471298 -19.99535159,0 0,-1.4806892 19.99535159,0 0,1.4806892 z"
     id="path78"
     style="fill:#fee379;fill-opacity:1;fill-rule:evenodd;stroke:none"
     inkscape:connector-curvature="0" /><path
     inkscape:connector-curvature="0"
     style="fill:#fea400;fill-opacity:1;fill-rule:evenodd;stroke:none"
     id="path4022"
     d="m 14.554737,23.761021 -11.8806578,0 0,-1.480689 11.8806578,0 0,1.480689 z" /><path
     inkscape:connector-curvature="0"
     style="fill:#fea400;fill-opacity:1;fill-rule:evenodd;stroke:none"
     id="path4024"
     d="m 13.049195,10.000243 1.48069,0 0,12.70388 -1.48069,0 0,-12.70388 z" /><path
     inkscape:connector-curvature="0"
     style="fill:#fea400;fill-opacity:1;fill-rule:evenodd;stroke:none"
     id="path4026"
     d="m 17.548254,11.471298 -4.363493,0 0,-1.4806892 4.363493,0 0,1.4806892 z" /><g
     id="g4408"><g
       transform="matrix(0.01297852,0,0,-0.01297852,17.173265,9.6123849)"
       id="g4280">
              <path
   d="m 0,0 c 4.29,83.52 50.31,219.18 117.02,304.56 36.34,46.52 53.06,91.85 53.06,119.36 0,95.54 -76.54,173 -170.96,173 -94.42,0 -170.96,-77.46 -170.96,-173 0,-27.51 16.72,-72.84 53.06,-119.36 C -52.07,219.18 -6.05,83.52 -1.76,0 L 0,0 z"
   id="path4282"
   style="fill:#de5764;fill-opacity:1;fill-rule:nonzero;stroke:none"
   inkscape:connector-curvature="0" />
            </g><g
       transform="matrix(0.01297852,0,0,-0.01297852,17.173265,9.6123849)"
       id="g4284">
              <path
   d="m 0,0 c 4.29,83.52 50.31,219.18 117.02,304.56 36.34,46.52 53.06,91.85 53.06,119.36 0,95.54 -76.54,173 -170.96,173 -94.42,0 -170.96,-77.46 -170.96,-173 0,-27.51 16.72,-72.84 53.06,-119.36 C -52.07,219.18 -6.05,83.52 -1.76,0 L 0,0 z"
   id="path4286"
   style="fill:none;stroke:#ec5c6a;stroke-width:10;stroke-linecap:round;stroke-linejoin:round;stroke-miterlimit:10;stroke-opacity:1;stroke-dasharray:none"
   inkscape:connector-curvature="0" />
            </g><g
       transform="matrix(0.01297852,0,0,-0.01297852,16.350689,4.0580975)"
       id="g4288">
              <path
   d="M 0,0 C 0,34.52 27.98,62.5 62.5,62.5 97.02,62.5 125,34.52 125,0 125,-34.52 97.02,-62.5 62.5,-62.5 27.98,-62.5 0,-34.52 0,0"
   id="path4290"
   style="fill:#ffffff;fill-opacity:1;fill-rule:evenodd;stroke:none"
   inkscape:connector-curvature="0" />
            </g><g
       transform="matrix(0.01297852,0,0,-0.01297852,16.350689,4.0580975)"
       id="g4292">
              <path
   d="M 0,0 C 0,34.52 27.98,62.5 62.5,62.5 97.02,62.5 125,34.52 125,0 125,-34.52 97.02,-62.5 62.5,-62.5 27.98,-62.5 0,-34.52 0,0 z"
   id="path4294"
   style="fill:none;stroke:#ec5c6a;stroke-width:5;stroke-linecap:round;stroke-linejoin:round;stroke-miterlimit:10;stroke-opacity:1;stroke-dasharray:none"
   inkscape:connector-curvature="0" />
            </g></g><g
     transform="translate(-14.209843,12.423225)"
     id="g4418"><g
       id="g4420"
       transform="matrix(0.01297852,0,0,-0.01297852,17.173265,9.6123849)">
              <path
   inkscape:connector-curvature="0"
   style="fill:#de5764;fill-opacity:1;fill-rule:nonzero;stroke:none"
   id="path4422"
   d="m 0,0 c 4.29,83.52 50.31,219.18 117.02,304.56 36.34,46.52 53.06,91.85 53.06,119.36 0,95.54 -76.54,173 -170.96,173 -94.42,0 -170.96,-77.46 -170.96,-173 0,-27.51 16.72,-72.84 53.06,-119.36 C -52.07,219.18 -6.05,83.52 -1.76,0 L 0,0 z" />
            </g><g
       id="g4424"
       transform="matrix(0.01297852,0,0,-0.01297852,17.173265,9.6123849)">
              <path
   inkscape:connector-curvature="0"
   style="fill:none;stroke:#ec5c6a;stroke-width:10;stroke-linecap:round;stroke-linejoin:round;stroke-miterlimit:10;stroke-opacity:1;stroke-dasharray:none"
   id="path4426"
   d="m 0,0 c 4.29,83.52 50.31,219.18 117.02,304.56 36.34,46.52 53.06,91.85 53.06,119.36 0,95.54 -76.54,173 -170.96,173 -94.42,0 -170.96,-77.46 -170.96,-173 0,-27.51 16.72,-72.84 53.06,-119.36 C -52.07,219.18 -6.05,83.52 -1.76,0 L 0,0 z" />
            </g><g
       id="g4428"
       transform="matrix(0.01297852,0,0,-0.01297852,16.350689,4.0580975)">
              <path
   inkscape:connector-curvature="0"
   style="fill:#ffffff;fill-opacity:1;fill-rule:evenodd;stroke:none"
   id="path4430"
   d="M 0,0 C 0,34.52 27.98,62.5 62.5,62.5 97.02,62.5 125,34.52 125,0 125,-34.52 97.02,-62.5 62.5,-62.5 27.98,-62.5 0,-34.52 0,0" />
            </g><g
       id="g4432"
       transform="matrix(0.01297852,0,0,-0.01297852,16.350689,4.0580975)">
              <path
   inkscape:connector-curvature="0"
   style="fill:none;stroke:#ec5c6a;stroke-width:5;stroke-linecap:round;stroke-linejoin:round;stroke-miterlimit:10;stroke-opacity:1;stroke-dasharray:none"
   id="path4434"
   d="M 0,0 C 0,34.52 27.98,62.5 62.5,62.5 97.02,62.5 125,34.52 125,0 125,-34.52 97.02,-62.5 62.5,-62.5 27.98,-62.5 0,-34.52 0,0 z" />
            </g></g></g></svg>