<?xml version="1.0" encoding="UTF-8" standalone="no"?>
<!-- Created with Inkscape (http://www.inkscape.org/) -->

<svg
   xmlns:dc="http://purl.org/dc/elements/1.1/"
   xmlns:cc="http://creativecommons.org/ns#"
   xmlns:rdf="http://www.w3.org/1999/02/22-rdf-syntax-ns#"
   xmlns:svg="http://www.w3.org/2000/svg"
   xmlns="http://www.w3.org/2000/svg"
   xmlns:sodipodi="http://sodipodi.sourceforge.net/DTD/sodipodi-0.dtd"
   xmlns:inkscape="http://www.inkscape.org/namespaces/inkscape"
   width="250"
   height="250"
   id="svg2"
   sodipodi:version="0.32"
   inkscape:version="0.47 r22583"
   sodipodi:docname="number3.svg"
   version="1.0"
   inkscape:output_extension="org.inkscape.output.svg.inkscape"
   inkscape:export-filename="C:\Users\ramin\Documents\ws\joffice\com.wwindows.office.ooxml.libs\svg\number3.png"
   inkscape:export-xdpi="5.7600002"
   inkscape:export-ydpi="5.7600002">
  <defs
     id="defs4">
    <inkscape:perspective
       sodipodi:type="inkscape:persp3d"
       inkscape:vp_x="0 : 125 : 1"
       inkscape:vp_y="0 : 1000 : 0"
       inkscape:vp_z="230 : 125 : 1"
       inkscape:persp3d-origin="115 : 83.333333 : 1"
       id="perspective19" />
    <filter
       inkscape:collect="always"
       x="-0.13631217"
       width="1.2726243"
       y="-0.12380919"
       height="1.2476184"
       id="filter4797"
       color-interpolation-filters="sRGB">
      <feGaussianBlur
         inkscape:collect="always"
         stdDeviation="10.943185"
         id="feGaussianBlur4799" />
    </filter>
    <filter
       inkscape:collect="always"
       x="-0.1039405"
       width="1.207881"
       y="-0.092632666"
       height="1.1852653"
       id="filter6267"
       color-interpolation-filters="sRGB">
      <feGaussianBlur
         inkscape:collect="always"
         stdDeviation="6.9543975"
         id="feGaussianBlur6269" />
    </filter>
  </defs>
  <sodipodi:namedview
     id="base"
     pagecolor="#ffffff"
     bordercolor="#666666"
     borderopacity="1.0"
     gridtolerance="10000"
     guidetolerance="10"
     objecttolerance="10"
     inkscape:pageopacity="0.0"
     inkscape:pageshadow="2"
     inkscape:zoom="1.3995495"
     inkscape:cx="115"
     inkscape:cy="125"
     inkscape:document-units="in"
     inkscape:current-layer="layer1"
     width="11.692913in"
     height="6in"
     units="in"
     showguides="true"
     inkscape:guide-bbox="true"
     showgrid="true"
     inkscape:window-width="1280"
     inkscape:window-height="744"
     inkscape:window-x="341"
     inkscape:window-y="106"
     inkscape:window-maximized="0">
    <inkscape:grid
       type="xygrid"
       id="grid2368"
       originx="0px"
       originy="0px"
       spacingx="0px"
       spacingy="0px"
       empspacing="5"
       visible="true"
       enabled="true"
       snapvisiblegridlinesonly="true" />
  </sodipodi:namedview>
  <metadata
     id="metadata7">
    <rdf:RDF>
      <cc:Work
         rdf:about="">
        <dc:format>image/svg+xml</dc:format>
        <dc:type
           rdf:resource="http://purl.org/dc/dcmitype/StillImage" />
        <dc:title></dc:title>
      </cc:Work>
    </rdf:RDF>
  </metadata>
  <g
     inkscape:label="Layer 1"
     inkscape:groupmode="layer"
     id="layer1"
     transform="translate(-64.376825,-285.85968)">
    <g
       id="g2328"
       transform="translate(-525.37829,282.72991)"
       inkscape:export-filename="C:\Users\ramin\Documents\ws\joffice\com.wwindows.office.ooxml.libs\src\com\joffice\ui\resources\images\tools\number3.png"
       inkscape:export-xdpi="5.4409986"
       inkscape:export-ydpi="5.4409986">
      <path
         style="fill:#000000;fill-opacity:1;stroke:#000000;stroke-width:9.89999962;stroke-miterlimit:4;stroke-opacity:1;stroke-dasharray:none;filter:url(#filter4797)"
         d="m 706.74496,28.129767 c -1.22503,-0.0046 -2.47211,0.01461 -3.69141,0.03128 -25.95736,1.072374 -54.43461,7.264146 -72.13883,27.622978 -12.10562,16.893856 -0.34842,45.778385 21.42892,45.986165 9.12191,0.98297 17.29108,-8.38716 25.49573,-7.038704 -10.22392,7.117364 -26.0464,9.466164 -30.65744,22.617684 -7.69137,20.85881 11.41349,47.0802 33.94217,43.98404 5.3393,-1.06786 13.91565,-5.76962 17.86265,-0.50053 -0.42636,3.64607 -5.76133,4.94795 -8.82184,6.03764 -15.89226,3.07775 -31.74924,-7.73476 -47.45646,-1.81442 -18.00556,5.18774 -25.52454,29.14857 -14.95333,44.26559 8.74591,11.39623 23.59675,15.73073 37.16433,18.3319 36.21075,5.76829 76.1814,3.36637 107.26975,-17.58111 25.47164,-16.30119 40.28985,-50.31683 30.40718,-79.83447 -4.20704,-12.9175 -14.64378,-23.08924 -26.80962,-28.74917 C 789.29982,81.670399 782.17297,50.520198 759.95751,40.298893 743.99913,30.823587 725.12028,28.1994 706.74496,28.129767 z"
         id="path2330" />
      <path
         id="path2332"
         d="m 706.74496,28.129767 c -1.22503,-0.0046 -2.47211,0.01461 -3.69141,0.03128 -25.95736,1.072374 -54.43461,7.264146 -72.13883,27.622978 -12.10562,16.893856 -0.34842,45.778385 21.42892,45.986165 9.12191,0.98297 17.29108,-8.38716 25.49573,-7.038704 -10.22392,7.117364 -26.0464,9.466164 -30.65744,22.617684 -7.69137,20.85881 11.41349,47.0802 33.94217,43.98404 5.3393,-1.06786 13.91565,-5.76962 17.86265,-0.50053 -0.42636,3.64607 -5.76133,4.94795 -8.82184,6.03764 -15.89226,3.07775 -31.74924,-7.73476 -47.45646,-1.81442 -18.00556,5.18774 -25.52454,29.14857 -14.95333,44.26559 8.74591,11.39623 23.59675,15.73073 37.16433,18.3319 36.21075,5.76829 76.1814,3.36637 107.26975,-17.58111 25.47164,-16.30119 40.28985,-50.31683 30.40718,-79.83447 -4.20704,-12.9175 -14.64378,-23.08924 -26.80962,-28.74917 C 789.29982,81.670399 782.17297,50.520198 759.95751,40.298893 743.99913,30.823587 725.12028,28.1994 706.74496,28.129767 z"
         style="fill:#fd201c;fill-opacity:1;stroke:none" />
      <path
         transform="matrix(0.224828,0,0,0.210323,795.8907,23.63743)"
         d="m -158.1081,373.37839 c 0,20.82262 -15.79104,37.7027 -35.27027,37.7027 -19.47924,0 -35.27027,-16.88008 -35.27027,-37.7027 0,-20.82263 15.79103,-37.7027 35.27027,-37.7027 19.47923,0 35.27027,16.88007 35.27027,37.7027 z"
         sodipodi:ry="37.702702"
         sodipodi:rx="35.270271"
         sodipodi:cy="373.37839"
         sodipodi:cx="-193.37837"
         id="path2334"
         style="fill:#000000;fill-opacity:1;fill-rule:nonzero;stroke:none"
         sodipodi:type="arc" />
      <path
         transform="matrix(0.224828,0,0,0.210323,798.1764,36.20885)"
         d="m -158.1081,373.37839 c 0,20.82262 -15.79104,37.7027 -35.27027,37.7027 -19.47924,0 -35.27027,-16.88008 -35.27027,-37.7027 0,-20.82263 15.79103,-37.7027 35.27027,-37.7027 19.47923,0 35.27027,16.88007 35.27027,37.7027 z"
         sodipodi:ry="37.702702"
         sodipodi:rx="35.270271"
         sodipodi:cy="373.37839"
         sodipodi:cx="-193.37837"
         id="path2336"
         style="fill:#000000;fill-opacity:1;fill-rule:nonzero;stroke:none"
         sodipodi:type="arc" />
      <path
         sodipodi:nodetypes="csssssssssscccssssssssssssssssssssssssssssssssssssssssssssssssssssssssssssssssssssssssc"
         id="path2338"
         d="m 688.29756,219.51902 c -14.70606,-0.69361 -29.4517,-3.69194 -39.35321,-8.00194 -6.81023,-2.9644 -11.09878,-7.38627 -12.62281,-13.01522 -0.62167,-2.29608 -0.61987,-6.28493 0.004,-8.58613 1.5404,-5.68312 6.26993,-10.57637 11.96956,-12.38391 4.83038,-1.53187 7.5784,-1.36631 19.68678,1.18602 7.44591,1.56952 7.35793,1.55428 10.28705,1.78246 7.45141,0.58046 14.19085,-0.0141 19.33602,-1.70589 7.05555,-2.31993 12.88281,-7.68405 14.34963,-13.20915 0.44203,-1.665 0.43949,-4.81977 -0.005,-6.46888 -0.9974,-3.69878 -3.82109,-6.87805 -7.92887,-8.92731 -3.29699,-1.64478 -6.41202,-2.3501 -11.1312,-2.52037 l -3.21447,-0.11598 -2.99036,1.19528 c -4.50096,1.79908 -5.45927,2.05653 -8.09939,2.17595 -1.93376,0.0875 -2.58119,0.0358 -4.00312,-0.31929 -3.47965,-0.86905 -6.78674,-2.9537 -9.19689,-5.79735 -1.77568,-2.09505 -5.5773,-8.95836 -6.51566,-11.7631 -0.64607,-1.9311 -0.87928,-5.15965 -0.51105,-7.07483 0.40829,-2.12356 1.95069,-4.96692 3.70816,-6.83587 2.50373,-2.66255 4.99726,-4.07376 10.61901,-6.00982 4.88968,-1.68395 7.93347,-3.32189 11.22761,-6.04187 5.77577,-4.76908 7.90952,-8.534392 7.299,-12.880112 -0.3769,-2.682742 -1.51023,-4.761616 -3.70293,-6.792318 -1.60975,-1.490812 -3.19515,-2.442946 -5.21812,-3.13381 -1.38574,-0.47325 -1.98792,-0.557332 -4.50922,-0.629642 -4.96025,-0.142258 -6.066,0.181254 -13.80312,4.038426 -5.53623,2.759968 -6.04247,2.963482 -7.82742,3.146706 -1.55109,0.159222 -6.52054,-0.33775 -7.76277,-0.776318 -3.93049,-1.38765 -7.62648,-6.724986 -8.92694,-12.891276 -0.44734,-2.121082 -0.45887,-5.723892 -0.0241,-7.530028 0.493,-2.048072 2.08124,-5.085038 3.6789,-7.034632 8.24853,-10.065482 30.23753,-18.446192 54.38845,-20.729175 4.37145,-0.413233 15.38351,-0.471685 19.61527,-0.104119 8.52845,0.740772 15.45534,1.982847 22.38337,4.013608 5.50058,1.612346 11.86288,4.154884 15.409,6.157834 8.26834,4.670202 14.30084,12.632298 16.15542,21.322984 0.54026,2.531714 0.72356,6.74338 0.40362,9.273504 -0.75381,5.96089 -3.2518,11.740392 -7.16893,16.586462 -2.69982,3.340086 -8.42356,7.147886 -9.82661,7.684206 -3.74856,1.4329 -7.47774,-0.94708 -7.45931,-4.76056 0.01,-2.01446 0.84582,-3.26249 3.86319,-5.76661 1.34895,-1.119496 4.70796,-3.091804 5.85924,-4.6313 0.48222,-0.644796 1.29409,-1.956008 1.80417,-2.913802 3.79253,-7.121168 3.25835,-14.860388 -1.45652,-21.1021 -3.5177,-4.656858 -7.33323,-7.123078 -15.75175,-10.181356 -16.22869,-5.89556 -36.0354,-7.099746 -55.13897,-3.352276 -9.74008,1.91067 -18.22902,4.662134 -24.9194,8.07696 -6.55179,3.34409 -10.53792,6.699248 -11.40893,9.603004 -0.54983,1.832978 0.0924,4.808338 1.56017,7.228304 0.66308,1.093234 0.74725,1.137168 2.50871,1.30942 1.04514,0.102206 1.15933,0.05752 5.70444,-2.232326 5.37766,-2.709292 8.01376,-3.773698 10.94286,-4.418516 1.86888,-0.41142 2.60038,-0.461722 6.60514,-0.454194 4.87285,0.0092 6.16345,0.200112 9.33266,1.380818 5.68893,2.11944 10.80906,6.695484 13.30073,11.887346 3.25925,6.791274 2.72147,14.317478 -1.47353,20.621538 -1.99339,2.99558 -5.40231,6.41736 -9.29127,9.32631 -3.90974,2.92448 -7.22885,4.64528 -12.5663,6.51498 -4.03596,1.41379 -5.17225,1.94792 -6.26462,2.94479 -2.15574,1.96726 -2.022,3.02736 1.08463,8.5973 1.95601,3.50698 2.86115,4.57749 4.57776,5.41414 1.81296,0.88361 2.72254,0.7734 6.60407,-0.80022 4.16599,-1.68895 5.5287,-1.98621 9.11307,-1.98792 9.83794,-0.005 17.92434,2.8209 23.89897,8.35093 3.82616,3.54144 6.26338,7.93236 7.13286,12.85065 0.37728,2.13411 0.32852,6.47108 -0.0953,8.47489 -1.11262,5.26064 -3.34844,9.20434 -7.61544,13.43269 -8.02207,7.94939 -18.10998,11.2834 -33.03465,10.91779 -5.99085,-0.14675 -7.97449,-0.38563 -14.01091,-1.68727 -9.13919,-1.97069 -12.40418,-2.50456 -14.33634,-2.3442 -3.58904,0.29789 -6.7144,3.10752 -7.10696,6.38898 -0.56918,4.75789 3.58918,7.92982 14.638,11.16563 18.8975,5.53441 45.28017,6.07862 67.04894,1.38305 12.91559,-2.78592 25.46944,-8.02578 33.52938,-13.99485 9.23737,-6.84105 16.47775,-16.49093 19.81177,-26.40484 2.92876,-8.70887 3.15852,-19.03162 0.59252,-26.62071 -2.11627,-6.25899 -6.22174,-10.97404 -12.49813,-14.35384 -3.53357,-1.90281 -7.48109,-3.28254 -12.90665,-4.51112 -1.83255,-0.41497 -3.43942,-0.89924 -3.93199,-1.18503 -1.64355,-0.95358 -2.51447,-2.44512 -2.54298,-4.35514 -0.0219,-1.46545 0.31943,-2.49509 1.13012,-3.40919 2.03651,-2.2963 3.92618,-2.37174 11.16322,-0.44566 13.72469,3.65271 22.99238,10.51684 27.92587,20.68327 5.55406,11.44525 5.39219,27.7724 -0.41269,41.62837 -3.89901,9.30678 -11.46444,19.12619 -19.84217,25.75378 -18.53415,14.66231 -48.59078,22.26147 -81.84601,20.69299 z"
         style="fill:#fff400;fill-opacity:1;stroke:#eed1f6;stroke-width:1.79999983;stroke-miterlimit:4;stroke-opacity:1;stroke-dasharray:none" />
      <path
         style="fill:#fff400;fill-opacity:1;stroke:#fff400;stroke-width:1.97999978;stroke-miterlimit:4;stroke-opacity:1;stroke-dasharray:none;filter:url(#filter6267)"
         d="m 688.29756,219.51902 c -14.70606,-0.69361 -29.4517,-3.69194 -39.35321,-8.00194 -6.81023,-2.9644 -11.09878,-7.38627 -12.62281,-13.01522 -0.62167,-2.29608 -0.61987,-6.28493 0.004,-8.58613 1.5404,-5.68312 6.26993,-10.57637 11.96956,-12.38391 4.83038,-1.53187 7.5784,-1.36631 19.68678,1.18602 7.44591,1.56952 7.35793,1.55428 10.28705,1.78246 7.45141,0.58046 14.19085,-0.0141 19.33602,-1.70589 7.05555,-2.31993 12.88281,-7.68405 14.34963,-13.20915 0.44203,-1.665 0.43949,-4.81977 -0.005,-6.46888 -0.9974,-3.69878 -3.82109,-6.87805 -7.92887,-8.92731 -3.29699,-1.64478 -6.41202,-2.3501 -11.1312,-2.52037 l -3.21447,-0.11598 -2.99036,1.19528 c -4.50096,1.79908 -5.45927,2.05653 -8.09939,2.17595 -1.93376,0.0875 -2.58119,0.0358 -4.00312,-0.31929 -3.47965,-0.86905 -6.78674,-2.9537 -9.19689,-5.79735 -1.77568,-2.09505 -5.5773,-8.95836 -6.51566,-11.7631 -0.64607,-1.9311 -0.87928,-5.15965 -0.51105,-7.07483 0.40829,-2.12356 1.95069,-4.96692 3.70816,-6.83587 2.50373,-2.66255 4.99726,-4.07376 10.61901,-6.00982 4.88968,-1.68395 7.93347,-3.32189 11.22761,-6.04187 5.77577,-4.76908 7.90952,-8.534392 7.299,-12.880112 -0.3769,-2.682742 -1.51023,-4.761616 -3.70293,-6.792318 -1.60975,-1.490812 -3.19515,-2.442946 -5.21812,-3.13381 -1.38574,-0.47325 -1.98792,-0.557332 -4.50922,-0.629642 -4.96025,-0.142258 -6.066,0.181254 -13.80312,4.038426 -5.53623,2.759968 -6.04247,2.963482 -7.82742,3.146706 -1.55109,0.159222 -6.52054,-0.33775 -7.76277,-0.776318 -3.93049,-1.38765 -7.62648,-6.724986 -8.92694,-12.891276 -0.44734,-2.121082 -0.45887,-5.723892 -0.0241,-7.530028 0.493,-2.048072 2.08124,-5.085038 3.6789,-7.034632 8.24853,-10.065482 30.23753,-18.446192 54.38845,-20.729175 4.37145,-0.413233 15.38351,-0.471685 19.61527,-0.104119 8.52845,0.740772 15.45534,1.982847 22.38337,4.013608 5.50058,1.612346 11.86288,4.154884 15.409,6.157834 8.26834,4.670202 14.30084,12.632298 16.15542,21.322984 0.54026,2.531714 0.72356,6.74338 0.40362,9.273504 -0.75381,5.96089 -3.2518,11.740392 -7.16893,16.586462 -2.69982,3.340086 -8.42356,7.147886 -9.82661,7.684206 -3.74856,1.4329 -7.47774,-0.94708 -7.45931,-4.76056 0.01,-2.01446 0.84582,-3.26249 3.86319,-5.76661 1.34895,-1.119496 4.70796,-3.091804 5.85924,-4.6313 0.48222,-0.644796 1.29409,-1.956008 1.80417,-2.913802 3.79253,-7.121168 3.25835,-14.860388 -1.45652,-21.1021 -3.5177,-4.656858 -7.33323,-7.123078 -15.75175,-10.181356 -16.22869,-5.89556 -36.0354,-7.099746 -55.13897,-3.352276 -9.74008,1.91067 -18.22902,4.662134 -24.9194,8.07696 -6.55179,3.34409 -10.53792,6.699248 -11.40893,9.603004 -0.54983,1.832978 0.0924,4.808338 1.56017,7.228304 0.66308,1.093234 0.74725,1.137168 2.50871,1.30942 1.04514,0.102206 1.15933,0.05752 5.70444,-2.232326 5.37766,-2.709292 8.01376,-3.773698 10.94286,-4.418516 1.86888,-0.41142 2.60038,-0.461722 6.60514,-0.454194 4.87285,0.0092 6.16345,0.200112 9.33266,1.380818 5.68893,2.11944 10.80906,6.695484 13.30073,11.887346 3.25925,6.791274 2.72147,14.317478 -1.47353,20.621538 -1.99339,2.99558 -5.40231,6.41736 -9.29127,9.32631 -3.90974,2.92448 -7.22885,4.64528 -12.5663,6.51498 -4.03596,1.41379 -5.17225,1.94792 -6.26462,2.94479 -2.15574,1.96726 -2.022,3.02736 1.08463,8.5973 1.95601,3.50698 2.86115,4.57749 4.57776,5.41414 1.81296,0.88361 2.72254,0.7734 6.60407,-0.80022 4.16599,-1.68895 5.5287,-1.98621 9.11307,-1.98792 9.83794,-0.005 17.92434,2.8209 23.89897,8.35093 3.82616,3.54144 6.26338,7.93236 7.13286,12.85065 0.37728,2.13411 0.32852,6.47108 -0.0953,8.47489 -1.11262,5.26064 -3.34844,9.20434 -7.61544,13.43269 -8.02207,7.94939 -18.10998,11.2834 -33.03465,10.91779 -5.99085,-0.14675 -7.97449,-0.38563 -14.01091,-1.68727 -9.13919,-1.97069 -12.40418,-2.50456 -14.33634,-2.3442 -3.58904,0.29789 -6.7144,3.10752 -7.10696,6.38898 -0.56918,4.75789 3.58918,7.92982 14.638,11.16563 18.8975,5.53441 45.28017,6.07862 67.04894,1.38305 12.91559,-2.78592 25.46944,-8.02578 33.52938,-13.99485 9.23737,-6.84105 16.47775,-16.49093 19.81177,-26.40484 2.92876,-8.70887 3.15852,-19.03162 0.59252,-26.62071 -2.11627,-6.25899 -6.22174,-10.97404 -12.49813,-14.35384 -3.53357,-1.90281 -7.48109,-3.28254 -12.90665,-4.51112 -1.83255,-0.41497 -3.43942,-0.89924 -3.93199,-1.18503 -1.64355,-0.95358 -2.51447,-2.44512 -2.54298,-4.35514 -0.0219,-1.46545 0.31943,-2.49509 1.13012,-3.40919 2.03651,-2.2963 3.92618,-2.37174 11.16322,-0.44566 13.72469,3.65271 22.99238,10.51684 27.92587,20.68327 5.55406,11.44525 5.39219,27.7724 -0.41269,41.62837 -3.89901,9.30678 -11.46444,19.12619 -19.84217,25.75378 -18.53415,14.66231 -48.59078,22.26147 -81.84601,20.69299 z"
         id="path2340"
         sodipodi:nodetypes="csssssssssscccssssssssssssssssssssssssssssssssssssssssssssssssssssssssssssssssssssssssc" />
    </g>
  </g>
</svg>
