<?xml version="1.0" encoding="UTF-8" standalone="no"?>
<!-- Created with Inkscape (http://www.inkscape.org/) -->

<svg
   xmlns:dc="http://purl.org/dc/elements/1.1/"
   xmlns:cc="http://creativecommons.org/ns#"
   xmlns:rdf="http://www.w3.org/1999/02/22-rdf-syntax-ns#"
   xmlns:svg="http://www.w3.org/2000/svg"
   xmlns="http://www.w3.org/2000/svg"
   xmlns:sodipodi="http://sodipodi.sourceforge.net/DTD/sodipodi-0.dtd"
   xmlns:inkscape="http://www.inkscape.org/namespaces/inkscape"
   width="250"
   height="250"
   id="svg2"
   sodipodi:version="0.32"
   inkscape:version="0.47 r22583"
   sodipodi:docname="number2.svg"
   version="1.0"
   inkscape:output_extension="org.inkscape.output.svg.inkscape">
  <defs
     id="defs4">
    <inkscape:perspective
       sodipodi:type="inkscape:persp3d"
       inkscape:vp_x="0 : 125 : 1"
       inkscape:vp_y="0 : 1000 : 0"
       inkscape:vp_z="230 : 125 : 1"
       inkscape:persp3d-origin="115 : 83.333333 : 1"
       id="perspective19" />
    <filter
       inkscape:collect="always"
       x="-0.13627391"
       width="1.2725478"
       y="-0.12380919"
       height="1.2476184"
       id="filter4801"
       color-interpolation-filters="sRGB">
      <feGaussianBlur
         inkscape:collect="always"
         stdDeviation="10.943185"
         id="feGaussianBlur4803" />
    </filter>
    <filter
       inkscape:collect="always"
       x="-0.10394046"
       width="1.2078809"
       y="-0.092632666"
       height="1.1852653"
       id="filter6271"
       color-interpolation-filters="sRGB">
      <feGaussianBlur
         inkscape:collect="always"
         stdDeviation="6.9543975"
         id="feGaussianBlur6273" />
    </filter>
  </defs>
  <sodipodi:namedview
     id="base"
     pagecolor="#ffffff"
     bordercolor="#666666"
     borderopacity="1.0"
     gridtolerance="10000"
     guidetolerance="10"
     objecttolerance="10"
     inkscape:pageopacity="0.0"
     inkscape:pageshadow="2"
     inkscape:zoom="1.6234774"
     inkscape:cx="115"
     inkscape:cy="125"
     inkscape:document-units="in"
     inkscape:current-layer="layer1"
     width="11.692913in"
     height="6in"
     units="in"
     showguides="true"
     inkscape:guide-bbox="true"
     showgrid="true"
     inkscape:window-width="1280"
     inkscape:window-height="744"
     inkscape:window-x="257"
     inkscape:window-y="97"
     inkscape:window-maximized="0">
    <inkscape:grid
       type="xygrid"
       id="grid2368"
       originx="0px"
       originy="0px"
       spacingx="0px"
       spacingy="0px"
       empspacing="5"
       visible="true"
       enabled="true"
       snapvisiblegridlinesonly="true" />
  </sodipodi:namedview>
  <metadata
     id="metadata7">
    <rdf:RDF>
      <cc:Work
         rdf:about="">
        <dc:format>image/svg+xml</dc:format>
        <dc:type
           rdf:resource="http://purl.org/dc/dcmitype/StillImage" />
        <dc:title></dc:title>
      </cc:Work>
    </rdf:RDF>
  </metadata>
  <g
     inkscape:label="Layer 1"
     inkscape:groupmode="layer"
     id="layer1"
     transform="translate(-62.610422,-283.91741)">
    <g
       id="g2328"
       transform="translate(-332.63995,287.82481)"
       inkscape:export-filename="C:\Users\ramin\Documents\ws\joffice\com.wwindows.office.ooxml.libs\src\com\joffice\ui\resources\images\tools\number2.png"
       inkscape:export-xdpi="5.7600002"
       inkscape:export-ydpi="5.7600002">
      <path
         style="fill:#000000;fill-opacity:1;stroke:#000000;stroke-width:9.89999962;stroke-miterlimit:4;stroke-opacity:1;stroke-dasharray:none;filter:url(#filter4801)"
         d="m 527.26464,21.092605 c -1.53569,-0.01102 -3.06149,0.0014 -4.5959,0.03127 -35.31806,0.918781 -72.04286,17.808857 -89.26064,49.585768 -8.44821,18.873997 5.00468,43.767827 25.91841,45.677687 11.07412,1.56975 22.58561,-3.2492 29.54512,-11.88058 -9.53319,20.38572 -25.85059,36.09662 -41.2381,51.99315 -6.26409,7.29844 -13.71598,14.25071 -17.38316,23.22965 -4.24278,15.21205 9.25477,32.63476 25.38691,30.63937 29.93091,1.60633 59.95456,-1.14462 89.85467,1.34438 9.75233,15.80819 34.92549,14.84752 45.99033,0.87541 17.78618,-18.01224 24.67692,-45.92544 18.69627,-70.40803 -3.12212,-10.86395 -13.7891,-19.74819 -24.23012,-20.54089 C 601.08448,102.807 607.7643,74.558619 594.54622,52.95131 583.96888,33.92101 562.27225,23.656984 541.05236,21.936757 536.4814,21.359336 531.87172,21.125646 527.26464,21.09261 z m 39.45602,64.749134 c -0.0758,0.318569 -0.13231,0.652406 -0.21885,0.969205 -0.0743,-0.134824 -0.14385,-0.272728 -0.21886,-0.406441 0.15013,-0.186187 0.29157,-0.374546 0.43771,-0.562764 z"
         id="path2330" />
      <path
         id="path2332"
         d="m 527.26464,21.092605 c -1.53569,-0.01102 -3.06149,0.0014 -4.5959,0.03127 -35.31806,0.918781 -72.04286,17.808857 -89.26064,49.585768 -8.44821,18.873997 5.00468,43.767827 25.91841,45.677687 11.07412,1.56975 22.58561,-3.2492 29.54512,-11.88058 -9.53319,20.38572 -25.85059,36.09662 -41.2381,51.99315 -6.26409,7.29844 -13.71598,14.25071 -17.38316,23.22965 -4.24278,15.21205 9.25477,32.63476 25.38691,30.63937 29.93091,1.60633 59.95456,-1.14462 89.85467,1.34438 9.75233,15.80819 34.92549,14.84752 45.99033,0.87541 17.78618,-18.01224 24.67692,-45.92544 18.69627,-70.40803 -3.12212,-10.86395 -13.7891,-19.74819 -24.23012,-20.54089 C 601.08448,102.807 607.7643,74.558619 594.54622,52.95131 583.96888,33.92101 562.27225,23.656984 541.05236,21.936757 536.4814,21.359336 531.87172,21.125646 527.26464,21.09261 z m 39.45602,64.749134 c -0.0758,0.318569 -0.13231,0.652406 -0.21885,0.969205 -0.0743,-0.134824 -0.14385,-0.272728 -0.21886,-0.406441 0.15013,-0.186187 0.29157,-0.374546 0.43771,-0.562764 z"
         style="fill:#fd201c;fill-opacity:1;stroke:none" />
      <path
         transform="matrix(0.224828,0,0,0.210323,589.0698,117.4318)"
         d="m -158.1081,373.37839 c 0,20.82262 -15.79104,37.7027 -35.27027,37.7027 -19.47924,0 -35.27027,-16.88008 -35.27027,-37.7027 0,-20.82263 15.79103,-37.7027 35.27027,-37.7027 19.47923,0 35.27027,16.88007 35.27027,37.7027 z"
         sodipodi:ry="37.702702"
         sodipodi:rx="35.270271"
         sodipodi:cy="373.37839"
         sodipodi:cx="-193.37837"
         id="path2334"
         style="fill:#000000;fill-opacity:1;fill-rule:nonzero;stroke:none"
         sodipodi:type="arc" />
      <path
         transform="matrix(0.224828,0,0,0.210323,601.0832,123.4218)"
         d="m -158.1081,373.37839 c 0,20.82262 -15.79104,37.7027 -35.27027,37.7027 -19.47924,0 -35.27027,-16.88008 -35.27027,-37.7027 0,-20.82263 15.79103,-37.7027 35.27027,-37.7027 19.47923,0 35.27027,16.88007 35.27027,37.7027 z"
         sodipodi:ry="37.702702"
         sodipodi:rx="35.270271"
         sodipodi:cy="373.37839"
         sodipodi:cx="-193.37837"
         id="path2336"
         style="fill:#000000;fill-opacity:1;fill-rule:nonzero;stroke:none"
         sodipodi:type="arc" />
      <path
         sodipodi:nodetypes="csssssssssssssssssssssssssssssssssssssssssssssscccssssssssssssssssssssssssssssssssssc"
         id="path2338"
         d="m 564.32181,212.88189 c -3.69614,-0.61634 -6.6023,-2.61922 -9.13323,-6.29446 -1.95187,-2.83438 -2.06698,-3.08953 -2.15518,-4.77779 -0.0625,-1.19521 -0.002,-1.69311 0.29091,-2.40912 0.48449,-1.18296 1.39229,-2.12138 2.63501,-2.72385 0.84154,-0.40798 1.2001,-0.47122 2.19318,-0.3868 1.91388,0.16268 3.01767,1.0207 4.81444,3.74241 1.21739,1.84409 1.77812,2.29381 3.07373,2.46523 2.20003,0.29108 5.07863,-0.55658 7.46007,-2.19674 0.61043,-0.42042 1.95571,-1.6623 2.98953,-2.75974 4.88924,-5.19011 8.90186,-12.7001 11.32337,-21.19269 1.82772,-6.41008 2.50113,-12.47048 2.07631,-18.68565 -0.32326,-4.72903 -1.06656,-7.75415 -2.36778,-9.63639 -0.91503,-1.32361 -1.89106,-1.81208 -3.64994,-1.8267 -1.67747,-0.0139 -1.34231,-0.24794 -5.5409,3.86833 -3.62521,3.55412 -4.84521,4.61201 -7.19001,6.23466 -5.18644,3.58913 -11.02953,5.44589 -17.13786,5.44589 -5.35,0 -9.63879,-1.73996 -12.90081,-5.23388 -2.25999,-2.42066 -3.39509,-4.96864 -3.59235,-8.06382 -0.34962,-5.4859 2.79941,-10.45919 12.01676,-18.97819 8.05296,-7.44284 12.5428,-12.12912 16.80811,-17.54352 12.26641,-15.571 15.78316,-29.44163 10.681,-42.127494 -1.64964,-4.101618 -4.10319,-7.88179 -7.05578,-10.870884 -6.96127,-7.047274 -20.26681,-11.991974 -35.97017,-13.367508 -3.68232,-0.322552 -14.10129,-0.33085 -17.22155,-0.01372 -10.38189,1.055186 -19.11395,3.199008 -27.61063,6.778732 -15.6276,6.58404 -28.76123,16.644184 -34.48308,26.41349 -3.30787,5.647732 -3.10025,9.186704 0.77624,13.231914 1.71998,1.794836 3.00669,2.71032 4.79857,3.414162 0.89997,0.353498 1.51848,0.437598 3.26314,0.443692 1.98076,0.0069 2.23492,-0.03598 3.18224,-0.536998 0.56626,-0.299484 1.78767,-1.220638 2.71427,-2.047014 5.78549,-5.159736 10.64464,-8.992046 12.91616,-10.186708 1.76363,-0.927552 4.33267,-1.674592 6.88941,-2.003352 2.60392,-0.334824 7.26889,-0.137082 9.26401,0.392692 10.21397,2.712182 15.43133,13.153838 12.76748,25.551976 -1.3585,6.32274 -4.28683,12.60923 -10.25197,22.00874 -6.49395,10.2328 -14.70404,20.56443 -25.62572,32.2476 -1.93924,2.07444 -7.42063,7.72056 -12.18086,12.54693 -10.69008,10.8386 -11.66464,11.96963 -11.95169,13.87055 -0.10547,0.69842 -0.064,0.83337 0.34268,1.11555 0.25446,0.17656 1.0431,0.47163 1.75254,0.65572 1.18727,0.30807 5.00563,0.3432 47.99398,0.44149 46.15133,0.10552 45.11504,0.11148 46.02911,0.50323 0.59126,0.25341 1.37245,0.86853 2.16507,1.70485 0.99662,1.05155 1.30653,1.53225 1.57875,2.44871 0.98816,3.32678 -1.02978,6.52123 -4.29478,6.79876 -0.92771,0.0789 -1.35786,0.002 -2.36008,-0.42279 l -1.22559,-0.51921 -42.31815,0 c -30.20477,0 -44.66656,-0.0677 -46.31502,-0.21683 -7.0288,-0.63583 -11.21924,-3.46227 -12.90334,-8.70326 -0.45765,-1.42421 -0.459,-4.88599 -0.003,-6.73962 0.37499,-1.52308 1.35407,-3.78431 2.2096,-5.1031 1.20999,-1.86522 4.0611,-4.9448 12.38212,-13.37434 16.65233,-16.86949 24.33836,-25.62346 32.0733,-36.52974 8.0961,-11.4155 12.5878,-20.29069 13.48856,-26.65211 0.71502,-5.04977 -0.76286,-9.061108 -3.947,-10.713096 -1.61178,-0.83622 -2.97517,-1.05451 -5.82586,-0.932782 -2.6781,0.114358 -4.10398,0.380704 -5.24134,0.979056 -1.44728,0.761394 -5.90586,4.335056 -10.57628,8.477142 -3.91475,3.47191 -5.9689,4.62182 -9.34573,5.23175 -6.53853,1.18101 -12.74487,-0.94362 -17.96917,-6.151432 -7.78682,-7.762238 -8.57645,-17.090634 -2.31941,-27.400378 5.59816,-9.224078 15.68081,-17.976788 29.16633,-25.31918 12.76415,-6.949626 25.32522,-10.732236 40.5268,-12.20414 3.41877,-0.331025 13.99567,-0.326576 18.0639,0.0076 10.27281,0.843833 19.52134,3.019875 27.40202,6.447275 2.62437,1.141368 7.12427,3.543118 9.00658,4.807116 6.13471,4.119548 10.99615,9.887248 14.31049,16.978282 2.85219,6.102238 4.06697,11.495726 4.07178,18.07822 0.005,7.431522 -1.53302,13.822552 -5.17727,21.507317 -5.18882,10.94178 -13.38459,21.10878 -27.52509,34.14528 -5.96799,5.50206 -9.07875,9.21735 -9.07875,10.84312 0,1.00917 2.20339,2.69548 4.13965,3.16818 1.20141,0.2933 4.15492,0.2527 5.87506,-0.0807 2.74857,-0.53283 4.28792,-1.09062 6.65126,-2.41015 2.21164,-1.23484 3.9357,-2.6481 7.53618,-6.17763 3.88646,-3.80986 4.62781,-4.44878 6.13526,-5.28761 3.07146,-1.70914 7.16489,-1.9247 11.05559,-0.58219 3.6566,1.26173 6.42604,4.00466 8.38643,8.30614 1.78765,3.92245 2.49276,7.64065 2.74418,14.47036 0.5494,14.92538 -4.99055,31.77011 -14.24462,43.31196 -4.44482,5.54367 -9.1797,8.79648 -14.59936,10.02958 -1.63442,0.37187 -5.25064,0.51672 -6.73218,0.26967 z"
         style="fill:#fff400;fill-opacity:1;stroke:#eed1f6;stroke-width:1.80000019;stroke-miterlimit:4;stroke-opacity:1;stroke-dasharray:none" />
      <path
         style="fill:#fff400;fill-opacity:1;stroke:#fff400;stroke-width:1.98000026;stroke-miterlimit:4;stroke-opacity:1;stroke-dasharray:none;filter:url(#filter6271)"
         d="m 564.32181,212.88189 c -3.69614,-0.61634 -6.6023,-2.61922 -9.13323,-6.29446 -1.95187,-2.83438 -2.06698,-3.08953 -2.15518,-4.77779 -0.0625,-1.19521 -0.002,-1.69311 0.29091,-2.40912 0.48449,-1.18296 1.39229,-2.12138 2.63501,-2.72385 0.84154,-0.40798 1.2001,-0.47122 2.19318,-0.3868 1.91388,0.16268 3.01767,1.0207 4.81444,3.74241 1.21739,1.84409 1.77812,2.29381 3.07373,2.46523 2.20003,0.29108 5.07863,-0.55658 7.46007,-2.19674 0.61043,-0.42042 1.95571,-1.6623 2.98953,-2.75974 4.88924,-5.19011 8.90186,-12.7001 11.32337,-21.19269 1.82772,-6.41008 2.50113,-12.47048 2.07631,-18.68565 -0.32326,-4.72903 -1.06656,-7.75415 -2.36778,-9.63639 -0.91503,-1.32361 -1.89106,-1.81208 -3.64994,-1.8267 -1.67747,-0.0139 -1.34231,-0.24794 -5.5409,3.86833 -3.62521,3.55412 -4.84521,4.61201 -7.19001,6.23466 -5.18644,3.58913 -11.02953,5.44589 -17.13786,5.44589 -5.35,0 -9.63879,-1.73996 -12.90081,-5.23388 -2.25999,-2.42066 -3.39509,-4.96864 -3.59235,-8.06382 -0.34962,-5.4859 2.79941,-10.45919 12.01676,-18.97819 8.05296,-7.44284 12.5428,-12.12912 16.80811,-17.54352 12.26641,-15.571 15.78316,-29.44163 10.681,-42.127494 -1.64964,-4.101618 -4.10319,-7.88179 -7.05578,-10.870884 -6.96127,-7.047274 -20.26681,-11.991974 -35.97017,-13.367508 -3.68232,-0.322552 -14.10129,-0.33085 -17.22155,-0.01372 -10.38189,1.055186 -19.11395,3.199008 -27.61063,6.778732 -15.6276,6.58404 -28.76123,16.644184 -34.48308,26.41349 -3.30787,5.647732 -3.10025,9.186704 0.77624,13.231914 1.71998,1.794836 3.00669,2.71032 4.79857,3.414162 0.89997,0.353498 1.51848,0.437598 3.26314,0.443692 1.98076,0.0069 2.23492,-0.03598 3.18224,-0.536998 0.56626,-0.299484 1.78767,-1.220638 2.71427,-2.047014 5.78549,-5.159736 10.64464,-8.992046 12.91616,-10.186708 1.76363,-0.927552 4.33267,-1.674592 6.88941,-2.003352 2.60392,-0.334824 7.26889,-0.137082 9.26401,0.392692 10.21397,2.712182 15.43133,13.153838 12.76748,25.551976 -1.3585,6.32274 -4.28683,12.60923 -10.25197,22.00874 -6.49395,10.2328 -14.70404,20.56443 -25.62572,32.2476 -1.93924,2.07444 -7.42063,7.72056 -12.18086,12.54693 -10.69008,10.8386 -11.66464,11.96963 -11.95169,13.87055 -0.10547,0.69842 -0.064,0.83337 0.34268,1.11555 0.25446,0.17656 1.0431,0.47163 1.75254,0.65572 1.18727,0.30807 5.00563,0.3432 47.99398,0.44149 46.15133,0.10552 45.11504,0.11148 46.02911,0.50323 0.59126,0.25341 1.37245,0.86853 2.16507,1.70485 0.99662,1.05155 1.30653,1.53225 1.57875,2.44871 0.98816,3.32678 -1.02978,6.52123 -4.29478,6.79876 -0.92771,0.0789 -1.35786,0.002 -2.36008,-0.42279 l -1.22559,-0.51921 -42.31815,0 c -30.20477,0 -44.66656,-0.0677 -46.31502,-0.21683 -7.0288,-0.63583 -11.21924,-3.46227 -12.90334,-8.70326 -0.45765,-1.42421 -0.459,-4.88599 -0.003,-6.73962 0.37499,-1.52308 1.35407,-3.78431 2.2096,-5.1031 1.20999,-1.86522 4.0611,-4.9448 12.38212,-13.37434 16.65233,-16.86949 24.33836,-25.62346 32.0733,-36.52974 8.0961,-11.4155 12.5878,-20.29069 13.48856,-26.65211 0.71502,-5.04977 -0.76286,-9.061108 -3.947,-10.713096 -1.61178,-0.83622 -2.97517,-1.05451 -5.82586,-0.932782 -2.6781,0.114358 -4.10398,0.380704 -5.24134,0.979056 -1.44728,0.761394 -5.90586,4.335056 -10.57628,8.477142 -3.91475,3.47191 -5.9689,4.62182 -9.34573,5.23175 -6.53853,1.18101 -12.74487,-0.94362 -17.96917,-6.151432 -7.78682,-7.762238 -8.57645,-17.090634 -2.31941,-27.400378 5.59816,-9.224078 15.68081,-17.976788 29.16633,-25.31918 12.76415,-6.949626 25.32522,-10.732236 40.5268,-12.20414 3.41877,-0.331025 13.99567,-0.326576 18.0639,0.0076 10.27281,0.843833 19.52134,3.019875 27.40202,6.447275 2.62437,1.141368 7.12427,3.543118 9.00658,4.807116 6.13471,4.119548 10.99615,9.887248 14.31049,16.978282 2.85219,6.102238 4.06697,11.495726 4.07178,18.07822 0.005,7.431522 -1.53302,13.822552 -5.17727,21.507317 -5.18882,10.94178 -13.38459,21.10878 -27.52509,34.14528 -5.96799,5.50206 -9.07875,9.21735 -9.07875,10.84312 0,1.00917 2.20339,2.69548 4.13965,3.16818 1.20141,0.2933 4.15492,0.2527 5.87506,-0.0807 2.74857,-0.53283 4.28792,-1.09062 6.65126,-2.41015 2.21164,-1.23484 3.9357,-2.6481 7.53618,-6.17763 3.88646,-3.80986 4.62781,-4.44878 6.13526,-5.28761 3.07146,-1.70914 7.16489,-1.9247 11.05559,-0.58219 3.6566,1.26173 6.42604,4.00466 8.38643,8.30614 1.78765,3.92245 2.49276,7.64065 2.74418,14.47036 0.5494,14.92538 -4.99055,31.77011 -14.24462,43.31196 -4.44482,5.54367 -9.1797,8.79648 -14.59936,10.02958 -1.63442,0.37187 -5.25064,0.51672 -6.73218,0.26967 z"
         id="path2340"
         sodipodi:nodetypes="csssssssssssssssssssssssssssssssssssssssssssssscccssssssssssssssssssssssssssssssssssc" />
    </g>
  </g>
</svg>
