<?xml version="1.0" encoding="UTF-8" standalone="no"?>
<!-- Created with Inkscape (http://www.inkscape.org/) -->

<svg
   xmlns:dc="http://purl.org/dc/elements/1.1/"
   xmlns:cc="http://creativecommons.org/ns#"
   xmlns:rdf="http://www.w3.org/1999/02/22-rdf-syntax-ns#"
   xmlns:svg="http://www.w3.org/2000/svg"
   xmlns="http://www.w3.org/2000/svg"
   xmlns:sodipodi="http://sodipodi.sourceforge.net/DTD/sodipodi-0.dtd"
   xmlns:inkscape="http://www.inkscape.org/namespaces/inkscape"
   width="250"
   height="250"
   id="svg2"
   sodipodi:version="0.32"
   inkscape:version="0.47 r22583"
   sodipodi:docname="number1.svg"
   version="1.0"
   inkscape:output_extension="org.inkscape.output.svg.inkscape"
   inkscape:export-filename="C:\Users\ramin\Documents\ws\joffice\com.wwindows.office.ooxml.libs\src\com\joffice\ui\resources\images\tools\number1.png"
   inkscape:export-xdpi="5.7600002"
   inkscape:export-ydpi="5.7600002">
  <defs
     id="defs4">
    <inkscape:perspective
       sodipodi:type="inkscape:persp3d"
       inkscape:vp_x="0 : 125 : 1"
       inkscape:vp_y="0 : 1000 : 0"
       inkscape:vp_z="230 : 125 : 1"
       inkscape:persp3d-origin="115 : 83.333333 : 1"
       id="perspective19" />
    <filter
       inkscape:collect="always"
       x="-0.13532551"
       width="1.270651"
       y="-0.12380547"
       height="1.2476109"
       id="filter4805"
       color-interpolation-filters="sRGB">
      <feGaussianBlur
         inkscape:collect="always"
         stdDeviation="10.943185"
         id="feGaussianBlur4807" />
    </filter>
    <filter
       inkscape:collect="always"
       x="-0.10394043"
       width="1.2078809"
       y="-0.092632666"
       height="1.1852653"
       id="filter6263"
       color-interpolation-filters="sRGB">
      <feGaussianBlur
         inkscape:collect="always"
         stdDeviation="6.9543975"
         id="feGaussianBlur6265" />
    </filter>
  </defs>
  <sodipodi:namedview
     id="base"
     pagecolor="#ffffff"
     bordercolor="#666666"
     borderopacity="1.0"
     gridtolerance="10000"
     guidetolerance="10"
     objecttolerance="10"
     inkscape:pageopacity="0.0"
     inkscape:pageshadow="2"
     inkscape:zoom="1.3155765"
     inkscape:cx="115"
     inkscape:cy="102.35821"
     inkscape:document-units="in"
     inkscape:current-layer="layer1"
     width="11.692913in"
     height="6in"
     units="in"
     showguides="true"
     inkscape:guide-bbox="true"
     showgrid="true"
     inkscape:window-width="1280"
     inkscape:window-height="744"
     inkscape:window-x="238"
     inkscape:window-y="83"
     inkscape:snap-grids="true"
     inkscape:window-maximized="0">
    <inkscape:grid
       type="xygrid"
       id="grid2368"
       originx="0px"
       originy="0px"
       spacingx="0px"
       spacingy="0px"
       empspacing="5"
       visible="true"
       enabled="true"
       snapvisiblegridlinesonly="true" />
  </sodipodi:namedview>
  <metadata
     id="metadata7">
    <rdf:RDF>
      <cc:Work
         rdf:about="">
        <dc:format>image/svg+xml</dc:format>
        <dc:type
           rdf:resource="http://purl.org/dc/dcmitype/StillImage" />
        <dc:title></dc:title>
      </cc:Work>
    </rdf:RDF>
  </metadata>
  <g
     inkscape:label="Layer 1"
     inkscape:groupmode="layer"
     id="layer1"
     transform="translate(-33.602834,-282.75046)">
    <g
       id="g2328"
       transform="translate(-166.45967,289.87546)">
      <path
         style="fill:#000000;fill-opacity:1;stroke:#000000;stroke-width:9.89999962;stroke-miterlimit:4;stroke-opacity:1;stroke-dasharray:none;filter:url(#filter4805)"
         d="m 360.4375,23.375 c -0.77304,-0.0018 -1.54498,0.0066 -2.3125,0.03125 -37.99249,0.91811 -78.43835,7.08954 -108.90625,31.375 -14.00297,14.32607 -11.93191,42.5323 7.09375,51.5625 4.96953,2.66715 10.59913,3.97461 16.21875,4.28125 0.0624,12.74534 0.94928,25.70532 -0.59375,38.3125 -18.73751,-0.86138 -38.63866,14.06553 -37.6875,33.90625 0.34538,19.43244 18.44907,34.51572 37.0625,36 40.56137,9.94476 83.70034,8.60894 124,-1.90625 17.63175,-6.65203 28.85714,-28.92562 19.96875,-46.59375 -5.42096,-11.94753 -18.59026,-19.24261 -31.21875,-19.46875 -0.68824,-5.32996 0.13093,-10.84336 -0.78125,-16.21875 C 382.61358,118.94659 382.46764,103.15131 384.1875,87.5 403.07496,78.48192 409.13442,48.90435 392.53125,34.71875 384.09904,26.47411 372.03312,23.40173 360.4375,23.375 z"
         id="path2330" />
      <path
         id="path2332"
         d="m 360.4375,23.375 c -0.77304,-0.0018 -1.54498,0.0066 -2.3125,0.03125 -37.99249,0.91811 -78.43835,7.08954 -108.90625,31.375 -14.00297,14.32607 -11.93191,42.5323 7.09375,51.5625 4.96953,2.66715 10.59913,3.97461 16.21875,4.28125 0.0624,12.74534 0.94928,25.70532 -0.59375,38.3125 -18.73751,-0.86138 -38.63866,14.06553 -37.6875,33.90625 0.34538,19.43244 18.44907,34.51572 37.0625,36 40.56137,9.94476 83.70034,8.60894 124,-1.90625 17.63175,-6.65203 28.85714,-28.92562 19.96875,-46.59375 -5.42096,-11.94753 -18.59026,-19.24261 -31.21875,-19.46875 -0.68824,-5.32996 0.13093,-10.84336 -0.78125,-16.21875 C 382.61358,118.94659 382.46764,103.15131 384.1875,87.5 403.07496,78.48192 409.13442,48.90435 392.53125,34.71875 384.09904,26.47411 372.03312,23.40173 360.4375,23.375 z"
         style="fill:#fd201c;fill-opacity:1;stroke:none" />
      <path
         transform="matrix(0.224828,0,0,0.210323,406.9882,-7.13615)"
         d="m -158.1081,373.37839 c 0,20.82262 -15.79104,37.7027 -35.27027,37.7027 -19.47924,0 -35.27027,-16.88008 -35.27027,-37.7027 0,-20.82263 15.79103,-37.7027 35.27027,-37.7027 19.47923,0 35.27027,16.88007 35.27027,37.7027 z"
         sodipodi:ry="37.702702"
         sodipodi:rx="35.270271"
         sodipodi:cy="373.37839"
         sodipodi:cx="-193.37837"
         id="path2334"
         style="fill:#000000;fill-opacity:1;fill-rule:nonzero;stroke:none"
         sodipodi:type="arc" />
      <path
         transform="matrix(0.224828,0,0,0.210323,416.2453,-14.85045)"
         d="m -158.1081,373.37839 c 0,20.82262 -15.79104,37.7027 -35.27027,37.7027 -19.47924,0 -35.27027,-16.88008 -35.27027,-37.7027 0,-20.82263 15.79103,-37.7027 35.27027,-37.7027 19.47923,0 35.27027,16.88007 35.27027,37.7027 z"
         sodipodi:ry="37.702702"
         sodipodi:rx="35.270271"
         sodipodi:cy="373.37839"
         sodipodi:cx="-193.37837"
         id="path2336"
         style="fill:#000000;fill-opacity:1;fill-rule:nonzero;stroke:none"
         sodipodi:type="arc" />
      <path
         sodipodi:nodetypes="cssssssssssssssssssssssssssssssssssscccssssssssssssssssscsssssssssssssssc"
         id="path2338"
         d="m 320.22806,212.95923 c -12.5495,-0.43147 -21.61427,-1.2479 -31.9184,-2.87477 -13.51135,-2.13323 -24.30333,-4.90652 -30.41912,-7.81701 -5.65571,-2.69154 -9.31075,-6.72009 -10.68287,-11.77456 -0.54934,-2.02361 -0.51174,-5.81348 0.0766,-7.71976 1.82095,-5.90022 6.66566,-10.22149 13.01139,-11.60561 2.51953,-0.54955 5.76877,-0.44154 12.20123,0.40562 6.3324,0.83397 7.74206,0.83916 9.29444,0.0342 2.72463,-1.41281 4.55441,-5.43439 5.42456,-11.92236 0.68662,-5.11956 1.09335,-23.35055 1.08954,-48.837 -0.002,-14.049 -0.0509,-17.171182 -0.28612,-18.297774 -0.50927,-2.439432 -1.28169,-3.240918 -3.6503,-3.787654 -2.24668,-0.518594 -5.31936,-0.58715 -9.23666,-0.206088 -4.96656,0.483134 -8.51467,0.457068 -10.72276,-0.07877 -6.78464,-1.64645 -11.0192,-6.498958 -11.53735,-13.221012 -0.38765,-5.028972 1.76082,-9.806126 6.41047,-14.253758 4.61073,-4.410414 9.8821,-7.336666 20.92535,-11.616128 23.61611,-9.151671 48.18805,-13.938546 74.62357,-14.537475 14.59052,-0.330565 22.47157,1.141804 27.67459,5.170276 4.36602,3.380429 6.49251,9.248905 5.48176,15.127985 -0.87101,5.06612 -4.16169,8.347164 -10.43423,11.5133 -2.61805,1.321488 -3.82383,1.670966 -5.10185,1.478716 -1.1254,-0.169288 -1.86929,-0.555058 -2.80099,-1.45256 -1.15545,-1.11302 -1.55825,-2.067614 -1.55825,-3.692952 0,-2.484612 1.04304,-3.852184 4.05864,-5.321472 1.04232,-0.50785 1.71561,-0.51817 2.45061,-1.00071 1.1099,-0.728662 2.93316,-2.194054 3.10475,-2.821234 0.48811,-1.783878 0.0277,-3.99659 -1.0615,-5.102026 -1.36839,-1.38875 -4.32582,-2.409906 -8.65926,-2.989926 -6.10194,-0.81673 -20.7734,-0.44643 -32.14025,0.811198 -19.45492,2.152494 -37.4644,6.727684 -55.83281,14.183952 -6.71058,2.724018 -10.87424,5.184256 -13.86295,8.191382 -2.26514,2.279098 -2.92688,3.472962 -2.91011,5.250224 0.0138,1.461226 0.34667,2.266428 1.25908,3.045582 1.42991,1.221078 3.90026,1.414916 10.25841,0.804932 8.77903,-0.842232 15.23888,0.495936 18.92021,3.919352 2.27409,2.114772 3.48351,4.328836 4.41476,8.082048 l 0.46647,1.879976 -0.0148,23.477416 c -0.0141,22.42037 -0.23812,36.18966 -0.67976,41.78539 -0.52391,6.63831 -1.71738,11.68499 -3.71345,15.70267 -2.16388,4.35541 -5.71946,7.63192 -9.73683,8.97258 -3.25261,1.08546 -5.35279,1.13759 -11.83922,0.2939 -8.49358,-1.10476 -9.85329,-1.10244 -12.11985,0.0207 -2.24972,1.11476 -3.56915,3.14674 -3.30642,5.09202 0.30077,2.22703 1.94473,3.92103 5.41255,5.57731 7.48182,3.57345 26.49121,7.41452 43.70895,8.8319 7.32615,0.6031 12.24864,0.77346 22.45025,0.77693 9.69558,0.003 12.74542,-0.0951 21.18133,-0.68385 14.14948,-0.98742 31.15728,-3.49511 37.09172,-5.46891 3.52569,-1.17265 6.62454,-3.24671 7.52384,-5.03569 0.86611,-1.72297 0.64825,-4.58895 -0.44492,-5.8525 -1.29388,-1.49556 -2.88572,-1.92867 -9.03111,-2.45718 -7.89789,-0.67924 -12.03117,-1.57057 -15.61757,-3.36787 -4.00048,-2.00481 -6.52303,-4.82198 -8.51372,-9.5081 -0.94024,-2.21332 -1.39256,-3.85798 -2.01543,-7.32819 -0.75806,-4.22333 -0.86871,-6.23646 -1.5028,-27.34079 -0.56477,-18.79634 -0.58611,-20.43262 -0.38095,-29.22295 0.54462,-23.335112 1.23496,-34.321214 2.2874,-36.40218 1.29343,-2.557392 4.47024,-3.681474 6.88897,-2.437586 1.25868,0.647304 2.29614,1.910628 2.68667,3.27161 0.28912,1.007564 0.28885,1.28481 -0.003,3.472448 -0.60118,4.498734 -1.10846,15.34316 -1.51061,32.293828 -0.20377,8.58917 -0.18163,10.25368 0.3848,28.92577 0.33054,10.89669 0.69418,20.74829 0.80807,21.89245 0.27212,2.73361 1.04591,6.607 1.63978,8.20825 1.82562,4.92233 4.43124,6.09194 15.71987,7.05635 5.25316,0.44879 8.11453,0.99133 10.3736,1.96694 5.43897,2.3489 8.68873,7.06559 9.09206,13.19621 0.3242,4.92818 -1.39106,9.32686 -5.00251,12.82849 -4.31441,4.18325 -10.08012,6.47344 -20.99684,8.34014 -10.7298,1.83475 -21.84521,3.07309 -33.97924,3.78557 -4.7659,0.27983 -20.88832,0.51608 -25.17097,0.36883 z"
         style="fill:#fff400;fill-opacity:1;stroke:#eed1f6;stroke-width:1.80000043;stroke-miterlimit:4;stroke-opacity:1;stroke-dasharray:none" />
      <path
         style="fill:#fff400;fill-opacity:1;stroke:#fff400;stroke-width:1.9800005;stroke-miterlimit:4;stroke-opacity:1;stroke-dasharray:none;filter:url(#filter6263)"
         d="m 320.22806,212.95923 c -12.5495,-0.43147 -21.61427,-1.2479 -31.9184,-2.87477 -13.51135,-2.13323 -24.30333,-4.90652 -30.41912,-7.81701 -5.65571,-2.69154 -9.31075,-6.72009 -10.68287,-11.77456 -0.54934,-2.02361 -0.51174,-5.81348 0.0766,-7.71976 1.82095,-5.90022 6.66566,-10.22149 13.01139,-11.60561 2.51953,-0.54955 5.76877,-0.44154 12.20123,0.40562 6.3324,0.83397 7.74206,0.83916 9.29444,0.0342 2.72463,-1.41281 4.55441,-5.43439 5.42456,-11.92236 0.68662,-5.11956 1.09335,-23.35055 1.08954,-48.837 -0.002,-14.049 -0.0509,-17.171182 -0.28612,-18.297774 -0.50927,-2.439432 -1.28169,-3.240918 -3.6503,-3.787654 -2.24668,-0.518594 -5.31936,-0.58715 -9.23666,-0.206088 -4.96656,0.483134 -8.51467,0.457068 -10.72276,-0.07877 -6.78464,-1.64645 -11.0192,-6.498958 -11.53735,-13.221012 -0.38765,-5.028972 1.76082,-9.806126 6.41047,-14.253758 4.61073,-4.410414 9.8821,-7.336666 20.92535,-11.616128 23.61611,-9.151671 48.18805,-13.938546 74.62357,-14.537475 14.59052,-0.330565 22.47157,1.141804 27.67459,5.170276 4.36602,3.380429 6.49251,9.248905 5.48176,15.127985 -0.87101,5.06612 -4.16169,8.347164 -10.43423,11.5133 -2.61805,1.321488 -3.82383,1.670966 -5.10185,1.478716 -1.1254,-0.169288 -1.86929,-0.555058 -2.80099,-1.45256 -1.15545,-1.11302 -1.55825,-2.067614 -1.55825,-3.692952 0,-2.484612 1.04304,-3.852184 4.05864,-5.321472 1.04232,-0.50785 1.71561,-0.51817 2.45061,-1.00071 1.1099,-0.728662 2.93316,-2.194054 3.10475,-2.821234 0.48811,-1.783878 0.0277,-3.99659 -1.0615,-5.102026 -1.36839,-1.38875 -4.32582,-2.409906 -8.65926,-2.989926 -6.10194,-0.81673 -20.7734,-0.44643 -32.14025,0.811198 -19.45492,2.152494 -37.4644,6.727684 -55.83281,14.183952 -6.71058,2.724018 -10.87424,5.184256 -13.86295,8.191382 -2.26514,2.279098 -2.92688,3.472962 -2.91011,5.250224 0.0138,1.461226 0.34667,2.266428 1.25908,3.045582 1.42991,1.221078 3.90026,1.414916 10.25841,0.804932 8.77903,-0.842232 15.23888,0.495936 18.92021,3.919352 2.27409,2.114772 3.48351,4.328836 4.41476,8.082048 l 0.46647,1.879976 -0.0148,23.477416 c -0.0141,22.42037 -0.23812,36.18966 -0.67976,41.78539 -0.52391,6.63831 -1.71738,11.68499 -3.71345,15.70267 -2.16388,4.35541 -5.71946,7.63192 -9.73683,8.97258 -3.25261,1.08546 -5.35279,1.13759 -11.83922,0.2939 -8.49358,-1.10476 -9.85329,-1.10244 -12.11985,0.0207 -2.24972,1.11476 -3.56915,3.14674 -3.30642,5.09202 0.30077,2.22703 1.94473,3.92103 5.41255,5.57731 7.48182,3.57345 26.49121,7.41452 43.70895,8.8319 7.32615,0.6031 12.24864,0.77346 22.45025,0.77693 9.69558,0.003 12.74542,-0.0951 21.18133,-0.68385 14.14948,-0.98742 31.15728,-3.49511 37.09172,-5.46891 3.52569,-1.17265 6.62454,-3.24671 7.52384,-5.03569 0.86611,-1.72297 0.64825,-4.58895 -0.44492,-5.8525 -1.29388,-1.49556 -2.88572,-1.92867 -9.03111,-2.45718 -7.89789,-0.67924 -12.03117,-1.57057 -15.61757,-3.36787 -4.00048,-2.00481 -6.52303,-4.82198 -8.51372,-9.5081 -0.94024,-2.21332 -1.39256,-3.85798 -2.01543,-7.32819 -0.75806,-4.22333 -0.86871,-6.23646 -1.5028,-27.34079 -0.56477,-18.79634 -0.58611,-20.43262 -0.38095,-29.22295 0.54462,-23.335112 1.23496,-34.321214 2.2874,-36.40218 1.29343,-2.557392 4.47024,-3.681474 6.88897,-2.437586 1.25868,0.647304 2.29614,1.910628 2.68667,3.27161 0.28912,1.007564 0.28885,1.28481 -0.003,3.472448 -0.60118,4.498734 -1.10846,15.34316 -1.51061,32.293828 -0.20377,8.58917 -0.18163,10.25368 0.3848,28.92577 0.33054,10.89669 0.69418,20.74829 0.80807,21.89245 0.27212,2.73361 1.04591,6.607 1.63978,8.20825 1.82562,4.92233 4.43124,6.09194 15.71987,7.05635 5.25316,0.44879 8.11453,0.99133 10.3736,1.96694 5.43897,2.3489 8.68873,7.06559 9.09206,13.19621 0.3242,4.92818 -1.39106,9.32686 -5.00251,12.82849 -4.31441,4.18325 -10.08012,6.47344 -20.99684,8.34014 -10.7298,1.83475 -21.84521,3.07309 -33.97924,3.78557 -4.7659,0.27983 -20.88832,0.51608 -25.17097,0.36883 z"
         id="path2341"
         sodipodi:nodetypes="cssssssssssssssssssssssssssssssssssscccssssssssssssssssscsssssssssssssssc" />
    </g>
  </g>
</svg>
