<?xml version="1.0" encoding="UTF-8" standalone="no"?>
<!-- Created with Inkscape (http://www.inkscape.org/) -->

<svg
   xmlns:dc="http://purl.org/dc/elements/1.1/"
   xmlns:cc="http://creativecommons.org/ns#"
   xmlns:rdf="http://www.w3.org/1999/02/22-rdf-syntax-ns#"
   xmlns:svg="http://www.w3.org/2000/svg"
   xmlns="http://www.w3.org/2000/svg"
   xmlns:xlink="http://www.w3.org/1999/xlink"
   xmlns:sodipodi="http://sodipodi.sourceforge.net/DTD/sodipodi-0.dtd"
   xmlns:inkscape="http://www.inkscape.org/namespaces/inkscape"
   id="svg368"
   sodipodi:docname="office_help.svg"
   viewBox="0 0 308.9 274.27"
   sodipodi:version="0.32"
   version="1.0"
   inkscape:output_extension="org.inkscape.output.svg.inkscape"
   y="0"
   x="0"
   inkscape:version="0.48.5 r10040"
   width="100%"
   height="100%">
  <sodipodi:namedview
     id="base"
     bordercolor="#666666"
     inkscape:pageshadow="2"
     guidetolerance="10.0"
     pagecolor="#ffffff"
     gridtolerance="10.0"
     inkscape:zoom="1.45"
     objecttolerance="10.0"
     borderopacity="1.0"
     inkscape:current-layer="svg368"
     inkscape:cx="160"
     inkscape:cy="160"
     inkscape:window-y="124"
     inkscape:window-x="2460"
     inkscape:window-height="660"
     showgrid="false"
     inkscape:pageopacity="0.0"
     inkscape:window-width="640"
     inkscape:window-maximized="0" />
  <defs
     id="defs3">
    <linearGradient
       id="linearGradient672"
       y2="1055.1"
       xlink:href="#linearGradient378"
       gradientUnits="userSpaceOnUse"
       y1="1046.5"
       gradientTransform="matrix(0.85988,0,0,1.163,20,0)"
       x2="421.94"
       x1="421.94" />
    <linearGradient
       id="linearGradient671"
       y2="1053.2"
       xlink:href="#linearGradient378"
       gradientUnits="userSpaceOnUse"
       y1="996.71"
       gradientTransform="scale(0.85988,1.163)"
       x2="449.51"
       x1="447.95" />
    <linearGradient
       id="linearGradient670"
       y2="1001.4"
       xlink:href="#linearGradient531"
       gradientUnits="userSpaceOnUse"
       y1="1061.2"
       gradientTransform="matrix(0.85988,0,0,1.163,20,0)"
       x2="427.93"
       x1="421.22" />
    <linearGradient
       id="linearGradient669"
       y2="1001.4"
       xlink:href="#linearGradient531"
       gradientUnits="userSpaceOnUse"
       y1="1060.6"
       gradientTransform="matrix(0.85988,0,0,1.163,120,0)"
       x2="311.64"
       x1="308.07" />
    <linearGradient
       id="linearGradient531">
      <stop
         id="stop532"
         style="stop-color:#ffd800"
         offset="0" />
      <stop
         id="stop533"
         style="stop-color:#e77900"
         offset="1" />
    </linearGradient>
    <linearGradient
       id="linearGradient666"
       y2="1493.9"
       xlink:href="#linearGradient378"
       gradientUnits="userSpaceOnUse"
       y1="1437.3"
       gradientTransform="matrix(1.3622,0,0,0.73409,0,140)"
       x2="182.97"
       x1="196.65" />
    <linearGradient
       id="linearGradient665"
       y2="1068.4"
       xlink:href="#linearGradient378"
       gradientUnits="userSpaceOnUse"
       y1="1048.1"
       gradientTransform="matrix(0.96515,0,0,1.0361,0,140)"
       x2="212.01"
       x1="211.96" />
    <linearGradient
       id="linearGradient664"
       y2="985.21"
       xlink:href="#linearGradient410"
       gradientUnits="userSpaceOnUse"
       y1="1010.1"
       gradientTransform="matrix(0.90728,0,0,1.1022,0,140)"
       x2="227.17"
       x1="222.24" />
    <linearGradient
       id="linearGradient663"
       y2="1669.3"
       xlink:href="#linearGradient378"
       gradientUnits="userSpaceOnUse"
       y1="1674.5"
       gradientTransform="matrix(1.5147,0,0,0.66019,0,140)"
       x2="147.69"
       x1="140.18" />
    <linearGradient
       id="linearGradient662"
       y2="1667"
       xlink:href="#linearGradient378"
       gradientUnits="userSpaceOnUse"
       y1="1674.5"
       gradientTransform="matrix(1.5147,0,0,0.66019,0,140)"
       x2="167.52"
       x1="175.51" />
    <linearGradient
       id="linearGradient661"
       y2="1634.5"
       xlink:href="#linearGradient366"
       gradientUnits="userSpaceOnUse"
       y1="1696.2"
       gradientTransform="matrix(1.5147,0,0,0.66019,0,140)"
       x2="157.33"
       x1="140.26" />
    <linearGradient
       id="linearGradient660"
       y2="1444.9"
       xlink:href="#linearGradient410"
       gradientUnits="userSpaceOnUse"
       y1="1478.2"
       gradientTransform="matrix(1.3622,0,0,0.73409,0,140)"
       x2="191.07"
       x1="191.07" />
    <linearGradient
       id="linearGradient659"
       y2="1776.3"
       xlink:href="#linearGradient378"
       gradientUnits="userSpaceOnUse"
       y1="1700.8"
       gradientTransform="matrix(1.615,0,0,0.61918,0,140)"
       x2="164.79"
       x1="143.16" />
    <linearGradient
       id="linearGradient658"
       y2="1448.5"
       xlink:href="#linearGradient366"
       gradientUnits="userSpaceOnUse"
       y1="1448.5"
       gradientTransform="matrix(1.5147,0,0,0.66019,0,280)"
       x2="189.14"
       x1="131.92" />
    <linearGradient
       id="linearGradient657"
       y2="1082.9"
       spreadMethod="reflect"
       gradientUnits="userSpaceOnUse"
       y1="1137.6"
       gradientTransform="matrix(1.176,0,0,0.85037,0,280)"
       x2="211.85"
       x1="205.99">
      <stop
         id="stop363"
         style="stop-color:#b6e8ff"
         offset="0" />
      <stop
         id="stop364"
         style="stop-color:#2389db"
         offset="1" />
    </linearGradient>
    <radialGradient
       id="radialGradient656"
       xlink:href="#linearGradient443"
       gradientUnits="userSpaceOnUse"
       cy="1794.9"
       cx="169.88"
       gradientTransform="scale(1.4598,0.685)"
       r="44.525" />
    <linearGradient
       id="linearGradient443">
      <stop
         id="stop444"
         style="stop-color:#000000;stop-opacity:.39216"
         offset="0" />
      <stop
         id="stop445"
         style="stop-color:#000000;stop-opacity:0"
         offset="1" />
    </linearGradient>
    <linearGradient
       id="linearGradient654"
       y2="1976.4"
       xlink:href="#linearGradient378"
       gradientUnits="userSpaceOnUse"
       y1="1985.5"
       gradientTransform="matrix(1.9379,0,0,0.51603,0,140)"
       x2="115.17"
       x1="126.14" />
    <linearGradient
       id="linearGradient653"
       y2="885.65"
       xlink:href="#linearGradient378"
       gradientUnits="userSpaceOnUse"
       y1="868.12"
       gradientTransform="matrix(0.83406,0,0,1.199,0,132)"
       x2="252.1"
       x1="250.29" />
    <linearGradient
       id="linearGradient410">
      <stop
         id="stop411"
         style="stop-color:#ff0b00"
         offset="0" />
      <stop
         id="stop412"
         style="stop-color:#810500"
         offset="1" />
    </linearGradient>
    <linearGradient
       id="linearGradient652"
       y2="776.56"
       xlink:href="#linearGradient410"
       gradientUnits="userSpaceOnUse"
       y1="794.37"
       gradientTransform="matrix(0.74743,0,0,1.3379,0.25,132)"
       x2="286.71"
       x1="277.49" />
    <linearGradient
       id="linearGradient651"
       y2="1051.4"
       xlink:href="#linearGradient378"
       gradientUnits="userSpaceOnUse"
       y1="998.7"
       gradientTransform="matrix(0.99134,0,0,1.0087,0,140)"
       x2="243.66"
       x1="241.41" />
    <linearGradient
       id="linearGradient366">
      <stop
         id="stop367"
         style="stop-color:#d9d9b4"
         offset="0" />
      <stop
         id="stop368"
         style="stop-color:#a3a36b"
         offset="1" />
    </linearGradient>
    <linearGradient
       id="linearGradient650"
       y2="1719"
       xlink:href="#linearGradient366"
       gradientUnits="userSpaceOnUse"
       y1="1726.7"
       gradientTransform="matrix(1.9585,0,0,0.51059,0,280)"
       x2="116.15"
       x1="121.74" />
    <linearGradient
       id="linearGradient378">
      <stop
         id="stop379"
         style="stop-color:#ffffff"
         offset="0" />
      <stop
         id="stop380"
         style="stop-color:#ffffff;stop-opacity:0"
         offset="1" />
    </linearGradient>
    <linearGradient
       id="linearGradient649"
       y2="408.78"
       xlink:href="#linearGradient378"
       gradientUnits="userSpaceOnUse"
       y1="408.78"
       gradientTransform="matrix(0.44846,0,0,2.2298,0,280)"
       x2="504.9"
       x1="433.23" />
    <linearGradient
       id="linearGradient648"
       y2="833.85"
       gradientUnits="userSpaceOnUse"
       y1="768.04"
       gradientTransform="matrix(0.88068,0,0,1.1355,0,280)"
       x2="230.01"
       x1="296.14">
      <stop
         id="stop371"
         style="stop-color:#4dad2c"
         offset="0" />
      <stop
         id="stop372"
         style="stop-color:#e3ff86"
         offset="1" />
    </linearGradient>
    <radialGradient
       inkscape:collect="always"
       xlink:href="#linearGradient443"
       id="radialGradient3053"
       gradientUnits="userSpaceOnUse"
       gradientTransform="scale(1.4598,0.685)"
       cx="169.88"
       cy="1794.9"
       r="44.525" />
    <linearGradient
       inkscape:collect="always"
       xlink:href="#linearGradient531"
       id="linearGradient3055"
       gradientUnits="userSpaceOnUse"
       gradientTransform="matrix(0.85988,0,0,1.163,120,0)"
       x1="308.07"
       y1="1060.6"
       x2="311.64"
       y2="1001.4" />
    <linearGradient
       inkscape:collect="always"
       xlink:href="#linearGradient531"
       id="linearGradient3057"
       gradientUnits="userSpaceOnUse"
       gradientTransform="matrix(0.85988,0,0,1.163,120,0)"
       x1="308.07"
       y1="1060.6"
       x2="311.64"
       y2="1001.4" />
    <linearGradient
       inkscape:collect="always"
       xlink:href="#linearGradient531"
       id="linearGradient3088"
       gradientUnits="userSpaceOnUse"
       gradientTransform="matrix(0.85988,0,0,1.163,120,0)"
       x1="308.07"
       y1="1060.6"
       x2="311.64"
       y2="1001.4" />
    <linearGradient
       inkscape:collect="always"
       xlink:href="#linearGradient531"
       id="linearGradient3090"
       gradientUnits="userSpaceOnUse"
       gradientTransform="matrix(0.85988,0,0,1.163,120,0)"
       x1="308.07"
       y1="1060.6"
       x2="311.64"
       y2="1001.4" />
    <linearGradient
       inkscape:collect="always"
       xlink:href="#linearGradient531"
       id="linearGradient3092"
       gradientUnits="userSpaceOnUse"
       gradientTransform="matrix(0.85988,0,0,1.163,120,0)"
       x1="308.07"
       y1="1060.6"
       x2="311.64"
       y2="1001.4" />
    <linearGradient
       inkscape:collect="always"
       xlink:href="#linearGradient531"
       id="linearGradient3094"
       gradientUnits="userSpaceOnUse"
       gradientTransform="matrix(0.85988,0,0,1.163,20,0)"
       x1="421.22"
       y1="1061.2"
       x2="427.93"
       y2="1001.4" />
    <linearGradient
       inkscape:collect="always"
       xlink:href="#linearGradient378"
       id="linearGradient3096"
       gradientUnits="userSpaceOnUse"
       gradientTransform="scale(0.85988,1.163)"
       x1="447.95"
       y1="996.71"
       x2="449.51"
       y2="1053.2" />
    <linearGradient
       inkscape:collect="always"
       xlink:href="#linearGradient378"
       id="linearGradient3098"
       gradientUnits="userSpaceOnUse"
       gradientTransform="matrix(0.85988,0,0,1.163,20,0)"
       x1="421.94"
       y1="1046.5"
       x2="421.94"
       y2="1055.1" />
    <linearGradient
       inkscape:collect="always"
       xlink:href="#linearGradient378"
       id="linearGradient3061"
       gradientUnits="userSpaceOnUse"
       gradientTransform="matrix(2.0606164,0,0,2.7870132,-675.96932,-2737.2508)"
       x1="421.94"
       y1="1046.5"
       x2="421.94"
       y2="1055.1" />
    <linearGradient
       inkscape:collect="always"
       xlink:href="#linearGradient378"
       id="linearGradient3064"
       gradientUnits="userSpaceOnUse"
       gradientTransform="matrix(2.0606164,0,0,2.7870132,-724.58698,-2737.9405)"
       x1="447.95"
       y1="996.71"
       x2="449.51"
       y2="1053.2" />
    <linearGradient
       inkscape:collect="always"
       xlink:href="#linearGradient531"
       id="linearGradient3067"
       gradientUnits="userSpaceOnUse"
       gradientTransform="matrix(2.0606164,0,0,2.7870132,-676.65898,-2735.8715)"
       x1="421.22"
       y1="1061.2"
       x2="427.93"
       y2="1001.4" />
    <linearGradient
       inkscape:collect="always"
       xlink:href="#linearGradient531"
       id="linearGradient3070"
       gradientUnits="userSpaceOnUse"
       gradientTransform="matrix(2.0606164,0,0,2.7870132,-437.01898,-2735.8715)"
       x1="308.07"
       y1="1060.6"
       x2="311.64"
       y2="1001.4" />
    <linearGradient
       inkscape:collect="always"
       xlink:href="#linearGradient531"
       id="linearGradient3073"
       gradientUnits="userSpaceOnUse"
       gradientTransform="matrix(2.0606164,0,0,2.7870132,-437.01898,-2735.8715)"
       x1="308.07"
       y1="1060.6"
       x2="311.64"
       y2="1001.4" />
    <linearGradient
       inkscape:collect="always"
       xlink:href="#linearGradient531"
       id="linearGradient3076"
       gradientUnits="userSpaceOnUse"
       gradientTransform="matrix(2.0606164,0,0,2.7870132,-437.01898,-2735.8715)"
       x1="308.07"
       y1="1060.6"
       x2="311.64"
       y2="1001.4" />
  </defs>
  <g
     transform="matrix(2.3964,0,0,2.3964,-445.8594,-2757.968)"
     id="g619">
    <path
       inkscape:connector-curvature="0"
       d="m 202.47,1162 46.06,-10.6 14.17,3.5 -3.54,56.7 -42.52,17.7 -14.17,-10.6 V 1162 z"
       style="fill:url(#linearGradient648);fill-rule:evenodd;stroke:#000000;stroke-width:1px"
       id="path620" />
    <path
       inkscape:connector-curvature="0"
       d="m 203.93,1163.2 v 54.3 l 12.86,9.6 v -58.9 c -6.59,-0.1 -11.4,-3.1 -12.86,-5 z"
       style="fill:url(#linearGradient649);fill-rule:evenodd"
       id="path621" />
    <path
       inkscape:connector-curvature="0"
       d="m 207.06,1162.3 c 1.91,2 5.06,3.8 9.45,3.9 l 42.77,-11.7 -9.22,-2.2 -43,10 z"
       style="fill:url(#linearGradient650);fill-rule:evenodd;stroke:#000000;stroke-linecap:round;stroke-linejoin:round;stroke-opacity:0.19607999"
       id="path622" />
    <path
       inkscape:connector-curvature="0"
       d="m 218.75,1168.2 41.75,-11.4 -1.25,24.4 c -1.42,26.9 -31.08,-18.8 -40.5,16.3 v -29.3 z"
       style="fill:url(#linearGradient651);fill-rule:evenodd"
       id="path623" />
    <path
       inkscape:connector-curvature="0"
       d="m 202.66,1172.3 c 3.53,3.4 8.66,5.9 13.96,5.8 l -0.17,20.2 c -4.66,-0.5 -11.08,-2.9 -13.61,-6.7 l -0.18,-19.3 z"
       style="fill:url(#linearGradient652);fill-rule:evenodd;stroke:#000000;stroke-linecap:round;stroke-linejoin:round;stroke-opacity:0.39215997"
       id="path624" />
    <path
       inkscape:connector-curvature="0"
       d="m 203.85,1175.1 c 2.17,2.5 7.57,4.7 11.24,4.5 0,3.6 0.66,8.9 -1.13,10.1 -3.4,2.3 -5.29,-10.3 -9.96,-3.9 -0.17,-3.5 0.02,-7.3 -0.15,-10.7 z"
       style="fill:url(#linearGradient653);fill-rule:evenodd"
       id="path625" />
    <path
       inkscape:connector-curvature="0"
       d="m 207.06,1162.3 c 1.91,2 5.06,3.8 9.45,3.9 l 42.77,-11.7 -9.22,-2.2 -43,10 z"
       style="fill:url(#linearGradient654);fill-rule:evenodd"
       id="path626" />
  </g>
  <g
     transform="matrix(2.3964,0,0,2.3964,-445.8594,-2757.968)"
     id="g627">
    <path
       inkscape:connector-curvature="0"
       d="m 313,1229.5 c 0,16.8 -29.1,30.5 -65,30.5 -35.9,0 -65,-13.7 -65,-30.5 0,-16.8 29.1,-30.5 65,-30.5 35.9,0 65,13.7 65,30.5 z"
       transform="matrix(0.57678,-0.12442,-0.026664,0.73838,147.49,344.51)"
       style="fill:url(#radialGradient3053)"
       id="path628" />
    <path
       inkscape:connector-curvature="0"
       d="m 313,1229.5 c 0,16.8 -29.1,30.5 -65,30.5 -35.9,0 -65,-13.7 -65,-30.5 0,-16.8 29.1,-30.5 65,-30.5 35.9,0 65,13.7 65,30.5 z"
       transform="matrix(0.98985,-0.14211,0.12231,0.85192,-145.37,225.56)"
       style="fill:url(#radialGradient656)"
       id="path629" />
  </g>
  <g
     transform="matrix(2.3964,0,0,2.3964,-445.8594,-2757.968)"
     id="g630">
    <path
       inkscape:connector-curvature="0"
       d="m 199.43,1218.2 53.14,-21.3 35.44,21.3 v 14.2 l -53.15,28.3 -35.43,-28.3 v -14.2 z"
       style="fill:url(#linearGradient657);fill-rule:evenodd;stroke:#000000;stroke-width:1px"
       id="path631" />
    <path
       inkscape:connector-curvature="0"
       d="m 287.32,1219.6 -52.5,26.8 -34.64,-25.5 -0.36,8.9 35.18,28.1 52.5,-27.5 -0.18,-10.8 z"
       style="fill:url(#linearGradient658);fill-rule:evenodd;stroke:#000000;stroke-width:2;stroke-linecap:round;stroke-linejoin:round;stroke-opacity:0.19607999"
       id="path632" />
    <path
       inkscape:connector-curvature="0"
       d="m 203.65,1218.8 48.79,-20.1 32.17,19.8 c -6.25,3.2 -15.54,7.6 -21.21,8.5 -25.44,3.8 -17.33,-13.1 -59.75,-8.2 z"
       style="fill:url(#linearGradient659);fill-rule:evenodd"
       id="path633" />
    <path
       inkscape:connector-curvature="0"
       d="m 252.25,1200.8 -15.5,6.4 28.75,17.3 15,-6.5 -28.25,-17.2 z"
       style="fill:url(#linearGradient660);fill-rule:evenodd;stroke:#000000;stroke-linecap:round;stroke-linejoin:round;stroke-opacity:0.39215997"
       id="path634" />
    <path
       inkscape:connector-curvature="0"
       d="m 287.32,1219.6 -52.5,26.8 -34.64,-25.5 -0.36,8.9 35.18,28.1 52.5,-27.5 -0.18,-10.8 z"
       style="fill:url(#linearGradient661);fill-rule:evenodd;stroke:#000000;stroke-linecap:round;stroke-linejoin:round;stroke-opacity:0.19607999"
       id="path635" />
    <path
       inkscape:connector-curvature="0"
       d="m 287.32,1219.6 -52.5,26.8 0.18,11.5 52.5,-27.5 -0.18,-10.8 z"
       style="fill:url(#linearGradient662);fill-rule:evenodd"
       id="path636" />
    <path
       inkscape:connector-curvature="0"
       d="m 234.82,1246.4 -34.64,-25.5 -0.36,8.9 35.18,28.1 -0.18,-11.5 z"
       style="fill:url(#linearGradient663);fill-rule:evenodd"
       id="path637" />
    <path
       inkscape:connector-curvature="0"
       d="m 203.48,1227.2 c 3.36,2.8 6.72,5.5 10.08,8.3 -4.23,1.4 -4.95,16.8 -14.18,17.7 1.57,-5.2 1.64,-8.3 1.71,-12.3 -2.43,1.5 -6.36,2.7 -8.79,1.7 6.73,-4.9 7.45,-14.5 11.18,-15.4 z"
       style="fill:url(#linearGradient664);fill-rule:evenodd;stroke:#000000;stroke-linecap:round;stroke-linejoin:round"
       id="path638" />
    <path
       inkscape:connector-curvature="0"
       d="m 202.49,1229.6 c -0.94,0.6 -2.08,4.4 -3.44,7.1 3.18,-3.1 4.35,7.1 7.43,6.9 1.82,-0.2 2.92,-4.4 3.84,-6.8 0.86,-2.3 -6.36,-8.2 -7.83,-7.2 z"
       style="fill:url(#linearGradient665);fill-rule:evenodd"
       id="path639" />
    <path
       inkscape:connector-curvature="0"
       d="m 252.12,1202.2 -12.5,5.2 c 11.96,-3.7 18.76,5.9 25.63,11.5 4.76,3.8 14.83,-1 7.87,-4.1 l -21,-12.6 z"
       style="fill:url(#linearGradient666);fill-rule:evenodd"
       id="path640" />
  </g>
  <path
     id="path647"
     style="fill:url(#linearGradient3061)"
     d="m 186.519,183.96079 c -17.56561,4.7928 -12.62902,29.955 4.64902,29.71536 15.60056,4.7928 31.17716,-18.21264 14.61804,-27.31896 -5.55965,-4.07388 -12.8447,-3.83424 -19.26706,-2.3964 z"
     inkscape:connector-curvature="0" />
  <metadata
     id="metadata76">
    <rdf:RDF>
      <cc:Work>
        <dc:format>image/svg+xml</dc:format>
        <dc:type
           rdf:resource="http://purl.org/dc/dcmitype/StillImage" />
        <cc:license
           rdf:resource="http://creativecommons.org/licenses/publicdomain/" />
        <dc:publisher>
          <cc:Agent
             rdf:about="http://openclipart.org/">
            <dc:title>Openclipart</dc:title>
          </cc:Agent>
        </dc:publisher>
        <dc:title>Books 2</dc:title>
        <dc:date>2006-12-26T00:00:00</dc:date>
        <dc:description />
        <dc:source>https://openclipart.org/detail/17923/-by--17923</dc:source>
        <dc:creator>
          <cc:Agent>
            <dc:title>AJ</dc:title>
          </cc:Agent>
        </dc:creator>
      </cc:Work>
      <cc:License
         rdf:about="http://creativecommons.org/licenses/publicdomain/">
        <cc:permits
           rdf:resource="http://creativecommons.org/ns#Reproduction" />
        <cc:permits
           rdf:resource="http://creativecommons.org/ns#Distribution" />
        <cc:permits
           rdf:resource="http://creativecommons.org/ns#DerivativeWorks" />
      </cc:License>
    </rdf:RDF>
  </metadata>
</svg>
