<?xml version="1.0" encoding="UTF-8" standalone="no"?>
<!-- Created with Inkscape (http://www.inkscape.org/) -->
<svg
   xmlns:dc="http://purl.org/dc/elements/1.1/"
   xmlns:cc="http://creativecommons.org/ns#"
   xmlns:rdf="http://www.w3.org/1999/02/22-rdf-syntax-ns#"
   xmlns:svg="http://www.w3.org/2000/svg"
   xmlns="http://www.w3.org/2000/svg"
   xmlns:xlink="http://www.w3.org/1999/xlink"
   xmlns:sodipodi="http://sodipodi.sourceforge.net/DTD/sodipodi-0.dtd"
   xmlns:inkscape="http://www.inkscape.org/namespaces/inkscape"
   id="svg2"
   sodipodi:version="0.32"
   inkscape:version="0.46"
   width="1000"
   height="1000"
   version="1.0"
   sodipodi:docname="open_dating.svg"
   inkscape:output_extension="org.inkscape.output.svg.inkscape"
   inkscape:export-filename="C:\Users\ramin\Documents\ws\joffice\com.wwindows.office.ooxml.libs\src\com\joffice\ui\resources\images\tools\open_dating_48.png"
   inkscape:export-xdpi="2.8800001"
   inkscape:export-ydpi="2.8800001">
  <defs
     id="defs5">
    <linearGradient
       inkscape:collect="always"
       id="linearGradient6192">
      <stop
         style="stop-color:#f9a6a6;stop-opacity:1;"
         offset="0"
         id="stop6194" />
      <stop
         style="stop-color:#f9a6a6;stop-opacity:0;"
         offset="1"
         id="stop6196" />
    </linearGradient>
    <inkscape:perspective
       sodipodi:type="inkscape:persp3d"
       inkscape:vp_x="0 : 148.5 : 1"
       inkscape:vp_y="0 : 1000 : 0"
       inkscape:vp_z="293 : 148.5 : 1"
       inkscape:persp3d-origin="146.5 : 99 : 1"
       id="perspective66" />
    <linearGradient
       id="linearGradient2776">
      <stop
         id="stop2778"
         offset="0"
         style="stop-color:#ff0214;stop-opacity:0;" />
      <stop
         style="stop-color:#da0214;stop-opacity:0.49803922;"
         offset="0.89285713"
         id="stop2786" />
      <stop
         id="stop2780"
         offset="1"
         style="stop-color:#8a0214;stop-opacity:1;" />
    </linearGradient>
    <linearGradient
       id="linearGradient2766">
      <stop
         style="stop-color:#ff1200;stop-opacity:1;"
         offset="0"
         id="stop2768" />
      <stop
         id="stop4694"
         offset="0.5"
         style="stop-color:#e20a00;stop-opacity:1;" />
      <stop
         style="stop-color:#8d0200;stop-opacity:1;"
         offset="1"
         id="stop2770" />
    </linearGradient>
    <clipPath
       clipPathUnits="userSpaceOnUse"
       id="clipPath4689">
      <path
         id="path4351"
         d="M -242.98847,334.54412 C -243.61042,334.53898 -244.24427,334.55705 -244.86856,334.57239 C -266.32648,334.79138 -286.01748,346.53734 -299.94029,361.93814 C -300.30787,362.35643 -300.71704,362.73828 -301.15511,363.06896 C -303.83225,365.08986 -307.62502,365.36177 -310.09271,362.56009 C -310.51386,362.24161 -310.9354,361.93604 -311.36536,361.62717 C -324.57466,352.13863 -341.86537,347.27512 -357.90448,352.0435 C -360.05688,352.58225 -362.15944,353.24029 -364.20995,354.02243 C -374.3694,357.89757 -383.22975,364.63106 -390.29963,372.85052 C -394.45944,377.01518 -398.09381,381.6412 -401.1462,386.58995 C -410.19771,401.26494 -414.15275,418.83111 -411.67462,435.97836 C -410.94661,441.50799 -409.28544,446.66186 -406.98889,451.55535 C -400.34585,465.71035 -388.33663,477.54041 -377.80435,488.92884 C -374.77423,491.90372 -371.68145,494.82916 -368.54858,497.69268 C -342.27928,521.70349 -312.6884,542.10127 -284.87077,564.26949 C -282.58282,565.73476 -279.4496,569.82197 -278.85453,564.86318 C -278.84345,564.83458 -278.83671,564.80694 -278.82561,564.77838 C -277.75122,562.01358 -276.60191,559.27197 -275.41255,556.55167 C -265.10542,532.97732 -250.51901,511.17985 -232.19974,492.83016 C -230.7261,491.22295 -229.23695,489.62391 -227.71648,488.05246 C -212.10388,471.91652 -194.39288,457.37445 -182.30543,438.43788 C -180.91357,436.11148 -179.69892,433.71415 -178.6899,431.2572 C -170.57285,411.4924 -174.53002,388.05303 -185.16893,369.82559 C -187.46399,365.96385 -190.13901,362.26359 -193.15203,358.82839 C -205.6226,344.61052 -223.70826,334.70347 -242.98847,334.54412 z M -251.28972,353.17432 C -234.62501,353.30621 -218.97146,361.50618 -208.19262,373.27457 C -205.58835,376.11795 -203.29236,379.18122 -201.30866,382.37765 C -192.113,397.46482 -188.71037,416.84819 -195.72627,433.20786 C -196.59842,435.24152 -197.61811,437.2473 -198.82116,439.17291 C -209.26886,454.84704 -224.57673,466.86556 -238.07136,480.22155 C -239.38556,481.52228 -240.67349,482.8491 -241.9472,484.17943 C -257.78134,499.36777 -270.40845,517.41908 -279.31732,536.93201 C -280.34534,539.18365 -281.31005,541.45671 -282.23866,543.74519 C -282.24827,543.76884 -282.25799,543.77807 -282.26759,543.80172 C -282.78193,547.9062 -285.49636,544.53397 -287.47394,543.32112 C -311.51788,524.9721 -337.10782,508.06798 -359.81347,488.19381 C -362.52133,485.82361 -365.17752,483.41896 -367.79656,480.95659 C -376.90006,471.53018 -387.27664,461.74508 -393.01849,450.02875 C -395.0035,445.97832 -396.43864,441.68614 -397.06788,437.10918 C -399.20982,422.9161 -395.80929,408.3769 -387.98567,396.23016 C -385.34737,392.13397 -382.18081,388.31261 -378.58529,384.86545 C -372.47452,378.06205 -364.83456,372.49597 -356.05331,369.28846 C -354.28096,368.64107 -352.44705,368.09471 -350.58663,367.64877 C -336.72336,363.7019 -321.79927,367.73894 -310.38195,375.59276 C -310.0103,375.8484 -309.64683,376.09243 -309.28282,376.35604 C -307.14989,378.67503 -303.87404,378.45283 -301.56006,376.78011 C -301.18141,376.50639 -300.80755,376.1934 -300.48986,375.84717 C -288.45579,363.09966 -271.45646,353.38384 -252.90949,353.20259 C -252.36989,353.1899 -251.8273,353.17007 -251.28972,353.17432 z"
         style="opacity:1;fill:#2b0000;fill-opacity:1" />
    </clipPath>
    <radialGradient
       inkscape:collect="always"
       xlink:href="#linearGradient2766"
       id="radialGradient4692"
       cx="-152.87935"
       cy="144.6144"
       fx="-152.87935"
       fy="144.6144"
       r="132.34866"
       gradientTransform="matrix(0.86361,-0.268102,0.322585,1.03912,-62.62027,-50.48978)"
       gradientUnits="userSpaceOnUse"
       spreadMethod="reflect" />
    <radialGradient
       inkscape:collect="always"
       xlink:href="#linearGradient2766"
       id="radialGradient4788"
       gradientUnits="userSpaceOnUse"
       gradientTransform="matrix(0.86361,-0.268102,0.322585,1.03912,-62.62027,-50.48978)"
       spreadMethod="reflect"
       cx="-152.87935"
       cy="144.6144"
       fx="-152.87935"
       fy="144.6144"
       r="132.34866" />
    <radialGradient
       inkscape:collect="always"
       xlink:href="#linearGradient2766"
       id="radialGradient4868"
       gradientUnits="userSpaceOnUse"
       gradientTransform="matrix(0.86361,-0.268102,0.322585,1.03912,-62.62027,-50.48978)"
       spreadMethod="reflect"
       cx="-152.87935"
       cy="144.6144"
       fx="-152.87935"
       fy="144.6144"
       r="132.34866" />
    <filter
       height="1.2252355"
       y="-0.11261773"
       width="1.2009296"
       x="-0.10046478"
       id="filter5812"
       inkscape:collect="always">
      <feGaussianBlur
         id="feGaussianBlur5814"
         stdDeviation="17.227831"
         inkscape:collect="always" />
    </filter>
    <linearGradient
       y2="463.55432"
       x2="463.13199"
       y1="339.19443"
       x1="410.90085"
       gradientUnits="userSpaceOnUse"
       id="linearGradient5766"
       xlink:href="#linearGradient5615"
       inkscape:collect="always" />
    <linearGradient
       y2="633.79071"
       x2="291.40625"
       y1="409.50504"
       x1="135.71431"
       gradientUnits="userSpaceOnUse"
       id="linearGradient5764"
       xlink:href="#linearGradient5269"
       inkscape:collect="always" />
    <linearGradient
       y2="529.50507"
       x2="267.14285"
       y1="453.79074"
       x1="462.85715"
       gradientUnits="userSpaceOnUse"
       id="linearGradient5762"
       xlink:href="#linearGradient5248"
       inkscape:collect="always" />
    <linearGradient
       y2="445.21933"
       x2="324.28571"
       y1="423.79074"
       x1="115.71429"
       gradientUnits="userSpaceOnUse"
       id="linearGradient5760"
       xlink:href="#linearGradient5256"
       inkscape:collect="always" />
    <radialGradient
       r="205.78566"
       fy="649.43842"
       fx="220.46748"
       cy="649.43842"
       cx="220.46748"
       gradientTransform="matrix(1.15059,-1.03035,0.930663,1.03927,-555.694,238.109)"
       gradientUnits="userSpaceOnUse"
       id="radialGradient5758"
       xlink:href="#linearGradient5286"
       inkscape:collect="always" />
    <radialGradient
       r="205.78566"
       fy="649.43842"
       fx="220.46748"
       cy="649.43842"
       cx="220.46748"
       gradientTransform="matrix(1.15059,-1.03035,0.930663,1.03927,-555.694,238.109)"
       gradientUnits="userSpaceOnUse"
       id="radialGradient5677"
       xlink:href="#linearGradient5286"
       inkscape:collect="always" />
    <filter
       id="filter5667"
       inkscape:collect="always">
      <feGaussianBlur
         id="feGaussianBlur5669"
         stdDeviation="0.45611138"
         inkscape:collect="always" />
    </filter>
    <filter
       id="filter5655"
       inkscape:collect="always">
      <feGaussianBlur
         id="feGaussianBlur5657"
         stdDeviation="5.452887"
         inkscape:collect="always" />
    </filter>
    <linearGradient
       gradientUnits="userSpaceOnUse"
       y2="463.55432"
       x2="463.13199"
       y1="339.19443"
       x1="410.90085"
       id="linearGradient5621"
       xlink:href="#linearGradient5615"
       inkscape:collect="always" />
    <filter
       height="1.5164741"
       y="-0.25823703"
       width="1.6371287"
       x="-0.31856436"
       id="filter5453"
       inkscape:collect="always">
      <feGaussianBlur
         id="feGaussianBlur5455"
         stdDeviation="17.570414"
         inkscape:collect="always" />
    </filter>
    <radialGradient
       gradientUnits="userSpaceOnUse"
       gradientTransform="matrix(1.15059,-1.03035,0.930663,1.03927,-555.694,240.129)"
       r="205.78566"
       fy="649.43842"
       fx="220.46748"
       cy="649.43842"
       cx="220.46748"
       id="radialGradient5284"
       xlink:href="#linearGradient5286"
       inkscape:collect="always" />
    <linearGradient
       gradientUnits="userSpaceOnUse"
       y2="633.79071"
       x2="291.40625"
       y1="409.50504"
       x1="135.71431"
       id="linearGradient5275"
       xlink:href="#linearGradient5269"
       inkscape:collect="always" />
    <linearGradient
       gradientUnits="userSpaceOnUse"
       y2="445.21933"
       x2="324.28571"
       y1="423.79074"
       x1="115.71429"
       id="linearGradient5262"
       xlink:href="#linearGradient5256"
       inkscape:collect="always" />
    <linearGradient
       gradientUnits="userSpaceOnUse"
       y2="529.50507"
       x2="267.14285"
       y1="453.79074"
       x1="462.85715"
       id="linearGradient5254"
       xlink:href="#linearGradient5248"
       inkscape:collect="always" />
    <filter
       height="1.3800622"
       y="-0.1900311"
       width="1.6230674"
       x="-0.31153369"
       id="filter5244"
       inkscape:collect="always">
      <feGaussianBlur
         id="feGaussianBlur5246"
         stdDeviation="25.39744"
         inkscape:collect="always" />
    </filter>
    <clipPath
       id="clipPath5030"
       clipPathUnits="userSpaceOnUse">
      <path
         id="path5032"
         style="fill:#ff0000;fill-rule:evenodd;stroke:none;stroke-width:1px;stroke-linecap:butt;stroke-linejoin:miter;stroke-opacity:1"
         d="M 290.95361,680.93361 C 290.95361,680.93361 527.62149,540.93361 493.33578,406.6479 C 459.05007,272.36218 313.33578,303.79075 290.9536,375.21933 C 268.57143,303.79075 122.85714,272.36218 88.571429,406.6479 C 54.285714,540.93361 290.95361,680.93361 290.95361,680.93361 z"
         sodipodi:nodetypes="cscsc" />
    </clipPath>
    <filter
       height="1.231106"
       y="-0.11555299"
       width="1.3725123"
       x="-0.18625616"
       id="filter5022"
       inkscape:collect="always">
      <feGaussianBlur
         id="feGaussianBlur5024"
         stdDeviation="17.531555"
         inkscape:collect="always" />
    </filter>
    <inkscape:perspective
       id="perspective4463"
       inkscape:persp3d-origin="372.04724 : 350.78739 : 1"
       inkscape:vp_z="744.09448 : 526.18109 : 1"
       inkscape:vp_y="0 : 1000 : 0"
       inkscape:vp_x="0 : 526.18109 : 1"
       sodipodi:type="inkscape:persp3d" />
    <linearGradient
       id="linearGradient5248"
       inkscape:collect="always">
      <stop
         id="stop5250"
         offset="0"
         style="stop-color: rgb(255, 128, 128); stop-opacity: 1;" />
      <stop
         id="stop5252"
         offset="1"
         style="stop-color: rgb(255, 128, 128); stop-opacity: 0;" />
    </linearGradient>
    <linearGradient
       id="linearGradient5256"
       inkscape:collect="always">
      <stop
         id="stop5258"
         offset="0"
         style="stop-color: rgb(212, 0, 0); stop-opacity: 1;" />
      <stop
         id="stop5260"
         offset="1"
         style="stop-color: rgb(212, 0, 0); stop-opacity: 0;" />
    </linearGradient>
    <linearGradient
       id="linearGradient5269"
       inkscape:collect="always">
      <stop
         id="stop5271"
         offset="0"
         style="stop-color: rgb(80, 22, 22); stop-opacity: 1;" />
      <stop
         id="stop5273"
         offset="1"
         style="stop-color: rgb(80, 22, 22); stop-opacity: 0;" />
    </linearGradient>
    <linearGradient
       id="linearGradient5286">
      <stop
         style="stop-color: rgb(255, 189, 189); stop-opacity: 1;"
         offset="0"
         id="stop5288" />
      <stop
         style="stop-color: rgb(255, 180, 180); stop-opacity: 0.017094;"
         offset="1"
         id="stop5290" />
    </linearGradient>
    <linearGradient
       id="linearGradient5615"
       inkscape:collect="always">
      <stop
         id="stop5617"
         offset="0"
         style="stop-color: rgb(244, 215, 215); stop-opacity: 1;" />
      <stop
         id="stop5619"
         offset="1"
         style="stop-color: rgb(244, 215, 215); stop-opacity: 0;" />
    </linearGradient>
    <linearGradient
       y2="425.39993"
       x2="-395.84943"
       y1="274.711"
       x1="-344.15295"
       gradientTransform="matrix(-0.657176,0,0,0.657176,183.1179,114.6286)"
       gradientUnits="userSpaceOnUse"
       id="linearGradient2111"
       xlink:href="#linearGradient2555"
       inkscape:collect="always" />
    <linearGradient
       y2="427.54285"
       x2="272.02597"
       y1="262.87494"
       x1="249.48328"
       gradientTransform="matrix(-0.301633,8.082223e-2,-8.294933e-2,-0.30957,402.8575,730.1118)"
       gradientUnits="userSpaceOnUse"
       id="linearGradient2097"
       xlink:href="#linearGradient5197"
       inkscape:collect="always" />
    <linearGradient
       y2="553.74487"
       x2="380.6846"
       y1="296.37491"
       x1="264.582"
       gradientTransform="matrix(0.312273,0,0,0.320491,127.55,434.3769)"
       gradientUnits="userSpaceOnUse"
       id="linearGradient2094"
       xlink:href="#linearGradient5190"
       inkscape:collect="always" />
    <linearGradient
       y2="553.74487"
       x2="380.6846"
       y1="296.37491"
       x1="264.582"
       gradientTransform="matrix(0.603819,0,0,0.619709,150.0752,-14.30925)"
       gradientUnits="userSpaceOnUse"
       id="linearGradient2038"
       xlink:href="#linearGradient5190"
       inkscape:collect="always" />
    <linearGradient
       y2="427.54285"
       x2="272.02597"
       y1="262.87494"
       x1="249.48328"
       gradientTransform="matrix(-0.583245,0.15628,-0.160393,-0.598593,682.417,557.5316)"
       gradientUnits="userSpaceOnUse"
       id="linearGradient2036"
       xlink:href="#linearGradient5197"
       inkscape:collect="always" />
    <linearGradient
       y2="425.39993"
       x2="-395.84943"
       y1="274.711"
       x1="-344.15295"
       gradientTransform="matrix(-0.657176,0,0,0.657176,183.1179,114.6286)"
       gradientUnits="userSpaceOnUse"
       id="linearGradient2013"
       xlink:href="#linearGradient2555"
       inkscape:collect="always" />
    <linearGradient
       y2="553.74487"
       x2="380.6846"
       y1="296.37491"
       x1="264.582"
       gradientTransform="matrix(0.603819,0,0,0.619709,150.0752,-14.30925)"
       gradientUnits="userSpaceOnUse"
       id="linearGradient1436"
       xlink:href="#linearGradient5190"
       inkscape:collect="always" />
    <linearGradient
       y2="427.54285"
       x2="272.02597"
       y1="262.87494"
       x1="249.48328"
       gradientTransform="matrix(-0.583245,0.15628,-0.160393,-0.598593,682.417,557.5316)"
       gradientUnits="userSpaceOnUse"
       id="linearGradient1434"
       xlink:href="#linearGradient5197"
       inkscape:collect="always" />
    <marker
       inkscape:stockid="Arrow2Lend"
       orient="auto"
       refY="0"
       refX="0"
       id="marker1392"
       style="overflow:visible">
      <path
         sodipodi:nodetypes="cccc"
         id="path1394"
         style="font-size:12px;fill-rule:evenodd;stroke-width:0.625;stroke-linejoin:round"
         d="M 8.7185878,4.0337352 L -2.2072895,0.016013256 L 8.7185884,-4.0017078 C 6.97309,-1.6296469 6.9831476,1.6157441 8.7185878,4.0337352 z "
         transform="matrix(-1.1,0,0,-1.1,5.5,0)" />
    </marker>
    <marker
       inkscape:stockid="Arrow1Lstart"
       orient="auto"
       refY="0"
       refX="0"
       id="marker1396"
       style="overflow:visible">
      <path
         sodipodi:nodetypes="ccccc"
         id="path1398"
         d="M 0,0 L 5,-5 L -12.5,0 L 5,5 L 0,0 z "
         style="fill-rule:evenodd;stroke:black;stroke-width:1pt;marker-start:none"
         transform="scale(0.8,0.8)" />
    </marker>
    <linearGradient
       inkscape:collect="always"
       xlink:href="#linearGradient2209"
       id="linearGradient1407"
       gradientUnits="userSpaceOnUse"
       x1="264.582"
       y1="296.37491"
       x2="380.6846"
       y2="553.74487"
       gradientTransform="matrix(0.603819,0,0,0.619709,150.0752,-14.30925)" />
    <linearGradient
       inkscape:collect="always"
       xlink:href="#linearGradient2209"
       id="linearGradient1409"
       gradientUnits="userSpaceOnUse"
       gradientTransform="matrix(-0.583245,0.15628,-0.160393,-0.598593,682.417,557.5316)"
       x1="249.48328"
       y1="262.87494"
       x2="272.02597"
       y2="427.54285" />
    <linearGradient
       inkscape:collect="always"
       xlink:href="#linearGradient2209"
       id="linearGradient1412"
       gradientUnits="userSpaceOnUse"
       gradientTransform="matrix(-0.583245,0.15628,-0.160393,-0.598593,681.2397,988.416)"
       x1="249.48328"
       y1="262.87494"
       x2="272.02597"
       y2="427.54285" />
    <linearGradient
       inkscape:collect="always"
       xlink:href="#linearGradient2209"
       id="linearGradient1414"
       gradientUnits="userSpaceOnUse"
       gradientTransform="matrix(0.603819,0,0,0.619709,148.8979,416.5751)"
       x1="264.582"
       y1="296.37491"
       x2="380.6846"
       y2="553.74487" />
    <linearGradient
       y2="425.39993"
       x2="-395.84943"
       y1="274.711"
       x1="-344.15295"
       gradientTransform="matrix(-1,0,0,1,-436.2668,386.5817)"
       gradientUnits="userSpaceOnUse"
       id="linearGradient5288"
       xlink:href="#linearGradient2555"
       inkscape:collect="always" />
    <linearGradient
       y2="425.39993"
       x2="-395.84943"
       y1="274.711"
       x1="-344.15295"
       gradientTransform="matrix(-1,0,0,1,-442.8568,667.0419)"
       gradientUnits="userSpaceOnUse"
       id="linearGradient5282"
       xlink:href="#linearGradient2555"
       inkscape:collect="always" />
    <linearGradient
       y2="425.39993"
       x2="-395.84943"
       y1="274.711"
       x1="-344.15295"
       gradientTransform="matrix(-1,0,0,1,-186.0209,386.5817)"
       gradientUnits="userSpaceOnUse"
       id="linearGradient5267"
       xlink:href="#linearGradient2555"
       inkscape:collect="always" />
    <linearGradient
       y2="425.39993"
       x2="-395.84943"
       y1="274.711"
       x1="-344.15295"
       gradientTransform="matrix(-1,0,0,1,-440.2346,113.7802)"
       gradientUnits="userSpaceOnUse"
       id="linearGradient5259"
       xlink:href="#linearGradient2555"
       inkscape:collect="always" />
    <linearGradient
       y2="425.39993"
       x2="-395.84943"
       y1="274.711"
       x1="-344.15295"
       gradientTransform="matrix(-1,0,0,1,-191.635,113.7802)"
       gradientUnits="userSpaceOnUse"
       id="linearGradient5249"
       xlink:href="#linearGradient2555"
       inkscape:collect="always" />
    <linearGradient
       y2="425.39993"
       x2="-395.84943"
       y1="274.711"
       x1="-344.15295"
       gradientTransform="matrix(-1,0,0,1,63.4881,385.1495)"
       gradientUnits="userSpaceOnUse"
       id="linearGradient5241"
       xlink:href="#linearGradient2555"
       inkscape:collect="always" />
    <linearGradient
       y2="425.39993"
       x2="-395.84943"
       y1="274.711"
       x1="-344.15295"
       gradientTransform="matrix(-1,0,0,1,-440.2346,-136.7822)"
       gradientUnits="userSpaceOnUse"
       id="linearGradient5233"
       xlink:href="#linearGradient2555"
       inkscape:collect="always" />
    <linearGradient
       y2="425.39993"
       x2="-395.84943"
       y1="274.711"
       x1="-344.15295"
       gradientTransform="matrix(-1,0,0,1,71.5989,667.0419)"
       gradientUnits="userSpaceOnUse"
       id="linearGradient5224"
       xlink:href="#linearGradient2555"
       inkscape:collect="always" />
    <linearGradient
       y2="425.39993"
       x2="-395.84943"
       y1="274.711"
       x1="-344.15295"
       gradientTransform="matrix(-1,0,0,1,63.4881,385.1495)"
       gradientUnits="userSpaceOnUse"
       id="linearGradient5218"
       xlink:href="#linearGradient2555"
       inkscape:collect="always" />
    <linearGradient
       y2="425.39993"
       x2="-395.84943"
       y1="274.711"
       x1="-344.15295"
       gradientTransform="matrix(-1,0,0,1,71.5989,-137.1758)"
       gradientUnits="userSpaceOnUse"
       id="linearGradient5212"
       xlink:href="#linearGradient2555"
       inkscape:collect="always" />
    <linearGradient
       y2="425.39993"
       x2="-395.84943"
       y1="274.711"
       x1="-344.15295"
       gradientTransform="matrix(-1,0,0,1,-187.6787,-139.1155)"
       gradientUnits="userSpaceOnUse"
       id="linearGradient5204"
       xlink:href="#linearGradient2555"
       inkscape:collect="always" />
    <marker
       inkscape:stockid="Arrow2Lend"
       orient="auto"
       refY="0"
       refX="0"
       id="Arrow2Lend"
       style="overflow:visible">
      <path
         sodipodi:nodetypes="cccc"
         id="path2663"
         style="font-size:12px;fill-rule:evenodd;stroke-width:0.625;stroke-linejoin:round"
         d="M 8.7185878,4.0337352 L -2.2072895,0.016013256 L 8.7185884,-4.0017078 C 6.97309,-1.6296469 6.9831476,1.6157441 8.7185878,4.0337352 z "
         transform="matrix(-1.1,0,0,-1.1,5.5,0)" />
    </marker>
    <marker
       inkscape:stockid="Arrow1Lstart"
       orient="auto"
       refY="0"
       refX="0"
       id="Arrow1Lstart"
       style="overflow:visible">
      <path
         sodipodi:nodetypes="ccccc"
         id="path2671"
         d="M 0,0 L 5,-5 L -12.5,0 L 5,5 L 0,0 z "
         style="fill-rule:evenodd;stroke:black;stroke-width:1pt;marker-start:none"
         transform="scale(0.8,0.8)" />
    </marker>
    <linearGradient
       inkscape:collect="always"
       id="linearGradient2209">
      <stop
         style="stop-color:#ffe900;stop-opacity:1;"
         offset="0"
         id="stop2211" />
      <stop
         style="stop-color:#ffe900;stop-opacity:0;"
         offset="1"
         id="stop2213" />
    </linearGradient>
    <linearGradient
       inkscape:collect="always"
       xlink:href="#linearGradient2209"
       id="linearGradient3069"
       gradientUnits="userSpaceOnUse"
       gradientTransform="matrix(-0.583245,0.15628,-0.160393,-0.598593,681.2397,988.416)"
       x1="249.48328"
       y1="262.87494"
       x2="272.02597"
       y2="427.54285" />
    <linearGradient
       inkscape:collect="always"
       xlink:href="#linearGradient2209"
       id="linearGradient3073"
       gradientUnits="userSpaceOnUse"
       gradientTransform="matrix(0.603819,0,0,0.619709,148.8979,416.5751)"
       x1="264.582"
       y1="296.37491"
       x2="380.6846"
       y2="553.74487" />
    <linearGradient
       y2="425.39993"
       x2="-395.84943"
       y1="274.711"
       x1="-344.15295"
       gradientTransform="matrix(-1,0,0,1,495.1238,418.0058)"
       gradientUnits="userSpaceOnUse"
       id="linearGradient2152"
       xlink:href="#linearGradient2555"
       inkscape:collect="always" />
    <linearGradient
       y2="425.39993"
       x2="-395.84943"
       y1="274.711"
       x1="-344.15295"
       gradientTransform="matrix(-1,0,0,1,-8.598892,146.6365)"
       gradientUnits="userSpaceOnUse"
       id="linearGradient1348"
       xlink:href="#linearGradient2555"
       inkscape:collect="always" />
    <linearGradient
       id="linearGradient2555"
       inkscape:collect="always">
      <stop
         id="stop2557"
         offset="0"
         style="stop-color:#ffffff;stop-opacity:1;" />
      <stop
         id="stop2559"
         offset="1"
         style="stop-color:#ffffff;stop-opacity:0;" />
    </linearGradient>
    <linearGradient
       id="linearGradient2547">
      <stop
         id="stop2549"
         offset="0"
         style="stop-color:#8f78bd;stop-opacity:1;" />
      <stop
         id="stop2551"
         offset="1"
         style="stop-opacity:0.38039216;stop-color:#ebe3f6" />
    </linearGradient>
    <linearGradient
       inkscape:collect="always"
       xlink:href="#linearGradient2555"
       id="linearGradient3412"
       gradientUnits="userSpaceOnUse"
       gradientTransform="matrix(-1,0,0,1,-11.22109,699.8982)"
       x1="-344.15295"
       y1="274.711"
       x2="-395.84943"
       y2="425.39993" />
    <linearGradient
       inkscape:collect="always"
       xlink:href="#linearGradient2555"
       id="linearGradient3425"
       gradientUnits="userSpaceOnUse"
       gradientTransform="matrix(-1,0,0,1,250.4934,699.8982)"
       x1="-344.15295"
       y1="274.711"
       x2="-395.84943"
       y2="425.39993" />
    <linearGradient
       inkscape:collect="always"
       xlink:href="#linearGradient2555"
       id="linearGradient3440"
       gradientUnits="userSpaceOnUse"
       gradientTransform="matrix(-1,0,0,1,245.6148,419.438)"
       x1="-344.15295"
       y1="274.711"
       x2="-395.84943"
       y2="425.39993" />
    <linearGradient
       inkscape:collect="always"
       xlink:href="#linearGradient2555"
       id="linearGradient3446"
       gradientUnits="userSpaceOnUse"
       gradientTransform="matrix(-1,0,0,1,-4.631092,419.438)"
       x1="-344.15295"
       y1="274.711"
       x2="-395.84943"
       y2="425.39993" />
    <linearGradient
       inkscape:collect="always"
       xlink:href="#linearGradient2555"
       id="linearGradient3513"
       gradientUnits="userSpaceOnUse"
       gradientTransform="matrix(-1,0,0,1,240.0007,146.6365)"
       x1="-344.15295"
       y1="274.711"
       x2="-395.84943"
       y2="425.39993" />
    <linearGradient
       inkscape:collect="always"
       xlink:href="#linearGradient2555"
       id="linearGradient5896"
       gradientUnits="userSpaceOnUse"
       gradientTransform="matrix(-1,0,0,1,-4.631092,-173.0379)"
       x1="-344.15295"
       y1="274.711"
       x2="-395.84943"
       y2="425.39993" />
    <linearGradient
       inkscape:collect="always"
       xlink:href="#linearGradient2555"
       id="linearGradient2831"
       gradientUnits="userSpaceOnUse"
       gradientTransform="matrix(-1,0,0,1,1176.115,892.6761)"
       x1="-344.15295"
       y1="274.711"
       x2="-395.84943"
       y2="425.39993" />
    <linearGradient
       inkscape:collect="always"
       xlink:href="#linearGradient2555"
       id="linearGradient2840"
       gradientUnits="userSpaceOnUse"
       gradientTransform="matrix(-1,0,0,1,920.3677,827.9691)"
       x1="-344.15295"
       y1="274.711"
       x2="-395.84943"
       y2="425.39993" />
    <linearGradient
       inkscape:collect="always"
       xlink:href="#linearGradient2555"
       id="linearGradient2844"
       gradientUnits="userSpaceOnUse"
       gradientTransform="matrix(-1,0,0,1,495.1238,418.0058)"
       x1="-344.15295"
       y1="274.711"
       x2="-395.84943"
       y2="425.39993" />
    <linearGradient
       inkscape:collect="always"
       xlink:href="#linearGradient2555"
       id="linearGradient2864"
       gradientUnits="userSpaceOnUse"
       gradientTransform="matrix(-1,0,0,1,-8.598892,-103.9259)"
       x1="-344.15295"
       y1="274.711"
       x2="-395.84943"
       y2="425.39993" />
    <linearGradient
       inkscape:collect="always"
       xlink:href="#linearGradient2555"
       id="linearGradient1386"
       gradientUnits="userSpaceOnUse"
       gradientTransform="matrix(-1,0,0,1,503.2346,699.8982)"
       x1="-344.15295"
       y1="274.711"
       x2="-395.84943"
       y2="425.39993" />
    <linearGradient
       inkscape:collect="always"
       xlink:href="#linearGradient2555"
       id="linearGradient1411"
       gradientUnits="userSpaceOnUse"
       gradientTransform="matrix(-1,0,0,1,503.2346,-104.3195)"
       x1="-344.15295"
       y1="274.711"
       x2="-395.84943"
       y2="425.39993" />
    <linearGradient
       inkscape:collect="always"
       xlink:href="#linearGradient2555"
       id="linearGradient1406"
       gradientUnits="userSpaceOnUse"
       gradientTransform="matrix(-1,0,0,1,243.957,-106.2592)"
       x1="-344.15295"
       y1="274.711"
       x2="-395.84943"
       y2="425.39993" />
    <linearGradient
       id="linearGradient5190"
       inkscape:collect="always">
      <stop
         id="stop5192"
         offset="0"
         style="stop-color:#ffffff;stop-opacity:1" />
      <stop
         id="stop5194"
         offset="1"
         style="stop-color:#ff0000;stop-opacity:1" />
    </linearGradient>
    <linearGradient
       id="linearGradient5197"
       inkscape:collect="always">
      <stop
         id="stop5199"
         offset="0"
         style="stop-color:#ffffff;stop-opacity:1" />
      <stop
         id="stop5201"
         offset="1"
         style="stop-color:#ff0000;stop-opacity:1" />
    </linearGradient>
    <inkscape:perspective
       id="perspective5292"
       inkscape:persp3d-origin="72.912201 : 48.212428 : 1"
       inkscape:vp_z="145.8244 : 72.318642 : 1"
       inkscape:vp_y="0 : 1000 : 0"
       inkscape:vp_x="0 : 72.318642 : 1"
       sodipodi:type="inkscape:persp3d" />
    <linearGradient
       inkscape:collect="always"
       xlink:href="#linearGradient2555"
       id="linearGradient5370"
       gradientUnits="userSpaceOnUse"
       gradientTransform="matrix(-0.657176,0,0,0.657176,183.1179,114.6286)"
       x1="-344.15295"
       y1="274.711"
       x2="-395.84943"
       y2="425.39993" />
    <linearGradient
       inkscape:collect="always"
       xlink:href="#linearGradient2555"
       id="linearGradient5373"
       gradientUnits="userSpaceOnUse"
       gradientTransform="matrix(-0.5914584,0,0,0.5914584,-667.15619,-305.84992)"
       x1="-344.15295"
       y1="274.711"
       x2="-395.84943"
       y2="425.39993" />
    <linearGradient
       inkscape:collect="always"
       xlink:href="#linearGradient2555"
       id="linearGradient5382"
       gradientUnits="userSpaceOnUse"
       gradientTransform="matrix(-0.5914584,0,0,0.5914584,-667.15619,-305.84992)"
       x1="-344.15295"
       y1="274.711"
       x2="-395.84943"
       y2="425.39993" />
    <linearGradient
       inkscape:collect="always"
       xlink:href="#linearGradient2555"
       id="linearGradient5385"
       gradientUnits="userSpaceOnUse"
       gradientTransform="matrix(-4.6568093,0,0,4.6568093,-2453.1352,-1570.8359)"
       x1="-344.15295"
       y1="274.711"
       x2="-395.84943"
       y2="425.39993" />
    <linearGradient
       inkscape:collect="always"
       xlink:href="#linearGradient2555"
       id="linearGradient6186"
       gradientUnits="userSpaceOnUse"
       gradientTransform="matrix(-4.6568093,0,0,4.6568093,-2453.1352,-1570.8359)"
       x1="-344.15295"
       y1="274.711"
       x2="-395.84943"
       y2="425.39993" />
    <linearGradient
       inkscape:collect="always"
       xlink:href="#linearGradient2555"
       id="linearGradient6189"
       gradientUnits="userSpaceOnUse"
       gradientTransform="matrix(-4.3980551,0,0,4.3980551,-1253.1807,-1347.3168)"
       x1="-344.15295"
       y1="274.711"
       x2="-395.84943"
       y2="425.39993" />
    <linearGradient
       inkscape:collect="always"
       xlink:href="#linearGradient6192"
       id="linearGradient6198"
       x1="-770.33716"
       y1="263.15576"
       x2="1375.6036"
       y2="2244.0227"
       gradientUnits="userSpaceOnUse" />
  </defs>
  <sodipodi:namedview
     inkscape:window-height="748"
     inkscape:window-width="1298"
     inkscape:pageshadow="2"
     inkscape:pageopacity="0.0"
     guidetolerance="10.0"
     gridtolerance="10.0"
     objecttolerance="10.0"
     borderopacity="1.0"
     bordercolor="#666666"
     pagecolor="#ffffff"
     id="base"
     inkscape:zoom="0.20899939"
     inkscape:cx="276.54001"
     inkscape:cy="490.1612"
     inkscape:window-x="60"
     inkscape:window-y="-8"
     inkscape:current-layer="svg2"
     showgrid="false"
     inkscape:window-maximized="0" />
  <metadata
     id="metadata7">
    <rdf:RDF>
      <cc:Work
         rdf:about="">
        <dc:format>image/svg+xml</dc:format>
        <dc:type
           rdf:resource="http://purl.org/dc/dcmitype/StillImage" />
        <dc:title />
      </cc:Work>
    </rdf:RDF>
  </metadata>
  <rect
     inkscape:export-ydpi="7.7063322"
     inkscape:export-xdpi="7.7063322"
     inkscape:export-filename="C:\Documents and Settings\Molumen\Desktop\path3511111.png"
     transform="scale(-1,1)"
     ry="152.45052"
     rx="139.15395"
     y="25.298929"
     x="-978.59723"
     height="949.40222"
     width="957.19452"
     id="rect1942"
     style="fill:url(#linearGradient6198);fill-opacity:1;fill-rule:evenodd;stroke:#ff0000;stroke-width:21.72100258000000000;stroke-linecap:square;stroke-linejoin:miter;stroke-miterlimit:4;stroke-dasharray:none;stroke-dashoffset:0;stroke-opacity:1" />
  <g
     style="enable-background:new"
     id="g3047"
     transform="matrix(2.1281474,-0.1996137,0.1996137,2.1281474,13.109872,92.579245)">
    <g
       transform="translate(-89.200613,-268.46389)"
       style="display:inline"
       id="layer2" />
    <g
       transform="translate(-89.200613,-268.46389)"
       style="display:inline"
       id="layer1"
       inkscape:label="Layer 1">
      <g
         transform="translate(10,10)"
         id="g5842">
        <g
           id="g5829">
          <path
             transform="matrix(0.831037,0,0,0.831037,53.201,81.9155)"
             sodipodi:nodetypes="cscsc"
             d="M 290.95361,680.34188 C 290.95361,680.34188 527.62149,540.34188 493.33578,406.05617 C 459.05007,271.77045 313.33578,303.19902 290.9536,374.6276 C 268.57143,303.19902 122.85714,271.77045 88.571434,406.05617 C 54.285724,540.34188 290.95361,680.34188 290.95361,680.34188 z"
             style="opacity:0.89639599;fill:#260b0b;fill-opacity:1;fill-rule:evenodd;stroke:none;stroke-width:1px;stroke-linecap:butt;stroke-linejoin:miter;stroke-opacity:1;display:inline;filter:url(#filter5812)"
             id="path5679" />
          <g
             transform="translate(4.04061,-30.3046)"
             id="g5730">
            <path
               sodipodi:nodetypes="cscsc"
               d="M 290.95361,682.36218 C 290.95361,682.36218 527.62149,542.36218 493.33578,408.07647 C 459.05007,273.79075 313.33578,305.21932 290.9536,376.6479 C 268.57143,305.21932 122.85714,273.79075 88.571425,408.07647 C 54.285715,542.36218 290.95361,682.36218 290.95361,682.36218 z"
               style="fill:#ff0000;fill-rule:evenodd;stroke:none;stroke-width:1px;stroke-linecap:butt;stroke-linejoin:miter;stroke-opacity:1"
               id="path5277" />
            <path
               style="fill:url(#radialGradient5758);fill-opacity:1;fill-rule:evenodd;stroke:none;stroke-width:1px;stroke-linecap:butt;stroke-linejoin:miter;stroke-opacity:1"
               d="M 194.21875,313.19844 C 150.70669,313.19844 105.70536,338.89933 88.5625,406.04219 C 80.054993,439.36326 88.240787,473.05618 105.34375,504.85469 C 132.46347,499.53219 164.82409,495.17923 198.71875,495.07344 C 230.80488,494.97329 264.22321,498.67165 295.71875,508.91719 C 361.73016,530.39077 429.92298,518.21351 477.4375,503.19844 C 477.4469,503.19547 477.45936,503.20141 477.46875,503.19844 C 493.96319,471.89253 501.7024,438.78024 493.34375,406.04219 C 459.05804,271.75646 313.35093,303.20736 290.96875,374.63594 C 279.77766,338.92166 237.73081,313.19844 194.21875,313.19844 z M 105.71875,505.57344 C 106.40556,506.83935 107.12927,508.09492 107.84375,509.35469 C 107.12846,508.09349 106.4063,506.8408 105.71875,505.57344 z M 194.71875,609.66719 C 197.2844,611.90159 199.82683,614.10977 202.375,616.26094 C 199.83274,614.11463 197.27838,611.89632 194.71875,609.66719 z M 279,672.88594 C 280.81888,674.05636 282.0671,674.82802 283.5,675.72969 C 282.13724,674.87084 280.697,673.978 279,672.88594 z"
               id="path4465" />
            <path
               style="opacity:0.77083303;fill:url(#linearGradient5760);fill-opacity:1;fill-rule:evenodd;stroke:none;stroke-width:1px;stroke-linecap:butt;stroke-linejoin:miter;stroke-opacity:1;filter:url(#filter5022)"
               d="M 194.21875,313.78125 C 150.70669,313.78125 105.70536,339.51339 88.5625,406.65625 C 57.074901,529.98269 253.65924,657.81124 286.03125,677.90625 C 295.39338,663.43533 311.46578,644.16383 308.5625,620.9375 C 304.27678,586.65179 262.84821,575.22321 228.5625,530.9375 C 194.27678,486.65179 175.70983,430.93303 201.42411,409.50446 C 227.1384,388.07588 265.70089,392.3616 282.84375,385.21875 C 293.69693,380.69659 304.55947,359.03343 311.0625,343.71875 C 301.71268,352.76006 294.66073,363.43649 290.96875,375.21875 C 279.77766,339.50446 237.73081,313.78125 194.21875,313.78125 z"
               id="path4472"
               clip-path="url(#clipPath5030)"
               sodipodi:nodetypes="cscssssccc" />
            <path
               style="fill:none;fill-rule:evenodd;stroke:#000000;stroke-width:1px;stroke-linecap:butt;stroke-linejoin:miter;stroke-opacity:1"
               d="M 330,380.93361 C 330.47619,380.93361 330.95238,380.93361 330,380.93361 z"
               id="path5034" />
            <path
               style="opacity:0.84583285;fill:url(#linearGradient5762);fill-opacity:1;fill-rule:evenodd;stroke:none;stroke-width:1px;stroke-linecap:butt;stroke-linejoin:miter;stroke-opacity:1;filter:url(#filter5244)"
               d="M 331.42857,378.07647 C 331.42857,378.07647 327.88644,435.37697 325.71429,476.6479 C 323.54214,517.91883 320.00001,552.36218 317.14286,582.36218 C 314.42052,610.94677 275.71429,632.36218 285.71429,650.93361 C 295.71429,669.50504 342.85715,643.79076 408.57143,578.07647 C 474.28572,512.36218 485.71429,428.07647 474.28572,392.36218 C 462.85715,356.6479 404.28572,328.07647 375.71429,338.07647 C 347.14286,348.07647 330,380.93361 331.42857,378.07647 z"
               id="path5038"
               sodipodi:nodetypes="czzssssc" />
            <path
               style="opacity:0.25416703;fill:url(#linearGradient5764);fill-opacity:1;fill-rule:evenodd;stroke:none;stroke-width:1px;stroke-linecap:butt;stroke-linejoin:miter;stroke-opacity:1"
               d="M 198.71875,497.09375 C 164.82409,497.19954 132.46347,501.5525 105.34375,506.875 C 157.16665,603.22622 290.96875,682.375 290.96875,682.375 C 290.96875,682.375 426.30592,602.32416 477.46875,505.21875 C 429.95302,520.23791 361.74321,532.41533 295.71875,510.9375 C 264.22321,500.69196 230.80488,496.9936 198.71875,497.09375 z"
               id="path5264" />
            <path
               style="opacity:0.75;fill:#f4d7d7;fill-opacity:1;fill-rule:nonzero;stroke:none;stroke-width:5.0999999;stroke-miterlimit:4;stroke-dasharray:none;stroke-dashoffset:0;stroke-opacity:1;filter:url(#filter5453)"
               d="M 388.38551,332.39054 C 371.93263,332.39054 356.54901,336.85609 343.40324,344.62098 C 396.9006,348.36945 439.16114,392.15219 439.16114,445.58004 C 439.16114,463.80256 434.24447,480.91008 425.64329,495.68622 C 455.26331,481.95774 475.7752,452.382 475.77521,418.13236 C 475.77521,370.8105 436.62622,332.39053 388.38551,332.39054 z"
               id="path5292" />
            <path
               id="path5457"
               d="M 388.38551,332.39054 C 371.93263,332.39054 356.54901,336.85609 343.40324,344.62098 C 396.9006,348.36945 439.16114,392.15219 439.16114,445.58004 C 439.16114,463.80256 434.24447,480.91008 425.64329,495.68622 C 455.26331,481.95774 475.7752,452.382 475.77521,418.13236 C 475.77521,370.8105 436.62622,332.39053 388.38551,332.39054 z"
               style="opacity:1;fill:url(#linearGradient5766);fill-opacity:1;fill-rule:nonzero;stroke:none;stroke-width:5.0999999;stroke-miterlimit:4;stroke-dasharray:none;stroke-dashoffset:0;stroke-opacity:1;filter:url(#filter5655)"
               transform="matrix(0.406141,0,0,0.406141,268.492,216.586)" />
            <path
               sodipodi:type="star"
               style="opacity:1;fill:#ffffff;fill-opacity:1;fill-rule:nonzero;stroke:none;stroke-width:5.0999999;stroke-miterlimit:4;stroke-dasharray:none;stroke-dashoffset:0;stroke-opacity:1;filter:url(#filter5667)"
               id="path5661"
               sodipodi:sides="15"
               sodipodi:cx="436.38589"
               sodipodi:cy="363.43814"
               sodipodi:r1="91.946075"
               sodipodi:r2="1.9157914"
               sodipodi:arg1="0.94926971"
               sodipodi:arg2="1.3714977"
               inkscape:flatsided="false"
               inkscape:rounded="0"
               inkscape:randomized="0"
               d="M 489.92398,438.18943 L 436.76519,365.31601 L 454.89128,453.50274 L 435.9686,365.30793 L 416.65883,453.24306 L 435.24416,364.97655 L 381.83738,437.4553 L 434.71714,364.37916 L 356.44785,408.8693 L 434.47867,363.61906 L 344.88034,372.42784 L 434.56997,362.82768 L 349.13497,334.43198 L 434.97526,362.14185 L 368.47608,301.45154 L 435.62446,361.68017 L 399.55941,279.18916 L 436.40532,361.52245 L 437.01038,271.49419 L 437.18283,361.69597 L 474.35337,279.69716 L 437.82253,362.17073 L 505.13143,302.37971 L 438.21383,362.86464 L 524.02277,335.61982 L 438.28906,363.65771 L 527.76089,373.66997 L 438.03522,364.41281 L 515.69945,409.95094 L 437.49619,364.99939 L 489.92398,438.18943 z"
               transform="matrix(0.655898,0,0,0.655898,151.149,120.696)" />
          </g>
        </g>
      </g>
    </g>
  </g>
  <g
     id="g4748"
     transform="matrix(1.675925,1.2302864,-1.2302864,1.675925,1128.7442,615.82572)">
    <path
       id="path4324"
       d="M -172.17427,298.0922 C -178.46293,293.07505 -193.9582,280.84677 -206.6082,270.91823 C -244.80715,240.93724 -260.62057,227.09765 -275.39854,210.71429 C -300.49895,182.88712 -307.41433,168.73342 -307.40133,145.21429 C -307.38747,120.14985 -298.44507,99.590884 -279.1082,80.167088 C -270.01295,71.030958 -267.33723,68.984993 -259.1082,64.874277 C -237.18569,53.923147 -215.46977,55.299816 -195.39341,68.913439 C -192.21154,71.071034 -189.05331,73.16823 -188.37512,73.573874 C -187.59532,74.04029 -185.20591,72.230441 -181.87512,68.650462 C -156.72406,41.617801 -121.98646,33.045342 -92.604736,46.620535 C -62.340426,60.603505 -42.842196,91.509333 -42.705136,125.71429 C -42.654896,138.25232 -44.301316,145.78771 -49.478366,156.71429 C -54.796286,167.93818 -63.813066,178.78373 -87.960326,203.0011 C -111.31969,226.42828 -123.12966,240.1308 -133.39295,255.71429 C -140.45192,266.43243 -150.54153,286.30677 -155.09586,298.46429 C -156.89867,303.27679 -158.90619,307.21429 -159.55702,307.21429 C -160.20784,307.21429 -165.88561,303.10935 -172.17427,298.0922 z"
       style="fill:url(#radialGradient4788);fill-opacity:1" />
    <g
       id="g4708">
      <g
         id="g4584"
         transform="translate(53.67653,-18.37914)">
        <path
           style="opacity:0.1;fill:#ffffff;fill-opacity:1"
           d="M -140.96875,130.125 C -143.47906,132.35093 -142.19928,137.51531 -143.34375,140.78125 C -146.39985,161.24918 -154.08388,180.62092 -162.125,199.65625 C -149.83351,189.14547 -134.69087,178.81704 -131.03125,162.0625 C -128.83645,151.8554 -128.66737,138.52442 -138.21875,131.9375 C -139.06819,131.41564 -139.86728,130.09613 -140.96875,130.125 z"
           id="path4586" />
        <path
           style="opacity:0.1;fill:#ffffff;fill-opacity:1"
           d="M -140.5625,129 C -145.14032,129.19748 -142.81655,136.11361 -144.25,139.0625 C -147.09296,161.21037 -156.23128,182.38763 -164.40625,202.5625 C -154.45668,195.07044 -144.60469,187.13602 -136.78125,177.375 C -129.01469,166.09557 -125.7591,150.32556 -131.65625,137.5625 C -133.91254,134.25445 -137.04254,130.7669 -140.5625,129 z"
           id="path4591" />
        <path
           style="opacity:0.1;fill:#ffffff;fill-opacity:1"
           d="M -141.0625,127.90625 C -146.32579,128.18453 -143.84221,135.61652 -145.34375,138.90625 C -148.1485,161.58511 -157.85887,182.59745 -165.84375,203.71875 C -161.35398,203.84245 -158.07068,198.29242 -154.375,196.125 C -143.28806,186.97473 -131.59874,176.636 -128.65625,161.8125 C -126.5508,150.96486 -126.7289,137.40782 -136.6875,130.28125 C -137.91968,129.46855 -139.35571,127.61654 -141.0625,127.90625 z"
           id="path4596" />
        <path
           style="opacity:0.1;fill:#ffffff;fill-opacity:1"
           d="M -141.25,126.8125 C -147.72314,127.30581 -144.92048,136.18063 -146.625,140.28125 C -149.75322,162.31329 -159.02881,182.80375 -166.96875,203.375 C -167.08475,206.61062 -162.04902,204.34642 -161.03125,203.03125 C -148.69626,192.43297 -133.62133,182.40977 -128.75,166.15625 C -125.80272,155.98865 -124.69875,143.35473 -131.1875,134.34375 C -133.95177,131.67982 -137.01474,126.76147 -141.25,126.8125 z"
           id="path4601" />
        <path
           style="opacity:0.1;fill:#ffffff;fill-opacity:1"
           d="M -141.4375,125.71875 C -144.29538,125.78284 -146.5098,127.88776 -146.4375,130.78125 C -148.35212,149.84973 -154.06882,168.29802 -161.26821,186.01607 C -163.25184,192.0559 -166.99015,197.61618 -168.09375,203.90625 C -167.80585,207.22941 -162.928,206.30293 -161.25,204.5 C -152.27463,197.4787 -143.39015,190.06787 -135.75798,181.58864 C -127.33134,170.95812 -123.66198,156.8681 -126.14332,143.34019 C -127.13218,135.82707 -132.87259,129.55817 -139.25,125.875 C -139.94954,125.66481 -140.7114,125.58158 -141.4375,125.71875 z"
           id="path4606" />
        <path
           style="opacity:0.1;fill:#ffffff;fill-opacity:1"
           d="M -141.59375,124.59375 C -144.64222,124.84102 -147.37947,126.83834 -147.43122,130.10522 C -148.96409,141.80509 -150.91854,153.54443 -154.78125,164.8125 C -158.69304,177.61955 -164.27364,189.7736 -168.97849,202.22647 C -170.18788,205.02023 -167.66683,207.72829 -164.8125,207.25 C -159.42592,206.03286 -155.69657,201.13463 -151.38122,197.9261 C -142.27978,190.01977 -132.40095,182.1244 -128.01719,170.52683 C -123.71373,160.32712 -122.94077,148.38793 -126.53125,137.84375 C -129.0654,132.32556 -133.70476,127.51922 -139.125,124.75 C -139.92532,124.53803 -140.7593,124.44863 -141.59375,124.59375 z"
           id="path4611" />
        <path
           style="opacity:0.1;fill:#ffffff;fill-opacity:1"
           d="M -141.71875,123.5 C -147.39776,123.51952 -149.06969,129.29788 -149.17556,133.95828 C -151.46169,157.89829 -161.49938,180.05439 -170.125,202.25 C -171.99227,207.75917 -164.2484,210.21632 -160.75,206.84375 C -150.35356,198.64695 -139.37814,190.35555 -131.59375,179.59375 C -123.22833,167.01891 -120.21259,149.8586 -126.375,135.59375 C -129.72015,130.54 -134.15618,124.70024 -140.40625,123.4375 C -140.84433,123.44678 -141.2854,123.40578 -141.71875,123.5 z"
           id="path4616" />
        <path
           style="opacity:0.1;fill:#ffffff;fill-opacity:1"
           d="M -141.28125,122.34375 C -147.01947,122.22375 -150.30393,127.5372 -150.125,132.8125 C -152.35279,157.06333 -162.43226,179.49483 -171.21875,201.96875 C -173.23814,207.95075 -165.33218,211.63183 -160.875,208.25 C -150.26321,200.31311 -139.71641,191.7875 -131.44474,181.37756 C -122.22118,168.20383 -118.8466,150.02343 -125.40625,135.03125 C -128.97902,129.75943 -134.32167,122.50441 -141.28125,122.34375 z"
           id="path4621" />
        <path
           style="opacity:0.1;fill:#ffffff;fill-opacity:1"
           d="M -141.96875,121.28125 C -147.94726,121.4942 -151.33024,127.1206 -151.21875,132.65625 C -153.44998,156.92364 -163.58135,179.33225 -172.3125,201.75 C -174.42739,208.12291 -166.50708,212.83587 -161.21875,209.65625 C -150.65289,202.74286 -141.3557,193.8718 -132.59375,184.78125 C -121.584,171.06203 -117.22591,151.00243 -124.40625,134.53125 C -128.13488,128.835 -133.31715,122.27826 -140.40625,121.21875 C -140.9274,121.23223 -141.4526,121.17882 -141.96875,121.28125 z"
           id="path4626" />
        <path
           style="opacity:0.1;fill:#ffffff;fill-opacity:1"
           d="M -141.53125,120.125 C -147.52264,120.21964 -152.09656,125.21997 -152.15625,131.125 C -154.26617,155.43469 -164.10685,178.19551 -173.15625,200.59375 C -175.98297,207.14355 -168.90019,213.65019 -162.5,211.34375 C -152.23191,206.41967 -144.56912,197.35367 -135.96875,190.03125 C -121.57105,176.20632 -115.43721,153.33441 -123.125,134.625 C -126.92728,128.37512 -133.47673,119.99638 -141.53125,120.125 z"
           id="path4631" />
      </g>
      <path
         style="fill:#ffffff;fill-opacity:0.93989066;stroke:#fffffe;stroke-width:5;stroke-linecap:round;stroke-linejoin:round;stroke-miterlimit:4;stroke-dasharray:none;stroke-opacity:0.37704917"
         d="M -89.63634,162.04206 C -84.079478,156.38879 -82.72234,154.70667 -81.080712,151.4377 C -78.441383,146.18204 -77.43862,141.47353 -77.696317,135.5462 C -77.930588,130.15796 -78.873388,127.55961 -81.742826,124.39407 C -84.221581,121.65949 -85.098691,121.2426 -86.851136,121.96608 C -88.44539,122.62424 -88.490257,122.76586 -89.213494,129.42384 C -90.188684,138.40118 -93.232333,149.5022 -98.80093,164.39168 C -99.95433,167.47575 -99.59275,168.74178 -97.555074,168.75357 C -96.50025,168.75966 -94.937217,167.43491 -89.63634,162.04206 z"
         id="path4322" />
    </g>
    <g
       style="opacity:1"
       transform="matrix(1.11205,0,0,1.157352,151.6263,-349.7926)"
       clip-path="url(#clipPath4689)"
       id="g4542">
      <path
         id="path4479"
         d="M -239.9286,328.87054 C -263.07266,328.52863 -284.06869,342.60922 -298.9911,359.43304 C -304.4279,364.03626 -312.35312,362.16827 -316.77627,357.19933 C -332.20518,345.71666 -353.63698,342.48157 -371.08485,351.27679 C -386.55747,358.51645 -398.28168,371.92065 -407.02419,386.31539 C -420.17725,409.67962 -421.49904,440.9419 -404.89735,462.96429 C -372.45053,507.28514 -325.76219,537.46922 -283.75301,571.81974 C -280.05812,576.50715 -279.85362,567.79573 -277.91068,565.41215 C -264.84122,534.7327 -244.57954,507.93948 -220.85902,484.57267 C -204.2397,467.09576 -184.57865,451.20552 -174.2411,428.87054 C -160.58353,392.73876 -181.07055,348.1948 -216.64735,333.58929 C -223.93627,330.56442 -231.93561,328.74846 -239.9286,328.87054 z M -248.0536,339.43304 C -213.96211,339.76835 -184.25833,368.53588 -179.7411,401.80804 C -176.5909,420.09802 -182.34804,439.31679 -195.00628,452.82626 C -216.40175,477.64856 -243.83768,497.23503 -260.98985,525.74979 C -268.04732,536.5258 -273.31323,548.44149 -278.27235,560.18304 C -283.21661,565.66397 -289.32525,559.25485 -293.37274,556.10935 C -330.04358,527.55518 -370.58817,502.21475 -398.9911,464.80804 C -416.58541,442.42009 -414.18192,409.17177 -398.16868,386.67558 C -386.24263,369.7977 -368.39636,355.50174 -347.14735,353.90179 C -332.45727,352.63741 -317.7897,358.46124 -306.33485,366.93304 C -301.49038,363.73871 -297.85232,358.27621 -292.72652,355.10877 C -279.98491,345.33326 -264.21111,339.22981 -248.0536,339.43304 z"
         style="opacity:0.1;fill:#2b0000;fill-opacity:1" />
      <path
         id="path4484"
         d="M -239.95985,327.74554 C -263.42576,327.49579 -284.46256,341.45862 -299.64735,358.52679 C -304.7212,362.8751 -312.01788,360.9262 -316.10866,356.30859 C -331.84185,344.58058 -353.79807,341.30477 -371.52235,350.24554 C -387.03119,357.48349 -398.56794,370.65671 -407.52235,384.87054 C -421.277,408.71157 -422.89516,440.96136 -405.8036,463.62054 C -373.71018,507.46581 -327.64003,537.5549 -285.99788,571.43992 C -283.53666,573.17683 -280.14907,578.01717 -279.58485,572.30804 C -266.8665,539.92109 -246.21252,511.17517 -221.47832,486.78167 C -204.54715,468.93207 -184.49561,452.75264 -173.58485,430.21429 C -157.50637,389.92307 -184.10541,339.07107 -226.52235,329.24554 C -230.89284,328.26001 -235.38331,327.65302 -239.95985,327.74554 z M -247.89735,340.55804 C -213.78501,340.96564 -184.22965,370.35278 -180.6161,403.77679 C -178.0223,421.25108 -183.89651,439.24617 -195.85003,452.13876 C -217.25803,476.84948 -244.74005,496.58307 -261.93134,525.15353 C -268.93227,535.93418 -274.31971,547.73956 -279.14735,559.49554 C -284.12637,564.46367 -289.45444,557.11076 -293.47597,554.62217 C -330.04519,526.22886 -370.52242,500.86389 -398.65525,463.36167 C -416.30226,440.21255 -412.40476,405.88255 -394.74896,383.89619 C -382.86956,368.44729 -365.56595,355.81475 -345.5536,354.93304 C -331.40011,354.1184 -317.66439,359.96379 -306.58485,368.08929 C -301.82758,366.53603 -299.38488,360.93489 -295.06389,358.35866 C -281.92018,347.39223 -265.23836,340.25898 -247.89735,340.55804 z"
         style="opacity:0.1;fill:#2b0000;fill-opacity:1" />
      <path
         id="path4489"
         d="M -239.9911,326.65179 C -263.72156,326.34139 -285.21015,340.59014 -300.3036,357.62054 C -305.06142,361.7599 -311.69943,359.64139 -315.42571,355.40857 C -331.47723,343.47685 -353.73832,340.13992 -371.95985,349.21429 C -387.62033,356.48273 -399.40254,369.89794 -408.4911,384.30804 C -422.43785,408.57869 -424.07738,441.19212 -406.70985,464.24554 C -373.86967,509.1668 -326.14943,539.8935 -283.56359,574.81582 C -281.37282,577.10585 -279.64787,578.05428 -279.11099,574.0706 C -266.64598,541.95925 -246.57806,513.35892 -222.29772,489.21247 C -204.76155,470.5668 -183.95239,454.08269 -172.6161,430.74554 C -158.41585,395.53866 -176.61033,351.61883 -209.89893,334.32678 C -219.13513,329.42766 -229.51885,326.50439 -239.9911,326.65179 z M -248.0536,341.65179 C -213.66073,342.03087 -184.20181,372.17519 -181.4911,405.87054 C -179.44805,422.85428 -185.77237,439.8487 -197.33485,452.18304 C -219.065,476.84955 -246.51073,496.82646 -263.4911,525.55804 C -270.18106,536.05311 -275.41017,547.36668 -280.02235,558.80804 C -284.63991,562.90288 -289.05061,555.63429 -292.7857,553.7436 C -329.54968,525.13257 -370.6476,499.56566 -398.53025,461.61167 C -415.69997,437.95878 -410.56713,403.38153 -391.83485,382.08929 C -379.38271,366.57998 -360.47416,354.69169 -339.93072,356.09187 C -327.9997,356.79559 -316.66386,362.01276 -307.2411,369.08929 C -302.06583,369.28688 -299.93972,362.7172 -295.79678,360.43567 C -282.70277,349.0125 -265.69647,341.39351 -248.0536,341.65179 z"
         style="opacity:0.1;fill:#2b0000;fill-opacity:1" />
      <path
         id="path4494"
         d="M -240.02235,325.52679 C -263.97036,325.2863 -285.67159,339.45133 -300.95985,356.71429 C -304.87139,360.18929 -310.80153,358.87734 -313.95985,355.12054 C -330.09179,342.74316 -352.70588,338.85777 -371.45985,347.74554 C -387.76949,355.01267 -400.06055,368.83851 -409.4286,383.74554 C -423.65942,408.30568 -425.20309,441.58257 -407.6161,464.87054 C -374.88121,509.78966 -326.98184,540.65418 -284.28733,575.66577 C -282.72512,576.18731 -279.57064,581.15836 -279.3661,577.74554 C -266.88843,544.2454 -246.16871,514.31864 -220.79184,489.27315 C -203.43848,470.8857 -182.74666,454.31104 -171.5536,431.12054 C -159.78932,402.06615 -170.01741,366.69884 -192.47271,345.53256 C -205.22588,333.44637 -222.27801,325.35242 -240.02235,325.52679 z M -248.0536,342.77679 C -211.85141,343.17343 -181.65981,376.86746 -182.33485,412.58929 C -181.73706,430.38988 -191.98338,445.90111 -204.04842,458.0391 C -225.9643,480.50846 -251.12517,500.95427 -266.70985,528.74554 C -272.39856,538.01642 -276.92343,548.283 -280.9911,558.24554 C -285.24456,560.95627 -288.61475,554.24803 -292.11988,552.8563 C -328.54962,524.53538 -369.11363,499.20944 -397.0536,461.77679 C -414.55539,438.55163 -409.62904,403.92586 -390.9911,382.83929 C -375.2122,361.4393 -344.45468,349.44106 -319.77235,362.68304 C -314.8262,364.28913 -311.37132,368.89614 -306.52235,370.30804 C -300.62213,369.19646 -298.05514,362.34726 -292.95985,359.49554 C -280.36112,349.24293 -264.54866,342.52556 -248.0536,342.77679 z"
         style="opacity:0.1;fill:#2b0000;fill-opacity:1" />
      <path
         id="path4499"
         d="M -240.0536,324.43304 C -263.89709,324.32077 -285.61659,337.73105 -300.89735,355.24554 C -304.00639,358.45017 -309.6356,358.50127 -312.43424,354.84798 C -327.25359,343.4334 -347.80308,338.03144 -365.86893,344.52994 C -380.64892,348.86315 -392.28046,359.45728 -401.8661,371.02679 C -419.05391,391.34521 -426.24569,420.60664 -418.39499,446.2989 C -411.64949,466.05475 -396.26552,480.97353 -382.37067,496.08472 C -350.98732,527.01393 -314.63123,552.26881 -280.5536,580.02679 C -278.47109,581.77011 -278.47953,578.32261 -277.93694,577.11437 C -266.3544,547.03478 -248.60307,519.39003 -225.96993,496.37437 C -207.84445,476.4031 -185.79317,459.1214 -172.39735,435.49554 C -161.33401,413.88627 -164.4596,386.99244 -175.56977,365.9491 C -187.82388,342.5255 -212.87918,324.20416 -240.0536,324.43304 z M -248.0536,343.87054 C -219.47523,344.27684 -193.84681,366.026 -186.23108,393.176 C -180.80272,410.66977 -182.98435,431.15523 -194.90204,445.5137 C -208.45833,463.33465 -226.39648,477.19394 -241.47997,493.60897 C -258.54878,511.50294 -272.18163,532.65305 -281.02235,555.65179 C -281.01468,558.14882 -283.949,558.5091 -285.33485,556.71429 C -315.86411,532.70546 -348.98379,511.20987 -376.64329,483.65342 C -389.39218,470.26147 -403.77083,455.92545 -406.18645,436.72571 C -409.32112,415.01073 -400.52001,392.65443 -384.7411,377.71429 C -371.34962,362.86819 -349.74062,354.23467 -330.01126,360.03183 C -322.15008,362.08794 -314.88705,366.11732 -308.5536,370.99554 C -303.36642,372.97884 -300.30842,367.27688 -296.96775,364.47926 C -283.80851,352.05873 -266.40315,343.62435 -248.0536,343.87054 z"
         style="opacity:0.1;fill:#2b0000;fill-opacity:1" />
      <path
         id="path4504"
         d="M -240.08485,323.30804 C -264.13777,323.20417 -286.22159,336.73475 -301.64735,354.43304 C -304.44108,357.28031 -309.21418,357.22916 -311.68554,354.03721 C -326.83362,342.34227 -347.74336,336.84388 -366.18298,343.46216 C -380.8645,347.77222 -392.72616,358.24299 -402.26009,369.79132 C -420.38114,390.86311 -427.8391,421.58058 -418.9286,448.21429 C -411.7161,467.5484 -396.49048,482.46521 -382.64735,497.37054 C -351.31302,528.12545 -315.10349,553.3391 -281.14735,580.96429 C -279.28989,582.7658 -277.0275,580.65045 -277.27235,578.49554 C -265.6616,547.90414 -247.72986,520.04769 -224.78445,496.71263 C -206.59167,476.91403 -184.87093,459.62448 -171.39735,436.02679 C -160.00361,413.70939 -163.40471,386.09577 -175.0536,364.49554 C -187.78939,341.09972 -212.79828,323.11489 -240.08485,323.30804 z M -248.0536,344.99554 C -221.38987,345.38508 -197.18632,364.74658 -188.61963,389.49985 C -181.83053,407.58966 -183.08819,429.56027 -195.77704,444.8262 C -209.64668,463.00993 -228.10293,477.18534 -243.46199,494.09097 C -260.42458,512.14183 -273.99309,533.7183 -282.6786,556.77679 C -286.17541,555.44842 -288.88837,552.10625 -292.12102,550.06577 C -320.61723,528.14405 -350.7719,508.01668 -376.24631,482.47094 C -388.85543,469.20561 -403.02349,455.00333 -405.13481,436.01876 C -408.00579,414.81593 -399.39344,393.14926 -384.05748,378.60606 C -371.1724,364.30381 -350.74628,355.81566 -331.63499,360.7458 C -323.25996,362.72136 -315.6005,367.00274 -308.95985,372.02679 C -304.46261,373.98389 -300.52614,370.05352 -297.90107,366.89389 C -284.68478,353.83328 -266.98458,344.71861 -248.0536,344.99554 z"
         style="opacity:0.1;fill:#2b0000;fill-opacity:1" />
      <path
         id="path4509"
         d="M -240.08485,322.21429 C -264.77318,322.01793 -287.12242,336.14015 -302.9911,354.08929 C -308.11102,358.33071 -312.07413,351.46987 -316.2411,349.52679 C -333.08014,338.42102 -355.51776,336.11907 -373.8036,345.18304 C -390.34503,352.78453 -402.80538,366.94026 -412.33485,382.12054 C -426.8862,407.2512 -428.65444,441.25883 -411.3036,465.46429 C -378.00736,511.87336 -328.97135,543.22202 -285.33485,579.12054 C -283.22846,581.4995 -277.8562,585.11294 -276.45985,580.15179 C -264.93606,547.19062 -244.48934,517.84716 -219.97988,493.21012 C -201.85333,473.93973 -180.06727,456.58602 -168.45985,432.40179 C -155.68825,400.83658 -167.64208,362.15392 -193.08842,340.49442 C -206.05165,329.29692 -222.77208,321.99707 -240.08485,322.21429 z M -248.0536,346.08929 C -210.86526,346.5389 -180.72535,384.0607 -186.27235,420.43304 C -189.17738,441.221 -206.34369,455.52295 -220.25955,469.46835 C -242.89429,490.32267 -264.45074,513.44024 -277.45828,541.73927 C -279.73641,545.92263 -281.59925,551.68177 -283.5536,555.27679 C -321.61968,525.02127 -364.7584,499.18255 -394.3036,459.90179 C -411.82532,436.66259 -405.50404,401.85651 -385.8036,382.05804 C -372.47462,365.77687 -349.46123,355.7094 -328.9286,362.65179 C -321.48686,364.52673 -315.1422,369.34256 -308.70985,373.27679 C -300.84548,375.36901 -297.07195,366.1316 -291.49839,362.6123 C -279.31248,352.48313 -264.0068,345.87009 -248.0536,346.08929 z"
         style="opacity:0.1;fill:#2b0000;fill-opacity:1" />
      <path
         id="path4514"
         d="M -240.08485,321.08929 C -265.12275,320.85524 -287.8587,335.34287 -304.02235,353.46429 C -308.68476,356.5595 -311.67943,350.00971 -315.64735,348.58929 C -332.80547,337.2608 -355.69532,334.94917 -374.27235,344.18304 C -391.00339,351.84667 -403.68849,366.21277 -413.3036,381.58929 C -428.07612,407.10307 -429.82026,441.52734 -412.20985,466.08929 C -378.8487,512.68156 -329.72465,544.00906 -285.9911,580.02679 C -283.52577,582.72126 -277.79585,586.27914 -275.64735,581.18304 C -264.07172,547.66734 -243.15633,517.85941 -218.29772,493.08747 C -200.35988,474.06699 -178.89584,456.85419 -167.4286,432.80804 C -154.34094,400.48309 -166.78411,360.91553 -193.14735,338.96429 C -206.15972,328.02946 -222.87886,320.8836 -240.08485,321.08929 z M -248.0536,347.21429 C -214.7418,347.57257 -186.54962,378.78897 -186.77235,411.65179 C -185.87402,428.23194 -195.42747,442.97966 -206.64735,454.30804 C -228.94239,477.26575 -254.56127,498.02684 -270.5536,526.46429 C -275.66151,535.17172 -280.17428,544.23411 -283.89735,553.58929 C -321.33587,524.02379 -363.33099,498.49977 -392.64735,460.33929 C -408.93065,439.65594 -405.72665,408.8455 -390.0536,388.71429 C -379.02866,374.13592 -362.76645,361.8273 -343.83485,361.52679 C -331.35057,361.22936 -319.45563,366.81885 -309.70985,374.12054 C -301.70203,377.28909 -296.82901,368.04093 -291.58485,364.15179 C -279.51561,353.8105 -264.06592,346.96941 -248.0536,347.21429 z"
         style="opacity:0.1;fill:#2b0000;fill-opacity:1" />
      <path
         id="path4519"
         d="M -239.20985,319.96429 C -264.81279,319.45585 -288.15993,334.01377 -304.77235,352.62054 C -308.9725,354.86273 -311.34618,348.66725 -315.08485,347.62054 C -332.25525,336.36356 -355.00565,333.85151 -373.7411,342.68304 C -391.17949,350.42148 -404.43751,365.18656 -414.27235,381.05804 C -429.24343,406.91808 -430.98315,441.81627 -413.1161,466.71429 C -382.07265,510.24776 -336.92517,540.50084 -295.73719,573.61329 C -290.13137,576.95024 -286.00511,583.49963 -279.52235,584.96429 C -273.29738,584.76113 -274.14437,576.85337 -271.45985,572.99554 C -258.98922,542.00081 -238.86781,514.83756 -215.18457,491.47378 C -197.69353,473.22331 -177.37769,456.4132 -166.39735,433.21429 C -152.65312,399.10931 -166.66266,357.34116 -195.58485,335.62054 C -208.04174,326.06023 -223.43788,320.04746 -239.20985,319.96429 z M -248.08485,348.30804 C -214.57605,348.7891 -186.7931,380.48591 -187.8661,413.40179 C -187.50764,431.26394 -199.43646,445.68035 -211.39735,457.71429 C -234.10886,479.83186 -258.6362,501.43937 -273.77235,529.83929 C -277.81462,536.79476 -281.24817,544.75327 -284.52235,551.71429 C -321.7615,522.28379 -363.42078,497.10548 -392.31778,458.86607 C -409.84105,435.81975 -402.95827,401.19147 -382.70985,382.08929 C -365.63421,360.16746 -331.39246,356.19755 -310.64735,374.93304 C -303.61659,378.39095 -297.66478,371.92744 -293.39735,367.21429 C -281.02681,355.81601 -265.11895,348.11948 -248.08485,348.30804 z"
         style="opacity:0.1;fill:#2b0000;fill-opacity:1" />
      <path
         id="path4524"
         d="M -240.08485,318.87054 C -265.58739,318.64413 -288.81829,333.15735 -305.4286,351.71429 C -308.72589,353.20725 -310.68097,347.89425 -313.80042,347.14134 C -331.3616,335.31545 -354.82997,332.5287 -374.20985,341.68304 C -392.10686,349.62356 -405.83474,364.9389 -415.7475,381.4067 C -430.45916,407.52349 -431.94555,442.3816 -414.02235,467.37054 C -382.6716,511.27971 -337.17751,541.67579 -295.64214,575.11087 C -289.93884,578.33733 -285.80878,585.56495 -278.89735,586.08929 C -271.87029,584.91335 -272.7813,575.95246 -269.4911,571.15179 C -256.87351,540.80643 -237.01599,514.50115 -213.70318,491.54103 C -196.3005,473.49238 -176.25065,456.72686 -165.3661,433.62054 C -151.29978,398.76896 -165.85758,356.01854 -195.69351,334.14046 C -208.41317,324.63885 -224.09258,318.68673 -240.08485,318.87054 z M -248.0536,349.43304 C -213.43761,349.89786 -185.23855,384.43109 -189.33485,418.30804 C -191.39074,438.60483 -208.32987,452.79261 -221.84735,466.40429 C -244.18928,486.98577 -265.6746,509.59643 -278.9911,537.30804 C -281.1142,541.4941 -283.07752,545.75553 -284.8661,550.08929 C -321.40338,521.34718 -362.37526,496.08885 -390.8661,459.05804 C -405.70054,440.2589 -403.69872,412.41476 -390.52235,393.21429 C -379.28436,376.77663 -361.0981,362.39083 -340.33728,363.87764 C -329.35119,364.38247 -319.31195,369.84243 -310.6161,376.15179 C -302.87233,379.54944 -296.61203,372.35691 -291.90211,367.36 C -279.93585,356.55713 -264.36385,349.15781 -248.0536,349.43304 z"
         style="opacity:0.1;fill:#2b0000;fill-opacity:1" />
    </g>
    <g
       transform="matrix(0.220987,-0.573668,0.464976,0.21828,-256.3824,8.55271)"
       id="g4722">
      <g
         transform="translate(53.67653,-18.37914)"
         id="g4724">
        <path
           id="path4726"
           d="M -140.96875,130.125 C -143.47906,132.35093 -142.19928,137.51531 -143.34375,140.78125 C -146.39985,161.24918 -154.08388,180.62092 -162.125,199.65625 C -149.83351,189.14547 -134.69087,178.81704 -131.03125,162.0625 C -128.83645,151.8554 -128.66737,138.52442 -138.21875,131.9375 C -139.06819,131.41564 -139.86728,130.09613 -140.96875,130.125 z"
           style="opacity:0.1;fill:#ffffff;fill-opacity:1" />
        <path
           id="path4728"
           d="M -140.5625,129 C -145.14032,129.19748 -142.81655,136.11361 -144.25,139.0625 C -147.09296,161.21037 -156.23128,182.38763 -164.40625,202.5625 C -154.45668,195.07044 -144.60469,187.13602 -136.78125,177.375 C -129.01469,166.09557 -125.7591,150.32556 -131.65625,137.5625 C -133.91254,134.25445 -137.04254,130.7669 -140.5625,129 z"
           style="opacity:0.1;fill:#ffffff;fill-opacity:1" />
        <path
           id="path4730"
           d="M -141.0625,127.90625 C -146.32579,128.18453 -143.84221,135.61652 -145.34375,138.90625 C -148.1485,161.58511 -157.85887,182.59745 -165.84375,203.71875 C -161.35398,203.84245 -158.07068,198.29242 -154.375,196.125 C -143.28806,186.97473 -131.59874,176.636 -128.65625,161.8125 C -126.5508,150.96486 -126.7289,137.40782 -136.6875,130.28125 C -137.91968,129.46855 -139.35571,127.61654 -141.0625,127.90625 z"
           style="opacity:0.1;fill:#ffffff;fill-opacity:1" />
        <path
           id="path4732"
           d="M -141.25,126.8125 C -147.72314,127.30581 -144.92048,136.18063 -146.625,140.28125 C -149.75322,162.31329 -159.02881,182.80375 -166.96875,203.375 C -167.08475,206.61062 -162.04902,204.34642 -161.03125,203.03125 C -148.69626,192.43297 -133.62133,182.40977 -128.75,166.15625 C -125.80272,155.98865 -124.69875,143.35473 -131.1875,134.34375 C -133.95177,131.67982 -137.01474,126.76147 -141.25,126.8125 z"
           style="opacity:0.1;fill:#ffffff;fill-opacity:1" />
        <path
           id="path4734"
           d="M -141.4375,125.71875 C -144.29538,125.78284 -146.5098,127.88776 -146.4375,130.78125 C -148.35212,149.84973 -154.06882,168.29802 -161.26821,186.01607 C -163.25184,192.0559 -166.99015,197.61618 -168.09375,203.90625 C -167.80585,207.22941 -162.928,206.30293 -161.25,204.5 C -152.27463,197.4787 -143.39015,190.06787 -135.75798,181.58864 C -127.33134,170.95812 -123.66198,156.8681 -126.14332,143.34019 C -127.13218,135.82707 -132.87259,129.55817 -139.25,125.875 C -139.94954,125.66481 -140.7114,125.58158 -141.4375,125.71875 z"
           style="opacity:0.1;fill:#ffffff;fill-opacity:1" />
        <path
           id="path4736"
           d="M -141.59375,124.59375 C -144.64222,124.84102 -147.37947,126.83834 -147.43122,130.10522 C -148.96409,141.80509 -150.91854,153.54443 -154.78125,164.8125 C -158.69304,177.61955 -164.27364,189.7736 -168.97849,202.22647 C -170.18788,205.02023 -167.66683,207.72829 -164.8125,207.25 C -159.42592,206.03286 -155.69657,201.13463 -151.38122,197.9261 C -142.27978,190.01977 -132.40095,182.1244 -128.01719,170.52683 C -123.71373,160.32712 -122.94077,148.38793 -126.53125,137.84375 C -129.0654,132.32556 -133.70476,127.51922 -139.125,124.75 C -139.92532,124.53803 -140.7593,124.44863 -141.59375,124.59375 z"
           style="opacity:0.1;fill:#ffffff;fill-opacity:1" />
        <path
           id="path4738"
           d="M -141.71875,123.5 C -147.39776,123.51952 -149.06969,129.29788 -149.17556,133.95828 C -151.46169,157.89829 -161.49938,180.05439 -170.125,202.25 C -171.99227,207.75917 -164.2484,210.21632 -160.75,206.84375 C -150.35356,198.64695 -139.37814,190.35555 -131.59375,179.59375 C -123.22833,167.01891 -120.21259,149.8586 -126.375,135.59375 C -129.72015,130.54 -134.15618,124.70024 -140.40625,123.4375 C -140.84433,123.44678 -141.2854,123.40578 -141.71875,123.5 z"
           style="opacity:0.1;fill:#ffffff;fill-opacity:1" />
        <path
           id="path4740"
           d="M -141.28125,122.34375 C -147.01947,122.22375 -150.30393,127.5372 -150.125,132.8125 C -152.35279,157.06333 -162.43226,179.49483 -171.21875,201.96875 C -173.23814,207.95075 -165.33218,211.63183 -160.875,208.25 C -150.26321,200.31311 -139.71641,191.7875 -131.44474,181.37756 C -122.22118,168.20383 -118.8466,150.02343 -125.40625,135.03125 C -128.97902,129.75943 -134.32167,122.50441 -141.28125,122.34375 z"
           style="opacity:0.1;fill:#ffffff;fill-opacity:1" />
        <path
           id="path4742"
           d="M -141.96875,121.28125 C -147.94726,121.4942 -151.33024,127.1206 -151.21875,132.65625 C -153.44998,156.92364 -163.58135,179.33225 -172.3125,201.75 C -174.42739,208.12291 -166.50708,212.83587 -161.21875,209.65625 C -150.65289,202.74286 -141.3557,193.8718 -132.59375,184.78125 C -121.584,171.06203 -117.22591,151.00243 -124.40625,134.53125 C -128.13488,128.835 -133.31715,122.27826 -140.40625,121.21875 C -140.9274,121.23223 -141.4526,121.17882 -141.96875,121.28125 z"
           style="opacity:0.1;fill:#ffffff;fill-opacity:1" />
        <path
           id="path4744"
           d="M -141.53125,120.125 C -147.52264,120.21964 -152.09656,125.21997 -152.15625,131.125 C -154.26617,155.43469 -164.10685,178.19551 -173.15625,200.59375 C -175.98297,207.14355 -168.90019,213.65019 -162.5,211.34375 C -152.23191,206.41967 -144.56912,197.35367 -135.96875,190.03125 C -121.57105,176.20632 -115.43721,153.33441 -123.125,134.625 C -126.92728,128.37512 -133.47673,119.99638 -141.53125,120.125 z"
           style="opacity:0.1;fill:#ffffff;fill-opacity:1" />
      </g>
      <path
         id="path4746"
         d="M -89.63634,162.04206 C -84.079478,156.38879 -82.72234,154.70667 -81.080712,151.4377 C -78.441383,146.18204 -77.43862,141.47353 -77.696317,135.5462 C -77.930588,130.15796 -78.873388,127.55961 -81.742826,124.39407 C -84.221581,121.65949 -85.098691,121.2426 -86.851136,121.96608 C -88.44539,122.62424 -88.490257,122.76586 -89.213494,129.42384 C -90.188684,138.40118 -93.232333,149.5022 -98.80093,164.39168 C -99.95433,167.47575 -99.59275,168.74178 -97.555074,168.75357 C -96.50025,168.75966 -94.937217,167.43491 -89.63634,162.04206 z"
         style="fill:#ffffff;fill-opacity:0.93989066;stroke:#fffffe;stroke-width:5;stroke-linecap:round;stroke-linejoin:round;stroke-miterlimit:4;stroke-dasharray:none;stroke-opacity:0.37704917" />
    </g>
  </g>
</svg>
