<?xml version="1.0" encoding="UTF-8" standalone="no"?>
<svg
   xmlns:dc="http://purl.org/dc/elements/1.1/"
   xmlns:cc="http://creativecommons.org/ns#"
   xmlns:rdf="http://www.w3.org/1999/02/22-rdf-syntax-ns#"
   xmlns:svg="http://www.w3.org/2000/svg"
   xmlns="http://www.w3.org/2000/svg"
   xmlns:xlink="http://www.w3.org/1999/xlink"
   xmlns:sodipodi="http://sodipodi.sourceforge.net/DTD/sodipodi-0.dtd"
   xmlns:inkscape="http://www.inkscape.org/namespaces/inkscape"
   id="svg12360"
   viewBox="0 0 48 48"
   version="1.1"
   inkscape:version="0.48.4 r9939"
   width="100%"
   height="100%"
   sodipodi:docname="paste.svg"
   inkscape:export-filename="C:\data\ws\joffice_migration_1\com.joffice.client.resources\src\com\joffice\ui\resources\images\tools\paste_24.png"
   inkscape:export-xdpi="45"
   inkscape:export-ydpi="45">
  <sodipodi:namedview
     pagecolor="#ffffff"
     bordercolor="#666666"
     borderopacity="1"
     objecttolerance="10"
     gridtolerance="10"
     guidetolerance="10"
     inkscape:pageopacity="0"
     inkscape:pageshadow="2"
     inkscape:window-width="1292"
     inkscape:window-height="746"
     id="namedview68"
     showgrid="false"
     inkscape:zoom="4.9166667"
     inkscape:cx="-0.30508475"
     inkscape:cy="24"
     inkscape:window-x="66"
     inkscape:window-y="-8"
     inkscape:window-maximized="1"
     inkscape:current-layer="svg12360" />
  <defs
     id="defs12362">
    <radialGradient
       id="radialGradient5031"
       xlink:href="#linearGradient5060"
       gradientUnits="userSpaceOnUse"
       cy="486.65"
       cx="605.71"
       gradientTransform="matrix(-2.7744,0,0,1.9697,112.76,-872.89)"
       r="117.14" />
    <linearGradient
       id="linearGradient5060">
      <stop
         id="stop5062"
         offset="0" />
      <stop
         id="stop5064"
         stop-opacity="0"
         offset="1" />
    </linearGradient>
    <radialGradient
       id="radialGradient5029"
       xlink:href="#linearGradient5060"
       gradientUnits="userSpaceOnUse"
       cy="486.65"
       cx="605.71"
       gradientTransform="matrix(2.7744,0,0,1.9697,-1891.6,-872.89)"
       r="117.14" />
    <linearGradient
       id="linearGradient5027"
       x1="302.86"
       gradientUnits="userSpaceOnUse"
       y1="366.65"
       gradientTransform="matrix(2.7744,0,0,1.9697,-1892.2,-872.89)"
       x2="302.86"
       y2="609.51">
      <stop
         id="stop5050"
         stop-opacity="0"
         offset="0" />
      <stop
         id="stop5056"
         offset=".5" />
      <stop
         id="stop5052"
         stop-opacity="0"
         offset="1" />
    </linearGradient>
    <linearGradient
       id="linearGradient15234">
      <stop
         id="stop15236"
         stop-color="#97978a"
         offset="0" />
      <stop
         id="stop15242"
         stop-color="#c2c2b9"
         offset=".5" />
      <stop
         id="stop15238"
         stop-color="#7d7d6f"
         offset="1" />
    </linearGradient>
    <linearGradient
       id="linearGradient14490"
       y2="37.88"
       gradientUnits="userSpaceOnUse"
       y1="10.451"
       x2="33.857"
       x1="6.1072">
      <stop
         id="stop14486"
         stop-color="#c68827"
         offset="0" />
      <stop
         id="stop14488"
         stop-color="#89601f"
         offset="1" />
    </linearGradient>
    <linearGradient
       id="linearGradient15224"
       x1="22.308"
       gradientUnits="userSpaceOnUse"
       y1="18.992"
       gradientTransform="matrix(1.0657,0,0,0.9876,-1.5644,0.074873)"
       x2="35.785"
       y2="39.498">
      <stop
         id="stop15220"
         stop-color="#f0f0ef"
         offset="0" />
      <stop
         id="stop2269"
         stop-color="#e8e8e8"
         offset=".59929" />
      <stop
         id="stop2267"
         stop-color="#fff"
         offset=".82759" />
      <stop
         id="stop15222"
         stop-color="#d8d8d3"
         offset="1" />
    </linearGradient>
    <linearGradient
       id="linearGradient15240"
       x1="25.405"
       xlink:href="#linearGradient15234"
       gradientUnits="userSpaceOnUse"
       y1="3.818"
       gradientTransform="matrix(1.0526,0,0,1,-1.7895,0)"
       x2="25.464"
       y2="9.3234" />
    <linearGradient
       id="linearGradient2222"
       y2="42.062"
       gradientUnits="userSpaceOnUse"
       y1="39.156"
       x2="39.062"
       x1="36.812">
      <stop
         id="stop2218"
         offset="0" />
      <stop
         id="stop2220"
         stop-opacity="0"
         offset="1" />
    </linearGradient>
    <linearGradient
       id="linearGradient2230"
       y2="37.771"
       gradientUnits="userSpaceOnUse"
       y1="40.458"
       x2="33.665"
       x1="35.997">
      <stop
         id="stop2226"
         stop-color="#7c7c7c"
         offset="0" />
      <stop
         id="stop2228"
         stop-color="#b8b8b8"
         offset="1" />
    </linearGradient>
    <linearGradient
       id="linearGradient2245"
       y2="-.20294"
       gradientUnits="userSpaceOnUse"
       y1="12.172"
       x2="25.692"
       x1="25.683">
      <stop
         id="stop2241"
         stop-color="#fff"
         offset="0" />
      <stop
         id="stop2243"
         stop-color="#fff"
         stop-opacity="0"
         offset="1" />
    </linearGradient>
    <linearGradient
       id="linearGradient2257"
       y2="38.07"
       gradientUnits="userSpaceOnUse"
       y1="36.921"
       x2="34.17"
       x1="33.396">
      <stop
         id="stop2253"
         stop-color="#fff"
         offset="0" />
      <stop
         id="stop2255"
         stop-color="#fff"
         stop-opacity="0"
         offset="1" />
    </linearGradient>
    <linearGradient
       id="linearGradient2265"
       y2="42.007"
       gradientUnits="userSpaceOnUse"
       y1="26.697"
       x2="30.811"
       x1="26.076">
      <stop
         id="stop2261"
         stop-color="#fff"
         offset="0" />
      <stop
         id="stop2263"
         stop-color="#fff"
         stop-opacity="0"
         offset="1" />
    </linearGradient>
    <linearGradient
       id="linearGradient2283"
       x1="25.405"
       xlink:href="#linearGradient15234"
       gradientUnits="userSpaceOnUse"
       y1="3.818"
       gradientTransform="matrix(0.53874,0,0,0.51181,10.801,-0.58264)"
       x2="25.405"
       y2="6.4811" />
    <linearGradient
       id="linearGradient2287"
       x1="25.405"
       xlink:href="#linearGradient15234"
       gradientUnits="userSpaceOnUse"
       y1="3.818"
       gradientTransform="matrix(1.0052,0,0,0.88393,-0.62792,0.84375)"
       x2="25.464"
       y2="9.3234" />
    <linearGradient
       inkscape:collect="always"
       xlink:href="#linearGradient2257"
       id="linearGradient3051"
       gradientUnits="userSpaceOnUse"
       x1="33.396"
       y1="36.921"
       x2="34.17"
       y2="38.07" />
    <linearGradient
       inkscape:collect="always"
       xlink:href="#linearGradient2245"
       id="linearGradient3054"
       gradientUnits="userSpaceOnUse"
       x1="25.683"
       y1="12.172"
       x2="25.692"
       y2="-.20294" />
    <linearGradient
       inkscape:collect="always"
       xlink:href="#linearGradient2230"
       id="linearGradient3057"
       gradientUnits="userSpaceOnUse"
       x1="35.997"
       y1="40.458"
       x2="33.665"
       y2="37.771" />
    <linearGradient
       inkscape:collect="always"
       xlink:href="#linearGradient2222"
       id="linearGradient3060"
       gradientUnits="userSpaceOnUse"
       x1="36.812"
       y1="39.156"
       x2="39.062"
       y2="42.062" />
    <linearGradient
       inkscape:collect="always"
       xlink:href="#linearGradient15234"
       id="linearGradient3063"
       gradientUnits="userSpaceOnUse"
       gradientTransform="matrix(1.0052,0,0,0.88393,-0.62792,0.84375)"
       x1="25.405"
       y1="3.818"
       x2="25.464"
       y2="9.3234" />
    <linearGradient
       inkscape:collect="always"
       xlink:href="#linearGradient15234"
       id="linearGradient3066"
       gradientUnits="userSpaceOnUse"
       gradientTransform="matrix(0.53874,0,0,0.51181,10.801,-0.58264)"
       x1="25.405"
       y1="3.818"
       x2="25.405"
       y2="6.4811" />
    <linearGradient
       inkscape:collect="always"
       xlink:href="#linearGradient15234"
       id="linearGradient3069"
       gradientUnits="userSpaceOnUse"
       gradientTransform="matrix(1.0526,0,0,1,-1.7895,0)"
       x1="25.405"
       y1="3.818"
       x2="25.464"
       y2="9.3234" />
    <linearGradient
       inkscape:collect="always"
       xlink:href="#linearGradient2265"
       id="linearGradient3074"
       gradientUnits="userSpaceOnUse"
       x1="26.076"
       y1="26.697"
       x2="30.811"
       y2="42.007" />
    <linearGradient
       inkscape:collect="always"
       xlink:href="#linearGradient15224"
       id="linearGradient3078"
       gradientUnits="userSpaceOnUse"
       gradientTransform="matrix(1.0657,0,0,0.9876,-1.5644,0.074873)"
       x1="22.308"
       y1="18.992"
       x2="35.785"
       y2="39.498" />
    <linearGradient
       inkscape:collect="always"
       xlink:href="#linearGradient14490"
       id="linearGradient3081"
       gradientUnits="userSpaceOnUse"
       x1="6.1072"
       y1="10.451"
       x2="33.857"
       y2="37.88" />
    <linearGradient
       inkscape:collect="always"
       xlink:href="#linearGradient14490"
       id="linearGradient3107"
       gradientUnits="userSpaceOnUse"
       x1="6.1072"
       y1="10.451"
       x2="33.857"
       y2="37.88" />
    <linearGradient
       inkscape:collect="always"
       xlink:href="#linearGradient15224"
       id="linearGradient3109"
       gradientUnits="userSpaceOnUse"
       gradientTransform="matrix(1.0657,0,0,0.9876,-1.5644,0.074873)"
       x1="22.308"
       y1="18.992"
       x2="35.785"
       y2="39.498" />
    <linearGradient
       inkscape:collect="always"
       xlink:href="#linearGradient2265"
       id="linearGradient3111"
       gradientUnits="userSpaceOnUse"
       x1="26.076"
       y1="26.697"
       x2="30.811"
       y2="42.007" />
    <linearGradient
       inkscape:collect="always"
       xlink:href="#linearGradient15234"
       id="linearGradient3113"
       gradientUnits="userSpaceOnUse"
       gradientTransform="matrix(1.0526,0,0,1,-1.7895,0)"
       x1="25.405"
       y1="3.818"
       x2="25.464"
       y2="9.3234" />
    <linearGradient
       inkscape:collect="always"
       xlink:href="#linearGradient15234"
       id="linearGradient3115"
       gradientUnits="userSpaceOnUse"
       gradientTransform="matrix(0.53874,0,0,0.51181,10.801,-0.58264)"
       x1="25.405"
       y1="3.818"
       x2="25.405"
       y2="6.4811" />
    <linearGradient
       inkscape:collect="always"
       xlink:href="#linearGradient15234"
       id="linearGradient3117"
       gradientUnits="userSpaceOnUse"
       gradientTransform="matrix(1.0052,0,0,0.88393,-0.62792,0.84375)"
       x1="25.405"
       y1="3.818"
       x2="25.464"
       y2="9.3234" />
    <linearGradient
       inkscape:collect="always"
       xlink:href="#linearGradient2222"
       id="linearGradient3119"
       gradientUnits="userSpaceOnUse"
       x1="36.812"
       y1="39.156"
       x2="39.062"
       y2="42.062" />
    <linearGradient
       inkscape:collect="always"
       xlink:href="#linearGradient2230"
       id="linearGradient3121"
       gradientUnits="userSpaceOnUse"
       x1="35.997"
       y1="40.458"
       x2="33.665"
       y2="37.771" />
    <linearGradient
       inkscape:collect="always"
       xlink:href="#linearGradient2245"
       id="linearGradient3123"
       gradientUnits="userSpaceOnUse"
       x1="25.683"
       y1="12.172"
       x2="25.692"
       y2="-.20294" />
    <linearGradient
       inkscape:collect="always"
       xlink:href="#linearGradient2257"
       id="linearGradient3125"
       gradientUnits="userSpaceOnUse"
       x1="33.396"
       y1="36.921"
       x2="34.17"
       y2="38.07" />
  </defs>
  <g
     id="g3087"
     transform="matrix(1.0353376,0,0,1.0353376,-0.82977615,0.1639416)">
    <rect
       id="rect12368"
       rx="1.3879"
       ry="1.3879"
       height="41.044998"
       width="39.035999"
       y="4.5"
       x="4.4643002"
       style="fill:url(#linearGradient3107);fill-rule:evenodd;stroke:#714c16" />
    <rect
       id="rect12413"
       rx="0.56651002"
       ry="0.56651002"
       height="35.977001"
       width="30.952"
       y="6.5295"
       x="8.5323"
       style="fill:url(#linearGradient3109);fill-rule:evenodd;stroke:#888a85" />
    <rect
       id="rect13756"
       rx="0.98387998"
       ry="0.98387998"
       height="4"
       width="12"
       y="0"
       x="18"
       style="fill:#5c5c5c;fill-rule:evenodd" />
    <rect
       id="rect15244"
       rx="0"
       ry="0"
       height="34.041"
       width="29.014"
       y="7.4665999"
       x="9.5171003"
       style="fill:none;stroke:url(#linearGradient3111)" />
    <rect
       id="rect15974"
       rx="0.4788"
       ry="0.4788"
       height="39.092999"
       width="37.085999"
       y="5.4308"
       x="5.4393001"
       style="fill:none;stroke:#c68827" />
    <rect
       id="rect2208"
       rx="1.3879"
       ry="1.3879"
       height="7"
       width="18.947001"
       y="4.4723001"
       x="14.791"
       style="opacity:0.10795001;fill-rule:evenodd;stroke:#000000" />
    <rect
       id="rect2285"
       rx="1.3879"
       ry="1.3879"
       height="7"
       width="18.947001"
       y="3.5"
       x="14.526"
       style="fill:url(#linearGradient3113);fill-rule:evenodd;stroke:#5c5c5c" />
    <rect
       id="rect2281"
       rx="0.32543999"
       ry="0.32543999"
       height="3.5826001"
       width="9.6974001"
       y="1.2086999"
       x="19.150999"
       style="fill:url(#linearGradient3115);fill-rule:evenodd" />
    <rect
       id="rect13754"
       rx="1.0129"
       ry="1.0129"
       height="6.1875"
       width="18.094"
       y="3.9375"
       x="14.953"
       style="fill:url(#linearGradient3117);fill-rule:evenodd" />
    <path
       id="path2212"
       style="opacity:0.48863998;color:#000000;fill:url(#linearGradient3119);fill-rule:evenodd"
       d="m 39.018,36.25 0.044,5.812 -8.5,-0.044 8.456,-5.768 z"
       inkscape:connector-curvature="0" />
    <path
       id="path2210"
       style="color:#000000;fill:url(#linearGradient3121);fill-rule:evenodd;stroke:#868a84"
       d="m 30.059,42.087 c 1.791,0.168 8.99,-4.37 9.481,-8.388 -1.563,2.423 -4.955,1.968 -9.064,2.127 0,0 0.396,5.761 -0.417,6.261 z"
       inkscape:connector-curvature="0" />
    <path
       id="rect2232"
       d="m 19.469,1.4688 c -0.002,0.002 10e-4,0.0287 0,0.0312 -0.001,0.0028 -0.031,-0.003 -0.031,0 v 2.875 c 0,0.0064 0.028,0.0257 0.031,0.0312 0.002,0.0017 -0.003,0.0301 0,0.0313 h -3.531 c -0.018,0 -0.046,-0.0017 -0.063,0 -0.034,0.0052 -0.094,0.0198 -0.125,0.0313 -0.138,0.0582 -0.268,0.199 -0.312,0.3437 -0.011,0.041 0,0.1118 0,0.1563 V 9.125 c 0,0.0178 -0.002,0.0452 0,0.0625 0.005,0.034 0.019,0.0935 0.031,0.125 0.009,0.023 0.018,0.0726 0.031,0.0937 0.005,0.0069 0.026,0.0247 0.031,0.0313 0.021,0.0253 0.069,0.0729 0.094,0.0937 0.013,0.0099 0.048,0.0228 0.063,0.0313 0.014,0.0079 0.047,0.0248 0.062,0.0313 0.031,0.0114 0.091,0.026 0.125,0.0312 0.017,0.0017 0.045,0 0.063,0 h 16.124 c 0.018,0 0.046,0.0017 0.063,0 C 32.159,9.6198 32.219,9.6052 32.25,9.5938 32.265,9.5873 32.298,9.5704 32.312,9.5625 32.327,9.554 32.362,9.5411 32.375,9.5312 32.4,9.5104 32.448,9.4628 32.469,9.4375 32.474,9.4309 32.495,9.4131 32.5,9.4062 c 0.013,-0.0211 0.022,-0.0707 0.031,-0.0937 0.012,-0.0315 0.026,-0.091 0.031,-0.125 0.002,-0.0173 0,-0.0447 0,-0.0625 V 4.9688 c 0,-0.0445 0.011,-0.1153 0,-0.1563 C 32.518,4.6678 32.388,4.527 32.25,4.4688 32.219,4.4573 32.159,4.4427 32.125,4.4375 c -0.017,-0.0017 -0.045,0 -0.063,0 h -3.531 c 0.003,-0.0012 -0.002,-0.0296 0,-0.0313 0.003,-0.0055 0.031,-0.0248 0.031,-0.0312 V 1.5 c 0,-0.003 -0.03,0.0028 -0.031,0 -10e-4,-0.0025 0.002,-0.0292 0,-0.0312 -0.003,-0.0012 -0.028,6e-4 -0.031,0 h -9 c -0.003,6e-4 -0.028,-0.0012 -0.031,0 z"
       style="opacity:0.31681997;fill:none;stroke:url(#linearGradient3123)"
       inkscape:connector-curvature="0" />
    <path
       id="path2247"
       style="opacity:0.36932002;color:#000000;fill:none;stroke:url(#linearGradient3125)"
       d="m 31.51,40.687 c 1.369,-0.684 4.529,-2.601 5.828,-4.482 -1.792,0.376 -2.991,0.59 -5.727,0.695 0,0 0.086,3.012 -0.101,3.787 z"
       inkscape:connector-curvature="0" />
    <rect
       id="rect2271"
       style="opacity:0.17045001;color:#000000;fill-rule:evenodd"
       height="2"
       width="21"
       y="15"
       x="14" />
    <rect
       id="rect2273"
       style="opacity:0.17045001;color:#000000;fill-rule:evenodd"
       height="2"
       width="20"
       y="19"
       x="14" />
    <rect
       id="rect2275"
       style="opacity:0.17045001;color:#000000;fill-rule:evenodd"
       height="2"
       width="18"
       y="23"
       x="14" />
    <rect
       id="rect2277"
       style="opacity:0.17045001;color:#000000;fill-rule:evenodd"
       height="2"
       width="21"
       y="27"
       x="14" />
    <rect
       id="rect2279"
       style="opacity:0.17045001;color:#000000;fill-rule:evenodd"
       height="2"
       width="13"
       y="31"
       x="14" />
  </g>
  <metadata
     id="metadata66">
    <rdf:RDF>
      <cc:Work>
        <dc:format>image/svg+xml</dc:format>
        <dc:type
           rdf:resource="http://purl.org/dc/dcmitype/StillImage" />
        <cc:license
           rdf:resource="http://creativecommons.org/licenses/publicdomain/" />
        <dc:publisher>
          <cc:Agent
             rdf:about="http://openclipart.org/">
            <dc:title>Openclipart</dc:title>
          </cc:Agent>
        </dc:publisher>
        <dc:title></dc:title>
        <dc:date>2010-03-18T17:15:28</dc:date>
        <dc:description>&quot;Paste&quot; icon from &lt;A href=&quot;http://tango.freedesktop.org/Tango_Desktop_Project&quot;&gt; Tango Project &lt;/A&gt; \n&lt;BR&gt;&lt;BR&gt;\nSince version 0.8.90 Tango Project icons are Public Domain: &lt;A href=&quot;http://tango.freedesktop.org/Frequently_Asked_Questions#Terms_of_Use.3F&quot;&gt; Tango Project FAQ &lt;/A&gt;</dc:description>
        <dc:source>http://openclipart.org/detail/32347/tango-edit-paste-by-warszawianka</dc:source>
        <dc:creator>
          <cc:Agent>
            <dc:title>warszawianka</dc:title>
          </cc:Agent>
        </dc:creator>
        <dc:subject>
          <rdf:Bag>
            <rdf:li>clip art</rdf:li>
            <rdf:li>clipart</rdf:li>
            <rdf:li>clipboard</rdf:li>
            <rdf:li>externalsource</rdf:li>
            <rdf:li>icon</rdf:li>
            <rdf:li>office</rdf:li>
            <rdf:li>paste</rdf:li>
            <rdf:li>tango</rdf:li>
          </rdf:Bag>
        </dc:subject>
      </cc:Work>
      <cc:License
         rdf:about="http://creativecommons.org/licenses/publicdomain/">
        <cc:permits
           rdf:resource="http://creativecommons.org/ns#Reproduction" />
        <cc:permits
           rdf:resource="http://creativecommons.org/ns#Distribution" />
        <cc:permits
           rdf:resource="http://creativecommons.org/ns#DerivativeWorks" />
      </cc:License>
    </rdf:RDF>
  </metadata>
</svg>
