<?xml version="1.0" encoding="UTF-8" standalone="no"?>
<svg
   xmlns:dc="http://purl.org/dc/elements/1.1/"
   xmlns:cc="http://creativecommons.org/ns#"
   xmlns:rdf="http://www.w3.org/1999/02/22-rdf-syntax-ns#"
   xmlns:svg="http://www.w3.org/2000/svg"
   xmlns="http://www.w3.org/2000/svg"
   xmlns:xlink="http://www.w3.org/1999/xlink"
   xmlns:sodipodi="http://sodipodi.sourceforge.net/DTD/sodipodi-0.dtd"
   xmlns:inkscape="http://www.inkscape.org/namespaces/inkscape"
   id="svg4910"
   viewBox="0 0 32 32"
   version="1.1"
   inkscape:version="0.48.4 r9939"
   width="100%"
   height="100%"
   sodipodi:docname="pi-blue.svg">
  <sodipodi:namedview
     pagecolor="#ffffff"
     bordercolor="#666666"
     borderopacity="1"
     objecttolerance="10"
     gridtolerance="10"
     guidetolerance="10"
     inkscape:pageopacity="0"
     inkscape:pageshadow="2"
     inkscape:window-width="1842"
     inkscape:window-height="1051"
     id="namedview38"
     showgrid="false"
     inkscape:zoom="12.586667"
     inkscape:cx="7.5440379"
     inkscape:cy="26.672671"
     inkscape:window-x="69"
     inkscape:window-y="-9"
     inkscape:window-maximized="1"
     inkscape:current-layer="svg4910" />
  <defs
     id="defs4912">
    <linearGradient
       id="linearGradient5721">
      <stop
         id="stop5723"
         stop-color="#fff"
         offset="0" />
      <stop
         id="stop5725"
         stop-color="#fff"
         stop-opacity="0"
         offset="1" />
    </linearGradient>
    <filter
       id="filter5515"
       color-interpolation-filters="sRGB">
      <feGaussianBlur
         id="feGaussianBlur5517"
         stdDeviation="1.3737242" />
    </filter>
    <radialGradient
       id="radialGradient5535"
       gradientUnits="userSpaceOnUse"
       cy="434.19"
       cx="486.07999"
       gradientTransform="matrix(1.5173,0.050889,-0.037638,1.1223,-236.08,-81.911)"
       r="277.44">
      <stop
         id="stop5531"
         stop-color="#fff"
         stop-opacity=".656"
         offset="0" />
      <stop
         id="stop5533"
         stop-color="#fff"
         stop-opacity="0"
         offset="1" />
    </radialGradient>
    <filter
       id="filter5668"
       color-interpolation-filters="sRGB">
      <feGaussianBlur
         id="feGaussianBlur5670"
         stdDeviation="1.8860129" />
    </filter>
    <filter
       id="filter5680"
       color-interpolation-filters="sRGB">
      <feGaussianBlur
         id="feGaussianBlur5682"
         stdDeviation="2.3049877" />
    </filter>
    <filter
       id="filter5684"
       color-interpolation-filters="sRGB">
      <feGaussianBlur
         id="feGaussianBlur5686"
         stdDeviation="2.4529951" />
    </filter>
    <filter
       id="filter5712"
       color-interpolation-filters="sRGB">
      <feGaussianBlur
         id="feGaussianBlur5714"
         stdDeviation="1.7491403" />
    </filter>
    <linearGradient
       id="linearGradient5727"
       y2="363.67999"
       xlink:href="#linearGradient5721"
       gradientUnits="userSpaceOnUse"
       x2="289.10999"
       y1="608.26001"
       x1="253.39999" />
    <filter
       id="filter5741"
       color-interpolation-filters="sRGB">
      <feGaussianBlur
         id="feGaussianBlur5743"
         stdDeviation="4.8198046" />
    </filter>
    <linearGradient
       id="linearGradient5756"
       y2="193.53999"
       xlink:href="#linearGradient5721"
       gradientUnits="userSpaceOnUse"
       x2="338.10999"
       y1="-0.52077001"
       x1="364.73001" />
    <filter
       id="filter5774"
       y="-0.16429999"
       width="1.0404"
       height="1.3286"
       x="-0.020214999"
       color-interpolation-filters="sRGB">
      <feGaussianBlur
         id="feGaussianBlur5776"
         stdDeviation="3.992126" />
    </filter>
  </defs>
  <g
     id="layer2"
     transform="matrix(0.05625235,0,0,0.05650165,-0.95173649,-1.3525104)">
    <path
       id="rect4886"
       d="m 669.08,247.6 c -124.67,0.7349 -249.35,-0.1383 -374.02,0.3307 -33.876,0.2722 -40.957,1.2158 -46.264,2.0755 -32.004,5.1843 -45.23,11.38 -65.094,30.594 -22.937,22.186 -38.61,46.048 -52.5,79.875 -4.477,10.903 -12.027,32.811 -15.5,44.938 l -1.5,5.25 17.375,-0.031 6.3438,-10.281 c 15.054,-24.471 33.057,-45.134 47.469,-54.5 17.984,-11.688 41.997,-17.162 75.562,-17.188 h 11.344 c -2.5989,29.804 -4.5922,59.661 -6.75,89.5 -6.7028,93.243 -6.803,94.425 -10.562,118.5 -10.954,70.149 -20.595,96.734 -49.812,137.38 -26.329,36.623 -30.848,45.184 -33.031,62.594 -3.0318,24.18 9.6834,44.375 33.031,52.5 10.888,3.5794 23.552,3.6494 34.031,-1.2187 v 0.031 c 12.054,-5.9343 26.101,-22.343 34.844,-40.688 15.985,-33.541 33.797,-126.34 46,-239.59 1.0341,-9.5973 13.031,-174.36 13.031,-178.79 l 140.25,-0.2062 c -9.2089,64.187 -14.802,128.9 -20.312,193.5 -1.7146,22.465 -2.3431,96.724 -1,117.16 3.7518,57.075 12.989,92.631 29.906,115 14.68,19.411 32.214,31.323 52.812,35.906 9.2392,2.0555 28.464,1.5225 37.844,-1.0625 15.806,-4.3559 32.792,-14.858 47.062,-29.094 18.537,-18.492 30.485,-41.756 39.469,-76.906 3.464,-13.553 8.9688,-42.819 8.9688,-47.594 l -17.406,0.3437 c -2.9839,14.493 -4.1572,19.007 -6.4688,24.688 -6.6041,16.228 -19.404,28.301 -36.125,34.156 -20.731,6.1896 -42.772,3.0609 -61.188,-7.8124 -17.898,-11.691 -28.855,-31.322 -33.406,-59.875 -4.7688,-99.638 6.7697,-199.58 20.594,-298.16 l 135,-0.25 v -81.062 z"
       transform="translate(-93.991,-212.99)"
       inkscape:connector-curvature="0"
       style="fill:#263cff" />
    <path
       id="path5537"
       d="m 575.09,34.625 c -124.67,0.7349 -249.36,-0.1565 -374.03,0.3125 -33.876,0.2722 -40.943,1.234 -46.25,2.0938 -32.004,5.1843 -45.23,11.38 -65.094,30.594 -22.937,22.186 -38.61,46.048 -52.5,79.875 -4.477,10.903 -12.027,32.811 -15.5,44.938 l -1.5,5.25 17.375,-0.0312 6.3438,-10.281 c 15.054,-24.471 33.057,-45.134 47.469,-54.5 17.984,-11.688 41.997,-17.162 75.562,-17.188 h 11.344 c -2.5989,29.804 -4.5922,59.661 -6.75,89.5 -6.7028,93.243 -6.803,94.425 -10.562,118.5 -10.954,70.149 -20.595,96.734 -49.812,137.38 -26.329,36.623 -30.848,45.184 -33.031,62.594 -3.0318,24.18 9.6834,44.375 33.031,52.5 10.888,3.5794 23.552,3.6494 34.031,-1.2188 v 0.0312 c 12.054,-5.9343 26.101,-22.343 34.844,-40.688 15.985,-33.541 33.797,-126.34 46,-239.59 1.0341,-9.5973 13.031,-174.37 13.031,-178.81 l 140.25,-0.1875 c -9.2089,64.187 -14.802,128.9 -20.312,193.5 -1.7146,22.465 -2.3431,96.724 -1,117.16 3.7518,57.075 12.989,92.631 29.906,115 14.68,19.411 32.214,31.323 52.812,35.906 9.2392,2.0555 28.464,1.5225 37.844,-1.0625 15.806,-4.3559 32.792,-14.858 47.062,-29.094 18.537,-18.492 30.485,-41.755 39.469,-76.906 3.464,-13.553 8.9688,-42.819 8.9688,-47.594 l -17.406,0.34375 c -2.9839,14.493 -4.1572,19.007 -6.4688,24.688 -6.6041,16.228 -19.404,28.301 -36.125,34.156 -20.731,6.1896 -42.772,3.0608 -61.188,-7.8125 -17.898,-11.691 -28.855,-31.322 -33.406,-59.875 -4.7688,-99.638 6.7697,-199.58 20.594,-298.16 l 135,-0.25 v -81.062 z m -6.375,6.3438 v 68.312 l -128.62,0.25 a 6.3725,6.3725 0 0 0 -6.3125,5.5 c -13.85,98.68 -25.47,199.01 -20.67,299.35 a 6.3725,6.3725 0 0 0 0.0937,0.6875 c 4.7302,29.674 16.553,51.393 36.188,64.219 a 6.3725,6.3725 0 0 0 0.25,0.15625 c 19.871,11.733 43.768,15.118 66.25,8.4062 a 6.3725,6.3725 0 0 0 0.28125,-0.0937 c 18.342,-6.4233 32.666,-19.881 39.938,-37.75 2.0881,-5.1311 3.534,-10.768 5.6875,-20.812 l 5.0625,-0.0937 c -0.003,0.0165 0.003,0.0147 0,0.0312 -0.55523,3.5317 -1.3231,7.9938 -2.2188,12.75 -1.7913,9.5125 -4.0587,20.224 -5.7188,26.719 -8.8154,34.491 -20.167,56.397 -37.781,73.969 -13.59,13.557 -29.846,23.468 -44.25,27.438 -7.4463,2.0521 -27.599,2.5979 -34.781,1 -19.062,-4.2409 -35.129,-15.067 -49.094,-33.531 -15.631,-20.668 -24.938,-54.998 -28.656,-111.56 -1.2679,-19.288 -0.6413,-94.671 1,-116.22 5.2e-4,-0.007 -5.2e-4,-0.0244 0,-0.0312 5.5093,-64.586 11.108,-129.15 20.281,-193.09 a 6.3725,6.3725 0 0 0 -6.3125,-7.2812 l -140.25,0.21875 a 6.3725,6.3725 0 0 0 -6.375,6.375 c 0,-0.44027 -0.0383,0.82033 -0.125,2.25 -0.0867,1.42967 -0.21044,3.408 -0.375,5.875 -0.32912,4.9341 -0.80486,11.77 -1.375,19.875 -1.1403,16.21 -2.6548,37.534 -4.2188,59 -1.564,21.466 -3.168,43.082 -4.4375,59.938 -1.2695,16.856 -2.2776,29.383 -2.4688,31.156 -6.0859,56.483 -13.568,107.87 -21.5,149.19 -7.9322,41.318 -16.5,72.804 -23.906,88.344 -8.1788,17.162 -22.056,32.729 -31.688,37.594 a 6.3725,6.3725 0 0 0 -0.0937,0.0312 c -8.6515,4.0189 -19.751,4.0674 -29.25,0.96875 -0.0134,-0.005 -0.0178,-0.0266 -0.0312,-0.0312 -0.0191,-0.006 -0.0434,0.006 -0.0625,0 -20.867,-7.3018 -31.418,-24.127 -28.719,-45.656 1.04,-8.2943 2.3927,-13.59 6.7812,-21.906 4.3886,-8.3159 11.997,-19.489 25.125,-37.75 29.598,-41.171 39.902,-69.656 50.906,-140.12 3.7617,-24.089 3.9222,-25.757 10.625,-119 2.1595,-29.862 4.1586,-59.688 6.75,-89.406 a 6.3725,6.3725 0 0 0 -6.3438,-6.9375 h -11.344 c -34.27,-0.02 -59.65,5.57 -79.042,18.17 -15.969,10.38 -34.035,31.46 -49.438,56.5 l -4.4688,7.25 -5.25,0.0312 c 3.624,-12.13 10.324,-31.61 14.344,-41.4 13.651,-33.25 28.693,-56.086 51.031,-77.692 19.344,-18.707 30.204,-23.806 61.684,-28.907 5.1401,-0.83261 11.525,-1.697 45.25,-1.9688 0.0104,-4e-5 0.0208,4e-5 0.0312,0 122.48,-0.46054 245.02,0.32596 367.59,-0.34375 z"
       inkscape:connector-curvature="0"
       style="fill:#132ee9;filter:url(#filter5515)" />
    <path
       id="path5562"
       d="m 512.72,105.12 -72.625,0.15625 c -5.1467,-0.73855 -10.888,4.67 -10.438,9.125 h -0.0625 c -11.09,90.57 -25.04,183.34 -21.48,280.72 -0.7548,8.7464 5.854,33.507 10.344,38.375 -1.7632,-5.7821 -3.1658,-11.988 -4.2188,-18.594 -5.2917,-98.426 7.3414,-200.42 20.594,-299.75 l -0.125,-0.0312 c 0.86224,-1.8219 2.2332,-4.2189 5.375,-4.5312 l 129.69,-0.25 v -3.0312 l -57.062,-2.1875 z"
       inkscape:connector-curvature="0"
       style="fill:#ffffff;filter:url(#filter5684)" />
    <path
       id="path5576"
       d="m 568.09,428 -4.3125,0.0625 c -1.9584,11.838 -5.6393,22.847 -9.0312,33.969 0.68347,-1.1108 1.3446,-2.2212 1.9688,-3.375 -0.6446,2.8932 -1.3644,6.7549 -1.9062,8.875 -8.7058,34.062 -19.646,55.062 -36.656,72.031 -13.124,13.092 -28.929,22.638 -42.375,26.344 -5.7375,1.5812 -27.372,2.1269 -32.719,0.9375 -14,-3.1146 -26.211,-9.8772 -37.281,-21.062 6.4727,9.6622 15.331,17.163 24.656,22.75 3.7052,1.4446 7.5215,2.6218 11.469,3.5 7.5257,1.6743 27.512,1.1411 35.281,-1 14.638,-4.0341 31.015,-14.048 44.719,-27.719 17.768,-17.725 29.219,-39.867 38.062,-74.469 1.6721,-6.5422 3.9245,-17.222 5.7188,-26.75 0.89714,-4.7642 1.6923,-9.2649 2.25,-12.812 0.10631,-0.67622 0.0694,-0.66065 0.15625,-1.2812 z"
       inkscape:connector-curvature="0"
       style="fill:#ffffff;filter:url(#filter5680)" />
    <path
       id="path5565"
       d="m 322.62,105.12 -83.531,0.125 c -2.9714,0.0318 -5.9356,1.0818 -7.8125,3.125 -2.7427,2.9858 -2.9902,9.9421 -3.3125,15.375 -0.32834,4.9224 -0.80497,11.74 -1.375,19.844 -1.1401,16.208 -2.6552,37.508 -4.2188,58.969 -1.5637,21.463 -3.1683,43.086 -4.4375,59.938 -1.2687,16.845 -2.304,29.792 -2.4375,31.031 -1.7057,15.831 -3.5329,31.25 -5.4375,46.156 v 0.0312 c -0.4695,3.678 -0.95771,7.2914 -1.4375,10.906 -0.1415,1.0661 -0.26389,2.1584 -0.40625,3.2188 -0.0611,0.45446 -0.12629,0.92159 -0.1875,1.375 -4.334,32.122 -9.068,61.597 -13.969,87.125 -7.9006,41.154 -16.568,72.668 -23.562,87.344 -7.7904,16.347 -21.89,31.603 -29.75,35.594 a 5.3125,5.3125 0 0 0 -0.0312,0 c -7.3828,3.4295 -17.496,3.5725 -26.031,0.8125 -0.0308,-0.01 -0.0631,-0.0213 -0.0937,-0.0312 a 5.3125,5.3125 0 0 0 -0.0312,-0.0312 c -0.0836,-0.0274 -0.10831,-0.008 -0.1875,-0.0312 -9.7634,-3.4624 -16.883,-8.8936 -21.188,-16 1.0448,6.896 5.8973,12.692 12.5,18 2.2392,1.1642 4.6152,2.2046 7.1562,3.0938 0.0191,0.006 0.0434,-0.006 0.0625,0 0.0134,0.005 0.0178,0.0267 0.0312,0.0312 9.7273,3.174 21.079,3.1272 30.031,-1.0312 a 5.3083,5.3083 0 0 1 0.1875,-0.0625 c 10.023,-5.0884 23.876,-20.755 32.125,-38.062 7.504,-15.745 16.06,-47.268 24,-88.625 3.0084,-15.671 5.9306,-32.852 8.75,-51.156 v 0.25 c 0.37482,-2.4249 0.72318,-4.9095 1.0938,-7.375 0.63189,-4.2041 1.2564,-8.464 1.875,-12.781 0.62012,-4.3278 1.2381,-8.6896 1.8438,-13.125 0.0788,-0.57788 0.17142,-1.1704 0.25,-1.75 2.7319,-20.135 5.3197,-41.337 7.6875,-63.312 0.20236,-1.8781 1.1991,-14.33 2.4688,-31.188 1.2696,-16.857 2.8735,-38.502 4.4375,-59.969 1.564,-21.467 3.0784,-42.757 4.2188,-58.969 0.57019,-8.1059 1.0457,-14.939 1.375,-19.875 0.18355,-2.7136 0.36042,-5.5712 0.5,-8.2188 -0.002,-2.7822 2.5303,-5.3147 5.3125,-5.3125 l 140.25,-0.21875 v -2.5938 l -56.719,-2.625 z"
       inkscape:connector-curvature="0"
       style="fill:#ffffff;filter:url(#filter5668)" />
    <path
       id="path5545"
       d="m 155.91,105.25 c -29.315,1.1417 -52.202,6.9176 -70.312,18.688 -15.611,10.146 -32.2,29.299 -46.938,52.094 -0.01238,0.03 -0.01887,0.0637 -0.03125,0.0937 -2.1823,5.2944 -4.3803,10.814 -6.4688,16.188 h 2.4688 l 4.7812,-7.75 c 15.345,-24.944 33.385,-45.947 49.094,-56.156 19.159,-12.451 44.328,-18.037 78.469,-18.062 h 11.344 v -2.375 l -22.406,-2.7188 z"
       inkscape:connector-curvature="0"
       style="fill:#ffffff;filter:url(#filter5712)" />
    <path
       id="path5718"
       d="m 136.22,419.62 c -6.4423,13.787 -14.437,26.701 -25.031,41.438 -26.329,36.623 -30.848,45.184 -33.031,62.594 -3.0318,24.18 9.6834,44.375 33.031,52.5 10.888,3.5794 23.552,3.6494 34.031,-1.2188 v 0.0312 c 12.054,-5.9343 26.101,-22.343 34.844,-40.688 6.9805,-14.647 14.317,-40.608 21.375,-74.625 -20.9,-10.97 -42.59,-24.18 -65.22,-40.03 z m 425.03,64.35 c -62.145,11.26 -123,26.143 -190.16,23.344 4.4658,13.836 10.029,25.02 16.844,34.031 14.68,19.411 32.214,31.323 52.812,35.906 9.2392,2.0555 28.464,1.5225 37.844,-1.0625 15.806,-4.3559 32.792,-14.858 47.062,-29.094 15.993,-15.955 27.082,-35.496 35.594,-63.125 z"
       inkscape:connector-curvature="0"
       style="fill:url(#linearGradient5727);filter:url(#filter5741)" />
    <path
       id="path5745"
       d="m 575.09,34.625 c -124.67,0.7349 -249.36,-0.1565 -374.03,0.3125 -33.876,0.2722 -40.943,1.234 -46.25,2.0938 -25.55,4.1387 -39.142,8.9322 -53.688,20.469 87.111,22.437 292.82,63.255 473.97,7.0625 v -29.938 z"
       inkscape:connector-curvature="0"
       style="fill:url(#linearGradient5756);stroke:#000000;stroke-width:1px;filter:url(#filter5774)" />
    <path
       id="path5519"
       d="m 666.79,245.3 c -124.67,0.7349 -249.35,-0.1383 -374.02,0.3307 -33.876,0.2722 -40.957,1.2158 -46.264,2.0755 -32.004,5.1843 -45.23,11.38 -65.094,30.594 -22.937,22.186 -38.61,46.048 -52.5,79.875 -4.477,10.903 -12.027,32.811 -15.5,44.938 l -1.5,5.25 17.375,-0.031 6.3438,-10.281 c 15.054,-24.471 33.057,-45.134 47.469,-54.5 17.984,-11.688 41.997,-17.162 75.562,-17.188 h 11.344 c -2.5989,29.804 -4.5922,59.661 -6.75,89.5 -6.7028,93.243 -6.803,94.425 -10.562,118.5 -10.954,70.149 -20.595,96.734 -49.812,137.38 -26.329,36.623 -30.848,45.184 -33.031,62.594 -3.0318,24.18 9.6834,44.375 33.031,52.5 10.888,3.5794 23.552,3.6494 34.031,-1.2187 v 0.031 c 12.054,-5.9343 26.101,-22.343 34.844,-40.688 15.985,-33.541 33.797,-126.34 46,-239.59 1.0341,-9.5973 13.031,-174.36 13.031,-178.79 l 140.25,-0.2062 c -9.2089,64.187 -14.802,128.9 -20.312,193.5 -1.7146,22.465 -2.3431,96.724 -1,117.16 3.7518,57.075 12.989,92.631 29.906,115 14.68,19.411 32.214,31.323 52.812,35.906 9.2392,2.0555 28.464,1.5225 37.844,-1.0625 15.806,-4.3559 32.792,-14.858 47.062,-29.094 18.537,-18.492 30.485,-41.756 39.469,-76.906 3.464,-13.553 8.9688,-42.819 8.9688,-47.594 l -17.406,0.3437 c -2.9839,14.493 -4.1572,19.007 -6.4688,24.688 -6.6041,16.228 -19.404,28.301 -36.125,34.156 -20.731,6.1896 -42.772,3.0609 -61.188,-7.8124 -17.898,-11.691 -28.855,-31.322 -33.406,-59.875 -4.7688,-99.638 6.7697,-199.58 20.594,-298.16 l 135,-0.25 v -81.062 z"
       transform="translate(-93.991,-212.99)"
       inkscape:connector-curvature="0"
       style="fill:url(#radialGradient5535)" />
  </g>
  <metadata
     id="metadata36">
    <rdf:RDF>
      <cc:Work>
        <dc:format>image/svg+xml</dc:format>
        <dc:type
           rdf:resource="http://purl.org/dc/dcmitype/StillImage" />
        <cc:license
           rdf:resource="http://creativecommons.org/licenses/publicdomain/" />
        <dc:publisher>
          <cc:Agent
             rdf:about="http://openclipart.org/">
            <dc:title>Openclipart</dc:title>
          </cc:Agent>
        </dc:publisher>
        <dc:title></dc:title>
        <dc:date>2010-10-03T21:45:43</dc:date>
        <dc:description>A shiny blue PI symbol.</dc:description>
        <dc:source>http://openclipart.org/detail/88513/pi-shiny-blue-by-bnielsen</dc:source>
        <dc:creator>
          <cc:Agent>
            <dc:title>bnielsen</dc:title>
          </cc:Agent>
        </dc:creator>
        <dc:subject>
          <rdf:Bag>
            <rdf:li>clip art</rdf:li>
            <rdf:li>clipart</rdf:li>
            <rdf:li>math</rdf:li>
            <rdf:li>pi</rdf:li>
            <rdf:li>symbol</rdf:li>
          </rdf:Bag>
        </dc:subject>
      </cc:Work>
      <cc:License
         rdf:about="http://creativecommons.org/licenses/publicdomain/">
        <cc:permits
           rdf:resource="http://creativecommons.org/ns#Reproduction" />
        <cc:permits
           rdf:resource="http://creativecommons.org/ns#Distribution" />
        <cc:permits
           rdf:resource="http://creativecommons.org/ns#DerivativeWorks" />
      </cc:License>
    </rdf:RDF>
  </metadata>
</svg>
