<?xml version="1.0" encoding="UTF-8" standalone="no"?>
<!-- Created with Inkscape (http://www.inkscape.org/) -->

<svg
   xmlns:dc="http://purl.org/dc/elements/1.1/"
   xmlns:cc="http://creativecommons.org/ns#"
   xmlns:rdf="http://www.w3.org/1999/02/22-rdf-syntax-ns#"
   xmlns:svg="http://www.w3.org/2000/svg"
   xmlns="http://www.w3.org/2000/svg"
   xmlns:sodipodi="http://sodipodi.sourceforge.net/DTD/sodipodi-0.dtd"
   xmlns:inkscape="http://www.inkscape.org/namespaces/inkscape"
   width="524"
   height="524"
   id="svg2"
   sodipodi:version="0.32"
   inkscape:version="0.47 r22583"
   version="1.0"
   sodipodi:docname="pinned.svg"
   inkscape:output_extension="org.inkscape.output.svg.inkscape"
   sodipodi:modified="true"
   inkscape:export-filename="C:\Users\ramin\Documents\workspace\com.wwindows.office.ooxml.libs\src\com\wwindows\office\ooxml\ui\resources\actions\startmenu2\pinned.png"
   inkscape:export-xdpi="2.7962358"
   inkscape:export-ydpi="2.7962358">
  <sodipodi:namedview
     id="base"
     pagecolor="#ffffff"
     bordercolor="#666666"
     borderopacity="1.0"
     gridtolerance="10000"
     guidetolerance="10"
     objecttolerance="10"
     inkscape:pageopacity="0.0"
     inkscape:pageshadow="2"
     inkscape:zoom="0.41366452"
     inkscape:cx="372.04724"
     inkscape:cy="246.57357"
     inkscape:document-units="px"
     inkscape:current-layer="layer1"
     width="744.09449px"
     height="524.40945px"
     inkscape:window-width="742"
     inkscape:window-height="602"
     inkscape:window-x="652"
     inkscape:window-y="86"
     showgrid="false"
     inkscape:window-maximized="0" />
  <defs
     id="defs4">
    <inkscape:perspective
       sodipodi:type="inkscape:persp3d"
       inkscape:vp_x="0 : 262.20471 : 1"
       inkscape:vp_y="0 : 1000 : 0"
       inkscape:vp_z="744.09448 : 262.20471 : 1"
       inkscape:persp3d-origin="372.04724 : 174.80314 : 1"
       id="perspective20" />
    <filter
       inkscape:collect="always"
       id="filter4153"
       color-interpolation-filters="sRGB">
      <feGaussianBlur
         inkscape:collect="always"
         id="feGaussianBlur4155"
         stdDeviation="81.084917" />
    </filter>
  </defs>
  <metadata
     id="metadata7">
    <rdf:RDF>
      <cc:Work
         rdf:about="">
        <dc:format>image/svg+xml</dc:format>
        <dc:type
           rdf:resource="http://purl.org/dc/dcmitype/StillImage" />
        <dc:title></dc:title>
      </cc:Work>
    </rdf:RDF>
  </metadata>
  <g
     inkscape:groupmode="layer"
     id="layer1"
     inkscape:label="Layer 1"
     transform="translate(0,-0.40942383)">
    <path
       id="path4171"
       sodipodi:cx="404.38675"
       sodipodi:cy="393.1416"
       transform="matrix(0.4358179,-0.07964817,0.07510258,0.4109426,131.93486,-1.6911708)"
       d="m 527.8214,393.1416 c 0,68.17107 -55.26358,123.43465 -123.43465,123.43465 -68.17107,0 -123.43465,-55.26358 -123.43465,-123.43465 0,-68.17107 55.26358,-123.43465 123.43465,-123.43465 68.17107,0 123.43465,55.26358 123.43465,123.43465 z"
       sodipodi:type="arc"
       style="fill:#ecca3e;fill-opacity:1;fill-rule:nonzero;stroke:none"
       sodipodi:ry="123.43465"
       sodipodi:rx="123.43465" />
    <g
       id="g6179"
       transform="matrix(4.3176434,0,0,4.3176434,-1247.1515,-207.20669)"
       inkscape:export-xdpi="2.7962341"
       inkscape:export-ydpi="2.7962341">
      <path
         id="path2164"
         sodipodi:cx="404.38675"
         sodipodi:cy="393.1416"
         transform="matrix(0.4358179,-0.07964817,0.07510258,0.4109426,140.95141,-12.41491)"
         d="m 527.8214,393.1416 c 0,68.17107 -55.26358,123.43465 -123.43465,123.43465 -68.17107,0 -123.43465,-55.26358 -123.43465,-123.43465 0,-68.17107 55.26358,-123.43465 123.43465,-123.43465 68.17107,0 123.43465,55.26358 123.43465,123.43465 z"
         sodipodi:type="arc"
         style="fill:#00bf00;fill-opacity:1;fill-rule:nonzero;stroke:none"
         sodipodi:ry="123.43465"
         sodipodi:rx="123.43465" />
      <path
         transform="matrix(0.3462881,0,0,0.3462881,227.09453,-36.050605)"
         id="path2179"
         style="fill:#00d600;fill-opacity:1;fill-rule:nonzero;stroke:none"
         d="M 509.34375,405.875 357.25,433.6875 325.40625,577.5625 c 17.6718,2.6926 36.12332,2.73376 54.84375,-0.6875 84.37863,-15.42067 141.36441,-91.53191 129.09375,-171 z" />
      <path
         transform="matrix(0.3462881,0,0,0.3462881,227.09453,-36.050605)"
         id="path2162"
         style="fill:#00e600;fill-opacity:1;fill-rule:nonzero;stroke:none"
         d="m 358.5625,281.15625 c -10.46653,-0.1047 -21.12477,0.79104 -31.84375,2.75 -85.75189,15.67164 -143.33974,94.0176 -128.5625,174.875 11.55124,63.20548 63.97332,109.13997 127.25,118.78125 L 357.25,433.6875 509.34375,405.875 c -0.1997,-1.29334 -0.26335,-2.58013 -0.5,-3.875 C 495.91366,331.24978 431.82821,281.88918 358.5625,281.15625 z" />
      <path
         transform="matrix(0.3462881,0,0,0.3462881,227.09453,-36.050605)"
         id="path2166"
         style="fill:#009900;fill-opacity:1;fill-rule:nonzero;stroke:none"
         d="m 294.2107,361.9442 -11.41703,8.44062 -21.05953,15.74864 c -8.59708,18.27496 -7.39824,37.66544 -2.01654,58.26428 13.9621,53.44087 53.70876,79.5635 109.79229,73.19183 28.70859,-3.2616 55.00843,-12.91612 71.13707,-33.42999 L 469.89512,447.48298 294.2107,361.9442 z"
         sodipodi:nodetypes="cccssccc" />
      <path
         id="path2160"
         sodipodi:cx="404.38675"
         sodipodi:cy="393.1416"
         transform="matrix(0.3406461,-0.06225522,0.05870155,0.3212014,200.07922,-8.6126804)"
         d="m 527.8214,393.1416 c 0,68.17107 -55.26358,123.43465 -123.43465,123.43465 -68.17107,0 -123.43465,-55.26358 -123.43465,-123.43465 0,-68.17107 55.26358,-123.43465 123.43465,-123.43465 68.17107,0 123.43465,55.26358 123.43465,123.43465 z"
         sodipodi:type="arc"
         style="fill:#00bf00;fill-opacity:1;fill-rule:nonzero;stroke:none"
         sodipodi:ry="123.43465"
         sodipodi:rx="123.43465" />
      <path
         id="path2174"
         sodipodi:cx="404.38675"
         sodipodi:cy="393.1416"
         transform="matrix(0.3406461,-0.06225522,0.05870155,0.3212014,203.09445,-11.369511)"
         d="m 527.8214,393.1416 c 0,68.17107 -55.26358,123.43465 -123.43465,123.43465 -68.17107,0 -123.43465,-55.26358 -123.43465,-123.43465 0,-68.17107 55.26358,-123.43465 123.43465,-123.43465 68.17107,0 123.43465,55.26358 123.43465,123.43465 z"
         sodipodi:type="arc"
         style="fill:#00e600;fill-opacity:1;fill-rule:nonzero;stroke:none"
         sodipodi:ry="123.43465"
         sodipodi:rx="123.43465" />
    </g>
  </g>
</svg>
