<?xml version="1.0" encoding="UTF-8" standalone="no"?>
<!-- Created with Inkscape (http://www.inkscape.org/) -->

<svg
   xmlns:dc="http://purl.org/dc/elements/1.1/"
   xmlns:cc="http://creativecommons.org/ns#"
   xmlns:rdf="http://www.w3.org/1999/02/22-rdf-syntax-ns#"
   xmlns:svg="http://www.w3.org/2000/svg"
   xmlns="http://www.w3.org/2000/svg"
   xmlns:sodipodi="http://sodipodi.sourceforge.net/DTD/sodipodi-0.dtd"
   xmlns:inkscape="http://www.inkscape.org/namespaces/inkscape"
   width="555.34998"
   height="686.45001"
   id="svg2"
   sodipodi:version="0.32"
   inkscape:version="0.47 r22583"
   version="1.0"
   sodipodi:docname="prepare__l_Prepare__i_6.svg"
   inkscape:output_extension="org.inkscape.output.svg.inkscape"
   inkscape:export-filename="C:\Users\ramin\Documents\workspace\com.wwindows.office.ooxml.libs\src\com\wwindows\office\ooxml\ui\resources\actions\startmenu\prepare__l_Prepare__i_6.png"
   inkscape:export-xdpi="3.8971584"
   inkscape:export-ydpi="3.8971584">
  <defs
     id="defs4">
    <inkscape:perspective
       sodipodi:type="inkscape:persp3d"
       inkscape:vp_x="0 : 343.22501 : 1"
       inkscape:vp_y="0 : 1000 : 0"
       inkscape:vp_z="555.34998 : 343.22501 : 1"
       inkscape:persp3d-origin="277.67499 : 228.81667 : 1"
       id="perspective53" />
    <filter
       inkscape:collect="always"
       x="-0.15353236"
       width="1.3070647"
       y="-0.11783122"
       height="1.2356623"
       id="filter3623">
      <feGaussianBlur
         inkscape:collect="always"
         stdDeviation="33.951032"
         id="feGaussianBlur3625" />
    </filter>
  </defs>
  <sodipodi:namedview
     id="base"
     pagecolor="#ffffff"
     bordercolor="#666666"
     borderopacity="1.0"
     gridtolerance="10000"
     guidetolerance="10"
     objecttolerance="10"
     inkscape:pageopacity="0.0"
     inkscape:pageshadow="2"
     inkscape:zoom="0.5875083"
     inkscape:cx="295.92238"
     inkscape:cy="542.45885"
     inkscape:document-units="px"
     inkscape:current-layer="layer1"
     showgrid="true"
     showguides="true"
     inkscape:guide-bbox="true"
     width="555.35px"
     height="686.45px"
     inkscape:window-width="879"
     inkscape:window-height="903"
     inkscape:window-x="664"
     inkscape:window-y="44"
     borderlayer="false"
     inkscape:window-maximized="0">
    <sodipodi:guide
       orientation="vertical"
       position="58.974881"
       id="guide3131" />
    <sodipodi:guide
       orientation="horizontal"
       position="920"
       id="guide3133" />
    <sodipodi:guide
       orientation="horizontal"
       position="800.37338"
       id="guide3135" />
  </sodipodi:namedview>
  <metadata
     id="metadata7">
    <rdf:RDF>
      <cc:Work
         rdf:about="">
        <dc:format>image/svg+xml</dc:format>
        <dc:type
           rdf:resource="http://purl.org/dc/dcmitype/StillImage" />
        <cc:license
           rdf:resource="http://web.resource.org/cc/PublicDomain" />
        <dc:title></dc:title>
        <dc:date>2007-02-11</dc:date>
        <dc:creator>
          <cc:Agent>
            <dc:title>nlyl</dc:title>
          </cc:Agent>
        </dc:creator>
        <dc:rights>
          <cc:Agent>
            <dc:title>public domain</dc:title>
          </cc:Agent>
        </dc:rights>
        <dc:publisher>
          <cc:Agent>
            <dc:title>openclipart.org</dc:title>
          </cc:Agent>
        </dc:publisher>
        <dc:subject>
          <rdf:Bag>
            <rdf:li>school</rdf:li>
            <rdf:li>education</rdf:li>
            <rdf:li>book</rdf:li>
            <rdf:li>study</rdf:li>
            <rdf:li>public_domain</rdf:li>
            <rdf:li>subject</rdf:li>
            <rdf:li>notebook</rdf:li>
            <rdf:li>class</rdf:li>
            <rdf:li>clipart</rdf:li>
          </rdf:Bag>
        </dc:subject>
        <dc:description>A tan notebook</dc:description>
      </cc:Work>
      <cc:License
         rdf:about="http://web.resource.org/cc/PublicDomain">
        <cc:permits
           rdf:resource="http://web.resource.org/cc/Reproduction" />
        <cc:permits
           rdf:resource="http://web.resource.org/cc/Distribution" />
        <cc:permits
           rdf:resource="http://web.resource.org/cc/DerivativeWorks" />
      </cc:License>
    </rdf:RDF>
  </metadata>
  <g
     inkscape:label="Layer 1"
     inkscape:groupmode="layer"
     id="layer1"
     transform="translate(-70.65,-97.730552)">
    <rect
       y="170.49495"
       x="144.86816"
       height="571.29816"
       width="437.29819"
       id="rect2227"
       style="opacity:1;fill:#000000;fill-opacity:1;fill-rule:evenodd;stroke:#000000;stroke-width:4.96730852;stroke-linecap:round;stroke-miterlimit:4;stroke-dasharray:none;stroke-opacity:1;filter:url(#filter3623)" />
    <path
       sodipodi:nodetypes="ccccc"
       id="path4320"
       d="M 153.88374,191.97669 C 149.44275,186.93205 132.29148,167.82346 98.55888,189.57399 C 104.32506,160.56815 138.6059,166.01551 150.50201,174.8231 L 156.23652,179.94544 C 161.24529,187.9716 160.13641,191.75955 153.88374,191.97669 z "
       style="opacity:1;fill:none;fill-opacity:1;fill-rule:evenodd;stroke:#000000;stroke-width:3.23099995;stroke-linecap:round;stroke-miterlimit:4;stroke-dasharray:none;stroke-opacity:1" />
    <rect
       style="opacity:1;fill:#d9bb61;fill-opacity:1;fill-rule:evenodd;stroke:#000000;stroke-width:4.96730852;stroke-linecap:round;stroke-miterlimit:4;stroke-dasharray:none;stroke-opacity:1"
       id="rect4318"
       width="437.29819"
       height="571.29816"
       x="144.86816"
       y="170.49495" />
    <rect
       style="opacity:1;fill:#e5e5e5;fill-opacity:0.98431373;fill-rule:evenodd;stroke:#141111;stroke-width:0.89999998;stroke-linecap:round;stroke-miterlimit:4;stroke-dasharray:none;stroke-opacity:1"
       id="rect4316"
       width="437.31543"
       height="567.31543"
       x="138.85954"
       y="172.48634" />
    <rect
       y="174.48634"
       x="134.85954"
       height="567.31543"
       width="437.31543"
       id="rect4314"
       style="opacity:1;fill:#e5e5e5;fill-opacity:0.98431373;fill-rule:evenodd;stroke:#141111;stroke-width:0.89999998;stroke-linecap:round;stroke-miterlimit:4;stroke-dasharray:none;stroke-opacity:1" />
    <rect
       style="opacity:1;fill:#d9bb61;fill-opacity:1;fill-rule:evenodd;stroke:#000000;stroke-width:4.95006132;stroke-linecap:round;stroke-miterlimit:4;stroke-dasharray:none;stroke-opacity:1"
       id="rect3137"
       width="437.31543"
       height="567.31543"
       x="124.85954"
       y="184.48634" />
    <rect
       style="opacity:1;fill:#e5e5e5;fill-opacity:0.98431373;fill-rule:evenodd;stroke:#141111;stroke-width:0.89999998;stroke-linecap:round;stroke-miterlimit:4;stroke-dasharray:none;stroke-opacity:1"
       id="rect3343"
       width="437.31543"
       height="567.31543"
       x="130.85954"
       y="178.48634" />
    <path
       style="opacity:1;fill:#000000;fill-opacity:1;fill-rule:evenodd;stroke:#000000;stroke-width:5.31444407;stroke-linecap:round;stroke-miterlimit:4;stroke-dasharray:none;stroke-opacity:1"
       d="M 417.30721,191.11957 C 541.88656,299.517 554.88434,310.78938 555.83846,311.61957 L 555.83846,310.71332 L 555.83846,191.11957 L 418.36971,191.11957 L 417.30721,191.11957 z "
       id="rect3155" />
    <rect
       y="184.48634"
       x="124.85954"
       height="567.31543"
       width="437.31543"
       id="rect3261"
       style="opacity:1;fill:#d9bb61;fill-opacity:1;fill-rule:evenodd;stroke:#000000;stroke-width:4.95006132;stroke-linecap:round;stroke-miterlimit:4;stroke-dasharray:none;stroke-opacity:1" />
    <path
       id="path3182"
       d="M 417.30721,745.61957 C 541.88656,637.22214 554.88434,625.94976 555.83846,625.11957 L 555.83846,626.02582 L 555.83846,745.61957 L 418.36971,745.61957 L 417.30721,745.61957 z "
       style="opacity:1;fill:#000000;fill-opacity:1;fill-rule:evenodd;stroke:#000000;stroke-width:5.31444407;stroke-linecap:round;stroke-miterlimit:4;stroke-dasharray:none;stroke-opacity:1" />
    <path
       id="path3263"
       d="M 417.30721,191.11957 C 541.88656,299.517 554.88434,310.78938 555.83846,311.61957 L 555.83846,310.71332 L 555.83846,191.11957 L 418.36971,191.11957 L 417.30721,191.11957 z "
       style="opacity:1;fill:#000000;fill-opacity:1;fill-rule:evenodd;stroke:#000000;stroke-width:5.31444407;stroke-linecap:round;stroke-miterlimit:4;stroke-dasharray:none;stroke-opacity:1" />
    <rect
       style="opacity:1;fill:#000000;fill-opacity:1;fill-rule:evenodd;stroke:#000000;stroke-width:3.23099995;stroke-linecap:round;stroke-miterlimit:4;stroke-dasharray:none;stroke-opacity:1"
       id="rect3184"
       width="42.021141"
       height="567.80042"
       x="124.64998"
       y="184.27679" />
    <path
       style="opacity:1;fill:#000000;fill-opacity:1;fill-rule:evenodd;stroke:#000000;stroke-width:5.31444407;stroke-linecap:round;stroke-miterlimit:4;stroke-dasharray:none;stroke-opacity:1"
       d="M 417.30721,745.61957 C 541.88656,637.22214 554.88434,625.94976 555.83846,625.11957 L 555.83846,626.02582 L 555.83846,745.61957 L 418.36971,745.61957 L 417.30721,745.61957 z "
       id="path3265" />
    <path
       style="opacity:1;fill:none;fill-opacity:1;fill-rule:evenodd;stroke:#000000;stroke-width:3.148242;stroke-linecap:round;stroke-miterlimit:4;stroke-dasharray:none;stroke-opacity:1"
       d="M 98.07768,207.25763 C 113.60944,193.09936 127.86257,191.03304 140.18158,207.25763 L 140.18158,745.284 C 127.55514,733.29839 113.90994,729.98389 98.07768,745.284 L 98.07768,207.25763 z "
       id="rect3186"
       sodipodi:nodetypes="ccccc" />
    <rect
       y="184.27679"
       x="124.64998"
       height="567.80042"
       width="42.021141"
       id="rect3267"
       style="opacity:1;fill:#000000;fill-opacity:1;fill-rule:evenodd;stroke:#000000;stroke-width:3.23099995;stroke-linecap:round;stroke-miterlimit:4;stroke-dasharray:none;stroke-opacity:1" />
    <path
       style="opacity:1;fill:none;fill-opacity:1;fill-rule:evenodd;stroke:#000000;stroke-width:3.23099995;stroke-linecap:round;stroke-miterlimit:4;stroke-dasharray:none;stroke-opacity:1"
       d="M 121.6503,180.86763 C 114.23367,180.62154 106.35409,184.96106 98.11906,192.89888 L 98.11906,205.24263 C 113.87763,193.00553 127.59565,195.05233 140.15031,205.24263 L 140.15031,192.89888 C 134.38712,184.87272 128.1944,181.08477 121.6503,180.86763 z "
       id="path3196"
       sodipodi:nodetypes="cccccc" />
    <rect
       style="opacity:1;fill:#000000;fill-opacity:1;fill-rule:evenodd;stroke:#000000;stroke-width:2.77026916;stroke-linecap:round;stroke-miterlimit:4;stroke-dasharray:none;stroke-opacity:1"
       id="rect3269"
       width="30.866371"
       height="568.26117"
       x="136.03513"
       y="184.04643" />
    <path
       sodipodi:nodetypes="cccccc"
       id="path3203"
       d="M 121.6503,210.86763 C 114.23367,210.62154 106.35409,214.96106 98.11906,222.89888 L 98.11906,235.24263 C 113.87763,223.00553 127.59565,225.05233 140.15031,235.24263 L 140.15031,222.89888 C 134.38712,214.87272 128.1944,211.08477 121.6503,210.86763 z "
       style="opacity:1;fill:none;fill-opacity:1;fill-rule:evenodd;stroke:#000000;stroke-width:3.23099995;stroke-linecap:round;stroke-miterlimit:4;stroke-dasharray:none;stroke-opacity:1" />
    <rect
       ry="34.9035"
       y="304.27679"
       x="214.64999"
       height="131.26176"
       width="266.15265"
       id="rect3271"
       style="opacity:1;fill:none;fill-opacity:1;fill-rule:evenodd;stroke:#000000;stroke-width:3.23099995;stroke-linecap:round;stroke-miterlimit:4;stroke-dasharray:none;stroke-opacity:1" />
    <path
       sodipodi:nodetypes="cccccc"
       id="path3205"
       d="M 121.6503,240.86763 C 114.23367,240.62154 106.35409,244.96106 98.11906,252.89888 L 98.11906,265.24263 C 113.87763,253.00553 127.59565,255.05233 140.15031,265.24263 L 140.15031,252.89888 C 134.38712,244.87272 128.1944,241.08477 121.6503,240.86763 z "
       style="opacity:1;fill:none;fill-opacity:1;fill-rule:evenodd;stroke:#000000;stroke-width:3.23099995;stroke-linecap:round;stroke-miterlimit:4;stroke-dasharray:none;stroke-opacity:1" />
    <rect
       style="opacity:1;fill:#000000;fill-opacity:1;fill-rule:evenodd;stroke:#000000;stroke-width:2.35414481;stroke-linecap:round;stroke-miterlimit:4;stroke-dasharray:none;stroke-opacity:1"
       id="rect3273"
       width="217.68318"
       height="85.199425"
       x="240.69009"
       y="326.70618"
       ry="22.655174" />
    <path
       style="opacity:1;fill:none;fill-opacity:1;fill-rule:evenodd;stroke:#000000;stroke-width:3.23099995;stroke-linecap:round;stroke-miterlimit:4;stroke-dasharray:none;stroke-opacity:1"
       d="M 121.6503,270.86763 C 114.23367,270.62154 106.35409,274.96106 98.11906,282.89888 L 98.11906,295.24263 C 113.87763,283.00553 127.59565,285.05233 140.15031,295.24263 L 140.15031,282.89888 C 134.38712,274.87272 128.1944,271.08477 121.6503,270.86763 z "
       id="path3207"
       sodipodi:nodetypes="cccccc" />
    <path
       sodipodi:nodetypes="cccccc"
       id="path3209"
       d="M 121.6503,304.86763 C 114.23367,304.62154 106.35409,308.96106 98.11906,316.89888 L 98.11906,329.24263 C 113.87763,317.00553 127.59565,319.05233 140.15031,329.24263 L 140.15031,316.89888 C 134.38712,308.87272 128.1944,305.08477 121.6503,304.86763 z "
       style="opacity:1;fill:none;fill-opacity:1;fill-rule:evenodd;stroke:#000000;stroke-width:3.23099995;stroke-linecap:round;stroke-miterlimit:4;stroke-dasharray:none;stroke-opacity:1" />
    <path
       style="opacity:1;fill:none;fill-opacity:1;fill-rule:evenodd;stroke:#000000;stroke-width:3.23099995;stroke-linecap:round;stroke-miterlimit:4;stroke-dasharray:none;stroke-opacity:1"
       d="M 121.6503,334.86763 C 114.23367,334.62154 106.35409,338.96106 98.11906,346.89888 L 98.11906,359.24263 C 113.87763,347.00553 127.59565,349.05233 140.15031,359.24263 L 140.15031,346.89888 C 134.38712,338.87272 128.1944,335.08477 121.6503,334.86763 z "
       id="path3211"
       sodipodi:nodetypes="cccccc" />
    <path
       style="opacity:1;fill:none;fill-opacity:1;fill-rule:evenodd;stroke:#000000;stroke-width:3.23099995;stroke-linecap:round;stroke-miterlimit:4;stroke-dasharray:none;stroke-opacity:1"
       d="M 121.6503,364.86763 C 114.23367,364.62154 106.35409,368.96106 98.11906,376.89888 L 98.11906,389.24263 C 113.87763,377.00553 127.59565,379.05233 140.15031,389.24263 L 140.15031,376.89888 C 134.38712,368.87272 128.1944,365.08477 121.6503,364.86763 z "
       id="path3213"
       sodipodi:nodetypes="cccccc" />
    <path
       sodipodi:nodetypes="cccccc"
       id="path3215"
       d="M 121.6503,394.86763 C 114.23367,394.62154 106.35409,398.96106 98.11906,406.89888 L 98.11906,419.24263 C 113.87763,407.00553 127.59565,409.05233 140.15031,419.24263 L 140.15031,406.89888 C 134.38712,398.87272 128.1944,395.08477 121.6503,394.86763 z "
       style="opacity:1;fill:none;fill-opacity:1;fill-rule:evenodd;stroke:#000000;stroke-width:3.23099995;stroke-linecap:round;stroke-miterlimit:4;stroke-dasharray:none;stroke-opacity:1" />
    <path
       sodipodi:nodetypes="cccccc"
       id="path3217"
       d="M 122.06294,427.19214 C 114.6463,426.94605 106.76672,431.28557 98.53169,439.22339 L 98.53169,451.56714 C 114.29026,439.33004 128.00828,441.37684 140.56294,451.56714 L 140.56294,439.22339 C 134.79975,431.19723 128.60703,427.40928 122.06294,427.19214 z "
       style="opacity:1;fill:none;fill-opacity:1;fill-rule:evenodd;stroke:#000000;stroke-width:3.23099995;stroke-linecap:round;stroke-miterlimit:4;stroke-dasharray:none;stroke-opacity:1" />
    <path
       style="opacity:1;fill:none;fill-opacity:1;fill-rule:evenodd;stroke:#000000;stroke-width:3.23099995;stroke-linecap:round;stroke-miterlimit:4;stroke-dasharray:none;stroke-opacity:1"
       d="M 122.06294,457.19214 C 114.6463,456.94605 106.76672,461.28557 98.53169,469.22339 L 98.53169,481.56714 C 114.29026,469.33004 128.00828,471.37684 140.56294,481.56714 L 140.56294,469.22339 C 134.79975,461.19723 128.60703,457.40928 122.06294,457.19214 z "
       id="path3219"
       sodipodi:nodetypes="cccccc" />
    <path
       style="opacity:1;fill:none;fill-opacity:1;fill-rule:evenodd;stroke:#000000;stroke-width:3.23099995;stroke-linecap:round;stroke-miterlimit:4;stroke-dasharray:none;stroke-opacity:1"
       d="M 122.06294,487.19214 C 114.6463,486.94605 106.76672,491.28557 98.53169,499.22339 L 98.53169,511.56714 C 114.29026,499.33004 128.00828,501.37684 140.56294,511.56714 L 140.56294,499.22339 C 134.79975,491.19723 128.60703,487.40928 122.06294,487.19214 z "
       id="path3221"
       sodipodi:nodetypes="cccccc" />
    <path
       sodipodi:nodetypes="cccccc"
       id="path3223"
       d="M 122.06294,517.19214 C 114.6463,516.94605 106.76672,521.28557 98.53169,529.22339 L 98.53169,541.56714 C 114.29026,529.33004 128.00828,531.37684 140.56294,541.56714 L 140.56294,529.22339 C 134.79975,521.19723 128.60703,517.40928 122.06294,517.19214 z "
       style="opacity:1;fill:none;fill-opacity:1;fill-rule:evenodd;stroke:#000000;stroke-width:3.23099995;stroke-linecap:round;stroke-miterlimit:4;stroke-dasharray:none;stroke-opacity:1" />
    <path
       style="opacity:1;fill:none;fill-opacity:1;fill-rule:evenodd;stroke:#000000;stroke-width:3.23099995;stroke-linecap:round;stroke-miterlimit:4;stroke-dasharray:none;stroke-opacity:1"
       d="M 122.06294,551.19214 C 114.6463,550.94605 106.76672,555.28557 98.53169,563.22339 L 98.53169,575.56714 C 114.29026,563.33004 128.00828,565.37684 140.56294,575.56714 L 140.56294,563.22339 C 134.79975,555.19723 128.60703,551.40928 122.06294,551.19214 z "
       id="path3225"
       sodipodi:nodetypes="cccccc" />
    <path
       sodipodi:nodetypes="cccccc"
       id="path3227"
       d="M 122.06294,581.19214 C 114.6463,580.94605 106.76672,585.28557 98.53169,593.22339 L 98.53169,605.56714 C 114.29026,593.33004 128.00828,595.37684 140.56294,605.56714 L 140.56294,593.22339 C 134.79975,585.19723 128.60703,581.40928 122.06294,581.19214 z "
       style="opacity:1;fill:none;fill-opacity:1;fill-rule:evenodd;stroke:#000000;stroke-width:3.23099995;stroke-linecap:round;stroke-miterlimit:4;stroke-dasharray:none;stroke-opacity:1" />
    <path
       sodipodi:nodetypes="cccccc"
       id="path3229"
       d="M 122.06294,611.19214 C 114.6463,610.94605 106.76672,615.28557 98.53169,623.22339 L 98.53169,635.56714 C 114.29026,623.33004 128.00828,625.37684 140.56294,635.56714 L 140.56294,623.22339 C 134.79975,615.19723 128.60703,611.40928 122.06294,611.19214 z "
       style="opacity:1;fill:none;fill-opacity:1;fill-rule:evenodd;stroke:#000000;stroke-width:3.23099995;stroke-linecap:round;stroke-miterlimit:4;stroke-dasharray:none;stroke-opacity:1" />
    <path
       style="opacity:1;fill:none;fill-opacity:1;fill-rule:evenodd;stroke:#000000;stroke-width:3.23099995;stroke-linecap:round;stroke-miterlimit:4;stroke-dasharray:none;stroke-opacity:1"
       d="M 122.06294,641.19214 C 114.6463,640.94605 106.76672,645.28557 98.53169,653.22339 L 98.53169,665.56714 C 114.29026,653.33004 128.00828,655.37684 140.56294,665.56714 L 140.56294,653.22339 C 134.79975,645.19723 128.60703,641.40928 122.06294,641.19214 z "
       id="path3231"
       sodipodi:nodetypes="cccccc" />
    <path
       style="opacity:1;fill:none;fill-opacity:1;fill-rule:evenodd;stroke:#000000;stroke-width:3.23099995;stroke-linecap:round;stroke-miterlimit:4;stroke-dasharray:none;stroke-opacity:1"
       d="M 121.6503,670.86762 C 114.23367,670.62153 106.35409,674.96105 98.11906,682.89887 L 98.11906,695.24262 C 113.87763,683.00552 127.59565,685.05232 140.15031,695.24262 L 140.15031,682.89887 C 134.38712,674.87271 128.1944,671.08476 121.6503,670.86762 z "
       id="path3233"
       sodipodi:nodetypes="cccccc" />
    <path
       style="opacity:1;fill:none;fill-opacity:1;fill-rule:evenodd;stroke:#000000;stroke-width:3.23099995;stroke-linecap:round;stroke-miterlimit:4;stroke-dasharray:none;stroke-opacity:1"
       d="M 121.6503,700.86762 C 114.23367,700.62153 106.35409,704.96105 98.11906,712.89887 L 98.11906,725.24262 C 113.87763,713.00552 127.59565,715.05232 140.15031,725.24262 L 140.15031,712.89887 C 134.38712,704.87271 128.1944,701.08476 121.6503,700.86762 z "
       id="path3235"
       sodipodi:nodetypes="cccccc" />
    <path
       sodipodi:nodetypes="cccccc"
       id="path3239"
       d="M 121.6503,762.01129 C 87.283434,752.15104 105.14954,750.69608 96.91549,742.75862 L 98.11906,744.8577 C 123.18127,719.88022 130.34747,744.04074 140.15031,744.8577 L 140.15031,747.5729 C 134.38712,755.59906 128.1944,761.79415 121.6503,762.01129 z "
       style="opacity:1;fill:none;fill-opacity:1;fill-rule:evenodd;stroke:#000000;stroke-width:3.23099995;stroke-linecap:round;stroke-miterlimit:4;stroke-dasharray:none;stroke-opacity:1" />
    <rect
       y="184.04643"
       x="136.03513"
       height="568.26117"
       width="30.866371"
       id="rect3241"
       style="opacity:1;fill:#000000;fill-opacity:1;fill-rule:evenodd;stroke:#000000;stroke-width:2.77026916;stroke-linecap:round;stroke-miterlimit:4;stroke-dasharray:none;stroke-opacity:1" />
    <rect
       style="opacity:1;fill:#e7e7d9;fill-opacity:1;fill-rule:evenodd;stroke:#000000;stroke-width:3.23099995;stroke-linecap:round;stroke-miterlimit:4;stroke-dasharray:none;stroke-opacity:1"
       id="rect3243"
       width="266.15265"
       height="131.26176"
       x="214.64999"
       y="304.27679"
       ry="34.9035" />
    <rect
       ry="27.13571"
       y="319.48477"
       x="231.06154"
       height="102.04939"
       width="233.32957"
       id="rect3245"
       style="opacity:1;fill:#999999;fill-opacity:1;fill-rule:evenodd;stroke:none;stroke-width:2.35414481;stroke-linecap:round;stroke-miterlimit:4;stroke-dasharray:none;stroke-opacity:1" />
    <path
       style="font-size:19.05078125px;font-style:normal;font-variant:normal;font-weight:normal;font-stretch:normal;text-align:start;line-height:125%;writing-mode:lr-tb;text-anchor:start;fill:#000000;fill-opacity:1;stroke:none;stroke-width:1px;stroke-linecap:butt;stroke-linejoin:miter;stroke-opacity:1;font-family:Bitstream Vera Serif"
       d="M 255.75398,334.27681 L 260.32698,334.27681 L 263.96411,342.68985 L 266.10172,334.27681 L 269.97282,334.27681 L 266.87807,346.42446 L 262.30507,346.42446 L 258.66794,338.01142 L 256.54096,346.42446 L 252.65923,346.42446 L 255.75398,334.27681 M 278.61899,339.17493 C 277.63349,339.17493 276.82168,339.51666 276.1836,340.20012 C 275.5455,340.88358 275.22645,341.75417 275.22646,342.8119 C 275.22645,343.38688 275.39662,343.82624 275.73693,344.13 C 276.08433,344.42834 276.58772,344.5775 277.24708,344.5775 C 278.23259,344.5775 279.04438,344.23578 279.68247,343.55232 C 280.32056,342.86344 280.63961,341.98742 280.63962,340.92426 C 280.63961,340.35471 280.4659,339.92077 280.11851,339.62243 C 279.77818,339.3241 279.27834,339.17493 278.61899,339.17493 M 278.9274,337.09201 C 280.69987,337.09202 282.09304,337.43646 283.10691,338.12533 C 284.12075,338.81422 284.62769,339.75262 284.6277,340.94053 C 284.62769,341.62942 284.46816,342.29931 284.14913,342.95022 C 283.83008,343.59571 283.36568,344.18696 282.75596,344.72396 C 282.03278,345.36402 281.17845,345.84678 280.19296,346.17224 C 279.20744,346.49769 278.10851,346.66042 276.89613,346.66042 C 275.14492,346.66042 273.76239,346.31598 272.74853,345.6271 C 271.74176,344.93821 271.23837,343.99982 271.23837,342.8119 C 271.23837,342.12845 271.40145,341.46126 271.72758,340.81035 C 272.05372,340.15401 272.52165,339.55463 273.13139,339.0122 C 273.84038,338.38299 274.68407,337.90565 275.66248,337.58019 C 276.64799,337.25474 277.73629,337.09202 278.9274,337.09201 M 293.2207,334.72432 L 292.57197,337.31169 L 296.46434,337.31169 L 295.92196,339.39461 L 292.02959,339.39461 L 291.05118,343.25127 C 291.02281,343.33805 291.00155,343.41128 290.98737,343.47095 C 290.98027,343.53062 290.97673,343.58758 290.97674,343.64181 C 290.97673,343.89133 291.08307,344.07034 291.29578,344.17882 C 291.51556,344.2873 291.88069,344.34155 292.39117,344.34154 L 294.35863,344.34154 L 293.81625,346.42446 L 290.61514,346.42446 C 289.46658,346.42446 288.59097,346.24004 287.98832,345.87119 C 287.38568,345.50234 287.08436,344.97076 287.08436,344.27646 C 287.08436,344.12458 287.09499,343.96185 287.11627,343.78827 C 287.13753,343.6147 287.16944,343.43841 287.21198,343.2594 L 288.19039,339.39461 L 286.31865,339.39461 L 286.83976,337.31169 L 288.73277,337.31169 L 289.39214,334.72432 L 293.2207,334.72432 M 309.50271,342.2098 L 309.3751,342.67359 L 300.46305,342.67359 C 300.46305,342.70613 300.45951,342.75495 300.45242,342.82003 C 300.44533,342.8797 300.44179,342.92582 300.44179,342.95836 C 300.44179,343.54961 300.6722,343.99169 301.13305,344.28459 C 301.60098,344.5775 302.29934,344.72396 303.22813,344.72396 C 304.02927,344.72396 304.87298,344.63174 305.75923,344.44732 C 306.65255,344.2629 307.58842,343.98897 308.56684,343.62555 L 307.98193,345.88746 C 307.05313,346.14783 306.12789,346.34039 305.20622,346.46515 C 304.29161,346.59533 303.35928,346.66042 302.40924,346.66042 C 300.55168,346.66042 299.11596,346.33226 298.10211,345.67592 C 297.09534,345.01958 296.59195,344.09203 296.59196,342.89326 C 296.59195,342.19897 296.75148,341.52635 297.07052,340.87543 C 297.39666,340.21911 297.86814,339.61972 298.48497,339.07729 C 299.21522,338.42639 300.08728,337.93278 301.10115,337.59646 C 302.12209,337.26017 303.25293,337.09202 304.49367,337.09201 C 306.10308,337.09202 307.37926,337.42019 308.32223,338.07651 C 309.27227,338.73286 309.7473,339.61701 309.74731,340.72898 C 309.7473,340.94596 309.72602,341.17649 309.68351,341.42058 C 309.64804,341.65924 309.58778,341.92232 309.50271,342.2098 M 305.90812,340.87543 C 305.92937,340.80493 305.94356,340.73441 305.95066,340.66389 C 305.96483,340.58795 305.97191,340.51473 305.97193,340.44421 C 305.97191,340.01027 305.80176,339.66583 305.46145,339.41088 C 305.12112,339.15595 304.66028,339.02848 304.07892,339.02847 C 303.33446,339.02848 302.69992,339.18579 302.17527,339.50038 C 301.6577,339.80957 301.26067,340.26792 300.98417,340.87543 L 305.90812,340.87543 M 322.76442,337.59646 L 322.20077,339.85839 C 321.45632,339.58718 320.71542,339.38106 319.97808,339.24002 C 319.24071,339.09899 318.54236,339.02848 317.88301,339.02847 C 317.13146,339.02848 316.55009,339.10442 316.13889,339.25629 C 315.73475,339.40275 315.53269,339.6143 315.5327,339.89093 C 315.53269,340.05366 315.64612,340.18385 315.87301,340.28148 C 316.09988,340.37912 316.54654,340.48219 317.213,340.59066 L 317.90427,340.6883 C 319.44278,340.93782 320.52045,341.26056 321.13728,341.65653 C 321.7541,342.04709 322.06251,342.59222 322.06252,343.29195 C 322.06251,344.34969 321.52013,345.17689 320.43538,345.77355 C 319.35062,346.3648 317.83337,346.66042 315.88365,346.66042 C 315.0683,346.66042 314.23523,346.6116 313.38444,346.51397 C 312.53365,346.41633 311.66514,346.26987 310.7789,346.0746 L 311.35318,343.78827 C 312.0409,344.09745 312.77471,344.3307 313.55461,344.488 C 314.34158,344.64531 315.14628,344.72396 315.96872,344.72396 C 316.76988,344.72396 317.37252,344.65073 317.77666,344.50428 C 318.18077,344.35782 318.38283,344.14357 318.38285,343.8615 C 318.38283,343.66623 318.2694,343.51435 318.04253,343.40586 C 317.81565,343.29737 317.3477,343.18618 316.63873,343.07227 L 315.94746,342.97463 C 314.58618,342.75766 313.61487,342.43763 313.03349,342.01453 C 312.45211,341.59145 312.16144,341.00562 312.16144,340.25707 C 312.16144,339.24274 312.66128,338.46165 313.66095,337.91378 C 314.66772,337.36594 316.10343,337.09202 317.96808,337.09201 C 318.78341,337.09202 319.58458,337.13541 320.37157,337.22219 C 321.16563,337.30356 321.96325,337.42832 322.76442,337.59646"
       id="text4324" />
  </g>
</svg>
