<?xml version="1.0" encoding="UTF-8" standalone="no"?>
<svg
   xmlns:dc="http://purl.org/dc/elements/1.1/"
   xmlns:cc="http://creativecommons.org/ns#"
   xmlns:rdf="http://www.w3.org/1999/02/22-rdf-syntax-ns#"
   xmlns:svg="http://www.w3.org/2000/svg"
   xmlns="http://www.w3.org/2000/svg"
   xmlns:xlink="http://www.w3.org/1999/xlink"
   xmlns:sodipodi="http://sodipodi.sourceforge.net/DTD/sodipodi-0.dtd"
   xmlns:inkscape="http://www.inkscape.org/namespaces/inkscape"
   id="svg2994"
   viewBox="0 0 32 32"
   version="1.1"
   inkscape:version="0.48.4 r9939"
   width="100%"
   height="100%"
   sodipodi:docname="print_preview.svg"
   inkscape:export-filename="C:\data\ws\joffice_migration_1\com.joffice.client.resources\src\com\joffice\ui\resources\images\tools\print_preview_32.png"
   inkscape:export-xdpi="90"
   inkscape:export-ydpi="90">
  <sodipodi:namedview
     pagecolor="#ffffff"
     bordercolor="#666666"
     borderopacity="1"
     objecttolerance="10"
     gridtolerance="10"
     guidetolerance="10"
     inkscape:pageopacity="0"
     inkscape:pageshadow="2"
     inkscape:window-width="1842"
     inkscape:window-height="1051"
     id="namedview95"
     showgrid="false"
     inkscape:zoom="9.8333333"
     inkscape:cx="6.319752"
     inkscape:cy="21.140781"
     inkscape:window-x="69"
     inkscape:window-y="-9"
     inkscape:window-maximized="1"
     inkscape:current-layer="svg2994" />
  <defs
     id="defs3">
    <radialGradient
       id="radialGradient5031"
       xlink:href="#linearGradient5060"
       gradientUnits="userSpaceOnUse"
       cy="486.64999"
       cx="605.71002"
       gradientTransform="matrix(-2.7744,0,0,1.9697,112.76,-872.89)"
       r="117.14" />
    <linearGradient
       id="linearGradient5060">
      <stop
         id="stop5062"
         offset="0" />
      <stop
         id="stop5064"
         stop-opacity="0"
         offset="1" />
    </linearGradient>
    <radialGradient
       id="radialGradient5029"
       xlink:href="#linearGradient5060"
       gradientUnits="userSpaceOnUse"
       cy="486.64999"
       cx="605.71002"
       gradientTransform="matrix(2.7744,0,0,1.9697,-1891.6,-872.89)"
       r="117.14" />
    <linearGradient
       id="linearGradient5027"
       x1="302.85999"
       gradientUnits="userSpaceOnUse"
       y1="366.64999"
       gradientTransform="matrix(2.7744,0,0,1.9697,-1892.2,-872.89)"
       x2="302.85999"
       y2="609.51001">
      <stop
         id="stop5050"
         stop-opacity="0"
         offset="0" />
      <stop
         id="stop5056"
         offset=".5" />
      <stop
         id="stop5052"
         stop-opacity="0"
         offset="1" />
    </linearGradient>
    <radialGradient
       id="radialGradient1876"
       gradientUnits="userSpaceOnUse"
       cy="13.078"
       cx="15.414"
       gradientTransform="matrix(2.593,0,0,2.2521,-25.06,-18.941)"
       r="6.6561999">
      <stop
         id="stop4469"
         stop-color="#fff"
         offset="0" />
      <stop
         id="stop4471"
         stop-color="#fff"
         stop-opacity=".24762"
         offset="1" />
    </radialGradient>
    <radialGradient
       id="radialGradient4460"
       gradientUnits="userSpaceOnUse"
       cy="21.818001"
       cx="18.240999"
       r="8.3085003">
      <stop
         id="stop4456"
         stop-color="#729fcf"
         stop-opacity=".20784"
         offset="0" />
      <stop
         id="stop4458"
         stop-color="#729fcf"
         stop-opacity=".67619"
         offset="1" />
    </radialGradient>
    <linearGradient
       id="linearGradient2372"
       y2="25.743"
       gradientUnits="userSpaceOnUse"
       x2="17.500999"
       y1="13.602"
       x1="18.292999">
      <stop
         id="stop2368"
         stop-color="#fff"
         offset="0" />
      <stop
         id="stop2374"
         stop-color="#fff"
         stop-opacity=".21905"
         offset=".5" />
      <stop
         id="stop2370"
         stop-color="#fff"
         offset="1" />
    </linearGradient>
    <linearGradient
       id="linearGradient1883"
       x1="30.656"
       gradientUnits="userSpaceOnUse"
       y1="34"
       gradientTransform="matrix(1.3346,0,0,1.2913,-6.9738,-7.4607)"
       x2="33.219002"
       y2="31.062">
      <stop
         id="stop4442"
         stop-color="#7d7d7d"
         offset="0" />
      <stop
         id="stop4448"
         stop-color="#b1b1b1"
         offset=".5" />
      <stop
         id="stop4444"
         stop-color="#686868"
         offset="1" />
    </linearGradient>
    <linearGradient
       id="linearGradient1887"
       y2="30.558001"
       gradientUnits="userSpaceOnUse"
       y1="26.58"
       x2="31.336"
       x1="27.365999">
      <stop
         id="stop2848"
         stop-color="#8a8a8a"
         offset="0" />
      <stop
         id="stop2850"
         stop-color="#484848"
         offset="1" />
    </linearGradient>
    <radialGradient
       id="radialGradient1433"
       gradientUnits="userSpaceOnUse"
       cy="26.926001"
       cx="9.1295004"
       r="2.1227">
      <stop
         id="stop4700"
         stop-color="#fffffd"
         offset="0" />
      <stop
         id="stop4706"
         stop-color="#bbbbb9"
         offset=".5" />
      <stop
         id="stop4702"
         offset="1" />
    </radialGradient>
    <linearGradient
       id="linearGradient1447"
       x1="9.8697996"
       gradientUnits="userSpaceOnUse"
       x2="9.9127998"
       gradientTransform="matrix(2.7721,0,0,0.36074,0.61872,2.8839)"
       y1="57.228001"
       y2="72.064003">
      <stop
         id="stop4735"
         stop-opacity=".23711"
         offset="0" />
      <stop
         id="stop4737"
         stop-opacity="0"
         offset="1" />
    </linearGradient>
    <linearGradient
       id="linearGradient1451"
       x1="10.338"
       gradientUnits="userSpaceOnUse"
       x2="10.338"
       gradientTransform="matrix(2.3698,0,0,0.42197,0,2)"
       y1="64.652"
       y2="54.136002">
      <stop
         id="stop4682"
         stop-color="#f7f6f5"
         offset="0" />
      <stop
         id="stop4684"
         stop-color="#f7f6f5"
         stop-opacity="0"
         offset="1" />
    </linearGradient>
    <linearGradient
       id="linearGradient1453"
       x1="9.7316999"
       gradientUnits="userSpaceOnUse"
       x2="9.7053003"
       gradientTransform="matrix(2.3698,0,0,0.42197,0,2)"
       y1="70.724998"
       y2="62.282001">
      <stop
         id="stop4690"
         stop-color="#666"
         offset="0" />
      <stop
         id="stop4692"
         stop-opacity="0"
         offset="1" />
    </linearGradient>
    <linearGradient
       id="linearGradient1456"
       x1="20.771"
       gradientUnits="userSpaceOnUse"
       x2="20.718"
       gradientTransform="matrix(1.1965,0,0,0.85356,-0.12246,2.0345)"
       y1="25.139999"
       y2="19.337">
      <stop
         id="stop15664"
         stop-color="#fff"
         stop-opacity="0"
         offset="0" />
      <stop
         id="stop15666"
         stop-color="#f8f8f8"
         offset="1" />
    </linearGradient>
    <linearGradient
       id="linearGradient1459"
       x1="25.056999"
       gradientUnits="userSpaceOnUse"
       x2="24.790001"
       gradientTransform="matrix(0.94529,0,0,1.0755,0.054601,4.1057)"
       y1="3.6784999"
       y2="25.247">
      <stop
         id="stop260"
         stop-color="#e0e0e0"
         offset="0" />
      <stop
         id="stop4886"
         stop-color="#fff"
         offset=".40547" />
      <stop
         id="stop4884"
         stop-color="#cdcdcd"
         offset=".53448" />
      <stop
         id="stop261"
         stop-color="#494949"
         offset="1" />
    </linearGradient>
    <linearGradient
       id="linearGradient1464"
       x1="15.388"
       gradientUnits="userSpaceOnUse"
       x2="15.488"
       gradientTransform="matrix(1.4902,0,0,0.66771,0.088951,2.0584)"
       y1="32.539001"
       y2="58.831001">
      <stop
         id="stop4764"
         stop-color="#fff"
         stop-opacity=".12371"
         offset="0" />
      <stop
         id="stop4768"
         stop-color="#fff"
         offset=".10345" />
      <stop
         id="stop4766"
         stop-color="#fff"
         stop-opacity="0"
         offset="1" />
    </linearGradient>
    <linearGradient
       id="linearGradient1468"
       x1="1.8456"
       gradientUnits="userSpaceOnUse"
       x2="18.972"
       gradientTransform="matrix(2.2918,0,0,0.43427,0.088552,2)"
       y1="88.294998"
       y2="88.294998">
      <stop
         id="stop4743"
         stop-color="#dcdcda"
         offset="0" />
      <stop
         id="stop4745"
         stop-color="#bab9b7"
         offset="1" />
    </linearGradient>
    <linearGradient
       id="linearGradient1471"
       x1="1.8456"
       gradientUnits="userSpaceOnUse"
       x2="18.972"
       gradientTransform="matrix(2.3027,0,0,0.43427,0,0.875)"
       y1="88.294998"
       y2="88.294998">
      <stop
         id="stop4670"
         stop-color="#8e8d87"
         offset="0" />
      <stop
         id="stop4676"
         stop-color="#cbc9c1"
         offset=".27586" />
      <stop
         id="stop4672"
         stop-color="#8e8d87"
         offset="1" />
    </linearGradient>
    <linearGradient
       inkscape:collect="always"
       xlink:href="#linearGradient1471"
       id="linearGradient3148"
       gradientUnits="userSpaceOnUse"
       gradientTransform="matrix(2.3027,0,0,0.43427,0,-15.125)"
       x1="1.8456"
       y1="88.294998"
       x2="18.972"
       y2="88.294998" />
    <linearGradient
       inkscape:collect="always"
       xlink:href="#linearGradient1468"
       id="linearGradient3150"
       gradientUnits="userSpaceOnUse"
       gradientTransform="matrix(2.2918,0,0,0.43427,0.088552,-14)"
       x1="1.8456"
       y1="88.294998"
       x2="18.972"
       y2="88.294998" />
    <linearGradient
       inkscape:collect="always"
       xlink:href="#linearGradient1464"
       id="linearGradient3152"
       gradientUnits="userSpaceOnUse"
       gradientTransform="matrix(1.4902,0,0,0.66771,0.088951,-13.9416)"
       x1="15.388"
       y1="32.539001"
       x2="15.488"
       y2="58.831001" />
    <linearGradient
       inkscape:collect="always"
       xlink:href="#linearGradient1459"
       id="linearGradient3154"
       gradientUnits="userSpaceOnUse"
       gradientTransform="matrix(0.94529,0,0,1.0755,0.054601,-11.8943)"
       x1="25.056999"
       y1="3.6784999"
       x2="24.790001"
       y2="25.247" />
    <linearGradient
       inkscape:collect="always"
       xlink:href="#linearGradient1456"
       id="linearGradient3156"
       gradientUnits="userSpaceOnUse"
       gradientTransform="matrix(1.1965,0,0,0.85356,-0.12246,-13.9655)"
       x1="20.771"
       y1="25.139999"
       x2="20.718"
       y2="19.337" />
    <linearGradient
       inkscape:collect="always"
       xlink:href="#linearGradient1451"
       id="linearGradient3158"
       gradientUnits="userSpaceOnUse"
       gradientTransform="matrix(2.3698,0,0,0.42197,0,-14)"
       x1="10.338"
       y1="64.652"
       x2="10.338"
       y2="54.136002" />
    <linearGradient
       inkscape:collect="always"
       xlink:href="#linearGradient1453"
       id="linearGradient3160"
       gradientUnits="userSpaceOnUse"
       gradientTransform="matrix(2.3698,0,0,0.42197,0,-14)"
       x1="9.7316999"
       y1="70.724998"
       x2="9.7053003"
       y2="62.282001" />
    <radialGradient
       inkscape:collect="always"
       xlink:href="#radialGradient1433"
       id="radialGradient3162"
       gradientUnits="userSpaceOnUse"
       gradientTransform="translate(0,-14)"
       cx="9.1295004"
       cy="26.926001"
       r="2.1227" />
    <linearGradient
       inkscape:collect="always"
       xlink:href="#linearGradient1447"
       id="linearGradient3164"
       gradientUnits="userSpaceOnUse"
       gradientTransform="matrix(2.7721,0,0,0.36074,0.61872,-13.1161)"
       x1="9.8697996"
       y1="57.228001"
       x2="9.9127998"
       y2="72.064003" />
    <linearGradient
       inkscape:collect="always"
       xlink:href="#linearGradient1887"
       id="linearGradient3166"
       gradientUnits="userSpaceOnUse"
       x1="27.365999"
       y1="26.58"
       x2="31.336"
       y2="30.558001" />
    <linearGradient
       inkscape:collect="always"
       xlink:href="#linearGradient1883"
       id="linearGradient3168"
       gradientUnits="userSpaceOnUse"
       gradientTransform="matrix(1.3346,0,0,1.2913,-6.9738,-7.4607)"
       x1="30.656"
       y1="34"
       x2="33.219002"
       y2="31.062" />
    <linearGradient
       inkscape:collect="always"
       xlink:href="#linearGradient2372"
       id="linearGradient3170"
       gradientUnits="userSpaceOnUse"
       x1="18.292999"
       y1="13.602"
       x2="17.500999"
       y2="25.743" />
    <radialGradient
       inkscape:collect="always"
       xlink:href="#radialGradient4460"
       id="radialGradient3172"
       gradientUnits="userSpaceOnUse"
       cx="18.240999"
       cy="21.818001"
       r="8.3085003" />
    <radialGradient
       inkscape:collect="always"
       xlink:href="#radialGradient1876"
       id="radialGradient3174"
       gradientUnits="userSpaceOnUse"
       gradientTransform="matrix(2.593,0,0,2.2521,-25.06,-18.941)"
       cx="15.414"
       cy="13.078"
       r="6.6561999" />
    <linearGradient
       inkscape:collect="always"
       xlink:href="#linearGradient1471"
       id="linearGradient3230"
       gradientUnits="userSpaceOnUse"
       gradientTransform="matrix(2.3027,0,0,0.43427,0,-15.125)"
       x1="1.8456"
       y1="88.294998"
       x2="18.972"
       y2="88.294998" />
    <linearGradient
       inkscape:collect="always"
       xlink:href="#linearGradient1468"
       id="linearGradient3232"
       gradientUnits="userSpaceOnUse"
       gradientTransform="matrix(2.2918,0,0,0.43427,0.088552,-14)"
       x1="1.8456"
       y1="88.294998"
       x2="18.972"
       y2="88.294998" />
    <linearGradient
       inkscape:collect="always"
       xlink:href="#linearGradient1464"
       id="linearGradient3234"
       gradientUnits="userSpaceOnUse"
       gradientTransform="matrix(1.4902,0,0,0.66771,0.088951,-13.9416)"
       x1="15.388"
       y1="32.539001"
       x2="15.488"
       y2="58.831001" />
    <linearGradient
       inkscape:collect="always"
       xlink:href="#linearGradient1459"
       id="linearGradient3236"
       gradientUnits="userSpaceOnUse"
       gradientTransform="matrix(0.94529,0,0,1.0755,0.054601,-11.8943)"
       x1="25.056999"
       y1="3.6784999"
       x2="24.790001"
       y2="25.247" />
    <linearGradient
       inkscape:collect="always"
       xlink:href="#linearGradient1456"
       id="linearGradient3238"
       gradientUnits="userSpaceOnUse"
       gradientTransform="matrix(1.1965,0,0,0.85356,-0.12246,-13.9655)"
       x1="20.771"
       y1="25.139999"
       x2="20.718"
       y2="19.337" />
    <linearGradient
       inkscape:collect="always"
       xlink:href="#linearGradient1451"
       id="linearGradient3240"
       gradientUnits="userSpaceOnUse"
       gradientTransform="matrix(2.3698,0,0,0.42197,0,-14)"
       x1="10.338"
       y1="64.652"
       x2="10.338"
       y2="54.136002" />
    <linearGradient
       inkscape:collect="always"
       xlink:href="#linearGradient1453"
       id="linearGradient3242"
       gradientUnits="userSpaceOnUse"
       gradientTransform="matrix(2.3698,0,0,0.42197,0,-14)"
       x1="9.7316999"
       y1="70.724998"
       x2="9.7053003"
       y2="62.282001" />
    <radialGradient
       inkscape:collect="always"
       xlink:href="#radialGradient1433"
       id="radialGradient3244"
       gradientUnits="userSpaceOnUse"
       gradientTransform="translate(0,-14)"
       cx="9.1295004"
       cy="26.926001"
       r="2.1227" />
    <linearGradient
       inkscape:collect="always"
       xlink:href="#linearGradient1447"
       id="linearGradient3246"
       gradientUnits="userSpaceOnUse"
       gradientTransform="matrix(2.7721,0,0,0.36074,0.61872,-13.1161)"
       x1="9.8697996"
       y1="57.228001"
       x2="9.9127998"
       y2="72.064003" />
    <linearGradient
       inkscape:collect="always"
       xlink:href="#linearGradient1887"
       id="linearGradient3248"
       gradientUnits="userSpaceOnUse"
       x1="27.365999"
       y1="26.58"
       x2="31.336"
       y2="30.558001" />
    <linearGradient
       inkscape:collect="always"
       xlink:href="#linearGradient1883"
       id="linearGradient3250"
       gradientUnits="userSpaceOnUse"
       gradientTransform="matrix(1.3346,0,0,1.2913,-6.9738,-7.4607)"
       x1="30.656"
       y1="34"
       x2="33.219002"
       y2="31.062" />
    <linearGradient
       inkscape:collect="always"
       xlink:href="#linearGradient2372"
       id="linearGradient3252"
       gradientUnits="userSpaceOnUse"
       x1="18.292999"
       y1="13.602"
       x2="17.500999"
       y2="25.743" />
    <radialGradient
       inkscape:collect="always"
       xlink:href="#radialGradient4460"
       id="radialGradient3254"
       gradientUnits="userSpaceOnUse"
       cx="18.240999"
       cy="21.818001"
       r="8.3085003" />
    <radialGradient
       inkscape:collect="always"
       xlink:href="#radialGradient1876"
       id="radialGradient3256"
       gradientUnits="userSpaceOnUse"
       gradientTransform="matrix(2.593,0,0,2.2521,-25.06,-18.941)"
       cx="15.414"
       cy="13.078"
       r="6.6561999" />
  </defs>
  <g
     id="g3120"
     transform="matrix(0.76005026,0,0,0.76005026,-2.2415483,10.319536)">
    <rect
       id="rect4652"
       rx="1.7115"
       ry="1.7115"
       height="6.4375"
       width="38.438"
       y="20"
       x="4.75"
       style="fill:url(#linearGradient3148);stroke:#595959" />
    <path
       id="rect4609"
       style="color:#000000;fill:url(#linearGradient3150);stroke:#676767"
       d="m 7.1309,5.5 h 33.74 c 0.385,0 0.877,0.288 1.18,0.724 0.303,0.436 1.737,2.61 2.058,3.074 0.322,0.464 0.393,0.904 0.393,1.476 v 12.077 c 0,0.914 -0.732,1.649 -1.641,1.649 H 5.1399 C 4.231,24.5 3.499,23.765 3.499,22.851 V 10.774 C 3.499,10.28 3.6002,9.572 3.9454,9.121 4.3811,8.552 5.5498,6.573 5.858,6.153 6.1663,5.733 6.7323,5.5 7.1308,5.5 z"
       inkscape:connector-curvature="0" />
    <path
       id="path4718"
       d="M 7.7468,6 C 7.2539,6 6.6201,6.131 6.3602,6.533 L 4.5403,9.347 c -0.293,0.453 0.0332,1.521 0.9148,1.521 h 36.909 c 1.192,0 1.196,-1.005 0.915,-1.433 L 41.5461,6.797 C 41.2311,6.318 41.1171,6 40.3321,6 H 7.7471 z"
       inkscape:connector-curvature="0"
       style="fill:#fbfbfb;fill-rule:evenodd" />
    <path
       id="path4750"
       style="color:#000000;fill:none;stroke:url(#linearGradient3152);stroke-width:0.94696999"
       d="m 7.6003,6.473 h 32.775 c 0.365,0 0.831,0.272 1.119,0.684 0.288,0.412 1.294,2.027 1.599,2.466 0.306,0.438 0.435,0.854 0.435,1.395 v 11.264 c 0,0.864 -0.133,1.247 -0.995,1.247 H 5.5313 c -0.8626,0 -1.0584,-0.383 -1.0584,-1.247 V 11.018 c 0,-0.467 0.2205,-1.137 0.5478,-1.563 C 5.4338,8.917 6.1015,7.487 6.3938,7.09 6.6861,6.693 7.2228,6.473 7.6006,6.473 z"
       inkscape:connector-curvature="0" />
    <path
       id="rect15391"
       style="color:#000000;fill:url(#linearGradient3154);stroke:#898989;stroke-linecap:round;display:block"
       d="m 11.672,-11.4899 h 24.641 c 0.651,0 1.175,0.5098 1.175,1.1432 v 18.695 h -26.99 v -18.695 c 0,-0.6331 0.524,-1.1429 1.174,-1.1429 z"
       display="block"
       inkscape:connector-curvature="0" />
    <rect
       id="rect15660"
       style="color:#000000;fill:none;stroke:url(#linearGradient3156);stroke-linecap:round;stroke-linejoin:round;display:block"
       display="block"
       rx="0.17678"
       ry="0.17678"
       height="18.836"
       width="24.954"
       y="-10.5008"
       x="11.498" />
    <rect
       id="rect4678"
       rx="1.7115"
       ry="1.7115"
       height="5.1875"
       width="33.75"
       y="11.375"
       x="6.875"
       style="fill:url(#linearGradient3158);stroke:url(#linearGradient3160)" />
    <path
       id="path4696"
       d="m 10.872,13.626 a 1.28175,1.28175 0 1 1 -2.5635,0 1.28175,1.28175 0 1 1 2.5635,0 z"
       inkscape:connector-curvature="0"
       style="fill:url(#radialGradient3162)" />
    <path
       id="path4731"
       d="m 11.744,9.416 25.562,0.063 c 0.688,0.001 0.988,-0.371 0.938,-1 L 38.119,6.916 h 1.866 c 0.812,0 0.99,0.193 1.187,0.563 l 0.5,0.937 c 0.527,0.988 1.812,1.974 0.498,1.974 -4.502,0 -28.176,-0.349 -30.426,-0.974 z"
       inkscape:connector-curvature="0"
       style="opacity:0.36570997;fill:url(#linearGradient3164);fill-rule:evenodd" />
    <path
       id="path4760"
       d="M 42.938,10.75 H 4.812"
       inkscape:connector-curvature="0"
       style="fill:none;stroke:#ffffff;stroke-width:1px;stroke-linecap:round;stroke-linejoin:round" />
    <g
       id="g4849"
       transform="translate(0,-14)"
       style="opacity:0.43575003;fill-opacity:0.29239999">
      <rect
         id="rect4831"
         style="color:#000000"
         height="1"
         width="19"
         y="5"
         x="14" />
      <rect
         id="rect4833"
         style="color:#000000"
         height="1"
         width="19"
         y="7"
         x="14" />
      <rect
         id="rect4835"
         style="color:#000000"
         height="1"
         width="19"
         y="9"
         x="14" />
      <rect
         id="rect4837"
         style="color:#000000"
         height="1"
         width="19"
         y="11"
         x="14" />
      <rect
         id="rect4839"
         style="color:#000000"
         height="1"
         width="11"
         y="13"
         x="14" />
      <rect
         id="rect4843"
         style="color:#000000"
         height="1"
         width="19"
         y="17"
         x="14" />
      <rect
         id="rect4845"
         style="color:#000000"
         height="1"
         width="19"
         y="19"
         x="14" />
    </g>
    <g
       id="g1890"
       transform="matrix(0.71568,0,0,0.71568,4.0775,-11.2861)">
      <path
         id="path2844"
         style="color:#000000;fill:#dcdcdc;fill-rule:evenodd;stroke:url(#linearGradient3166);stroke-width:2.79460001;stroke-linecap:round;stroke-miterlimit:10"
         d="m 18.628,3.1436 c -8.14,0 -14.745,6.6056 -14.745,14.744 -2e-4,8.139 6.605,14.745 14.745,14.745 3.479,0 6.551,-1.384 9.073,-3.402 -0.205,1.006 -0.078,2.035 0.756,2.759 l 10.965,9.528 c 1.233,1.071 3.087,0.931 4.158,-0.303 1.072,-1.233 0.931,-3.087 -0.302,-4.158 l -10.964,-9.528 c -0.672,-0.583 -1.493,-0.756 -2.306,-0.643 1.986,-2.512 3.364,-5.548 3.364,-8.998 0,-8.1388 -6.605,-14.744 -14.744,-14.744 z m -0.076,1.2261 c 7.639,0 13.292,4.789 13.292,13.292 0,8.675 -5.817,13.291 -13.292,13.291 -7.303,0 -13.292,-5.478 -13.292,-13.291 2e-4,-7.9846 5.825,-13.292 13.292,-13.292 z"
         stroke-miterlimit="10"
         inkscape:connector-curvature="0" />
      <path
         id="path4430"
         style="color:#000000;fill:#dcdcdc;fill-rule:evenodd"
         d="m 18.603,3.0804 c -8.166,0 -14.793,6.627 -14.793,14.793 4e-4,8.165 6.627,14.792 14.793,14.792 3.491,0 6.572,-1.389 9.103,-3.413 -0.206,1.01 -0.078,2.042 0.759,2.768 l 10.999,9.559 c 1.237,1.074 3.098,0.934 4.172,-0.304 1.075,-1.237 0.934,-3.097 -0.303,-4.172 l -11,-9.558 c -0.673,-0.585 -1.497,-0.759 -2.313,-0.645 1.993,-2.521 3.375,-5.567 3.375,-9.027 0,-8.1656 -6.627,-14.793 -14.792,-14.793 z m -0.076,3.186 c 6.281,0 11.379,5.0976 11.379,11.379 0,6.281 -5.098,11.379 -11.379,11.379 -6.281,0 -11.379,-5.098 -11.379,-11.379 2e-4,-6.281 5.098,-11.379 11.379,-11.379 z"
         inkscape:connector-curvature="0" />
      <path
         id="path4438"
         style="color:#000000;fill:url(#linearGradient3168);fill-rule:evenodd"
         d="m 39.507,41.578 c -0.479,-2.273 1.397,-4.812 3.584,-4.789 l -10.76,-9.258 c -2.945,-0.057 -4.27,2.273 -3.777,4.6 l 10.953,9.447 z"
         inkscape:connector-curvature="0" />
      <path
         id="path4450"
         style="color:#000000;fill:none;stroke:url(#linearGradient3170);stroke-width:1.12160003;stroke-linecap:round;stroke-miterlimit:10"
         d="m 28.549,18.92 a 11.049,11.049 0 1 1 -22.097,0 11.049,11.049 0 1 1 22.097,0 z"
         transform="matrix(1.2457,0,0,1.2457,-3.4253,-6.177)"
         stroke-miterlimit="10"
         inkscape:connector-curvature="0" />
      <rect
         id="rect4495"
         style="opacity:0.43315998;color:#000000;fill:none;stroke:#ffffff;stroke-width:1.3973;stroke-linecap:round;stroke-miterlimit:10"
         rx="2.9855001"
         ry="2.638"
         transform="matrix(0.75299,0.65804,-0.6489,0.76087,0,0)"
         height="4.4404998"
         width="19.048"
         stroke-miterlimit="10"
         y="0.14086001"
         x="40.373001" />
      <path
         id="path4452"
         style="color:#000000;fill:url(#radialGradient3172);fill-rule:evenodd;stroke:#3063a3;stroke-width:0.99904001;stroke-linecap:round;stroke-miterlimit:10"
         d="m 25.898,18.478 a 8.3085,8.3085 0 1 1 -16.617,0 8.3085,8.3085 0 1 1 16.617,0 z"
         transform="matrix(1.3986,0,0,1.3986,-6.2243,-8.299)"
         stroke-miterlimit="10"
         inkscape:connector-curvature="0" />
      <path
         id="path4462"
         style="opacity:0.83422002;color:#000000;fill:url(#radialGradient3174);fill-rule:evenodd"
         d="m 18.157,7.3967 c -5.208,0 -9.4246,4.2173 -9.4246,9.4243 0,1.504 0.4203,2.888 1.0471,4.15 1.2525,0.462 2.5825,0.776 3.9945,0.776 6.171,0 11.1,-4.862 11.48,-10.937 -1.731,-2.0458 -4.21,-3.4133 -7.097,-3.4133 z"
         inkscape:connector-curvature="0" />
    </g>
  </g>
  <metadata
     id="metadata93">
    <rdf:RDF>
      <cc:Work>
        <dc:format>image/svg+xml</dc:format>
        <dc:type
           rdf:resource="http://purl.org/dc/dcmitype/StillImage" />
        <cc:license
           rdf:resource="http://creativecommons.org/licenses/publicdomain/" />
        <dc:publisher>
          <cc:Agent
             rdf:about="http://openclipart.org/">
            <dc:title>Openclipart</dc:title>
          </cc:Agent>
        </dc:publisher>
        <dc:title></dc:title>
        <dc:date>2010-03-18T16:12:10</dc:date>
        <dc:description>&quot;Print preview&quot; icon from &lt;A href=&quot;http://tango.freedesktop.org/Tango_Desktop_Project&quot;&gt; Tango Project &lt;/A&gt; \n&lt;BR&gt;&lt;BR&gt;\nSince version 0.8.90 Tango Project icons are Public Domain: &lt;A href=&quot;http://tango.freedesktop.org/Frequently_Asked_Questions#Terms_of_Use.3F&quot;&gt; Tango Project FAQ &lt;/A&gt;</dc:description>
        <dc:source>http://openclipart.org/detail/32233/tango-document-print-preview-by-warszawianka</dc:source>
        <dc:creator>
          <cc:Agent>
            <dc:title>warszawianka</dc:title>
          </cc:Agent>
        </dc:creator>
        <dc:subject>
          <rdf:Bag>
            <rdf:li>clip art</rdf:li>
            <rdf:li>clipart</rdf:li>
            <rdf:li>document</rdf:li>
            <rdf:li>externalsource</rdf:li>
            <rdf:li>icon</rdf:li>
            <rdf:li>print preview</rdf:li>
            <rdf:li>tango</rdf:li>
          </rdf:Bag>
        </dc:subject>
      </cc:Work>
      <cc:License
         rdf:about="http://creativecommons.org/licenses/publicdomain/">
        <cc:permits
           rdf:resource="http://creativecommons.org/ns#Reproduction" />
        <cc:permits
           rdf:resource="http://creativecommons.org/ns#Distribution" />
        <cc:permits
           rdf:resource="http://creativecommons.org/ns#DerivativeWorks" />
      </cc:License>
    </rdf:RDF>
  </metadata>
</svg>
