<?xml version="1.0" encoding="UTF-8" standalone="no"?>
<!-- Created with Sodipodi ("http://www.sodipodi.com/") -->
<svg
   xmlns:a="http://ns.adobe.com/AdobeSVGViewerExtensions/3.0/"
   xmlns:dc="http://purl.org/dc/elements/1.1/"
   xmlns:cc="http://creativecommons.org/ns#"
   xmlns:rdf="http://www.w3.org/1999/02/22-rdf-syntax-ns#"
   xmlns:svg="http://www.w3.org/2000/svg"
   xmlns="http://www.w3.org/2000/svg"
   xmlns:xlink="http://www.w3.org/1999/xlink"
   xmlns:sodipodi="http://sodipodi.sourceforge.net/DTD/sodipodi-0.dtd"
   xmlns:inkscape="http://www.inkscape.org/namespaces/inkscape"
   width="48pt"
   height="48pt"
   viewBox="0 0 256 256"
   style="overflow:visible;enable-background:new 0 0 256 256"
   xml:space="preserve"
   id="svg153"
   sodipodi:version="0.32"
   sodipodi:docname="setup_general.svg"
   sodipodi:docbase="/home/cschalle/gnome-themes-extras/Nuvola/icons/scalable/apps"
   inkscape:version="0.46"
   inkscape:output_extension="org.inkscape.output.svg.inkscape"
   inkscape:export-filename="D:\workspace\com.wwindows.office.ooxml.libs\src\com\joffice\ui\resources\images\tools\setup_general.png"
   inkscape:export-xdpi="36"
   inkscape:export-ydpi="36"><metadata
   id="metadata50"><rdf:RDF><cc:Work
       rdf:about=""><dc:format>image/svg+xml</dc:format><dc:type
         rdf:resource="http://purl.org/dc/dcmitype/StillImage" /></cc:Work></rdf:RDF></metadata>
  <defs
   id="defs222"><inkscape:perspective
   sodipodi:type="inkscape:persp3d"
   inkscape:vp_x="0 : 30 : 1"
   inkscape:vp_y="0 : 1000 : 0"
   inkscape:vp_z="60 : 30 : 1"
   inkscape:persp3d-origin="30 : 20 : 1"
   id="perspective52" />
    
    
    <linearGradient
   y2="219.9893"
   x2="218.9077"
   y1="73.9805"
   x1="72.8994"
   gradientUnits="userSpaceOnUse"
   id="XMLID_1_">
      <stop
   id="stop160"
   style="stop-color:#F0F0F0"
   offset="0" />
      <stop
   id="stop161"
   style="stop-color:#D4D4D4"
   offset="1" />
      <a:midPointStop
   id="midPointStop162"
   style="stop-color:#F0F0F0"
   offset="0" />
      <a:midPointStop
   id="midPointStop163"
   style="stop-color:#F0F0F0"
   offset="0.5" />
      <a:midPointStop
   id="midPointStop164"
   style="stop-color:#D4D4D4"
   offset="1" />
    </linearGradient>
    
    
    <linearGradient
   gradientTransform="matrix(1,0,0,-1,56.2002,421.0996)"
   y2="243.0765"
   x2="133.5025"
   y1="457.8701"
   x1="-26.2158"
   gradientUnits="userSpaceOnUse"
   id="XMLID_2_">
      <stop
   id="stop168"
   style="stop-color:#F0F0F0"
   offset="0" />
      <stop
   id="stop169"
   style="stop-color:#B1B3B2"
   offset="1" />
      <a:midPointStop
   id="midPointStop170"
   style="stop-color:#F0F0F0"
   offset="0" />
      <a:midPointStop
   id="midPointStop171"
   style="stop-color:#F0F0F0"
   offset="0.5" />
      <a:midPointStop
   id="midPointStop172"
   style="stop-color:#B1B3B2"
   offset="1" />
    </linearGradient>
    
    
    <linearGradient
   gradientTransform="matrix(1,0,0,-1,56.2002,421.0996)"
   y2="261.29"
   x2="100.0186"
   y1="343.6699"
   x1="72.5586"
   gradientUnits="userSpaceOnUse"
   id="XMLID_3_">
      <stop
   id="stop176"
   style="stop-color:#545450"
   offset="0" />
      <stop
   id="stop177"
   style="stop-color:#D9DADE"
   offset="1" />
      <a:midPointStop
   id="midPointStop178"
   style="stop-color:#545450"
   offset="0" />
      <a:midPointStop
   id="midPointStop179"
   style="stop-color:#545450"
   offset="0.5" />
      <a:midPointStop
   id="midPointStop180"
   style="stop-color:#D9DADE"
   offset="1" />
    </linearGradient>
    
    
    <radialGradient
   gradientUnits="userSpaceOnUse"
   gradientTransform="matrix(1.1009,0,0,-1.0433,241.2153,627.9246)"
   fy="452"
   fx="-95.1787"
   r="84.6797"
   cy="452"
   cx="-95.1787"
   id="XMLID_4_">
      <stop
   id="stop184"
   style="stop-color:#DDDDE8"
   offset="0" />
      <stop
   id="stop185"
   style="stop-color:#C6C9DB"
   offset="0.3034" />
      <stop
   id="stop186"
   style="stop-color:#9497BB"
   offset="1" />
      <a:midPointStop
   id="midPointStop187"
   style="stop-color:#DDDDE8"
   offset="0" />
      <a:midPointStop
   id="midPointStop188"
   style="stop-color:#DDDDE8"
   offset="0.5" />
      <a:midPointStop
   id="midPointStop189"
   style="stop-color:#C6C9DB"
   offset="0.3034" />
      <a:midPointStop
   id="midPointStop190"
   style="stop-color:#C6C9DB"
   offset="0.5" />
      <a:midPointStop
   id="midPointStop191"
   style="stop-color:#9497BB"
   offset="1" />
    </radialGradient>
    
    <radialGradient
   gradientUnits="userSpaceOnUse"
   gradientTransform="matrix(1,0,0,-1,224.5,604.5)"
   fy="511.3545"
   fx="-102.7876"
   r="89.1412"
   cy="511.3545"
   cx="-102.7876"
   id="XMLID_5_">
      <stop
   id="stop194"
   style="stop-color:#6095C1"
   offset="0" />
      <stop
   id="stop195"
   style="stop-color:#567EB9"
   offset="0.5562" />
      <stop
   id="stop196"
   style="stop-color:#0E2B8D"
   offset="1" />
      <a:midPointStop
   id="midPointStop197"
   style="stop-color:#6095C1"
   offset="0" />
      <a:midPointStop
   id="midPointStop198"
   style="stop-color:#6095C1"
   offset="0.5" />
      <a:midPointStop
   id="midPointStop199"
   style="stop-color:#567EB9"
   offset="0.5562" />
      <a:midPointStop
   id="midPointStop200"
   style="stop-color:#567EB9"
   offset="0.5" />
      <a:midPointStop
   id="midPointStop201"
   style="stop-color:#0E2B8D"
   offset="1" />
    </radialGradient>
    
    
    <linearGradient
   y2="127.1957"
   x2="139.9951"
   y1="49.1958"
   x1="139.9951"
   gradientUnits="userSpaceOnUse"
   id="XMLID_6_">
      <stop
   id="stop205"
   style="stop-color:#FFFFFF"
   offset="0" />
      <stop
   id="stop206"
   style="stop-color:#FDFEFD"
   offset="0.4195" />
      <stop
   id="stop207"
   style="stop-color:#F6FBF7"
   offset="0.5934" />
      <stop
   id="stop208"
   style="stop-color:#EAF7ED"
   offset="0.7219" />
      <stop
   id="stop209"
   style="stop-color:#D8F0DF"
   offset="0.8279" />
      <stop
   id="stop210"
   style="stop-color:#C1E7CC"
   offset="0.9192" />
      <stop
   id="stop211"
   style="stop-color:#A6DCB5"
   offset="1" />
      <a:midPointStop
   id="midPointStop212"
   style="stop-color:#FFFFFF"
   offset="0" />
      <a:midPointStop
   id="midPointStop213"
   style="stop-color:#FFFFFF"
   offset="0.8531" />
      <a:midPointStop
   id="midPointStop214"
   style="stop-color:#A6DCB5"
   offset="1" />
    </linearGradient>
    
    
    
    
    
    
  <linearGradient
   inkscape:collect="always"
   xlink:href="#XMLID_6_"
   id="linearGradient2456"
   gradientUnits="userSpaceOnUse"
   x1="139.9951"
   y1="49.1958"
   x2="139.9951"
   y2="127.1957" /><radialGradient
   inkscape:collect="always"
   xlink:href="#XMLID_5_"
   id="radialGradient2460"
   gradientUnits="userSpaceOnUse"
   gradientTransform="matrix(1,0,0,-1,224.5,604.5)"
   cx="-102.7876"
   cy="511.3545"
   fx="-102.7876"
   fy="511.3545"
   r="89.1412" /><radialGradient
   inkscape:collect="always"
   xlink:href="#XMLID_4_"
   id="radialGradient2463"
   gradientUnits="userSpaceOnUse"
   gradientTransform="matrix(1.1009,0,0,-1.0433,241.2153,627.9246)"
   cx="-95.1787"
   cy="452"
   fx="-95.1787"
   fy="452"
   r="84.6797" /><linearGradient
   inkscape:collect="always"
   xlink:href="#XMLID_3_"
   id="linearGradient2467"
   gradientUnits="userSpaceOnUse"
   gradientTransform="matrix(1,0,0,-1,56.2002,421.0996)"
   x1="72.5586"
   y1="343.6699"
   x2="100.0186"
   y2="261.29" /><linearGradient
   inkscape:collect="always"
   xlink:href="#XMLID_2_"
   id="linearGradient2471"
   gradientUnits="userSpaceOnUse"
   gradientTransform="matrix(1,0,0,-1,56.2002,421.0996)"
   x1="-26.2158"
   y1="457.8701"
   x2="133.5025"
   y2="243.0765" /><linearGradient
   inkscape:collect="always"
   xlink:href="#XMLID_1_"
   id="linearGradient2475"
   gradientUnits="userSpaceOnUse"
   x1="72.8994"
   y1="73.9805"
   x2="218.9077"
   y2="219.9893" /><linearGradient
   inkscape:collect="always"
   xlink:href="#XMLID_1_"
   id="linearGradient2498"
   gradientUnits="userSpaceOnUse"
   x1="72.8994"
   y1="73.9805"
   x2="218.9077"
   y2="219.9893" /><linearGradient
   inkscape:collect="always"
   xlink:href="#XMLID_2_"
   id="linearGradient2500"
   gradientUnits="userSpaceOnUse"
   gradientTransform="matrix(1,0,0,-1,56.2002,421.0996)"
   x1="-26.2158"
   y1="457.8701"
   x2="133.5025"
   y2="243.0765" /><linearGradient
   inkscape:collect="always"
   xlink:href="#XMLID_3_"
   id="linearGradient2502"
   gradientUnits="userSpaceOnUse"
   gradientTransform="matrix(1,0,0,-1,56.2002,421.0996)"
   x1="72.5586"
   y1="343.6699"
   x2="100.0186"
   y2="261.29" /><radialGradient
   inkscape:collect="always"
   xlink:href="#XMLID_4_"
   id="radialGradient2504"
   gradientUnits="userSpaceOnUse"
   gradientTransform="matrix(1.1009,0,0,-1.0433,241.2153,627.9246)"
   cx="-95.1787"
   cy="452"
   fx="-95.1787"
   fy="452"
   r="84.6797" /><radialGradient
   inkscape:collect="always"
   xlink:href="#XMLID_5_"
   id="radialGradient2506"
   gradientUnits="userSpaceOnUse"
   gradientTransform="matrix(1,0,0,-1,224.5,604.5)"
   cx="-102.7876"
   cy="511.3545"
   fx="-102.7876"
   fy="511.3545"
   r="89.1412" /><linearGradient
   inkscape:collect="always"
   xlink:href="#XMLID_6_"
   id="linearGradient2508"
   gradientUnits="userSpaceOnUse"
   x1="139.9951"
   y1="49.1958"
   x2="139.9951"
   y2="127.1957" /><linearGradient
   inkscape:collect="always"
   xlink:href="#XMLID_6_"
   id="linearGradient2515"
   gradientUnits="userSpaceOnUse"
   x1="139.9951"
   y1="49.1958"
   x2="139.9951"
   y2="127.1957"
   gradientTransform="translate(6.0952385,2.2164502)" /><radialGradient
   inkscape:collect="always"
   xlink:href="#XMLID_5_"
   id="radialGradient2519"
   gradientUnits="userSpaceOnUse"
   gradientTransform="matrix(1,0,0,-1,230.59524,606.71645)"
   cx="-102.7876"
   cy="511.3545"
   fx="-102.7876"
   fy="511.3545"
   r="89.1412" /><radialGradient
   inkscape:collect="always"
   xlink:href="#XMLID_4_"
   id="radialGradient2522"
   gradientUnits="userSpaceOnUse"
   gradientTransform="matrix(1.1009,0,0,-1.0433,247.31054,630.14105)"
   cx="-95.1787"
   cy="452"
   fx="-95.1787"
   fy="452"
   r="84.6797" /><linearGradient
   inkscape:collect="always"
   xlink:href="#XMLID_3_"
   id="linearGradient2526"
   gradientUnits="userSpaceOnUse"
   gradientTransform="matrix(1,0,0,-1,62.295439,423.31605)"
   x1="72.5586"
   y1="343.6699"
   x2="100.0186"
   y2="261.29" /><linearGradient
   inkscape:collect="always"
   xlink:href="#XMLID_2_"
   id="linearGradient2530"
   gradientUnits="userSpaceOnUse"
   gradientTransform="matrix(1,0,0,-1,62.295439,423.31605)"
   x1="-26.2158"
   y1="457.8701"
   x2="133.5025"
   y2="243.0765" /><linearGradient
   inkscape:collect="always"
   xlink:href="#XMLID_1_"
   id="linearGradient2534"
   gradientUnits="userSpaceOnUse"
   x1="72.8994"
   y1="73.9805"
   x2="218.9077"
   y2="219.9893"
   gradientTransform="translate(6.0952385,2.2164502)" /><linearGradient
   inkscape:collect="always"
   xlink:href="#XMLID_1_"
   id="linearGradient2556"
   gradientUnits="userSpaceOnUse"
   gradientTransform="translate(6.0952385,2.2164502)"
   x1="72.8994"
   y1="73.9805"
   x2="218.9077"
   y2="219.9893" /><linearGradient
   inkscape:collect="always"
   xlink:href="#XMLID_2_"
   id="linearGradient2558"
   gradientUnits="userSpaceOnUse"
   gradientTransform="matrix(1,0,0,-1,62.295439,423.31605)"
   x1="-26.2158"
   y1="457.8701"
   x2="133.5025"
   y2="243.0765" /><linearGradient
   inkscape:collect="always"
   xlink:href="#XMLID_3_"
   id="linearGradient2560"
   gradientUnits="userSpaceOnUse"
   gradientTransform="matrix(1,0,0,-1,62.295439,423.31605)"
   x1="72.5586"
   y1="343.6699"
   x2="100.0186"
   y2="261.29" /><radialGradient
   inkscape:collect="always"
   xlink:href="#XMLID_4_"
   id="radialGradient2562"
   gradientUnits="userSpaceOnUse"
   gradientTransform="matrix(1.1009,0,0,-1.0433,247.31054,630.14105)"
   cx="-95.1787"
   cy="452"
   fx="-95.1787"
   fy="452"
   r="84.6797" /><radialGradient
   inkscape:collect="always"
   xlink:href="#XMLID_5_"
   id="radialGradient2564"
   gradientUnits="userSpaceOnUse"
   gradientTransform="matrix(1,0,0,-1,230.59524,606.71645)"
   cx="-102.7876"
   cy="511.3545"
   fx="-102.7876"
   fy="511.3545"
   r="89.1412" /><linearGradient
   inkscape:collect="always"
   xlink:href="#XMLID_6_"
   id="linearGradient2566"
   gradientUnits="userSpaceOnUse"
   gradientTransform="translate(6.0952385,2.2164502)"
   x1="139.9951"
   y1="49.1958"
   x2="139.9951"
   y2="127.1957" /></defs>
  <sodipodi:namedview
   id="base"
   showgrid="false"
   inkscape:zoom="7.7"
   inkscape:cx="14.480519"
   inkscape:cy="29.373958"
   inkscape:window-width="1366"
   inkscape:window-height="718"
   inkscape:window-x="-8"
   inkscape:window-y="-8"
   inkscape:current-layer="svg153" />
  
  <path
   id="path218"
   style="stroke:none"
   d="" /><g
   id="g2539"
   transform="matrix(1.0643793,0,0,1.0504299,-13.626569,-6.5411132)"><path
     style="stroke:none"
     d="M 63.821238,10.20345 L 41.611238,32.41345 C 41.611238,32.41345 63.035238,63.72445 66.058239,68.14245 C 62.911239,73.69545 60.359239,79.54445 58.435239,85.61345 C 53.469239,86.66545 13.891239,95.05045 13.891239,95.05045 L 13.891239,130.80545 C 13.891239,130.80545 52.474238,137.87845 57.724238,138.84145 C 59.592239,145.34845 62.173239,151.61545 65.433239,157.56245 C 62.287239,161.97445 38.866239,194.83145 38.866239,194.83145 L 64.549239,221.94145 C 64.549239,221.94145 97.947238,197.55945 102.37324,194.32945 C 107.79724,197.26745 113.48824,199.64445 119.37724,201.43245 C 120.23824,206.81645 126.97924,248.94745 126.97924,248.94745 L 164.15224,248.94745 C 164.15224,248.94745 170.76924,207.23945 171.63524,201.78645 C 177.86724,199.98845 183.88224,197.53645 189.60424,194.46145 C 194.00624,197.68745 227.22024,222.02045 227.22024,222.02045 L 252.22924,194.14945 C 252.22924,194.14945 227.34024,160.20745 226.19824,158.64845 C 233.98324,144.88545 238.13124,129.34445 238.13124,113.42345 C 238.13124,62.68545 196.85224,21.40645 146.11224,21.40645 C 130.81124,21.40645 115.78724,25.26045 102.40924,32.49445 C 98.044238,29.39445 66.807238,7.2164502 66.807238,7.2164502 L 63.821238,10.20345 z"
     id="path157" /><path
     style="fill:url(#linearGradient2556);stroke:none"
     d="M 226.52324,215.31045 L 245.79624,193.83145 L 221.56524,160.78545 L 220.11824,159.20945 C 228.36524,145.90945 233.13124,130.22445 233.13124,113.42245 C 233.13124,65.36445 194.17324,26.40545 146.11224,26.40545 C 130.03524,26.40545 114.97924,30.77145 102.05624,38.37445 L 67.357238,13.73845 L 48.081238,33.01445 L 71.947238,67.89445 C 67.777238,74.67245 64.511238,82.06245 62.315238,89.90245 L 18.891239,99.10245 L 18.891239,126.63945 L 61.667239,134.48245 C 63.744239,142.83645 67.027238,150.71145 71.321238,157.91645 L 45.326239,194.38245 L 65.153239,215.31145 L 101.97924,188.42745 C 108.72924,192.40645 116.06124,195.50245 123.81924,197.55345 L 131.24224,243.94845 L 159.88224,243.94845 L 167.19524,197.86345 C 175.31224,195.84245 182.97824,192.68445 190.01524,188.56545 L 226.52324,215.31045 z"
     id="path165" /><path
     style="fill:#ffffff;stroke:none"
     d="M 221.56524,160.78445 L 220.31924,159.42745 C 219.61224,160.70545 218.88524,161.97045 218.11824,163.20845 L 219.56524,164.78445 L 243.08224,196.85545 L 245.79724,193.83045 L 221.56524,160.78445 z M 68.943238,161.25245 L 45.327238,194.38145 L 45.813239,194.89445 L 69.322238,161.91545 C 69.192239,161.69645 69.072238,161.47245 68.943238,161.25245 z M 65.357238,17.73845 L 100.05524,42.37445 C 112.97824,34.77145 128.03424,30.40545 144.11124,30.40545 C 192.17224,30.40545 231.13024,69.36445 231.13024,117.42245 C 231.13024,130.64245 228.16924,143.16645 222.89324,154.38645 C 229.42224,142.17845 233.13024,128.23545 233.13024,113.42245 C 233.13024,65.36445 194.17224,26.40545 146.11124,26.40545 C 130.03424,26.40545 114.97824,30.77145 102.05524,38.37445 L 67.357238,13.73845 L 48.081238,33.01445 L 48.894239,34.20245 L 65.357238,17.73845 z M 69.947238,71.89445 L 69.779238,71.64845 C 68.900239,73.25145 68.069238,74.88245 67.289238,76.54445 C 68.131238,74.96745 69.013238,73.41345 69.947238,71.89445 z M 165.19524,201.86245 L 158.51724,243.94745 L 159.88224,243.94745 L 166.62024,201.47945 C 166.14524,201.60645 165.67324,201.74245 165.19524,201.86245 z M 60.315238,93.90345 C 60.676239,92.61345 61.077238,91.34145 61.495238,90.07745 L 18.891239,99.10345 L 18.891239,102.67945 L 60.315238,93.90345 z"
     id="path166" /><path
     style="fill:url(#linearGradient2558);stroke:none"
     d="M 146.11224,26.40545 C 194.17324,26.40545 233.13124,65.36445 233.13124,113.42245 C 233.13124,161.48045 194.17324,200.44045 146.11224,200.44045 C 98.055238,200.44045 59.096238,161.48045 59.096238,113.42245 C 59.096238,65.36445 98.054238,26.40545 146.11224,26.40545"
     id="path173" /><path
     style="fill:#f0f0f0;stroke:none"
     d="M 68.429238,116.42245 C 68.429238,68.18045 105.29824,29.07245 150.77824,29.07245 C 195.83624,29.07245 232.43224,67.45345 233.11424,115.07245 C 233.11524,114.85445 233.13024,114.64045 233.13024,114.42245 C 233.13024,66.91745 195.36624,28.40545 148.77824,28.40545 C 102.19424,28.40545 64.429238,66.91645 64.429238,114.42245 C 64.429238,141.13145 76.368238,164.99845 95.099238,180.77545 C 78.707238,164.80845 68.429238,141.88945 68.429238,116.42245 z"
     id="path174" /><path
     style="fill:url(#linearGradient2560);stroke:none"
     d="M 146.11224,39.07245 C 187.17624,39.07245 220.46324,72.36045 220.46324,113.42145 C 220.46324,154.48445 187.17724,187.77045 146.11224,187.77045 C 105.05124,187.77045 71.763238,154.48445 71.763238,113.42145 C 71.762238,72.36045 105.05124,39.07245 146.11224,39.07245"
     id="path181" /><path
     style="stroke:none"
     d="M 75.682238,113.08545 C 75.682238,151.83145 107.15624,183.35445 145.84324,183.35445 C 184.53324,183.35445 216.01124,151.83245 216.01124,113.08545 C 216.01124,74.46445 184.53324,43.04445 145.84324,43.04445 C 107.15624,43.04745 75.682238,74.46645 75.682238,113.08545 z"
     id="path182" /><path
     style="fill:url(#radialGradient2562);stroke:none"
     d="M 145.84324,180.35445 C 182.92724,180.35445 213.01124,150.14745 213.01124,113.08545 C 213.01124,76.25945 182.92824,46.04445 145.84324,46.04445 C 109.02324,46.04645 78.682238,76.25845 78.682238,113.08545 C 78.682238,150.14745 109.02324,180.35445 145.84324,180.35445 z"
     id="path192" /><path
     style="fill:url(#radialGradient2564);stroke:none"
     d="M 123.53424,53.43245 C 123.20224,53.43245 122.83924,53.56945 122.46724,53.78045 C 123.34024,53.52345 123.75224,53.43245 123.53424,53.43245 z M 145.15924,57.65245 L 145.37724,54.48945 L 142.03824,54.69945 L 142.48024,57.65245 L 145.15924,57.65245 L 145.15924,57.65245 z M 107.48324,112.32345 C 106.81324,111.69045 107.26124,108.94445 107.26124,108.94445 C 107.26124,108.94445 97.227238,103.67145 86.304238,100.50245 C 84.956238,100.11145 85.637238,97.33845 86.969238,96.28645 L 86.525239,93.32245 C 86.304238,91.84945 88.756238,84.67445 91.209238,84.04445 C 93.662238,83.40745 90.986238,88.26245 90.986238,88.26245 L 88.534238,89.74045 C 88.534238,89.74045 91.430238,93.11545 92.103238,93.11545 C 92.770238,93.11545 93.884238,91.42645 93.884238,91.42645 L 90.764238,89.32145 L 93.662238,88.05145 L 93.844238,86.93845 L 94.330238,86.78445 L 99.128238,79.51745 C 102.44324,78.16045 106.51924,76.47945 107.03724,76.23045 C 107.93024,75.81145 114.17124,72.22645 115.28624,71.38045 C 116.40324,70.53345 118.85024,70.74745 119.74024,70.74745 C 120.63624,70.74745 121.97324,70.32445 122.19524,67.99845 C 122.41824,65.67745 123.31124,65.25445 123.98124,65.88945 C 124.64924,66.51945 123.31024,67.57645 124.87224,67.99845 C 126.43324,68.42245 127.76824,69.47745 128.88524,68.42245 C 129.70024,67.64845 128.61024,66.76945 127.87524,66.10445 L 140.25324,66.10445 L 141.59324,62.29845 L 138.69524,61.87645 L 127.98924,60.82145 L 127.98924,59.55445 L 127.13624,59.69845 C 128.29524,53.33045 135.17924,54.37945 129.99724,50.69345 C 129.68224,50.46745 125.14824,57.83745 123.99624,57.69445 C 121.90624,57.41845 119.20524,57.39745 118.62824,58.07645 C 117.86924,58.97345 120.33824,54.98945 122.46624,53.78045 C 119.07124,54.78145 108.34424,58.45045 97.004238,70.53045 C 86.163238,82.07945 81.842238,97.63645 81.842238,98.18045 C 81.842238,99.23445 84.073238,99.65845 84.296238,100.92645 C 84.518238,102.18745 80.062238,106.41245 80.062238,108.52345 C 80.062238,109.49545 79.009238,122.50545 82.733238,133.22245 C 87.084238,145.73045 96.368238,156.17445 97.448238,156.86245 L 99.676238,155.80245 C 99.676238,155.80245 94.549238,146.72945 94.327238,145.88145 C 94.105238,145.04045 100.12324,132.79645 103.02224,133.22245 C 105.91824,133.63745 105.25224,134.48845 107.03524,133.43145 C 108.81824,132.37745 109.93224,123.71945 111.93824,122.88145 C 113.94624,122.03245 116.17424,120.97945 115.95524,118.86845 C 115.72924,116.75145 108.15024,112.95645 107.48324,112.32345 z M 155.86024,50.26645 L 149.84224,48.15345 L 150.95624,51.53345 L 155.86024,50.26645 z M 133.34224,58.07645 C 134.01324,58.07645 147.38924,49.21445 146.05024,49.00045 C 144.71524,48.79145 144.49024,49.00045 140.91924,48.57845 C 137.35524,48.15545 133.56124,53.64445 132.67324,54.49045 C 131.78324,55.33645 132.08224,58.07645 133.34224,58.07645 z M 194.72324,121.71845 L 196.45024,119.47945 L 194.72324,118.87145 L 193.42924,120.50045 L 191.91924,122.73245 L 193.21324,123.34545 L 194.72324,121.71845 z M 202.27324,129.04645 L 201.84024,125.79045 L 199.04124,125.79045 L 198.82424,128.22845 L 196.23024,127.82745 L 195.58624,125.17945 L 194.29224,124.36745 L 192.77824,126.19545 L 191.27224,125.79145 L 190.83724,127.21045 L 192.56524,127.62345 L 192.56524,140.84345 L 198.67124,142.31445 C 198.53124,142.55945 198.42524,142.76345 198.39024,142.87545 C 197.95424,144.30245 200.11424,144.91745 201.62124,144.30245 C 202.18524,144.07645 203.96024,142.28245 205.07524,139.62845 C 206.63024,135.93145 207.98824,131.05045 208.26124,129.32345 L 208.96024,127.82945 L 204.64424,129.45445 L 202.27024,129.05045 L 202.27324,129.04645 z M 211.33724,104.42945 L 210.21124,102.24745 C 208.87624,94.72345 205.81524,85.08745 199.25724,75.13445 C 189.38624,60.17045 161.92224,51.53945 161.92224,51.53945 L 160.41524,53.36645 L 159.55124,51.94745 L 157.39224,51.13045 L 157.39224,52.96145 L 159.33624,54.59145 L 158.04124,55.20045 L 153.07724,55.60545 L 141.85724,61.71045 L 142.93224,66.59145 L 141.63624,67.00145 L 140.99324,68.01645 L 144.66024,73.50645 L 144.87724,75.34045 L 141.85624,75.94945 L 141.85624,79.60945 L 140.13124,80.01545 L 140.34824,82.86545 L 125.67224,93.04145 L 126.10324,98.73145 C 127.18024,100.15745 135.60024,108.70445 135.60024,108.70445 C 135.60024,108.70445 145.30624,109.10545 147.46524,107.88845 C 149.62324,106.66845 148.11224,109.10745 148.76124,109.71845 C 149.40724,110.33345 149.62324,114.59945 150.26924,115.00945 C 150.91524,115.41445 150.26924,117.85345 151.13224,118.67245 C 151.99524,119.48045 151.99524,129.25345 151.99524,129.25345 C 151.99524,129.25345 157.17424,137.99445 157.17424,140.23545 C 157.17424,142.47245 156.95824,142.26845 161.06024,142.06745 C 165.16024,141.86345 166.02124,140.23545 166.88224,139.62845 C 167.74924,139.01645 167.74924,137.59245 168.61224,136.36945 C 169.47724,135.14645 170.98224,130.47145 172.92724,128.84545 C 174.86724,127.21345 180.04624,125.99245 180.47624,123.14845 C 180.90824,120.29945 182.84924,118.06045 182.84924,118.06045 L 192.17924,108.19145 L 191.91624,109.51945 L 191.69924,114.60045 L 194.50524,113.58545 L 194.29024,108.08945 L 193.28124,107.02345 L 193.42624,106.86945 C 193.42624,106.86945 192.77724,105.65145 191.91624,105.65145 C 191.05324,105.65145 185.87124,106.86945 185.01124,106.66845 C 184.14724,106.46345 180.47624,96.69845 179.82924,96.29545 C 179.18224,95.88745 175.08424,89.17245 175.08424,89.17245 C 175.08424,89.17245 184.57724,100.56645 186.08724,105.03945 C 186.96424,107.64445 190.25724,105.21945 192.93724,102.49945 L 193.64524,104.22845 L 195.36924,103.81645 L 195.15324,101.78345 L 197.09424,101.78345 L 197.09424,104.83545 L 196.44724,106.46345 L 196.22524,109.10645 L 197.95424,110.73745 L 198.82024,109.31545 L 201.61924,106.66845 L 204.85924,105.04045 L 205.72224,106.66845 L 206.15524,108.90745 L 205.28924,111.34645 L 203.56424,112.77145 L 202.70124,116.43445 L 202.70124,118.26045 L 200.76224,117.04145 L 200.54624,113.17945 L 197.74124,113.38545 L 196.44724,116.83745 L 198.38924,119.69145 L 202.91824,120.30145 L 206.58924,116.83745 L 207.01924,110.13045 L 208.65124,107.97545 C 209.71424,110.70845 210.47324,113.56945 210.47324,116.23345 C 210.47324,119.15445 211.80824,114.20945 210.67224,105.30245 L 211.33724,104.42945 z M 156.96024,83.67945 L 145.30924,83.26645 L 150.26924,79.19945 L 152.86024,79.19945 L 156.96024,82.04445 L 156.96024,83.67945 z M 171.20424,82.25645 L 171.20424,84.08745 L 166.24224,84.08745 L 166.67324,85.30845 L 163.65024,85.71945 L 163.43624,86.73245 L 161.27924,86.32845 L 157.39324,85.51045 L 158.04124,84.49545 L 158.68924,83.26945 L 160.84524,81.03545 L 161.70924,82.66445 L 164.94724,82.45945 L 166.67224,80.62745 L 173.35924,81.84845 L 171.20424,82.25845 L 171.20424,82.25645 L 171.20424,82.25645 z M 171.63224,79.60945 L 169.04524,80.01545 L 168.61424,78.18245 L 171.84624,77.77745 L 172.28124,75.94745 L 174.65824,78.39145 L 171.63224,79.60645 L 171.63224,79.60945 z M 184.15024,142.87145 L 182.63724,144.09245 L 182.85224,147.14945 L 184.79524,147.14945 L 184.79524,144.50745 L 186.52424,142.26545 L 186.52424,137.58745 L 185.44424,137.37845 L 184.15224,142.87145 L 184.15024,142.87145 z M 169.69624,136.77645 C 169.69624,136.77645 168.18424,137.17445 169.90924,137.79045 C 171.63324,138.40345 178.53924,127.82745 178.53924,127.82745 L 172.71324,131.48445 L 169.69324,136.77645 L 169.69624,136.77645 L 169.69624,136.77645 z M 157.94924,175.76545 L 156.65924,174.53645 L 154.06824,174.12245 L 153.63824,175.35445 L 150.18824,174.94845 L 149.97124,173.30945 L 147.38324,173.30945 L 144.57924,174.94845 L 139.61924,174.94845 L 139.18924,173.71745 L 131.21024,172.89545 L 129.91424,174.12345 L 126.68124,173.31045 L 126.25024,170.43745 L 124.74124,170.22845 L 123.01524,173.31045 L 117.19424,173.10345 C 118.23424,173.59645 126.93024,178.78345 140.26424,179.86945 C 157.94824,181.29845 166.36024,176.99845 166.36024,176.99845 L 165.71324,176.38245 L 157.94824,175.76945 L 157.94824,175.76545 L 157.94924,175.76545 z"
     id="path202" /><path
     style="opacity:0.6;fill:#f0f0f0;stroke:none"
     d="M 209.86724,116.22745 C 209.86724,110.27345 208.96624,104.52745 207.30624,99.10845 C 207.38124,100.52545 207.42524,101.95045 207.42524,103.38645 C 207.42524,135.25745 188.72924,162.56245 162.15424,174.05345 C 189.29124,168.84645 209.86724,144.90645 209.86724,116.22745 z"
     id="path203" /><path
     style="opacity:0.36000001;fill:url(#linearGradient2566);stroke:none"
     d="M 82.077238,91.32645 C 101.13124,95.21245 122.78824,97.41145 145.76224,97.41145 C 168.99924,97.41145 190.89024,95.16045 210.10224,91.19045 C 200.90024,64.70245 175.73624,45.68045 146.11224,45.68045 C 116.44024,45.68045 91.241238,64.76745 82.077238,91.32645 z"
     id="path215" /><path
     style="fill:none;stroke:none"
     d="M 92.337238,158.55045 C 92.327238,158.20145 92.300238,157.85845 92.300238,157.50645 C 92.300238,156.40545 92.376238,155.31745 92.483238,154.23545 C 90.512238,156.93345 88.968238,161.93845 89.160238,163.21645 L 89.667238,166.62445 C 88.143238,167.83845 87.366238,171.03145 88.906239,171.48245 C 91.538238,172.25245 94.116238,173.12945 96.560238,174.03845 C 94.243238,169.69445 92.805238,165.04045 92.415238,160.18545 C 91.855238,159.56645 91.449238,159.08945 91.449238,159.08945 L 92.335238,158.54745 L 92.337238,158.55045 z"
     id="path216" /><path
     style="stroke:none"
     d="M 92.418238,160.18845 C 92.374238,159.64645 92.356238,159.09845 92.337238,158.55045"
     id="path217" /><path
     style="stroke:none"
     d="M 151.52324,112.17845 C 151.02424,112.11945 150.52424,112.16345 150.02324,112.27945 C 150.55324,112.24445 151.08324,112.21645 151.61424,112.19145 C 151.58024,112.18745 151.55824,112.18345 151.52324,112.17845 z"
     id="path219" /><path
     style="stroke:none"
     d="M 130.59924,118.07145 C 130.19824,118.07145 129.75824,118.23645 129.31124,118.49145 C 130.36324,118.18045 130.86124,118.07145 130.59924,118.07145 z"
     id="path220" /></g>
</svg>