<?xml version="1.0" encoding="UTF-8" standalone="no"?><svg xmlns="http://www.w3.org/2000/svg" xmlns:xlink="http://www.w3.org/1999/xlink" version="1.1" width="260" height="1030"><path d="M 187,200 L 225,200 L 225,17 L 187,17 L 187,31 L 208,31 L 208,186 L 187,186 L 187,200 z" id="corcht"/><use xlink:href="#corcht" transform="matrix(-1,0,0,1,260,0)"/><path d="M 177,430 L 182,430 C 188,430 192,430 196,429 C 200,428 204,425 207,421 C 210,417 211,413 212,408 C 213,403 213,394 213,382 C 213,373 213,367 214,362 C 215,357 217,352 220,349 C 223,346 227,344 233,344 L 233,328 C 227,328 223,326 220,323 C 217,320 215,315 214,310 C 213,305 213,299 213,290 C 213,278 213,269 212,264 C 211,259 210,255 207,251 C 204,247 200,244 196,243 C 192,242 188,242 182,242 L 177,242 L 177,257 L 180,257 C 187,257 191,258 193,260 C 196,263 197,264 197,267 L 197,292 C 197,307 199,317 202,323 C 205,329 211,333 217,336 C 211,339 205,343 202,349 C 199,355 197,365 197,380 L 197,405 C 197,408 196,409 193,412 C 191,414 187,415 180,415 L 177,415 L 177,430 z" id="llv"/><use xlink:href="#llv" transform="matrix(-1,0,0,1,260,0)"/><path d="M 192,656 C 201,642 212,627 218,611 C 224,594 227,578 227,562 C 227,546 224,530 218,513 C 212,497 201,482 192,468 L 180,468 C 199,499 209,531 209,562 C 209,593 199,625 180,656 L 192,656 z" id="prnts"/>
<use xlink:href="#prnts" transform="matrix(-1,0,0,1,260,0)"/><path id="anglr" d="M 222,794 L 196,886 H 180 L 206,794 L 180,702 H 196 z"/><use xlink:href="#anglr" transform="matrix(-1,0,0,1,260,0)"/><path fill="red" d="M 242,980 L 147,1020 L 147,1002 L 222,971 L 147,940 L 147,922 L 242,962 L 242,980 z" id="mayor"/><use xlink:href="#mayor" transform="matrix(-1,0,0,1,260,0)"/></svg>
