<?xml version="1.0" encoding="UTF-8" standalone="no"?>
<svg
   xmlns:dc="http://purl.org/dc/elements/1.1/"
   xmlns:cc="http://creativecommons.org/ns#"
   xmlns:rdf="http://www.w3.org/1999/02/22-rdf-syntax-ns#"
   xmlns:svg="http://www.w3.org/2000/svg"
   xmlns="http://www.w3.org/2000/svg"
   xmlns:xlink="http://www.w3.org/1999/xlink"
   xmlns:sodipodi="http://sodipodi.sourceforge.net/DTD/sodipodi-0.dtd"
   xmlns:inkscape="http://www.inkscape.org/namespaces/inkscape"
   version="1.1"
   width="1000"
   height="1000"
   id="svg2"
   inkscape:version="0.48.5 r10040"
   sodipodi:docname="shape_double_brace.svg">
  <metadata
     id="metadata23">
    <rdf:RDF>
      <cc:Work
         rdf:about="">
        <dc:format>image/svg+xml</dc:format>
        <dc:type
           rdf:resource="http://purl.org/dc/dcmitype/StillImage" />
        <dc:title />
      </cc:Work>
    </rdf:RDF>
  </metadata>
  <defs
     id="defs21">
    <inkscape:perspective
       sodipodi:type="inkscape:persp3d"
       inkscape:vp_x="0 : 515 : 1"
       inkscape:vp_y="0 : 1000 : 0"
       inkscape:vp_z="260 : 515 : 1"
       inkscape:persp3d-origin="130 : 343.33333 : 1"
       id="perspective25" />
    <filter
       id="filter3669"
       inkscape:label="Drop shadow"
       width="1.5"
       height="1.5"
       x="-.25"
       y="-.25">
      <feGaussianBlur
         id="feGaussianBlur3671"
         in="SourceAlpha"
         stdDeviation="20.000000"
         result="blur" />
      <feColorMatrix
         id="feColorMatrix3673"
         result="bluralpha"
         type="matrix"
         values="1 0 0 0 0 0 1 0 0 0 0 0 1 0 0 0 0 0 0.322000 0 " />
      <feOffset
         id="feOffset3675"
         in="bluralpha"
         dx="20.000000"
         dy="20.000000"
         result="offsetBlur" />
      <feMerge
         id="feMerge3677">
        <feMergeNode
           id="feMergeNode3679"
           in="offsetBlur" />
        <feMergeNode
           id="feMergeNode3681"
           in="SourceGraphic" />
      </feMerge>
    </filter>
    <filter
       id="filter3683"
       inkscape:label="Drop shadow"
       width="1.5"
       height="1.5"
       x="-.25"
       y="-.25">
      <feGaussianBlur
         id="feGaussianBlur3685"
         in="SourceAlpha"
         stdDeviation="20.000000"
         result="blur" />
      <feColorMatrix
         id="feColorMatrix3687"
         result="bluralpha"
         type="matrix"
         values="1 0 0 0 0 0 1 0 0 0 0 0 1 0 0 0 0 0 0.322000 0 " />
      <feOffset
         id="feOffset3689"
         in="bluralpha"
         dx="20.000000"
         dy="20.000000"
         result="offsetBlur" />
      <feMerge
         id="feMerge3691">
        <feMergeNode
           id="feMergeNode3693"
           in="offsetBlur" />
        <feMergeNode
           id="feMergeNode3695"
           in="SourceGraphic" />
      </feMerge>
    </filter>
  </defs>
  <sodipodi:namedview
     pagecolor="#ffffff"
     bordercolor="#666666"
     borderopacity="1"
     objecttolerance="10"
     gridtolerance="10"
     guidetolerance="10"
     inkscape:pageopacity="0"
     inkscape:pageshadow="2"
     inkscape:window-width="1126"
     inkscape:window-height="864"
     id="namedview19"
     showgrid="false"
     inkscape:zoom="0.2"
     inkscape:cx="-620"
     inkscape:cy="1191.4169"
     inkscape:window-x="202"
     inkscape:window-y="118"
     inkscape:window-maximized="0"
     inkscape:current-layer="svg2" />
  <path
     d="m 680.06812,927.37214 20.51753,0 c 24.62103,0 41.03505,0 57.44907,-4.49392 16.41402,-4.49396 32.82804,-17.97582 45.13856,-35.95165 12.31051,-17.97581 16.41401,-35.95165 20.51752,-58.42143 4.1035,-22.46978 4.1035,-62.91537 4.1035,-116.84284 0,-40.4456 0,-67.40935 4.10351,-89.87912 4.1035,-22.46978 12.31051,-44.93956 24.62102,-58.42143 12.31052,-13.48186 28.72454,-22.46978 53.34557,-22.46978 l 0,-71.90329 c -24.62103,0 -41.03505,-8.98791 -53.34557,-22.46977 -12.31051,-13.48188 -20.51752,-35.95167 -24.62102,-58.42143 -4.10351,-22.46979 -4.10351,-49.43353 -4.10351,-89.87912 0,-53.92747 0,-94.37308 -4.1035,-116.84286 -4.10351,-22.46977 -8.20701,-40.44559 -20.51752,-58.42142 C 790.86276,104.97825 774.44874,91.496386 758.03472,87.00243 741.6207,82.508475 725.20668,82.508475 700.58565,82.508475 l -20.51753,0 0,67.409335 12.31052,0 c 28.72453,0 45.13856,4.49396 53.34557,13.48187 12.31051,13.48187 16.41401,17.97582 16.41401,31.45769 l 0,112.3489 c 0,67.40934 8.20701,112.34889 20.51753,139.31264 12.31052,26.96372 36.93154,44.93955 61.55257,58.42141 -24.62103,13.48187 -49.24205,31.45769 -61.55257,58.42143 -12.31052,26.96374 -20.51753,71.9033 -20.51753,139.31263 l 0,112.3489 c 0,13.48186 -4.1035,17.97582 -16.41401,31.45769 -8.20701,8.9879 -24.62104,13.48187 -53.34557,13.48187 l -12.31052,0 0,67.4093 z"
     id="llv"
     style="fill:#6eaaff;fill-opacity:1;stroke:#0064c8;stroke-opacity:1;stroke-width:10;stroke-miterlimit:4;stroke-dasharray:none;" />
  <use
     xlink:href="#llv"
     transform="matrix(-1,0,0,1,974.4068,0)"
     id="use8"
     x="0"
     y="0"
     width="260"
     height="1030"
     style="fill:#6eaaff;fill-opacity:1;stroke:#0064c8;stroke-opacity:1;stroke-width:10;stroke-miterlimit:4;stroke-dasharray:none;" />
</svg>
