<?xml version="1.0" encoding="UTF-8" standalone="no"?>
<!--
### begin_: file metadata
    ### <region-file_info>
    ### main:
    ###   - name : xml.svg
    ###     date : created="Fri November 24, 2006, 7:35:17 AM"
    ###     last : lastmod="Mon 2007-08-13 19:38:35"
    ###     desc : |
    ###         Image from the Dreftymac ImgNode Series
    ###         Incorporates the SVG Logo: 
    ###             http://en.wikipedia.org/wiki/Image:SVG-Logo2.svg
    ###             used by permission of copyright owner
    ###         For more details, see:
    ###             http://en.wikipedia.org/wiki/User:Dreftymac/Docs/ImageDisclaimer
    ###     hist : |
    ###         2007-08-12 ;; created version for upload to wikipedia
	###			2008-08-23 ;; validated SVG with http://validator.w3.org
    ### </region-file_info>
    -->

<svg
   xmlns:dc="http://purl.org/dc/elements/1.1/"
   xmlns:cc="http://creativecommons.org/ns#"
   xmlns:rdf="http://www.w3.org/1999/02/22-rdf-syntax-ns#"
   xmlns:svg="http://www.w3.org/2000/svg"
   xmlns="http://www.w3.org/2000/svg"
   xmlns:xlink="http://www.w3.org/1999/xlink"
   xmlns:sodipodi="http://sodipodi.sourceforge.net/DTD/sodipodi-0.dtd"
   xmlns:inkscape="http://www.inkscape.org/namespaces/inkscape"
   version="1.1"
   x="0.00000000"
   y="0.00000000"
   width="1000"
   height="1000"
   id="svg1332"
   sodipodi:version="0.32"
   inkscape:version="0.47 r22583"
   sodipodi:docname="svg.svg"
   inkscape:output_extension="org.inkscape.output.svg.inkscape"
   inkscape:export-filename="C:\Users\ramin\Documents\ws\joffice\com.wwindows.office.ooxml.libs\svg\svg.png"
   inkscape:export-xdpi="21.42"
   inkscape:export-ydpi="21.42">
  <metadata
     id="metadata99">
    <rdf:RDF>
      <cc:Work
         rdf:about="">
        <dc:format>image/svg+xml</dc:format>
        <dc:type
           rdf:resource="http://purl.org/dc/dcmitype/StillImage" />
        <dc:title></dc:title>
      </cc:Work>
    </rdf:RDF>
  </metadata>
  <sodipodi:namedview
     inkscape:window-height="896"
     inkscape:window-width="882"
     inkscape:pageshadow="2"
     inkscape:pageopacity="0.0"
     guidetolerance="10.0"
     gridtolerance="10.0"
     objecttolerance="10.0"
     borderopacity="1.0"
     bordercolor="#666666"
     pagecolor="#ffffff"
     id="base"
     showgrid="false"
     inkscape:zoom="0.23555319"
     inkscape:cx="137.5"
     inkscape:cy="156.25"
     inkscape:window-x="320"
     inkscape:window-y="81"
     inkscape:current-layer="svg1332"
     inkscape:window-maximized="0" />
  <defs
     id="defs1334">
    <inkscape:perspective
       sodipodi:type="inkscape:persp3d"
       inkscape:vp_x="0 : 156.25 : 1"
       inkscape:vp_y="0 : 1000 : 0"
       inkscape:vp_z="275 : 156.25 : 1"
       inkscape:persp3d-origin="137.5 : 104.16667 : 1"
       id="perspective101" />
    <linearGradient
       x1="99.777298"
       y1="15.4238"
       x2="153.0005"
       y2="248.6311"
       id="aigrd1"
       gradientUnits="userSpaceOnUse">
      <stop
         style="stop-color:#184375;stop-opacity:1.0000000;"
         offset="0.00000000"
         id="stop53300" />
      <stop
         style="stop-color:#c8bddc;stop-opacity:1.0000000;"
         offset="1.0000000"
         id="stop53302" />
    </linearGradient>
    <linearGradient
       id="linearGradient3264">
      <stop
         style="stop-color:#c9c9c9;stop-opacity:1.0000000;"
         offset="0.00000000"
         id="stop3266" />
      <stop
         style="stop-color:#f8f8f8;stop-opacity:1.0000000;"
         offset="0.25000000"
         id="stop3276" />
      <stop
         style="stop-color:#e2e2e2;stop-opacity:1.0000000;"
         offset="0.50000000"
         id="stop3272" />
      <stop
         style="stop-color:#3b3b3b;stop-opacity:1.0000000;"
         offset="0.75000000"
         id="stop3274" />
      <stop
         style="stop-color:#c9c9c9;stop-opacity:1.0000000;"
         offset="1.0000000"
         id="stop3268" />
    </linearGradient>
    <linearGradient
       x1="0.052173913"
       y1="0.9765625"
       x2="0.78260869"
       y2="0.0078125"
       id="linearGradient1506"
       xlink:href="#linearGradient1507" />
    <linearGradient
       id="linearGradient1507">
      <stop
         style="stop-color:#000000;stop-opacity:0.095505618;"
         offset="0.00000000"
         id="stop1508" />
      <stop
         style="stop-color:#000000;stop-opacity:0.00000000;"
         offset="1.0000000"
         id="stop1510" />
    </linearGradient>
    <linearGradient
       x1="1.5572519"
       y1="-0.55303031"
       x2="0.062992126"
       y2="0.546875"
       id="linearGradient1499"
       xlink:href="#linearGradient1501" />
    <linearGradient
       id="linearGradient1501">
      <stop
         style="stop-color:#ffffff;stop-opacity:1.0000000;"
         offset="0.00000000"
         id="stop1502" />
      <stop
         style="stop-color:#ffffff;stop-opacity:0.00000000;"
         offset="1.0000000"
         id="stop1504" />
    </linearGradient>
    <linearGradient
       x1="0.88034189"
       y1="0.2109375"
       x2="0.085470088"
       y2="1.1796875"
       id="linearGradient1495"
       xlink:href="#linearGradient1492" />
    <linearGradient
       id="linearGradient1492">
      <stop
         style="stop-color:#dadada;stop-opacity:1.0000000;"
         offset="0.00000000"
         id="stop1493" />
      <stop
         style="stop-color:#f1f1f1;stop-opacity:1.0000000;"
         offset="0.34923077"
         id="stop1496" />
      <stop
         style="stop-color:#f0f0f0;stop-opacity:1.0000000;"
         offset="1.0000000"
         id="stop1494" />
    </linearGradient>
    <linearGradient
       x1="0.63247865"
       y1="0.328125"
       x2="-0.37606838"
       y2="1.328125"
       id="linearGradient1497"
       xlink:href="#linearGradient1492" />
    <linearGradient
       id="linearGradient2201">
      <stop
         style="stop-color:#cbcbca;stop-opacity:1.0000000;"
         offset="0.00000000"
         id="stop2202" />
      <stop
         style="stop-color:#ffffff;stop-opacity:1.0000000;"
         offset="1.0000000"
         id="stop2203" />
    </linearGradient>
    <linearGradient
       id="linearGradient259">
      <stop
         style="stop-color:#fafafa;stop-opacity:1.0000000;"
         offset="0.00000000"
         id="stop260" />
      <stop
         style="stop-color:#bbbbbb;stop-opacity:1.0000000;"
         offset="1.0000000"
         id="stop261" />
    </linearGradient>
    <linearGradient
       id="linearGradient269">
      <stop
         style="stop-color:#a3a3a3;stop-opacity:1.0000000;"
         offset="0.00000000"
         id="stop270" />
      <stop
         style="stop-color:#4c4c4c;stop-opacity:1.0000000;"
         offset="1.0000000"
         id="stop271" />
    </linearGradient>
    <linearGradient
       id="linearGradient15662">
      <stop
         style="stop-color:#ffffff;stop-opacity:1.0000000;"
         offset="0.00000000"
         id="stop15664" />
      <stop
         style="stop-color:#f8f8f8;stop-opacity:1.0000000;"
         offset="1.0000000"
         id="stop15666" />
    </linearGradient>
    <radialGradient
       cx="20.892099"
       cy="114.5684"
       r="5.256"
       fx="20.892099"
       fy="114.5684"
       id="aigrd2"
       gradientUnits="userSpaceOnUse">
      <stop
         style="stop-color:#f0f0f0;stop-opacity:1.0000000;"
         offset="0.00000000"
         id="stop15566" />
      <stop
         style="stop-color:#9a9a9a;stop-opacity:1.0000000;"
         offset="1.0000000"
         id="stop15568" />
    </radialGradient>
    <radialGradient
       cx="20.892099"
       cy="64.567902"
       r="5.257"
       fx="20.892099"
       fy="64.567902"
       id="aigrd3"
       gradientUnits="userSpaceOnUse">
      <stop
         style="stop-color:#f0f0f0;stop-opacity:1.0000000;"
         offset="0.00000000"
         id="stop15573" />
      <stop
         style="stop-color:#9a9a9a;stop-opacity:1.0000000;"
         offset="1.0000000"
         id="stop15575" />
    </radialGradient>
    <filter
       id="filter2893"
       inkscape:label="Drop shadow"
       width="1.5"
       height="1.5"
       x="-.25"
       y="-.25">
      <feGaussianBlur
         id="feGaussianBlur2895"
         in="SourceAlpha"
         stdDeviation="20.000000"
         result="blur" />
      <feColorMatrix
         id="feColorMatrix2897"
         result="bluralpha"
         type="matrix"
         values="1 0 0 0 0 0 1 0 0 0 0 0 1 0 0 0 0 0 0.500000 0 " />
      <feOffset
         id="feOffset2899"
         in="bluralpha"
         dx="20.000000"
         dy="20.000000"
         result="offsetBlur" />
      <feMerge
         id="feMerge2901">
        <feMergeNode
           id="feMergeNode2903"
           in="offsetBlur" />
        <feMergeNode
           id="feMergeNode2905"
           in="SourceGraphic" />
      </feMerge>
    </filter>
  </defs>
  <g
     transform="matrix(1.2269212,0,0,1.2671201,-42.47308,-120.18491)"
     id="layer1"
     inkscape:export-filename="C:\Users\ramin\Documents\ws\joffice\com.wwindows.office.build\web\joffice.eu\images\logos\svg.png"
     inkscape:export-xdpi="2.9239721"
     inkscape:export-ydpi="2.9239721"
     style="filter:url(#filter2893)">
    <g
       transform="matrix(4.675013,0,0,4.675013,-1353.75,-678.4329)"
       style="fill-rule:evenodd"
       id="_189263792">
      <rect
         width="136.42599"
         height="136.42599"
         x="315.48599"
         y="180.991"
         style="fill:#ff9900"
         id="_151141056" />
      <rect
         width="68.215401"
         height="68.003899"
         x="383.69699"
         y="249.205"
         style="fill:#de8500"
         id="_151140504" />
      <rect
         width="68.215401"
         height="68.215401"
         x="315.487"
         y="180.99001"
         style="fill:#ffb13b"
         id="_151140120" />
      <g
         id="g107">
        <circle
           cx="340.75699"
           cy="249.099"
           r="25.0634"
           style="fill:#ff9900"
           id="_151139416"
           d="m 365.82039,249.099 c 0,13.84213 -11.22127,25.0634 -25.0634,25.0634 -13.84214,0 -25.0634,-11.22127 -25.0634,-25.0634 0,-13.84213 11.22126,-25.0634 25.0634,-25.0634 13.84213,0 25.0634,11.22127 25.0634,25.0634 z"
           sodipodi:cx="340.75699"
           sodipodi:cy="249.099"
           sodipodi:rx="25.0634"
           sodipodi:ry="25.0634" />
        <circle
           cx="0"
           cy="0"
           r="1658.51"
           transform="matrix(0.0106858,0.0106858,-0.0106858,0.0106858,353.365,218.661)"
           style="fill:#ff9900"
           id="_151137016"
           d="M 1658.51,0 C 1658.51,915.96979 915.96979,1658.51 0,1658.51 -915.96979,1658.51 -1658.51,915.96979 -1658.51,0 c 0,-915.96979 742.54021,-1658.51 1658.51,-1658.51 915.96979,0 1658.51,742.54021 1658.51,1658.51 z"
           sodipodi:cx="0"
           sodipodi:cy="0"
           sodipodi:rx="1658.51"
           sodipodi:ry="1658.51" />
        <circle
           cx="0"
           cy="0"
           r="1658.51"
           transform="matrix(0,0.015112,-0.015112,0,383.803,206.053)"
           style="fill:#ff9900"
           id="_151136448"
           d="M 1658.51,0 C 1658.51,915.96979 915.96979,1658.51 0,1658.51 -915.96979,1658.51 -1658.51,915.96979 -1658.51,0 c 0,-915.96979 742.54021,-1658.51 1658.51,-1658.51 915.96979,0 1658.51,742.54021 1658.51,1658.51 z"
           sodipodi:cx="0"
           sodipodi:cy="0"
           sodipodi:rx="1658.51"
           sodipodi:ry="1658.51" />
        <circle
           cx="0"
           cy="0"
           r="1658.51"
           transform="matrix(-0.0106858,0.0106858,-0.0106858,-0.0106858,414.241,218.661)"
           style="fill:#ff9900"
           id="_151135880"
           d="M 1658.51,0 C 1658.51,915.96979 915.96979,1658.51 0,1658.51 -915.96979,1658.51 -1658.51,915.96979 -1658.51,0 c 0,-915.96979 742.54021,-1658.51 1658.51,-1658.51 915.96979,0 1658.51,742.54021 1658.51,1658.51 z"
           sodipodi:cx="0"
           sodipodi:cy="0"
           sodipodi:rx="1658.51"
           sodipodi:ry="1658.51" />
        <circle
           cx="426.849"
           cy="249.099"
           r="25.0634"
           style="fill:#ff9900"
           id="_151135312"
           d="m 451.9124,249.099 c 0,13.84213 -11.22127,25.0634 -25.0634,25.0634 -13.84213,0 -25.0634,-11.22127 -25.0634,-25.0634 0,-13.84213 11.22127,-25.0634 25.0634,-25.0634 13.84213,0 25.0634,11.22127 25.0634,25.0634 z"
           sodipodi:cx="426.849"
           sodipodi:cy="249.099"
           sodipodi:rx="25.0634"
           sodipodi:ry="25.0634" />
        <circle
           cx="0"
           cy="0"
           r="1658.51"
           transform="matrix(-0.0106858,-0.0106858,0.0106858,-0.0106858,414.241,279.538)"
           style="fill:#ff9900"
           id="_151134744"
           d="M 1658.51,0 C 1658.51,915.96979 915.96979,1658.51 0,1658.51 -915.96979,1658.51 -1658.51,915.96979 -1658.51,0 c 0,-915.96979 742.54021,-1658.51 1658.51,-1658.51 915.96979,0 1658.51,742.54021 1658.51,1658.51 z"
           sodipodi:cx="0"
           sodipodi:cy="0"
           sodipodi:rx="1658.51"
           sodipodi:ry="1658.51" />
        <circle
           cx="0"
           cy="0"
           r="1658.51"
           transform="matrix(0,-0.015112,0.015112,0,383.803,292.146)"
           style="fill:#ff9900"
           id="_151134176"
           d="M 1658.51,0 C 1658.51,915.96979 915.96979,1658.51 0,1658.51 -915.96979,1658.51 -1658.51,915.96979 -1658.51,0 c 0,-915.96979 742.54021,-1658.51 1658.51,-1658.51 915.96979,0 1658.51,742.54021 1658.51,1658.51 z"
           sodipodi:cx="0"
           sodipodi:cy="0"
           sodipodi:rx="1658.51"
           sodipodi:ry="1658.51" />
        <circle
           cx="0"
           cy="0"
           r="1658.51"
           transform="matrix(0.0106858,-0.0106858,0.0106858,0.0106858,353.365,279.538)"
           style="fill:#ff9900"
           id="_151038344"
           d="M 1658.51,0 C 1658.51,915.96979 915.96979,1658.51 0,1658.51 -915.96979,1658.51 -1658.51,915.96979 -1658.51,0 c 0,-915.96979 742.54021,-1658.51 1658.51,-1658.51 915.96979,0 1658.51,742.54021 1658.51,1658.51 z"
           sodipodi:cx="0"
           sodipodi:cy="0"
           sodipodi:rx="1658.51"
           sodipodi:ry="1658.51" />
      </g>
      <path
         d="m 401.634,206.051 c 0,-9.84433 -7.98625,-17.8306 -17.8306,-17.8306 -9.84433,0 -17.8306,7.98625 -17.8306,17.8306 -6.96405,-6.95901 -18.2536,-6.95901 -25.2176,0 -6.95901,6.96405 -6.95901,18.2536 0,25.2176 -9.84433,0 -17.8306,7.98625 -17.8306,17.8306 0,9.84433 7.98625,17.8306 17.8306,17.8306 -6.95901,6.96405 -6.95901,18.2536 0,25.2176 6.96405,6.95901 18.2536,6.95901 25.2176,0 0,9.84433 7.98625,17.8306 17.8306,17.8306 9.84433,0 17.8306,-7.98625 17.8306,-17.8306 6.96405,6.95901 18.2536,6.95901 25.2176,0 6.95901,-6.96405 6.95901,-18.2536 0,-25.2176 9.84433,0 17.8255,-7.98625 17.8255,-17.8306 0,-9.84433 -7.98121,-17.8306 -17.8255,-17.8306 6.95901,-6.96405 6.95901,-18.2536 0,-25.2176 -6.96405,-6.95901 -18.2536,-6.95901 -25.2176,0 z"
         style="fill:#000000"
         id="_151038768" />
      <path
         d="m 390.626,212.879 0,19.7441 13.9633,-13.9633 c 0,-2.46738 0.94163,-4.93979 2.8249,-6.82305 3.77156,-3.77156 9.88462,-3.77156 13.6511,0 3.77156,3.76653 3.77156,9.87958 0,13.6511 -1.88326,1.88326 -4.35568,2.8249 -6.82305,2.8249 l -13.9633,13.9633 19.7441,0 c 1.74731,-1.74731 4.15929,-2.82993 6.82809,-2.82993 5.32752,0 9.64795,4.32546 9.64795,9.65298 0,5.32752 -4.32043,9.65298 -9.64795,9.65298 -2.6688,0 -5.08078,-1.08262 -6.82809,-2.82993 l -19.7441,0 13.9633,13.9633 c 2.46738,0 4.93979,0.94163 6.82305,2.8249 3.77156,3.77156 3.77156,9.88462 0,13.6511 -3.76653,3.77156 -9.87958,3.77156 -13.6511,0 -1.88326,-1.88326 -2.8249,-4.35568 -2.8249,-6.82305 l -13.9633,-13.9633 0,19.7441 c 1.74731,1.74731 2.82993,4.15929 2.82993,6.82809 0,5.32752 -4.32546,9.64795 -9.65298,9.64795 -5.32752,0 -9.65298,-4.32043 -9.65298,-9.64795 0,-2.6688 1.08262,-5.08078 2.82993,-6.82809 l 0,-19.7441 -13.9633,13.9633 c 0,2.46738 -0.94163,4.93979 -2.8249,6.82305 -3.77156,3.77156 -9.88462,3.77156 -13.6511,0 -3.77156,-3.76653 -3.77156,-9.87958 0,-13.6511 1.88326,-1.88326 4.35568,-2.8249 6.82305,-2.8249 l 13.9633,-13.9633 -19.7441,0 c -1.74731,1.74731 -4.15929,2.82993 -6.82809,2.82993 -5.32752,0 -9.64795,-4.32546 -9.64795,-9.65298 0,-5.32752 4.32043,-9.65298 9.64795,-9.65298 2.6688,0 5.08078,1.08262 6.82809,2.82993 l 19.7441,0 -13.9633,-13.9633 c -2.46738,0 -4.93979,-0.94163 -6.82305,-2.8249 -3.77156,-3.77156 -3.77156,-9.88462 0,-13.6511 3.76653,-3.77156 9.87958,-3.77156 13.6511,0 1.88326,1.88326 2.8249,4.35568 2.8249,6.82305 l 13.9633,13.9633 0,-19.7441 c -1.74731,-1.74731 -2.82993,-4.15929 -2.82993,-6.82809 0,-5.32752 4.32546,-9.64795 9.65298,-9.64795 5.32752,0 9.65298,4.32043 9.65298,9.64795 0,2.6688 -1.08262,5.08078 -2.82993,6.82809 z"
         style="fill:#ffffff"
         id="_151037224" />
      <rect
         width="121.742"
         height="60.770401"
         x="322.92899"
         y="249.203"
         style="fill:#000000"
         id="_151036536" />
      <rect
         width="121.742"
         height="26.6689"
         x="322.92899"
         y="283.30499"
         style="fill:#000000"
         id="_151035984" />
      <path
         d="m 335.689,254.84 97.2147,0 c 3.98305,0 7.23596,3.25291 7.23596,7.23596 l 0,24.4069 c -37.5696,-4.64773 -74.8169,-11.073 -111.687,-10.4788 l 0,-13.9281 c 0,-3.98305 3.25291,-7.23596 7.23596,-7.23596 l 3.8e-4,0 z"
         style="fill:#3f3f3f"
         id="_151164400" />
      <polygon
         points="390.279,253.198 399.594,253.198 399.594,253.198 388.355,307.481 379.04,307.481 367.795,253.198 377.111,253.198 383.697,284.992 "
         style="fill:#ffffff;stroke:#000000;stroke-width:0.05893125"
         id="_151164136" />
      <path
         d="m 415.496,275.682 15.902,0 0,15.897 0,0 c 0,8.78185 -7.12015,15.902 -15.897,15.902 -8.78185,0 -15.902,-7.12015 -15.902,-15.902 l 0,0 0,-22.4833 -0.005,0 c 0,-8.77681 7.12015,-15.897 15.902,-15.897 8.78185,0 15.902,7.12015 15.902,15.897 l -9.31561,0 c 0,-3.63561 -2.95078,-6.58135 -6.58639,-6.58135 -3.63561,0 -6.58135,2.94575 -6.58135,6.58135 l 0,22.4833 0,0 c 0,3.63561 2.94575,6.58639 6.58135,6.58639 3.63561,0 6.58639,-2.95078 6.58639,-6.58135 l 0,-0.005 0,-6.58135 -6.58639,0 0,-9.31561 4e-5,-4e-5 z"
         style="fill:#ffffff;stroke:#000000;stroke-width:0.05893125"
         id="_151163752" />
      <path
         d="m 340.654,280.339 c -2.87525,-2.88029 -4.6578,-6.85327 -4.6578,-11.2442 0,-8.78185 7.12015,-15.897 15.902,-15.897 8.77681,0 15.897,7.11511 15.897,15.897 l -9.31057,0 c 0,-3.63561 -2.95078,-6.58639 -6.58639,-6.58639 -3.63561,0 -6.58639,2.95078 -6.58639,6.58639 0,1.8178 0.73518,3.45936 1.92355,4.65277 l 0.005,0 c 1.1934,1.1934 2.84,1.92858 4.6578,1.92858 l 0,0.005 c 4.39092,0 8.36391,1.77752 11.2392,4.6578 l 0,0 c 2.88029,2.87525 4.6578,6.85327 4.6578,11.2392 0,8.78185 -7.12015,15.902 -15.897,15.902 -8.78185,0 -15.902,-7.12015 -15.902,-15.902 l 9.31561,0 c 0,3.64064 2.95078,6.58639 6.58639,6.58639 3.63561,0 6.58639,-2.94575 6.58639,-6.58639 0,-1.81277 -0.73518,-3.45936 -1.92858,-4.65277 l 0,0 c -1.1934,-1.18837 -2.84,-1.92858 -4.6578,-1.92858 l 0,0 c -4.39092,0 -8.36391,-1.78255 -11.2442,-4.6578 l 0,0 -5e-5,-4e-5 z"
         style="fill:#ffffff;stroke:#000000;stroke-width:0.05893125"
         id="_151162704" />
    </g>
  </g>
</svg>
