<?xml version="1.0" encoding="UTF-8" standalone="no"?>
<svg
   xmlns:dc="http://purl.org/dc/elements/1.1/"
   xmlns:cc="http://creativecommons.org/ns#"
   xmlns:rdf="http://www.w3.org/1999/02/22-rdf-syntax-ns#"
   xmlns:svg="http://www.w3.org/2000/svg"
   xmlns="http://www.w3.org/2000/svg"
   xmlns:sodipodi="http://sodipodi.sourceforge.net/DTD/sodipodi-0.dtd"
   xmlns:inkscape="http://www.inkscape.org/namespaces/inkscape"
   version="1.0"
   height="1000"
   width="1000"
   id="svg2"
   sodipodi:version="0.32"
   inkscape:version="0.48.4 r9939"
   sodipodi:docname="symbols.svg"
   inkscape:output_extension="org.inkscape.output.svg.inkscape"
   inkscape:export-filename="C:\data\ws\joffice_migration_1\com.joffice.client.resources\src\com\joffice\ui\resources\images\tools\symbols_24.png"
   inkscape:export-xdpi="2.1600001"
   inkscape:export-ydpi="2.1600001">
  <metadata
     id="metadata9">
    <rdf:RDF>
      <cc:Work
         rdf:about="">
        <dc:format>image/svg+xml</dc:format>
        <dc:type
           rdf:resource="http://purl.org/dc/dcmitype/StillImage" />
        <dc:title></dc:title>
      </cc:Work>
    </rdf:RDF>
  </metadata>
  <defs
     id="defs7">
    <inkscape:perspective
       sodipodi:type="inkscape:persp3d"
       inkscape:vp_x="0 : 284.44 : 1"
       inkscape:vp_y="0 : 1000 : 0"
       inkscape:vp_z="588.41998 : 284.44 : 1"
       inkscape:persp3d-origin="294.20999 : 189.62667 : 1"
       id="perspective11" />
    <inkscape:perspective
       id="perspective8"
       inkscape:persp3d-origin="200 : 133.33333 : 1"
       inkscape:vp_z="400 : 200 : 1"
       inkscape:vp_y="0 : 1000 : 0"
       inkscape:vp_x="0 : 200 : 1"
       sodipodi:type="inkscape:persp3d" />
    <filter
       inkscape:collect="always"
       id="filter3977">
      <feGaussianBlur
         inkscape:collect="always"
         stdDeviation="4.7745866"
         id="feGaussianBlur3979" />
    </filter>
  </defs>
  <sodipodi:namedview
     inkscape:window-height="748"
     inkscape:window-width="1291"
     inkscape:pageshadow="2"
     inkscape:pageopacity="0.0"
     guidetolerance="10.0"
     gridtolerance="10.0"
     objecttolerance="10.0"
     borderopacity="1.0"
     bordercolor="#666666"
     pagecolor="#ffffff"
     id="base"
     showgrid="false"
     inkscape:zoom="0.32"
     inkscape:cx="281.49436"
     inkscape:cy="421.22479"
     inkscape:window-x="67"
     inkscape:window-y="-8"
     inkscape:current-layer="svg2"
     inkscape:window-maximized="1" />
  <g
     id="g3981"
     transform="matrix(1.0537754,0,0,1.0537754,-5.615966,-39.225906)">
    <g
       style="filter:url(#filter3977)"
       transform="matrix(0.918712,0,0,0.918712,-55.046111,28.95206)"
       id="g3169">
      <path
         inkscape:connector-curvature="0"
         id="path3165"
         d="m 122.24067,245.25894 24.91367,1.74111 c 25.83641,-27.5675 35.98642,-109.10928 188.23664,-93.14915 -5.53636,349.38189 -167.93661,386.23531 -157.78659,457.91081 3.69092,40.62581 37.83188,65.58166 74.74103,67.03258 116.5714,-3.7724 111.3426,-152.05658 147.63658,-525.81395 l 150.40478,0 c -7.99698,131.74367 -29.83489,263.48734 -32.2955,392.61935 1.84546,85.89455 57.20919,131.74368 130.10475,132.32405 119.95472,3.77239 157.7866,-128.26147 157.7866,-184.55723 l -25.8364,2e-5 c -2.46062,46.42948 -26.14398,79.80068 -76.58649,81.83196 -137.48657,1.7411 -61.82282,-228.08485 -60.90008,-420.47704 l 163.32297,0.87056 -0.92272,-98.372494 C 126.22657,54.117178 212.38987,41.561437 122.24067,245.25894 z"
         style="fill:#000000;fill-opacity:1;stroke:none" />
      <path
         inkscape:connector-curvature="0"
         d="m 450.08055,875.62274 16.5385,0 c 1.19192,20.50949 7.44975,34.80829 18.77346,42.89638 11.32358,8.08831 29.35205,12.1324 54.08541,12.1323 l 122.02735,0 -0.89398,-29.03087 C 613.2305,892.37699 570.02188,866.8125 530.98517,824.92698 491.94825,783.04185 472.42983,730.17969 472.42989,666.34032 c -6e-5,-70.77143 27.11712,-131.14404 81.3516,-181.11812 54.53222,-49.97299 125.603,-74.95976 213.21267,-74.96035 84.92718,5.9e-4 154.35902,23.68747 208.29587,71.06068 53.93597,47.08543 80.90397,107.45806 80.90467,181.11812 -7e-4,59.79525 -16.837,110.6354 -50.5095,152.52052 -33.37557,41.59666 -78.67015,70.4831 -135.88394,86.65938 l -4.46986,29.03087 124.26221,0 c 28.30879,10e-5 46.93319,-5.19945 55.87349,-15.59867 9.237,-10.39903 14.1538,-23.54235 14.7505,-39.43001 l 16.5385,0 0,135.62196 -250.31257,0 11.62164,-130.8557 c 76.88108,-23.39789 115.32202,-92.29203 115.32248,-206.68263 -4.6e-4,-74.81552 -18.92278,-132.15509 -56.76733,-172.01887 -37.54719,-39.86277 -81.64989,-59.7944 -132.30807,-59.79498 -53.93663,5.8e-4 -98.63526,21.23208 -134.09603,63.69466 -35.16308,42.17468 -52.74463,96.1923 -52.7444,162.05304 -2.3e-4,47.66294 7.89663,91.13703 23.69022,130.42236 15.79337,38.99689 46.03943,66.43901 90.73841,82.32642 l 8.49268,130.8557 -250.31258,0 0,-135.62196"
         id="path3167"
         style="font-size:400px;font-style:normal;font-weight:normal;text-align:start;text-anchor:start;fill:#000000;fill-opacity:1;stroke:none;font-family:Times New Roman" />
    </g>
    <path
       id="path4"
       d="M 22.417408,236.33782 45.3059,237.9374 c 23.736213,-25.32659 33.06115,-100.24 172.93526,-85.57724 -5.08633,320.98133 -154.285379,354.83901 -144.960438,420.68815 3.39089,37.32342 34.756598,60.25066 68.665478,61.58364 107.09555,-3.46575 102.29179,-139.69621 135.6355,-483.07159 l 138.17868,0 c -7.34693,121.03449 -27.40967,242.06898 -29.67027,360.70411 1.69545,78.91236 52.55877,121.0345 119.5288,121.56769 110.20384,3.46574 144.96044,-117.83535 144.96044,-169.55494 l -23.73621,2e-5 c -2.2606,42.65532 -24.01879,73.31384 -70.36093,75.18 -126.31056,1.59957 -56.79736,-209.54428 -55.94963,-386.2973 l 150.04677,0.7998 -0.84771,-90.375991 C 26.079307,60.733594 105.23856,49.198485 22.417408,236.33782 z"
       style="fill:#0f65a9;fill-opacity:1;stroke:#000000;stroke-width:15;stroke-miterlimit:4;stroke-opacity:1;stroke-dasharray:none"
       inkscape:connector-curvature="0" />
    <path
       sodipodi:nodetypes="ccsccccscccccccccccccccccccccccc"
       d="m 323.60784,815.46061 15.19412,0 c 1.09503,18.84231 6.84417,31.97879 17.2474,39.40942 10.40311,7.43082 26.96608,11.14618 49.68892,11.14609 l 112.10799,0 -0.82131,-26.67101 c -43.5293,-8.49217 -83.22558,-31.97858 -119.08908,-70.45931 -35.86368,-38.48037 -53.79549,-87.04547 -53.79543,-145.69546 -6e-5,-65.01856 24.91282,-120.48361 74.73869,-166.39539 50.0994,-45.91079 115.39298,-68.86643 195.88104,-68.86698 78.02361,5.5e-4 141.81148,21.76197 191.36391,65.2843 49.55161,43.25795 74.32749,98.72301 74.32813,166.39539 -6.4e-4,54.93462 -15.46838,101.64207 -46.4037,140.12244 -30.66256,38.21535 -72.27523,64.75367 -124.83823,79.61501 l -4.10651,26.67101 114.16118,0 c 26.00759,9e-5 43.11806,-4.7768 51.33163,-14.33069 8.48621,-9.55371 13.00331,-21.62864 13.55144,-36.22482 l 15.19417,0 0,124.59749 -229.96517,0 10.67694,-120.21867 c 70.63157,-21.49592 105.94772,-84.7898 105.94814,-189.88181 -4.2e-4,-68.73392 -17.38458,-121.41247 -52.15283,-158.0358 -34.49505,-36.62241 -66.04968,-41.48927 -123.79376,-41.4898 -49.55223,2.24129 -88.37664,6.0616 -120.95488,45.07248 -32.30474,38.74638 -48.45712,88.37302 -48.45691,148.88007 -2.1e-4,43.78852 7.25473,83.72868 21.76449,119.82059 14.50956,35.82691 42.29697,61.03831 83.36246,75.63427 l 7.80233,120.21867 -229.96517,0 0,-124.59749"
       id="text2396"
       style="font-size:400px;font-style:normal;font-weight:normal;text-align:start;text-anchor:start;fill:#ffff00;fill-opacity:1;stroke:#000000;stroke-width:15;stroke-linecap:butt;stroke-linejoin:miter;stroke-miterlimit:4;stroke-opacity:1;stroke-dasharray:none;font-family:Times New Roman"
       inkscape:connector-curvature="0" />
  </g>
</svg>
