<?xml version="1.0" encoding="UTF-8" standalone="no"?>
<!-- Created with Inkscape (http://www.inkscape.org/) -->
<svg
   xmlns:dc="http://purl.org/dc/elements/1.1/"
   xmlns:cc="http://creativecommons.org/ns#"
   xmlns:rdf="http://www.w3.org/1999/02/22-rdf-syntax-ns#"
   xmlns:svg="http://www.w3.org/2000/svg"
   xmlns="http://www.w3.org/2000/svg"
   xmlns:xlink="http://www.w3.org/1999/xlink"
   xmlns:sodipodi="http://sodipodi.sourceforge.net/DTD/sodipodi-0.dtd"
   xmlns:inkscape="http://www.inkscape.org/namespaces/inkscape"
   width="1000"
   height="1000"
   id="svg27991"
   sodipodi:version="0.32"
   inkscape:version="0.46"
   version="1.0"
   sodipodi:docname="thesaurus.svg"
   inkscape:output_extension="org.inkscape.output.svg.inkscape">
  <defs
     id="defs27993">
    <inkscape:perspective
       sodipodi:type="inkscape:persp3d"
       inkscape:vp_x="0 : 526.18109 : 1"
       inkscape:vp_y="0 : 1000 : 0"
       inkscape:vp_z="744.09448 : 526.18109 : 1"
       inkscape:persp3d-origin="372.04724 : 350.78739 : 1"
       id="perspective27999" />
    <linearGradient
       y2="63.728889"
       x2="38.487259"
       y1="44.142014"
       x1="-2.4459105"
       gradientTransform="matrix(-1,0,-1.6326162,1,132.73249,0)"
       gradientUnits="userSpaceOnUse"
       id="linearGradient27965"
       xlink:href="#linearGradient7162"
       inkscape:collect="always" />
    <linearGradient
       y2="63.728889"
       x2="38.487259"
       y1="44.142014"
       x1="-2.4459105"
       gradientTransform="matrix(-1,0,-1.6326162,1,132.73249,0)"
       gradientUnits="userSpaceOnUse"
       id="linearGradient4163"
       xlink:href="#linearGradient7162"
       inkscape:collect="always" />
    <inkscape:perspective
       id="perspective2853"
       inkscape:persp3d-origin="372.04724 : 350.78739 : 1"
       inkscape:vp_z="744.09448 : 526.18109 : 1"
       inkscape:vp_y="0 : 1000 : 0"
       inkscape:vp_x="0 : 526.18109 : 1"
       sodipodi:type="inkscape:persp3d" />
    <linearGradient
       gradientTransform="matrix(-1,0,-1.6326162,1,132.73249,0)"
       gradientUnits="userSpaceOnUse"
       y2="63.728889"
       x2="38.487259"
       y1="44.142014"
       x1="-2.4459105"
       id="linearGradient7168"
       xlink:href="#linearGradient7162"
       inkscape:collect="always" />
    <linearGradient
       id="linearGradient7162">
      <stop
         id="stop7164"
         offset="0"
         style="stop-color:#8888c4;stop-opacity:1;" />
      <stop
         id="stop7166"
         offset="1"
         style="stop-color:#333366;stop-opacity:1;" />
    </linearGradient>
  </defs>
  <sodipodi:namedview
     id="base"
     pagecolor="#ffffff"
     bordercolor="#666666"
     borderopacity="1.0"
     gridtolerance="10000"
     guidetolerance="10"
     objecttolerance="10"
     inkscape:pageopacity="0.0"
     inkscape:pageshadow="2"
     inkscape:zoom="0.044"
     inkscape:cx="179.28495"
     inkscape:cy="455.34089"
     inkscape:document-units="px"
     inkscape:current-layer="layer1"
     showgrid="false"
     inkscape:window-width="1366"
     inkscape:window-height="718"
     inkscape:window-x="-8"
     inkscape:window-y="-8" />
  <metadata
     id="metadata27996">
    <rdf:RDF>
      <cc:Work
         rdf:about="">
        <dc:format>image/svg+xml</dc:format>
        <dc:type
           rdf:resource="http://purl.org/dc/dcmitype/StillImage" />
      </cc:Work>
    </rdf:RDF>
  </metadata>
  <g
     inkscape:label="Layer 1"
     inkscape:groupmode="layer"
     id="layer1">
    <rect
       transform="matrix(0.9999984,1.7868209e-3,4.6518164e-4,0.9999999,0,0)"
       y="133.98216"
       x="7.6802111"
       height="715.07507"
       width="984.44196"
       id="rect3757"
       style="fill:#004aff;fill-opacity:1;stroke:#1a1a1a;stroke-width:10.06820583;stroke-miterlimit:4;stroke-dasharray:none;stroke-dashoffset:0;stroke-opacity:1" />
    <g
       transform="matrix(7.7659706,1.4437455e-2,2.8887401e-3,5.7211532,3264.2024,534.7964)"
       id="g3759">
      <path
         style="fill:#e6e6e6;fill-opacity:1;stroke:#1a1a1a;stroke-width:1.5;stroke-miterlimit:4;stroke-dashoffset:0;stroke-opacity:1"
         d="M -417,-64 C -398.74233,-72.45397 -378.92251,-71.535053 -358,-64 L -358,54 C -375.10964,48.885955 -392.09434,43.522008 -417,54 L -417,-64 z"
         id="rect3750"
         sodipodi:nodetypes="ccccc" />
      <path
         sodipodi:nodetypes="ccccc"
         id="path3755"
         d="M -357,-64 C -338.74233,-72.45397 -318.92251,-71.535053 -298,-64 L -298,54 C -315.10964,48.885955 -332.09434,43.522008 -357,54 L -357,-64 z"
         style="fill:#e6e6e6;fill-opacity:1;stroke:#1a1a1a;stroke-width:1.5;stroke-miterlimit:4;stroke-dashoffset:0;stroke-opacity:1" />
    </g>
    <use
       height="180"
       width="180"
       transform="translate(19.958725,-11.796355)"
       id="use3775"
       xlink:href="#g3759"
       y="0"
       x="0" />
    <g
       id="g39807">
      <g
         style="stroke-width:29.29305134;stroke-miterlimit:4;stroke-dasharray:none"
         transform="matrix(1.0051777,-3.312839e-3,3.312839e-3,1.0051777,-6.4468211,50.267953)"
         id="g28849">
        <path
           sodipodi:nodetypes="cczzccc"
           id="path28845"
           d="M 77.641121,166.83916 L 159.02719,136.80274 C 159.02719,136.80274 211.85926,124.83371 244.8125,122.93977 C 277.57268,121.05693 303.04624,122.53487 332.79743,125.25026 C 362.8178,127.99022 398.78613,139.11323 398.78613,139.11323 L 464.77483,169.14966 L 475.77295,173.77065"
           style="fill:none;fill-rule:evenodd;stroke:#000000;stroke-width:29.29305134;stroke-linecap:round;stroke-linejoin:miter;stroke-miterlimit:4;stroke-dasharray:none;stroke-opacity:1" />
      </g>
      <path
         sodipodi:nodetypes="cczzccc"
         id="path28847"
         d="M 73.778193,759.53663 L 155.48615,729.07508 C 155.48615,729.07508 208.55212,716.86905 241.6697,714.85613 C 274.59327,712.85502 300.20362,714.25622 330.11785,716.88711 C 360.30273,719.5418 396.49414,730.60325 396.49414,730.60325 L 462.92402,760.57659 L 473.99439,765.18507"
         style="fill:none;fill-rule:evenodd;stroke:#000000;stroke-width:29.44488189;stroke-linecap:round;stroke-linejoin:miter;stroke-miterlimit:4;stroke-dasharray:none;stroke-opacity:1" />
      <g
         style="stroke-width:29.29305134;stroke-miterlimit:4;stroke-dasharray:none"
         transform="matrix(1.0051777,-3.312839e-3,3.312839e-3,1.0051777,-6.2141115,158.63254)"
         id="g28852">
        <path
           style="fill:none;fill-rule:evenodd;stroke:#000000;stroke-width:29.29305134;stroke-linecap:round;stroke-linejoin:miter;stroke-miterlimit:4;stroke-dasharray:none;stroke-opacity:1"
           d="M 77.641121,166.83916 L 159.02719,136.80274 C 159.02719,136.80274 211.85926,124.83371 244.8125,122.93977 C 277.57268,121.05693 303.04624,122.53487 332.79743,125.25026 C 362.8178,127.99022 398.78613,139.11323 398.78613,139.11323 L 464.77483,169.14966 L 475.77295,173.77065"
           id="path28854"
           sodipodi:nodetypes="cczzccc" />
      </g>
      <g
         style="stroke-width:29.29305134;stroke-miterlimit:4;stroke-dasharray:none"
         transform="matrix(1.0051777,-3.312839e-3,3.312839e-3,1.0051777,-5.7486919,266.99711)"
         id="g28860">
        <path
           style="fill:none;fill-rule:evenodd;stroke:#000000;stroke-width:29.29305134;stroke-linecap:round;stroke-linejoin:miter;stroke-miterlimit:4;stroke-dasharray:none;stroke-opacity:1"
           d="M 77.641121,166.83916 L 159.02719,136.80274 C 159.02719,136.80274 211.85926,124.83371 244.8125,122.93977 C 277.57268,121.05693 303.04624,122.53487 332.79743,125.25026 C 362.8178,127.99022 398.78613,139.11323 398.78613,139.11323 L 464.77483,169.14966 L 475.77295,173.77065"
           id="path28862"
           sodipodi:nodetypes="cczzccc" />
      </g>
      <g
         style="stroke-width:29.29305134;stroke-miterlimit:4;stroke-dasharray:none"
         id="g28864"
         transform="matrix(1.0051777,-3.312839e-3,3.312839e-3,1.0051777,-5.5159821,375.3617)">
        <path
           sodipodi:nodetypes="cczzccc"
           id="path28866"
           d="M 77.641121,166.83916 L 159.02719,136.80274 C 159.02719,136.80274 211.85926,124.83371 244.8125,122.93977 C 277.57268,121.05693 303.04624,122.53487 332.79743,125.25026 C 362.8178,127.99022 398.78613,139.11323 398.78613,139.11323 L 464.77483,169.14966 L 475.77295,173.77065"
           style="fill:none;fill-rule:evenodd;stroke:#000000;stroke-width:29.29305134;stroke-linecap:round;stroke-linejoin:miter;stroke-miterlimit:4;stroke-dasharray:none;stroke-opacity:1" />
      </g>
      <g
         style="stroke-width:29.29305134;stroke-miterlimit:4;stroke-dasharray:none"
         id="g28872"
         transform="matrix(1.0051777,-3.312839e-3,3.312839e-3,1.0051777,-5.0505624,483.72627)">
        <path
           sodipodi:nodetypes="cczzccc"
           id="path28874"
           d="M 77.641121,166.83916 L 159.02719,136.80274 C 159.02719,136.80274 211.85926,124.83371 244.8125,122.93977 C 277.57268,121.05693 303.04624,122.53487 332.79743,125.25026 C 362.8178,127.99022 398.78613,139.11323 398.78613,139.11323 L 464.77483,169.14966 L 475.77295,173.77065"
           style="fill:none;fill-rule:evenodd;stroke:#000000;stroke-width:29.29305134;stroke-linecap:round;stroke-linejoin:miter;stroke-miterlimit:4;stroke-dasharray:none;stroke-opacity:1" />
      </g>
    </g>
    <g
       id="g39820">
      <g
         style="stroke-width:29.29305134;stroke-miterlimit:4;stroke-dasharray:none"
         id="g28898"
         transform="matrix(1.0051777,-3.312839e-3,3.312839e-3,1.0051777,468.00201,50.267852)">
        <path
           style="fill:none;fill-rule:evenodd;stroke:#000000;stroke-width:29.29305134;stroke-linecap:round;stroke-linejoin:miter;stroke-miterlimit:4;stroke-dasharray:none;stroke-opacity:1"
           d="M 77.641121,166.83916 L 159.02719,136.80274 C 159.02719,136.80274 211.85926,124.83371 244.8125,122.93977 C 277.57268,121.05693 303.04624,122.53487 332.79743,125.25026 C 362.8178,127.99022 398.78613,139.11323 398.78613,139.11323 L 464.77483,169.14966 L 475.77295,173.77065"
           id="path28900"
           sodipodi:nodetypes="cczzccc" />
      </g>
      <path
         style="fill:none;fill-rule:evenodd;stroke:#000000;stroke-width:29.44488189;stroke-linecap:round;stroke-linejoin:miter;stroke-miterlimit:4;stroke-dasharray:none;stroke-opacity:1"
         d="M 548.22702,757.97334 L 629.93498,727.51178 C 629.93498,727.51178 683.00094,715.30575 716.11853,713.29284 C 749.0421,711.29172 774.65245,712.69292 804.56668,715.32381 C 834.75156,717.97851 870.94297,729.03995 870.94297,729.03995 L 937.37285,759.01329 L 948.44322,763.62177"
         id="path28902"
         sodipodi:nodetypes="cczzccc" />
      <g
         style="stroke-width:29.29305134;stroke-miterlimit:4;stroke-dasharray:none"
         transform="matrix(1.0051777,-3.312839e-3,3.312839e-3,1.0051777,468.46743,158.31978)"
         id="g28908">
        <path
           style="fill:none;fill-rule:evenodd;stroke:#000000;stroke-width:29.29305134;stroke-linecap:round;stroke-linejoin:miter;stroke-miterlimit:4;stroke-dasharray:none;stroke-opacity:1"
           d="M 77.641121,166.83916 L 159.02719,136.80274 C 159.02719,136.80274 211.85926,124.83371 244.8125,122.93977 C 277.57268,121.05693 303.04624,122.53487 332.79743,125.25026 C 362.8178,127.99022 398.78613,139.11323 398.78613,139.11323 L 464.77483,169.14966 L 475.77295,173.77065"
           id="path28910"
           sodipodi:nodetypes="cczzccc" />
      </g>
      <g
         style="stroke-width:29.29305134;stroke-miterlimit:4;stroke-dasharray:none"
         id="g28912"
         transform="matrix(1.0051777,-3.312839e-3,3.312839e-3,1.0051777,468.70014,266.37168)">
        <path
           sodipodi:nodetypes="cczzccc"
           id="path28914"
           d="M 77.641121,166.83916 L 159.02719,136.80274 C 159.02719,136.80274 211.85926,124.83371 244.8125,122.93977 C 277.57268,121.05693 303.04624,122.53487 332.79743,125.25026 C 362.8178,127.99022 398.78613,139.11323 398.78613,139.11323 L 464.77483,169.14966 L 475.77295,173.77065"
           style="fill:none;fill-rule:evenodd;stroke:#000000;stroke-width:29.29305134;stroke-linecap:round;stroke-linejoin:miter;stroke-miterlimit:4;stroke-dasharray:none;stroke-opacity:1" />
      </g>
      <g
         style="stroke-width:29.29305134;stroke-miterlimit:4;stroke-dasharray:none"
         transform="matrix(1.0051777,-3.312839e-3,3.312839e-3,1.0051777,468.93285,374.42365)"
         id="g28916">
        <path
           style="fill:none;fill-rule:evenodd;stroke:#000000;stroke-width:29.29305134;stroke-linecap:round;stroke-linejoin:miter;stroke-miterlimit:4;stroke-dasharray:none;stroke-opacity:1"
           d="M 77.641121,166.83916 L 159.02719,136.80274 C 159.02719,136.80274 211.85926,124.83371 244.8125,122.93977 C 277.57268,121.05693 303.04624,122.53487 332.79743,125.25026 C 362.8178,127.99022 398.78613,139.11323 398.78613,139.11323 L 464.77483,169.14966 L 475.77295,173.77065"
           id="path28918"
           sodipodi:nodetypes="cczzccc" />
      </g>
      <g
         style="stroke-width:29.29305134;stroke-miterlimit:4;stroke-dasharray:none"
         transform="matrix(1.0051777,-3.312839e-3,3.312839e-3,1.0051777,469.39827,482.47559)"
         id="g28924">
        <path
           style="fill:none;fill-rule:evenodd;stroke:#000000;stroke-width:29.29305134;stroke-linecap:round;stroke-linejoin:miter;stroke-miterlimit:4;stroke-dasharray:none;stroke-opacity:1"
           d="M 77.641121,166.83916 L 159.02719,136.80274 C 159.02719,136.80274 211.85926,124.83371 244.8125,122.93977 C 277.57268,121.05693 303.04624,122.53487 332.79743,125.25026 C 362.8178,127.99022 398.78613,139.11323 398.78613,139.11323 L 464.77483,169.14966 L 475.77295,173.77065"
           id="path28926"
           sodipodi:nodetypes="cczzccc" />
      </g>
    </g>
  </g>
</svg>
