<?xml version="1.0" encoding="UTF-8" standalone="no"?>
<svg
   xmlns:dc="http://purl.org/dc/elements/1.1/"
   xmlns:cc="http://creativecommons.org/ns#"
   xmlns:rdf="http://www.w3.org/1999/02/22-rdf-syntax-ns#"
   xmlns:svg="http://www.w3.org/2000/svg"
   xmlns="http://www.w3.org/2000/svg"
   xmlns:xlink="http://www.w3.org/1999/xlink"
   xmlns:sodipodi="http://sodipodi.sourceforge.net/DTD/sodipodi-0.dtd"
   xmlns:inkscape="http://www.inkscape.org/namespaces/inkscape"
   id="svg2"
   xml:space="preserve"
   overflow="visible"
   viewBox="0 0 32 32"
   version="1.0"
   enable-background="new 0 0 128 129.396"
   inkscape:version="0.48.4 r9939"
   width="100%"
   height="100%"
   sodipodi:docname="tools.svg"
   style="overflow:visible"
   inkscape:export-filename="C:\data\ws\joffice_migration_1\com.joffice.client.resources\src\com\joffice\ui\resources\images\tools\tools_header.png"
   inkscape:export-xdpi="112.5"
   inkscape:export-ydpi="112.5"><sodipodi:namedview
   pagecolor="#ffffff"
   bordercolor="#666666"
   borderopacity="1"
   objecttolerance="10"
   gridtolerance="10"
   guidetolerance="10"
   inkscape:pageopacity="0"
   inkscape:pageshadow="2"
   inkscape:window-width="1842"
   inkscape:window-height="1051"
   id="namedview73"
   showgrid="false"
   inkscape:zoom="0.93244291"
   inkscape:cx="13.94347"
   inkscape:cy="20.556526"
   inkscape:window-x="69"
   inkscape:window-y="-9"
   inkscape:window-maximized="1"
   inkscape:current-layer="svg2" /><defs
   id="defs365"><radialGradient
     id="XMLID_52_"
     gradientUnits="userSpaceOnUse"
     cy="23.333"
     cx="165.06"
     gradientTransform="matrix(1,0,0,1.0103,0,-0.1598)"
     r="7.2848001"><stop
       id="stop812"
       stop-color="#EF3535"
       offset="0" /><stop
       id="stop2239"
       stop-color="#c91a1a"
       offset="0" /><stop
       id="stop814"
       stop-color="#ff4c4c"
       offset="1" /></radialGradient><linearGradient
     id="XMLID_897_"
     y2="10.711"
     gradientUnits="userSpaceOnUse"
     x2="296.94"
     y1="4.7593002"
     x1="292.97"><stop
       id="stop45093"
       stop-color="#EEEEEC"
       offset="0" /><stop
       id="stop45095"
       stop-color="#fff"
       offset="1" /></linearGradient><linearGradient
     id="linearGradient2269"><stop
       id="stop2271"
       offset="0" /><stop
       id="stop2273"
       stop-opacity="0"
       offset="1" /></linearGradient><linearGradient
     id="linearGradient2975"
     x1="292.97"
     xlink:href="#XMLID_897_"
     gradientUnits="userSpaceOnUse"
     y1="4.7593002"
     gradientTransform="matrix(-4.1278,0,0,4.1366,2003.5,504.25)"
     x2="296.94"
     y2="10.711" /><linearGradient
     id="linearGradient2977"
     x1="20.288"
     gradientUnits="userSpaceOnUse"
     y1="6.4604001"
     gradientTransform="translate(759.02,516.16)"
     x2="24.326"
     y2="23.943001"><stop
       id="stop2231"
       stop-color="#e2e2e2"
       offset="0" /><stop
       id="stop2233"
       stop-color="#d8d8d8"
       offset="1" /></linearGradient><linearGradient
     id="linearGradient2979"
     x1="294.59"
     xlink:href="#XMLID_52_"
     gradientUnits="userSpaceOnUse"
     x2="297.19"
     y1="12.188"
     y2="13.34" /><linearGradient
     id="linearGradient2981"
     x1="296.48999"
     xlink:href="#XMLID_52_"
     gradientUnits="userSpaceOnUse"
     y1="15.507"
     gradientTransform="matrix(3.6379,0,0,3.4704,-297.09,500.15)"
     x2="296.53"
     y2="9.8769999" /><linearGradient
     id="linearGradient2983"
     x1="292.97"
     xlink:href="#XMLID_897_"
     gradientUnits="userSpaceOnUse"
     y1="4.7593002"
     gradientTransform="matrix(4.0534,0,0,4.1366,-416.51,504.25)"
     x2="296.94"
     y2="10.711" /><linearGradient
     id="linearGradient2987"
     y2="22.861"
     gradientUnits="userSpaceOnUse"
     y1="23.843"
     x2="24.190001"
     x1="22.225"><stop
       id="stop695"
       stop-color="#BABDB6"
       offset="0" /><stop
       id="stop697"
       stop-color="#EEEEEC"
       offset="1" /></linearGradient><linearGradient
     id="linearGradient2989"
     x1="7.1848001"
     xlink:href="#XMLID_52_"
     gradientUnits="userSpaceOnUse"
     y1="31.056999"
     gradientTransform="matrix(1.1619,0,0,0.9925,756.59,516.42)"
     x2="25.152"
     y2="50.775002" /><linearGradient
     id="linearGradient2991"
     x1="13.825"
     xlink:href="#XMLID_52_"
     gradientUnits="userSpaceOnUse"
     y1="40.069"
     gradientTransform="matrix(1.1619,0,0,0.9925,756.36,516.22)"
     x2="7.6701002"
     y2="2.3262" /><radialGradient
     id="radialGradient2993"
     xlink:href="#XMLID_52_"
     gradientUnits="userSpaceOnUse"
     cy="37.5"
     cx="34.375999"
     gradientTransform="matrix(1,0,0,1.0604,759.02,513.86)"
     r="8.3887997" /><linearGradient
     id="linearGradient2995"
     y2="13.803"
     gradientUnits="userSpaceOnUse"
     y1="13.6"
     x2="298.87"
     x1="298.48001"><stop
       id="stop2253"
       stop-color="#df2a2a"
       offset="0" /><stop
       id="stop2255"
       stop-color="#df2a2a"
       stop-opacity="0"
       offset="1" /></linearGradient><linearGradient
     id="linearGradient2997"
     y2="13.803"
     gradientUnits="userSpaceOnUse"
     y1="13.6"
     x2="298.87"
     x1="298.48001"><stop
       id="stop2261"
       stop-color="#9a0c00"
       offset="0" /><stop
       id="stop2263"
       stop-color="#9a0c00"
       stop-opacity="0"
       offset="1" /></linearGradient><linearGradient
     id="linearGradient2999"
     x1="296.76001"
     xlink:href="#XMLID_52_"
     gradientUnits="userSpaceOnUse"
     y1="12.012"
     gradientTransform="matrix(3.6244,0,0,3.6244,-294.16,499.31)"
     x2="297.79999"
     y2="10.947" /><linearGradient
     id="linearGradient3001"
     x1="39.619999"
     gradientUnits="userSpaceOnUse"
     y1="44.541"
     gradientTransform="matrix(1.1619,0,0,0.9925,753.91,516.22)"
     x2="-3.5325"
     y2="-11.889"><stop
       id="stop16852"
       stop-color="#EF3535"
       offset="0" /><stop
       id="stop16854"
       stop-color="#a40000"
       stop-opacity="0"
       offset="1" /></linearGradient><radialGradient
     id="radialGradient3003"
     xlink:href="#linearGradient2269"
     gradientUnits="userSpaceOnUse"
     cy="41.625"
     cx="25.188"
     gradientTransform="matrix(1,0,0,0.32526,0,28.086)"
     r="18.062" /><linearGradient
     id="linearGradient3084"
     y2="16.357"
     gradientUnits="userSpaceOnUse"
     y1="58.076"
     x2="32.349998"
     x1="42.425999"
     gradientTransform="matrix(0.67979397,0,0,0.67979397,0.31907262,-0.95034952)"><stop
       id="stop3080"
       stop-color="#c4a000"
       offset="0" /><stop
       id="stop3082"
       stop-color="#fce94f"
       offset="1" /></linearGradient><linearGradient
     id="linearGradient3105"
     y2="70.072998"
     gradientUnits="userSpaceOnUse"
     y1="11.914"
     x2="52.132"
     x1="28.834999"
     gradientTransform="matrix(0.67979397,0,0,0.67979397,0.31907262,-0.95034952)"><stop
       id="stop3101"
       stop-color="#fff"
       offset="0" /><stop
       id="stop3103"
       stop-color="#fff"
       stop-opacity="0"
       offset="1" /></linearGradient><radialGradient
     id="radialGradient3253"
     xlink:href="#linearGradient2269"
     gradientUnits="userSpaceOnUse"
     cy="41.625"
     cx="25.188"
     gradientTransform="matrix(0.65862518,0,0,0.10286248,4.4637085,24.860672)"
     r="18.062" /><linearGradient
     inkscape:collect="always"
     xlink:href="#linearGradient2977"
     id="linearGradient3050"
     gradientUnits="userSpaceOnUse"
     gradientTransform="translate(759.02,516.16)"
     x1="20.288"
     y1="6.4604001"
     x2="24.326"
     y2="23.943001" /><linearGradient
     inkscape:collect="always"
     xlink:href="#linearGradient2977"
     id="linearGradient3052"
     gradientUnits="userSpaceOnUse"
     gradientTransform="translate(759.02,516.16)"
     x1="20.288"
     y1="6.4604001"
     x2="24.326"
     y2="23.943001" /><linearGradient
     y2="42.282"
     x2="7.7521"
     gradientTransform="matrix(0.8523,0,0,0.8523,-1.6751,3.754)"
     y1="37.752"
     gradientUnits="userSpaceOnUse"
     x1="13.236"
     id="linearGradient2452"><stop
       offset="0"
       stop-color="#fff"
       id="stop2448" /><stop
       offset="1"
       stop-opacity="0"
       stop-color="#fff"
       id="stop2450" /></linearGradient><radialGradient
     r="14.407"
     gradientTransform="matrix(1,0,0,0.28221,0,30.394)"
     cx="26.782"
     cy="42.343"
     gradientUnits="userSpaceOnUse"
     id="radialGradient6981"><stop
       offset="0"
       id="stop6977" /><stop
       offset="1"
       stop-opacity="0"
       id="stop6979" /></radialGradient><radialGradient
     r="7.5792"
     gradientTransform="matrix(0.99466,0,0,0.96932,-4.583,0.16592)"
     cx="15.415"
     cy="35.357"
     gradientUnits="userSpaceOnUse"
     id="radialGradient6969"><stop
       offset="0"
       stop-color="#696969"
       id="stop6965" /><stop
       offset="1"
       id="stop6967" /></radialGradient><linearGradient
     y2="23.743"
     x2="33.437"
     gradientTransform="translate(-3.907,-1.8029)"
     y1="18.868"
     gradientUnits="userSpaceOnUse"
     x1="28.059"
     id="linearGradient6957"><stop
       offset="0"
       stop-color="#6e3d09"
       id="stop6953" /><stop
       offset=".24242"
       stop-color="#ea8113"
       id="stop6959" /><stop
       offset=".62121"
       stop-color="#5c3307"
       id="stop6961" /><stop
       offset="1"
       stop-color="#e07c12"
       id="stop6955" /></linearGradient><linearGradient
     y2="33.439"
     x2="23.109"
     gradientTransform="translate(-3.907,-1.8029)"
     y1="30.001"
     gradientUnits="userSpaceOnUse"
     x1="19.395"
     id="linearGradient6945"><stop
       offset="0"
       stop-color="#bdbdbd"
       id="stop6941" /><stop
       offset=".33333"
       stop-color="#e2e2e2"
       id="stop6947" /><stop
       offset=".66667"
       stop-color="#a3a3a3"
       id="stop6949" /><stop
       offset="1"
       stop-color="#ddd"
       id="stop6943" /></linearGradient><linearGradient
     y2="30.703"
     x2="25.515"
     gradientTransform="matrix(0.0052596,0.99999,0.99999,-0.0052596,48.693,-14.145)"
     y1="31.047"
     gradientUnits="userSpaceOnUse"
     x1="25.719"
     id="linearGradient2941"><stop
       offset="0"
       id="stop2996" /><stop
       offset="1"
       stop-color="#c9c9c9"
       id="stop2998" /></linearGradient><radialGradient
     r="3.2409"
     gradientTransform="matrix(0.015377,2.9235,2.0297,-0.010675,20.391,-69.727)"
     cx="29.053"
     cy="27.641"
     gradientUnits="userSpaceOnUse"
     id="radialGradient2939"><stop
       offset="0"
       stop-color="#e7e2b8"
       id="stop2986" /><stop
       offset="1"
       stop-opacity="0"
       stop-color="#e7e2b8"
       id="stop2988" /></radialGradient><linearGradient
     y2="22.625"
     x2="47.688"
     gradientTransform="matrix(0.0052596,0.99999,0.99999,-0.0052596,42.996,-2.4962)"
     y1="19.812"
     gradientUnits="userSpaceOnUse"
     x1="46"
     id="linearGradient2937"><stop
       offset="0"
       stop-color="#c1c1c1"
       id="stop2976" /><stop
       offset="1"
       stop-color="#acacac"
       id="stop2978" /></linearGradient><linearGradient
     y2="22.251"
     x2="50.988"
     gradientTransform="matrix(0.0052596,0.99999,0.99999,-0.0052596,42.996,-2.4962)"
     y1="17.376"
     gradientUnits="userSpaceOnUse"
     x1="48.906"
     id="linearGradient2935"><stop
       offset="0"
       stop-color="#ffd1d1"
       id="stop2968" /><stop
       offset=".5"
       stop-color="#ff1d1d"
       id="stop3006" /><stop
       offset="1"
       stop-color="#6f0000"
       id="stop2970" /></linearGradient><radialGradient
     r="14.407"
     gradientTransform="matrix(1,0,0,0.28221,0,30.394)"
     cx="26.782"
     cy="42.343"
     gradientUnits="userSpaceOnUse"
     id="radialGradient6981-1"><stop
       offset="0"
       id="stop6977-7" /><stop
       offset="1"
       stop-opacity="0"
       id="stop6979-4" /></radialGradient><radialGradient
     inkscape:collect="always"
     xlink:href="#linearGradient2269"
     id="radialGradient3343"
     gradientUnits="userSpaceOnUse"
     gradientTransform="matrix(0.70695195,0,0,0.14995459,-4.0405717,18.649906)"
     cx="25.188"
     cy="41.625"
     r="18.062" /><linearGradient
     inkscape:collect="always"
     xlink:href="#linearGradient3001"
     id="linearGradient3346"
     gradientUnits="userSpaceOnUse"
     gradientTransform="matrix(0.65393477,0,0,0.55859391,-2.8642883,0.61919962)"
     x1="39.619999"
     y1="44.541"
     x2="-3.5325"
     y2="-11.889" /><linearGradient
     inkscape:collect="always"
     xlink:href="#XMLID_52_"
     id="linearGradient3349"
     gradientUnits="userSpaceOnUse"
     gradientTransform="matrix(2.0398668,0,0,2.0398668,-592.73383,-8.8980024)"
     x1="296.76001"
     y1="12.012"
     x2="297.79999"
     y2="10.947" /><radialGradient
     inkscape:collect="always"
     xlink:href="#XMLID_52_"
     id="radialGradient3353"
     gradientUnits="userSpaceOnUse"
     gradientTransform="matrix(0.56281502,0,0,0.59680905,0.01169648,-0.70904382)"
     cx="34.375999"
     cy="37.5"
     r="8.3887997" /><linearGradient
     inkscape:collect="always"
     xlink:href="#XMLID_52_"
     id="linearGradient3356"
     gradientUnits="userSpaceOnUse"
     gradientTransform="matrix(0.65393477,0,0,0.55859391,-1.4853915,0.61919962)"
     x1="13.825"
     y1="40.069"
     x2="7.6701002"
     y2="2.3262" /><linearGradient
     inkscape:collect="always"
     xlink:href="#XMLID_52_"
     id="linearGradient3359"
     gradientUnits="userSpaceOnUse"
     gradientTransform="matrix(0.65393477,0,0,0.55859391,-1.355944,0.73176263)"
     x1="7.1848001"
     y1="31.056999"
     x2="25.152"
     y2="50.775002" /><linearGradient
     inkscape:collect="always"
     xlink:href="#linearGradient2987"
     id="linearGradient3362"
     gradientUnits="userSpaceOnUse"
     x1="22.225"
     y1="23.843"
     x2="24.190001"
     y2="22.861"
     gradientTransform="matrix(0.55149681,0,0,0.56281502,0.19179729,0.68110928)" /><linearGradient
     inkscape:collect="always"
     xlink:href="#linearGradient2977"
     id="linearGradient3365"
     gradientUnits="userSpaceOnUse"
     gradientTransform="matrix(0.56281502,0,0,0.56281502,0.01169648,0.58543072)"
     x1="20.288"
     y1="6.4604001"
     x2="24.326"
     y2="23.943001" /><linearGradient
     inkscape:collect="always"
     xlink:href="#XMLID_897_"
     id="linearGradient3368"
     gradientUnits="userSpaceOnUse"
     gradientTransform="matrix(2.2813144,0,0,2.3281406,-661.59424,-6.1176962)"
     x1="292.97"
     y1="4.7593002"
     x2="296.94"
     y2="10.711" /><linearGradient
     inkscape:collect="always"
     xlink:href="#XMLID_52_"
     id="linearGradient3371"
     gradientUnits="userSpaceOnUse"
     gradientTransform="matrix(2.0474648,0,0,1.9531932,-594.38287,-8.4252377)"
     x1="296.48999"
     y1="15.507"
     x2="296.53"
     y2="9.8769999" /><linearGradient
     inkscape:collect="always"
     xlink:href="#linearGradient2977"
     id="linearGradient3375"
     gradientUnits="userSpaceOnUse"
     gradientTransform="matrix(0.56281502,0,0,0.56281502,0.01169648,0.58543072)"
     x1="20.288"
     y1="6.4604001"
     x2="24.326"
     y2="23.943001" /><linearGradient
     inkscape:collect="always"
     xlink:href="#XMLID_897_"
     id="linearGradient3378"
     gradientUnits="userSpaceOnUse"
     gradientTransform="matrix(-2.3231878,0,0,2.3281406,700.42373,-6.1176962)"
     x1="292.97"
     y1="4.7593002"
     x2="296.94"
     y2="10.711" /><radialGradient
     inkscape:collect="always"
     xlink:href="#radialGradient6981"
     id="radialGradient3405"
     gradientUnits="userSpaceOnUse"
     gradientTransform="matrix(0.36244276,0,0,0.07642332,-18.247582,12.126575)"
     cx="26.782"
     cy="42.343"
     r="14.407" /><linearGradient
     inkscape:collect="always"
     xlink:href="#linearGradient6957"
     id="linearGradient3407"
     gradientUnits="userSpaceOnUse"
     gradientTransform="translate(-3.907,-1.8029)"
     x1="28.059"
     y1="18.868"
     x2="33.437"
     y2="23.743" /><linearGradient
     inkscape:collect="always"
     xlink:href="#linearGradient6945"
     id="linearGradient3409"
     gradientUnits="userSpaceOnUse"
     gradientTransform="translate(-3.907,-1.8029)"
     x1="19.395"
     y1="30.001"
     x2="23.109"
     y2="33.439" /><radialGradient
     inkscape:collect="always"
     xlink:href="#radialGradient6969"
     id="radialGradient3411"
     gradientUnits="userSpaceOnUse"
     gradientTransform="matrix(0.99466,0,0,0.96932,-4.583,0.16592)"
     cx="15.415"
     cy="35.357"
     r="7.5792" /><linearGradient
     inkscape:collect="always"
     xlink:href="#linearGradient2452"
     id="linearGradient3413"
     gradientUnits="userSpaceOnUse"
     gradientTransform="matrix(0.8523,0,0,0.8523,-1.6751,3.754)"
     x1="13.236"
     y1="37.752"
     x2="7.7521"
     y2="42.282" /><linearGradient
     y2="62.827"
     x2="38.061"
     gradientTransform="matrix(0.4933,-0.71665,-0.71665,-0.4933,94.393,72.494)"
     y1="62.402"
     gradientUnits="userSpaceOnUse"
     x1="55.876"
     id="linearGradient3015"><stop
       offset="0"
       stop-color="#fff"
       id="stop9954" /><stop
       offset="1"
       stop-opacity="0"
       stop-color="#fff"
       id="stop9956" /></linearGradient><linearGradient
     y2="68.225"
     x2="28.245"
     gradientTransform="matrix(0.4933,-0.71665,-0.71665,-0.4933,94.393,72.494)"
     y1="60.446"
     gradientUnits="userSpaceOnUse"
     x1="28.245"
     id="linearGradient3011"><stop
       offset="0"
       stop-color="#5b90c8"
       id="stop9922" /><stop
       offset=".31579"
       stop-color="#8fb0d1"
       id="stop9924" /><stop
       offset="1"
       stop-color="#34679d"
       id="stop9926" /></linearGradient><linearGradient
     y2="68.225"
     x2="28.245"
     gradientTransform="matrix(.49330 -.71665 -.71665 -.49330 94.393 72.494)"
     y1="60.446"
     gradientUnits="userSpaceOnUse"
     x1="28.245"
     id="linearGradient3009"><stop
       offset="0"
       stop-color="#729fcf"
       id="stop9912" /><stop
       offset=".31579"
       stop-color="#a5bfda"
       id="stop9918" /><stop
       offset="1"
       stop-color="#376ca4"
       id="stop9914" /></linearGradient><radialGradient
     r="14.407"
     gradientTransform="matrix(1,0,0,0.28221,0,30.394)"
     cx="26.782"
     cy="42.343"
     gradientUnits="userSpaceOnUse"
     id="radialGradient6981-4"><stop
       offset="0"
       id="stop6977-8" /><stop
       offset="1"
       stop-opacity="0"
       id="stop6979-8" /></radialGradient><linearGradient
     inkscape:collect="always"
     xlink:href="#linearGradient3009"
     id="linearGradient3518"
     gradientUnits="userSpaceOnUse"
     gradientTransform="matrix(0.4933,-0.71665,-0.71665,-0.4933,94.393,72.494)"
     x1="28.245"
     y1="60.446"
     x2="28.245"
     y2="68.225" /><linearGradient
     inkscape:collect="always"
     xlink:href="#linearGradient3009"
     id="linearGradient3520"
     gradientUnits="userSpaceOnUse"
     gradientTransform="matrix(0.4933,-0.71665,-0.71665,-0.4933,94.393,72.494)"
     x1="28.245"
     y1="60.446"
     x2="28.245"
     y2="68.225" /><radialGradient
     inkscape:collect="always"
     xlink:href="#radialGradient6981-4"
     id="radialGradient3532"
     gradientUnits="userSpaceOnUse"
     gradientTransform="matrix(1.0020288,0,0,0.21128404,-40.913773,14.538634)"
     cx="26.782"
     cy="42.343"
     r="14.407" /><linearGradient
     inkscape:collect="always"
     xlink:href="#linearGradient3009"
     id="linearGradient3534"
     gradientUnits="userSpaceOnUse"
     gradientTransform="matrix(0.4933,-0.71665,-0.71665,-0.4933,94.393,72.494)"
     x1="28.245"
     y1="60.446"
     x2="28.245"
     y2="68.225" /><linearGradient
     inkscape:collect="always"
     xlink:href="#linearGradient3011"
     id="linearGradient3536"
     gradientUnits="userSpaceOnUse"
     gradientTransform="matrix(0.4933,-0.71665,-0.71665,-0.4933,94.393,72.494)"
     x1="28.245"
     y1="60.446"
     x2="28.245"
     y2="68.225" /><linearGradient
     inkscape:collect="always"
     xlink:href="#linearGradient3009"
     id="linearGradient3538"
     gradientUnits="userSpaceOnUse"
     gradientTransform="matrix(0.4933,-0.71665,-0.71665,-0.4933,94.393,72.494)"
     x1="28.245"
     y1="60.446"
     x2="28.245"
     y2="68.225" /><linearGradient
     inkscape:collect="always"
     xlink:href="#linearGradient3015"
     id="linearGradient3540"
     gradientUnits="userSpaceOnUse"
     gradientTransform="matrix(0.4933,-0.71665,-0.71665,-0.4933,94.393,72.494)"
     x1="55.876"
     y1="62.402"
     x2="38.061"
     y2="62.827" /><linearGradient
     inkscape:collect="always"
     xlink:href="#linearGradient3084"
     id="linearGradient3554"
     gradientUnits="userSpaceOnUse"
     gradientTransform="matrix(0.67979397,0,0,0.67979397,0.31907262,-0.95034952)"
     x1="42.425999"
     y1="58.076"
     x2="32.349998"
     y2="16.357" /><linearGradient
     inkscape:collect="always"
     xlink:href="#linearGradient3105"
     id="linearGradient3556"
     gradientUnits="userSpaceOnUse"
     gradientTransform="matrix(0.67979397,0,0,0.67979397,0.31907262,-0.95034952)"
     x1="28.834999"
     y1="11.914"
     x2="52.132"
     y2="70.072998" /></defs>
<g
   id="g3542"
   transform="matrix(1.0733485,0,0,1.0733485,-1.1643674,0.02454676)"><path
     style="fill:url(#linearGradient3554);fill-rule:evenodd;stroke:#c4a000;stroke-width:0.69842035px"
     inkscape:connector-curvature="0"
     d="M 30.548831,1.5563908 11.493526,29.279748 30.548831,29.279069 V 1.555711 z M 26.512214,15.024469 v 9.517115 h -6.139219 l 6.139219,-9.517115 z"
     id="path1465" /><path
     style="opacity:0.63874003;fill:none;stroke:url(#linearGradient3556);stroke-width:0.67979395px"
     inkscape:connector-curvature="0"
     d="M 29.89011,28.620688 V 3.7021604 L 12.810287,28.578541 29.89011,28.620688 z"
     id="path3006" /><path
     style="fill:#2e3436;fill-opacity:0.75;fill-rule:evenodd;stroke:#c4a000;stroke-width:0.67979395px;stroke-linecap:square"
     inkscape:connector-curvature="0"
     d="M 29.894189,26.660162 H 29.378905"
     id="path3022" /><path
     style="fill:#2e3436;fill-opacity:0.75;fill-rule:evenodd;stroke:#c4a000;stroke-width:0.67979395px;stroke-linecap:square"
     inkscape:connector-curvature="0"
     d="M 29.894189,23.940986 H 29.378905"
     id="path3046" /><path
     style="fill:#2e3436;fill-opacity:0.75;fill-rule:evenodd;stroke:#c4a000;stroke-width:0.67979395px;stroke-linecap:square"
     inkscape:connector-curvature="0"
     d="M 29.894189,21.221811 H 29.378905"
     id="path3050" /><path
     style="fill:#2e3436;fill-opacity:0.75;fill-rule:evenodd;stroke:#c4a000;stroke-width:0.67979395px;stroke-linecap:square"
     inkscape:connector-curvature="0"
     d="M 29.894189,18.502635 H 29.378905"
     id="path3054" /><path
     style="fill:#2e3436;fill-opacity:0.75;fill-rule:evenodd;stroke:#c4a000;stroke-width:0.67979395px;stroke-linecap:square"
     inkscape:connector-curvature="0"
     d="M 29.894189,15.783459 H 29.378905"
     id="path3058" /><path
     style="fill:#2e3436;fill-opacity:0.75;fill-rule:evenodd;stroke:#c4a000;stroke-width:0.67979395px;stroke-linecap:square"
     inkscape:connector-curvature="0"
     d="M 29.894189,13.064283 H 29.378905"
     id="path3062" /><path
     style="fill:#2e3436;fill-opacity:0.75;fill-rule:evenodd;stroke:#c4a000;stroke-width:0.67979395px;stroke-linecap:square"
     inkscape:connector-curvature="0"
     d="M 29.894189,10.345107 H 29.378905"
     id="path3066" /><path
     style="fill:#2e3436;fill-opacity:0.75;fill-rule:evenodd;stroke:#c4a000;stroke-width:0.67979395px;stroke-linecap:square"
     inkscape:connector-curvature="0"
     d="M 29.894189,7.6259312 H 29.378905"
     id="path3070" /></g><metadata
   id="metadata71"><rdf:RDF><cc:Work><dc:format>image/svg+xml</dc:format><dc:type
         rdf:resource="http://purl.org/dc/dcmitype/StillImage" /><cc:license
         rdf:resource="http://creativecommons.org/licenses/publicdomain/" /><dc:publisher><cc:Agent
           rdf:about="http://openclipart.org/"><dc:title>Openclipart</dc:title></cc:Agent></dc:publisher><dc:title></dc:title><dc:date>2010-03-29T08:58:03</dc:date><dc:description>&quot;Accessories&quot; icon from &lt;a href=&quot;http://tango.freedesktop.org/Tango_Desktop_Project&quot;&gt; Tango Project &lt;/a&gt; \n&lt;br&gt;&lt;br&gt;\nSince version 0.8.90 Tango Project icons are Public Domain: &lt;a href=&quot;http://tango.freedesktop.org/Frequently_Asked_Questions#Terms_of_Use.3F&quot;&gt; Tango Project FAQ &lt;/a&gt;</dc:description><dc:source>http://openclipart.org/detail/35365/tango-applications-accessories-by-warszawianka</dc:source><dc:creator><cc:Agent><dc:title>warszawianka</dc:title></cc:Agent></dc:creator><dc:subject><rdf:Bag><rdf:li>clip art</rdf:li><rdf:li>clipart</rdf:li><rdf:li>externalsource</rdf:li><rdf:li>icon</rdf:li><rdf:li>ruler</rdf:li><rdf:li>scissors</rdf:li><rdf:li>tango</rdf:li></rdf:Bag></dc:subject></cc:Work><cc:License
       rdf:about="http://creativecommons.org/licenses/publicdomain/"><cc:permits
         rdf:resource="http://creativecommons.org/ns#Reproduction" /><cc:permits
         rdf:resource="http://creativecommons.org/ns#Distribution" /><cc:permits
         rdf:resource="http://creativecommons.org/ns#DerivativeWorks" /></cc:License></rdf:RDF></metadata><g
   id="g2999"
   transform="matrix(-0.77853916,0,0,0.77853916,32.910392,0.11345063)"><path
     inkscape:connector-curvature="0"
     id="path6937"
     style="color:#000000;fill:url(#linearGradient3407);stroke:#673907;stroke-linecap:round"
     d="m 19.652,22.587 4.066,3.8 C 30.905,19.325 41.501,2.41 41.501,2.41 41.93,1.1857 40.413,0.4142 39.654,1.2397 c 0,0 -13.69,14.097 -20.002,21.347 z" /><path
     inkscape:connector-curvature="0"
     id="path6935"
     style="color:#000000;fill:url(#linearGradient3409);stroke:#888a85;stroke-linecap:round"
     d="m 12.05,32.814 2.247,1.934 8.492,-7.367 0.275,-0.706 1.095,-0.018 c -0.438,-1.562 -2.942,-4.383 -4.817,-4.383 l 0.082,1.09 -0.67,0.38 -6.704,9.07 z" /><path
     inkscape:connector-curvature="0"
     id="path6933"
     style="color:#000000;fill:url(#radialGradient3411)"
     d="m 1.7577,40.724 c 6.6053,0 11.618,0.787 12.567,-4.019 0.765,-3.873 -4.5604,-5.729 -7.1992,-2.271 -2.542,3.33 -5.3681,6.29 -5.3681,6.29 z" /><path
     inkscape:connector-curvature="0"
     id="path6971"
     style="opacity:0.52777997;color:#000000;fill:#ffffff"
     d="m 8.875,37.75 a 1.25,1.25 0 1 1 -2.5,0 1.25,1.25 0 1 1 2.5,0 z"
     transform="matrix(0.8523,0,0,0.8523,3.7336,2.5756)" /><path
     inkscape:connector-curvature="0"
     id="path6983"
     style="color:#000000;fill:#ffffff"
     transform="matrix(0.78787,0,0,0.78787,14.265,-4.7234)"
     d="m 8.875,37.75 a 1.25,1.25 0 1 1 -2.5,0 1.25,1.25 0 1 1 2.5,0 z" /><path
     inkscape:connector-curvature="0"
     id="path6985"
     style="color:#000000;fill:none;stroke:#ffffff;stroke-linecap:round;stroke-linejoin:round"
     d="m 18.941,26.398 -5.303,6.143" /><path
     inkscape:connector-curvature="0"
     id="path1571"
     style="opacity:0.42778003;color:#000000;fill:url(#linearGradient3413)"
     d="m 3.0709,40.069 c 0,0 3.3411,-1.642 4.7648,-4.087 0.5037,-0.865 1.6444,-0.127 0.9417,0.735 -1.5178,1.86 -5.7065,3.352 -5.7065,3.352 z" /><path
     inkscape:connector-curvature="0"
     id="path2454"
     style="opacity:0.53333004;color:#000000;fill:#ffffff"
     d="m 8.875,37.75 a 1.25,1.25 0 1 1 -2.5,0 1.25,1.25 0 1 1 2.5,0 z"
     transform="matrix(0.23787,0,0,0.23787,38.434,-7.101)" /></g><g
   id="g2980"
   transform="matrix(0.81661941,0.12451095,-0.12451095,0.81661941,-38.387273,-5.2223691)"><path
     style="fill:#e7e7e7;fill-rule:evenodd;stroke:#7d7d7d"
     inkscape:connector-curvature="0"
     id="path9903"
     d="m 61.249,22.577 c -0.883,-0.607 -3.381,1.585 -5.632,4.855 -2.251,3.271 -2.719,6.861 -2.525,6.994 0.217,0.15 3.381,-1.584 5.632,-4.855 2.251,-3.27 3.407,-6.386 2.525,-6.994 z" /><g
     style="stroke:#3465a4;stroke-width:1.25349998"
     id="g9975"
     transform="matrix(-0.79601,0.082581,0.082581,0.79601,83.595,-7.6556)"><path
       style="fill:none"
       inkscape:connector-curvature="0"
       id="path9905"
       d="m 32.086,57.686 a 13.062,5.5 0 0 1 20.86,3.135"
       transform="matrix(-0.56251,-0.81719,0.82507,-0.56793,-15.221,83.887)" /><path
       style="fill:#729fcf;fill-rule:evenodd"
       inkscape:connector-curvature="0"
       id="path9907"
       d="M 36.365,54.473 A 3,1.5625 0 0 1 30.694,55.49 L 33.5,54.938 z"
       transform="matrix(-0.56251,-0.81719,0.82507,-0.56793,-14.286,81.453)" /></g><path
     style="fill:url(#linearGradient3534);fill-rule:evenodd;stroke:#3465a4"
     inkscape:connector-curvature="0"
     id="path9898"
     d="m 66.816,20.12 c -2.942,4.155 -5.833,7.753 -8.219,10.339 L 54.73,27.797 c 1.761,-3.551 4.504,-8.145 7.83,-12.977 6.004,-8.7224 11.958,-15.367 14.313,-16.156 0.072,-0.0225 0.169,-0.0526 0.234,-0.0641 0.046,-0.007 0.114,-0.0046 0.156,-0.0056 0.066,3e-4 0.151,0.014 0.208,0.0299 0.013,0.0044 0.056,0.0045 0.069,0.0099 0.013,0.006 0.039,0.0286 0.051,0.0355 0.006,0.0038 0.02,0.0138 0.026,0.0178 0.006,0.004 0.02,0.0135 0.026,0.0177 0.011,0.0089 0.041,0.0257 0.051,0.0355 0.01,0.0104 0.025,0.0498 0.034,0.0611 0.035,0.0469 0.078,0.1213 0.102,0.1831 0.014,0.03966 0.041,0.10225 0.051,0.14756 0.012,0.06498 0.019,0.16627 0.023,0.24196 0.105,2.4812 -3.977,10.415 -9.981,19.137 -0.373,0.543 -0.735,1.084 -1.107,1.609 z" /><path
     style="fill:url(#linearGradient3536);fill-rule:evenodd;stroke:#3465a4"
     inkscape:connector-curvature="0"
     id="path9893"
     d="m 71.382,13.929 c -0.747,1.048 -1.521,2.054 -2.256,3.001 l -5.415,-3.727 c 0.885,-1.457 1.868,-2.99 2.93,-4.532 5.066,-7.3594 10.293,-12.825 12.543,-13.309 0.02,-0.0036 0.067,-0.0122 0.087,-0.0153 0.019,-0.0027 0.068,-0.0136 0.086,-0.0156 0.046,-0.0038 0.113,-0.0068 0.156,-0.0056 0.017,9e-4 0.053,0.0083 0.069,0.01 0.049,0.0064 0.121,0.0238 0.164,0.0376 0.015,0.0051 0.056,0.0041 0.07,0.01 0.02,0.0095 0.058,0.0419 0.077,0.0532 0.006,0.004 0.02,0.0136 0.026,0.0178 0.006,0.0042 0.019,0.0133 0.025,0.0177 0.018,0.0139 0.062,0.0377 0.078,0.0533 0.01,0.0108 0.024,0.0494 0.034,0.061 0.028,0.036 0.07,0.0969 0.094,0.1398 0.007,0.0147 0.027,0.0456 0.034,0.0611 0.016,0.0395 0.037,0.1034 0.05,0.1476 0.005,0.018 0.012,0.0678 0.016,0.0865 0.004,0.0192 0.013,0.0668 0.017,0.0866 0.351,2.2746 -2.888,9.1084 -7.954,16.468 -0.315,0.457 -0.616,0.91 -0.931,1.353 z" /><path
     style="fill:url(#linearGradient3538);fill-rule:evenodd;stroke:#3465a4"
     inkscape:connector-curvature="0"
     id="path9888"
     d="m 78.925,1.0932 -3.816,-2.6267 c 2.025,-2.2648 3.853,-3.6636 4.839,-3.6072 0.006,5e-4 0.03,0.0015 0.037,0.0021 0.006,8e-4 0.03,0.0014 0.036,0.0022 0.006,0.001 0.031,0.0011 0.037,0.0022 0.035,0.0072 0.092,0.028 0.124,0.0398 0.006,0.0021 0.021,0.0155 0.026,0.0177 0.005,0.0024 0.031,-3e-4 0.037,0.0022 0.005,0.0026 0.02,0.015 0.025,0.0177 0.005,0.0029 0.021,0.0148 0.026,0.0178 0.005,0.0031 0.021,0.0145 0.026,0.0177 0.005,0.0032 0.021,0.0144 0.026,0.0178 0.004,0.0034 0.021,0.0142 0.025,0.0177 0.005,0.0037 0.022,0.014 0.026,0.0178 0.004,0.0039 0.011,0.0293 0.015,0.0333 0.004,0.0042 0.022,0.0135 0.026,0.0178 0.023,0.0262 0.062,0.0718 0.082,0.1021 0.003,0.0052 0.012,0.0281 0.015,0.0334 0.003,0.0053 0.012,0.0278 0.015,0.0333 0.003,0.0056 0.012,0.0276 0.015,0.0333 0.405,0.9014 -0.249,3.108 -1.642,5.808 z" /><path
     style="opacity:0.35713998;fill:none;stroke:url(#linearGradient3540);stroke-linecap:round;stroke-linejoin:round"
     inkscape:connector-curvature="0"
     id="path9930"
     d="m 69.708,14.318 c -0.189,0.268 -0.378,0.517 -0.566,0.779 l -3.75,-2.584 c 0.513,-0.779 1.237,-2.048 1.777,-2.8576 6.211,-9.3166 12.3,-13.972 12.553,-13.798 0.28,0.1912 -2.164,7.477 -8.497,16.279 -0.372,0.516 -1.16,1.676 -1.517,2.182 z" /></g><g
   id="layer1-0"
   transform="matrix(0.54011524,0,0,0.54011524,36.833381,-3.3503917)"><path
     transform="matrix(1.3384,0,0,1,-20.926,-3.409)"
     d="m 41.189,42.343 a 14.4075,4.0660411 0 1 1 -28.815,0 14.4075,4.0660411 0 1 1 28.815,0 z"
     style="opacity:0.3;color:#000000;fill:url(#radialGradient6981-1)"
     id="path6973-9"
     inkscape:connector-curvature="0" /><g
     transform="matrix(-0.05512,-0.99848,-0.99848,0.05512,58.286,126.23)"
     id="g2923"><g
       transform="matrix(-0.95889,-0.28379,0.28379,-0.95889,199.7,82.004)"
       id="g3017"
       style="fill-rule:evenodd"><g
         transform="translate(32.56,-8.1756)"
         id="g6334"><path
           d="M 81.189,8.8512 75.594,14.506 60.325,46.15 c -1.233,3.257 3.402,5.17 5.012,2.287 L 80.231,16.856 81.189,8.8512 z"
           id="path2960"
           inkscape:connector-curvature="0"
           style="fill:#cb9022;stroke:#5c410c" /><path
           d="m 63.227,41.398 c 0,0 0.101,1.437 1.354,1.993 1.291,0.573 2.656,-0.014 2.656,-0.014 l -2.442,5.044 c 0,0 -0.874,1.457 -2.84,0.671 -1.94,-0.774 -1.171,-2.681 -1.171,-2.681 l 2.443,-5.013 z"
           id="path2964"
           inkscape:connector-curvature="0"
           style="fill:url(#linearGradient2935)" /><path
           d="m 63.227,41.398 c 0,0 0.101,1.437 1.354,1.993 1.291,0.573 2.656,-0.014 2.656,-0.014 l -0.989,2.005 c 0,0 -1.315,0.834 -2.687,0.233 -1.409,-0.618 -1.324,-2.212 -1.324,-2.212 l 0.99,-2.005 z"
           id="path2962"
           inkscape:connector-curvature="0"
           style="fill:url(#linearGradient2937)" /><path
           d="m 80.478,10.282 -4.476,4.524 c 0.82,1.495 2.168,2.27 3.728,1.855 l 0.748,-6.379 z"
           id="path2982"
           inkscape:connector-curvature="0"
           style="fill:url(#radialGradient2939)" /><path
           d="m 79.079,11.633 1.585,-1.6332 -0.3,2.3452 C 79.646,12.568 79.3,12.163 79.079,11.633 z"
           id="path2992"
           inkscape:connector-curvature="0"
           style="fill:url(#linearGradient2941)" /><path
           d="M 75.971,14.806 77.229,16.362 64.44,43.316 C 63.582,42.876 63.349,42.08 63.268,41.419 L 75.971,14.806 z"
           id="path3002"
           inkscape:connector-curvature="0"
           style="fill:#ffffff;fill-opacity:0.36363998" /><path
           d="m 79.793,16.661 -0.749,0.191 -12.55,26.769 c 0,0 0.614,-0.114 0.749,-0.22 l 12.55,-26.74 z"
           id="path3004"
           inkscape:connector-curvature="0"
           style="fill-opacity:0.36363998" /></g><path
         d="m 113.29,1.8486 -4.77,4.8613 -8.31,17.28 8.71,-16.794 4.37,-5.3474 z"
         id="path6355"
         inkscape:connector-curvature="0"
         style="opacity:0.72526999;fill:#ffffff" /><path
         d="m 113.16,1.8486 -0.88,6.7175 -6.77,14.407 6.54,-14.451 -0.53,0.0883 1.64,-6.7617 z"
         id="path6357"
         inkscape:connector-curvature="0"
         style="opacity:0.41757998;fill:#ffffff" /></g></g></g></svg>