<?xml version="1.0" encoding="UTF-8" standalone="no"?>
<svg
   xmlns:dc="http://purl.org/dc/elements/1.1/"
   xmlns:cc="http://creativecommons.org/ns#"
   xmlns:rdf="http://www.w3.org/1999/02/22-rdf-syntax-ns#"
   xmlns:svg="http://www.w3.org/2000/svg"
   xmlns="http://www.w3.org/2000/svg"
   xmlns:xlink="http://www.w3.org/1999/xlink"
   xmlns:sodipodi="http://sodipodi.sourceforge.net/DTD/sodipodi-0.dtd"
   xmlns:inkscape="http://www.inkscape.org/namespaces/inkscape"
   id="svg3440"
   viewBox="0 0 48 48"
   version="1.1"
   inkscape:version="0.48.4 r9939"
   width="100%"
   height="100%"
   sodipodi:docname="webbrowser_2.svg"
   inkscape:export-filename="C:\data\ws\joffice_migration_1\com.joffice.application.app\src\css\images\webbrowser_2.png"
   inkscape:export-xdpi="30"
   inkscape:export-ydpi="30">
  <sodipodi:namedview
     pagecolor="#ffffff"
     bordercolor="#666666"
     borderopacity="1"
     objecttolerance="10"
     gridtolerance="10"
     guidetolerance="10"
     inkscape:pageopacity="0"
     inkscape:pageshadow="2"
     inkscape:window-width="1292"
     inkscape:window-height="746"
     id="namedview95"
     showgrid="false"
     inkscape:zoom="2.3663186"
     inkscape:cx="-0.30508475"
     inkscape:cy="24"
     inkscape:window-x="66"
     inkscape:window-y="-8"
     inkscape:window-maximized="1"
     inkscape:current-layer="svg3440" />
  <defs
     id="defs3">
    <radialGradient
       id="radialGradient3968"
       gradientUnits="userSpaceOnUse"
       cy="15.716"
       cx="18.248"
       gradientTransform="scale(0.99999,1)"
       r="29.993">
      <stop
         id="stop3964"
         stop-color="#d3e9ff"
         offset="0" />
      <stop
         id="stop4134"
         stop-color="#d3e9ff"
         offset=".15517" />
      <stop
         id="stop4346"
         stop-color="#4074ae"
         offset=".75" />
      <stop
         id="stop3966"
         stop-color="#36486c"
         offset="1" />
    </radialGradient>
    <radialGradient
       id="radialGradient4120"
       gradientUnits="userSpaceOnUse"
       cy="63.965"
       cx="15.116"
       gradientTransform="scale(1.644,0.60828)"
       r="12.289">
      <stop
         id="stop4116"
         offset="0" />
      <stop
         id="stop4118"
         stop-opacity="0"
         offset="1" />
    </radialGradient>
    <radialGradient
       id="radialGradient4132"
       gradientUnits="userSpaceOnUse"
       cy="12.142"
       cx="15.601"
       gradientTransform="scale(0.99999,1)"
       r="43.527">
      <stop
         id="stop4128"
         stop-color="#fff"
         offset="0" />
      <stop
         id="stop4130"
         stop-color="#fff"
         stop-opacity=".16495"
         offset="1" />
    </radialGradient>
    <radialGradient
       id="radialGradient4356"
       gradientUnits="userSpaceOnUse"
       cy="10.476"
       cx="11.827"
       gradientTransform="scale(1.1795,0.84779)"
       r="32.665">
      <stop
         id="stop4352"
         stop-color="#fff"
         offset="0" />
      <stop
         id="stop4354"
         stop-color="#fff"
         stop-opacity="0"
         offset="1" />
    </radialGradient>
    <radialGradient
       id="radialGradient4756"
       fx="18.934"
       fy="17.81"
       gradientUnits="userSpaceOnUse"
       cy="17.486"
       cx="18.634"
       gradientTransform="scale(1.0368 .96449)"
       r="40.693">
      <stop
         id="stop4752"
         stop-color="#fff"
         offset="0" />
      <stop
         id="stop4758"
         stop-color="#fefefe"
         offset=".37931" />
      <stop
         id="stop4754"
         stop-color="#1d1d1d"
         offset="1" />
    </radialGradient>
    <radialGradient
       inkscape:collect="always"
       xlink:href="#radialGradient4756"
       id="radialGradient3072"
       gradientUnits="userSpaceOnUse"
       gradientTransform="scale(1.0368,0.96449)"
       cx="18.634"
       cy="17.486"
       fx="18.934"
       fy="17.81"
       r="40.693" />
    <radialGradient
       inkscape:collect="always"
       xlink:href="#radialGradient4756"
       id="radialGradient3074"
       gradientUnits="userSpaceOnUse"
       gradientTransform="scale(1.0368,0.96449)"
       cx="18.634"
       cy="17.486"
       fx="18.934"
       fy="17.81"
       r="40.693" />
    <radialGradient
       inkscape:collect="always"
       xlink:href="#radialGradient4756"
       id="radialGradient3076"
       gradientUnits="userSpaceOnUse"
       gradientTransform="scale(1.0368,0.96449)"
       cx="18.634"
       cy="17.486"
       fx="18.934"
       fy="17.81"
       r="40.693" />
    <radialGradient
       inkscape:collect="always"
       xlink:href="#radialGradient4756"
       id="radialGradient3078"
       gradientUnits="userSpaceOnUse"
       gradientTransform="scale(1.0368,0.96449)"
       cx="18.634"
       cy="17.486"
       fx="18.934"
       fy="17.81"
       r="40.693" />
    <radialGradient
       inkscape:collect="always"
       xlink:href="#radialGradient4756"
       id="radialGradient3080"
       gradientUnits="userSpaceOnUse"
       gradientTransform="scale(1.0368,0.96449)"
       cx="18.634"
       cy="17.486"
       fx="18.934"
       fy="17.81"
       r="40.693" />
    <radialGradient
       inkscape:collect="always"
       xlink:href="#radialGradient4756"
       id="radialGradient3082"
       gradientUnits="userSpaceOnUse"
       gradientTransform="scale(1.0368,0.96449)"
       cx="18.634"
       cy="17.486"
       fx="18.934"
       fy="17.81"
       r="40.693" />
    <radialGradient
       inkscape:collect="always"
       xlink:href="#radialGradient4756"
       id="radialGradient3084"
       gradientUnits="userSpaceOnUse"
       gradientTransform="scale(1.0368,0.96449)"
       cx="18.634"
       cy="17.486"
       fx="18.934"
       fy="17.81"
       r="40.693" />
    <radialGradient
       inkscape:collect="always"
       xlink:href="#radialGradient4756"
       id="radialGradient3086"
       gradientUnits="userSpaceOnUse"
       gradientTransform="scale(1.0368,0.96449)"
       cx="18.634"
       cy="17.486"
       fx="18.934"
       fy="17.81"
       r="40.693" />
    <radialGradient
       inkscape:collect="always"
       xlink:href="#radialGradient4756"
       id="radialGradient3088"
       gradientUnits="userSpaceOnUse"
       gradientTransform="scale(1.0368,0.96449)"
       cx="18.634"
       cy="17.486"
       fx="18.934"
       fy="17.81"
       r="40.693" />
    <radialGradient
       inkscape:collect="always"
       xlink:href="#radialGradient4756"
       id="radialGradient3090"
       gradientUnits="userSpaceOnUse"
       gradientTransform="scale(1.0368,0.96449)"
       cx="18.634"
       cy="17.486"
       fx="18.934"
       fy="17.81"
       r="40.693" />
    <radialGradient
       inkscape:collect="always"
       xlink:href="#radialGradient4756"
       id="radialGradient3092"
       gradientUnits="userSpaceOnUse"
       gradientTransform="scale(1.0368,0.96449)"
       cx="18.634"
       cy="17.486"
       fx="18.934"
       fy="17.81"
       r="40.693" />
    <radialGradient
       inkscape:collect="always"
       xlink:href="#radialGradient4756"
       id="radialGradient3094"
       gradientUnits="userSpaceOnUse"
       gradientTransform="scale(1.0368,0.96449)"
       cx="18.634"
       cy="17.486"
       fx="18.934"
       fy="17.81"
       r="40.693" />
    <radialGradient
       inkscape:collect="always"
       xlink:href="#radialGradient4756"
       id="radialGradient3096"
       gradientUnits="userSpaceOnUse"
       gradientTransform="scale(1.0368,0.96449)"
       cx="18.634"
       cy="17.486"
       fx="18.934"
       fy="17.81"
       r="40.693" />
    <radialGradient
       inkscape:collect="always"
       xlink:href="#radialGradient4756"
       id="radialGradient3098"
       gradientUnits="userSpaceOnUse"
       gradientTransform="scale(1.0368,0.96449)"
       cx="18.634"
       cy="17.486"
       fx="18.934"
       fy="17.81"
       r="40.693" />
    <radialGradient
       inkscape:collect="always"
       xlink:href="#radialGradient4756"
       id="radialGradient3100"
       gradientUnits="userSpaceOnUse"
       gradientTransform="scale(1.0368,0.96449)"
       cx="18.634"
       cy="17.486"
       fx="18.934"
       fy="17.81"
       r="40.693" />
    <radialGradient
       inkscape:collect="always"
       xlink:href="#radialGradient4756"
       id="radialGradient3102"
       gradientUnits="userSpaceOnUse"
       gradientTransform="scale(1.0368,0.96449)"
       cx="18.634"
       cy="17.486"
       fx="18.934"
       fy="17.81"
       r="40.693" />
    <radialGradient
       inkscape:collect="always"
       xlink:href="#radialGradient4756"
       id="radialGradient3104"
       gradientUnits="userSpaceOnUse"
       gradientTransform="scale(1.0368,0.96449)"
       cx="18.634"
       cy="17.486"
       fx="18.934"
       fy="17.81"
       r="40.693" />
    <radialGradient
       inkscape:collect="always"
       xlink:href="#radialGradient4756"
       id="radialGradient3106"
       gradientUnits="userSpaceOnUse"
       gradientTransform="scale(1.0368,0.96449)"
       cx="18.634"
       cy="17.486"
       fx="18.934"
       fy="17.81"
       r="40.693" />
    <radialGradient
       inkscape:collect="always"
       xlink:href="#radialGradient4756"
       id="radialGradient3108"
       gradientUnits="userSpaceOnUse"
       gradientTransform="scale(1.0368,0.96449)"
       cx="18.634"
       cy="17.486"
       fx="18.934"
       fy="17.81"
       r="40.693" />
    <radialGradient
       inkscape:collect="always"
       xlink:href="#radialGradient4756"
       id="radialGradient3110"
       gradientUnits="userSpaceOnUse"
       gradientTransform="scale(1.0368,0.96449)"
       cx="18.634"
       cy="17.486"
       fx="18.934"
       fy="17.81"
       r="40.693" />
    <radialGradient
       inkscape:collect="always"
       xlink:href="#radialGradient4756"
       id="radialGradient3112"
       gradientUnits="userSpaceOnUse"
       gradientTransform="scale(1.0368,0.96449)"
       cx="18.634"
       cy="17.486"
       fx="18.934"
       fy="17.81"
       r="40.693" />
    <radialGradient
       inkscape:collect="always"
       xlink:href="#radialGradient4756"
       id="radialGradient3114"
       gradientUnits="userSpaceOnUse"
       gradientTransform="scale(1.0368,0.96449)"
       cx="18.634"
       cy="17.486"
       fx="18.934"
       fy="17.81"
       r="40.693" />
    <radialGradient
       inkscape:collect="always"
       xlink:href="#radialGradient4756"
       id="radialGradient3116"
       gradientUnits="userSpaceOnUse"
       gradientTransform="scale(1.0368,0.96449)"
       cx="18.634"
       cy="17.486"
       fx="18.934"
       fy="17.81"
       r="40.693" />
    <radialGradient
       inkscape:collect="always"
       xlink:href="#radialGradient4756"
       id="radialGradient3118"
       gradientUnits="userSpaceOnUse"
       gradientTransform="scale(1.0368,0.96449)"
       cx="18.634"
       cy="17.486"
       fx="18.934"
       fy="17.81"
       r="40.693" />
    <radialGradient
       inkscape:collect="always"
       xlink:href="#radialGradient4756"
       id="radialGradient3120"
       gradientUnits="userSpaceOnUse"
       gradientTransform="scale(1.0368,0.96449)"
       cx="18.634"
       cy="17.486"
       fx="18.934"
       fy="17.81"
       r="40.693" />
    <radialGradient
       inkscape:collect="always"
       xlink:href="#radialGradient4756"
       id="radialGradient3122"
       gradientUnits="userSpaceOnUse"
       gradientTransform="scale(1.0368,0.96449)"
       cx="18.634"
       cy="17.486"
       fx="18.934"
       fy="17.81"
       r="40.693" />
    <radialGradient
       inkscape:collect="always"
       xlink:href="#radialGradient4756"
       id="radialGradient3124"
       gradientUnits="userSpaceOnUse"
       gradientTransform="scale(1.0368,0.96449)"
       cx="18.634"
       cy="17.486"
       fx="18.934"
       fy="17.81"
       r="40.693" />
    <radialGradient
       inkscape:collect="always"
       xlink:href="#radialGradient4756"
       id="radialGradient3126"
       gradientUnits="userSpaceOnUse"
       gradientTransform="scale(1.0368,0.96449)"
       cx="18.634"
       cy="17.486"
       fx="18.934"
       fy="17.81"
       r="40.693" />
    <radialGradient
       inkscape:collect="always"
       xlink:href="#radialGradient4756"
       id="radialGradient3128"
       gradientUnits="userSpaceOnUse"
       gradientTransform="scale(1.0368,0.96449)"
       cx="18.634"
       cy="17.486"
       fx="18.934"
       fy="17.81"
       r="40.693" />
    <radialGradient
       inkscape:collect="always"
       xlink:href="#radialGradient4756"
       id="radialGradient3130"
       gradientUnits="userSpaceOnUse"
       gradientTransform="scale(1.0368,0.96449)"
       cx="18.634"
       cy="17.486"
       fx="18.934"
       fy="17.81"
       r="40.693" />
    <radialGradient
       inkscape:collect="always"
       xlink:href="#radialGradient4756"
       id="radialGradient3132"
       gradientUnits="userSpaceOnUse"
       gradientTransform="scale(1.0368,0.96449)"
       cx="18.634"
       cy="17.486"
       fx="18.934"
       fy="17.81"
       r="40.693" />
    <radialGradient
       inkscape:collect="always"
       xlink:href="#radialGradient4756"
       id="radialGradient3134"
       gradientUnits="userSpaceOnUse"
       gradientTransform="scale(1.0368,0.96449)"
       cx="18.634"
       cy="17.486"
       fx="18.934"
       fy="17.81"
       r="40.693" />
    <radialGradient
       inkscape:collect="always"
       xlink:href="#radialGradient4756"
       id="radialGradient3136"
       gradientUnits="userSpaceOnUse"
       gradientTransform="scale(1.0368,0.96449)"
       cx="18.634"
       cy="17.486"
       fx="18.934"
       fy="17.81"
       r="40.693" />
    <radialGradient
       inkscape:collect="always"
       xlink:href="#radialGradient4132"
       id="radialGradient3139"
       gradientUnits="userSpaceOnUse"
       gradientTransform="scale(0.99999,1)"
       cx="15.601"
       cy="12.142"
       r="43.527" />
    <radialGradient
       inkscape:collect="always"
       xlink:href="#radialGradient4356"
       id="radialGradient3208"
       gradientUnits="userSpaceOnUse"
       gradientTransform="matrix(0.98599123,0,0,0.84779,9.8869,0)"
       cx="11.827"
       cy="10.476"
       r="32.665" />
    <radialGradient
       inkscape:collect="always"
       xlink:href="#radialGradient3968"
       id="radialGradient3211"
       gradientUnits="userSpaceOnUse"
       gradientTransform="scale(0.99999,1)"
       cx="18.248"
       cy="15.716"
       r="29.993" />
    <radialGradient
       inkscape:collect="always"
       xlink:href="#radialGradient4120"
       id="radialGradient3214"
       gradientUnits="userSpaceOnUse"
       gradientTransform="matrix(1.644,0,0,0.7562137,0,-10.272)"
       cx="15.116"
       cy="63.965"
       r="12.289" />
    <radialGradient
       inkscape:collect="always"
       xlink:href="#radialGradient3968"
       id="radialGradient3288"
       gradientUnits="userSpaceOnUse"
       gradientTransform="scale(0.99999,1)"
       cx="18.248"
       cy="15.716"
       r="29.993" />
    <radialGradient
       inkscape:collect="always"
       xlink:href="#radialGradient4356"
       id="radialGradient3290"
       gradientUnits="userSpaceOnUse"
       gradientTransform="matrix(0.98599123,0,0,0.84779,9.8869,0)"
       cx="11.827"
       cy="10.476"
       r="32.665" />
    <radialGradient
       inkscape:collect="always"
       xlink:href="#radialGradient4756"
       id="radialGradient3292"
       gradientUnits="userSpaceOnUse"
       gradientTransform="scale(1.0368,0.96449)"
       cx="18.634"
       cy="17.486"
       fx="18.934"
       fy="17.81"
       r="40.693" />
    <radialGradient
       inkscape:collect="always"
       xlink:href="#radialGradient4756"
       id="radialGradient3294"
       gradientUnits="userSpaceOnUse"
       gradientTransform="scale(1.0368,0.96449)"
       cx="18.634"
       cy="17.486"
       fx="18.934"
       fy="17.81"
       r="40.693" />
    <radialGradient
       inkscape:collect="always"
       xlink:href="#radialGradient4756"
       id="radialGradient3296"
       gradientUnits="userSpaceOnUse"
       gradientTransform="scale(1.0368,0.96449)"
       cx="18.634"
       cy="17.486"
       fx="18.934"
       fy="17.81"
       r="40.693" />
    <radialGradient
       inkscape:collect="always"
       xlink:href="#radialGradient4756"
       id="radialGradient3298"
       gradientUnits="userSpaceOnUse"
       gradientTransform="scale(1.0368,0.96449)"
       cx="18.634"
       cy="17.486"
       fx="18.934"
       fy="17.81"
       r="40.693" />
    <radialGradient
       inkscape:collect="always"
       xlink:href="#radialGradient4756"
       id="radialGradient3300"
       gradientUnits="userSpaceOnUse"
       gradientTransform="scale(1.0368,0.96449)"
       cx="18.634"
       cy="17.486"
       fx="18.934"
       fy="17.81"
       r="40.693" />
    <radialGradient
       inkscape:collect="always"
       xlink:href="#radialGradient4756"
       id="radialGradient3302"
       gradientUnits="userSpaceOnUse"
       gradientTransform="scale(1.0368,0.96449)"
       cx="18.634"
       cy="17.486"
       fx="18.934"
       fy="17.81"
       r="40.693" />
    <radialGradient
       inkscape:collect="always"
       xlink:href="#radialGradient4756"
       id="radialGradient3304"
       gradientUnits="userSpaceOnUse"
       gradientTransform="scale(1.0368,0.96449)"
       cx="18.634"
       cy="17.486"
       fx="18.934"
       fy="17.81"
       r="40.693" />
    <radialGradient
       inkscape:collect="always"
       xlink:href="#radialGradient4756"
       id="radialGradient3306"
       gradientUnits="userSpaceOnUse"
       gradientTransform="scale(1.0368,0.96449)"
       cx="18.634"
       cy="17.486"
       fx="18.934"
       fy="17.81"
       r="40.693" />
    <radialGradient
       inkscape:collect="always"
       xlink:href="#radialGradient4756"
       id="radialGradient3308"
       gradientUnits="userSpaceOnUse"
       gradientTransform="scale(1.0368,0.96449)"
       cx="18.634"
       cy="17.486"
       fx="18.934"
       fy="17.81"
       r="40.693" />
    <radialGradient
       inkscape:collect="always"
       xlink:href="#radialGradient4756"
       id="radialGradient3310"
       gradientUnits="userSpaceOnUse"
       gradientTransform="scale(1.0368,0.96449)"
       cx="18.634"
       cy="17.486"
       fx="18.934"
       fy="17.81"
       r="40.693" />
    <radialGradient
       inkscape:collect="always"
       xlink:href="#radialGradient4756"
       id="radialGradient3312"
       gradientUnits="userSpaceOnUse"
       gradientTransform="scale(1.0368,0.96449)"
       cx="18.634"
       cy="17.486"
       fx="18.934"
       fy="17.81"
       r="40.693" />
    <radialGradient
       inkscape:collect="always"
       xlink:href="#radialGradient4756"
       id="radialGradient3314"
       gradientUnits="userSpaceOnUse"
       gradientTransform="scale(1.0368,0.96449)"
       cx="18.634"
       cy="17.486"
       fx="18.934"
       fy="17.81"
       r="40.693" />
    <radialGradient
       inkscape:collect="always"
       xlink:href="#radialGradient4756"
       id="radialGradient3316"
       gradientUnits="userSpaceOnUse"
       gradientTransform="scale(1.0368,0.96449)"
       cx="18.634"
       cy="17.486"
       fx="18.934"
       fy="17.81"
       r="40.693" />
    <radialGradient
       inkscape:collect="always"
       xlink:href="#radialGradient4756"
       id="radialGradient3318"
       gradientUnits="userSpaceOnUse"
       gradientTransform="scale(1.0368,0.96449)"
       cx="18.634"
       cy="17.486"
       fx="18.934"
       fy="17.81"
       r="40.693" />
    <radialGradient
       inkscape:collect="always"
       xlink:href="#radialGradient4756"
       id="radialGradient3320"
       gradientUnits="userSpaceOnUse"
       gradientTransform="scale(1.0368,0.96449)"
       cx="18.634"
       cy="17.486"
       fx="18.934"
       fy="17.81"
       r="40.693" />
    <radialGradient
       inkscape:collect="always"
       xlink:href="#radialGradient4756"
       id="radialGradient3322"
       gradientUnits="userSpaceOnUse"
       gradientTransform="scale(1.0368,0.96449)"
       cx="18.634"
       cy="17.486"
       fx="18.934"
       fy="17.81"
       r="40.693" />
    <radialGradient
       inkscape:collect="always"
       xlink:href="#radialGradient4756"
       id="radialGradient3324"
       gradientUnits="userSpaceOnUse"
       gradientTransform="scale(1.0368,0.96449)"
       cx="18.634"
       cy="17.486"
       fx="18.934"
       fy="17.81"
       r="40.693" />
    <radialGradient
       inkscape:collect="always"
       xlink:href="#radialGradient4756"
       id="radialGradient3326"
       gradientUnits="userSpaceOnUse"
       gradientTransform="scale(1.0368,0.96449)"
       cx="18.634"
       cy="17.486"
       fx="18.934"
       fy="17.81"
       r="40.693" />
    <radialGradient
       inkscape:collect="always"
       xlink:href="#radialGradient4756"
       id="radialGradient3328"
       gradientUnits="userSpaceOnUse"
       gradientTransform="scale(1.0368,0.96449)"
       cx="18.634"
       cy="17.486"
       fx="18.934"
       fy="17.81"
       r="40.693" />
    <radialGradient
       inkscape:collect="always"
       xlink:href="#radialGradient4756"
       id="radialGradient3330"
       gradientUnits="userSpaceOnUse"
       gradientTransform="scale(1.0368,0.96449)"
       cx="18.634"
       cy="17.486"
       fx="18.934"
       fy="17.81"
       r="40.693" />
    <radialGradient
       inkscape:collect="always"
       xlink:href="#radialGradient4756"
       id="radialGradient3332"
       gradientUnits="userSpaceOnUse"
       gradientTransform="scale(1.0368,0.96449)"
       cx="18.634"
       cy="17.486"
       fx="18.934"
       fy="17.81"
       r="40.693" />
    <radialGradient
       inkscape:collect="always"
       xlink:href="#radialGradient4756"
       id="radialGradient3334"
       gradientUnits="userSpaceOnUse"
       gradientTransform="scale(1.0368,0.96449)"
       cx="18.634"
       cy="17.486"
       fx="18.934"
       fy="17.81"
       r="40.693" />
    <radialGradient
       inkscape:collect="always"
       xlink:href="#radialGradient4756"
       id="radialGradient3336"
       gradientUnits="userSpaceOnUse"
       gradientTransform="scale(1.0368,0.96449)"
       cx="18.634"
       cy="17.486"
       fx="18.934"
       fy="17.81"
       r="40.693" />
    <radialGradient
       inkscape:collect="always"
       xlink:href="#radialGradient4756"
       id="radialGradient3338"
       gradientUnits="userSpaceOnUse"
       gradientTransform="scale(1.0368,0.96449)"
       cx="18.634"
       cy="17.486"
       fx="18.934"
       fy="17.81"
       r="40.693" />
    <radialGradient
       inkscape:collect="always"
       xlink:href="#radialGradient4756"
       id="radialGradient3340"
       gradientUnits="userSpaceOnUse"
       gradientTransform="scale(1.0368,0.96449)"
       cx="18.634"
       cy="17.486"
       fx="18.934"
       fy="17.81"
       r="40.693" />
    <radialGradient
       inkscape:collect="always"
       xlink:href="#radialGradient4756"
       id="radialGradient3342"
       gradientUnits="userSpaceOnUse"
       gradientTransform="scale(1.0368,0.96449)"
       cx="18.634"
       cy="17.486"
       fx="18.934"
       fy="17.81"
       r="40.693" />
    <radialGradient
       inkscape:collect="always"
       xlink:href="#radialGradient4756"
       id="radialGradient3344"
       gradientUnits="userSpaceOnUse"
       gradientTransform="scale(1.0368,0.96449)"
       cx="18.634"
       cy="17.486"
       fx="18.934"
       fy="17.81"
       r="40.693" />
    <radialGradient
       inkscape:collect="always"
       xlink:href="#radialGradient4756"
       id="radialGradient3346"
       gradientUnits="userSpaceOnUse"
       gradientTransform="scale(1.0368,0.96449)"
       cx="18.634"
       cy="17.486"
       fx="18.934"
       fy="17.81"
       r="40.693" />
    <radialGradient
       inkscape:collect="always"
       xlink:href="#radialGradient4756"
       id="radialGradient3348"
       gradientUnits="userSpaceOnUse"
       gradientTransform="scale(1.0368,0.96449)"
       cx="18.634"
       cy="17.486"
       fx="18.934"
       fy="17.81"
       r="40.693" />
    <radialGradient
       inkscape:collect="always"
       xlink:href="#radialGradient4756"
       id="radialGradient3350"
       gradientUnits="userSpaceOnUse"
       gradientTransform="scale(1.0368,0.96449)"
       cx="18.634"
       cy="17.486"
       fx="18.934"
       fy="17.81"
       r="40.693" />
    <radialGradient
       inkscape:collect="always"
       xlink:href="#radialGradient4756"
       id="radialGradient3352"
       gradientUnits="userSpaceOnUse"
       gradientTransform="scale(1.0368,0.96449)"
       cx="18.634"
       cy="17.486"
       fx="18.934"
       fy="17.81"
       r="40.693" />
    <radialGradient
       inkscape:collect="always"
       xlink:href="#radialGradient4756"
       id="radialGradient3354"
       gradientUnits="userSpaceOnUse"
       gradientTransform="scale(1.0368,0.96449)"
       cx="18.634"
       cy="17.486"
       fx="18.934"
       fy="17.81"
       r="40.693" />
    <radialGradient
       inkscape:collect="always"
       xlink:href="#radialGradient4756"
       id="radialGradient3356"
       gradientUnits="userSpaceOnUse"
       gradientTransform="scale(1.0368,0.96449)"
       cx="18.634"
       cy="17.486"
       fx="18.934"
       fy="17.81"
       r="40.693" />
    <radialGradient
       inkscape:collect="always"
       xlink:href="#radialGradient4132"
       id="radialGradient3358"
       gradientUnits="userSpaceOnUse"
       gradientTransform="scale(0.99999,1)"
       cx="15.601"
       cy="12.142"
       r="43.527" />
  </defs>
  <g
     id="g3216"
     transform="matrix(1.1840539,0,0,1.1840539,-5.0916133,-3.8086909)">
    <path
       id="path3214"
       d="m 43.96,23.485 c 0,10.71 -8.682,19.392 -19.39,19.392 -10.71,0 -19.391,-8.682 -19.391,-19.392 -3e-4,-10.709 8.681,-19.39 19.391,-19.39 10.708,2e-4 19.39,8.681 19.39,19.39 z"
       style="fill:url(#radialGradient3288);stroke:#39396c"
       inkscape:connector-curvature="0" />
    <path
       id="path4348"
       d="m 35.557781,15.271 a 10.808704,9.2934 0 0 1 -21.617408,0 10.808704,9.2934 0 1 1 21.617408,0 z"
       style="opacity:0.42158999;fill:url(#radialGradient3290)"
       inkscape:connector-curvature="0" />
    <g
       id="g4136"
       transform="matrix(0.98237,0,0,0.98237,0.12108,0.23291)"
       style="fill-opacity:0.71344999">
      <g
         id="g4138">
        <g
           id="g4142">
          <path
             id="path4144"
             d="m 44.071,20.714 -0.545,0.618 c -0.334,-0.394 -0.709,-0.725 -1.089,-1.071 l -0.836,0.123 -0.764,-0.863 v 1.068 l 0.654,0.495 0.436,0.494 0.582,-0.658 c 0.146,0.274 0.291,0.548 0.436,0.823 v 0.822 l -0.655,0.74 -1.199,0.823 -0.908,0.907 -0.582,-0.661 0.291,-0.74 -0.582,-0.658 -0.981,-2.098 -0.836,-0.945 -0.219,0.246 0.328,1.194 0.618,0.699 c 0.352,1.017 0.701,1.99 1.164,2.963 0.718,0 1.394,-0.077 2.107,-0.166 v 0.576 l -0.872,2.139 -0.8,0.904 -0.654,1.401 v 2.303 l 0.219,0.906 -0.364,0.41 -0.8,0.494 -0.836,0.699 0.691,0.782 -0.945,0.824 0.182,0.533 -1.418,1.606 h -0.945 l -0.8,0.494 H 33.64 v -0.659 l -0.217,-1.318 c -0.281,-0.826 -0.574,-1.647 -0.872,-2.467 0,-0.605 0.036,-1.205 0.072,-1.81 l 0.364,-0.823 -0.509,-0.988 0.037,-1.357 -0.692,-0.782 0.346,-1.13 -0.563,-0.639 h -0.982 l -0.327,-0.37 -0.981,0.618 -0.4,-0.454 -0.909,0.782 c -0.617,-0.7 -1.235,-1.399 -1.854,-2.098 l -0.726,-1.729 0.654,-0.986 -0.363,-0.411 0.799,-1.894 c 0.656,-0.816 1.341,-1.599 2.035,-2.385 l 1.236,-0.329 1.381,-0.165 0.945,0.248 1.345,1.356 0.473,-0.534 0.653,-0.082 1.236,0.411 h 0.946 l 0.654,-0.576 0.291,-0.411 -0.655,-0.412 -1.091,-0.082 C 35.663,17.045 35.382,16.603 35.022,16.23 l -0.364,0.164 -0.145,1.07 -0.655,-0.74 -0.144,-0.824 -0.727,-0.574 h -0.292 l 0.728,0.822 -0.291,0.74 -0.581,0.164 0.363,-0.74 -0.655,-0.328 -0.581,-0.658 -1.091,0.246 -0.145,0.328 -0.654,0.412 -0.363,0.906 -0.909,0.452 -0.4,-0.452 H 27.68 v -1.482 l 0.946,-0.494 h 0.726 l -0.146,-0.575 -0.58,-0.576 0.98,-0.206 0.545,-0.617 0.436,-0.741 h 0.801 l -0.219,-0.575 0.509,-0.329 v 0.658 l 1.09,0.246 1.09,-0.904 0.073,-0.412 0.945,-0.658 c -0.342,0.043 -0.684,0.074 -1.018,0.165 V 9.9766 l 0.363,-0.8228 h -0.363 l -0.798,0.7402 -0.219,0.412 0.219,0.576 -0.365,0.987 -0.581,-0.329 -0.508,-0.576 -0.8,0.576 -0.291,-1.316 1.381,-0.9052 V 8.8247 l 0.872,-0.5757 1.381,-0.3296 0.946,0.3296 1.744,0.3291 -0.436,0.4932 h -0.945 l 0.945,0.9877 0.727,-0.8227 0.221,-0.3618 c 0,0 2.787,2.4975 4.379,5.2305 1.593,2.733 2.341,5.955 2.341,6.609 z"
             inkscape:connector-curvature="0" />
        </g>
      </g>
      <g
         id="g4146">
        <g
           id="g4150">
          <path
             id="path4152"
             d="M 26.07,9.2363 25.997,9.7295 26.507,10.059 27.378,9.4829 26.942,8.9892 26.36,9.3188 26.07,9.2363"
             inkscape:connector-curvature="0" />
        </g>
      </g>
      <g
         id="g4154">
        <g
           id="g4158">
          <path
             id="path4160"
             d="M 26.87,5.8633 24.98,5.1226 22.8,5.3692 20.109,6.1094 19.601,6.6035 21.272,7.7549 V 8.4131 L 20.618,9.0713 21.491,10.8 22.071,10.47 22.8,9.3188 C 23.923,8.9716 24.93,8.5781 25.997,8.0844 L 26.87,5.8632"
             inkscape:connector-curvature="0" />
        </g>
      </g>
      <g
         id="g4162">
        <g
           id="g4166">
          <path
             id="path4168"
             d="m 28.833,12.775 -0.291,-0.741 -0.51,0.165 0.147,0.904 0.654,-0.328"
             inkscape:connector-curvature="0" />
        </g>
      </g>
      <g
         id="g4170">
        <g
           id="g4174">
          <path
             id="path4176"
             d="m 29.123,12.609 -0.145,0.988 0.799,-0.165 0.581,-0.575 -0.508,-0.494 c -0.171,-0.455 -0.368,-0.88 -0.582,-1.317 h -0.435 v 0.494 l 0.29,0.329 v 0.74"
             inkscape:connector-curvature="0" />
        </g>
      </g>
      <g
         id="g4178">
        <g
           id="g4182">
          <path
             id="path4184"
             d="m 18.365,28.242 -0.582,-1.152 -1.09,-0.247 -0.582,-1.562 -1.453,0.164 -1.236,-0.904 -1.309,1.151 v 0.182 C 11.717,25.759 11.23,25.744 10.878,25.527 L 10.587,24.705 V 23.799 L 9.7148,23.881 C 9.7876,23.305 9.8598,22.73 9.9331,22.154 H 9.4238 L 8.9155,22.812 8.4062,23.058 7.6791,22.648 7.6063,21.743 7.7518,20.755 8.8426,19.933 h 0.8721 l 0.145,-0.494 1.0903,0.246 0.8,0.988 0.145,-1.646 1.382,-1.152 0.508,-1.234 1.018,-0.411 0.581,-0.822 1.309,-0.248 0.654,-0.987 h -1.963 l 1.236,-0.576 h 0.872 l 1.236,-0.412 0.146,-0.492 -0.437,-0.412 -0.509,-0.165 0.146,-0.494 -0.363,-0.74 -0.873,0.328 0.146,-0.657 -1.018,-0.5765 -0.799,1.3975 0.072,0.494 -0.799,0.331 -0.51,1.069 -0.218,-0.987 -1.381,-0.577 -0.218,-0.74 1.817,-1.0701 0.8,-0.7402 0.073,-0.9048 -0.436,-0.2471 -0.582,-0.0825 -0.363,0.9053 c 0,0 -0.608,0.1191 -0.764,0.1577 -1.996,1.8397 -6.0294,5.8097 -6.9664,13.306 0.0371,0.174 0.6792,1.182 0.6792,1.182 l 1.5264,0.904 1.5264,0.412 0.6544,0.824 1.018,0.74 0.581,-0.082 0.436,0.196 v 0.133 l -0.581,1.563 -0.437,0.658 0.146,0.33 -0.363,1.233 1.308,2.386 1.308,1.153 0.582,0.822 -0.073,1.728 0.437,0.987 -0.437,1.892 c 0,0 -0.034,-0.011 0.022,0.178 0.056,0.19 2.329,1.451 2.473,1.344 0.144,-0.109 0.267,-0.205 0.267,-0.205 l -0.145,-0.41 0.581,-0.577 0.219,-0.576 0.945,-0.33 0.727,-1.81 -0.218,-0.493 0.508,-0.74 1.09,-0.248 0.582,-1.316 -0.145,-1.645 0.872,-1.234 0.145,-1.235 c -1.193,-0.591 -2.376,-1.201 -3.561,-1.81"
             inkscape:connector-curvature="0" />
        </g>
      </g>
      <g
         id="g4186">
        <g
           id="g4190">
          <path
             id="path4192"
             d="m 16.766,9.5649 0.726,0.4941 h 0.582 V 9.4829 L 17.348,9.1538 16.766,9.5649"
             inkscape:connector-curvature="0" />
        </g>
      </g>
      <g
         id="g4194">
        <g
           id="g4198">
          <path
             id="path4200"
             d="M 14.876,8.9072 14.512,9.812 h 0.727 L 15.603,8.9892 C 15.917,8.7675 16.229,8.5444 16.548,8.331 l 0.727,0.2471 c 0.484,0.3291 0.969,0.6582 1.454,0.9868 L 19.456,8.9072 18.656,8.5781 18.292,7.8374 16.911,7.6728 16.838,7.2612 16.184,7.4262 15.894,8.002 15.53,7.2613 l -0.145,0.3291 0.073,0.8228 -0.582,0.494"
             inkscape:connector-curvature="0" />
        </g>
      </g>
      <g
         id="g4202" />
      <g
         id="g4212" />
      <g
         id="g4222">
        <g
           id="g4226">
          <path
             id="path4228"
             d="M 17.492,6.8496 17.856,6.521 18.583,6.3564 C 19.081,6.1142 19.581,5.9511 20.11,5.7802 l -0.29,-0.4937 -0.939,0.1348 -0.443,0.4419 -0.731,0.106 -0.65,0.3052 -0.316,0.1528 -0.193,0.2583 0.944,0.1641"
             inkscape:connector-curvature="0" />
        </g>
      </g>
      <g
         id="g4230">
        <g
           id="g4234">
          <path
             id="path4236"
             d="m 18.728,14.666 0.437,-0.658 -0.655,-0.493 0.218,1.151"
             inkscape:connector-curvature="0" />
        </g>
      </g>
    </g>
    <g
       id="g3253"
       style="color:#000000;fill:url(#radialGradient3356)"
       transform="matrix(0.98237,0,0,0.98237,-0.080952,0.030883)">
      <g
         id="g3218"
         style="color:#000000;fill:url(#radialGradient3296)">
        <g
           id="g3222"
           style="color:#000000;fill:url(#radialGradient3294)">
          <path
             id="path3224"
             style="color:#000000;fill:url(#radialGradient3292)"
             d="m 44.071,20.714 -0.545,0.618 c -0.334,-0.394 -0.709,-0.725 -1.089,-1.071 l -0.836,0.123 -0.764,-0.863 v 1.068 l 0.654,0.495 0.436,0.494 0.582,-0.658 c 0.146,0.274 0.291,0.548 0.436,0.823 v 0.822 l -0.655,0.74 -1.199,0.823 -0.908,0.907 -0.582,-0.661 0.291,-0.74 -0.582,-0.658 -0.981,-2.098 -0.836,-0.945 -0.219,0.246 0.328,1.194 0.618,0.699 c 0.352,1.017 0.701,1.99 1.164,2.963 0.718,0 1.394,-0.077 2.107,-0.166 v 0.576 l -0.872,2.139 -0.8,0.904 -0.654,1.401 v 2.303 l 0.219,0.906 -0.364,0.41 -0.8,0.494 -0.836,0.699 0.691,0.782 -0.945,0.824 0.182,0.533 -1.418,1.606 h -0.945 l -0.8,0.494 H 33.64 v -0.659 l -0.217,-1.318 c -0.281,-0.826 -0.574,-1.647 -0.872,-2.467 0,-0.605 0.036,-1.205 0.072,-1.81 l 0.364,-0.823 -0.509,-0.988 0.037,-1.357 -0.692,-0.782 0.346,-1.13 -0.563,-0.639 h -0.982 l -0.327,-0.37 -0.981,0.618 -0.4,-0.454 -0.909,0.782 c -0.617,-0.7 -1.235,-1.399 -1.854,-2.098 l -0.726,-1.729 0.654,-0.986 -0.363,-0.411 0.799,-1.894 c 0.656,-0.816 1.341,-1.599 2.035,-2.385 l 1.236,-0.329 1.381,-0.165 0.945,0.248 1.345,1.356 0.473,-0.534 0.653,-0.082 1.236,0.411 h 0.946 l 0.654,-0.576 0.291,-0.411 -0.655,-0.412 -1.091,-0.082 C 35.663,17.045 35.382,16.603 35.022,16.23 l -0.364,0.164 -0.145,1.07 -0.655,-0.74 -0.144,-0.824 -0.727,-0.574 h -0.292 l 0.728,0.822 -0.291,0.74 -0.581,0.164 0.363,-0.74 -0.655,-0.328 -0.581,-0.658 -1.091,0.246 -0.145,0.328 -0.654,0.412 -0.363,0.906 -0.909,0.452 -0.4,-0.452 H 27.68 v -1.482 l 0.946,-0.494 h 0.726 l -0.146,-0.575 -0.58,-0.576 0.98,-0.206 0.545,-0.617 0.436,-0.741 h 0.801 l -0.219,-0.575 0.509,-0.329 v 0.658 l 1.09,0.246 1.09,-0.904 0.073,-0.412 0.945,-0.658 c -0.342,0.043 -0.684,0.074 -1.018,0.165 V 9.9766 l 0.363,-0.8228 h -0.363 l -0.798,0.7402 -0.219,0.412 0.219,0.576 -0.365,0.987 -0.581,-0.329 -0.508,-0.576 -0.8,0.576 -0.291,-1.316 1.381,-0.9052 V 8.8247 l 0.872,-0.5757 1.381,-0.3296 0.946,0.3296 1.744,0.3291 -0.436,0.4932 h -0.945 l 0.945,0.9877 0.727,-0.8227 0.221,-0.3618 c 0,0 2.787,2.4975 4.379,5.2305 1.593,2.733 2.341,5.955 2.341,6.609 z"
             inkscape:connector-curvature="0" />
        </g>
      </g>
      <g
         id="g3226"
         style="color:#000000;fill:url(#radialGradient3302)">
        <g
           id="g3230"
           style="color:#000000;fill:url(#radialGradient3300)">
          <path
             id="path3232"
             style="color:#000000;fill:url(#radialGradient3298)"
             d="M 26.07,9.2363 25.997,9.7295 26.507,10.059 27.378,9.4829 26.942,8.9892 26.36,9.3188 26.07,9.2363"
             inkscape:connector-curvature="0" />
        </g>
      </g>
      <g
         id="g3234"
         style="color:#000000;fill:url(#radialGradient3308)">
        <g
           id="g3238"
           style="color:#000000;fill:url(#radialGradient3306)">
          <path
             id="path3240"
             style="color:#000000;fill:url(#radialGradient3304)"
             d="M 26.87,5.8633 24.98,5.1226 22.8,5.3692 20.109,6.1094 19.601,6.6035 21.272,7.7549 V 8.4131 L 20.618,9.0713 21.491,10.8 22.071,10.47 22.8,9.3188 C 23.923,8.9716 24.93,8.5781 25.997,8.0844 L 26.87,5.8632"
             inkscape:connector-curvature="0" />
        </g>
      </g>
      <g
         id="g3242"
         style="color:#000000;fill:url(#radialGradient3314)">
        <g
           id="g3246"
           style="color:#000000;fill:url(#radialGradient3312)">
          <path
             id="path3248"
             style="color:#000000;fill:url(#radialGradient3310)"
             d="m 28.833,12.775 -0.291,-0.741 -0.51,0.165 0.147,0.904 0.654,-0.328"
             inkscape:connector-curvature="0" />
        </g>
      </g>
      <g
         id="g3250"
         style="color:#000000;fill:url(#radialGradient3320)">
        <g
           id="g3254"
           style="color:#000000;fill:url(#radialGradient3318)">
          <path
             id="path3256"
             style="color:#000000;fill:url(#radialGradient3316)"
             d="m 29.123,12.609 -0.145,0.988 0.799,-0.165 0.581,-0.575 -0.508,-0.494 c -0.171,-0.455 -0.368,-0.88 -0.582,-1.317 h -0.435 v 0.494 l 0.29,0.329 v 0.74"
             inkscape:connector-curvature="0" />
        </g>
      </g>
      <g
         id="g3258"
         style="color:#000000;fill:url(#radialGradient3326)">
        <g
           id="g3262"
           style="color:#000000;fill:url(#radialGradient3324)">
          <path
             id="path3264"
             style="color:#000000;fill:url(#radialGradient3322)"
             d="m 18.365,28.242 -0.582,-1.152 -1.09,-0.247 -0.582,-1.562 -1.453,0.164 -1.236,-0.904 -1.309,1.151 v 0.182 C 11.717,25.759 11.23,25.744 10.878,25.527 L 10.587,24.705 V 23.799 L 9.7148,23.881 C 9.7876,23.305 9.8598,22.73 9.9331,22.154 H 9.4238 L 8.9155,22.812 8.4062,23.058 7.6791,22.648 7.6063,21.743 7.7518,20.755 8.8426,19.933 h 0.8721 l 0.145,-0.494 1.0903,0.246 0.8,0.988 0.145,-1.646 1.382,-1.152 0.508,-1.234 1.018,-0.411 0.581,-0.822 1.309,-0.248 0.654,-0.987 h -1.963 l 1.236,-0.576 h 0.872 l 1.236,-0.412 0.146,-0.492 -0.437,-0.412 -0.509,-0.165 0.146,-0.494 -0.363,-0.74 -0.873,0.328 0.146,-0.657 -1.018,-0.5765 -0.799,1.3975 0.072,0.494 -0.799,0.331 -0.51,1.069 -0.218,-0.987 -1.381,-0.577 -0.218,-0.74 1.817,-1.0701 0.8,-0.7402 0.073,-0.9048 -0.436,-0.2471 -0.582,-0.0825 -0.363,0.9053 c 0,0 -0.608,0.1191 -0.764,0.1577 -1.996,1.8397 -6.0294,5.8097 -6.9664,13.306 0.0371,0.174 0.6792,1.182 0.6792,1.182 l 1.5264,0.904 1.5264,0.412 0.6544,0.824 1.018,0.74 0.581,-0.082 0.436,0.196 v 0.133 l -0.581,1.563 -0.437,0.658 0.146,0.33 -0.363,1.233 1.308,2.386 1.308,1.153 0.582,0.822 -0.073,1.728 0.437,0.987 -0.437,1.892 c 0,0 -0.034,-0.011 0.022,0.178 0.056,0.19 2.329,1.451 2.473,1.344 0.144,-0.109 0.267,-0.205 0.267,-0.205 l -0.145,-0.41 0.581,-0.577 0.219,-0.576 0.945,-0.33 0.727,-1.81 -0.218,-0.493 0.508,-0.74 1.09,-0.248 0.582,-1.316 -0.145,-1.645 0.872,-1.234 0.145,-1.235 c -1.193,-0.591 -2.376,-1.201 -3.561,-1.81"
             inkscape:connector-curvature="0" />
        </g>
      </g>
      <g
         id="g3266"
         style="color:#000000;fill:url(#radialGradient3332)">
        <g
           id="g3270"
           style="color:#000000;fill:url(#radialGradient3330)">
          <path
             id="path3272"
             style="color:#000000;fill:url(#radialGradient3328)"
             d="m 16.766,9.5649 0.726,0.4941 h 0.582 V 9.4829 L 17.348,9.1538 16.766,9.5649"
             inkscape:connector-curvature="0" />
        </g>
      </g>
      <g
         id="g3274"
         style="color:#000000;fill:url(#radialGradient3338)">
        <g
           id="g3278"
           style="color:#000000;fill:url(#radialGradient3336)">
          <path
             id="path3280"
             style="color:#000000;fill:url(#radialGradient3334)"
             d="M 14.876,8.9072 14.512,9.812 h 0.727 L 15.603,8.9892 C 15.917,8.7675 16.229,8.5444 16.548,8.331 l 0.727,0.2471 c 0.484,0.3291 0.969,0.6582 1.454,0.9868 L 19.456,8.9072 18.656,8.5781 18.292,7.8374 16.911,7.6728 16.838,7.2612 16.184,7.4262 15.894,8.002 15.53,7.2613 l -0.145,0.3291 0.073,0.8228 -0.582,0.494"
             inkscape:connector-curvature="0" />
        </g>
      </g>
      <g
         id="g3282"
         style="color:#000000;fill:url(#radialGradient3340)" />
      <g
         id="g3292"
         style="color:#000000;fill:url(#radialGradient3342)" />
      <g
         id="g3302"
         style="color:#000000;fill:url(#radialGradient3348)">
        <g
           id="g3306"
           style="color:#000000;fill:url(#radialGradient3346)">
          <path
             id="path3308"
             style="color:#000000;fill:url(#radialGradient3344)"
             d="M 17.492,6.8496 17.856,6.521 18.583,6.3564 C 19.081,6.1142 19.581,5.9511 20.11,5.7802 l -0.29,-0.4937 -0.939,0.1348 -0.443,0.4419 -0.731,0.106 -0.65,0.3052 -0.316,0.1528 -0.193,0.2583 0.944,0.1641"
             inkscape:connector-curvature="0" />
        </g>
      </g>
      <g
         id="g3310"
         style="color:#000000;fill:url(#radialGradient3354)">
        <g
           id="g3314"
           style="color:#000000;fill:url(#radialGradient3352)">
          <path
             id="path3316"
             style="color:#000000;fill:url(#radialGradient3350)"
             d="m 18.728,14.666 0.437,-0.658 -0.655,-0.493 0.218,1.151"
             inkscape:connector-curvature="0" />
        </g>
      </g>
    </g>
    <path
       id="path4122"
       d="m 42.975,23.486 c 0,10.165 -8.241,18.406 -18.406,18.406 C 14.404,41.892 6.163,33.651 6.163,23.486 6.1634,13.32 14.404,5.08 24.569,5.08 34.734,5.0799 42.975,13.32 42.975,23.486 z"
       style="fill:none;stroke:url(#radialGradient3358)"
       inkscape:connector-curvature="0" />
  </g>
  <metadata
     id="metadata93">
    <rdf:RDF>
      <cc:Work>
        <dc:format>image/svg+xml</dc:format>
        <dc:type
           rdf:resource="http://purl.org/dc/dcmitype/StillImage" />
        <cc:license
           rdf:resource="http://creativecommons.org/licenses/publicdomain/" />
        <dc:publisher>
          <cc:Agent
             rdf:about="http://openclipart.org/">
            <dc:title>Openclipart</dc:title>
          </cc:Agent>
        </dc:publisher>
        <dc:title></dc:title>
        <dc:date>2010-03-29T08:08:30</dc:date>
        <dc:description>&quot;Web browser&quot; icon from &lt;a href=&quot;http://tango.freedesktop.org/Tango_Desktop_Project&quot;&gt; Tango Project &lt;/a&gt; \n&lt;br&gt;&lt;br&gt;\nSince version 0.8.90 Tango Project icons are Public Domain: &lt;a href=&quot;http://tango.freedesktop.org/Frequently_Asked_Questions#Terms_of_Use.3F&quot;&gt; Tango Project FAQ &lt;/a&gt;</dc:description>
        <dc:source>http://openclipart.org/detail/35233/tango-inetrnet-web-browser-by-warszawianka</dc:source>
        <dc:creator>
          <cc:Agent>
            <dc:title>warszawianka</dc:title>
          </cc:Agent>
        </dc:creator>
        <dc:subject>
          <rdf:Bag>
            <rdf:li>blue</rdf:li>
            <rdf:li>clip art</rdf:li>
            <rdf:li>clipart</rdf:li>
            <rdf:li>earth</rdf:li>
            <rdf:li>externalsource</rdf:li>
            <rdf:li>glopbe</rdf:li>
            <rdf:li>icon</rdf:li>
            <rdf:li>planet</rdf:li>
            <rdf:li>tango</rdf:li>
          </rdf:Bag>
        </dc:subject>
      </cc:Work>
      <cc:License
         rdf:about="http://creativecommons.org/licenses/publicdomain/">
        <cc:permits
           rdf:resource="http://creativecommons.org/ns#Reproduction" />
        <cc:permits
           rdf:resource="http://creativecommons.org/ns#Distribution" />
        <cc:permits
           rdf:resource="http://creativecommons.org/ns#DerivativeWorks" />
      </cc:License>
    </rdf:RDF>
  </metadata>
</svg>
